<?xml version="1.0" encoding="utf-8"?>
<!-- Generator: Adobe Illustrator 27.4.1, SVG Export Plug-In . SVG Version: 6.00 Build 0)  -->
<svg version="1.1" id="Layer_1" xmlns="http://www.w3.org/2000/svg" xmlns:xlink="http://www.w3.org/1999/xlink" x="0px" y="0px"
	 viewBox="0 0 125 25" style="enable-background:new 0 0 125 25;" xml:space="preserve">
<style type="text/css">
	.st0{fill:#198FFF;}
	.st1{fill-rule:evenodd;clip-rule:evenodd;fill:#FFFFFF;}
</style>
<rect class="st0" width="125" height="25"/>
<g id="BoxKnight_Logo_and_name" transform="translate(-68.956 -267.667)">
	<path id="Path_16" class="st1" d="M95.3,289.9c1.1-0.3,1.7-0.8,1.7-1.2c0-1-2.5-1.7-5.6-1.7s-5.6,0.8-5.6,1.7
		c0,0.5,0.6,0.9,1.7,1.2H95.3z"/>
	<g>
		<path id="Path_1" class="st1" d="M113.9,274.4c2,0,3.1,1.3,3.1,2.7c0,1.3-0.8,2.2-1.8,2.4c1.1,0.2,2,1.3,2,2.6
			c0,1.6-1.1,2.9-3.1,2.9h-5.8v-10.6H113.9z M113.5,283c0.8,0,1.4-0.4,1.4-1.2c0-0.7-0.5-1.2-1.4-1.2h-2.9v2.4L113.5,283z
			 M113.4,278.6c0.8,0,1.2-0.4,1.2-1.1c0-0.7-0.5-1.1-1.2-1.1h-2.8v2.2H113.4z"/>
		<path id="Path_2" class="st1" d="M122.4,285.2c2.5,0,4.1-1.9,4.1-4c0-2.2-1.5-4-4.1-4c-2.5,0-4.1,1.8-4.1,4
			C118.4,283.3,119.9,285.2,122.4,285.2z M122.4,283.4c-1.3,0-2-1-2-2.2c0-1.2,0.7-2.2,2-2.2c1.3,0,2,1,2,2.2
			C124.4,282.3,123.7,283.4,122.4,283.4z"/>
		<path id="Path_3" class="st1" d="M134.5,285l-2.7-3.9l2.6-3.7h-2.3l-1.6,2.4l-1.6-2.4h-2.3l2.6,3.7l-2.7,3.9h2.2l1.8-2.6l1.8,2.6
			L134.5,285z"/>
		<path id="Path_4" class="st1" d="M144.6,285l-4.5-5.6l4.2-5h-2.8l-3.8,4.7v-4.7h-2.3V285h2.3v-3.3l0.8-1l3.2,4.3H144.6z"/>
		<path id="Path_5" class="st1" d="M152.8,285v-5.4c0-1.5-0.8-2.5-2.5-2.5c-1,0-2,0.4-2.7,1.2v-1h-2v7.7h2v-5.2
			c0.4-0.5,1.1-0.9,1.8-0.9c0.9,0,1.4,0.4,1.4,1.4v4.6L152.8,285z"/>
		<path id="Path_6" class="st1" d="M156.9,277.3v7.7h-2v-7.7H156.9z M155.8,276.5c0.7,0,1.2-0.5,1.2-1.2c0-0.7-0.5-1.2-1.2-1.2
			s-1.2,0.5-1.2,1.2c0,0,0,0,0,0C154.6,275.9,155.2,276.5,155.8,276.5z"/>
		<path id="Path_7" class="st1" d="M166.2,277.3v7.2c0,2.9-2.3,3.6-4.2,3.6c-1.3,0-2.3-0.3-3.3-1.1l0.9-1.4c0.6,0.7,1.4,0.9,2.4,0.9
			c1,0,2.1-0.4,2.1-2v-0.7c-0.6,0.8-1.4,1.2-2.4,1.2c-1.9,0-3.4-1.3-3.4-3.9c0-2.5,1.4-3.9,3.4-3.9c0.9,0,1.8,0.4,2.4,1.2v-1
			L166.2,277.3z M162.4,283.1c-1.2,0-2-0.8-2-2.1s0.8-2.1,2-2.1c0.7,0,1.3,0.3,1.7,0.9v2.5C163.7,282.8,163.1,283.1,162.4,283.1
			L162.4,283.1z"/>
		<path id="Path_8" class="st1" d="M175.4,285v-5.5c0-1.5-0.8-2.4-2.5-2.4c-1,0-2,0.4-2.7,1.2v-3.9h-2V285h2v-5.2
			c0.4-0.6,1.1-0.9,1.8-0.9c0.9,0,1.4,0.3,1.4,1.4v4.7H175.4z"/>
		<path id="Path_9" class="st1" d="M180,285.2c0.8,0,1.4-0.2,1.7-0.5l-0.4-1.5c-0.2,0.2-0.4,0.2-0.7,0.2c-0.4,0-0.7-0.4-0.7-0.9
			v-3.5h1.6v-1.8h-1.6v-2.1h-2v2.1h-1.3v1.8h1.3v4C177.8,284.4,178.6,285.2,180,285.2z"/>
	</g>
	<path id="Path_10" class="st1" d="M89.9,271.1c-4.9,0.8-8.7,5-8.7,10c0,5.6,4.5,10.1,10.1,10.1c5.6,0,10.1-4.5,10.1-10.1
		c0-5-3.7-9.2-8.6-10l0.1,1.2c4.3,0.7,7.3,4.4,7.3,8.7c0,4.9-4,8.8-8.8,8.8c-4.9,0-8.8-4-8.8-8.8c0,0,0,0,0,0c0-4.3,3-8.1,7.3-8.7
		L89.9,271.1z"/>
	<path id="Path_11" class="st1" d="M95.2,277.4c1.3,1.3,1.3,6.5,0,7.8c-1.3,1.3-6.5,1.3-7.8,0c-1.3-1.3-1.3-6.5,0-7.8
		C88.7,276.1,93.9,276.1,95.2,277.4z M94.7,277.9c-1.1-1.1-5.6-1.1-6.7,0c-1.1,1.1-1.1,5.6,0,6.7c0.7,0.7,2.8,1,4.4,0.8
		c1-0.1,1.9-0.4,2.3-0.8C95.8,283.5,95.8,279,94.7,277.9z"/>
	<path id="Path_12" class="st1" d="M91.3,277c0,0-1.5-3.8-3.5-2.8c-1.6,0.8-0.4,2.4,0.6,1.9C89.7,275.4,91.3,277,91.3,277z"/>
	<path id="Path_13" class="st1" d="M91.3,277c0,0,1.5-3.8,3.5-2.8c1.6,0.8,0.4,2.4-0.6,1.9C92.9,275.4,91.3,277,91.3,277z"/>
	<path id="Path_14" class="st1" d="M87,279.8c-0.4-0.2-1-0.1-1.2,0.3c-0.2,0.4-0.1,1,0.3,1.2c0.3,0.2,0.6,0.2,0.9,0V279.8z"/>
	<path id="Path_15" class="st1" d="M95.6,279.8c0.4-0.2,1-0.1,1.2,0.3c0.2,0.4,0.1,1-0.3,1.2c-0.3,0.2-0.6,0.2-0.9,0V279.8z"/>
	<path id="Path_17" class="st1" d="M90.1,282.1c0.2,0,0.3,0.2,0.3,0.5s-0.1,0.5-0.3,0.5c-0.2,0-0.3-0.2-0.3-0.5
		S89.9,282.1,90.1,282.1z"/>
	<path id="Path_18" class="st1" d="M92.4,282.1c0.2,0,0.3,0.2,0.3,0.5s-0.1,0.5-0.3,0.5c-0.2,0-0.3-0.2-0.3-0.5
		S92.3,282.1,92.4,282.1z"/>
	<path id="Path_19" class="st1" d="M91.3,269.2c0,0-1.6,0.7-1.4,3.4c0.1,2.7,1.4,4.4,1.4,4.4s1.3-1.7,1.4-4.4
		C92.9,270,91.3,269.2,91.3,269.2z"/>
	<path id="Path_20" class="st1" d="M91.3,278.2l4.9,2.1v1l-4.9-0.4l-4.9,0.4v-1L91.3,278.2z M87.8,280h-0.4c-0.1,0-0.2,0.1-0.2,0.2
		v0.5c0,0.1,0.1,0.2,0.2,0.2h0.4c0.1,0,0.2-0.1,0.2-0.2v-0.5C88,280.1,87.9,280,87.8,280z M95.1,280h-0.4c-0.1,0-0.2,0.1-0.2,0.2
		v0.5c0,0.1,0.1,0.2,0.2,0.2h0.4c0.1,0,0.2-0.1,0.2-0.2v-0.5C95.3,280.1,95.2,280,95.1,280z M93.8,279.5h-0.4
		c-0.1,0-0.2,0.1-0.2,0.2v0.9c0,0.1,0.1,0.2,0.2,0.2h0.4c0.1,0,0.2-0.1,0.2-0.2v-0.9C93.9,279.6,93.8,279.5,93.8,279.5z M89.2,279.5
		h-0.4c-0.1,0-0.2,0.1-0.2,0.2v0.9c0,0.1,0.1,0.2,0.2,0.2h0.4c0.1,0,0.2-0.1,0.2-0.2v-0.9C89.4,279.6,89.3,279.5,89.2,279.5z
		 M92.4,278.8H92c-0.1,0-0.2,0.1-0.2,0.2v1.6c0,0.1,0.1,0.2,0.2,0.2h0.4c0.1,0,0.2-0.1,0.2-0.2v-1.6
		C92.5,278.8,92.5,278.8,92.4,278.8z M90.6,278.8h-0.4c-0.1,0-0.2,0.1-0.2,0.2v1.6c0,0.1,0.1,0.2,0.2,0.2h0.4c0.1,0,0.2-0.1,0.2-0.2
		v-1.6C90.8,278.8,90.7,278.8,90.6,278.8z"/>
</g>
</svg>
