<?xml version="1.0" encoding="utf-8"?>
<!-- Generator: Adobe Illustrator 27.3.1, SVG Export Plug-In . SVG Version: 6.00 Build 0)  -->
<svg version="1.1" id="Layer_1" xmlns="http://www.w3.org/2000/svg" xmlns:xlink="http://www.w3.org/1999/xlink" x="0px" y="0px"
	 viewBox="0 0 512 512" style="enable-background:new 0 0 512 512;" xml:space="preserve">
<style type="text/css">
	.st0{fill:#DC0032;}
	.st1{fill-rule:evenodd;clip-rule:evenodd;fill:#FFFFFF;}
</style>
<path class="st0" d="M511.8,472.3c0,22.1-17.9,40-40,40h-432c-22.1,0-40-17.9-40-40v-432c0-22.1,17.9-40,40-40h432
	c22.1,0,40,17.9,40,40V472.3z"/>
<g>
	<path id="path9" class="st1" d="M386.2,108.2h0.3l0,0H386.2z"/>
	<path id="path11" class="st1" d="M378.5,104l5.1,5.8l2.9-1.6L378.5,104z"/>
	<path id="path13" class="st1" d="M370.8,99.8l10,11.6l3.5-1.9l-3.9-4.5C380.5,105,370.8,99.8,370.8,99.8z"/>
	<path id="path15" class="st1" d="M362.8,95.6l15.1,17.4l3.5-1.9l-8.7-10.3C372.7,100.8,362.8,95.6,362.8,95.6z"/>
	<path id="path17" class="st1" d="M355,91.5l19.9,23.2l3.5-1.9l-13.8-16.1L355,91.5z M393.3,132.3l-2.3,1.3l2.3,2.6
		C393.3,136.2,393.3,132.3,393.3,132.3z"/>
	<path id="path19" class="st1" d="M347.3,87.3l24.8,28.9l3.5-1.9L357,92.4L347.3,87.3z M392,132.9l-3.5,2.3l4.8,5.8v-6.1L392,132.9
		L392,132.9z"/>
	<path id="path21" class="st1" d="M339.3,83.1l29.9,34.7l3.9-1.9l-23.8-27.7C349.3,88.2,339.3,83.1,339.3,83.1z M389.1,134.5
		l-3.5,2.3l7.7,9v-6.1C393.3,139.7,389.1,134.5,389.1,134.5z"/>
	<path id="path23" class="st1" d="M331.6,78.9l35.1,40.5l3.5-1.9l-28.9-33.4C341.2,84.1,331.6,78.9,331.6,78.9z M386.2,136.5
		l-3.5,1.9l10.6,12.5v-6.1C393.3,144.8,386.2,136.5,386.2,136.5z"/>
	<path id="path25" class="st1" d="M323.9,74.7l39.9,46.3l3.5-1.9l-33.8-39.2C333.5,79.9,323.9,74.7,323.9,74.7z M383.3,138.1
		l-3.5,1.9l13.5,15.8v-6.1C393.3,149.7,383.3,138.1,383.3,138.1z"/>
	<path id="path27" class="st1" d="M315.8,70.6l45,52.1l3.5-1.9l-38.6-45C325.8,75.7,315.8,70.6,315.8,70.6z M380.5,139.7l-3.5,1.9
		l16.4,19v-6.1L380.5,139.7z"/>
	<path id="path29" class="st1" d="M308.1,66.4l49.8,58.2l3.5-2.3l-43.7-50.8L308.1,66.4z M377.6,141.3l-3.5,1.9l19.3,22.5v-6.1
		C393.3,159.6,377.6,141.3,377.6,141.3z"/>
	<path id="path31" class="st1" d="M300.1,62.2l55,64l3.5-2.3L310,67.3L300.1,62.2z M375,142.9l-3.9,1.9l22.2,25.7v-6.1L375,142.9z"
		/>
	<path id="path33" class="st1" d="M292.3,58l59.8,69.8l3.9-2.3l-53.7-62.4L292.3,58z M372.1,144.5l-3.5,1.9l24.8,29.3v-6.4
		C393.3,169.3,372.1,144.5,372.1,144.5z"/>
	<path id="path35" class="st1" d="M284.6,53.8l65,75.6l3.5-2.3L294.3,59C294.3,59,284.6,53.8,284.6,53.8z M369.2,146.1l-3.5,1.9
		l27.7,32.5v-6.1C393.3,174.4,369.2,146.1,369.2,146.1z"/>
	<path id="path37" class="st1" d="M276.6,49.3l70.1,81.7l3.5-2.3l-63.7-74L276.6,49.3z M366.3,147.7l-3.5,1.9l30.6,35.7v-6.1
		C393.3,179.2,366.3,147.7,366.3,147.7z"/>
	<path id="path39" class="st1" d="M268.9,45.1l74.9,87.5l3.5-1.9l-68.5-80.1L268.9,45.1z M363.4,149.3l-3.5,1.9l33.4,39.2v-6.4
		C393.3,184.1,363.4,149.3,363.4,149.3z"/>
	<path id="path41" class="st1" d="M261.1,41.3l79.8,92.9l3.5-1.9l-73.6-85.9L261.1,41.3L261.1,41.3z M360.5,150.9l-3.5,1.9
		l36.3,42.4v-6.1L360.5,150.9z"/>
	<path id="path43" class="st1" d="M256,40L256,40l82,95.8l3.5-1.9l-78.5-91.7l-1.9-1C259.5,40.3,257.9,40,256,40z M357.6,152.6
		l-3.5,1.9l39.2,45.7V194C393.3,194,357.6,152.6,357.6,152.6z"/>
	<path id="path45" class="st1" d="M256,40c-1.3,0-2.6,0.3-3.9,0.6l83,96.8l3.9-1.9L257,40C256.6,40,256.3,40,256,40z M355,154.2
		l-3.5,1.9l41.8,49.2v-6.4C393.3,198.9,355,154.2,355,154.2z"/>
	<path id="path47" class="st1" d="M253.1,40.3c-0.6,0.3-1.6,0.6-1.9,1l-1.9,1l83.3,96.8l3.5-1.9C336.1,137.1,253.1,40.3,253.1,40.3z
		 M352.2,155.8l-3.5,2.3l44.7,52.1V204L352.2,155.8z"/>
	<path id="path49" class="st1" d="M249.9,41.6l-3.5,1.9l83.3,97.1l3.5-1.9C333.2,138.7,249.9,41.6,249.9,41.6z M349.3,157.4
		l-3.5,2.3l47.6,55.3v-6.1C393.3,208.8,349.3,157.4,349.3,157.4z"/>
	<path id="path51" class="st1" d="M247,43.2l-3.5,1.9l83.3,97.1l3.5-1.9C330.3,140.3,247,43.2,247,43.2z M346.4,159l-3.5,2.3
		l50.5,58.8V214C393.3,214,346.4,159,346.4,159z"/>
	<path id="path53" class="st1" d="M244.1,44.8l-3.5,1.9l83.3,97.1l3.5-1.9C327.4,141.9,244.1,44.8,244.1,44.8z M343.5,160.6
		l-3.5,2.3l53.4,62.1v-6.1L343.5,160.6z"/>
	<path id="path55" class="st1" d="M241.2,46.4l-3.5,1.9l83.3,97.1l3.5-1.9C324.5,143.5,241.2,46.4,241.2,46.4z M340.6,162.2
		l-3.5,2.3l56.3,65.3v-6.1C393.3,223.6,340.6,162.2,340.6,162.2z"/>
	<path id="path57" class="st1" d="M238.3,48l-3.5,1.9l83.3,97.1l3.5-1.9C321.6,145.2,238.3,48,238.3,48z M338,163.8l-3.5,2.3
		l58.8,68.8v-6.1C393.3,228.8,338,163.8,338,163.8z"/>
	<path id="path59" class="st1" d="M235.4,49.3l-3.5,2.3l83.6,97.1l3.5-1.9C319,146.8,235.4,49.3,235.4,49.3z M335.1,165.7l-3.5,1.9
		l61.7,72v-6.1L335.1,165.7z"/>
	<path id="path61" class="st1" d="M232.5,50.9l-3.5,1.9l83.6,97.4l3.5-1.9C316.1,148.4,232.5,50.9,232.5,50.9z M332.2,167.3
		l-3.5,1.9l64.6,75.6v-6.4C393.3,238.4,332.2,167.3,332.2,167.3z"/>
	<path id="path63" class="st1" d="M229.6,52.5l-3.5,1.9l83.6,97.8l3.5-2.3L229.6,52.5z M329.3,169l-3.5,1.9l67.5,78.8v-6.1
		L329.3,169z"/>
	<path id="path65" class="st1" d="M226.7,54.1l-3.5,1.9l83.6,97.8l3.5-2.3L226.7,54.1z M326.4,170.6l-3.5,1.9l70.4,82v-6.1
		C393.3,248.4,326.4,170.6,326.4,170.6z"/>
	<path id="path67" class="st1" d="M223.8,55.8l-3.5,1.9l83.6,97.8l3.5-2.3C307.5,153.2,223.8,55.8,223.8,55.8z M323.5,172.2
		l-3.5,1.9l73.3,85.5v-6.4C393.3,253.2,323.5,172.2,323.5,172.2z"/>
	<path id="path69" class="st1" d="M220.9,57.4l-3.5,1.9l83.6,97.8l3.5-2.3C304.6,154.8,220.9,57.4,220.9,57.4z M321,173.8l-3.5,1.9
		l75.9,88.8v-6.1C393.3,258.4,321,173.8,321,173.8z"/>
	<path id="path71" class="st1" d="M218.1,58.7l-3.9,1.9l84.3,98.1l3.5-2.3C302,156.4,218.1,58.7,218.1,58.7z M318.1,175.4l-3.5,1.9
		l78.8,92v-6.1L318.1,175.4z"/>
	<path id="path73" class="st1" d="M215.2,60.3l-3.9,1.9l84.6,98.4c0.3-0.6,0.6-1,1.3-1.3l1.9-1.3C299.1,158,215.2,60.3,215.2,60.3z
		 M315.2,177l-3.5,1.9l81,94.5c0.3-1,0.6-1.9,0.6-2.9V268L315.2,177L315.2,177z"/>
	<path id="path75" class="st1" d="M212.3,61.9l-3.9,1.9l86.5,100.7v-1.3c0-1,0.6-2.3,1.3-3.2L212.3,61.9z M312.3,178.6l-2.6,1.6
		c-0.3,0-0.6,0.3-1,0.3l82.3,96.2c1-1.3,1.6-2.6,1.9-3.9L312.3,178.6z"/>
	<path id="path77" class="st1" d="M209.4,63.5l-3.9,1.9l89.4,104.2v-6.4C294.9,163.2,209.4,63.5,209.4,63.5z M303.3,178.9l85.5,100
		c1-0.6,1.9-1.9,2.9-2.9l-82.3-95.8c-1.3,0.6-3.2,0.6-4.5,0L303.3,178.9z"/>
	<path id="path79" class="st1" d="M206.5,65.1l-3.9,1.9l183.3,213.5l2.6-1.3c0.3-0.3,0.6-0.6,1-1l-84.3-98.1h-0.3l-7.4-4.5
		c-0.6-0.3-1-1-1.6-1.6l0,0c-0.6-1-0.6-1.6-1-2.3v-3.5C294.9,168.3,206.5,65.1,206.5,65.1z"/>
	<path id="path81" class="st1" d="M203.6,66.7l-3.9,1.9L383,282.2l3.5-1.9L203.6,66.7z"/>
	<path id="path83" class="st1" d="M200.7,68l-3.9,1.9l183.6,213.9l3.5-1.9L200.7,68z"/>
	<path id="path85" class="st1" d="M197.8,69.6l-3.9,1.9l183.6,213.9l3.5-1.9L197.8,69.6z"/>
	<path id="path87" class="st1" d="M194.9,71.2l-3.9,1.9L374.7,287l3.5-1.9L194.9,71.2z"/>
	<path id="path89" class="st1" d="M191.7,72.8l-3.5,1.9l183.6,214.2l3.5-2.3L191.7,72.8z"/>
	<path id="path91" class="st1" d="M188.8,74.4l-3.5,1.9l183.6,214.2l3.5-2.3L188.8,74.4z"/>
	<path id="path93" class="st1" d="M185.9,76l-3.5,1.9l183.9,214.2l3.5-2.3L185.9,76z"/>
	<path id="path95" class="st1" d="M183,77.3l-3.5,1.9l183.9,214.5l3.5-2.3L183,77.3z"/>
	<path id="path97" class="st1" d="M180.1,78.9l-3.5,1.9l183.9,214.5l3.5-1.9L180.1,78.9z"/>
	<path id="path99" class="st1" d="M177.2,80.5l-3.5,1.9l89.4,104.2l2.9,1.9c1.3,0.6,2.6,2.3,2.6,3.9v0.3l89.1,104.2l3.5-1.9
		L177.2,80.5z"/>
	<path id="path101" class="st1" d="M174.3,82.1l-3.5,1.9l83.9,98.1l10.6,5.8L174.3,82.1z M268.2,191.5c0,0.3,0.3,0.6,0.3,1v5.5
		l86.2,100.7l3.5-1.9C358.3,296.6,268.2,191.5,268.2,191.5z"/>
	<path id="path103" class="st1" d="M171.4,83.7l-3.5,1.9l78.5,91.7l10.6,5.8C257,183.1,171.4,83.7,171.4,83.7z M268.5,196.6v6.1
		l83.6,97.4l3.5-1.9L268.5,196.6z"/>
	<path id="path105" class="st1" d="M168.5,85.3l-3.5,1.9l73.3,85.2l10.3,5.8L168.5,85.3z M268.5,201.4v6.4l80.7,93.9l3.5-1.9
		L268.5,201.4z"/>
	<path id="path107" class="st1" d="M165.6,86.6l-3.5,1.9l67.9,79.1l10.3,6.1L165.6,86.6z M268.5,206.6v6.1l77.8,90.7l3.5-1.9
		L268.5,206.6z"/>
	<path id="path109" class="st1" d="M162.7,88.2l-3.5,1.9l62.4,72.7l10.3,6.1C231.9,169,162.7,88.2,162.7,88.2z M268.5,211.4v6.1
		l74.9,87.5l3.5-1.9L268.5,211.4z"/>
	<path id="path111" class="st1" d="M159.8,89.8l-3.5,1.9l56.9,66.6l10.3,5.8L159.8,89.8z M268.5,216.2v6.4l72,84.3l3.5-2.3
		C344.1,304.7,268.5,216.2,268.5,216.2z"/>
	<path id="path113" class="st1" d="M157,91.5l-3.5,1.9l51.5,60.1l10.3,5.8C215.2,159.3,157,91.5,157,91.5z M268.5,221.4v6.1l69.5,81
		l3.5-2.3C341.5,306.3,268.5,221.4,268.5,221.4z"/>
	<path id="path115" class="st1" d="M154.1,93.1l-3.5,1.9l46,53.7l10.6,5.8C207.1,154.5,154.1,93.1,154.1,93.1z M268.5,226.2v6.1
		l66.6,77.8l3.5-2.3C338.6,307.9,268.5,226.2,268.5,226.2z"/>
	<path id="path117" class="st1" d="M151.2,94.7l-3.5,1.9l40.5,47.3l10.6,6.1C198.8,150,151.2,94.7,151.2,94.7z M235.4,198.9l8.4,9.6
		V205c0-0.6-0.6-1.6-1.3-1.9L235.4,198.9z M268.5,231v6.4l63.7,74.3l3.5-2.3L268.5,231z"/>
	<path id="path119" class="st1" d="M148.3,96l-3.5,1.9l35.1,41.2l10.6,6.1C190.4,145.2,148.3,96,148.3,96z M227.1,194l16.7,19.3
		v-6.1l-6.1-7.1C237.7,200.1,227.1,194,227.1,194z M268.5,236.2v6.1l60.8,71.1l3.5-1.9C332.9,311.4,268.5,236.2,268.5,236.2z"/>
	<path id="path121" class="st1" d="M145.4,97.6l-3.5,1.9l29.9,35.1l10.3,5.8C182,140.3,145.4,97.6,145.4,97.6z M218.7,189.5
		l25.1,28.9v-6.1l-14.5-17C229.3,195.3,218.7,189.5,218.7,189.5z M268.5,241v6.1l57.9,67.9l3.5-1.9C330,313,268.5,241,268.5,241z"/>
	<path id="path123" class="st1" d="M142.5,99.2l-3.5,1.9l24.4,28.6l10.3,5.8C173.7,135.5,142.5,99.2,142.5,99.2z M210.7,184.7
		l33.1,38.6v-6.1l-22.8-26.7C220.9,190.5,210.7,184.7,210.7,184.7z M268.5,246.1v6.1l55.3,64.3l3.5-1.9L268.5,246.1z"/>
	<path id="path125" class="st1" d="M139.6,100.8l-3.5,1.9l19,22.2l10.3,5.8C165.3,130.7,139.6,100.8,139.6,100.8z M202.3,179.9
		l41.5,48.2V222l-31.2-36L202.3,179.9z M268.5,251v6.1l52.4,61.1l3.5-1.9C324.5,316.2,268.5,251,268.5,251z"/>
	<path id="path127" class="st1" d="M136.7,102.4l-3.5,1.9l13.5,15.8l10.3,6.1L136.7,102.4z M193.9,175.1l49.8,58.2v-6.1l-39.6-46
		L193.9,175.1z M268.5,255.8v6.1l49.5,57.9l3.5-1.9L268.5,255.8z"/>
	<path id="path129" class="st1" d="M133.8,104l-3.5,1.9l8,9.3l10.6,6.1C148.9,121.4,133.8,104,133.8,104z M185.6,170.6l58.2,67.5
		V232l-47.9-55.6L185.6,170.6z M268.5,260.9v6.1l46.6,54.3l3.5-1.9C318.7,319.5,268.5,260.9,268.5,260.9z"/>
	<path id="path131" class="st1" d="M130.9,105.3l-3.9,1.9l2.9,3.5l10.6,5.8C140.6,116.5,130.9,105.3,130.9,105.3z M177.2,165.7
		l66.6,77.5v-6.4l-56-65.3C187.8,171.5,177.2,165.7,177.2,165.7z M268.5,265.8v6.1l43.7,51.5l3.5-2.3
		C315.8,321.1,268.5,265.8,268.5,265.8z"/>
	<path id="path133" class="st1" d="M128,106.9l-2.3,1.3l6.4,3.5C132.2,111.7,128,106.9,128,106.9z M168.9,160.9l74.9,87.1V242
		L179.5,167C179.5,167,168.9,160.9,168.9,160.9z M268.5,270.6v6.4l41.2,47.9l3.5-2.3L268.5,270.6z"/>
	<path id="path135" class="st1" d="M160.8,156.1l83,96.8v-6.1l-72.7-84.6L160.8,156.1z M268.5,275.7v6.1l38.3,44.7l3.5-2.3
		L268.5,275.7z"/>
	<path id="path137" class="st1" d="M152.5,151.6L243.8,258v-6.4l-81-94.2L152.5,151.6z M268.5,280.5v6.1l35.4,41.5l3.5-2.3
		L268.5,280.5z"/>
	<path id="path139" class="st1" d="M144.1,146.8l99.7,116.1v-6.1l-89.4-104.2C154.4,152.6,144.1,146.8,144.1,146.8z M268.5,285.4
		v6.4l32.5,37.9l3.5-1.9C304.6,327.8,268.5,285.4,268.5,285.4z"/>
	<path id="path141" class="st1" d="M135.7,141.9l108.1,125.7v-6.1L146,148.1L135.7,141.9z M268.5,290.5v6.1l29.6,34.7l3.5-1.9
		L268.5,290.5z"/>
	<path id="path143" class="st1" d="M127.4,137.1l116.4,135.7v-6.1L137.7,143.2L127.4,137.1z M268.5,295.3v6.1l27,31.5l3.5-1.9
		L268.5,295.3z"/>
	<path id="path145" class="st1" d="M119,132.6l124.8,145v-6.1L129.6,138.4C129.6,138.4,119,132.6,119,132.6z M268.5,300.2v6.4
		l24.1,28l3.5-1.9C296.2,332.6,268.5,300.2,268.5,300.2z"/>
	<path id="path147" class="st1" d="M118.7,132.3v4.5l125.1,145.7v-6.1L121.3,133.6L118.7,132.3z M268.5,305.3v3.9
		c0,0.6-0.3,1.3-0.6,1.6l21.9,25.4l3.5-1.9C293.3,334.2,268.5,305.3,268.5,305.3z"/>
	<path id="path149" class="st1" d="M118.7,135.5v6.4l125.1,145.7v-6.1L118.7,135.5z M268.2,310.1c-0.3,1.3-1.3,2.6-2.3,2.9l-0.3,0.3
		l21.2,24.4l3.5-1.9C290.4,335.9,268.2,310.1,268.2,310.1z"/>
	<path id="path151" class="st1" d="M118.7,140.7v6.1l125.1,145.7v-6.1L118.7,140.7z M266.3,312.7c0,0.3,0,0.3-0.3,0.3l-3.2,1.9
		l21.2,24.4l3.5-1.9L266.3,312.7L266.3,312.7z"/>
	<path id="path153" class="st1" d="M118.7,145.5v6.1l125.1,145.7v-6.1L118.7,145.5z M263.7,314.3l-3.9,2.3l21.5,24.8l3.5-2.3
		L263.7,314.3z"/>
	<path id="path155" class="st1" d="M118.7,150.6v6.1l125.1,145.7v-6.1L118.7,150.6z M260.8,315.9l-2.3,1.3c-0.6,0.3-1.3,0.3-1.9,0.3
		l21.9,25.4l3.5-2.3L260.8,315.9L260.8,315.9z"/>
	<path id="path157" class="st1" d="M118.7,155.4v6.1l125.1,145.7v-6.1L118.7,155.4z M250.9,315.9l24.8,28.6l3.5-2.3l-21.5-24.8
		c-0.3,0-1,0.3-1.3,0.3H256c-1,0-1.6-0.3-2.3-0.6L250.9,315.9L250.9,315.9z"/>
	<path id="path159" class="st1" d="M118.7,160.3v6.4l154,179.4l3.5-2.3l-23.2-27L246,313c-1.3-0.6-2.3-2.3-2.3-3.9v-3.2L118.7,160.3
		z"/>
	<path id="path161" class="st1" d="M118.7,165.4v6.1l151.1,176.2l3.5-1.9L118.7,165.4z"/>
	<path id="path163" class="st1" d="M118.7,170.2v6.1l148.2,173l3.5-1.9L118.7,170.2z"/>
	<path id="path165" class="st1" d="M118.7,175.1v6.4L264.4,351l3.5-1.9L118.7,175.1z"/>
	<path id="path167" class="st1" d="M118.7,180.2v6.1l142.8,166.3l3.5-1.9L118.7,180.2z"/>
	<path id="path169" class="st1" d="M118.7,185v6.1l139.6,162.7c1-0.3,1.9-0.6,2.9-1l1-0.6L118.7,185z"/>
	<path id="path171" class="st1" d="M118.7,189.9v6.4l135.4,157.6c0.6,0,1.3,0,1.9,0c1,0,1.9,0,2.9-0.3L118.7,189.9z"/>
	<path id="path173" class="st1" d="M118.7,195v6.1l128,149.2l4.5,2.6c1,0.6,2.6,1,3.9,1L118.7,195z"/>
	<path id="path175" class="st1" d="M118.7,199.8v6.1l119.6,139.6l10.6,6.1L118.7,199.8z"/>
	<path id="path177" class="st1" d="M118.7,205v6.1L230,340.7l10.6,6.1L118.7,205z"/>
	<path id="path179" class="st1" d="M118.7,209.8v6.1l102.9,119.9l10.3,6.1L118.7,209.8z"/>
	<path id="path181" class="st1" d="M118.7,214.6v6.1L213.2,331l10.3,6.1L118.7,214.6z"/>
	<path id="path183" class="st1" d="M118.7,219.8v6.1l85.9,100l10.6,6.1L118.7,219.8z"/>
	<path id="path185" class="st1" d="M118.7,224.6v6.1l77.5,90.4l10.6,6.1L118.7,224.6z"/>
	<path id="path187" class="st1" d="M118.7,229.4v6.1l69.1,80.7l10.6,6.1C198.4,322.3,118.7,229.4,118.7,229.4z"/>
	<path id="path189" class="st1" d="M118.7,234.6v6.1l60.8,70.7l10.6,6.1L118.7,234.6z"/>
	<path id="path191" class="st1" d="M118.7,239.4v6.1l52.4,61.1l10.6,6.1L118.7,239.4z"/>
	<path id="path193" class="st1" d="M118.7,244.2v6.4l44.1,51.1l10.3,6.1L118.7,244.2z"/>
	<path id="path195" class="st1" d="M118.7,249.3v6.1l35.4,41.5l10.6,6.1L118.7,249.3z"/>
	<path id="path197" class="st1" d="M118.7,254.2v6.1l27,31.8l10.6,5.8L118.7,254.2z"/>
	<path id="path199" class="st1" d="M118.7,259v6.4l18.7,21.5l10.6,6.1L118.7,259z"/>
	<path id="path201" class="st1" d="M118.7,264.1v6.1l10.3,11.9l10.6,6.1L118.7,264.1z"/>
	<path id="path203" class="st1" d="M118.7,269v1.6c0,3.2,2.3,7.1,4.8,8.7l7.7,4.2C131.2,283.4,118.7,269,118.7,269z"/>
	<path id="path205" class="st1" d="M120.6,276.4c0.6,0.6,1,1.3,1.6,1.6L120.6,276.4z"/>
</g>
<path id="path7" class="st1" d="M225.3,450.9c-6,1.7-13.7,2.4-20.4,2.4c-17.3,0-28.7-9-28.7-25.5c0-15.7,10.7-25.8,26.2-25.8
	c3.5,0,7.2,0.4,9.4,1.5v-22.7h13.4V450.9z M211.9,415.2c-2.1-1-5-1.5-8.3-1.5c-8.2,0-13.6,5-13.6,13.7c0,9.3,5.8,14.5,15.4,14.5
	c1.7,0,4.3,0,6.5-0.6V415.2z M335.7,450.9c-6,1.7-13.7,2.4-20.5,2.4c-17.2,0-28.7-9-28.7-25.5c0-15.7,10.7-25.8,26.2-25.8
	c3.6,0,7.2,0.4,9.4,1.5v-22.7h13.6V450.9z M322.1,415.2c-2.1-1-4.8-1.5-8.2-1.5c-8.3,0-13.7,5-13.7,13.7c0,9.3,6,14.5,15.5,14.5
	c1.7,0,4.2,0,6.4-0.6V415.2z M246.5,415.2c2.2-1,5.4-1.2,8-1.2c8.3,0,14,4.7,14,13.2c0,10-6.4,14.5-14.8,14.7v11.5h0.7
	c17.5,0,27.8-9.6,27.8-26.6c0-15.5-11.1-24.7-27.4-24.7c-8.3,0-16.5,1.9-21.9,4.2V472h13.6L246.5,415.2z"/>
</svg>
