<svg xmlns="http://www.w3.org/2000/svg" xmlns:xlink="http://www.w3.org/1999/xlink" fill="none" viewBox="0 0 512 512"><g><path d="m55.5477 74.865c-.9498 0-1.6669-.1212-2.4956-.596l-25.2783-14.6599v12.8715l25.2783 14.67c.8287.4748 1.5458.5962 2.4956.5962.8386 0 1.7882-.2425 2.5055-.5962l53.0528-30.7644v12.8817l-53.0528 30.6331c-.7173.475-1.5458.717-2.5055.717-.8284 0-1.6669-.242-2.4956-.717l-25.2783-14.5385v12.7501l25.2783 14.6704c.8287.474 1.6672.596 2.4956.596.9597 0 1.9096-.243 2.5055-.596l53.0528-30.6436v8.1028c0 2.8693-1.546 5.6072-4.052 7.042l-47.4549 27.4198c-1.1821.708-2.6166 1.071-4.0514 1.071-1.4246 0-2.7379-.363-4.0515-1.071l-47.4448-27.4198c-2.50559-1.4348-4.0514-4.1727-4.0514-7.042v-54.7192c0-2.9804 1.54581-5.7183 4.0514-7.1531l47.4448-27.29896c1.3136-.707226 2.6269-1.07094 4.0515-1.07094 1.4348 0 2.8693.363714 4.0514 1.07094l47.4549 27.29896c2.506 1.4348 4.052 4.1727 4.052 7.1531v8.1129l-53.0528 30.6331c-.7173.3637-1.6669.596-2.5055.596z" fill="#0275d8"/></g></svg>