<?xml version="1.0" encoding="utf-8"?>
<!-- Generator: Adobe Illustrator 25.4.1, SVG Export Plug-In . SVG Version: 6.00 Build 0)  -->
<svg version="1.1" id="svg58" inkscape:version="1.0 (4035a4f, 2020-05-01)" sodipodi:docname="logo.svg"
  xmlns:cc="http://creativecommons.org/ns#"
  xmlns:dc="http://purl.org/dc/elements/1.1/"
  xmlns:inkscape="http://www.inkscape.org/namespaces/inkscape"
  xmlns:rdf="http://www.w3.org/1999/02/22-rdf-syntax-ns#"
  xmlns:sodipodi="http://sodipodi.sourceforge.net/DTD/sodipodi-0.dtd"
  xmlns:svg="http://www.w3.org/2000/svg"
  xmlns="http://www.w3.org/2000/svg"
  xmlns:xlink="http://www.w3.org/1999/xlink" x="0px" y="0px" viewBox="0 0 125 25" style="enable-background:new 0 0 125 25;" xml:space="preserve">
  <style type="text/css">
	.st0{fill:#ddd;}
  .st1{fill:#5722CC;}
  </style>
  <path class="st1" d="M125,0v25H0V0H125z"/>
  <g id="g66" transform="matrix(1.3333333,0,0,-1.3333333,0,341.072)" inkscape:groupmode="layer" inkscape:label="Karrio Logos">
    <g id="g190" transform="matrix(0.95373055,0,0,0.82935773,-24.204626,32.972226)">
      <path id="path106" class="st0" d="M106.5,252.7h-3.9v8.3h3.9V252.7z M102.4,263.3c0,1.1,0.9,1.8,2.2,1.8c1.3,0,2.2-0.7,2.2-1.8
			c0-1.1-0.9-1.8-2.2-1.8C103.3,261.5,102.4,262.2,102.4,263.3"/>
      <g id="g171">
        <g id="g80" transform="matrix(1.3760598,0,0,1.3974361,196.98304,189.97855)">
          <path id="path82" class="st0" d="M-118.6,48.4v-1.1c0.4-0.5,0.9-0.6,1.3-0.6c0.8,0,1.2,0.5,1.2,1.2c0,0.7-0.4,1.2-1.2,1.2
					C-117.8,49-118.2,48.8-118.6,48.4 M-118.6,45.6v-2.8h-2.9v8h2.9v-0.7c0.6,0.7,1.3,0.9,2.2,0.9c1.8,0,3.1-1.2,3.1-3.2
					c0-2-1.2-3.2-3.1-3.2C-117.3,44.7-118.1,44.9-118.6,45.6"/>
        </g>
        <g id="g84" transform="matrix(1.3760598,0,0,1.3974361,288.51385,206.56639)">
          <path id="path86" class="st0" d="M-171.5,38.9V33h-2.9v0.8c-0.5-0.7-1.3-1-2.2-1c-1.6,0-2.6,1.1-2.6,2.6v3.6h2.9v-3.4
					c0-0.4,0.3-0.7,0.8-0.7c0.4,0,0.8,0.2,1.1,0.7v3.4H-171.5z"/>
        </g>
        <g id="g88" transform="matrix(1.3760598,0,0,1.3974361,296.03925,166.18119)">
          <path id="path90" class="st0" d="M-175.8,61.9v5.9h2.9v-0.9c0.5,0.7,1.3,1,2.2,1v-2.3c-1.2,0-2-0.4-2.2-1.3v-2.5H-175.8z"/>
        </g>
        <g id="g92" transform="matrix(1.3760598,0,0,1.3974361,353.98292,189.97855)">
          <path id="path94" class="st0" d="M-209.3,48.4v-1.1c0.4-0.5,0.9-0.6,1.3-0.6c0.8,0,1.2,0.5,1.2,1.2c0,0.7-0.4,1.2-1.2,1.2
					C-208.4,49-208.9,48.8-209.3,48.4 M-209.3,45.6v-2.8h-2.9v8h2.9v-0.7c0.6,0.7,1.3,0.9,2.2,0.9c1.8,0,3.1-1.2,3.1-3.2
					c0-2-1.2-3.2-3.1-3.2C-208,44.7-208.7,44.9-209.3,45.6"/>
        </g>
        <path id="path96" class="st0" d="M74.3,263.6h3.9v-11h-3.9V263.6z"/>
        <g id="g98" transform="matrix(1.3760598,0,0,1.3974361,469.22999,179.73939)">
          <path id="path100" class="st0" d="M-275.9,54.2c0-1.2-1.2-2.2-3.7-2.2c-1.7,0-2.9,0.4-3.8,1l1.1,1.4c0.7-0.4,1.6-0.7,2.8-0.7
					c0.6,0,0.9,0.1,0.9,0.2c0,0.2-0.2,0.2-1.1,0.3c-1.8,0.1-3.5,0.7-3.5,2.1c0,1.3,1.5,2.1,3.6,2.1c1.3,0,2.6-0.2,3.4-0.7l-1.1-1.4
					c-0.6,0.3-1.4,0.5-2.3,0.5c-0.6,0-1-0.1-1-0.2c0-0.2,0.3-0.2,1.1-0.3C-277.4,56.1-275.9,55.6-275.9,54.2"/>
        </g>
        <g id="g102" transform="matrix(1.3760598,0,0,1.3974361,525.5396,190.48358)">
          <path id="path104" class="st0" d="M-308.4,48.1v-3.6h-2.9v3.4c0,0.4-0.3,0.7-0.8,0.7c-0.4,0-0.8-0.2-1.1-0.7v-3.4h-2.9v5.9v1.9
					h2.9v-2.1v-0.6c0.5,0.7,1.3,1,2.2,1C-309.4,50.6-308.4,49.6-308.4,48.1"/>
        </g>
        <g id="g108" transform="matrix(1.3760598,0,0,1.3974361,578.43988,189.97855)">
          <path id="path110" class="st0" d="M-339,48.4v-1.1c0.4-0.5,0.9-0.6,1.3-0.6c0.8,0,1.2,0.5,1.2,1.2c0,0.7-0.4,1.2-1.2,1.2
					C-338.1,49-338.6,48.8-339,48.4 M-339,45.6v-2.8h-2.9v8h2.9v-0.7c0.6,0.7,1.3,0.9,2.2,0.9c1.8,0,3.1-1.2,3.1-3.2
					c0-2-1.2-3.2-3.1-3.2C-337.6,44.7-338.4,44.9-339,45.6"/>
        </g>
      </g>
    </g>
  </g>
</svg>
