<?xml version="1.0" encoding="utf-8"?>
<!-- Generator: Adobe Illustrator 27.4.1, SVG Export Plug-In . SVG Version: 6.00 Build 0)  -->
<svg version="1.1" id="Layer_1" xmlns="http://www.w3.org/2000/svg" xmlns:xlink="http://www.w3.org/1999/xlink" x="0px" y="0px"
	 viewBox="0 0 512 512" style="enable-background:new 0 0 512 512;" xml:space="preserve">
<style type="text/css">
	.st0{fill:#3200E6;}
	.st1{fill:#FFFFFF;}
</style>
<path class="st0" d="M511.8,472.3c0,22.1-17.9,40-40,40h-432c-22.1,0-40-17.9-40-40v-432c0-22.1,17.9-40,40-40h432
	c22.1,0,40,17.9,40,40V472.3z"/>
<g>
	<path class="st1" d="M268.7,84.5c-0.2,0.8-0.5,1.6-0.9,2.4c-1.7,3-3.4,6.5-5.3,9.3c-0.8,1.6-1.8,3.2-2.9,4.7
		c-0.3,1.3-4.2,8.1-5.1,11.2c-1.6,3.6-3.7,7.1-6.1,10.2c-1.8,2.5-4.1,4.6-6.8,6c-1.6,1.6-3.4,3.2-5.1,4.8c-0.4,0.7,0.4,1.1,0.7,1.5
		c2.1,1.5,4,3.3,5.8,5.2c1.6,1.3,3,2.8,4.3,4.4c1.9,1.9,3.7,4,5.3,6.3c1.5,2.1,2.9,4.3,4.2,6.6c1.2,1.7,2.2,3.6,3.2,5.4
		c2.1,0.3,3.4-1.9,4.2-3.1c2.6-1.9,5-4,7.2-6.2c9.7-9,18.3-17.4,28-25.9c1.2-1.4,2.7-2.6,4.3-3.4c0.6,0.4,1,1.1,1.1,1.8
		c-0.3,2.2-0.7,4.3-1.1,6.3c-2.1,6.2-4.5,11.8-6.8,17.8c-0.5,1.6-1.5,2.9-2.1,4.5c-0.7,1-1.4,2-1.9,3.1c-1,1-1.3,2.9-2.1,4.1
		c-1.4,0.6-1.5,2.1-2.2,3.4c-0.9,1.5-1.8,3-2.9,4.3c-2,2-6.8,5.8-6.8,5.8c-3.6,2.2-7.4,4.1-11.3,5.5c-1.4,0.7-2.8,1.2-4.3,1.6
		c-3.2,0-6.1,0.3-9.5,0.6c-1,0.3-3,0-3.4,1c-0.9,3.5-1.4,7-1.7,10.6c0,1.5-0.3,2.6-0.2,4.2c-0.5,2.9-0.7,6-1,9
		c0,0.7-1,13.4-1.8,18.8c-0.3,0.9,0,2.1-0.5,2.9c-0.2,3.7-0.4,7.5-0.5,10.9c-0.1,3.4-1.1,6.1-1.4,8.8c-1.2,2.5-1.9,5.2-2.1,8
		c-0.5,0.8-1,1.9-2.1,2.1c-0.4,0.2-0.8,0.3-1.3,0.3c-0.7-0.3-0.8-0.7-1.1-1.3c-1-4.2-2.5-8.3-3.8-12.2c-0.4-1.4-0.7-3-1.2-4.6
		c-1.5-3.6-2.2-7.5-2.2-11.3c-0.9-6.3-1.4-12.6-1.5-19c0.2-3.7-0.2-7.5,0-11.2c0.2-3.7,1.1-8,1.5-12.1c0.3-4.1,1.7-9.4,0.9-13.6
		c-0.3-1.7-0.7-1.6-0.9-2.6c-0.2-1-1.8-2-2.6-3.4c-5.8-4.6-11.3-9.6-16.4-15c-0.7-0.3-1.3-0.7-2-1.1c-2.6,1.4-5,3.4-7.6,4.8
		c-5.7,3.3-11.2,7.1-16.4,11.3c-3.1,1.7-5.9,4.8-9.5,5.5c-1.2,0.8-2.6,1.4-3.8,2.1c-6-0.3-12-0.3-17.9,0c-1.1,0.1-2.3,0.1-3.4,0
		c-0.7-0.4-1.4-0.9-2-1.5c0.2-1,0.8-1.8,1.6-2.4c4.1-0.8,8.1-2.3,11.7-4.4c2.9-1.1,5.5-2.7,7.7-4.8c0.7-0.8,1.6-1.5,2.5-2.1
		c1-2.2,3.4-3.4,4.8-5.5c1.9-3.2,4.8-5.2,6.8-8.3c3.1-3.6,6.5-7,10.2-10.1c2.9-1.1,5.8-2,8.9-2.6c4.9-1.7,10.1-2.9,14.9-5.2
		c2.4-2.1,4.2-4.8,6.2-7c5.5-5.9,12.4-9.4,18.7-15.3c2.9-3,5.9-7,8.7-10.2c2.2-3.4,6.3-8.4,9.5-12.5h-4.2
		c-64.8-0.1-117.4,52.4-117.4,117.2c0,34.3,15,67,41.1,89.3c0.7-0.9,1.2-1.6,1.5-1.9c-3.4-10.5-10.9-18.7-11.4-29.5
		c-0.9-7.8-1.2-15.6-1-23.5c0.5-7.5,2-14.8,4.4-21.9c6-10.2,12.7-20,20.1-29.3l0.4-0.3c1.4,0.2,2.7,0.7,3.8,1.5c0.5,0.5,0,1.5,0.5,2
		c0,0-0.4,2.5-0.7,3.4c-0.2,0.9-1.1,3.2-1.4,4.9c-1.5,1.9-2.6,4.1-3.4,6.4l-0.3,1.1c-2,6.2-5.4,12.2-6.8,18.5
		c-0.5,3.7-0.7,7.4-0.4,11.1c-0.1,2.6-0.1,5.2,0,7.8c0.4,3.7,1.2,7.3,2.2,10.9c1,2,1.3,3.4,2.2,5.7c1.1,3.8,2.4,7.6,3.8,11.3
		c0.3,0.7,0.6,3.8,2.7,4.4c2,0.2,4,0.2,6,0c1.7,0.6,3.6,0.8,5.4,0.5c8.8,0.8,17.6,1,26.4,0.6c4.2-0.7,8.1-1.4,12.5-2
		c3.2,0.3,6.8,0,10.2,0c2-0.3,4.1-0.5,6.1-0.5c2.6,0.3,5.9-0.8,8.3,0c4.1,0.5,8.2,0.8,12.4,0.8c0.5,0,0.4,0.7,0.4,1
		c-1.3,0.6,0,2-1,2.9c-6,2.9-12,5.2-17.8,7.9l-0.4,0.4c-4.2,2.8-9.4,2.9-13.3,5.7c-1.1,0.4-2.3,0.5-3.4,0.3c-2.1,0.4-4.1,1-6.1,1.9
		c-9.3,1.8-18.7,3.8-28.1,5.5c-0.3,0.2-2.4,1.5-2.8,2.5c-0.5,0.3-0.3,1.1-0.9,1.5c-0.7,2.1-1.1,4.3-1.1,6.6
		c42.1,18.4,91,10.5,125.2-20.2c-0.6-4.6-1.5-9.1-2.6-13.6c-4.2-6.8-6.8-13.6-10.9-20.4c-1-3.4-3.1-6.2-4.1-9.7
		c-1-1.1-1.3-3.4-2.4-4.5c-3.4-0.3-6.8,0.9-10.2,0.9c-1.5,0.8-3,1.4-4.6,1.8c-1.6-0.3-3.4,0.4-4.8,0c-3,0.4-10.9,1.2-11.9,1.5
		c-3.2,0.4-6.8,0.8-10,1.5c-1.5,0-2.2,0.4-3.9,0.5c-1.8-0.1-3.6-0.3-5.4-0.6c-2.3,0.4-4.7,0.7-7,0.9c-0.6-0.5-1.6-1.1-1.6-2
		s-0.7-1.4,0-1.8c2.2-0.4,4.1-2,6.3-2.4c0.6-0.6,3.4-0.5,3.2-1c4.9-2.1,10.5-2.7,14.9-5.6c1.5-0.2,2.7-1.1,4.2-1.3
		c6.4-2.4,12.3-5.3,18.8-7.6c8.8-2.1,16.1-6.5,24.5-9.3c1.6-0.1,3.2-0.8,4.3-2c1.7-2.3,3.2-4.7,4.4-7.3c2.9-3.4,3.9-8,7.7-11
		c1.1-1.6,1.6-3.4,2.9-5c-0.1-2.4-0.8-4.7-2-6.8c-2.2-3.1-4.1-6.3-5.8-9.6c-3.5-5.3-5.7-11.3-6.4-17.6c-1.4-2.4-4-3.1-5.8-5.1h-0.3
		c-1.2-0.9-2.4-1.8-3.4-2.9c-2.1-1.7-3.9-3.7-5.4-6c-1.6-1.5-2.6-3.5-2.7-5.6c3.1-0.6,6.1,0,9-0.4c1.2,0.5,2.7-0.3,3.9,0.3
		c1.6,1.8,2.8,3.8,3.6,6.1c8.4,12.1,18.5,21.8,27,33.3c1.6,1,0.9,3.4,1.6,4.7c0.7,3,1,6.2,1.4,9.2c1.4,6.1-1.3,11.8-0.9,17.9
		c0,0-1.4,13.9-2.2,20.3c-1.3,5.1-1,10.7-2.6,15.8c-0.7,3.2-1.9,6.8-2.6,10.1c0.3,1.5-1.2,2.4-0.8,4.2c1.7,1.1,3.5,1.9,5.4,2.6
		c33-55.6,14.6-127.4-41-160.4C301.7,91.6,285.5,86.2,268.7,84.5z M211.9,105.4c1.5-0.9,2.8,0.7,4.2,1c1.2,2,2,4.1,2.5,6.3
		c1.4,2.1-0.3,4.2-0.3,6.5c-0.7,1.6-1.7,3.1-2.5,4.5c-1.6,0.8-2.9,2.4-4.8,1.2c-0.5,0.2-1.8-0.4-2.1-0.4c-1.6-1.2-4.8-0.6-5-3.4
		c-0.3-4-2.6-7.1-2.9-11.1C203.2,106.1,208.6,107.3,211.9,105.4z M217.3,249.3c-1.5,2.6-2.8,5.3-3.8,8.1c0,0.8-0.8,0.7-1.3,1
		c-0.5,0.7-1.3,1.1-2.1,1c-1.5-0.8-2.8,0.5-4.1-0.7c-1.6-1.8-2.7-4-3.2-6.3c-1.1-3.6,0.3-7.1,0.6-10.7c0.7-2.2,1.6-4.3,2.7-6.3
		c0.4-1,0.7-2.2,1.9-2.6c0.5-0.4,1.1-0.3,1.6-0.6c1.6,0,3.4-1.2,5,0.6c0.3,1,1.1,1.5,1.6,2.5c0.9,3.1,1.7,6.3,2.2,9.5
		C218.2,246.2,217.5,247.6,217.3,249.3z M316.6,176.2l0.4,0.3c2.2,1,4.3,1.1,6.5,2.1c2.6,0.8,4.7,2.7,5.8,5.2
		c0.4,2.2,0.5,4.7,0.8,6.8c0,3.4,2.7,9.3-2.5,10.8c-2.7-0.2-5.2-1.1-7.5-2.4c-1.3-0.5-2.5-1.2-3.4-2.2c-3.8-1.9-3-6.6-4.7-9.8
		c-0.2-2.2-0.7-4.7-1-7c-0.1-1,0.2-2,0.7-2.9C313,175.9,314.9,175.5,316.6,176.2z"/>
	<path class="st1" d="M111.6,400.9H124v13.1c-4.2,2-8.8,3-13.4,2.9c-11.8,0-19.9-8.9-19.9-21.7c-0.7-10.9,7.6-20.3,18.5-20.9
		c0.5,0,0.9,0,1.4,0c5.6-0.1,11.1,1.9,15.3,5.7l0.5,0.5l9.2-9.3l-0.7-0.6c-6.9-5.6-15.6-8.4-24.5-7.8c-17.4-0.8-32.1,12.7-32.8,30
		c0,1,0,2,0,2.9c0,19.1,13.5,32.6,32.8,32.6c8.8,0.1,17.5-2,25.3-6.1l0.5-0.3v-32.4h-24.7V400.9z M166.8,400.5h27.9v-11.4h-27.9
		v-13.2h29.3v-11.4h-41.8v62.3h43.4v-11.5h-30.9L166.8,400.5L166.8,400.5z M243.9,362.8h-0.7c-17.4-0.8-32.1,12.7-32.8,30
		c0,1,0,2,0,2.9c0,19.1,13.5,32.6,32.8,32.6l0,0c19.8-0.4,33.1-13.5,33.1-32.6C276.3,376.6,263.2,362.8,243.9,362.8L243.9,362.8z
		 M243.2,416.7c-11.8,0-19.9-8.9-19.9-21.7c-0.5-11,8.1-20.4,19.1-20.8c11-0.5,20.4,8.1,20.8,19.1c0,0.6,0,1.1,0,1.7
		C263.3,407.8,255,416.8,243.2,416.7L243.2,416.7z M316.4,364.3h-24.7v62.3h23.5c16,0,32.9-10.9,32.9-31.2
		C348.1,374,332.2,364.3,316.4,364.3L316.4,364.3z M311.4,415.2h-7.2v-39.4h9c10,0,22,3.4,22,19.7
		C335.1,413.3,318.5,415.2,311.4,415.2L311.4,415.2z M363.2,426.7h12.4v-62.3h-12.4V426.7z M416.6,389.3c-6-1.9-10.9-3.6-10.9-8.1
		c0-5.1,4.7-7,9.1-7c3.8-0.2,7.5,1.4,9.9,4.4l0.5,0.8l9.1-9.7l-0.7-0.5c-5-4.4-11.5-6.7-18.1-6.4c-11.5,0-23.2,5.9-23.2,19.1
		s9.7,15.9,17.6,18.5c6,1.9,11.2,3.6,11.2,8.8c0,5.2-5.1,7.5-9.7,7.5c-4.4,0-8.6-2.3-11-6l-0.5-0.8l-9.4,9.1l0.5,0.5
		c5.2,5.7,12.6,8.8,20.3,8.5c14,0,23-7.9,23-20.1C434.6,395,424.7,391.8,416.6,389.3L416.6,389.3z"/>
</g>
</svg>
