<?xml version="1.0" encoding="utf-8"?>
<!-- Generator: Adobe Illustrator 27.4.1, SVG Export Plug-In . SVG Version: 6.00 Build 0)  -->
<svg version="1.1" id="Layer_1" xmlns="http://www.w3.org/2000/svg" xmlns:xlink="http://www.w3.org/1999/xlink" x="0px" y="0px"
	 viewBox="0 0 125 25" style="enable-background:new 0 0 125 25;" xml:space="preserve">
<style type="text/css">
	.st0{fill:#015027;}
	.st1{fill:#FFFFFF;}
</style>
<rect class="st0" width="125" height="25"/>
<g>
	<path class="st1" d="M29,19.9c-0.5,0-1-0.2-1.5-0.8l-9.1-9.6v10.3l-2.6,0V6.9c0-1.2,0.4-1.8,1.2-1.8c0.6,0,1.1,0.3,1.6,0.8l9,9.5
		V5.1h2.6v12.8C30.3,19.2,29.8,19.9,29,19.9z"/>
	<path class="st1" d="M49.1,12.6v7.3h-2.5v-7.3h-1.4v-2.2h1.4V7.9h2.5v2.5h3.7v2.2H49.1z"/>
	<path class="st1" d="M56.1,10c-0.3,0.2-0.7,0.3-1,0.3c-0.4,0-0.8-0.1-1-0.3c-0.3-0.2-0.5-0.6-0.5-1c0-0.4,0.2-0.7,0.5-0.9
		c0.3-0.2,0.6-0.3,1-0.3c0.4,0,0.7,0.1,1,0.3c0.3,0.2,0.5,0.6,0.5,1S56.4,9.8,56.1,10z M53.7,19.8v-9.2h2.4v9.2H53.7z"/>
	<path class="st1" d="M68.3,19.2c-0.8,0.4-1.8,0.6-3,0.6h-3.2c-1.2,0-2.2-0.2-3.1-0.6c-1.1-0.5-1.6-1.3-1.6-2.4v-3.3
		c0-1.1,0.6-1.9,1.6-2.5c0.9-0.4,1.9-0.7,3-0.7h3.2c3,0,4.5,1,4.5,3.1v3.3C69.8,17.8,69.3,18.7,68.3,19.2z M67.3,13.4
		c0-0.3-0.3-0.5-0.8-0.7c-0.4-0.1-0.8-0.2-1.3-0.2h-3.1c-0.5,0-0.9,0.1-1.4,0.2c-0.6,0.2-0.9,0.5-0.9,0.8v3.1c0,0.3,0.3,0.6,0.9,0.7
		c0.5,0.1,0.9,0.2,1.3,0.2h3.1c0.4,0,0.8-0.1,1.2-0.2c0.6-0.2,0.8-0.4,0.8-0.7V13.4z"/>
	<path class="st1" d="M80.9,19.9v-6.6c0-0.3-0.3-0.5-0.9-0.6c-0.4-0.1-0.8-0.2-1.3-0.2h-3.3c-0.5,0-0.8,0.1-1.2,0.2
		c-0.6,0.1-0.8,0.3-0.8,0.6v6.5H71v-6.7c0-1.9,1.5-2.8,4.7-2.8h3.1c3.1,0,4.6,0.9,4.6,2.8v6.7H80.9z"/>
	<path class="st1" d="M106.1,19.9l-2.7-3.1l-2.7,3.1h-3.1l4.3-4.8l-4.3-4.9h2.9l2.9,3.2l2.9-3.2h2.9l-4.3,4.9l4.3,4.8H106.1z"/>
	<path class="st1" d="M86.9,16.3c0,0.9,1.2,1.3,3.6,1.3c0.2,0,0.4,0,0.6,0c0.2,0,0.4,0,0.4,0v2.2h-1.8c-2,0-3.4-0.3-4.2-0.9
		c-0.8-0.6-1.2-1.4-1.2-2.2v-3.3c0-1.1,0.6-2,1.7-2.5c0.9-0.4,1.9-0.6,3.1-0.6h3.6c1,0,1.9,0.2,2.7,0.6c0.9,0.5,1.4,1.2,1.4,2.2v3.2
		H86.9z M94.5,13.3c0-0.5-0.7-0.8-2-0.8H89c-1.4,0-2.1,0.3-2.1,0.8V14h7.7L94.5,13.3L94.5,13.3z"/>
	<path class="st1" d="M40.3,19.8h-4.7c-1,0-2-0.2-2.8-0.6c-1-0.5-1.5-1.3-1.5-2.2v-0.6c0-1,0.5-1.8,1.5-2.3c0.8-0.4,1.7-0.6,2.8-0.6
		h6.3c0-0.3,0-1-1.5-1h-2.7v-2.1h2.7c1.1,0,2.1,0.2,2.8,0.6c0.9,0.5,1.4,1.3,1.4,2.4v3.5C44.5,18.8,43.1,19.8,40.3,19.8z M42.1,16.1
		l0-0.4h-6.5c-1.2,0-1.8,0.3-1.8,1v0.1c0,0.6,0.6,0.9,1.8,0.9h4.9c0.7,0,1.2-0.1,1.3-0.4c0.1-0.2,0.2-0.1,0.2-0.9V16.1z"/>
	<path class="st1" d="M32.2,10.3h1.2v2.1h-1.2V10.3z"/>
	<path class="st1" d="M33.7,10.3h1.8v2.1h-1.8V10.3z"/>
	<path class="st1" d="M35.7,10.3h1.6v2.1h-1.6V10.3z"/>
	<path class="st1" d="M95.8,17.6h1.2v2.2h-1.2V17.6z"/>
	<path class="st1" d="M93.7,17.6h1.8v2.2h-1.8V17.6z"/>
	<path class="st1" d="M91.8,17.6h1.6v2.2h-1.6V17.6z"/>
</g>
</svg>
