<?xml version="1.0" encoding="utf-8"?>
<!-- Generator: Adobe Illustrator 27.4.1, SVG Export Plug-In . SVG Version: 6.00 Build 0)  -->
<svg version="1.1" id="Layer_1" xmlns="http://www.w3.org/2000/svg" xmlns:xlink="http://www.w3.org/1999/xlink" x="0px" y="0px"
	 viewBox="0 0 512 512" style="enable-background:new 0 0 512 512;" xml:space="preserve">
<style type="text/css">
	.st0{fill:#015027;}
	.st1{fill:#FFFFFF;}
</style>
<path class="st0" d="M511.8,472.3c0,22.1-17.9,40-40,40h-432c-22.1,0-40-17.9-40-40v-432c0-22.1,17.9-40,40-40h432
	c22.1,0,40,17.9,40,40V472.3z"/>
<g>
	<g>
		<g>
			<path class="st1" d="M341,87.1H171c-13.2,0-23.9,10.7-24,24V281c0,13.2,10.7,23.9,24,24H341c13.2,0,24-10.7,24-24V111
				C364.9,97.8,354.2,87.1,341,87.1z M310.3,124.5h30.4v9.1h-30.4L310.3,124.5z M310.3,137.1h30.4v13.2h-30.4L310.3,137.1z
				 M310.3,153.9h30.4v13.3h-30.4L310.3,153.9z M202.3,264.7H172v-9.1h30.4V264.7z M202.3,252.1H172v-13.2h30.4V252.1z M202.3,235.2
				H172V222h30.4V235.2z M340.7,247.7c0,12.3-5.1,18.3-15.2,18.3c-6.4-0.2-12.5-2.7-17.2-7.2L202,166.2v51.7h-29.9v-76.2
				c0-11.7,4.7-17.3,14.3-17.3c7.1,0,13.9,2.7,19,7.6l104.9,91.5v-52.5h30.4V247.7z"/>
		</g>
	</g>
	<g>
		<g>
			<path class="st1" d="M87.3,411.7L43.7,366c-1.9-2.3-4.8-3.8-7.8-4c-4,0-6,3-6,9v62.5h12.6v-49.8l44.1,46.1
				c1.7,2.2,4.3,3.6,7.1,3.7c4.1,0,6.2-3.2,6.2-9.4V362H87.3V411.7z"/>
			<path class="st1" d="M190.9,375.5h-12v12.2h-6.8v10.6h6.8v35.1h12v-35.1h18.2v-10.6h-18.2V375.5z"/>
			<path class="st1" d="M29.8,198.3"/>
			<path class="st1" d="M213.5,388.5h11.8v44.6h-11.8V388.5z"/>
			<path class="st1" d="M269.5,387.3h-15.5c-5.1-0.1-10.2,1-14.8,3.2c-4.8,2-8,6.7-8,11.9v15.8c-0.1,5.2,3.1,9.9,8,11.8
				c4.6,2.1,9.7,3.2,14.8,3h15.4c5,0.2,9.9-0.8,14.4-3c4.7-2,7.6-6.7,7.5-11.8v-15.8C291.4,392.5,284.1,387.3,269.5,387.3
				L269.5,387.3z M279.4,417.9c0,1.4-1.4,2.6-4.1,3.5c-1.9,0.6-3.9,1-5.9,1h-15.1c-2.2,0-4.3-0.3-6.4-0.9c-3.1-0.8-4.6-2-4.6-3.6
				V403c0-1.7,1.4-3,4.4-3.9c2.1-0.7,4.3-1.1,6.6-1.1h15c2.1,0,4.1,0.3,6.1,0.8c2.7,0.7,4,1.8,4,3.4L279.4,417.9z"/>
			<path class="st1" d="M334.8,387.3h-15.1c-15.1,0-22.6,4.6-22.6,13.6v32.5H309v-31.6c0-1.4,1.4-2.3,4.1-3c1.9-0.5,3.9-0.7,5.8-0.7
				h15.9c2.1,0,4.2,0.3,6.2,0.8c2.9,0.6,4.3,1.7,4.3,3v31.6h11.8v-32.5C357.1,391.9,349.7,387.3,334.8,387.3z"/>
			<path class="st1" d="M482.1,386.9h-14.2l-13.9,15.5l-13.9-15.5H426l20.8,23.7L426,433.7h15l13-14.9l13.1,14.9h15l-20.8-23.1
				L482.1,386.9z"/>
			<path class="st1" d="M391.7,422.6c-11.5,0-17.5-2.1-17.5-6.3h48.6v-15.6c0-4.6-2.7-8.7-6.9-10.5c-4.1-1.9-8.5-2.9-13-2.8h-17.4
				c-5.2-0.2-10.4,0.8-15.2,3c-5.1,1.8-8.4,6.6-8.4,12v15.8c0.1,4.3,2.2,8.2,5.7,10.6c3.7,2.8,10.4,4.3,20.4,4.3h7.2v-10.6h-1.5
				C393,422.5,392.3,422.6,391.7,422.6L391.7,422.6z M373.9,401.8c0-2.6,3.4-3.8,10.3-3.8h17.3c6.5,0,9.7,1.4,9.7,3.9v3.4h-37.3
				L373.9,401.8z"/>
			<path class="st1" d="M162.1,390.4c-4.2-2.2-8.9-3.3-13.6-3.1h-13v10.2h13c7.3,0,7.5,3.4,7.5,4.9h-30.4c-4.7-0.1-9.4,0.9-13.7,2.9
				c-4.4,1.9-7.2,6.3-7.1,11.1v2.7c0.1,4.8,3,9,7.5,10.8c4.2,2.1,8.9,3.2,13.6,3.1h22.7c13.6,0,20.3-4.8,20.3-14.3V402
				C169.1,397.2,166.4,392.7,162.1,390.4L162.1,390.4z M157,416.4c0,3.7-0.4,3.2-1,4.2c-1.8,1.5-4.2,2.1-6.5,1.8h-23.9
				c-5.9,0-8.9-1.4-8.9-4.2v-0.4c0-3.1,2.9-4.6,8.6-4.6h31.6v2L157,416.4z"/>
			<path class="st1" d="M109.4,387.4h5.1v10.2h-5.1V387.4z"/>
			<path class="st1" d="M116.5,387.4h7.9v10.2h-7.9V387.4z"/>
			<path class="st1" d="M126.3,387.4h7.4v10.2h-7.4V387.4z"/>
			<path class="st1" d="M417.2,422.4h5.6v10.6h-5.6V422.4z"/>
			<path class="st1" d="M406.7,422.4h8.6v10.6h-8.6V422.4z"/>
			<path class="st1" d="M396.9,422.4h7.9v10.6h-7.9V422.4z"/>
		</g>
	</g>
</g>
</svg>
