<?xml version="1.0" encoding="utf-8"?>
<!-- Generator: Adobe Illustrator 25.2.3, SVG Export Plug-In . SVG Version: 6.00 Build 0)  -->
<svg version="1.1" id="Layer_1" xmlns="http://www.w3.org/2000/svg" xmlns:xlink="http://www.w3.org/1999/xlink" x="0px" y="0px"
	 viewBox="0 0 125 25" style="enable-background:new 0 0 125 25;" xml:space="preserve">
<style type="text/css">
	.st0{fill:#ADCE2C;}
	.st1{fill:#FFFFFF;}
	.st2{fill:#015DAE;}
</style>
<g>
	<path class="st0" d="M125,0v25H0V0H125z"/>
	<path class="st1" d="M27.2,6.3l3,5.1l3-5.1H27.2z M36.7,6.3l-9.6,16.4H31l9.8-16.4L36.7,6.3z M42.2,9.7l-2.5,4.2l0.9,3.2h4.9
		l3.8-6.6l1.5,6.6l3.5,0l4.7-8.2l-1.9,8.2h3.5l4.9-5.6l-1.4,5.6h3.4l7.2-8.2h8.2l1.4-2.5H73.6l-5.2,6.1l1.4-6.1l-2.7,0l-5.4,6.2
		l1.5-6.2l-6,0l-4.3,7.4l-1.5-7.4h-3.4l-4.6,8.3L42.2,9.7z"/>
	<path class="st1" d="M74.2,10.5L70.7,17l7.6,0l1.4-2.4h-4.3l0.9-1.7h4.5l1.2-2.4H74.2z M79.6,17l5.9-10.7h3.1l1.7,7.2l4.2-7.2h3.5
		l-6.3,10.8h-3.3L86.7,10l-4,7.1H79.6z"/>
	<path class="st2" d="M43.2,2.3l-7.1,11.8h3.6l6.9-11.8H43.2z"/>
</g>
</svg>
