<?xml version="1.0" encoding="utf-8"?>
<!-- Generator: Adobe Illustrator 25.2.3, SVG Export Plug-In . SVG Version: 6.00 Build 0)  -->
<svg version="1.1" id="Layer_1" xmlns="http://www.w3.org/2000/svg" xmlns:xlink="http://www.w3.org/1999/xlink" x="0px" y="0px"
	 viewBox="0 0 125 25" style="enable-background:new 0 0 125 25;" xml:space="preserve">
<style type="text/css">
	.st0{fill:#EE3124;}
	.st1{fill:#1C3F94;}
</style>
<g>
	<path class="st0" d="M84.7,16.5c-0.1,0.2-0.2,0.4-0.4,0.6c-0.6,0.7-1.5,1.2-2.3,1.2c-0.7,0-1.2-0.5-0.7-1.5c0.7-1.5,2.5-2,4.2-2
		L84.7,16.5z M87,8.3c-2.1,0-3.9,0.6-5,1l-1.2,2.5c1.1-0.5,2.7-1,4.2-1c1.6,0,1.7,0.8,1.4,1.6l-0.1,0.2c-3.8,0-7.3,1.4-8.8,4.6
		c-0.9,2-0.2,3.7,2,3.7c1.3,0,2.7-0.5,3.9-1.4h0.1l-0.4,1.2h3.3c0.2-0.7,0.7-1.8,1.1-2.8l2-4.3C90.9,10.7,91.1,8.3,87,8.3"/>
	<path class="st0" d="M48.9,8.5l-3.4,7.4c-0.2,0.4-0.4,0.7-0.6,0.9c-0.5,0.5-1.2,1.1-2.1,1.1c-1.2,0-1.2-1-0.4-2.7l3.1-6.7h-3.7
		l-3.3,7.2c-1.7,3.5-0.9,5.1,1.6,5.1c1.8,0,3.4-1,4.3-1.7h0.1l-0.5,1.5h3.3c0.2-0.7,0.6-1.8,1.1-2.8c0.5-1,4.3-9.2,4.3-9.2
		S48.9,8.5,48.9,8.5z"/>
	<path class="st0" d="M62.8,20.8c2.7,0,6.6-1.7,8.8-6.3c1.7-3.7,0.6-6.2-2.8-6.2c-3.4,0-7,2.2-8.9,6.3
		C58.1,18.5,59.4,20.8,62.8,20.8 M64.1,18.2c-1.4,0-1.4-1.6-0.4-3.7c0.8-1.7,2.2-3.7,3.9-3.7c1.5,0,1.1,1.9,0.3,3.7
		C66.9,16.5,65.4,18.2,64.1,18.2"/>
	<path class="st0" d="M102,20.8c2.7,0,6.6-1.7,8.8-6.3c1.7-3.7,0.7-6.2-2.8-6.2c-3.4,0-7,2.2-8.9,6.3C97.2,18.5,98.5,20.8,102,20.8
		C101.9,20.8,102,20.8,102,20.8z M103.2,18.2c-1.4,0-1.3-1.6-0.4-3.7c0.8-1.7,2.3-3.7,3.9-3.7c1.5,0,1.1,1.9,0.3,3.7
		C106,16.5,104.6,18.2,103.2,18.2"/>
	<path class="st0" d="M122.6,8.3c-0.2-0.1-0.4-0.1-0.8-0.1c-1.1,0-2.7,0.7-4.1,2.3h-0.1l0.8-2h-3.2c-0.4,1.1-1,2.3-1.7,3.8l-3.9,8.2
		h2c1.1,0,2-0.6,2.5-1.7l2.1-4.4c0.2-0.4,0.4-0.7,0.6-1c0.9-1.2,2.1-1.8,3.3-1.8c0.4,0,0.6,0,0.9,0.1L122.6,8.3z"/>
	<path class="st0" d="M95.4,17.9c-1,0-1.2-0.5-0.5-2l2.3-4.9h2.2l1.2-2.6h-2.2l1.5-3.2h-1.9c-1.1,0-2,0.6-2.5,1.7l-0.7,1.5h-1.6
		L92,11.1h1.6l-2.4,5.3c-0.8,1.8-1,2.9-0.6,3.5c0.4,0.6,1.2,0.9,2.3,0.9c1,0,1.9-0.1,2.5-0.3l1.3-2.7C96.2,17.9,96,17.9,95.4,17.9"
		/>
	<path class="st0" d="M79.4,5.3c-1.1,0-2,0.6-2.5,1.7l-6.4,13.6h2c1.1,0,2-0.6,2.5-1.7l6.4-13.6C81.4,5.3,79.4,5.3,79.4,5.3z"/>
	<path class="st0" d="M62.2,8.3c-0.2-0.1-0.4-0.1-0.8-0.1c-1.1,0-2.7,0.7-4.1,2.3h-0.1l0.8-2h-3.2c-0.5,1.1-1,2.3-1.7,3.8l-3.8,8.2
		h2c1.1,0,2-0.6,2.5-1.7l2-4.4c0.2-0.4,0.4-0.7,0.6-1c0.9-1.2,2.1-1.8,3.3-1.8c0.4,0,0.7,0,0.9,0.1L62.2,8.3z"/>
	<path class="st0" d="M32.1,11.8c-0.4,0-0.7,0-0.9-0.1l2.3-5c0.4-0.1,0.8,0,1.4,0c1.8,0,2.2,0.9,1.5,2.5
		C35.6,10.9,34,11.8,32.1,11.8 M40,9.3c1-2.4,1-5.1-4.3-5.1H31l-7.6,16.4h1.9c1.1,0,2-0.6,2.5-1.7l2-4.4c0.3,0,0.6,0,1,0
		c1.9,0,4-0.2,5.8-1.4C38.1,12.3,39.3,11,40,9.3"/>
	<path class="st1" d="M27.6,4.2h-6.3l-7.6,16.4h4.5c1.1,0,2-0.6,2.5-1.7C21.2,17.8,27.6,4.2,27.6,4.2"/>
	<path class="st0" d="M19.3,4.2l-7.6,16.4H8.8l6.9-14.7c0.5-1.1,1.4-1.7,2.5-1.7C18.2,4.2,19.3,4.2,19.3,4.2z"/>
	<path class="st1" d="M10.3,13.1H3.2c-0.4,0-0.8,0.3-0.8,0.7c0,0.2,0.1,0.4,0.2,0.5l4.8,4.8L10.3,13.1z"/>
</g>
</svg>
