<svg version="1.1" viewBox="0.0 0.0 238 100" fill="none" stroke="none" stroke-linecap="square" stroke-miterlimit="10"
    xmlns:xlink="http://www.w3.org/1999/xlink"
    xmlns="http://www.w3.org/2000/svg">
    <g clip-path="url(#p.0)">
        <path fill="#9504af" d="m11.796875 94.179794q-1.671875 0 -2.390625 -0.609375q-0.71875 -0.59375 -0.71875 -2.203125l0 -50.546875q2.390625 -1.53125 5.421875 -2.359375q3.046875 -0.84375 6.25 -0.84375q4.0 0 6.921875 1.40625q2.921875 1.390625 4.515625 5.03125q1.609375 3.640625 1.609375 10.203125q0 6.390625 -0.734375 10.84375q-0.71875 4.4375 -1.921875 7.234375q-1.1875 2.796875 -2.75 4.28125q-1.5625 1.484375 -3.203125 2.03125q-1.640625 0.5625 -3.3125 0.5625q-2.171875 0 -3.8125 -0.640625q-1.625 -0.640625 -2.515625 -1.59375l0 16.640625q-0.796875 0.234375 -1.6875 0.390625q-0.875 0.171875 -1.671875 0.171875zm7.6875 -20.8125q0.953125 0 2.078125 -0.546875q1.125 -0.5625 2.203125 -2.40625q1.078125 -1.84375 1.75 -5.515625q0.6875 -3.6875 0.6875 -9.921875q0 -4.796875 -0.6875 -7.3125q-0.671875 -2.53125 -2.03125 -3.453125q-1.359375 -0.921875 -3.4375 -0.921875q-2.734375 0 -4.890625 1.53125l0 25.90625q0.890625 1.453125 2.0 2.046875q1.125 0.59375 2.328125 0.59375zm31.591217 5.84375q-4.796875 0 -7.359375 -1.4375q-2.5625 -1.4375 -3.5625 -4.390625q-1.0 -2.96875 -1.0 -7.453125l0 -26.234375q0 -0.640625 0.234375 -0.875q0.25 -0.25 1.640625 -0.328125q1.40625 -0.078125 4.765625 -0.078125l0 28.078125q0 2.5625 0.4375 4.125q0.453125 1.5625 1.609375 2.25q1.15625 0.671875 3.3125 0.671875q1.125 0 2.640625 -0.3125q1.53125 -0.328125 2.8125 -1.125l0 -32.40625q0 -0.640625 0.265625 -0.875q0.28125 -0.25 1.59375 -0.328125q1.328125 -0.078125 4.609375 -0.078125l0 37.921875q-2.3125 1.28125 -5.515625 2.078125q-3.203125 0.796875 -6.484375 0.796875zm19.19809 -0.796875l0 -37.203125q2.328125 -1.671875 5.125 -2.625q2.796875 -0.96875 5.765625 -0.96875q3.109375 0 4.34375 0.84375q1.25 0.828125 1.25 2.515625q0 0.640625 -0.15625 1.71875q-0.15625 1.078125 -0.5625 2.125q-0.875 -0.484375 -1.84375 -0.71875q-0.953125 -0.25 -2.0 -0.25q-1.359375 0 -2.765625 0.4375q-1.390625 0.4375 -2.515625 1.328125l-0.078125 31.515625q0 0.640625 -0.28125 0.890625q-0.28125 0.234375 -1.640625 0.3125q-1.359375 0.078125 -4.640625 0.078125zm24.243103 15.765625q-1.671875 0 -2.390625 -0.609375q-0.71875 -0.59375 -0.71875 -2.203125l0 -50.546875q2.390625 -1.53125 5.421875 -2.359375q3.046875 -0.84375 6.25 -0.84375q4.0 0 6.921875 1.40625q2.921875 1.390625 4.515625 5.03125q1.609375 3.640625 1.609375 10.203125q0 6.390625 -0.734375 10.84375q-0.71875 4.4375 -1.921875 7.234375q-1.1875 2.796875 -2.75 4.28125q-1.5625 1.484375 -3.203125 2.03125q-1.640625 0.5625 -3.3125 0.5625q-2.171875 0 -3.8125 -0.640625q-1.625 -0.640625 -2.515625 -1.59375l0 16.640625q-0.796875 0.234375 -1.6875 0.390625q-0.875 0.171875 -1.671875 0.171875zm7.6875 -20.8125q0.953125 0 2.078125 -0.546875q1.125 -0.5625 2.203125 -2.40625q1.078125 -1.84375 1.75 -5.515625q0.6875 -3.6875 0.6875 -9.921875q0 -4.796875 -0.6875 -7.3125q-0.671875 -2.53125 -2.03125 -3.453125q-1.359375 -0.921875 -3.4375 -0.921875q-2.734375 0 -4.890625 1.53125l0 25.90625q0.890625 1.453125 2.0 2.046875q1.125 0.59375 2.328125 0.59375zm19.763092 5.046875l0 -55.84375q0 -1.515625 0.515625 -2.109375q0.515625 -0.609375 1.953125 -0.71875q1.4375 -0.125 4.0 -0.125l0 57.515625q0 0.640625 -0.28125 0.890625q-0.28125 0.234375 -1.609375 0.3125q-1.3125 0.078125 -4.578125 0.078125zm22.308731 0.796875q-4.234375 0 -7.0 -1.0q-2.75 -1.0 -2.75 -3.078125q0 -0.71875 0.234375 -1.71875q0.234375 -1.0 0.875 -2.046875q1.765625 1.046875 3.71875 1.53125q1.96875 0.46875 4.28125 0.46875q3.046875 0 4.765625 -1.234375q1.71875 -1.234375 1.71875 -3.71875q0 -1.59375 -0.6875 -3.109375q-0.671875 -1.53125 -2.515625 -3.125l-7.75 -6.640625q-2.734375 -2.25 -3.65625 -4.359375q-0.90625 -2.125 -0.90625 -4.125q0 -2.796875 1.390625 -4.921875q1.40625 -2.125 4.328125 -3.3125q2.921875 -1.203125 7.3125 -1.203125q4.171875 0 6.28125 0.796875q2.125 0.796875 2.953125 1.796875q0.84375 1.0 0.84375 1.890625q0 1.671875 -1.4375 3.265625q-1.75 -1.109375 -3.671875 -1.59375q-1.921875 -0.484375 -4.171875 -0.484375q-2.875 0 -4.59375 1.0q-1.71875 1.0 -1.71875 2.84375q0 1.046875 0.59375 2.171875q0.609375 1.109375 2.609375 2.796875l7.4375 6.0q2.640625 2.46875 3.671875 4.71875q1.046875 2.234375 1.046875 5.28125q0 5.265625 -3.53125 8.1875q-3.515625 2.921875 -9.671875 2.921875zm19.037476 -0.796875l0 -55.84375q0 -1.515625 0.515625 -2.109375q0.53125 -0.609375 1.921875 -0.71875q1.40625 -0.125 4.046875 -0.125l0 21.109375q1.84375 -1.59375 4.28125 -2.34375q2.4375 -0.765625 4.6875 -0.765625q3.4375 0 5.234375 1.25q1.796875 1.234375 2.4375 3.546875q0.640625 2.3125 0.640625 5.765625l0 28.953125q0 0.640625 -0.359375 0.890625q-0.359375 0.234375 -1.765625 0.3125q-1.390625 0.078125 -4.515625 0.078125l0 -28.484375q0 -2.640625 -0.84375 -4.46875q-0.828125 -1.84375 -3.796875 -1.84375q-1.359375 0 -2.96875 0.484375q-1.59375 0.46875 -3.03125 1.75l0 31.28125q0 0.640625 -0.28125 0.890625q-0.28125 0.234375 -1.640625 0.3125q-1.359375 0.078125 -4.5625 0.078125zm32.653732 0l0 -37.046875q0 -1.515625 0.546875 -2.109375q0.5625 -0.609375 2.0 -0.71875q1.453125 -0.125 4.078125 -0.125l0 38.71875q0 0.640625 -0.28125 0.890625q-0.265625 0.234375 -1.625 0.3125q-1.359375 0.078125 -4.71875 0.078125zm2.875 -45.515625q-1.515625 -0.078125 -2.40625 -1.15625q-0.875 -1.09375 -0.875 -3.890625q0.078125 -2.15625 0.953125 -3.46875q0.890625 -1.328125 2.8125 -1.328125q1.828125 0 2.546875 1.046875q0.71875 1.03125 0.640625 3.59375q0 2.40625 -0.921875 3.8125q-0.90625 1.390625 -2.75 1.390625zm14.23436 61.28125q-1.671875 0 -2.390625 -0.609375q-0.71875 -0.59375 -0.71875 -2.203125l0 -50.546875q2.390625 -1.53125 5.421875 -2.359375q3.046875 -0.84375 6.25 -0.84375q4.0 0 6.921875 1.40625q2.921875 1.390625 4.515625 5.03125q1.609375 3.640625 1.609375 10.203125q0 6.390625 -0.734375 10.84375q-0.71875 4.4375 -1.921875 7.234375q-1.1875 2.796875 -2.75 4.28125q-1.5625 1.484375 -3.203125 2.03125q-1.640625 0.5625 -3.3125 0.5625q-2.171875 0 -3.8125 -0.640625q-1.625 -0.640625 -2.515625 -1.59375l0 16.640625q-0.796875 0.234375 -1.6875 0.390625q-0.875 0.171875 -1.671875 0.171875zm7.6875 -20.8125q0.953125 0 2.078125 -0.546875q1.125 -0.5625 2.203125 -2.40625q1.078125 -1.84375 1.75 -5.515625q0.6875 -3.6875 0.6875 -9.921875q0 -4.796875 -0.6875 -7.3125q-0.671875 -2.53125 -2.03125 -3.453125q-1.359375 -0.921875 -3.4375 -0.921875q-2.734375 0 -4.890625 1.53125l0 25.90625q0.890625 1.453125 2.0 2.046875q1.125 0.59375 2.328125 0.59375z" fill-rule="nonzero"/>
    </g>
</svg>