<?xml version="1.0" encoding="utf-8"?>
<!-- Generator: Adobe Illustrator 25.2.3, SVG Export Plug-In . SVG Version: 6.00 Build 0)  -->
<svg version="1.1" id="Layer_1" xmlns="http://www.w3.org/2000/svg" xmlns:xlink="http://www.w3.org/1999/xlink" x="0px" y="0px"
	 viewBox="0 0 125 25" style="enable-background:new 0 0 125 25;" xml:space="preserve">
<style type="text/css">
	.st0{fill:#DC1928;}
</style>
<g>
	<path class="st0" d="M11.3,12.5c0,4.5,2.8,8.6,7,10.2V2.4C14.1,4,11.3,8,11.3,12.5"/>
	<path class="st0" d="M22.2,1.7c-0.3,0-0.6,0-0.9,0v0.8h0.1c4.2,0,7.5,3.2,7.5,7.1s-3.4,7-7.5,7v6.9c0.3,0,0.6,0,0.9,0
		c6,0,10.9-4.9,10.9-10.9S28.2,1.6,22.2,1.7"/>
	<path class="st0" d="M43,15.1h-3.5l-0.6,1.8h-1.5l3-8.7h1.9l3,8.7h-1.6L43,15.1z M42.6,13.8l-1.3-3.9L40,13.8H42.6z"/>
	<path class="st0" d="M49.8,10.5h1.5v6.4h-1.5v-0.7h0c-0.4,0.6-1.1,0.9-1.8,0.9c-1.3,0-2.1-0.9-2.1-2.4v-4.2h1.5v4
		c-0.1,0.6,0.3,1.1,0.9,1.2c0.1,0,0.2,0,0.2,0c0.7,0,1.3-0.5,1.3-1.2c0-0.1,0-0.1,0-0.2L49.8,10.5z"/>
	<path class="st0" d="M53.8,15.1c0.1,0.6,0.5,0.9,1.3,0.9s1.2-0.3,1.2-0.8c0-0.4-0.2-0.7-0.9-0.8l-1.1-0.1c-1.3-0.1-1.8-0.8-1.8-1.8
		c0-1.2,1-2.1,2.6-2.1s2.5,1,2.6,1.9h-1.5c-0.1-0.5-0.6-0.9-1.1-0.8c0,0,0,0,0,0c-0.7,0-1.1,0.3-1.1,0.8s0.2,0.6,1,0.7l1.1,0.1
		c1.3,0.1,1.7,0.7,1.7,1.8c0,1.3-1.1,2.1-2.6,2.1c-1.7,0-2.7-0.8-2.8-2L53.8,15.1z"/>
	<path class="st0" d="M59.4,11.6h-1.2v-1.1h1.2V8.2h1.5v2.4h1.5v1.1h-1.5v3.3c0,0.6,0.3,0.8,0.9,0.8h0.6v1.2h-0.9
		c-1.4,0-2.1-0.6-2.1-1.9L59.4,11.6z"/>
	<path class="st0" d="M65.1,16.9h-1.5v-6.4h1.5v1h0c0.2-0.6,0.8-1,1.4-1h0.8v1.4h-0.7c-1,0-1.5,0.5-1.5,1.6L65.1,16.9z"/>
	<path class="st0" d="M69.6,17.1c-1,0.1-1.9-0.6-2-1.6c0-0.1,0-0.2,0-0.3c0-1.3,1-1.7,2-1.9l1.4-0.2c0.5-0.1,0.6-0.3,0.6-0.7
		c0-0.5-0.4-1-1.1-1c-0.6-0.1-1.1,0.4-1.2,1c0,0,0,0,0,0h-1.5c0-1.1,0.9-2.1,2.7-2.1c1.7,0,2.6,1,2.6,2.4v3c0,0.4,0,0.7,0.1,1.1
		h-1.6c0-0.3-0.1-0.5-0.1-0.8l0,0C71.2,16.7,70.4,17.1,69.6,17.1z M70.8,14l-0.7,0.1c-0.6,0.1-1,0.4-1,1s0.3,0.9,1,0.9
		c0.7,0.1,1.4-0.5,1.5-1.2c0,0,0-0.1,0-0.1v-1C71.4,13.8,71.1,13.9,70.8,14z"/>
	<path class="st0" d="M74.4,15.2V7.7h1.5v7.3c0,0.4,0.2,0.6,0.6,0.6H77v1.2h-0.8c-0.9,0.1-1.7-0.5-1.8-1.4
		C74.4,15.4,74.4,15.3,74.4,15.2z"/>
	<path class="st0" d="M79.7,8.6c0,0.5-0.4,0.9-0.9,0.9c-0.5,0-0.9-0.4-0.9-0.9c0-0.5,0.4-0.9,0.9-0.9c0,0,0,0,0,0
		C79.3,7.6,79.7,8,79.7,8.6C79.7,8.5,79.7,8.5,79.7,8.6z M79.5,10.5v6.4H78v-6.4H79.5z"/>
	<path class="st0" d="M82.6,17.1c-1,0.1-1.9-0.6-2-1.6c0-0.1,0-0.2,0-0.3c0-1.3,1-1.7,2-1.9l1.4-0.2c0.5-0.1,0.6-0.3,0.6-0.7
		c0-0.5-0.4-1-1.1-1c-0.6-0.1-1.1,0.4-1.2,1c0,0,0,0,0,0h-1.5c0-1.1,0.9-2.1,2.7-2.1c1.7,0,2.6,1,2.6,2.4v3c0,0.4,0,0.7,0.1,1.1
		h-1.5c0-0.3-0.1-0.5-0.1-0.8h0C84.1,16.7,83.4,17.1,82.6,17.1z M83.7,14l-0.7,0.1c-0.6,0.1-1,0.4-1,1s0.3,0.9,1,0.9
		c0.7,0.1,1.4-0.5,1.5-1.2c0,0,0-0.1,0-0.1v-1C84.3,13.8,84,13.9,83.7,14z"/>
	<path class="st0" d="M93.6,8.2c1.9,0,3.1,1.1,3.1,2.8s-1.2,2.8-3.1,2.8h-2.2v3h-1.6V8.2H93.6z M95,11c0-1.1-0.7-1.5-1.7-1.5h-1.9
		v3.1h1.9C94.4,12.6,95,12.1,95,11z"/>
	<path class="st0" d="M100,10.4c1.8,0,3.1,1.3,3.1,3.3s-1.2,3.3-3.1,3.3c-1.8,0-3.1-1.3-3.1-3.3S98.2,10.4,100,10.4z M101.5,13.5
		c0-1.2-0.6-1.9-1.5-1.9s-1.5,0.7-1.5,1.9V14c0,1.2,0.6,1.9,1.5,1.9s1.5-0.7,1.5-1.9V13.5z"/>
	<path class="st0" d="M105.2,15.1c0.1,0.6,0.5,0.9,1.3,0.9s1.2-0.3,1.2-0.8c0-0.4-0.2-0.7-0.8-0.8l-1.1-0.1
		c-1.3-0.1-1.8-0.8-1.8-1.8c0-1.2,1-2.1,2.6-2.1c1.6,0,2.5,1,2.6,1.9h-1.5c-0.1-0.5-0.4-0.8-1.1-0.8c-0.7,0-1.1,0.3-1.1,0.8
		c0,0.5,0.2,0.6,1,0.7l1.1,0.1c1.3,0.1,1.7,0.7,1.7,1.8c0,1.3-1.1,2.1-2.6,2.1c-1.7,0-2.6-0.8-2.8-2L105.2,15.1z"/>
	<path class="st0" d="M110.8,11.6h-1.2v-1.1h1.2V8.2h1.5v2.4h1.5v1.1h-1.5v3.3c0,0.6,0.3,0.8,0.9,0.8h0.6v1.2h-0.9
		c-1.4,0-2.1-0.6-2.1-1.9V11.6z"/>
</g>
</svg>
