<?xml version="1.0" encoding="utf-8"?><!--Generator: Adobe Illustrator 18.1.1, SVG Export Plug-In . SVG Version: 6.00 Build 0)--><svg xmlns="http://www.w3.org/2000/svg" xmlns:xlink="http://www.w3.org/1999/xlink" id="Vector" width="512px" height="512px" x="0px" y="0px" enable-background="new 0 0 512 512" version="1.1" viewBox="0 0 512 512" xml:space="preserve"><path fill="#501E75" d="M512,472c0,22.1-17.9,40-40,40H40c-22.1,0-40-17.9-40-40V40C0,17.9,17.9,0,40,0h432c22.1,0,40,17.9,40,40
	V472z"/><path fill-rule="evenodd" d="M256.7,440.2c-29-29.7-55.8-64.5-84.1-100.9c-27.4-35.2-58.4-69.3-58.9-124.7
	C112.7,89.7,265.8,25.3,354.8,110.8c24.6,23.7,42.9,59.5,43.4,99.5c0.8,57-29.8,93-57.5,128.9C313.1,375.3,283.3,408.8,256.7,440.2z
	" clip-rule="evenodd"/><path fill-rule="evenodd" d="M354.8,244.4c-11.9,0-23.8,0-35.8,0C320.9,226.7,353.1,225.8,354.8,244.4z" clip-rule="evenodd"/><path fill="#692E8B" fill-rule="evenodd" d="M254.4,300.9c1.9,0,3.8,0,5.6,0c14.3,0.9,24.4,5.9,32.5,13.2
	c4,3.6,3.5,3.4,5.2,5.2c4.5,4.6,11.9,16.9,12.7,30.6c0,3.3,0.3,5.4,0,9.9c-0.4,11.6-5.1,19-9.4,26.8c-4.1,5.5-8,11.2-12.2,16.5
	c-10.5,12.5-20.5,25.6-32,37.2C245,425.9,232.9,412,221,397.8c-2.9-4-3.3-4.9-4.7-7.1c-5.2-7.8-11.7-17.8-12.7-31.5
	C201.2,326.4,223.8,304.3,254.4,300.9z" clip-rule="evenodd"/><path fill="#501E75" fill-rule="evenodd" d="M285.5,397.4c9.3-12.1,19.5-24.1,19.3-43.3
	c-0.2-13.4-6.3-25.5-14.6-33.4c-29.9-28.7-81.3-7.1-80.9,34.8c0.2,18.6,10.6,30,19.8,41.9c9.5,12.2,18.5,23.9,28.2,33.9
	C266.2,420.7,276.2,409.5,285.5,397.4z" clip-rule="evenodd"/><path fill="#FFFFFF" d="M202.9,162.8l-12.9,2.3c-0.4-2.6-1.4-4.5-2.9-5.8c-1.5-1.3-3.5-2-6-2c-3.2,0-5.8,1.1-7.8,3.4
	c-1.9,2.2-2.9,6-2.9,11.3c0,5.8,1,10,2.9,12.4c2,2.4,4.6,3.6,7.9,3.6c2.5,0,4.5-0.7,6.1-2.1s2.7-3.8,3.3-7.3l12.8,2.2
	c-1.3,5.9-3.9,10.3-7.7,13.3c-3.8,3-8.8,4.5-15.2,4.5c-7.2,0-13-2.3-17.2-6.8c-4.3-4.5-6.4-10.8-6.4-18.9c0-8.1,2.2-14.5,6.5-19
	c4.3-4.5,10.1-6.8,17.5-6.8c6,0,10.8,1.3,14.3,3.9C198.8,153.6,201.4,157.5,202.9,162.8z"/><path fill="#FFFFFF" d="M209.8,172.2c0-4.3,1.1-8.5,3.2-12.6c2.1-4.1,5.2-7.1,9.1-9.3c3.9-2.1,8.3-3.2,13.1-3.2
	c7.5,0,13.6,2.4,18.3,7.3c4.8,4.8,7.1,11,7.1,18.4c0,7.5-2.4,13.6-7.2,18.5c-4.8,4.9-10.9,7.4-18.2,7.4c-4.5,0-8.8-1-12.9-3.1
	c-4.1-2-7.2-5-9.4-9C210.9,182.6,209.8,177.8,209.8,172.2z M223.2,172.9c0,4.9,1.2,8.6,3.5,11.2s5.2,3.9,8.6,3.9
	c3.4,0,6.3-1.3,8.6-3.9c2.3-2.6,3.5-6.4,3.5-11.3c0-4.8-1.2-8.5-3.5-11.1c-2.3-2.6-5.2-3.9-8.6-3.9c-3.4,0-6.3,1.3-8.6,3.9
	C224.3,164.2,223.2,168,223.2,172.9z"/><path fill="#FFFFFF" d="M270.9,197.5v-68.1h13v68.1H270.9z"/><path fill="#FFFFFF" d="M297.3,141.5v-12.1h13v12.1H297.3z M297.3,197.5v-49.3h13v49.3H297.3z"/><path fill="#FFFFFF" d="M319.1,183.4l13.1-2c0.6,2.5,1.7,4.5,3.4,5.8c1.7,1.3,4.1,2,7.1,2c3.4,0,5.9-0.6,7.6-1.9
	c1.1-0.9,1.7-2,1.7-3.5c0-1-0.3-1.8-0.9-2.5c-0.7-0.6-2.1-1.2-4.4-1.7c-10.5-2.3-17.2-4.4-20-6.4c-3.9-2.7-5.8-6.4-5.8-11.1
	c0-4.3,1.7-7.9,5.1-10.8c3.4-2.9,8.6-4.4,15.7-4.4c6.7,0,11.8,1.1,15,3.3c3.3,2.2,5.5,5.4,6.8,9.7l-12.3,2.3c-0.5-1.9-1.5-3.4-3-4.4
	c-1.5-1-3.6-1.5-6.3-1.5c-3.4,0-5.9,0.5-7.4,1.4c-1,0.7-1.5,1.6-1.5,2.6c0,0.9,0.4,1.7,1.3,2.4c1.2,0.9,5.2,2.1,12.2,3.7
	c6.9,1.6,11.8,3.5,14.6,5.8c2.7,2.3,4.1,5.6,4.1,9.7c0,4.5-1.9,8.4-5.7,11.7c-3.8,3.2-9.4,4.9-16.8,4.9c-6.7,0-12-1.4-15.9-4.1
	C322.9,191.8,320.3,188.1,319.1,183.4z"/><path fill="#FFFFFF" d="M159.4,295.2V227h7.6v6.4c1.8-2.5,3.8-4.4,6.1-5.6c2.3-1.3,5-1.9,8.2-1.9c4.2,0,7.9,1.1,11.1,3.2
	c3.2,2.2,5.6,5.2,7.3,9.2c1.6,3.9,2.5,8.3,2.5,13c0,5-0.9,9.6-2.7,13.6c-1.8,4-4.4,7.1-7.9,9.3c-3.5,2.2-7.1,3.2-10.9,3.2
	c-2.8,0-5.3-0.6-7.5-1.8c-2.2-1.2-4-2.7-5.5-4.5v24H159.4z M166.9,251.9c0,6.3,1.3,11,3.9,14.1c2.6,3,5.7,4.5,9.3,4.5
	c3.7,0,6.9-1.6,9.5-4.7c2.6-3.1,4-8,4-14.6c0-6.3-1.3-11-3.9-14.1c-2.6-3.1-5.7-4.7-9.3-4.7c-3.6,0-6.7,1.7-9.4,5
	C168.3,240.8,166.9,245.6,166.9,251.9z"/><path fill="#FFFFFF" d="M212.2,276.3V227h7.5v7.5c1.9-3.5,3.7-5.8,5.3-6.9c1.6-1.1,3.4-1.7,5.4-1.7c2.8,0,5.7,0.9,8.6,2.7l-2.9,7.8
	c-2-1.2-4.1-1.8-6.1-1.8c-1.8,0-3.5,0.5-4.9,1.6c-1.5,1.1-2.5,2.6-3.1,4.6c-0.9,3-1.4,6.2-1.4,9.7v25.8H212.2z"/><path fill="#FFFFFF" d="M244,217.9v-9.6h8.4v9.6H244z M244,276.3V227h8.4v49.3H244z"/><path fill="#FFFFFF" d="M278.7,276.3L260,227h8.8l10.6,29.5c1.1,3.2,2.2,6.5,3.2,9.9c0.7-2.6,1.8-5.7,3.1-9.4l11-30.1h8.6
	l-18.7,49.3H278.7z"/><path fill="#FFFFFF" d="M346.3,260.4l8.6,1.1c-1.4,5-3.9,9-7.6,11.7c-3.7,2.8-8.4,4.2-14.1,4.2c-7.2,0-12.9-2.2-17.2-6.7
	c-4.2-4.4-6.3-10.7-6.3-18.7c0-8.3,2.1-14.7,6.4-19.3c4.3-4.6,9.8-6.9,16.6-6.9c6.6,0,12,2.2,16.2,6.7c4.2,4.5,6.3,10.8,6.3,18.9
	c0,0.5,0,1.2,0,2.2h-36.8c0.3,5.4,1.8,9.6,4.6,12.4c2.8,2.9,6.2,4.3,10.3,4.3c3.1,0,5.7-0.8,7.8-2.4
	C343.3,266.5,345.1,264,346.3,260.4z M318.9,246.9h27.5c-0.4-4.1-1.4-7.3-3.2-9.3c-2.7-3.2-6.1-4.8-10.4-4.8c-3.8,0-7.1,1.3-9.7,3.9
	C320.6,239.2,319.2,242.6,318.9,246.9z M327.9,220.9l6.2-13h11l-10.2,13H327.9z"/></svg>