<?xml version="1.0" encoding="utf-8"?>
<!-- Generator: Adobe Illustrator 27.3.1, SVG Export Plug-In . SVG Version: 6.00 Build 0)  -->
<svg version="1.1"
	 id="svg2" xmlns:sodipodi="http://sodipodi.sourceforge.net/DTD/sodipodi-0.dtd" xmlns:svg="http://www.w3.org/2000/svg" xmlns:rdf="http://www.w3.org/1999/02/22-rdf-syntax-ns#" xmlns:dc="http://purl.org/dc/elements/1.1/" xmlns:cc="http://creativecommons.org/ns#" xmlns:inkscape="http://www.inkscape.org/namespaces/inkscape" inkscape:version="0.91 r13725" sodipodi:docname="DPD logo (2015).svg"
	 xmlns="http://www.w3.org/2000/svg" xmlns:xlink="http://www.w3.org/1999/xlink" x="0px" y="0px" viewBox="0 0 125 25"
	 style="enable-background:new 0 0 125 25;" xml:space="preserve">
<style type="text/css">
	.st0{fill-rule:evenodd;clip-rule:evenodd;fill:#DC0032;}
	.st1{fill-rule:evenodd;clip-rule:evenodd;fill:#FFFFFF;}
</style>
<rect class="st0" width="125" height="25"/>
<sodipodi:namedview  bordercolor="#666666" borderopacity="1" gridtolerance="10" guidetolerance="10" id="namedview207" inkscape:current-layer="svg2" inkscape:cx="88.582677" inkscape:cy="37.204724" inkscape:document-units="mm" inkscape:pageopacity="0" inkscape:pageshadow="2" inkscape:window-height="480" inkscape:window-maximized="0" inkscape:window-width="640" inkscape:window-x="0" inkscape:window-y="0" inkscape:zoom="1.7215556" objecttolerance="10" pagecolor="#ffffff" showgrid="false">
	</sodipodi:namedview>
<g>
	<path id="path7" inkscape:connector-curvature="0" class="st1" d="M68.6,16.7c-1,0.3-2.3,0.4-3.5,0.4c-2.9,0-4.9-1.5-4.9-4.3
		c0-2.7,1.8-4.4,4.4-4.4c0.6,0,1.2,0.1,1.6,0.3V4.8h2.3V16.7z M66.4,10.6c-0.4-0.2-0.8-0.3-1.4-0.3c-1.4,0-2.3,0.8-2.3,2.3
		c0,1.6,1,2.5,2.6,2.5c0.3,0,0.7,0,1.1-0.1V10.6z M87.4,16.7c-1,0.3-2.3,0.4-3.5,0.4c-2.9,0-4.9-1.5-4.9-4.3c0-2.7,1.8-4.4,4.4-4.4
		c0.6,0,1.2,0.1,1.6,0.3V4.8h2.3V16.7z M85.1,10.6c-0.4-0.2-0.8-0.3-1.4-0.3c-1.4,0-2.3,0.8-2.3,2.3c0,1.6,1,2.5,2.6,2.5
		c0.3,0,0.7,0,1.1-0.1V10.6z M72.2,10.6c0.4-0.2,0.9-0.2,1.4-0.2c1.4,0,2.4,0.8,2.4,2.2c0,1.7-1.1,2.5-2.5,2.5v2h0.1
		c3,0,4.7-1.6,4.7-4.5c0-2.6-1.9-4.2-4.7-4.2c-1.4,0-2.8,0.3-3.7,0.7v11.2h2.3V10.6z"/>
	<g>
		<path id="path9" inkscape:connector-curvature="0" class="st1" d="M53.3,7.3L53.3,7.3L53.3,7.3L53.3,7.3z"/>
		<path id="path11" inkscape:connector-curvature="0" class="st1" d="M52.8,7.1l0.3,0.3l0.2-0.1L52.8,7.1z"/>
		<path id="path13" inkscape:connector-curvature="0" class="st1" d="M52.4,6.8l0.6,0.7l0.2-0.1l-0.2-0.3
			C52.9,7.1,52.4,6.8,52.4,6.8z"/>
		<path id="path15" inkscape:connector-curvature="0" class="st1" d="M51.9,6.6l0.9,1L53,7.5l-0.5-0.6C52.5,6.9,51.9,6.6,51.9,6.6z"
			/>
		<path id="path17" inkscape:connector-curvature="0" class="st1" d="M51.4,6.3l1.2,1.4l0.2-0.1L52,6.6L51.4,6.3z M53.7,8.7
			l-0.1,0.1l0.1,0.2C53.7,8.9,53.7,8.7,53.7,8.7z"/>
		<path id="path19" inkscape:connector-curvature="0" class="st1" d="M51,6.1l1.4,1.7l0.2-0.1l-1.1-1.3L51,6.1z M53.6,8.8l-0.2,0.1
			l0.3,0.3V8.9L53.6,8.8L53.6,8.8z"/>
		<path id="path21" inkscape:connector-curvature="0" class="st1" d="M50.5,5.8l1.7,2l0.2-0.1l-1.4-1.6C51.1,6.1,50.5,5.8,50.5,5.8z
			 M53.4,8.9L53.2,9l0.5,0.5V9.2C53.7,9.2,53.4,8.9,53.4,8.9z"/>
		<path id="path23" inkscape:connector-curvature="0" class="st1" d="M50.1,5.6l2,2.4l0.2-0.1l-1.7-2C50.6,5.9,50.1,5.6,50.1,5.6z
			 M53.3,9l-0.2,0.1l0.6,0.7V9.5C53.7,9.5,53.3,9,53.3,9z"/>
		<path id="path25" inkscape:connector-curvature="0" class="st1" d="M49.6,5.4L52,8.1L52.2,8l-2-2.3C50.2,5.7,49.6,5.4,49.6,5.4z
			 M53.1,9.1l-0.2,0.1l0.8,0.9V9.7C53.7,9.7,53.1,9.1,53.1,9.1z"/>
		<path id="path27" inkscape:connector-curvature="0" class="st1" d="M49.1,5.1l2.6,3L52,8l-2.3-2.6C49.7,5.4,49.1,5.1,49.1,5.1z
			 M52.9,9.2l-0.2,0.1l1,1.1V10L52.9,9.2z"/>
		<path id="path29" inkscape:connector-curvature="0" class="st1" d="M48.7,4.9l2.9,3.4l0.2-0.1l-2.6-3L48.7,4.9z M52.8,9.2
			l-0.2,0.1l1.1,1.3v-0.4C53.7,10.3,52.8,9.2,52.8,9.2z"/>
		<path id="path31" inkscape:connector-curvature="0" class="st1" d="M48.2,4.6l3.2,3.7l0.2-0.1l-2.8-3.3L48.2,4.6z M52.6,9.3
			l-0.2,0.1l1.3,1.5v-0.4L52.6,9.3z"/>
		<path id="path33" inkscape:connector-curvature="0" class="st1" d="M47.8,4.4l3.5,4.1l0.2-0.1l-3.1-3.6L47.8,4.4z M52.4,9.4
			l-0.2,0.1l1.4,1.7v-0.4C53.7,10.9,52.4,9.4,52.4,9.4z"/>
		<path id="path35" inkscape:connector-curvature="0" class="st1" d="M47.3,4.1l3.8,4.4l0.2-0.1l-3.4-4C47.9,4.4,47.3,4.1,47.3,4.1z
			 M52.3,9.5l-0.2,0.1l1.6,1.9v-0.4C53.7,11.2,52.3,9.5,52.3,9.5z"/>
		<path id="path37" inkscape:connector-curvature="0" class="st1" d="M46.9,3.9L51,8.6l0.2-0.1l-3.7-4.3L46.9,3.9z M52.1,9.6
			l-0.2,0.1l1.8,2.1v-0.4C53.7,11.5,52.1,9.6,52.1,9.6z"/>
		<path id="path39" inkscape:connector-curvature="0" class="st1" d="M46.4,3.6l4.4,5.1L51,8.6l-4-4.7L46.4,3.6z M51.9,9.7l-0.2,0.1
			l2,2.3v-0.4C53.7,11.7,51.9,9.7,51.9,9.7z"/>
		<path id="path41" inkscape:connector-curvature="0" class="st1" d="M46,3.4l4.7,5.4l0.2-0.1l-4.3-5L46,3.4L46,3.4z M51.8,9.8
			l-0.2,0.1l2.1,2.5V12L51.8,9.8z"/>
		<path id="path43" inkscape:connector-curvature="0" class="st1" d="M45.7,3.3L45.7,3.3l4.8,5.6l0.2-0.1l-4.6-5.4L46,3.4
			C45.9,3.3,45.8,3.3,45.7,3.3z M51.6,9.9L51.4,10l2.3,2.7v-0.4C53.7,12.3,51.6,9.9,51.6,9.9z"/>
		<path id="path45" inkscape:connector-curvature="0" class="st1" d="M45.7,3.3c-0.1,0-0.2,0-0.2,0L50.3,9l0.2-0.1L45.7,3.3
			C45.7,3.3,45.7,3.3,45.7,3.3z M51.4,10l-0.2,0.1l2.4,2.9v-0.4C53.7,12.6,51.4,10,51.4,10z"/>
		<path id="path47" inkscape:connector-curvature="0" class="st1" d="M45.5,3.3c0,0-0.1,0-0.1,0.1l-0.1,0.1l4.9,5.7L50.3,9
			C50.3,9,45.5,3.3,45.5,3.3z M51.3,10.1l-0.2,0.1l2.6,3v-0.4L51.3,10.1z"/>
		<path id="path49" inkscape:connector-curvature="0" class="st1" d="M45.3,3.4l-0.2,0.1L50,9.2l0.2-0.1C50.2,9.1,45.3,3.4,45.3,3.4
			z M51.1,10.2l-0.2,0.1l2.8,3.2v-0.4C53.7,13.2,51.1,10.2,51.1,10.2z"/>
		<path id="path51" inkscape:connector-curvature="0" class="st1" d="M45.1,3.5l-0.2,0.1l4.9,5.7L50,9.2C50,9.2,45.1,3.5,45.1,3.5z
			 M50.9,10.3l-0.2,0.1l3,3.4v-0.4C53.7,13.5,50.9,10.3,50.9,10.3z"/>
		<path id="path53" inkscape:connector-curvature="0" class="st1" d="M45,3.6l-0.2,0.1l4.9,5.7l0.2-0.1C49.8,9.3,45,3.6,45,3.6z
			 M50.8,10.4l-0.2,0.1l3.1,3.6v-0.4L50.8,10.4z"/>
		<path id="path55" inkscape:connector-curvature="0" class="st1" d="M44.8,3.7l-0.2,0.1l4.9,5.7l0.2-0.1
			C49.7,9.4,44.8,3.7,44.8,3.7z M50.6,10.5l-0.2,0.1l3.3,3.8v-0.4C53.7,14.1,50.6,10.5,50.6,10.5z"/>
		<path id="path57" inkscape:connector-curvature="0" class="st1" d="M44.6,3.8l-0.2,0.1l4.9,5.7l0.2-0.1
			C49.5,9.5,44.6,3.8,44.6,3.8z M50.4,10.6l-0.2,0.1l3.4,4v-0.4C53.7,14.4,50.4,10.6,50.4,10.6z"/>
		<path id="path59" inkscape:connector-curvature="0" class="st1" d="M44.4,3.9L44.2,4l4.9,5.7l0.2-0.1C49.3,9.6,44.4,3.9,44.4,3.9z
			 M50.3,10.7l-0.2,0.1l3.6,4.2v-0.4L50.3,10.7z"/>
		<path id="path61" inkscape:connector-curvature="0" class="st1" d="M44.3,4l-0.2,0.1L49,9.8l0.2-0.1C49.2,9.7,44.3,4,44.3,4z
			 M50.1,10.8l-0.2,0.1l3.8,4.4v-0.4C53.7,14.9,50.1,10.8,50.1,10.8z"/>
		<path id="path63" inkscape:connector-curvature="0" class="st1" d="M44.1,4.1l-0.2,0.1l4.9,5.7L49,9.8L44.1,4.1z M49.9,10.9
			L49.7,11l3.9,4.6v-0.4L49.9,10.9z"/>
		<path id="path65" inkscape:connector-curvature="0" class="st1" d="M43.9,4.2l-0.2,0.1l4.9,5.7l0.2-0.1L43.9,4.2z M49.8,11
			l-0.2,0.1l4.1,4.8v-0.4C53.7,15.5,49.8,11,49.8,11z"/>
		<path id="path67" inkscape:connector-curvature="0" class="st1" d="M43.8,4.2l-0.2,0.1l4.9,5.7l0.2-0.1
			C48.7,9.9,43.8,4.2,43.8,4.2z M49.6,11.1l-0.2,0.1l4.3,5v-0.4C53.7,15.8,49.6,11.1,49.6,11.1z"/>
		<path id="path69" inkscape:connector-curvature="0" class="st1" d="M43.6,4.3l-0.2,0.1l4.9,5.7l0.2-0.1C48.5,10,43.6,4.3,43.6,4.3
			z M49.5,11.1l-0.2,0.1l4.4,5.2v-0.4C53.7,16.1,49.5,11.1,49.5,11.1z"/>
		<path id="path71" inkscape:connector-curvature="0" class="st1" d="M43.4,4.4l-0.2,0.1l4.9,5.7l0.2-0.1
			C48.3,10.1,43.4,4.4,43.4,4.4z M49.3,11.2l-0.2,0.1l4.6,5.4v-0.4L49.3,11.2z"/>
		<path id="path73" inkscape:connector-curvature="0" class="st1" d="M43.3,4.5L43,4.6l4.9,5.8c0,0,0-0.1,0.1-0.1l0.1-0.1
			C48.2,10.2,43.3,4.5,43.3,4.5z M49.1,11.3l-0.2,0.1l4.7,5.5c0-0.1,0-0.1,0-0.2v-0.2L49.1,11.3L49.1,11.3z"/>
		<path id="path75" inkscape:connector-curvature="0" class="st1" d="M43.1,4.6l-0.2,0.1l5.1,5.9v-0.1c0-0.1,0-0.1,0.1-0.2L43.1,4.6
			z M48.9,11.4l-0.2,0.1c0,0,0,0-0.1,0l4.8,5.6c0.1-0.1,0.1-0.2,0.1-0.2L48.9,11.4z"/>
		<path id="path77" inkscape:connector-curvature="0" class="st1" d="M42.9,4.7l-0.2,0.1l5.2,6.1v-0.4C47.9,10.5,42.9,4.7,42.9,4.7z
			 M48.4,11.4l5,5.8c0.1,0,0.1-0.1,0.2-0.2l-4.8-5.6C48.7,11.6,48.6,11.6,48.4,11.4L48.4,11.4z"/>
		<path id="path79" inkscape:connector-curvature="0" class="st1" d="M42.8,4.8l-0.2,0.1l10.7,12.5l0.2-0.1c0,0,0,0,0.1-0.1
			l-4.9-5.7h0l-0.4-0.3c0,0-0.1-0.1-0.1-0.1l0,0c0-0.1,0-0.1-0.1-0.1v-0.2C47.9,10.8,42.8,4.8,42.8,4.8z"/>
		<path id="path81" inkscape:connector-curvature="0" class="st1" d="M42.6,4.9L42.4,5l10.7,12.5l0.2-0.1L42.6,4.9z"/>
		<path id="path83" inkscape:connector-curvature="0" class="st1" d="M42.4,5l-0.2,0.1l10.7,12.5l0.2-0.1L42.4,5z"/>
		<path id="path85" inkscape:connector-curvature="0" class="st1" d="M42.2,5.1L42,5.2l10.7,12.5l0.2-0.1L42.2,5.1z"/>
		<path id="path87" inkscape:connector-curvature="0" class="st1" d="M42.1,5.1l-0.2,0.1l10.7,12.5l0.2-0.1L42.1,5.1z"/>
		<path id="path89" inkscape:connector-curvature="0" class="st1" d="M41.9,5.2l-0.2,0.1l10.7,12.5l0.2-0.1L41.9,5.2z"/>
		<path id="path91" inkscape:connector-curvature="0" class="st1" d="M41.7,5.3l-0.2,0.1L52.3,18l0.2-0.1L41.7,5.3z"/>
		<path id="path93" inkscape:connector-curvature="0" class="st1" d="M41.6,5.4l-0.2,0.1l10.8,12.5l0.2-0.1L41.6,5.4z"/>
		<path id="path95" inkscape:connector-curvature="0" class="st1" d="M41.4,5.5l-0.2,0.1l10.8,12.5l0.2-0.1L41.4,5.5z"/>
		<path id="path97" inkscape:connector-curvature="0" class="st1" d="M41.2,5.6L41,5.7l10.8,12.5l0.2-0.1L41.2,5.6z"/>
		<path id="path99" inkscape:connector-curvature="0" class="st1" d="M41,5.7l-0.2,0.1l5.2,6.1l0.2,0.1c0.1,0,0.2,0.1,0.2,0.2v0
			l5.2,6.1l0.2-0.1L41,5.7z"/>
		<path id="path101" inkscape:connector-curvature="0" class="st1" d="M40.9,5.8l-0.2,0.1l4.9,5.7l0.6,0.3L40.9,5.8z M46.4,12.2
			C46.4,12.2,46.4,12.2,46.4,12.2l0,0.4l5,5.9l0.2-0.1C51.6,18.3,46.4,12.2,46.4,12.2z"/>
		<path id="path103" inkscape:connector-curvature="0" class="st1" d="M40.7,5.9L40.5,6l4.6,5.4l0.6,0.3
			C45.7,11.7,40.7,5.9,40.7,5.9z M46.4,12.5v0.4l4.9,5.7l0.2-0.1L46.4,12.5z"/>
		<path id="path105" inkscape:connector-curvature="0" class="st1" d="M40.5,6l-0.2,0.1l4.3,5l0.6,0.3L40.5,6z M46.4,12.8v0.4
			l4.7,5.5l0.2-0.1L46.4,12.8z"/>
		<path id="path107" inkscape:connector-curvature="0" class="st1" d="M40.4,6.1l-0.2,0.1l4,4.6l0.6,0.4L40.4,6.1z M46.4,13.1v0.4
			l4.5,5.3l0.2-0.1L46.4,13.1z"/>
		<path id="path109" inkscape:connector-curvature="0" class="st1" d="M40.2,6.1L40,6.3l3.6,4.2l0.6,0.4
			C44.2,10.9,40.2,6.1,40.2,6.1z M46.4,13.3v0.4l4.4,5.1l0.2-0.1L46.4,13.3z"/>
		<path id="path111" inkscape:connector-curvature="0" class="st1" d="M40,6.2l-0.2,0.1l3.3,3.9l0.6,0.3L40,6.2z M46.4,13.6V14
			l4.2,4.9l0.2-0.1C50.8,18.8,46.4,13.6,46.4,13.6z"/>
		<path id="path113" inkscape:connector-curvature="0" class="st1" d="M39.9,6.3l-0.2,0.1l3,3.5l0.6,0.3
			C43.3,10.3,39.9,6.3,39.9,6.3z M46.4,13.9v0.4l4.1,4.7l0.2-0.1C50.7,18.9,46.4,13.9,46.4,13.9z"/>
		<path id="path115" inkscape:connector-curvature="0" class="st1" d="M39.7,6.4l-0.2,0.1l2.7,3.1l0.6,0.3
			C42.8,10,39.7,6.4,39.7,6.4z M46.4,14.2v0.4l3.9,4.5l0.2-0.1C50.5,19,46.4,14.2,46.4,14.2z"/>
		<path id="path117" inkscape:connector-curvature="0" class="st1" d="M39.5,6.5l-0.2,0.1l2.4,2.8l0.6,0.4
			C42.3,9.8,39.5,6.5,39.5,6.5z M44.4,12.6l0.5,0.6V13c0,0,0-0.1-0.1-0.1L44.4,12.6z M46.4,14.5v0.4l3.7,4.3l0.2-0.1L46.4,14.5z"/>
		<path id="path119" inkscape:connector-curvature="0" class="st1" d="M39.4,6.6l-0.2,0.1l2,2.4l0.6,0.4C41.8,9.5,39.4,6.6,39.4,6.6
			z M44,12.3l1,1.1v-0.4l-0.4-0.4C44.6,12.7,44,12.3,44,12.3z M46.4,14.8v0.4l3.6,4.2l0.2-0.1C50.1,19.2,46.4,14.8,46.4,14.8z"/>
		<path id="path121" inkscape:connector-curvature="0" class="st1" d="M39.2,6.7L39,6.8l1.7,2l0.6,0.3C41.3,9.2,39.2,6.7,39.2,6.7z
			 M43.5,12.1l1.5,1.7v-0.4l-0.8-1C44.1,12.4,43.5,12.1,43.5,12.1z M46.4,15.1v0.4l3.4,4l0.2-0.1C50,19.3,46.4,15.1,46.4,15.1z"/>
		<path id="path123" inkscape:connector-curvature="0" class="st1" d="M39,6.8l-0.2,0.1l1.4,1.7l0.6,0.3C40.8,8.9,39,6.8,39,6.8z
			 M43,11.8l1.9,2.3v-0.4l-1.3-1.6C43.6,12.1,43,11.8,43,11.8z M46.4,15.4v0.4l3.2,3.8l0.2-0.1L46.4,15.4z"/>
		<path id="path125" inkscape:connector-curvature="0" class="st1" d="M38.8,6.9L38.6,7l1.1,1.3l0.6,0.3C40.4,8.6,38.8,6.9,38.8,6.9
			z M42.5,11.5l2.4,2.8V14l-1.8-2.1L42.5,11.5z M46.4,15.7V16l3.1,3.6l0.2-0.1C49.7,19.5,46.4,15.7,46.4,15.7z"/>
		<path id="path127" inkscape:connector-curvature="0" class="st1" d="M38.7,7l-0.2,0.1L39.3,8l0.6,0.4L38.7,7z M42,11.2l2.9,3.4
			v-0.4l-2.3-2.7L42,11.2z M46.4,15.9v0.4l2.9,3.4l0.2-0.1L46.4,15.9z"/>
		<path id="path129" inkscape:connector-curvature="0" class="st1" d="M38.5,7.1l-0.2,0.1l0.5,0.5l0.6,0.4
			C39.4,8.1,38.5,7.1,38.5,7.1z M41.5,11l3.4,3.9v-0.4l-2.8-3.3L41.5,11z M46.4,16.2v0.4l2.7,3.2l0.2-0.1
			C49.3,19.7,46.4,16.2,46.4,16.2z"/>
		<path id="path131" inkscape:connector-curvature="0" class="st1" d="M38.3,7.1l-0.2,0.1l0.2,0.2l0.6,0.3
			C38.9,7.8,38.3,7.1,38.3,7.1z M41,10.7l3.9,4.5v-0.4L41.7,11C41.7,11,41,10.7,41,10.7z M46.4,16.5v0.4l2.6,3l0.2-0.1
			C49.1,19.8,46.4,16.5,46.4,16.5z"/>
		<path id="path133" inkscape:connector-curvature="0" class="st1" d="M38.2,7.2L38,7.3l0.4,0.2C38.4,7.5,38.2,7.2,38.2,7.2z
			 M40.6,10.4l4.4,5.1v-0.4l-3.8-4.4C41.2,10.8,40.6,10.4,40.6,10.4z M46.4,16.8v0.4l2.4,2.8l0.2-0.1L46.4,16.8z"/>
		<path id="path135" inkscape:connector-curvature="0" class="st1" d="M40.1,10.1l4.9,5.7v-0.4l-4.2-4.9L40.1,10.1z M46.4,17.1v0.4
			l2.2,2.6l0.2-0.1L46.4,17.1z"/>
		<path id="path137" inkscape:connector-curvature="0" class="st1" d="M39.6,9.8l5.3,6.2v-0.4l-4.7-5.5L39.6,9.8z M46.4,17.4v0.4
			l2.1,2.4l0.2-0.1L46.4,17.4z"/>
		<path id="path139" inkscape:connector-curvature="0" class="st1" d="M39.1,9.6l5.8,6.8V16l-5.2-6.1C39.7,9.9,39.1,9.6,39.1,9.6z
			 M46.4,17.7V18l1.9,2.2l0.2-0.1C48.5,20.2,46.4,17.7,46.4,17.7z"/>
		<path id="path141" inkscape:connector-curvature="0" class="st1" d="M38.6,9.3l6.3,7.4v-0.4l-5.7-6.6L38.6,9.3z M46.4,18v0.4
			l1.7,2l0.2-0.1L46.4,18z"/>
		<path id="path143" inkscape:connector-curvature="0" class="st1" d="M38.1,9l6.8,7.9v-0.4l-6.2-7.2L38.1,9z M46.4,18.3v0.4
			l1.6,1.8l0.2-0.1L46.4,18.3z"/>
		<path id="path145" inkscape:connector-curvature="0" class="st1" d="M37.6,8.7l7.3,8.5v-0.4l-6.7-7.8C38.3,9.1,37.6,8.7,37.6,8.7z
			 M46.4,18.5v0.4l1.4,1.6l0.2-0.1C48,20.4,46.4,18.5,46.4,18.5z"/>
		<path id="path147" inkscape:connector-curvature="0" class="st1" d="M37.6,8.7V9l7.3,8.5v-0.4l-7.2-8.3L37.6,8.7z M46.4,18.8v0.2
			c0,0,0,0.1,0,0.1l1.3,1.5l0.2-0.1C47.8,20.5,46.4,18.8,46.4,18.8z"/>
		<path id="path149" inkscape:connector-curvature="0" class="st1" d="M37.6,8.9v0.4l7.3,8.5v-0.4L37.6,8.9z M46.4,19.1
			c0,0.1-0.1,0.2-0.1,0.2l0,0l1.2,1.4l0.2-0.1C47.7,20.6,46.4,19.1,46.4,19.1z"/>
		<path id="path151" inkscape:connector-curvature="0" class="st1" d="M37.6,9.2v0.4l7.3,8.5v-0.4L37.6,9.2z M46.3,19.3
			C46.3,19.3,46.3,19.3,46.3,19.3L46,19.4l1.2,1.4l0.2-0.1L46.3,19.3L46.3,19.3z"/>
		<path id="path153" inkscape:connector-curvature="0" class="st1" d="M37.6,9.5v0.4l7.3,8.5V18L37.6,9.5z M46.1,19.4l-0.2,0.1
			l1.3,1.4l0.2-0.1L46.1,19.4z"/>
		<path id="path155" inkscape:connector-curvature="0" class="st1" d="M37.6,9.8v0.4l7.3,8.5v-0.4L37.6,9.8z M45.9,19.5l-0.1,0.1
			c0,0-0.1,0-0.1,0L47,21l0.2-0.1L45.9,19.5L45.9,19.5z"/>
		<path id="path157" inkscape:connector-curvature="0" class="st1" d="M37.6,10.1v0.4l7.3,8.5v-0.4L37.6,10.1z M45.4,19.5l1.4,1.7
			L47,21l-1.3-1.4c0,0-0.1,0-0.1,0h0c-0.1,0-0.1,0-0.1,0L45.4,19.5L45.4,19.5z"/>
		<path id="path159" inkscape:connector-curvature="0" class="st1" d="M37.6,10.4v0.4l9,10.5l0.2-0.1l-1.4-1.6l-0.4-0.2
			c-0.1,0-0.1-0.1-0.1-0.2v-0.2L37.6,10.4z"/>
		<path id="path161" inkscape:connector-curvature="0" class="st1" d="M37.6,10.7V11l8.8,10.3l0.2-0.1L37.6,10.7z"/>
		<path id="path163" inkscape:connector-curvature="0" class="st1" d="M37.6,10.9v0.4l8.7,10.1l0.2-0.1L37.6,10.9z"/>
		<path id="path165" inkscape:connector-curvature="0" class="st1" d="M37.6,11.2v0.4l8.5,9.9l0.2-0.1L37.6,11.2z"/>
		<path id="path167" inkscape:connector-curvature="0" class="st1" d="M37.6,11.5v0.4l8.3,9.7l0.2-0.1L37.6,11.5z"/>
		<path id="path169" inkscape:connector-curvature="0" class="st1" d="M37.6,11.8v0.4l8.2,9.5c0.1,0,0.1,0,0.2-0.1l0.1,0L37.6,11.8z
			"/>
		<path id="path171" inkscape:connector-curvature="0" class="st1" d="M37.6,12.1v0.4l7.9,9.2c0,0,0.1,0,0.1,0c0.1,0,0.1,0,0.2,0
			L37.6,12.1z"/>
		<path id="path173" inkscape:connector-curvature="0" class="st1" d="M37.6,12.4v0.4l7.5,8.7l0.3,0.2c0.1,0,0.2,0.1,0.2,0.1
			L37.6,12.4z"/>
		<path id="path175" inkscape:connector-curvature="0" class="st1" d="M37.6,12.7V13l7,8.2l0.6,0.4L37.6,12.7z"/>
		<path id="path177" inkscape:connector-curvature="0" class="st1" d="M37.6,13v0.4l6.5,7.6l0.6,0.4L37.6,13z"/>
		<path id="path179" inkscape:connector-curvature="0" class="st1" d="M37.6,13.3v0.4l6,7l0.6,0.4L37.6,13.3z"/>
		<path id="path181" inkscape:connector-curvature="0" class="st1" d="M37.6,13.5v0.4l5.5,6.4l0.6,0.4L37.6,13.5z"/>
		<path id="path183" inkscape:connector-curvature="0" class="st1" d="M37.6,13.8v0.4l5,5.8l0.6,0.4L37.6,13.8z"/>
		<path id="path185" inkscape:connector-curvature="0" class="st1" d="M37.6,14.1v0.4l4.5,5.3l0.6,0.4L37.6,14.1z"/>
		<path id="path187" inkscape:connector-curvature="0" class="st1" d="M37.6,14.4v0.4l4,4.7l0.6,0.4C42.3,19.8,37.6,14.4,37.6,14.4z
			"/>
		<path id="path189" inkscape:connector-curvature="0" class="st1" d="M37.6,14.7v0.4l3.6,4.1l0.6,0.4L37.6,14.7z"/>
		<path id="path191" inkscape:connector-curvature="0" class="st1" d="M37.6,15v0.4l3.1,3.6l0.6,0.4L37.6,15z"/>
		<path id="path193" inkscape:connector-curvature="0" class="st1" d="M37.6,15.3v0.4l2.6,3l0.6,0.4L37.6,15.3z"/>
		<path id="path195" inkscape:connector-curvature="0" class="st1" d="M37.6,15.6v0.4l2.1,2.4l0.6,0.4L37.6,15.6z"/>
		<path id="path197" inkscape:connector-curvature="0" class="st1" d="M37.6,15.8v0.4l1.6,1.9l0.6,0.3L37.6,15.8z"/>
		<path id="path199" inkscape:connector-curvature="0" class="st1" d="M37.6,16.1v0.4l1.1,1.3l0.6,0.4L37.6,16.1z"/>
		<path id="path201" inkscape:connector-curvature="0" class="st1" d="M37.6,16.4v0.4l0.6,0.7l0.6,0.4L37.6,16.4z"/>
		<path id="path203" inkscape:connector-curvature="0" class="st1" d="M37.6,16.7L37.6,16.7c0,0.3,0.1,0.5,0.3,0.6l0.5,0.2
			C38.4,17.6,37.6,16.7,37.6,16.7z"/>
		<path id="path205" inkscape:connector-curvature="0" class="st1" d="M37.7,17.1C37.8,17.2,37.8,17.2,37.7,17.1L37.7,17.1z"/>
	</g>
	<g>
		<path id="path9_00000032636501496692006350000013938573632046637742_" inkscape:connector-curvature="0" class="st1" d="M53.3,7.3
			L53.3,7.3L53.3,7.3L53.3,7.3z"/>
		<path id="path11_00000009554399410857911560000013913796781395503252_" inkscape:connector-curvature="0" class="st1" d="
			M52.8,7.1l0.3,0.3l0.2-0.1L52.8,7.1z"/>
		<path id="path13_00000047761531328842792360000016351456092455662219_" inkscape:connector-curvature="0" class="st1" d="
			M52.4,6.8l0.6,0.7l0.2-0.1l-0.2-0.3C52.9,7.1,52.4,6.8,52.4,6.8z"/>
		<path id="path15_00000048463884527241671860000007042562085555328402_" inkscape:connector-curvature="0" class="st1" d="
			M51.9,6.6l0.9,1L53,7.5l-0.5-0.6C52.5,6.9,51.9,6.6,51.9,6.6z"/>
		<path id="path17_00000038399664627645476640000012663794503271040918_" inkscape:connector-curvature="0" class="st1" d="
			M51.4,6.3l1.2,1.4l0.2-0.1L52,6.6L51.4,6.3z M53.7,8.7l-0.1,0.1l0.1,0.2C53.7,8.9,53.7,8.7,53.7,8.7z"/>
		<path id="path19_00000069395712265566714730000008703533177164345015_" inkscape:connector-curvature="0" class="st1" d="M51,6.1
			l1.4,1.7l0.2-0.1l-1.1-1.3L51,6.1z M53.6,8.8l-0.2,0.1l0.3,0.3V8.9L53.6,8.8L53.6,8.8z"/>
		<path id="path21_00000127018514276808361460000010952203786853471915_" inkscape:connector-curvature="0" class="st1" d="
			M50.5,5.8l1.7,2l0.2-0.1l-1.4-1.6C51.1,6.1,50.5,5.8,50.5,5.8z M53.4,8.9L53.2,9l0.5,0.5V9.2C53.7,9.2,53.4,8.9,53.4,8.9z"/>
		<path id="path23_00000054268163893491689020000017593785780116907451_" inkscape:connector-curvature="0" class="st1" d="
			M50.1,5.6l2,2.4l0.2-0.1l-1.7-2C50.6,5.9,50.1,5.6,50.1,5.6z M53.3,9l-0.2,0.1l0.6,0.7V9.5C53.7,9.5,53.3,9,53.3,9z"/>
		<path id="path25_00000128459453511389740240000000069631266635192740_" inkscape:connector-curvature="0" class="st1" d="
			M49.6,5.4L52,8.1L52.2,8l-2-2.3C50.2,5.7,49.6,5.4,49.6,5.4z M53.1,9.1l-0.2,0.1l0.8,0.9V9.7C53.7,9.7,53.1,9.1,53.1,9.1z"/>
		<path id="path27_00000097468831192931037650000017637039592128055184_" inkscape:connector-curvature="0" class="st1" d="
			M49.1,5.1l2.6,3L52,8l-2.3-2.6C49.7,5.4,49.1,5.1,49.1,5.1z M52.9,9.2l-0.2,0.1l1,1.1V10L52.9,9.2z"/>
		<path id="path29_00000116924633250012257050000004574734560441767581_" inkscape:connector-curvature="0" class="st1" d="
			M48.7,4.9l2.9,3.4l0.2-0.1l-2.6-3L48.7,4.9z M52.8,9.2l-0.2,0.1l1.1,1.3v-0.4C53.7,10.3,52.8,9.2,52.8,9.2z"/>
		<path id="path31_00000140720977361377896940000011930077621876863626_" inkscape:connector-curvature="0" class="st1" d="
			M48.2,4.6l3.2,3.7l0.2-0.1l-2.8-3.3L48.2,4.6z M52.6,9.3l-0.2,0.1l1.3,1.5v-0.4L52.6,9.3z"/>
		<path id="path33_00000076599173773007560160000017845128994803172286_" inkscape:connector-curvature="0" class="st1" d="
			M47.8,4.4l3.5,4.1l0.2-0.1l-3.1-3.6L47.8,4.4z M52.4,9.4l-0.2,0.1l1.4,1.7v-0.4C53.7,10.9,52.4,9.4,52.4,9.4z"/>
		<path id="path35_00000035531305513418911520000003719185145974113204_" inkscape:connector-curvature="0" class="st1" d="
			M47.3,4.1l3.8,4.4l0.2-0.1l-3.4-4C47.9,4.4,47.3,4.1,47.3,4.1z M52.3,9.5l-0.2,0.1l1.6,1.9v-0.4C53.7,11.2,52.3,9.5,52.3,9.5z"/>
		<path id="path37_00000085943289932811417550000009301995929538004904_" inkscape:connector-curvature="0" class="st1" d="
			M46.9,3.9L51,8.6l0.2-0.1l-3.7-4.3L46.9,3.9z M52.1,9.6l-0.2,0.1l1.8,2.1v-0.4C53.7,11.5,52.1,9.6,52.1,9.6z"/>
		<path id="path39_00000175301978058977201650000005746686797629280667_" inkscape:connector-curvature="0" class="st1" d="
			M46.4,3.6l4.4,5.1L51,8.6l-4-4.7L46.4,3.6z M51.9,9.7l-0.2,0.1l2,2.3v-0.4C53.7,11.7,51.9,9.7,51.9,9.7z"/>
		<path id="path41_00000106125386939599970600000015978337069044273296_" inkscape:connector-curvature="0" class="st1" d="M46,3.4
			l4.7,5.4l0.2-0.1l-4.3-5L46,3.4L46,3.4z M51.8,9.8l-0.2,0.1l2.1,2.5V12L51.8,9.8z"/>
		<path id="path43_00000170958429348869589380000002226558962534235064_" inkscape:connector-curvature="0" class="st1" d="
			M45.7,3.3L45.7,3.3l4.8,5.6l0.2-0.1l-4.6-5.4L46,3.4C45.9,3.3,45.8,3.3,45.7,3.3z M51.6,9.9L51.4,10l2.3,2.7v-0.4
			C53.7,12.3,51.6,9.9,51.6,9.9z"/>
		<path id="path45_00000016760765272078667640000002625437889599990703_" inkscape:connector-curvature="0" class="st1" d="
			M45.7,3.3c-0.1,0-0.2,0-0.2,0L50.3,9l0.2-0.1L45.7,3.3C45.7,3.3,45.7,3.3,45.7,3.3z M51.4,10l-0.2,0.1l2.4,2.9v-0.4
			C53.7,12.6,51.4,10,51.4,10z"/>
		<path id="path47_00000082359220004827777580000004515156841552086672_" inkscape:connector-curvature="0" class="st1" d="
			M45.5,3.3c0,0-0.1,0-0.1,0.1l-0.1,0.1l4.9,5.7L50.3,9C50.3,9,45.5,3.3,45.5,3.3z M51.3,10.1l-0.2,0.1l2.6,3v-0.4L51.3,10.1z"/>
		<path id="path49_00000177450313803507191730000003366480157024735621_" inkscape:connector-curvature="0" class="st1" d="
			M45.3,3.4l-0.2,0.1L50,9.2l0.2-0.1C50.2,9.1,45.3,3.4,45.3,3.4z M51.1,10.2l-0.2,0.1l2.8,3.2v-0.4C53.7,13.2,51.1,10.2,51.1,10.2z
			"/>
		<path id="path51_00000120535467527531104450000013653245467643818881_" inkscape:connector-curvature="0" class="st1" d="
			M45.1,3.5l-0.2,0.1l4.9,5.7L50,9.2C50,9.2,45.1,3.5,45.1,3.5z M50.9,10.3l-0.2,0.1l3,3.4v-0.4C53.7,13.5,50.9,10.3,50.9,10.3z"/>
		<path id="path53_00000097458167252283257700000002055629626940898233_" inkscape:connector-curvature="0" class="st1" d="M45,3.6
			l-0.2,0.1l4.9,5.7l0.2-0.1C49.8,9.3,45,3.6,45,3.6z M50.8,10.4l-0.2,0.1l3.1,3.6v-0.4L50.8,10.4z"/>
		<path id="path55_00000131345003210340457400000010718829199595250847_" inkscape:connector-curvature="0" class="st1" d="
			M44.8,3.7l-0.2,0.1l4.9,5.7l0.2-0.1C49.7,9.4,44.8,3.7,44.8,3.7z M50.6,10.5l-0.2,0.1l3.3,3.8v-0.4C53.7,14.1,50.6,10.5,50.6,10.5
			z"/>
		<path id="path57_00000183218248816135526470000013117299611789093305_" inkscape:connector-curvature="0" class="st1" d="
			M44.6,3.8l-0.2,0.1l4.9,5.7l0.2-0.1C49.5,9.5,44.6,3.8,44.6,3.8z M50.4,10.6l-0.2,0.1l3.4,4v-0.4C53.7,14.4,50.4,10.6,50.4,10.6z"
			/>
		<path id="path59_00000020373146704156105360000007547242463427360643_" inkscape:connector-curvature="0" class="st1" d="
			M44.4,3.9L44.2,4l4.9,5.7l0.2-0.1C49.3,9.6,44.4,3.9,44.4,3.9z M50.3,10.7l-0.2,0.1l3.6,4.2v-0.4L50.3,10.7z"/>
		<path id="path61_00000161591489096856544680000014688745393172469645_" inkscape:connector-curvature="0" class="st1" d="M44.3,4
			l-0.2,0.1L49,9.8l0.2-0.1C49.2,9.7,44.3,4,44.3,4z M50.1,10.8l-0.2,0.1l3.8,4.4v-0.4C53.7,14.9,50.1,10.8,50.1,10.8z"/>
		<path id="path63_00000170254619673142964180000017957076810667723153_" inkscape:connector-curvature="0" class="st1" d="
			M44.1,4.1l-0.2,0.1l4.9,5.7L49,9.8L44.1,4.1z M49.9,10.9L49.7,11l3.9,4.6v-0.4L49.9,10.9z"/>
		<path id="path65_00000132801312843774643590000006623474991151968697_" inkscape:connector-curvature="0" class="st1" d="
			M43.9,4.2l-0.2,0.1l4.9,5.7l0.2-0.1L43.9,4.2z M49.8,11l-0.2,0.1l4.1,4.8v-0.4C53.7,15.5,49.8,11,49.8,11z"/>
		<path id="path67_00000104671413013346073640000013526656820372416666_" inkscape:connector-curvature="0" class="st1" d="
			M43.8,4.2l-0.2,0.1l4.9,5.7l0.2-0.1C48.7,9.9,43.8,4.2,43.8,4.2z M49.6,11.1l-0.2,0.1l4.3,5v-0.4C53.7,15.8,49.6,11.1,49.6,11.1z"
			/>
		<path id="path69_00000013185888171777912530000010323555847028160133_" inkscape:connector-curvature="0" class="st1" d="
			M43.6,4.3l-0.2,0.1l4.9,5.7l0.2-0.1C48.5,10,43.6,4.3,43.6,4.3z M49.5,11.1l-0.2,0.1l4.4,5.2v-0.4C53.7,16.1,49.5,11.1,49.5,11.1z
			"/>
		<path id="path71_00000098203591809373369440000017142315032422963881_" inkscape:connector-curvature="0" class="st1" d="
			M43.4,4.4l-0.2,0.1l4.9,5.7l0.2-0.1C48.3,10.1,43.4,4.4,43.4,4.4z M49.3,11.2l-0.2,0.1l4.6,5.4v-0.4L49.3,11.2z"/>
		<path id="path73_00000000930214513613526020000015968224193404893845_" inkscape:connector-curvature="0" class="st1" d="
			M43.3,4.5L43,4.6l4.9,5.8c0,0,0-0.1,0.1-0.1l0.1-0.1C48.2,10.2,43.3,4.5,43.3,4.5z M49.1,11.3l-0.2,0.1l4.7,5.5c0-0.1,0-0.1,0-0.2
			v-0.2L49.1,11.3L49.1,11.3z"/>
		<path id="path75_00000173161829192871242070000014638956689016433030_" inkscape:connector-curvature="0" class="st1" d="
			M43.1,4.6l-0.2,0.1l5.1,5.9v-0.1c0-0.1,0-0.1,0.1-0.2L43.1,4.6z M48.9,11.4l-0.2,0.1c0,0,0,0-0.1,0l4.8,5.6
			c0.1-0.1,0.1-0.2,0.1-0.2L48.9,11.4z"/>
		<path id="path77_00000070085610992188090910000002531785524193875373_" inkscape:connector-curvature="0" class="st1" d="
			M42.9,4.7l-0.2,0.1l5.2,6.1v-0.4C47.9,10.5,42.9,4.7,42.9,4.7z M48.4,11.4l5,5.8c0.1,0,0.1-0.1,0.2-0.2l-4.8-5.6
			C48.7,11.6,48.6,11.6,48.4,11.4L48.4,11.4z"/>
		<path id="path79_00000030462213993532021700000009782121703982533531_" inkscape:connector-curvature="0" class="st1" d="
			M42.8,4.8l-0.2,0.1l10.7,12.5l0.2-0.1c0,0,0,0,0.1-0.1l-4.9-5.7h0l-0.4-0.3c0,0-0.1-0.1-0.1-0.1l0,0c0-0.1,0-0.1-0.1-0.1v-0.2
			C47.9,10.8,42.8,4.8,42.8,4.8z"/>
		<path id="path81_00000005971511007982454930000006578581443077715893_" inkscape:connector-curvature="0" class="st1" d="
			M42.6,4.9L42.4,5l10.7,12.5l0.2-0.1L42.6,4.9z"/>
		<path id="path83_00000047773086234776207450000014337973104244516244_" inkscape:connector-curvature="0" class="st1" d="M42.4,5
			l-0.2,0.1l10.7,12.5l0.2-0.1L42.4,5z"/>
		<path id="path85_00000158022314273808773870000018146807683074580920_" inkscape:connector-curvature="0" class="st1" d="
			M42.2,5.1L42,5.2l10.7,12.5l0.2-0.1L42.2,5.1z"/>
		<path id="path87_00000095321998850071722230000003703860864276574885_" inkscape:connector-curvature="0" class="st1" d="
			M42.1,5.1l-0.2,0.1l10.7,12.5l0.2-0.1L42.1,5.1z"/>
		<path id="path89_00000124864521417251670080000012201149608319209657_" inkscape:connector-curvature="0" class="st1" d="
			M41.9,5.2l-0.2,0.1l10.7,12.5l0.2-0.1L41.9,5.2z"/>
		<path id="path91_00000096058790538652184130000014222415148487736971_" inkscape:connector-curvature="0" class="st1" d="
			M41.7,5.3l-0.2,0.1L52.3,18l0.2-0.1L41.7,5.3z"/>
		<path id="path93_00000068637932049830116430000013404502815859322251_" inkscape:connector-curvature="0" class="st1" d="
			M41.6,5.4l-0.2,0.1l10.8,12.5l0.2-0.1L41.6,5.4z"/>
		<path id="path95_00000041274179031163469250000004848298164006617783_" inkscape:connector-curvature="0" class="st1" d="
			M41.4,5.5l-0.2,0.1l10.8,12.5l0.2-0.1L41.4,5.5z"/>
		<path id="path97_00000070076510869889307740000015213994764127124361_" inkscape:connector-curvature="0" class="st1" d="
			M41.2,5.6L41,5.7l10.8,12.5l0.2-0.1L41.2,5.6z"/>
		<path id="path99_00000104689305690030222820000007538373065878519486_" inkscape:connector-curvature="0" class="st1" d="M41,5.7
			l-0.2,0.1l5.2,6.1l0.2,0.1c0.1,0,0.2,0.1,0.2,0.2v0l5.2,6.1l0.2-0.1L41,5.7z"/>
		<path id="path101_00000026135381248592439480000007549824965646214078_" inkscape:connector-curvature="0" class="st1" d="
			M40.9,5.8l-0.2,0.1l4.9,5.7l0.6,0.3L40.9,5.8z M46.4,12.2C46.4,12.2,46.4,12.2,46.4,12.2l0,0.4l5,5.9l0.2-0.1
			C51.6,18.3,46.4,12.2,46.4,12.2z"/>
		<path id="path103_00000021811925752370294680000015753966784955969191_" inkscape:connector-curvature="0" class="st1" d="
			M40.7,5.9L40.5,6l4.6,5.4l0.6,0.3C45.7,11.7,40.7,5.9,40.7,5.9z M46.4,12.5v0.4l4.9,5.7l0.2-0.1L46.4,12.5z"/>
		<path id="path105_00000085951521703086619280000007932666547088382352_" inkscape:connector-curvature="0" class="st1" d="M40.5,6
			l-0.2,0.1l4.3,5l0.6,0.3L40.5,6z M46.4,12.8v0.4l4.7,5.5l0.2-0.1L46.4,12.8z"/>
		<path id="path107_00000098201496367587374590000010839134941087056825_" inkscape:connector-curvature="0" class="st1" d="
			M40.4,6.1l-0.2,0.1l4,4.6l0.6,0.4L40.4,6.1z M46.4,13.1v0.4l4.5,5.3l0.2-0.1L46.4,13.1z"/>
		<path id="path109_00000003792222793601903710000010408924433980051627_" inkscape:connector-curvature="0" class="st1" d="
			M40.2,6.1L40,6.3l3.6,4.2l0.6,0.4C44.2,10.9,40.2,6.1,40.2,6.1z M46.4,13.3v0.4l4.4,5.1l0.2-0.1L46.4,13.3z"/>
		<path id="path111_00000003100596472999178900000014457748419672152194_" inkscape:connector-curvature="0" class="st1" d="M40,6.2
			l-0.2,0.1l3.3,3.9l0.6,0.3L40,6.2z M46.4,13.6V14l4.2,4.9l0.2-0.1C50.8,18.8,46.4,13.6,46.4,13.6z"/>
		<path id="path113_00000112623068762847092970000004525710035725785263_" inkscape:connector-curvature="0" class="st1" d="
			M39.9,6.3l-0.2,0.1l3,3.5l0.6,0.3C43.3,10.3,39.9,6.3,39.9,6.3z M46.4,13.9v0.4l4.1,4.7l0.2-0.1C50.7,18.9,46.4,13.9,46.4,13.9z"
			/>
		<path id="path115_00000101791166767232818850000000645668703051032978_" inkscape:connector-curvature="0" class="st1" d="
			M39.7,6.4l-0.2,0.1l2.7,3.1l0.6,0.3C42.8,10,39.7,6.4,39.7,6.4z M46.4,14.2v0.4l3.9,4.5l0.2-0.1C50.5,19,46.4,14.2,46.4,14.2z"/>
		<path id="path117_00000079451179068963405020000016992001680040464273_" inkscape:connector-curvature="0" class="st1" d="
			M39.5,6.5l-0.2,0.1l2.4,2.8l0.6,0.4C42.3,9.8,39.5,6.5,39.5,6.5z M44.4,12.6l0.5,0.6V13c0,0,0-0.1-0.1-0.1L44.4,12.6z M46.4,14.5
			v0.4l3.7,4.3l0.2-0.1L46.4,14.5z"/>
		<path id="path119_00000012442364758546529260000018322459477949954982_" inkscape:connector-curvature="0" class="st1" d="
			M39.4,6.6l-0.2,0.1l2,2.4l0.6,0.4C41.8,9.5,39.4,6.6,39.4,6.6z M44,12.3l1,1.1v-0.4l-0.4-0.4C44.6,12.7,44,12.3,44,12.3z
			 M46.4,14.8v0.4l3.6,4.2l0.2-0.1C50.1,19.2,46.4,14.8,46.4,14.8z"/>
		<path id="path121_00000132071230378311310070000010460280344052955536_" inkscape:connector-curvature="0" class="st1" d="
			M39.2,6.7L39,6.8l1.7,2l0.6,0.3C41.3,9.2,39.2,6.7,39.2,6.7z M43.5,12.1l1.5,1.7v-0.4l-0.8-1C44.1,12.4,43.5,12.1,43.5,12.1z
			 M46.4,15.1v0.4l3.4,4l0.2-0.1C50,19.3,46.4,15.1,46.4,15.1z"/>
		<path id="path123_00000042721009376551140220000013674257354351272122_" inkscape:connector-curvature="0" class="st1" d="M39,6.8
			l-0.2,0.1l1.4,1.7l0.6,0.3C40.8,8.9,39,6.8,39,6.8z M43,11.8l1.9,2.3v-0.4l-1.3-1.6C43.6,12.1,43,11.8,43,11.8z M46.4,15.4v0.4
			l3.2,3.8l0.2-0.1L46.4,15.4z"/>
		<path id="path125_00000065765007954911048620000015815773462975250094_" inkscape:connector-curvature="0" class="st1" d="
			M38.8,6.9L38.6,7l1.1,1.3l0.6,0.3C40.4,8.6,38.8,6.9,38.8,6.9z M42.5,11.5l2.4,2.8V14l-1.8-2.1L42.5,11.5z M46.4,15.7V16l3.1,3.6
			l0.2-0.1C49.7,19.5,46.4,15.7,46.4,15.7z"/>
		<path id="path127_00000111155113321176469670000016528753838316905353_" inkscape:connector-curvature="0" class="st1" d="M38.7,7
			l-0.2,0.1L39.3,8l0.6,0.4L38.7,7z M42,11.2l2.9,3.4v-0.4l-2.3-2.7L42,11.2z M46.4,15.9v0.4l2.9,3.4l0.2-0.1L46.4,15.9z"/>
		<path id="path129_00000049922897087606861270000012116148499606483609_" inkscape:connector-curvature="0" class="st1" d="
			M38.5,7.1l-0.2,0.1l0.5,0.5l0.6,0.4C39.4,8.1,38.5,7.1,38.5,7.1z M41.5,11l3.4,3.9v-0.4l-2.8-3.3L41.5,11z M46.4,16.2v0.4l2.7,3.2
			l0.2-0.1C49.3,19.7,46.4,16.2,46.4,16.2z"/>
		<path id="path131_00000058577430934104004340000009919441148889617316_" inkscape:connector-curvature="0" class="st1" d="
			M38.3,7.1l-0.2,0.1l0.2,0.2l0.6,0.3C38.9,7.8,38.3,7.1,38.3,7.1z M41,10.7l3.9,4.5v-0.4L41.7,11C41.7,11,41,10.7,41,10.7z
			 M46.4,16.5v0.4l2.6,3l0.2-0.1C49.1,19.8,46.4,16.5,46.4,16.5z"/>
		<path id="path133_00000145046903771266263900000000627500366359602346_" inkscape:connector-curvature="0" class="st1" d="
			M38.2,7.2L38,7.3l0.4,0.2C38.4,7.5,38.2,7.2,38.2,7.2z M40.6,10.4l4.4,5.1v-0.4l-3.8-4.4C41.2,10.8,40.6,10.4,40.6,10.4z
			 M46.4,16.8v0.4l2.4,2.8l0.2-0.1L46.4,16.8z"/>
		<path id="path135_00000168800628588162875920000012717898578730191271_" inkscape:connector-curvature="0" class="st1" d="
			M40.1,10.1l4.9,5.7v-0.4l-4.2-4.9L40.1,10.1z M46.4,17.1v0.4l2.2,2.6l0.2-0.1L46.4,17.1z"/>
		<path id="path137_00000000920049241594284650000012846340398508696732_" inkscape:connector-curvature="0" class="st1" d="
			M39.6,9.8l5.3,6.2v-0.4l-4.7-5.5L39.6,9.8z M46.4,17.4v0.4l2.1,2.4l0.2-0.1L46.4,17.4z"/>
		<path id="path139_00000035515469182675528740000008839682309369971870_" inkscape:connector-curvature="0" class="st1" d="
			M39.1,9.6l5.8,6.8V16l-5.2-6.1C39.7,9.9,39.1,9.6,39.1,9.6z M46.4,17.7V18l1.9,2.2l0.2-0.1C48.5,20.2,46.4,17.7,46.4,17.7z"/>
		<path id="path141_00000062871975538889419540000005880933221555297936_" inkscape:connector-curvature="0" class="st1" d="
			M38.6,9.3l6.3,7.4v-0.4l-5.7-6.6L38.6,9.3z M46.4,18v0.4l1.7,2l0.2-0.1L46.4,18z"/>
		<path id="path143_00000052804477067481829960000016701252955554585263_" inkscape:connector-curvature="0" class="st1" d="M38.1,9
			l6.8,7.9v-0.4l-6.2-7.2L38.1,9z M46.4,18.3v0.4l1.6,1.8l0.2-0.1L46.4,18.3z"/>
		<path id="path145_00000045585193505139736770000017055058954308349571_" inkscape:connector-curvature="0" class="st1" d="
			M37.6,8.7l7.3,8.5v-0.4l-6.7-7.8C38.3,9.1,37.6,8.7,37.6,8.7z M46.4,18.5v0.4l1.4,1.6l0.2-0.1C48,20.4,46.4,18.5,46.4,18.5z"/>
		<path id="path147_00000127745054362932298590000004174007524968012457_" inkscape:connector-curvature="0" class="st1" d="
			M37.6,8.7V9l7.3,8.5v-0.4l-7.2-8.3L37.6,8.7z M46.4,18.8v0.2c0,0,0,0.1,0,0.1l1.3,1.5l0.2-0.1C47.8,20.5,46.4,18.8,46.4,18.8z"/>
		<path id="path149_00000183227713638580717080000001990526721798664862_" inkscape:connector-curvature="0" class="st1" d="
			M37.6,8.9v0.4l7.3,8.5v-0.4L37.6,8.9z M46.4,19.1c0,0.1-0.1,0.2-0.1,0.2l0,0l1.2,1.4l0.2-0.1C47.7,20.6,46.4,19.1,46.4,19.1z"/>
		<path id="path151_00000096046667208721587130000016276434901048225723_" inkscape:connector-curvature="0" class="st1" d="
			M37.6,9.2v0.4l7.3,8.5v-0.4L37.6,9.2z M46.3,19.3C46.3,19.3,46.3,19.3,46.3,19.3L46,19.4l1.2,1.4l0.2-0.1L46.3,19.3L46.3,19.3z"/>
		<path id="path153_00000017510899319672028130000012982936214133436803_" inkscape:connector-curvature="0" class="st1" d="
			M37.6,9.5v0.4l7.3,8.5V18L37.6,9.5z M46.1,19.4l-0.2,0.1l1.3,1.4l0.2-0.1L46.1,19.4z"/>
		<path id="path155_00000121983623112262383880000004168629890617634489_" inkscape:connector-curvature="0" class="st1" d="
			M37.6,9.8v0.4l7.3,8.5v-0.4L37.6,9.8z M45.9,19.5l-0.1,0.1c0,0-0.1,0-0.1,0L47,21l0.2-0.1L45.9,19.5L45.9,19.5z"/>
		<path id="path157_00000065770506219919558540000003441034727558138786_" inkscape:connector-curvature="0" class="st1" d="
			M37.6,10.1v0.4l7.3,8.5v-0.4L37.6,10.1z M45.4,19.5l1.4,1.7L47,21l-1.3-1.4c0,0-0.1,0-0.1,0h0c-0.1,0-0.1,0-0.1,0L45.4,19.5
			L45.4,19.5z"/>
		<path id="path159_00000043444461213118975190000009774368989208370364_" inkscape:connector-curvature="0" class="st1" d="
			M37.6,10.4v0.4l9,10.5l0.2-0.1l-1.4-1.6l-0.4-0.2c-0.1,0-0.1-0.1-0.1-0.2v-0.2L37.6,10.4z"/>
		<path id="path161_00000101087442588434755440000002668909973325710986_" inkscape:connector-curvature="0" class="st1" d="
			M37.6,10.7V11l8.8,10.3l0.2-0.1L37.6,10.7z"/>
		<path id="path163_00000103949084894847636720000009980714194634061736_" inkscape:connector-curvature="0" class="st1" d="
			M37.6,10.9v0.4l8.7,10.1l0.2-0.1L37.6,10.9z"/>
		<path id="path165_00000183228889064727877180000016422841893995510674_" inkscape:connector-curvature="0" class="st1" d="
			M37.6,11.2v0.4l8.5,9.9l0.2-0.1L37.6,11.2z"/>
		<path id="path167_00000038374071289825746080000011835689425701309827_" inkscape:connector-curvature="0" class="st1" d="
			M37.6,11.5v0.4l8.3,9.7l0.2-0.1L37.6,11.5z"/>
		<path id="path169_00000160908131886130308110000008084301382314311813_" inkscape:connector-curvature="0" class="st1" d="
			M37.6,11.8v0.4l8.2,9.5c0.1,0,0.1,0,0.2-0.1l0.1,0L37.6,11.8z"/>
		<path id="path171_00000067940735781428422480000010604880453463910277_" inkscape:connector-curvature="0" class="st1" d="
			M37.6,12.1v0.4l7.9,9.2c0,0,0.1,0,0.1,0c0.1,0,0.1,0,0.2,0L37.6,12.1z"/>
		<path id="path173_00000133520386032523372280000000924558615328343228_" inkscape:connector-curvature="0" class="st1" d="
			M37.6,12.4v0.4l7.5,8.7l0.3,0.2c0.1,0,0.2,0.1,0.2,0.1L37.6,12.4z"/>
		<path id="path175_00000170979090972664784050000007218586714909770134_" inkscape:connector-curvature="0" class="st1" d="
			M37.6,12.7V13l7,8.2l0.6,0.4L37.6,12.7z"/>
		<path id="path177_00000174579608421297119210000017673220600595285690_" inkscape:connector-curvature="0" class="st1" d="
			M37.6,13v0.4l6.5,7.6l0.6,0.4L37.6,13z"/>
		<path id="path179_00000054960211990275247370000000422758962572554675_" inkscape:connector-curvature="0" class="st1" d="
			M37.6,13.3v0.4l6,7l0.6,0.4L37.6,13.3z"/>
		<path id="path181_00000025442893380311652890000001747666909901983672_" inkscape:connector-curvature="0" class="st1" d="
			M37.6,13.5v0.4l5.5,6.4l0.6,0.4L37.6,13.5z"/>
		<path id="path183_00000147219539095966564680000013707040148254728597_" inkscape:connector-curvature="0" class="st1" d="
			M37.6,13.8v0.4l5,5.8l0.6,0.4L37.6,13.8z"/>
		<path id="path185_00000113318337725843330840000004950532266192423349_" inkscape:connector-curvature="0" class="st1" d="
			M37.6,14.1v0.4l4.5,5.3l0.6,0.4L37.6,14.1z"/>
		<path id="path187_00000083785319640279127650000008341747044322214026_" inkscape:connector-curvature="0" class="st1" d="
			M37.6,14.4v0.4l4,4.7l0.6,0.4C42.3,19.8,37.6,14.4,37.6,14.4z"/>
		<path id="path189_00000026855179794545871440000017068693820529829265_" inkscape:connector-curvature="0" class="st1" d="
			M37.6,14.7v0.4l3.6,4.1l0.6,0.4L37.6,14.7z"/>
		<path id="path191_00000114771886560018284610000017106796248065394318_" inkscape:connector-curvature="0" class="st1" d="
			M37.6,15v0.4l3.1,3.6l0.6,0.4L37.6,15z"/>
		<path id="path193_00000132772763271372935450000006968322118457930136_" inkscape:connector-curvature="0" class="st1" d="
			M37.6,15.3v0.4l2.6,3l0.6,0.4L37.6,15.3z"/>
		<path id="path195_00000105423869701067116710000000178549307866571706_" inkscape:connector-curvature="0" class="st1" d="
			M37.6,15.6v0.4l2.1,2.4l0.6,0.4L37.6,15.6z"/>
		<path id="path197_00000017504312101321752130000006089203094538894497_" inkscape:connector-curvature="0" class="st1" d="
			M37.6,15.8v0.4l1.6,1.9l0.6,0.3L37.6,15.8z"/>
		<path id="path199_00000087414305019660158500000004890510257354581936_" inkscape:connector-curvature="0" class="st1" d="
			M37.6,16.1v0.4l1.1,1.3l0.6,0.4L37.6,16.1z"/>
		<path id="path201_00000096778390422294343890000015691198589022428340_" inkscape:connector-curvature="0" class="st1" d="
			M37.6,16.4v0.4l0.6,0.7l0.6,0.4L37.6,16.4z"/>
		<path id="path203_00000015325106444839323660000003399671448412529073_" inkscape:connector-curvature="0" class="st1" d="
			M37.6,16.7L37.6,16.7c0,0.3,0.1,0.5,0.3,0.6l0.5,0.2C38.4,17.6,37.6,16.7,37.6,16.7z"/>
		<path id="path205_00000047060798058325951240000017115306106808713135_" inkscape:connector-curvature="0" class="st1" d="
			M37.7,17.1C37.8,17.2,37.8,17.2,37.7,17.1L37.7,17.1z"/>
	</g>
</g>
</svg>
