<svg fill="none" height="126" viewBox="0 0 546 126" width="546" xmlns="http://www.w3.org/2000/svg" xmlns:xlink="http://www.w3.org/1999/xlink"><clipPath id="a"><path d="m0 0h546v126h-546z"/></clipPath><g clip-path="url(#a)"><path d="m531.695 51.9813h14.305v-11.2045h-14.305c-.951 0-1.437-.4849-1.437-1.3133v-11.0935h-12.749v47.6874c0 12.5179 5.485 19.4387 19.793 19.4387h8.698v-11.2147h-6.8c-7.507 0-8.942-3.3341-8.942-10.0123v-20.8633c.011-.9496.486-1.4245 1.437-1.4245zm-33.13 11.2044-4.769-2.3844c-5.244-2.6266-6.556-3.6976-6.556-6.082 0-2.6168 2.02-4.2938 5.718-4.2938 3.224 0 7.031 1.1921 11.447 3.6976l4.889-9.7698c-5.96-3.9402-11.922-5.0112-16.932-5.0112-10.851 0-17.762 6.7996-17.762 15.7409 0 7.6279 3.82 12.3968 13.711 17.0441l4.525 2.142c4.77 2.2631 6.204 3.9402 6.204 6.0822 0 3.2229-3.102 4.7687-7.991 4.7687-4.405 0-8.7-1.3136-13.225-4.0516l-5.011 10.255c6.203 3.9301 13.112 5.2435 18.831 5.2435 11.921 0 20.267-5.8397 20.267-16.8118 0-7.2744-3.808-11.8005-13.346-16.5694zm-56.75-23.8436c-16.922 0-28.613 11.6793-28.613 28.6125 0 16.9228 11.691 28.6123 28.613 28.6123 16.934 0 28.612-11.6895 28.612-28.6123-.01-16.9332-11.688-28.6125-28.612-28.6125zm0 45.7779c-9.417 0-15.62-6.7996-15.62-17.1654 0-10.3761 6.203-17.1654 15.62-17.1654 9.416 0 15.62 6.7893 15.62 17.1654-.011 10.3658-6.214 17.1654-15.62 17.1654zm-62.469-45.7779c-16.691 0-27.653 10.7297-27.653 29.2085v51.8604h12.752v-28.734c0-.7173.363-1.071.837-1.071.355 0 .597.1212 1.071.5962 3.102 2.9803 8.579 5.3647 14.308 5.3647 16.094 0 27.772-11.6895 27.772-28.6123-.008-16.9332-11.688-28.6125-29.087-28.6125zm.466 45.7779c-9.416 0-15.619-6.7996-15.619-17.1654 0-10.3761 6.203-17.1654 15.619-17.1654 9.417 0 15.62 6.7893 15.62 17.1654 0 10.3658-6.203 17.1654-15.62 17.1654zm-97.144-21.9343-4.769-2.3844c-5.252-2.6266-6.556-3.6976-6.556-6.082 0-2.6168 2.02-4.2938 5.718-4.2938 3.224 0 7.033 1.1921 11.448 3.6976l4.89-9.7698c-5.961-3.9402-11.923-5.0112-16.934-5.0112-10.851 0-17.762 6.7996-17.762 15.7409 0 7.6279 3.81 12.3968 13.711 17.0441l4.526 2.142c4.769 2.2631 6.203 3.9402 6.203 6.0822 0 3.2229-3.102 4.7687-7.99 4.7687-4.406 0-8.701-1.3136-13.237-4.0516l-5 10.255c6.193 3.9301 13.115 5.2435 18.833 5.2435 11.922 0 20.267-5.8397 20.267-16.8118-.01-7.2744-3.809-11.8005-13.348-16.5694zm-43.877-22.4089v3.4553c0 .7174-.355 1.071-.829 1.071-.364 0-.597-.1213-1.071-.5962-3.102-2.9805-8.587-5.3648-14.306-5.3648-16.095 0-27.784 11.6793-27.784 28.6125 0 16.9228 11.689 28.6123 27.784 28.6123 5.719 0 11.204-2.3844 14.306-5.3647.474-.475.707-.5962 1.071-.5962.474 0 .829.3537.829 1.071v3.4554h12.76v-54.3556zm-15.378 44.3432c-9.417 0-15.619-6.7996-15.619-17.1654 0-10.3761 6.202-17.1654 15.619-17.1654 9.416 0 15.62 6.7893 15.62 17.1654 0 10.3658-6.214 17.1654-15.62 17.1654zm-75.34-12.6393h41.484c.243-1.3133.475-2.6166.475-4.8798 0-16.2157-10.73-28.2588-27.42-28.2588-16.095 0-28.845 11.6793-28.845 28.7336 0 16.8017 11.558 28.4912 28.613 28.4912 10.254 0 18.832-4.1725 25.146-13.1139l-9.052-7.2744c-5.132 6.7994-10.255 8.9414-15.741 8.9414-10.487 0-15.256-7.3855-15.852-11.0834-.252-1.1922.121-1.5559 1.192-1.5559zm-.596-11.9217c1.789-5.9611 7.871-10.1335 14.66-10.1335 6.678 0 12.639 4.1724 14.427 10.1335.354 1.1922.233 2.0307-.838 2.0307h-27.42c-1.081 0-1.203-.8385-.829-2.0307z" fill="#061340"/><path d="m352.17 40.7767-18.955 50.1829c-5.485 14.6704-10.617 21.2264-28.501 29.6834l-5.355-10.73c10.103-5.253 15.217-9.002 18.258-14.3969l-21.481-54.7394h13.711l13.589 36.8363c.352.8287.716 1.071 1.192 1.071.475 0 .95-.2423 1.191-1.071l12.873-36.8363z" fill="#061340"/><path d="m55.5477 74.865c-.9498 0-1.6669-.1212-2.4956-.596l-25.2783-14.6599v12.8715l25.2783 14.67c.8287.4748 1.5458.5962 2.4956.5962.8386 0 1.7882-.2425 2.5055-.5962l53.0528-30.7644v12.8817l-53.0528 30.6331c-.7173.475-1.5458.717-2.5055.717-.8284 0-1.6669-.242-2.4956-.717l-25.2783-14.5385v12.7501l25.2783 14.6704c.8287.474 1.6672.596 2.4956.596.9597 0 1.9096-.243 2.5055-.596l53.0528-30.6436v8.1028c0 2.8693-1.546 5.6072-4.052 7.042l-47.4549 27.4198c-1.1821.708-2.6166 1.071-4.0514 1.071-1.4246 0-2.7379-.363-4.0515-1.071l-47.4448-27.4198c-2.50559-1.4348-4.0514-4.1727-4.0514-7.042v-54.7192c0-2.9804 1.54581-5.7183 4.0514-7.1531l47.4448-27.29896c1.3136-.707226 2.6269-1.07094 4.0515-1.07094 1.4348 0 2.8693.363714 4.0514 1.07094l47.4549 27.29896c2.506 1.4348 4.052 4.1727 4.052 7.1531v8.1129l-53.0528 30.6331c-.7173.3637-1.6669.596-2.5055.596z" fill="#0275d8"/></g></svg>