<svg xmlns="http://www.w3.org/2000/svg" width="32" height="32" fill="none" viewBox="0 0 32 32"><path fill="#3880CE" fill-rule="evenodd" d="M32 29.5C32 30.8809 30.8809 32 29.5 32H2.5C1.11913 32 0 30.8809 0 29.5V2.5C0 1.11913 1.11913 0 2.5 0H29.5C30.8809 0 32 1.11913 32 2.5V29.5Z" clip-rule="evenodd"/><path fill="#3880CE" d="M0 9H32V24H0V9ZM24.7117 13.9344C24.4606 13.9798 24.248 14.1685 24.1921 14.4024C24.1648 14.542 24.1763 14.6925 24.2504 14.8188C24.3374 14.9844 24.5139 15.0964 24.7027 15.139C25.0097 15.2106 25.361 15.0519 25.4822 14.7765C25.5348 14.6673 25.5307 14.5443 25.521 14.4276C25.4895 14.2211 25.3216 14.0455 25.1178 13.9685C24.9908 13.9164 24.8466 13.9151 24.7117 13.9344ZM7.13439 13.9555C7.12028 14.067 7.12834 14.1793 7.12651 14.2911C7.13036 14.4423 7.11771 14.5942 7.13494 14.7449C7.3008 14.7479 7.46667 14.7418 7.63253 14.7471C7.63858 14.8803 7.63381 15.0139 7.63528 15.1473C7.634 16.1608 7.63766 17.1743 7.63345 18.1878C7.46795 18.194 7.30245 18.188 7.13714 18.1904C7.11863 18.2997 7.12889 18.4104 7.12669 18.5205C7.13109 18.6767 7.11606 18.8337 7.13659 18.9892C8.67446 18.9884 10.2127 18.9921 11.7506 18.9873C11.7506 18.543 11.7542 18.0985 11.7487 17.6541C11.4416 17.656 11.1342 17.6502 10.8272 17.657C10.8243 17.8342 10.8309 18.0116 10.8243 18.1889C10.0917 18.1904 9.35881 18.193 8.62625 18.1875C8.62406 17.7671 8.62754 17.3467 8.6246 16.9264C8.62332 16.8959 8.63175 16.8666 8.63927 16.8373C9.30218 16.8339 9.96527 16.8413 10.628 16.8337C10.6313 16.7909 10.6342 16.7481 10.6328 16.7053C10.6196 16.4988 10.632 16.2916 10.6251 16.0849C9.95867 16.0779 9.2921 16.0866 8.62571 16.0807C8.62607 15.6361 8.62479 15.1918 8.62625 14.7474C8.91528 14.7423 9.20449 14.7467 9.4937 14.7454C9.94089 14.7473 10.3883 14.7414 10.8355 14.7481C10.8411 14.9247 10.8333 15.1012 10.8389 15.2777C11.1388 15.2818 11.439 15.2801 11.739 15.2786C11.7434 15.1092 11.7396 14.9399 11.7408 14.7705C11.7377 14.4983 11.7473 14.2259 11.7361 13.9539C10.2022 13.9565 8.66822 13.9534 7.13439 13.9555ZM12.1351 13.9557C12.2197 14.1724 12.3182 14.3842 12.4063 14.5997C12.9814 15.9515 13.5566 17.3036 14.1306 18.6558C14.1832 18.7736 14.2239 18.8967 14.2906 19.0087C14.4821 19.0072 14.6738 19.0122 14.8653 19.0063C14.935 18.8743 14.9839 18.7341 15.0442 18.5983C15.6538 17.1587 16.2636 15.7192 16.8726 14.2793C16.9164 14.1712 16.9703 14.0668 17.006 13.956C16.8207 13.9539 16.6356 13.9522 16.4505 13.957C16.0605 14.8959 15.6677 15.8339 15.2795 16.7735C15.1769 17.013 15.084 17.2562 14.9762 17.4938C14.9654 17.4762 14.9542 17.4589 14.9452 17.4406C14.5419 16.456 14.1335 15.4731 13.7318 14.488C13.6596 14.3209 13.5976 14.15 13.5227 13.9842C13.5133 13.9467 13.4658 13.9562 13.4354 13.9538C13.002 13.957 12.5685 13.9527 12.1351 13.9557ZM17.4061 13.9546C17.3962 14.3861 17.4048 14.8182 17.4021 15.25C17.403 16.4923 17.3999 17.7346 17.4035 18.9767C17.6645 18.9805 17.9257 18.9817 18.1867 18.9762C18.1911 18.314 18.1826 17.6519 18.1907 16.9899C19.031 16.987 19.8713 16.9904 20.7115 16.9884C20.7392 16.9902 20.7725 16.9844 20.7938 17.0062C20.861 17.0627 20.9127 17.1329 20.9732 17.1955C21.5058 17.7824 22.0397 18.3685 22.5715 18.9557C22.6093 18.9995 22.6729 18.9885 22.726 18.9901C22.9999 18.9872 23.2739 18.9928 23.5477 18.9872C23.5163 18.9276 23.4647 18.8817 23.4188 18.8324C23.0644 18.4503 22.7108 18.0678 22.356 17.6861C22.1299 17.4366 21.8918 17.1962 21.6755 16.9394C21.7972 16.9027 21.9273 16.8966 22.0472 16.8527C22.2209 16.7971 22.3864 16.7158 22.5276 16.6053C22.8287 16.3824 23.0076 16.039 23.0618 15.6878C23.1107 15.344 23.0768 14.9769 22.895 14.6687C22.7411 14.4005 22.4662 14.2048 22.1641 14.0998C21.8174 13.9815 21.4435 13.9517 21.0767 13.9551C19.8532 13.9543 18.6296 13.9555 17.4061 13.9546ZM23.9069 15.619C23.9111 15.667 23.884 15.7318 23.9355 15.7637C24.064 15.8514 24.1996 15.9442 24.27 16.082C24.32 16.1741 24.3187 16.2798 24.3244 16.3803C24.3249 16.9796 24.3246 17.5788 24.3246 18.1781C24.3246 18.3264 24.3341 18.4877 24.2427 18.6173C24.1673 18.7334 24.0306 18.789 23.9144 18.8608C23.8966 18.9012 23.9076 18.9464 23.9076 18.9889C24.5566 18.9901 25.2056 18.9894 25.8546 18.9892C25.8604 18.9464 25.8771 18.8978 25.8483 18.8591C25.7794 18.8123 25.6995 18.7817 25.6341 18.7303C25.515 18.645 25.4514 18.5051 25.447 18.367C25.4442 17.4515 25.4493 16.536 25.4444 15.6204C24.932 15.6158 24.4193 15.6185 23.9069 15.619Z"/><path fill="#3880CE" d="M18.1918 14.5604C19.0739 14.5589 19.9562 14.5602 20.8385 14.5597C20.9747 14.5616 21.1116 14.5532 21.2472 14.5695C21.4384 14.5745 21.6323 14.6017 21.8086 14.6739C22.0243 14.7635 22.1856 14.9536 22.2402 15.1671C22.2748 15.3099 22.2851 15.4584 22.2603 15.6034C22.2321 15.825 22.128 16.0493 21.9319 16.1849C21.7136 16.3346 21.4325 16.3724 21.1682 16.3738C20.1763 16.3745 19.1844 16.3741 18.1925 16.3739C18.1808 16.1366 18.1909 15.8986 18.1876 15.6609C18.1903 15.2941 18.1821 14.927 18.1918 14.5604Z"/><path fill="#FEFFFE" d="M24.7117 13.9344C24.8465 13.9151 24.9908 13.9164 25.1178 13.9685C25.3216 14.0456 25.4895 14.2211 25.521 14.4276C25.5307 14.5444 25.5347 14.6673 25.4821 14.7765C25.361 15.0519 25.0097 15.2106 24.7027 15.139C24.5139 15.0964 24.3374 14.9844 24.2504 14.8188C24.1763 14.6925 24.1648 14.542 24.1921 14.4024C24.248 14.1685 24.4606 13.9798 24.7117 13.9344Z"/><path fill="#FEFFFE" d="M7.13439 13.9555C8.66823 13.9534 10.2022 13.9565 11.7361 13.9539C11.7473 14.2258 11.7377 14.4983 11.7408 14.7705C11.7396 14.9399 11.7434 15.1092 11.739 15.2786C11.439 15.2801 11.1388 15.2818 10.8389 15.2777C10.8333 15.1012 10.8411 14.9246 10.8355 14.7481C10.3883 14.7414 9.94089 14.7472 9.4937 14.7454C9.20449 14.7467 8.91528 14.7423 8.62626 14.7474C8.62479 15.1918 8.62607 15.6361 8.62571 16.0806C9.2921 16.0866 9.95867 16.0779 10.6251 16.0849C10.632 16.2916 10.6196 16.4988 10.6328 16.7053C10.6342 16.7481 10.6313 16.7909 10.628 16.8337C9.96527 16.8412 9.30218 16.8339 8.63927 16.8373C8.63175 16.8666 8.62332 16.8959 8.62461 16.9264C8.62754 17.3467 8.62406 17.7671 8.62626 18.1875C9.35881 18.193 10.0917 18.1904 10.8243 18.1889C10.8309 18.0116 10.8243 17.8342 10.8272 17.657C11.1342 17.6502 11.4416 17.656 11.7487 17.6541C11.7542 18.0984 11.7506 18.543 11.7506 18.9873C10.2127 18.9921 8.67446 18.9883 7.13659 18.9892C7.11606 18.8337 7.13109 18.6767 7.12669 18.5205C7.12889 18.4104 7.11863 18.2996 7.13714 18.1904C7.30245 18.188 7.46795 18.194 7.63345 18.1878C7.63766 17.1743 7.634 16.1608 7.63528 15.1472C7.63382 15.0139 7.63858 14.8803 7.63253 14.7471C7.46667 14.7418 7.3008 14.7479 7.13494 14.7448C7.11771 14.5942 7.13036 14.4423 7.12651 14.2911C7.12834 14.1793 7.12028 14.0669 7.13439 13.9555Z"/><path fill="#FEFFFE" d="M12.1351 13.9557C12.5685 13.9528 13.002 13.957 13.4354 13.9538C13.4658 13.9562 13.5133 13.9468 13.5227 13.9843C13.5976 14.15 13.6596 14.3209 13.7318 14.488C14.1335 15.4731 14.5419 16.456 14.9452 17.4406C14.9542 17.4589 14.9654 17.4762 14.9762 17.4939C15.084 17.2562 15.1769 17.013 15.2795 16.7735C15.6677 15.8339 16.0605 14.8959 16.4505 13.957C16.6356 13.9523 16.8207 13.954 17.006 13.956C16.9703 14.0668 16.9164 14.1713 16.8726 14.2793C16.2635 15.7192 15.6538 17.1588 15.0442 18.5983C14.9839 18.7341 14.935 18.8743 14.8653 19.0064C14.6738 19.0122 14.4821 19.0072 14.2906 19.0088C14.2239 18.8968 14.1832 18.7737 14.1306 18.6559C13.5566 17.3036 12.9814 15.9516 12.4063 14.5997C12.3182 14.3843 12.2197 14.1725 12.1351 13.9557Z"/><path fill="#FEFFFE" d="M17.4061 13.9547C18.6297 13.9555 19.8532 13.9543 21.0767 13.9552C21.4435 13.9517 21.8174 13.9815 22.1641 14.0999C22.4662 14.2048 22.7411 14.4005 22.895 14.6687C23.0768 14.9769 23.1107 15.344 23.0618 15.6879C23.0075 16.0391 22.8287 16.3824 22.5276 16.6053C22.3864 16.7158 22.2209 16.7971 22.0472 16.8528C21.9273 16.8966 21.7972 16.9028 21.6755 16.9394C21.8918 17.1963 22.1298 17.4367 22.356 17.6862C22.7108 18.0678 23.0644 18.4504 23.4188 18.8324C23.4646 18.8817 23.5163 18.9276 23.5477 18.9872C23.2738 18.9928 22.9998 18.9872 22.726 18.9901C22.6729 18.9886 22.6093 18.9995 22.5715 18.9557C22.0397 18.3685 21.5058 17.7824 20.9732 17.1956C20.9127 17.1329 20.861 17.0627 20.7938 17.0062C20.7725 16.9844 20.7391 16.9903 20.7115 16.9884C19.8713 16.9904 19.031 16.987 18.1907 16.9899C18.1826 17.6519 18.1911 18.3141 18.1867 18.9762C17.9257 18.9817 17.6645 18.9805 17.4035 18.9767C17.3999 17.7346 17.403 16.4923 17.4021 15.25C17.4048 14.8182 17.3962 14.3862 17.4061 13.9547ZM18.1918 14.5605C18.1821 14.9271 18.1903 15.2942 18.1876 15.661C18.1909 15.8987 18.1808 16.1367 18.1925 16.374C19.1844 16.3742 20.1763 16.3745 21.1682 16.3738C21.4325 16.3725 21.7136 16.3346 21.9319 16.185C22.128 16.0493 22.2321 15.825 22.2603 15.6035C22.2851 15.4584 22.2748 15.31 22.2402 15.1672C22.1856 14.9536 22.0243 14.7636 21.8086 14.674C21.6323 14.6017 21.4383 14.5745 21.2472 14.5695C21.1116 14.5533 20.9747 14.5617 20.8385 14.5598C19.9562 14.5603 19.0739 14.5589 18.1918 14.5605Z"/><path fill="#FEFFFE" d="M23.9069 15.619C24.4194 15.6185 24.932 15.6158 25.4444 15.6204C25.4494 16.536 25.4442 17.4515 25.447 18.367C25.4514 18.5051 25.515 18.645 25.6341 18.7303C25.6995 18.7817 25.7794 18.8123 25.8484 18.8591C25.8771 18.8978 25.8605 18.9464 25.8546 18.9892C25.2056 18.9894 24.5566 18.9901 23.9076 18.9889C23.9076 18.9464 23.8966 18.9012 23.9144 18.8608C24.0306 18.789 24.1673 18.7334 24.2427 18.6173C24.3341 18.4877 24.3246 18.3264 24.3246 18.1781C24.3246 17.5788 24.325 16.9796 24.3244 16.3803C24.3187 16.2798 24.32 16.1741 24.27 16.082C24.1996 15.9442 24.064 15.8514 23.9355 15.7637C23.884 15.7319 23.9111 15.667 23.9069 15.619Z"/></svg>