<?xml version="1.0" encoding="UTF-8"?>
<svg
  xmlns="http://www.w3.org/2000/svg"
  xmlns:xlink="http://www.w3.org/1999/xlink"
  width="512"
  height="512"
  version="1.1"
  viewBox="0 0 512 512">
  <g id="gls-icon" fill="none" fill-rule="evenodd" stroke="none" stroke-width="1"
    transform="scale(16)">
    <path id="background" fill="#061AB1"
      d="M32,29.5 C32,30.880875 30.880875,32 29.5,32 L2.5,32 C1.119125,32 0,30.880875 0,29.5 L0,2.5 C0,1.119125 1.119125,0 2.5,0 L29.5,0 C30.880875,0 32,1.119125 32,2.5 L32,29.5 Z" />
    <g id="logo" fill-rule="nonzero" transform="translate(1.627987, 7.862818)">
      <rect id="rectangle" width="28.744026" height="16.2743637" x="0" y="0" fill="#061AB1" />
      <path id="part" fill="#FFFFFF"
        d="M3.23621531,13.604373 L3.23621531,11.8695151 L3.83297025,11.8695151 C4.03594043,11.8695151 4.19537661,11.9178548 4.31156149,12.0170784 C4.42774637,12.1163019 4.48315327,12.2536884 4.48315327,12.4278244 C4.48315327,12.8119978 4.22194931,13.0367349 3.77982486,13.0367349 L3.53840907,13.0367349 L3.53840907,13.604373 L3.23621531,13.604373 Z M3.53840907,12.7876866 L3.74618495,12.7876866 C4.03848462,12.7876866 4.18095951,12.6765901 4.18095951,12.4447857 C4.18095951,12.2248542 4.03961538,12.1185634 3.75099065,12.1185634 L3.53840907,12.1185634 L3.53840907,12.7876866 Z" />
      <path id="part" fill="#FFFFFF"
        d="M15.2346362,13.604373 L15.2346362,11.8695151 L15.8313912,11.8695151 C16.0343614,11.8695151 16.1937975,11.9178548 16.3099824,12.0170784 C16.4261673,12.1163019 16.4812915,12.2536884 16.4812915,12.4278244 C16.4812915,12.8119978 16.2203702,13.0367349 15.7782458,13.0367349 L15.5371127,13.0367349 L15.5371127,13.604373 L15.2346362,13.604373 Z M15.5365473,12.7876866 L15.7443232,12.7876866 C16.0369055,12.7876866 16.1793804,12.6765901 16.1793804,12.4447857 C16.1793804,12.2248542 16.0380363,12.1185634 15.7494116,12.1185634 L15.5371127,12.1185634 L15.5365473,12.7876866 Z" />
      <path id="part" fill="#FFFFFF"
        d="M5.87002192,13.6069172 C5.81342724,13.6175537 5.75601201,13.623229 5.69843014,13.6238785 C5.58252795,13.6238785 5.50761556,13.5778003 5.47227953,13.4884708 C5.35330182,13.5786036 5.20852626,13.6281503 5.05927197,13.6298149 C4.7958065,13.6298149 4.62902042,13.4847958 4.62902042,13.2527088 C4.62902042,12.989526 4.82972909,12.8348955 5.17997986,12.8348955 C5.26233929,12.8355162 5.34461376,12.8403282 5.42648403,12.8493126 L5.42648403,12.7187106 C5.42648403,12.5810414 5.35157164,12.5256345 5.16556275,12.5256345 C5.09999394,12.5275738 5.03463459,12.5339964 4.96994247,12.5448573 C4.88513599,12.5592745 4.80796209,12.5762357 4.7330497,12.5954586 L4.7330497,12.3599792 C4.8903184,12.3148899 5.05262552,12.2897223 5.21616395,12.2850668 C5.54493041,12.2850668 5.71171649,12.4179303 5.71171649,12.6808304 L5.71171649,13.2928505 C5.71171649,13.3700244 5.73093929,13.3917914 5.79850179,13.3917914 C5.81546309,13.3917914 5.84457998,13.3895299 5.87115268,13.3869857 L5.87002192,13.6069172 Z M4.91057794,13.2250053 C4.91057794,13.3411902 4.98068463,13.4014028 5.1186365,13.4014028 C5.22715152,13.400444 5.3332932,13.3695309 5.42535327,13.3120733 L5.42535327,13.0463463 C5.35389846,13.0386338 5.2820963,13.0345767 5.2102275,13.0341907 C5.00980152,13.0341907 4.91057794,13.0969475 4.91057794,13.2250053 Z" />
      <path id="path1" fill="#FFFFFF"
        d="M6.08543038,13.604373 L6.08543038,12.3141837 L6.33193456,12.3141837 L6.34889585,12.5219596 C6.39271237,12.4481129 6.45202747,12.3846505 6.52274914,12.3359507 C6.58047718,12.3045769 6.64566314,12.2895265 6.71130221,12.2924167 C6.73306921,12.2924167 6.7717975,12.2949609 6.79102031,12.2972224 L6.78367041,12.5606879 C6.76190341,12.5581437 6.71610791,12.5558822 6.68953522,12.5558822 C6.57363303,12.5558822 6.49165343,12.6016777 6.37546855,12.7393469 L6.37546855,13.604373 L6.08543038,13.604373 Z" />
      <path id="path2" fill="#FFFFFF"
        d="M6.90324755,12.9736955 C6.90324755,12.7636581 6.96628703,12.596872 7.09434482,12.4710757 C7.22240261,12.3452794 7.38918868,12.2850652 7.59922607,12.2850652 C7.6942277,12.2848896 7.78873069,12.2987983 7.87965283,12.3263393 L7.87965283,12.5635148 C7.79274224,12.5408933 7.70343838,12.5287457 7.61364317,12.5273307 C7.35046039,12.5273307 7.19582991,12.6893111 7.19582991,12.9623879 C7.19582991,13.2498819 7.3286934,13.3900953 7.59696456,13.3900953 C7.69920405,13.3880361 7.80038296,13.3689277 7.89633144,13.3335576 L7.89633144,13.5679062 C7.79027929,13.6099768 7.67713234,13.6312818 7.56304197,13.6306761 C7.14014032,13.6309457 6.90324755,13.3965971 6.90324755,12.9736955 Z" />
      <path id="part" fill="#FFFFFF"
        d="M8.05435418,12.9762396 C8.05435418,12.7732695 8.11230528,12.6064834 8.22820747,12.4784256 C8.34168076,12.3509711 8.5056897,12.2801938 8.67626838,12.2850668 C8.85266586,12.2850668 8.99033505,12.3382122 9.09182013,12.4447857 C9.19330522,12.5513592 9.24418911,12.7006186 9.24418911,12.8869102 C9.24418911,12.9230943 9.24164492,12.9980066 9.23938341,13.0245793 L8.33704245,13.0245793 C8.34891536,13.2758892 8.48432304,13.3920741 8.76474981,13.3920741 C8.90693119,13.389551 9.04724171,13.3592032 9.17775737,13.3027446 L9.17775737,13.5370932 C9.06892238,13.5975885 8.89761329,13.6312284 8.71641011,13.6312284 C8.28870276,13.6309457 8.05435418,13.3991413 8.05435418,12.9762396 Z M8.34410966,12.8179342 L8.96998149,12.8179342 C8.96263159,12.6271196 8.8492736,12.5134706 8.67287612,12.5134706 C8.50665542,12.5123482 8.37548806,12.6259889 8.34410966,12.8179342 Z" />
      <path id="path3" fill="#FFFFFF"
        d="M10.0815118,13.5922174 C10.0004007,13.6186883 9.91551913,13.631769 9.83020189,13.6309457 C9.62468752,13.6309457 9.52094093,13.5320048 9.52094093,13.3216847 L9.52094093,11.7923412 L9.81097909,11.7923412 L9.81097909,13.2781507 C9.81097909,13.3629572 9.8350076,13.3869857 9.90991999,13.3869857 C9.96796999,13.386908 10.0257248,13.3787252 10.0815118,13.3626745 L10.0815118,13.5922174 Z" />
      <path id="path4" fill="#FFFFFF"
        d="M10.2491459,13.5659274 L10.2491459,13.3072676 C10.388439,13.3657675 10.5379308,13.396127 10.6890089,13.3965971 C10.8654063,13.3965971 10.9620857,13.3459959 10.9620857,13.2493165 C10.9620857,13.1718599 10.9160075,13.1283259 10.7975612,13.0921418 L10.6140965,13.0389964 C10.3554367,12.9618225 10.2539516,12.862599 10.2539516,12.6813958 C10.2539516,12.4326301 10.4518334,12.2856322 10.7831441,12.2856322 C10.8510485,12.2861114 10.9188493,12.2910217 10.9861142,12.300332 C11.0486943,12.3080789 11.1107937,12.3193097 11.1721231,12.3339719 L11.1721231,12.5756704 C11.0434553,12.5418288 10.91133,12.5228589 10.7783384,12.5191327 C10.616358,12.5191327 10.5295727,12.5652109 10.5295727,12.6497347 C10.5295727,12.7150357 10.5680183,12.7438699 10.7056875,12.7910788 L10.8724735,12.84168 C11.1333948,12.9191366 11.2399683,13.0302331 11.2399683,13.2210477 C11.2399683,13.481969 11.0273867,13.6317937 10.6675245,13.6317937 C10.5254026,13.6328495 10.3840689,13.610599 10.2491459,13.5659274 Z" />
      <path id="path5" fill="#FFFFFF"
        d="M12.6101583,12.5459881 L12.6101583,13.2758892 C12.6101583,13.3556073 12.6384272,13.3889645 12.7141876,13.3889645 C12.800957,13.3860487 12.8870103,13.3721814 12.9703032,13.347692 L12.9703032,13.5738427 C12.9233706,13.5914747 12.8747877,13.6043544 12.8252841,13.6122883 C12.7655338,13.6235066 12.7048753,13.6291844 12.6440809,13.6292496 C12.4216053,13.6292496 12.3201202,13.5399201 12.3201202,13.3442998 L12.3201202,12.544292 L12.0905773,12.5394863 L12.0905773,12.322099 L12.33482,12.3124876 L12.3710041,11.9732617 L12.6101583,11.9732617 L12.6101583,12.3124876 L12.9556034,12.3124876 L12.9556034,12.544292 L12.6101583,12.5459881 Z" />
      <path id="part" fill="#FFFFFF"
        d="M13.2787161,13.4426753 C13.1628139,13.3194232 13.1048628,13.1575371 13.1048628,12.9570168 C13.1048628,12.7611139 13.1614005,12.6016777 13.2812603,12.4736199 C13.4011201,12.3455621 13.5469873,12.2850668 13.7335615,12.2850668 C13.9201358,12.2850668 14.0742009,12.3481063 14.1903858,12.4710757 C14.3065706,12.5940451 14.3642391,12.7588524 14.3642391,12.9570168 C14.3642391,13.1551813 14.3057226,13.3146175 14.1886896,13.4398484 C14.0716567,13.5650793 13.9178743,13.630663 13.7318654,13.630663 C13.5458565,13.630663 13.3923568,13.5681889 13.2787161,13.4426753 Z M14.0702433,12.9570168 C14.0702433,12.6862015 13.9373798,12.5219596 13.7310173,12.5219596 C13.5246549,12.5219596 13.3971625,12.6862015 13.3971625,12.9570168 C13.3971625,13.2278322 13.5277645,13.3943356 13.7329961,13.3943356 C13.9382278,13.3943356 14.071374,13.229811 14.071374,12.9570168 L14.0702433,12.9570168 Z" />
      <path id="part" fill="#FFFFFF"
        d="M16.5802324,12.9762396 C16.5802324,12.7732695 16.6367701,12.6064834 16.7543684,12.4784256 C16.8675845,12.3512781 17.031111,12.2805304 17.2012985,12.2850668 C17.377696,12.2850668 17.5153652,12.3382122 17.6168503,12.4447857 C17.7183354,12.5513592 17.7692193,12.7006186 17.7692193,12.8869102 C17.7692193,12.9230943 17.7666751,12.9980066 17.7641309,13.0245793 L16.8629207,13.0245793 C16.8750763,13.2758892 17.0104839,13.3920741 17.290628,13.3920741 C17.4329006,13.3895514 17.5733037,13.3592044 17.7039183,13.3027446 L17.7039183,13.5370932 C17.5950833,13.5975885 17.4234915,13.6312284 17.2422883,13.6312284 C16.814581,13.6309457 16.5802324,13.3991413 16.5802324,12.9762396 Z M16.8702706,12.8179342 L17.4961424,12.8179342 C17.4887925,12.6271196 17.3751518,12.5134706 17.1987543,12.5134706 C17.0322509,12.5123482 16.902497,12.6259889 16.8702706,12.8179342 Z" />
      <path id="part" fill="#FFFFFF"
        d="M18.1434985,13.4426753 C18.0275963,13.3194232 17.9696452,13.1575371 17.9696452,12.9570168 C17.9696452,12.7611139 18.0261829,12.6016777 18.1460427,12.4736199 C18.2659026,12.3455621 18.4117697,12.2850668 18.598344,12.2850668 C18.7849182,12.2850668 18.9375699,12.3481063 19.0551682,12.4710757 C19.1727665,12.5940451 19.2290215,12.7588524 19.2290215,12.9570168 C19.2290215,13.1551813 19.1724838,13.3146175 19.0551682,13.4401311 C18.9378526,13.5656447 18.7843528,13.6309457 18.598344,13.6309457 C18.4123351,13.6309457 18.2571392,13.5681889 18.1434985,13.4426753 Z M18.9350257,12.9570168 C18.9350257,12.6862015 18.8021622,12.5219596 18.5957998,12.5219596 C18.3894373,12.5219596 18.2599661,12.6862015 18.2599661,12.9570168 C18.2599661,13.2278322 18.3905681,13.3943356 18.5957998,13.3943356 C18.8010314,13.3943356 18.9361564,13.229811 18.9361564,12.9570168 L18.9350257,12.9570168 Z" />
      <path id="part" fill="#FFFFFF"
        d="M20.5491757,12.4592028 C20.6481166,12.575105 20.6964563,12.7322797 20.6964563,12.9304441 C20.6964563,13.1452872 20.6433109,13.3146175 20.5347586,13.439283 C20.4262063,13.5639486 20.2834487,13.6300976 20.1045071,13.6300976 C19.9948513,13.631583 19.887221,13.6004942 19.7952461,13.5407681 L19.7952461,14.2076298 L19.5032291,14.2076298 L19.5032291,12.3136183 L19.7401219,12.3136183 L19.7618889,12.4247148 C19.871735,12.3347941 20.0089193,12.2849452 20.1508679,12.2833707 C20.3187848,12.2850668 20.4491041,12.3433006 20.5491757,12.4592028 Z M20.0997014,12.5245038 C19.9879796,12.527344 19.8805735,12.5682321 19.7952461,12.640406 L19.7952461,13.2999177 C19.8778047,13.358846 19.976506,13.3909239 20.0779344,13.3917914 C20.2882544,13.3917914 20.4041566,13.229811 20.4041566,12.9375114 C20.4033086,12.6692402 20.2947563,12.5245038 20.0988533,12.5245038 L20.0997014,12.5245038 Z" />
      <path id="path6" fill="#FFFFFF"
        d="M21.5334963,13.5922174 C21.4524882,13.6187121 21.3676956,13.6317938 21.2824691,13.6309457 C21.0769547,13.6309457 20.971512,13.5320048 20.971512,13.3216847 L20.971512,11.7923412 L21.2615501,11.7923412 L21.2615501,13.2781507 C21.2615501,13.3629572 21.2858613,13.3869857 21.3607737,13.3869857 C21.4187306,13.3869038 21.4763915,13.3787209 21.5320828,13.3626745 L21.5334963,13.5922174 Z" />
      <path id="part" fill="#FFFFFF"
        d="M21.6609887,12.9762396 C21.6609887,12.7732695 21.7175263,12.6064834 21.834842,12.4784256 C21.948192,12.3512978 22.111792,12.280563 22.2820548,12.2850668 C22.4584523,12.2850668 22.5961215,12.3382122 22.6976066,12.4447857 C22.7990916,12.5513592 22.8496928,12.7006186 22.8496928,12.8869102 C22.8496928,12.9230943 22.8474313,12.9980066 22.8448871,13.0245793 L21.9436769,13.0245793 C21.9558325,13.2758892 22.0909575,13.3920741 22.3713843,13.3920741 C22.5135657,13.389551 22.6538762,13.3592032 22.7843919,13.3027446 L22.7843919,13.5370932 C22.6758396,13.5975885 22.5042478,13.6312284 22.3230446,13.6312284 C21.8953373,13.6309457 21.6609887,13.3991413 21.6609887,12.9762396 Z M21.9510268,12.8179342 L22.576616,12.8179342 C22.5695488,12.6271196 22.4559081,12.5134706 22.2795106,12.5134706 C22.1127245,12.5123482 21.9824052,12.6259889 21.9510268,12.8179342 Z" />
      <circle id="circle" cx="24.8194647" cy="9.23627384" r="1.31167357" fill="#FFD100" />
      <path id="path7" fill="#FFFFFF"
        d="M6.42182943,6.32232315 L6.42182943,8.03852364 L7.84968788,8.03852364 C7.64106393,8.36587666 7.17123603,8.54029532 6.85179828,8.54029532 C5.77758286,8.54029532 5.24047515,7.92770984 5.24047515,6.69151403 C5.24047515,5.32669507 5.9500227,4.62788967 7.35809298,4.62788967 C7.91696768,4.62788967 8.64771686,4.76753767 9.4324595,5.01488991 L9.4324595,2.96200769 C9.20630888,2.8653283 8.86284264,2.78985053 8.42213162,2.71465546 C8.02800055,2.64624397 7.62891686,2.61031604 7.22890444,2.60723391 C5.83185901,2.60723391 4.72456905,2.983492 3.89714049,3.73572549 C3.06971192,4.48795897 2.64907178,5.49856954 2.64907178,6.77773396 C2.64907178,7.94919415 2.97152486,8.87349056 3.61643104,9.5506232 C4.26133721,10.2383095 5.13192285,10.5822469 6.22818796,10.5824354 C7.33067221,10.5824354 8.3407174,10.0111224 8.66665698,9.28602698 L8.65958977,10.4535295 L10.2519728,10.4535295 L10.2519728,6.32232315 L6.42182943,6.32232315 Z" />
      <polygon id="path8" fill="#FFFFFF"
        points="11.0375635 10.4535295 11.0375635 2.73613976 13.5102378 2.73613976 13.5102378 8.44361593 16.207932 8.44361593 16.207932 10.4535295" />
      <path id="path9" fill="#FFFFFF"
        d="M16.9923919,10.2601708 L16.9923919,8.15357777 C17.3579078,8.27202415 17.787594,8.36870354 18.2712736,8.45464077 C18.7549533,8.54057801 19.17418,8.58354662 19.5289537,8.58354662 C20.1307971,8.58354662 20.4426022,8.43315647 20.4426022,8.16431992 C20.4426022,7.99244545 20.3459228,7.90650822 19.9054945,7.80982883 L19.0452741,7.61647005 C17.5727509,7.28346327 16.8849704,6.54225463 16.8849704,5.28400914 C16.8849704,4.45658057 17.1750085,3.80074379 17.7446254,3.31706416 C18.3159384,2.84356131 19.109727,2.60723391 20.1093128,2.60723391 C20.797376,2.60723391 21.8506725,2.74688192 22.4954844,2.90829692 L22.4954844,4.91821052 C22.162195,4.83340404 21.7647353,4.74605336 21.2799249,4.67085828 C20.7951145,4.5956632 20.4199872,4.56343674 20.1404085,4.56343674 C19.6137602,4.56343674 19.3129799,4.7138269 19.3129799,4.98266344 C19.3129799,5.14379576 19.4526279,5.2512173 19.7426661,5.32669507 L20.7422518,5.56302246 C22.2040328,5.90705409 22.8813539,6.65928757 22.8813539,7.93760393 C22.8813539,8.75457303 22.5802909,9.39938497 21.9891898,9.87232245 C21.3980886,10.3452599 20.5811195,10.5815912 19.5385651,10.5815912 C18.5508523,10.5824354 17.55268,10.4433528 16.9923919,10.2601708 Z" />
    </g>
  </g>
</svg>