<svg xmlns="http://www.w3.org/2000/svg" width="32" height="32" fill="none" viewBox="0 0 32 32"><path fill="white" fill-rule="evenodd" d="M32 29.5C32 30.8809 30.8809 32 29.5 32H2.5C1.11913 32 0 30.8809 0 29.5V2.5C0 1.11913 1.11913 0 2.5 0H29.5C30.8809 0 32 1.11913 32 2.5V29.5Z" clip-rule="evenodd"/><path fill="white" d="M0 7H32V24.7039C21.3333 24.7087 10.6667 24.701 0 24.7077V7ZM6.04049 8.51452C6.21432 8.91032 6.30914 9.34097 6.54914 9.70677C6.92049 10.3716 7.47358 10.9203 8.08099 11.381C7.7521 10.2323 7.04198 9.19968 6.04049 8.51452ZM9.54074 11.5377C7.82716 12.1039 6.55309 13.751 6.47802 15.5239C6.39605 16.8806 6.99062 18.2606 8.05827 19.1306C9.06667 19.989 10.4573 20.3839 11.7798 20.2194C10.1007 19.9697 8.51852 18.8316 8.01482 17.2106C8.38519 17.1535 8.74173 17.0287 9.06568 16.8419C8.82667 16.7074 8.57185 16.5961 8.34963 16.4335C7.96148 16.1219 7.71259 15.6206 7.7837 15.1242C7.92198 14.1294 8.43161 13.1945 9.18321 12.5142C9.88741 11.8445 10.8168 11.4681 11.7709 11.2968C11.0212 11.2116 10.2489 11.2735 9.54074 11.5377ZM3.13284 11.6529C3.96148 12.5258 5.09333 13.1035 6.29926 13.2642C5.45679 12.4039 4.33185 11.8445 3.13284 11.6529ZM11.1101 13.7742C11.1111 15.0971 11.1111 16.419 11.1111 17.7419C11.3412 17.7419 11.5723 17.7419 11.8035 17.7419C11.8025 16.419 11.8025 15.0971 11.8035 13.7742C11.5723 13.7742 11.3412 13.7742 11.1101 13.7742ZM15.7778 13.7742C15.7778 15.0971 15.7778 16.419 15.7778 17.7419C16 17.7419 16.2222 17.7419 16.4454 17.7419C16.4444 17.3219 16.4444 16.9029 16.4444 16.4839C16.9096 16.48 17.3807 16.5168 17.838 16.4103C18.6499 16.1529 18.9393 15.1329 18.562 14.4294C18.3615 14.0074 17.8746 13.7897 17.4183 13.7761C16.8721 13.7694 16.3249 13.7771 15.7778 13.7742ZM25.2336 13.7742C25.2375 14.7652 25.2286 15.7561 25.2375 16.7471C25.2583 17.0742 25.2217 17.471 25.5249 17.6906C25.8193 17.8532 26.1768 17.8348 26.4958 17.7555C26.4938 17.5871 26.4928 17.4187 26.4919 17.2503C26.3111 17.1971 25.9556 17.2706 25.9309 17.0161C25.8607 16.4103 25.921 15.7958 25.9022 15.1861C26.0958 15.1803 26.2884 15.1784 26.482 15.1765C26.4899 14.9994 26.4938 14.8223 26.4978 14.6461C26.2993 14.6452 26.0998 14.6452 25.9012 14.6452C25.9012 14.3548 25.9012 14.0645 25.9012 13.7742C25.679 13.7742 25.4568 13.7742 25.2336 13.7742ZM12.4691 14.8106C12.4691 15.7881 12.4691 16.7645 12.4691 17.7419C12.6914 17.7419 12.9136 17.7419 13.1358 17.7419C13.1328 16.931 13.1407 16.12 13.1319 15.3081C13.4815 15.1939 13.8598 15.1716 14.2163 15.2732C14.323 15.4561 14.4227 15.6497 14.4138 15.8674C14.4296 16.4916 14.4148 17.1168 14.4198 17.7419C14.642 17.7419 14.8642 17.7419 15.0864 17.7419C15.0825 17.0703 15.0933 16.3977 15.0825 15.7271C15.0835 15.4406 14.9669 15.1784 14.8138 14.9413C14.1432 14.4177 13.2365 14.7148 12.4691 14.8106ZM19.5121 14.8823C18.8089 15.4919 18.8049 16.6387 19.363 17.3442C19.8963 17.86 20.8365 17.9335 21.3946 17.4148C21.837 17.0723 21.9289 16.4723 21.8943 15.9535C21.841 15.4997 21.6316 15.009 21.199 14.7884C20.6904 14.4826 19.9852 14.5348 19.5121 14.8823ZM22.3605 15.189C22.1541 15.5123 22.2548 16.0087 22.6222 16.1761C23.0765 16.4403 23.6365 16.3648 24.1047 16.5903C24.1363 16.7306 24.1699 16.9 24.0375 17.0035C23.6 17.319 22.9956 17.1216 22.6232 16.7984C22.4514 16.9426 22.2854 17.0935 22.1126 17.2377C22.7664 17.8387 23.8914 17.9461 24.5906 17.3626C24.9136 17.0142 24.9047 16.4732 24.5995 16.1161C24.1916 15.8742 23.7116 15.8277 23.2533 15.7445C23.0479 15.7213 22.8128 15.4881 23.0064 15.3052C23.2711 15.0477 23.6919 15.1784 24.0178 15.2345C24.0464 15.2674 24.1047 15.3332 24.1333 15.3661C24.1906 15.3874 24.3052 15.429 24.3625 15.4503C24.4948 15.3216 24.6291 15.1939 24.7664 15.07C24.3832 14.7332 23.8568 14.529 23.3393 14.6123C22.9491 14.6345 22.5215 14.8174 22.3605 15.189ZM2.08099 15.7513C3.20395 16.1839 4.48 16.1519 5.61383 15.7706C4.48198 15.3574 3.22173 15.3913 2.08099 15.7513ZM3.23654 19.8429C4.39605 19.6435 5.48642 19.0881 6.29827 18.25C5.15161 18.431 3.95358 18.9168 3.23654 19.8429ZM6.69136 21.5819C6.43457 22.03 6.20049 22.4935 6.0721 22.9948C7.02123 22.2865 7.79259 21.2935 8.04543 20.1352C7.55259 20.5755 7.02617 21.0061 6.69136 21.5819Z"/><path fill="white" d="M16.4444 14.4042C16.8553 14.411 17.2741 14.3665 17.676 14.47C17.8459 14.5552 17.917 14.7439 18.0138 14.8929C18.0444 15.1755 17.9575 15.4416 17.8291 15.6903C17.4035 15.9168 16.9077 15.8442 16.4444 15.8539C16.4444 15.371 16.4444 14.8871 16.4444 14.4042Z"/><path fill="white" d="M19.7363 15.6923C19.8914 15.2761 20.3921 15.1029 20.8 15.2655C21.2306 15.6149 21.3126 16.2371 21.0923 16.722C20.9244 17.1516 20.2844 17.2697 19.9457 16.9697C19.6079 16.6358 19.6316 16.1161 19.7363 15.6923Z"/><path fill="#F7CD46" d="M6.04049 8.51453C7.04197 9.19969 7.7521 10.2323 8.08099 11.381C7.47358 10.9203 6.92049 10.3716 6.54913 9.70678C6.30913 9.34098 6.21432 8.91033 6.04049 8.51453Z"/><path fill="#F7CD46" d="M9.54074 11.5378C10.2489 11.2736 11.0212 11.2116 11.7709 11.2968C10.8168 11.4681 9.88741 11.8445 9.18321 12.5142C8.4316 13.1945 7.92197 14.1294 7.7837 15.1242C7.71259 15.6207 7.96148 16.1219 8.34963 16.4336C8.57185 16.5961 8.82667 16.7074 9.06568 16.8419C8.74173 17.0287 8.38518 17.1536 8.01481 17.2107C8.51852 18.8316 10.1007 19.9697 11.7798 20.2194C10.4573 20.3839 9.06667 19.989 8.05827 19.1307C6.99062 18.2607 6.39605 16.8807 6.47802 15.5239C6.55308 13.751 7.82716 12.1039 9.54074 11.5378Z"/><path fill="#F7CD46" d="M3.13284 11.6529C4.33185 11.8445 5.45679 12.4039 6.29926 13.2642C5.09333 13.1035 3.96148 12.5258 3.13284 11.6529Z"/><path fill="#F7CD46" d="M2.08099 15.7513C3.22173 15.3913 4.48197 15.3574 5.61383 15.7707C4.48 16.152 3.20395 16.1839 2.08099 15.7513Z"/><path fill="#F7CD46" d="M3.23654 19.8429C3.95358 18.9168 5.1516 18.431 6.29827 18.25C5.48642 19.0881 4.39605 19.6435 3.23654 19.8429Z"/><path fill="#F7CD46" d="M6.69136 21.582C7.02617 21.0062 7.55259 20.5755 8.04543 20.1352C7.79259 21.2936 7.02123 22.2865 6.0721 22.9949C6.20049 22.4936 6.43457 22.03 6.69136 21.582Z"/><path fill="#0D0D0E" d="M11.1101 13.7743C11.3412 13.7743 11.5723 13.7743 11.8035 13.7743C11.8025 15.0972 11.8025 16.4191 11.8035 17.742C11.5723 17.742 11.3412 17.742 11.1111 17.742C11.1111 16.4191 11.1111 15.0972 11.1101 13.7743Z"/><path fill="#0D0D0E" d="M15.7778 13.7742C16.3249 13.7771 16.8721 13.7693 17.4183 13.7761C17.8746 13.7897 18.3615 14.0074 18.562 14.4293C18.9393 15.1329 18.6499 16.1529 17.838 16.4103C17.3807 16.5168 16.9096 16.48 16.4444 16.4839C16.4444 16.9029 16.4444 17.3219 16.4454 17.7419C16.2222 17.7419 16 17.7419 15.7778 17.7419C15.7778 16.419 15.7778 15.0971 15.7778 13.7742ZM16.4444 14.4042C16.4444 14.8871 16.4444 15.371 16.4444 15.8539C16.9077 15.8442 17.4035 15.9168 17.8291 15.6903C17.9575 15.4416 18.0444 15.1755 18.0138 14.8929C17.917 14.7439 17.8459 14.5552 17.6761 14.47C17.2741 14.3664 16.8553 14.411 16.4444 14.4042Z"/><path fill="#0D0D0E" d="M25.2336 13.7742C25.4568 13.7742 25.679 13.7742 25.9012 13.7742C25.9012 14.0645 25.9012 14.3548 25.9012 14.6451C26.0998 14.6451 26.2993 14.6451 26.4978 14.6461C26.4938 14.8222 26.4899 14.9993 26.482 15.1764C26.2884 15.1784 26.0958 15.1803 25.9022 15.1861C25.921 15.7958 25.8607 16.4103 25.9309 17.0161C25.9556 17.2706 26.3111 17.1971 26.4919 17.2503C26.4928 17.4187 26.4938 17.5871 26.4958 17.7555C26.1768 17.8348 25.8193 17.8532 25.5249 17.6906C25.2217 17.4709 25.2583 17.0742 25.2375 16.7471C25.2286 15.7561 25.2375 14.7651 25.2336 13.7742Z"/><path fill="#0D0D0E" d="M12.4691 14.8106C13.2365 14.7148 14.1432 14.4177 14.8138 14.9413C14.9669 15.1784 15.0835 15.4406 15.0825 15.7271C15.0933 16.3977 15.0825 17.0703 15.0864 17.7419C14.8642 17.7419 14.642 17.7419 14.4198 17.7419C14.4148 17.1168 14.4296 16.4916 14.4138 15.8674C14.4227 15.6497 14.323 15.4561 14.2163 15.2732C13.8598 15.1716 13.4815 15.1939 13.1319 15.3081C13.1407 16.12 13.1328 16.931 13.1358 17.7419C12.9136 17.7419 12.6914 17.7419 12.4691 17.7419C12.4691 16.7645 12.4691 15.7881 12.4691 14.8106Z"/><path fill="#0D0D0E" d="M19.5121 14.8822C19.9852 14.5348 20.6904 14.4826 21.199 14.7884C21.6316 15.009 21.841 15.4996 21.8943 15.9535C21.9289 16.4722 21.837 17.0722 21.3946 17.4148C20.8365 17.9335 19.8963 17.86 19.363 17.3442C18.8049 16.6387 18.8089 15.4919 19.5121 14.8822ZM19.7363 15.6922C19.6316 16.1161 19.6079 16.6358 19.9457 16.9696C20.2844 17.2696 20.9244 17.1516 21.0923 16.7219C21.3126 16.2371 21.2306 15.6148 20.8 15.2655C20.3921 15.1029 19.8914 15.2761 19.7363 15.6922Z"/><path fill="#0D0D0E" d="M22.3605 15.189C22.5215 14.8174 22.9491 14.6345 23.3393 14.6123C23.8568 14.529 24.3832 14.7332 24.7664 15.07C24.6291 15.1939 24.4948 15.3216 24.3625 15.4503C24.3052 15.429 24.1906 15.3874 24.1333 15.3661C24.1047 15.3332 24.0464 15.2674 24.0178 15.2345C23.6919 15.1784 23.2711 15.0477 23.0064 15.3052C22.8128 15.4881 23.0479 15.7213 23.2533 15.7445C23.7116 15.8277 24.1916 15.8742 24.5995 16.1161C24.9047 16.4732 24.9136 17.0142 24.5906 17.3626C23.8914 17.9461 22.7664 17.8387 22.1126 17.2377C22.2854 17.0936 22.4514 16.9426 22.6232 16.7984C22.9956 17.1216 23.6 17.319 24.0375 17.0036C24.1699 16.9 24.1363 16.7306 24.1047 16.5903C23.6365 16.3648 23.0765 16.4403 22.6222 16.1761C22.2548 16.0087 22.1541 15.5123 22.3605 15.189Z"/></svg>