<svg width="32" height="32" viewBox="0 0 32 32" fill="none" xmlns="http://www.w3.org/2000/svg">
<g clip-path="url(#clip0_1737_8869)">
<path fill-rule="evenodd" clip-rule="evenodd" d="M32 29.5C32 30.8809 30.8809 32 29.5 32H2.5C1.11913 32 0 30.8809 0 29.5V2.5C0 1.11913 1.11913 0 2.5 0H29.5C30.8809 0 32 1.11913 32 2.5V29.5Z" fill="#BA1B02"/>
<g clip-path="url(#clip1_1737_8869)">
<path d="M29.313 17.6613C29.1621 17.6958 28.9527 17.7303 28.7264 17.7303C28.4163 17.7303 28.123 17.6181 28.123 17.2988C28.123 17.0054 28.3492 16.7983 28.7515 16.7983C28.9611 16.7983 29.1705 16.85 29.313 16.9104V17.6613ZM29.313 16.3581C29.1287 16.2718 28.8856 16.2287 28.6509 16.2287C28.0476 16.2287 27.444 16.5652 27.444 17.2988C27.444 18.0928 28.0894 18.3171 28.7682 18.3171C29.2459 18.3171 29.6984 18.2049 30.0002 18.0928V15.9525C30.0002 15.1931 29.3548 14.8479 28.718 14.8479C28.299 14.8479 27.9051 14.9428 27.5531 15.3484L27.9385 15.7627C28.0977 15.5728 28.3661 15.4865 28.6259 15.4865C28.9778 15.4779 29.3047 15.6505 29.3047 15.9784V16.3581H29.313ZM27.3519 17.6871C26.9748 17.6871 26.6313 17.6526 26.6313 17.1262V15.5555H27.2513V14.9083H26.6313L26.5642 14.123H25.9441V17.1348C25.9441 17.9806 26.4553 18.3344 27.0921 18.3344C27.1759 18.3344 27.2597 18.3258 27.3519 18.3171V17.6871ZM24.9382 16.3236H23.7399V16.0216C23.7315 15.6936 24.0249 15.5383 24.3349 15.5383C24.6366 15.5383 24.9299 15.7022 24.9299 16.0129V16.3236H24.9382ZM24.9215 17.2988C24.8043 17.5491 24.5528 17.6354 24.3181 17.6354C24.0249 17.6354 23.7399 17.4541 23.7399 17.1521V16.9191H25.6003V15.9957C25.6003 15.2103 24.9551 14.8479 24.3349 14.8479C23.6981 14.8479 23.0443 15.219 23.0443 15.9957V17.1693C23.0443 17.9374 23.6897 18.3171 24.3349 18.3171C24.7622 18.3171 25.2484 18.0928 25.4998 17.6354L24.9215 17.2988ZM21.1084 16.2632V13.6742H20.4212V18.2567H21.1084V17.0917L21.3011 16.8932L22.3235 18.2654H23.1365L21.7872 16.4617L23.1449 14.9169H22.2734L21.1084 16.2632ZM17.5717 17.1693C17.5717 17.946 18.2171 18.3171 18.854 18.3171C19.3652 18.3171 19.9518 18.0755 20.1278 17.4369L19.4909 17.1952C19.4071 17.4887 19.1222 17.6267 18.854 17.6267C18.5523 17.6267 18.259 17.4628 18.259 17.178V15.987C18.259 15.6936 18.5858 15.5383 18.8791 15.5383C19.1473 15.5383 19.3987 15.6764 19.4825 15.9698L20.1111 15.7281C19.9351 15.0895 19.3568 14.8479 18.8456 14.8479C18.2087 14.8479 17.5634 15.219 17.5634 16.0043L17.5717 17.1693ZM16.499 17.6613C16.3482 17.6958 16.1387 17.7303 15.9124 17.7303C15.5939 17.7303 15.309 17.6181 15.309 17.2988C15.309 17.0054 15.5352 16.7983 15.9375 16.7983C16.147 16.7983 16.3566 16.85 16.499 16.9104V17.6613ZM16.499 16.3581C16.3146 16.2718 16.0716 16.2287 15.8369 16.2287C15.2335 16.2287 14.6301 16.5652 14.6301 17.2988C14.6301 18.0928 15.2754 18.3171 15.9543 18.3171C16.432 18.3171 16.8845 18.2049 17.1862 18.0928V15.9525C17.1862 15.1931 16.5409 14.8479 15.904 14.8479C15.4933 14.8479 15.0911 14.9428 14.7391 15.3484L15.1246 15.7627C15.2838 15.5728 15.552 15.4865 15.8118 15.4865C16.1638 15.4779 16.4906 15.6505 16.4906 15.9784L16.499 16.3581ZM11.9902 15.987V14.425H12.9959C13.5323 14.425 13.8172 14.8134 13.8172 15.1931C13.8172 15.5728 13.549 15.9784 12.9959 15.9784H11.9902V15.987ZM11.2779 18.2567H11.9902V16.6774H13.0043C14.0184 16.6774 14.538 15.9525 14.538 15.1931C14.538 14.4509 14.0267 13.6828 12.9959 13.6828H11.2779V18.2567Z" fill="white"/>
<path fill-rule="evenodd" clip-rule="evenodd" d="M5.77166 15.2104L5.58729 15.2967L5.40291 15.2104L2.87196 13.9159L4.07877 13.4413L6.67678 14.7444L5.77166 15.2104ZM8.31937 13.9159L7.41427 14.3733L4.78275 13.1651L5.60405 12.8372L8.31937 13.9159Z" fill="white"/>
<path fill-rule="evenodd" clip-rule="evenodd" d="M5.68748 12.0086L9.02296 13.3376L8.55365 13.726L5.5953 12.5351L2.62855 13.7174L2.15923 13.329L5.49473 12H5.68748V12.0086ZM8.62908 13.8296L9.18219 13.6138L8.77155 17.1348L8.68774 17.2902L5.76291 20L5.67072 19.3786L8.27709 16.9709L8.62908 13.8296ZM2.49446 17.2902L2.41065 17.1348L2 13.6138L2.55312 13.8296L2.91349 16.9622L5.51987 19.37L5.42769 19.9914L2.49446 17.2902Z" fill="white"/>
<path fill-rule="evenodd" clip-rule="evenodd" d="M7.48129 14.4855L8.31937 13.9504L7.9925 16.7897L5.61241 18.9903L5.73812 15.5815L6.7857 14.917L6.71866 16.5912L7.36396 16.1252L7.48129 14.4855Z" fill="#AAAAAA"/>
<path fill-rule="evenodd" clip-rule="evenodd" d="M5.44484 15.5815L5.57055 18.9903L3.19883 16.7897L2.86361 13.9504L5.44484 15.5815Z" fill="#D7D7D7"/>
</g>
</g>
<defs>
<clipPath id="clip0_1737_8869">
<rect width="32" height="32" fill="white"/>
</clipPath>
<clipPath id="clip1_1737_8869">
<rect width="28" height="8" fill="white" transform="translate(2 12)"/>
</clipPath>
</defs>
</svg>
