<?xml version="1.0" encoding="UTF-8"?><svg xmlns="http://www.w3.org/2000/svg" xmlns:xlink="http://www.w3.org/1999/xlink" width="32px" height="32px" version="1.1" viewBox="0 0 32 32"><title>parcelone</title><defs><polygon id="path-1" points="0.0159648215 0.00577708157 7.37555981 0.00577708157 7.37555981 6.06975983 0.0159648215 6.06975983"/><polygon id="path-3" points="0 0.0153949429 2.63538812 0.0153949429 2.63538812 2.06770317 0 2.06770317"/><polygon id="path-5" points="0.00873906866 0.0158246186 1.86173092 0.0158246186 1.86173092 2.15104101 0.00873906866 2.15104101"/></defs><g id="parcelone" fill="none" fill-rule="evenodd" stroke="none" stroke-width="1"><path id="Fill-1" fill="#F4F4F5" d="M32,29.5 C32,30.880875 30.880875,32 29.5,32 L2.5,32 C1.119125,32 0,30.880875 0,29.5 L0,2.5 C0,1.119125 1.119125,0 2.5,0 L29.5,0 C30.880875,0 32,1.119125 32,2.5 L32,29.5 Z"/><g id="编组" transform="translate(3.000000, 1.000000)"><path id="Fill-1" fill="#344A69" d="M0.0268675265,13.3071448 C0.0268675265,8.9647666 0.0272567625,4.62238842 0.0245523834,0.280010227 C0.0245523834,0.175305745 0.0479682145,0.146174236 0.15644214,0.146174236 C3.82281984,0.149308878 7.489259,0.143654713 11.1556367,0.151582836 C12.4234603,0.154307488 13.6409495,0.40438137 14.7701026,1.00605827 C16.0043699,1.66376467 16.9164523,2.63699805 17.5536521,3.87452267 C18.02641,4.79260746 18.3021734,5.77188425 18.4476248,6.79074018 C18.5486212,7.49816636 18.6015983,8.21001753 18.5610563,8.92297495 C18.4524595,10.832198 17.9451211,12.6158002 16.8071999,14.1801806 C15.7532103,15.6292038 14.3217642,16.4879813 12.5676824,16.8229906 C11.9893187,16.9334517 11.4054647,16.9780294 10.8180871,16.9786645 C8.94391585,16.9807336 7.06976503,16.9805083 5.19559373,16.9766364 C5.08820557,16.976411 5.0698705,17.0072017 5.06997293,17.1066412 C5.07269758,20.1859076 5.07152988,23.265174 5.07501251,26.3444405 C5.07513543,26.4516852 5.04475454,26.4690797 4.94601151,26.4690797 C3.35180332,26.4658821 1.75757464,26.4668245 0.163366443,26.4668245 C0.0268880126,26.4668245 0.0268675265,26.466804 0.0268675265,26.3342794 C0.0268675265,21.9919012 0.0268675265,17.649523 0.0268675265,13.3071448"/><path id="Fill-3" fill="#344B6A" d="M26.6065479,22.974425 C26.6065479,24.1006486 26.6053187,25.2268927 26.6088037,26.3531163 C26.6090882,26.4475163 26.5834191,26.4690472 26.4912726,26.4689448 C24.2354247,26.4662611 21.9795767,26.4660767 19.7237083,26.4693753 C19.6254774,26.4694979 19.6105431,26.4386868 19.610625,26.3507604 C19.6129195,24.0982722 19.6130424,21.8458045 19.6103379,19.5933368 C19.6102358,19.5012927 19.6316643,19.4764021 19.7258798,19.476525 C21.9817278,19.4793931 24.2375962,19.479475 26.4934441,19.4763197 C26.5912448,19.4761768 26.608617,19.5064757 26.6083916,19.5957132 C26.605585,20.7219573 26.6065479,21.8481809 26.6065479,22.974425"/><path id="Fill-5" fill="#750E00" d="M24.5816644,8.29429941 L24.4745835,8.29429941 C22.8975427,8.29429941 21.3205223,8.29327511 19.7434815,8.29669629 C19.6443492,8.29690115 19.6184958,8.27260463 19.6203805,8.17365674 C19.6269361,7.83241969 19.6246006,7.49097778 19.6214458,7.1496383 C19.6208312,7.08371402 19.6376913,7.06394493 19.7057051,7.06400639 C21.9825103,7.06578868 24.259336,7.06580916 26.5361208,7.06388341 C26.605077,7.06388341 26.6195197,7.08453346 26.6190895,7.14931053 C26.6162624,7.55893019 26.6167541,7.96857035 26.6188027,8.37819001 C26.6190485,8.42872923 26.6050975,8.45632402 26.5585735,8.48010838 C25.1982142,9.17563213 23.8386539,9.87271282 22.4789911,10.5696091 C22.2406148,10.6918088 22.0023614,10.8142747 21.7673243,10.9574111 L21.8725409,10.9574111 C23.4154519,10.9574111 24.9583629,10.9586198 26.5012534,10.954666 C26.6038273,10.9543996 26.6217936,10.9831416 26.6200728,11.0780947 C26.6139065,11.4193318 26.6159346,11.7607737 26.6191509,12.1020927 C26.6197655,12.168058 26.60352,12.1877861 26.5351169,12.1877246 C24.2617329,12.1858809 21.9883489,12.1857375 19.7149444,12.1881345 C19.6333892,12.1882163 19.6208107,12.1601913 19.6214253,12.0882851 C19.6246006,11.7128157 19.6253177,11.3372849 19.6208312,10.9618566 C19.6199503,10.8882295 19.6473197,10.8544275 19.7085527,10.8230632 C20.6716455,10.3296349 21.6336729,9.83413748 22.5959258,9.33909076 C23.2464825,9.00440927 23.8970393,8.6696868 24.5475346,8.33484141 C24.5612602,8.32779419 24.5742075,8.31919003 24.5875029,8.31130288 C24.5855568,8.30562823 24.5836106,8.29997406 24.5816644,8.29429941"/><g transform="translate(19.420827, 0.014750)"><mask id="mask-2" fill="white"><use xlink:href="#path-1"/></mask><g id="Clip-8"/><path id="Fill-7" fill="#750E00" d="M0.0159648215,2.9946752 C0.0342793993,2.2687091 0.265137315,1.58217875 0.799332985,1.01776608 C1.18879432,0.606302662 1.67269661,0.343527395 2.21760651,0.206762159 C3.34405547,-0.075966574 4.47083221,-0.0855540711 5.56335618,0.340413507 C6.65540898,0.766176225 7.24954699,1.60188639 7.35949591,2.76119506 C7.44986012,3.71390137 7.16069875,4.54621083 6.44845834,5.20549466 C6.02505153,5.59741433 5.5095187,5.81954517 4.9504529,5.9343493 C3.99774659,6.13001209 3.04682258,6.12501348 2.10976765,5.84437433 C1.39613419,5.6306428 0.815762841,5.22835715 0.429968515,4.57624346 C0.14934985,4.10188771 0.0226023195,3.58487988 0.0159648215,2.9946752" mask="url(#mask-2)"/></g><path id="Fill-9" fill="#750E00" d="M23.1255018,13.4393252 C24.2552286,13.4393252 25.3849758,13.4403905 26.5147025,13.4371925 C26.5997813,13.4369489 26.6199397,13.4570047 26.6197768,13.542186 C26.6168258,15.0166734 26.6168258,16.4911403 26.6197768,17.9656072 C26.6199397,18.0507679 26.6000067,18.072094 26.5147025,18.0707624 C26.1666436,18.0653335 25.8184413,18.0658457 25.4703619,18.070496 C25.3897081,18.0715818 25.3696522,18.0500099 25.3698775,17.9697454 C25.3727046,16.928744 25.3703897,15.8877221 25.3740772,14.8467206 C25.374405,14.7516856 25.3484491,14.7296426 25.2563435,14.7308103 C24.8468468,14.7359318 24.4371657,14.73712 24.0277099,14.7301752 C23.9243165,14.7284134 23.9078047,14.7605766 23.9081735,14.8550585 C23.9117995,15.797071 23.9084603,16.7391041 23.9130696,17.6811167 C23.9135818,17.7843666 23.8827297,17.8027631 23.7878586,17.8010833 C23.4534639,17.7951423 23.1188643,17.7956135 22.7844696,17.8008579 C22.6938391,17.802292 22.6650357,17.7824409 22.6654659,17.6853982 C22.6695631,16.7399645 22.666695,15.7945103 22.6698909,14.8490765 C22.6701982,14.7589991 22.651986,14.7294377 22.5548819,14.730462 C22.032732,14.7359113 21.5104798,14.7356245 20.9883094,14.7307283 C20.8902629,14.729786 20.8582636,14.7467485 20.8587553,14.855079 C20.8637129,15.9404328 20.8607425,17.0258276 20.8637949,18.1112019 C20.8640202,18.1947443 20.8465251,18.2190203 20.7595206,18.2176068 C20.4114822,18.2119526 20.0632594,18.2137349 19.7151595,18.2166234 C19.6489894,18.217197 19.6209227,18.2081627 19.6210258,18.1303155 C19.6235661,16.5944107 19.6236276,15.058506 19.6209227,13.5225808 C19.6207595,13.4428079 19.651755,13.4380551 19.715815,13.4381575 C20.8523636,13.4397759 21.9889327,13.4393252 23.1255018,13.4393252"/><g transform="translate(0.000000, 27.732450)"><mask id="mask-4" fill="white"><use xlink:href="#path-3"/></mask><g id="Clip-12"/><path id="Fill-11" fill="#676767" d="M2.62957389,0.0498078667 C2.56803363,0.0494391169 2.58628675,0.105325211 2.57878883,0.133329716 C2.41670277,0.738468768 2.25689067,1.3442224 2.10025391,1.95077499 C2.08054627,2.02710622 2.05614732,2.06777114 1.96650013,2.05812218 C1.85870225,2.04654754 1.72263354,2.09026488 1.64747002,2.03884476 C1.56624261,1.98332742 1.57828844,1.83500802 1.55093949,1.7271077 C1.47063396,1.41024912 1.39614648,1.09191553 1.31893435,0.774257993 C1.31424304,0.754939596 1.30600762,0.736502102 1.29080693,0.693071559 C1.22223994,0.977275292 1.15928614,1.23816584 1.09633234,1.4990359 C1.05638443,1.66456362 1.01424452,1.82964066 0.977820222,1.99594686 C0.967659114,2.04228643 0.948914328,2.05771246 0.903394203,2.05654475 C0.780702921,2.05338989 0.638406437,2.09182183 0.540605773,2.04185622 C0.441883233,1.99143991 0.459091561,1.83086982 0.429058932,1.71846257 C0.285881545,1.18227974 0.150181586,0.644130255 0.0080489906,0.107660627 C-0.0100812122,0.0392370366 -0.00108781217,0.0190991956 0.0713715407,0.0237495414 C0.159748597,0.0294037063 0.249375306,0.0315957195 0.337301668,0.0231554443 C0.417525255,0.0154526689 0.440182887,0.0510165469 0.455608923,0.121242914 C0.543289452,0.520414668 0.635231091,0.918623574 0.725964049,1.31711929 C0.728729673,1.32928803 0.733892172,1.34092414 0.756611262,1.35538733 C0.787360906,1.23664987 0.818725132,1.1180558 0.848696303,0.999092994 C0.923532045,0.701921557 0.999617438,0.405057411 1.07058131,0.106964099 C1.08479866,0.0472471036 1.10309275,0.018996765 1.16997989,0.0235856525 C1.27857673,0.0310221086 1.41251488,-0.00915114304 1.48991139,0.0412241888 C1.5687624,0.0925418815 1.55659366,0.239017531 1.5829183,0.343906388 C1.6699023,0.690551768 1.75199013,1.0384468 1.85202378,1.38804218 C1.88680918,1.24197625 1.92186091,1.0959513 1.95627756,0.949823912 C2.02341053,0.664800735 2.09228481,0.380146308 2.15532056,0.0942217421 C2.16761222,0.0384380785 2.18869242,0.0220082225 2.24267331,0.0241387774 C2.37212501,0.0292603036 2.50178156,0.0294856507 2.63133569,0.0316776639 C2.63528951,0.0361231487 2.63635479,0.0403023141 2.63451104,0.044194674 C2.63274923,0.0479231451 2.63108986,0.0498078667 2.62957389,0.0498078667" mask="url(#mask-4)"/></g><path id="Fill-13" fill="#676767" d="M2.62957389,27.7822577 C2.6304343,27.7762348 2.6310284,27.7701914 2.63133569,27.7641275 C2.75736621,27.761956 2.88351964,27.7625296 3.0093453,27.7564657 C3.07401993,27.7533723 3.06916472,27.8021088 3.07721576,27.8370376 C3.15520636,28.17555 3.2307796,28.514636 3.30770493,28.8534147 C3.32628583,28.9352977 3.34728408,29.0166275 3.38321671,29.0966462 C3.48734758,28.6820075 3.59387533,28.2679423 3.69341731,27.8521973 C3.71113779,27.7782015 3.73678639,27.7488449 3.81360929,27.756015 C3.88805579,27.7629803 3.96424362,27.7633695 4.03858769,27.7559331 C4.11717239,27.7480664 4.14187863,27.7810081 4.15880015,27.8535289 C4.25690811,28.2741291 4.36064975,28.6933977 4.48082124,29.116108 C4.51325074,28.979056 4.54596705,28.8420244 4.57804829,28.70487 C4.64632848,28.4129839 4.71571492,28.1213437 4.7810451,27.8287817 C4.79286559,27.7758661 4.81181523,27.7543966 4.86815202,27.7563018 C4.98725823,27.7603786 5.10661028,27.7575515 5.23325538,27.7575515 C5.11384188,28.2120357 4.99637455,28.6593293 4.87876382,29.1066025 C4.82593016,29.3074482 4.77061768,29.5076999 4.72110276,29.7093446 C4.70637325,29.7693075 4.68199479,29.7962057 4.61789376,29.7895068 C4.56385142,29.7838731 4.50876428,29.7883596 4.45414833,29.7883596 C4.25651887,29.7883596 4.25690811,29.7882571 4.20952375,29.5922256 C4.1183401,29.2150149 4.02668526,28.8379477 3.93333008,28.4530138 C3.88707246,28.4824933 3.89352558,28.5283822 3.88514677,28.5626349 C3.79205791,28.9430414 3.70089474,29.3239396 3.6129274,29.7055752 C3.59793158,29.77068 3.57101283,29.794403 3.50342917,29.789937 C3.40827122,29.7836478 3.31229382,29.7858398 3.21684905,29.7893429 C3.16454803,29.7912686 3.13777269,29.7769283 3.12371922,29.7221485 C2.96191996,29.0920983 2.7976214,28.4626832 2.63444958,27.8330018 C2.63022944,27.8167563 2.63108986,27.7991793 2.62957389,27.7822577"/><path id="Fill-15" fill="#676767" d="M6.54143863,28.4457371 C6.49456642,28.6399249 6.44761227,28.8340512 6.40090395,29.02828 C6.34593973,29.2566386 6.28962343,29.4847309 6.23748629,29.7137451 C6.22458004,29.7704506 6.20098005,29.792733 6.14109917,29.7897075 C6.04239711,29.7846884 5.94295756,29.7836232 5.84443988,29.7900353 C5.78228504,29.7940711 5.76261838,29.7670089 5.74897463,29.7139499 C5.58791288,29.0876078 5.42621605,28.4614295 5.26185603,27.8359272 C5.24397166,27.7678724 5.26201992,27.7533477 5.32665358,27.7564002 C5.42197543,27.7608457 5.51787089,27.7613578 5.61313127,27.7561953 C5.67512223,27.7528151 5.69333437,27.7796724 5.70566701,27.8351692 C5.79937045,28.2570806 5.89629021,28.6782954 6.00886136,29.1023373 C6.05001795,28.941255 6.0918096,28.7803367 6.13218771,28.6190701 C6.19755887,28.3581385 6.26395434,28.0974324 6.32537168,27.835579 C6.33973244,27.7743255 6.36478695,27.7522005 6.42774075,27.7562568 C6.53619419,27.7632425 6.66859588,27.7254252 6.74707815,27.7753293 C6.82123785,27.8225088 6.80988855,27.9662598 6.83475868,28.0678095 C6.91653921,28.4017535 6.9970496,28.7359843 7.07792874,29.0701331 C7.08192353,29.0866244 7.08395166,29.1039352 7.10972318,29.1148133 C7.20111169,28.7239999 7.29284847,28.3349687 7.38284393,27.9455484 C7.42619253,27.7578752 7.42473801,27.7556422 7.62060566,27.7584693 C7.69730564,27.7595755 7.80133408,27.7231307 7.84210143,27.7768043 C7.87080246,27.8145807 7.81872678,27.9154338 7.79990005,27.987381 C7.65420287,28.543886 7.5042241,29.0993053 7.36481616,29.6573878 C7.33761061,29.7662714 7.2932377,29.8040273 7.18621829,29.7898919 C7.12248602,29.7814926 7.05580375,29.7813902 6.99215342,29.7900353 C6.90371491,29.8020402 6.87638644,29.7615391 6.857867,29.6825447 C6.76385627,29.2815702 6.6642938,28.8818658 6.56663654,28.4817517 C6.56380946,28.4700951 6.56055216,28.4585819 6.55747925,28.4470073 C6.55213238,28.446577 6.5467855,28.4461673 6.54143863,28.4457371"/><path id="Fill-17" fill="#676767" d="M24.3269095,29.0770041 L24.3269095,28.4467082 C24.3269095,28.2419905 24.3286508,28.0372729 24.3257827,27.8326167 C24.3250042,27.7758907 24.3400615,27.7514917 24.399881,27.7568796 C24.5110386,27.7668973 24.6563875,27.7101098 24.7239916,27.7800903 C24.7777881,27.8357715 24.741159,27.9807107 24.7413024,28.0860503 C24.7420194,28.62168 24.7400732,29.1573507 24.7433715,29.6929599 C24.7438222,29.7693321 24.7201607,29.7806199 24.6472302,29.7921331 C24.3879376,29.8331053 24.2347015,29.7377835 24.1146529,29.498813 C23.9530585,29.1771607 23.745944,28.8783914 23.5581069,28.5699321 C23.53885,28.538322 23.5178312,28.5077568 23.4922031,28.4683415 C23.4633587,28.5073675 23.4721267,28.5443654 23.4720653,28.5780855 C23.4713892,28.9499493 23.4694021,29.3218541 23.4734788,29.6936974 C23.4743187,29.7712373 23.4519889,29.7956567 23.3758215,29.7896748 C23.2743948,29.7817262 23.141399,29.8211209 23.0787935,29.7702334 C23.0126849,29.7165189 23.0583074,29.5783606 23.0579182,29.4773641 C23.0558081,28.9417344 23.0597619,28.4060432 23.0543536,27.8704545 C23.0533498,27.7725104 23.0844886,27.7432768 23.1739105,27.7572278 C23.187247,27.7593174 23.2017511,27.7600959 23.2147188,27.7571254 C23.4379149,27.706074 23.5515514,27.81885 23.6550267,28.0058267 C23.8577162,28.3720978 24.0869557,28.7236803 24.3052147,29.0813472 C24.3124463,29.0799132 24.3196779,29.0784382 24.3269095,29.0770041"/><path id="Fill-19" fill="#676767" d="M13.9498267,28.8291714 C14.1618374,28.9208263 14.2107172,29.0980106 14.2240127,29.2918706 C14.2351571,29.4546327 14.2302405,29.6190747 14.3015731,29.7877982 C14.1627593,29.7877982 14.0320374,29.7892527 13.9013566,29.7871427 C13.8414962,29.7861593 13.8471913,29.7296177 13.8420288,29.6949347 C13.8230177,29.566958 13.8127542,29.4377112 13.796775,29.3092633 C13.7681354,29.0789175 13.6807417,28.9996568 13.4501296,28.9952113 C13.3410001,28.9931217 13.2316863,28.9978745 13.1226797,28.9936749 C13.0583738,28.991196 13.0335037,29.0073186 13.035204,29.0780981 C13.0402436,29.286114 13.0348353,29.4943348 13.0382974,29.7023917 C13.0393627,29.766042 13.0259034,29.7942514 12.9551648,29.7898878 C12.8566062,29.783783 12.75731,29.7859545 12.6584851,29.7892118 C12.6044837,29.7909941 12.5888118,29.7711021 12.5889347,29.7182684 C12.5903892,29.087112 12.5904917,28.4559351 12.5887906,27.8247992 C12.5886479,27.7691384 12.6090316,27.7564166 12.6603083,27.7566419 C13.0117065,27.7584037 13.3631661,27.7534461 13.7144823,27.7591412 C13.9652937,27.7631975 14.1706874,27.9278238 14.2293596,28.1654831 C14.293604,28.4256771 14.2148759,28.7018913 13.9827274,28.8079274 C13.9735906,28.8121065 13.9656215,28.8188669 13.9498267,28.8291714"/><path id="Fill-21" fill="#676767" d="M21.7787801,29.8356497 C21.2723431,29.8333143 20.890687,29.4990015 20.8228575,28.9905364 C20.7724822,28.6128751 20.8359891,28.26582 21.1069793,27.9746509 C21.4717344,27.5827518 22.3806619,27.5701323 22.6687785,28.2835814 C22.8080635,28.6284445 22.8101531,28.9772819 22.6459774,29.3146471 C22.4716202,29.672949 22.1716422,29.8351785 21.7787801,29.8356497"/><path id="Fill-23" fill="#676767" d="M16.6628364,28.7727937 C16.6628364,28.4623268 16.6647006,28.1518189 16.6613409,27.8413724 C16.6606239,27.7750179 16.6783648,27.7555357 16.745928,27.7559864 C17.1894522,27.7589773 17.6329968,27.7591822 18.0765005,27.7558138 C18.1469727,27.7552898 18.1648776,27.7793405 18.1585269,27.8431342 C18.1491443,27.9372884 18.1984953,28.0594061 18.1381432,28.1188158 C18.0830971,28.1730015 17.9626388,28.1330946 17.8711068,28.1338935 C17.6459441,28.1357987 17.4207198,28.1365158 17.195598,28.1332585 C17.1301244,28.1322956 17.1038612,28.1495039 17.108573,28.2191157 C17.1145345,28.3074108 17.1149237,28.3967917 17.1084706,28.4850049 C17.1032262,28.5568497 17.1334022,28.5701451 17.1968272,28.5694896 C17.4560993,28.5668059 17.7154534,28.5707802 17.9746846,28.5668469 C18.0479224,28.5657611 18.0754148,28.5818632 18.0748002,28.6620253 C18.072895,28.9216252 18.0763776,28.9216457 17.8145447,28.9216662 C17.6064468,28.9216662 17.3982875,28.9237353 17.1902307,28.9203551 C17.1287723,28.9193513 17.1054182,28.9350436 17.108614,28.9999436 C17.1138175,29.1054266 17.1145755,29.2116675 17.1084706,29.3170685 C17.1041276,29.3918838 17.1242039,29.4168768 17.2035876,29.4155247 C17.4969076,29.4105466 17.7904326,29.4162418 18.0837526,29.4116938 C18.1596536,29.4105261 18.1881703,29.429148 18.1797915,29.507282 C18.1729081,29.5713625 18.1749567,29.6370205 18.1793613,29.7015312 C18.1836224,29.7641163 18.1690772,29.7906048 18.0974373,29.7900602 C17.6470913,29.786692 17.1967248,29.7869788 16.7463992,29.7898468 C16.6789589,29.7902771 16.6606648,29.7707128 16.6613614,29.7041944 C16.6646801,29.3937685 16.6628364,29.0832606 16.6628364,28.7727937"/><path id="Fill-25" fill="#676767" d="M25.1225467,28.7714723 C25.1225467,28.4610259 25.1246158,28.1505385 25.1209283,27.8401535 C25.1201089,27.7717094 25.141353,27.7557098 25.2068676,27.7561195 C25.6469296,27.7588237 26.0870326,27.7593563 26.5270741,27.7557607 C26.6018074,27.7551772 26.6214536,27.7796581 26.6155536,27.848983 C26.6100428,27.9133094 26.6101657,27.9788649 26.6154921,28.0432323 C26.6213921,28.1145034 26.5960918,28.1368947 26.5241446,28.1359934 C26.2376259,28.1323673 25.9509843,28.1368333 25.6644862,28.1329614 C25.5874994,28.1319166 25.5513209,28.1479777 25.559331,28.2337121 C25.5669108,28.314878 25.5655178,28.3976214 25.5596383,28.4790946 C25.5542709,28.5536231 25.5847747,28.5706266 25.6538744,28.5697252 C25.913085,28.5663654 26.1724186,28.5705651 26.4316293,28.56698 C26.5017533,28.5659967 26.5251279,28.5851717 26.5254352,28.6581022 C26.5266029,28.921656 26.5293276,28.9216355 26.2680888,28.9216355 C26.0668128,28.9216355 25.8653934,28.9261219 25.6643223,28.9195664 C25.576314,28.9167393 25.5527549,28.9461778 25.559331,29.0294743 C25.5665421,29.1210063 25.5660299,29.2139312 25.5594744,29.3055451 C25.5535334,29.3883089 25.577031,29.4174402 25.6653875,29.4156989 C25.955225,29.4099832 26.2453287,29.4165388 26.5352276,29.4116426 C26.6164959,29.4102701 26.6450741,29.4335628 26.6358348,29.5141346 C26.6258171,29.601303 26.6721157,29.7150418 26.6171515,29.7702929 C26.5621668,29.8255234 26.4487352,29.7871529 26.3611366,29.7875831 C25.9824715,29.7894064 25.6037653,29.7853297 25.2251616,29.7906151 C25.1372148,29.7918442 25.119146,29.7650894 25.1205186,29.6822846 C25.1255992,29.3787624 25.1225467,29.0750764 25.1225467,28.7714723"/><g transform="translate(14.504162, 27.691478)"><mask id="mask-6" fill="white"><use xlink:href="#path-5"/></mask><g id="Clip-28"/><path id="Fill-27" fill="#676767" d="M1.63319735,0.750276959 C1.61613242,0.750276959 1.59873972,0.748146404 1.58204354,0.750645708 C1.48125191,0.765477648 1.42651304,0.735834255 1.37681375,0.631293662 C1.23982316,0.343177083 0.81246253,0.314557994 0.608892106,0.567868681 C0.410053972,0.815258883 0.399114392,1.31555005 0.589143501,1.57123712 C0.71158895,1.73600687 0.881951398,1.7909506 1.07767564,1.75872596 C1.26754086,1.72742319 1.37683423,1.59860656 1.4165363,1.41855419 C1.43612102,1.32980838 1.4724224,1.30155804 1.55797237,1.31108408 C1.6186727,1.31784449 1.68072511,1.31235422 1.74216294,1.31239519 C1.87134832,1.31247713 1.87380665,1.3129688 1.85026812,1.43551668 C1.79079695,1.74520513 1.630022,1.98407311 1.3254346,2.08730259 C0.986102755,2.20231158 0.655108758,2.16781298 0.369798776,1.93359535 C-0.117483714,1.53354269 -0.109022953,0.619186374 0.379898426,0.221407675 C0.743649704,-0.0745345953 1.32977765,-0.0474314786 1.64245707,0.279895505 C1.74931259,0.391770123 1.80790285,0.526875985 1.84145909,0.676649898 C1.85614763,0.742266892 1.83305979,0.754333207 1.77653862,0.750850569 C1.72892892,0.747941543 1.68099143,0.750256472 1.63319735,0.750276959" mask="url(#mask-6)"/></g><path id="Fill-29" fill="#676767" d="M12.4254925,29.7883165 C12.2817825,29.7883165 12.1523717,29.7867801 12.0230225,29.789136 C11.9770517,29.7899759 11.9580815,29.7716818 11.9449909,29.7287634 C11.9112298,29.6181794 11.868885,29.5102177 11.8359024,29.3994493 C11.8213368,29.350549 11.796692,29.3363521 11.7483653,29.3368438 C11.5470893,29.3389129 11.3457314,29.3400806 11.1445168,29.3362292 C11.0876474,29.3351434 11.067571,29.3610174 11.0525137,29.4074798 C11.0179332,29.5142944 10.9799315,29.6200027 10.9447773,29.7266329 C10.9321169,29.7650853 10.9172235,29.7907749 10.8680773,29.7894228 C10.7421493,29.7859197 10.6160778,29.7882346 10.4747236,29.7882346 C10.5466708,29.5925923 10.6147052,29.4060663 10.6838458,29.21995 C10.8533683,28.763663 11.0251853,28.3082364 11.191471,27.8508022 C11.21798,27.7778717 11.2520279,27.7497852 11.3299775,27.7557057 C11.4283723,27.7631831 11.5277914,27.7595981 11.6266368,27.7565661 C11.6677524,27.7553369 11.6883615,27.7708859 11.7017389,27.8075765 C11.9407298,28.4627017 12.1802943,29.1176015 12.4254925,29.7883165"/><path id="Fill-31" fill="#676767" d="M9.39045762,27.7575515 C9.54525063,27.7680609 9.73323113,27.739913 9.9197776,27.7753744 C10.2389511,27.8360747 10.4261327,28.0838951 10.4162583,28.43642 C10.4068347,28.7729043 10.2046779,29.005524 9.88757344,29.0502657 C9.71069641,29.0752178 9.53336869,29.0633768 9.35630728,29.0632948 C9.28929723,29.0632539 9.26823752,29.0818348 9.269733,29.1494389 C9.27393266,29.3370507 9.26946669,29.5248263 9.27223231,29.712479 C9.27305175,29.7681398 9.25959238,29.7922929 9.19887157,29.7895273 C9.10012854,29.7850408 9.00095531,29.7864339 8.90206888,29.7890971 C8.85198035,29.7904491 8.82854425,29.7785057 8.82868765,29.7216568 C8.83028557,29.090357 8.83049043,28.4590367 8.82842016,27.8277369 C8.82821647,27.7647831 8.85480744,27.7557487 8.9077845,27.7566501 C9.05790668,27.7592109 9.20806983,27.7575515 9.39045762,27.7575515"/><path id="Fill-33" fill="#676767" d="M18.4686128,28.7690324 C18.4686128,28.4621711 18.4706409,28.1553097 18.4670558,27.8484893 C18.4662569,27.7790414 18.4817034,27.7502994 18.5563138,27.7560355 C18.6410443,27.7625091 18.7270655,27.7625911 18.811796,27.756056 C18.8906265,27.7499511 18.9153328,27.7731004 18.9146158,27.8559053 C18.9104161,28.3365912 18.9150869,28.8173592 18.9103751,29.2980451 C18.9094533,29.391175 18.9333196,29.4184624 19.0278834,29.4159017 C19.2834066,29.4089979 19.5392576,29.4157993 19.7949037,29.4120298 C19.8622415,29.411026 19.8850835,29.4307131 19.8797162,29.4976412 C19.8742873,29.5654093 19.873345,29.634427 19.8799005,29.7019901 C19.8872755,29.7779116 19.8546412,29.7902852 19.7869346,29.7897936 C19.3812483,29.7869255 18.9755005,29.7864134 18.5698141,29.7900789 C18.4916391,29.7907564 18.4651506,29.7726057 18.4665437,29.6895551 C18.4717267,29.3827757 18.4686128,29.0758938 18.4686128,28.7690324"/><path id="Fill-35" fill="#686868" d="M8.47244453,29.5722926 C8.47244453,29.788462 8.47244453,29.7884825 8.25582446,29.7884825 C8.03062071,29.7884825 8.03062071,29.788462 8.03062071,29.5592225 C8.03062071,29.3466382 8.03062071,29.3466382 8.24361474,29.3466382 C8.47244453,29.3466382 8.47244453,29.3466382 8.47244453,29.5722926"/><path id="Fill-37" fill="#686868" d="M20.5340895,29.5762321 C20.5340895,29.7884476 20.5340895,29.7884681 20.323226,29.7884681 C20.0954615,29.7884681 20.0954615,29.7884476 20.0954406,29.5602734 C20.0954205,29.3466443 20.0954205,29.3466443 20.3087833,29.3466443 C20.5340895,29.3466443 20.5340895,29.3466443 20.5340895,29.5762321"/><path id="Fill-39" fill="#FEFEFE" d="M5.07232064,8.55335645 C5.07232064,7.30421621 5.07338592,6.05507596 5.07010619,4.80593572 C5.06986231,4.7149979 5.09282723,4.69361041 5.1828022,4.693834 C6.4694525,4.69697013 7.75616426,4.69180763 9.04279408,4.6976052 C9.77312372,4.70088298 10.5009745,4.74228539 11.2107361,4.93800964 C11.6783315,5.06694918 12.1163449,5.25687586 12.4926132,5.57031327 C12.9671943,5.96561314 13.2397004,6.48163764 13.3843938,7.07323538 C13.5086215,7.58114737 13.5252358,8.09827812 13.5165497,8.61745747 C13.5089698,9.07165491 13.4735698,9.52300477 13.3649115,9.96583241 C13.1615869,10.7944954 12.743568,11.4734254 11.9917689,11.9144707 C11.5008603,12.2024849 10.96183,12.336423 10.4005721,12.395464 C10.1252184,12.4244313 9.84918863,12.4247591 9.5729335,12.4246976 C8.12243533,12.4243084 6.67193717,12.4247386 5.22145948,12.424206 C5.04902794,12.4241445 5.07275085,12.4438726 5.0726689,12.2803116 C5.07203383,11.0379932 5.07232064,9.79567482 5.07232064,8.55335645"/><path id="Fill-41" fill="#FEFEFE" d="M23.1758259,4.75800643 C22.6459733,4.76007553 22.1801193,4.71002797 21.7382955,4.52751726 C21.2217384,4.314134 20.8459617,3.96369869 20.7196854,3.40098636 C20.5542601,2.66383485 20.9066006,1.9762802 21.605607,1.6423362 C22.0126454,1.44786161 22.4471557,1.37390677 22.892667,1.35702622 C23.4166811,1.33719567 23.9355531,1.37083385 24.4326895,1.55824074 C24.8760702,1.72538687 25.2358472,1.99359095 25.4289287,2.4402495 C25.7413828,3.16308122 25.483094,3.95605737 24.8096338,4.37040933 C24.4506763,4.59124954 24.0532253,4.68706305 23.6403279,4.73368942 C23.4673022,4.75321268 23.2936825,4.76048525 23.1758259,4.75800643"/><path id="Fill-43" fill="#FEFEFE" d="M13.3500284,28.1088349 C13.4324849,28.1165377 13.5316582,28.0951297 13.6289467,28.123462 C13.7513716,28.1590873 13.8167018,28.2546755 13.8117442,28.3950873 C13.8064178,28.5452709 13.7454102,28.6351434 13.620363,28.6599111 C13.4418881,28.6952907 13.2606065,28.6688841 13.080718,28.6756035 C13.0337024,28.6773653 13.0372055,28.6436247 13.037185,28.6127931 C13.0371236,28.4663789 13.0395614,28.3199442 13.0359559,28.173612 C13.0345219,28.1149808 13.0613791,28.1064176 13.1098288,28.1081384 C13.1846235,28.1108221 13.2596027,28.1088349 13.3500284,28.1088349"/><path id="Fill-45" fill="#FEFEFE" d="M22.318841,28.782797 C22.3260726,28.9103231 22.3037222,29.0370911 22.2491677,29.1567709 C22.1600122,29.3523722 22.0072473,29.455151 21.7910779,29.4572201 C21.5752773,29.4592687 21.4151784,29.3633118 21.3288909,29.1656823 C21.210891,28.8953682 21.2158691,28.6208134 21.3430468,28.3548833 C21.4288426,28.175466 21.5831849,28.0909608 21.7805481,28.0888712 C21.9779317,28.0867816 22.1294879,28.170283 22.2249327,28.3449475 C22.2985188,28.4796232 22.3249458,28.6260579 22.318841,28.782797"/><path id="Fill-47" fill="#FDFDFD" d="M11.193155,29.0037827 C11.2794629,28.7552043 11.3606903,28.5212735 11.4501122,28.2637017 C11.5121441,28.4448603 11.5680302,28.605328 11.6219906,28.7664102 C11.7014562,29.0035779 11.7008826,29.0037827 11.4530212,29.0037827 L11.193155,29.0037827 Z"/><path id="Fill-49" fill="#FDFDFD" d="M9.27139238,28.4026241 C9.27139238,28.3242238 9.27208891,28.245803 9.27108509,28.1674027 C9.27063439,28.1318797 9.27835765,28.1070096 9.32109167,28.1089353 C9.47051732,28.1156548 9.62119262,28.0919523 9.76949153,28.1248325 C9.92422308,28.1591468 9.99178626,28.2521742 9.98824216,28.4216967 C9.98496438,28.5783949 9.90799809,28.671791 9.75629848,28.6985664 C9.61426832,28.7236209 9.47064023,28.7073549 9.32777014,28.7114726 C9.28259828,28.7127837 9.26979446,28.6898393 9.27079828,28.6480681 C9.27276495,28.5662876 9.27139238,28.4844456 9.27139238,28.4026241"/></g></g></svg>