<?xml version="1.0" encoding="utf-8"?><!--Generator: Adobe Illustrator 19.2.0, SVG Export Plug-In . SVG Version: 6.00 Build 0)--><svg xmlns="http://www.w3.org/2000/svg" xmlns:xlink="http://www.w3.org/1999/xlink" id="Layer_1" width="512px" height="512px" x="0px" y="0px" enable-background="new 0 0 512 512" version="1.1" viewBox="0 0 512 512" xml:space="preserve"><path fill="#0198BB" d="M512,472.586c0,22.094-17.906,40-40,40H40c-22.09,0-40-17.906-40-40v-432c0-22.09,17.91-40,40-40h432
	c22.094,0,40,17.91,40,40V472.586z"/><g><path fill="#FFFFFF" d="M26.385,230.109h20.017l-0.014,4.67c9.081-9.725,32.904-10.395,40.17,9.391
		c4.481,11.783,3.636,23.212-4.879,33.163c-8.983,10.497-25.763,10.689-35.354,3.91c0,6.299,0,12.446,0,18.593
		c-6.045,0-19.94-0.015-19.94-0.015C26.448,277.168,26.385,252.763,26.385,230.109z M45.886,257.043
		c-0.085,6.509,4.422,11.207,10.863,11.323c6.143,0.111,10.902-4.449,11.002-10.542c0.114-7.046-4.115-11.773-10.624-11.873
		C50.54,245.851,45.974,250.356,45.886,257.043z"/><path fill="#FFFFFF" d="M485.615,284.419h-19.99v-5.085c-1.136,0.943-2.058,1.815-3.055,2.543
		c-9.355,6.817-24.195,5.216-32.137-3.447c-9.929-10.832-9.882-30.529-0.121-41.466c9.603-10.586,25.931-11.256,35.305-3.873
		c0-4.801,0.008-15.844,0.008-15.844s12.318-2.454,17.625-3.489c0.305-0.06,2.365-0.423,2.365-0.423
		C485.562,236.547,485.615,261.206,485.615,284.419z M444.254,257.107c-0.005,6.661,4.41,11.299,10.788,11.333
		c6.521,0.036,11.052-4.572,11.078-11.264c0.024-6.512-4.517-11.069-11.028-11.066C448.653,246.113,444.259,250.572,444.254,257.107
		z"/><path fill="#FFFFFF" d="M346.439,228.263c6.088,0.093,11.204,0.947,16.076,3.033c11.478,4.915,17.515,15.391,16.516,27.865
		c-1.194,14.915-11.341,23.572-24.721,26.093c-7.949,1.499-15.755,0.882-23.232-2.303c-11.816-5.03-17.024-15.069-16.404-27.15
		c0.885-17.229,13.445-25.324,26.872-27.117C343.435,228.432,345.348,228.354,346.439,228.263z M335.814,257.205
		c0.002,6.491,4.711,11.256,11.032,11.163c6.414-0.094,10.864-4.635,10.87-11.09c0.006-6.73-4.488-11.353-11.011-11.327
		C340.281,245.977,335.811,250.594,335.814,257.205z"/><path fill="#FFFFFF" d="M124.898,228.273c8.347,0.207,16.149,2.093,22.721,7.587c5.471,4.574,8.28,10.554,8.894,17.584
		c0.701,8.029-0.777,15.499-6.161,21.8c-4.613,5.399-10.637,8.37-17.495,9.808c-8.131,1.705-16.098,1.192-23.808-1.964
		c-12.793-5.237-17.86-16.442-16.621-29.008c1.387-14.061,11.271-22.458,24.302-25.001
		C119.422,228.553,122.144,228.265,124.898,228.273z M124.566,245.952c-6.521-0.052-11.079,4.504-11.209,11.206
		c-0.122,6.297,4.709,11.193,11.052,11.198c6.311,0.005,10.922-4.62,10.994-11.023C135.474,250.808,130.898,246.002,124.566,245.952
		z"/><path fill="#FFFFFF" d="M274.393,234.562c6.577-6.417,14.392-7.493,22.69-5.266c7.525,2.019,11.055,7.669,12.453,14.944
		c0.374,1.946,0.49,3.913,0.487,5.895c-0.015,10.775-0.032,23.51,0.022,34.285h-20.25c0,0,0.024-29.228-0.35-31.534
		c-0.127-5.061-4.05-6.281-7.496-6.285c-3.897-0.02-7.557,2.587-7.564,7.026c0,0,0.007,7.975,0.007,15.102
		c-0.041,4.653-0.076,11.038,0,15.691h-20.336c0.044-17.024,0.048-37.288-0.004-54.31h20.339L274.393,234.562z"/><path fill="#FFFFFF" d="M187.678,228.322c9.484-0.469,20.247,2.664,20.247,2.664l-3.54,15.164c0,0-12.27-4.305-20.789-2.602
		c-0.5,0.073-0.991,0.217-1.477,0.361c-1.196,0.352-2.131,1.053-2.117,2.376c0.015,1.37,1.077,1.965,2.256,2.232
		c4.286,0.971,8.702,1.219,12.966,2.325c2.285,0.592,4.529,1.287,6.664,2.303c5.91,2.81,8.542,7.408,8.347,13.941
		c-0.231,7.737-4.191,12.708-11.07,15.671c-5.545,2.387-11.437,2.988-17.373,3.118c-12.183,0.649-23.425-3.393-23.425-3.393
		c1.174-4.229,4.085-15.747,4.085-15.747c6.601,2.54,15.016,4.613,22.151,4.08c0.965-0.073,1.902-0.244,2.778-0.636
		c0.985-0.439,1.68-1.116,1.668-2.321c-0.011-1.215-0.72-1.856-1.741-2.248c-2.223-0.852-4.584-1.04-6.913-1.347
		c-4.05-0.533-8.053-1.262-11.859-2.792c-11-4.424-13.288-18.58-4.27-26.388c4.953-4.288,11.002-5.676,17.279-6.369
		C183.757,228.47,185.992,228.425,187.678,228.322z"/><path fill="#FFFFFF" d="M213.913,251.066c0-10.459,0.032-22.713-0.036-33.172l20.186,0c-0.093,2.931-0.053,12.214-0.053,12.214
		l18.524-0.008c-2.616,4.736-6.519,12.137-9.05,16.92h-9.451c0.062,11.032,0.002,26.366,0.001,37.399h-20.159
		C213.949,273.962,213.913,261.525,213.913,251.066z"/><path fill="#FFFFFF" d="M403.759,235.944c4.582-6.167,10.665-6.985,17.221-6.481c1.192,0.091,1.715,0.247,1.715,0.247
		c-0.2,5.153-0.359,13.616-0.45,18.772c0,0-0.352-0.115-1.562-0.428c-2.293-0.592-4.645-0.775-7.014-0.574
		c-6.612,0.562-9.874,4.052-9.901,10.69c-0.033,8.03-0.051,18.219,0.027,26.248h-20.092c0.051-17.016,0.045-37.295,0.008-54.31
		h20.068C403.779,230.109,403.759,230.109,403.759,235.944z"/></g></svg>