<?xml version="1.0" encoding="utf-8"?>
<!-- Generator: Adobe Illustrator 27.4.1, SVG Export Plug-In . SVG Version: 6.00 Build 0)  -->
<svg version="1.1" id="Layer_1" xmlns="http://www.w3.org/2000/svg" xmlns:xlink="http://www.w3.org/1999/xlink" x="0px" y="0px"
	 viewBox="0 0 512 512" style="enable-background:new 0 0 512 512;" xml:space="preserve">
<style type="text/css">
	.st0{fill:#76CCCD;}
	.st1{fill:#FFFFFF;}
</style>
<path class="st0" d="M511.8,472.3c0,22.1-17.9,40-40,40h-432c-22.1,0-40-17.9-40-40v-432c0-22.1,17.9-40,40-40h432
	c22.1,0,40,17.9,40,40V472.3z"/>
<g>
	<path class="st1" d="M94.3,376.6c0,4.3-3.2,7-8.7,7h-9.8c-0.5,0-0.9-0.4-0.9-0.8c0,0,0,0,0,0v-12.3c0-0.5,0.4-0.9,0.8-0.9
		c0,0,0,0,0,0h9.8c5.4,0,8.8,2.3,8.8,6.9L94.3,376.6z M112.6,414L112.6,414l-14-20.4c7.3-3.1,12.1-9,12.1-18v-0.2
		c0.2-5.1-1.6-10-5.2-13.6c-3.9-4-10.1-6.4-19.1-6.4H59.5c-0.5,0-0.9,0.4-0.9,0.8c0,0,0,0,0,0v56.9c0,0.5,0.4,0.9,0.8,0.9
		c0,0,0,0,0,0h14.6c0.5,0,0.9-0.4,0.9-0.8c0,0,0,0,0,0v-16c0-0.5,0.4-0.9,0.8-0.9c0,0,0,0,0,0H82c0,0,0.1,0,0.6,0.7l10.9,16.3
		c0.3,0.4,0.8,0.7,1.4,0.7L112.6,414z M176,384.8c0,8.5-6,15.7-15,15.7s-15-7.4-15-15.8v-0.2c0-8.5,6-15.7,14.8-15.7
		s15.1,7.4,15.1,15.8L176,384.8z M192.6,384.7v-0.2c0-16.8-13.5-30.3-31.5-30.3s-31.7,13.6-31.7,30.6v0.2
		c0,16.8,13.5,30.3,31.5,30.3S192.7,401.5,192.6,384.7 M244.1,390.1c0,0,0.3,0.8-0.6,0.8h-11.4c0,0-0.9,0-0.6-0.8l6-15
		c0,0,0.3-0.8,0.6,0L244.1,390.1z M253.1,413.2c0.2,0.5,0.7,0.8,1.2,0.8H270c0,0,0.9,0,0.5-0.8l-24.3-57.4c-0.2-0.5-0.7-0.8-1.2-0.8
		h-13.9c-0.5,0-1,0.3-1.2,0.8l-24.3,57.4c0,0-0.3,0.8,0.5,0.8h15.3c0.5,0,1-0.3,1.2-0.8l3.5-8.8c0.2-0.5,0.7-0.8,1.2-0.8h21
		c0.5,0,1,0.3,1.2,0.8L253.1,413.2z M328.2,384.8c0,9.5-6.5,14.8-16.2,14.8h-5.8c-0.5,0-0.9-0.4-0.9-0.8c0,0,0,0,0,0v-28.1
		c0-0.5,0.4-0.9,0.8-0.9c0,0,0,0,0,0h5.7c9.7,0,16.2,5.4,16.2,14.8L328.2,384.8z M344.8,384.5v-0.2c0-16.9-12.2-29-33.1-29H290
		c-0.5,0-0.9,0.4-0.9,0.8c0,0,0,0,0,0v56.9c0,0.5,0.4,0.9,0.8,0.9c0,0,0,0,0,0h21.4C332.5,414,344.8,401.4,344.8,384.5 M366.1,413.1
		c0,0.5,0.4,0.9,0.8,0.9c0,0,0,0,0,0h14.6c0.5,0,0.9-0.4,0.9-0.8c0,0,0,0,0,0v-56.9c0-0.5-0.4-0.9-0.8-0.9c0,0,0,0,0,0H367
		c-0.5,0-0.9,0.4-0.9,0.8c0,0,0,0,0,0L366.1,413.1z M422.7,400.1c-0.5,0-0.9-0.4-0.9-0.8c0,0,0,0,0,0v-7.5c0-0.5,0.4-0.9,0.8-0.9
		c0,0,0,0,0,0h26.4c0.5,0,0.9-0.4,0.9-0.9c0,0,0,0,0,0v-11c0-0.5-0.4-0.9-0.9-0.9c0,0,0,0,0,0h-26.4c-0.5,0-0.9-0.4-0.9-0.8
		c0,0,0,0,0,0v-7.1c0-0.5,0.4-0.9,0.8-0.9c0,0,0,0,0,0H452c0.5,0,0.9-0.4,0.9-0.9c0,0,0,0,0,0v-12.1c0-0.5-0.4-0.9-0.8-0.9
		c0,0,0,0,0,0h-45.4c-0.5,0-0.9,0.4-0.9,0.8c0,0,0,0,0,0v56.9c0,0.5,0.4,0.9,0.8,0.9c0,0,0,0,0,0h45.8c0.5,0,0.9-0.4,0.9-0.8
		c0,0,0,0,0,0v-12c0-0.5-0.4-0.9-0.9-0.9c0,0,0,0,0,0L422.7,400.1z"/>
	<g>
		<path class="st1" d="M256,313c-59.7,0-108.1-48.4-108.1-108.1S196.3,96.8,256,96.8s108.1,48.4,108.1,108.1c0,0,0,0,0,0
			C364.1,264.6,315.7,313,256,313C256,313,256,313,256,313z"/>
		<path class="st0" d="M303.2,186.2c0,0,3.5-31.4-41.5-31.4h-48c-0.8,0-1.5,0.7-1.6,1.5c0,0,0,0.1,0,0.1v46.4H148c0,0.7,0,1.4,0,2.1
			c0,2.5,0,5.1,0.3,7.6h127.9C291.6,212.4,303.2,204.4,303.2,186.2z M275.9,190.4c0,7.6-5.7,12.4-15.6,12.4h-17.7
			c-0.8,0-1.5-0.7-1.6-1.5c0,0,0,0,0-0.1v-22c0-0.8,0.6-1.5,1.5-1.6c0,0,0.1,0,0.1,0h17.6c9.7,0,15.7,4.2,15.7,12.4V190.4z"/>
		<path class="st0" d="M213.8,257.3h25.9c0.8,0,1.5-0.6,1.6-1.5c0,0,0-0.1,0-0.1v-28.7c0-0.6,0.4-1.2,1-1.5h11.7
			c0.3,0.4,0.6,0.8,0.9,1.2l19.4,29.1c0.6,0.8,1.5,1.3,2.4,1.3h32l-25.2-34.6l0,0l-1-1.4c-2.7-3.1-6.6-5-10.7-5.1H148.5
			c0.3,3.3,0.8,6.5,1.5,9.6h62.2v30c0,0.8,0.7,1.5,1.5,1.6C213.7,257.3,213.7,257.3,213.8,257.3z"/>
	</g>
</g>
</svg>
