<?xml version="1.0" encoding="utf-8"?><!--Generator: Adobe Illustrator 18.1.1, SVG Export Plug-In . SVG Version: 6.00 Build 0)--><svg xmlns="http://www.w3.org/2000/svg" xmlns:xlink="http://www.w3.org/1999/xlink" width="512px" height="512px" x="0px" y="0px" enable-background="new 0 0 512 512" version="1.1" viewBox="0 0 512 512" xml:space="preserve"><g id="Layer_1"><path fill="#0051A0" d="M512,472c0,22.1-17.9,40-40,40H40c-22.1,0-40-17.9-40-40V40C0,17.9,17.9,0,40,0h432c22.1,0,40,17.9,40,40
		V472z"/><path fill="#FFFFFF" fill-rule="evenodd" d="M216.1,194.8c-2.9,13.4-7.4,25.3-10.5,38.4c-18.9,0-37.8,0-56.8,0
		c4.2,6.2,10.8,13.3,17.9,21c10,10.9,27,23.1,22.8,43.2c-5.4,25.7-39.7,20.4-74,20.4c-17.5,0-35,0-50.6,0
		c3.2-12.6,6.8-25.1,11.1-36.7c20,0,42.6,0.4,63.6,0c-6.2-6.4-12.8-13.5-20.4-20.7c-10.9-10.3-27.9-21.9-25.9-42
		c3-30.5,58.7-25,102.7-24.2C201.8,194.3,207.6,194.5,216.1,194.8z" clip-rule="evenodd"/><path fill="#FFFFFF" fill-rule="evenodd" d="M222.9,194.8c57.6-2.9,106,1.7,106.1,52.6
		c0.1,33.6-21.6,71.3-54.3,71.3c-27.5,0-54.9-0.2-85.8,0C199.5,276.7,211.1,235.5,222.9,194.8z M238.3,282
		c31.8,3.6,51.5-2,50.2-33.1c-0.6-15.5-14.4-17.2-35.4-15.1C247.5,249.2,243.2,265.9,238.3,282z" clip-rule="evenodd"/><path fill="#FFFFFF" fill-rule="evenodd" d="M423.4,318.7c-12.8,0-25.5,0-38.3,0c2.8-12.4,9.9-36.1,9.9-36.1
		h-27.1c0,0-7.9,23.4-12.3,36.1c-13,0-25.9,0-38.9,0c4.7-18.4,11.2-36.5,16.7-55.2c8.5-29.2,15.4-64.2,46.9-67.9
		c35.9-4.2,69.2,3.7,66.6,39.5c-1,14.2-7.1,28.6-11.1,42.6C431.5,292.4,427.7,306.1,423.4,318.7z M372.9,254.8c9.7,0,19.3,0,29,0
		c1.6-6.2,5.6-12.6,3.7-20.4C390.7,223.6,374.1,236.9,372.9,254.8z" clip-rule="evenodd"/></g><g id="Layer_2"/></svg>