<svg width="32" height="32" viewBox="0 0 32 32" fill="none" xmlns="http://www.w3.org/2000/svg">
<g clip-path="url(#clip0_1297_3475)">
<path fill-rule="evenodd" clip-rule="evenodd" d="M32 29.5C32 30.8809 30.8809 32 29.5 32H2.5C1.11913 32 0 30.8809 0 29.5V2.5C0 1.11913 1.11913 0 2.5 0H29.5C30.8809 0 32 1.11913 32 2.5V29.5Z" fill="white"/>
<g clip-path="url(#clip1_1297_3475)">
<path d="M4.42748 16.2103C4.42748 16.1365 4.4087 16.0811 4.38052 16.0442C4.34296 15.9981 4.296 15.9704 4.23965 15.9428C4.1833 15.9151 4.11757 15.8966 4.04243 15.8782C3.9673 15.8597 3.89217 15.8413 3.81704 15.8321C3.71374 15.8044 3.61043 15.7767 3.51652 15.749C3.42261 15.7214 3.33809 15.6752 3.26296 15.6199C3.18783 15.5645 3.13148 15.4907 3.08452 15.4077C3.03757 15.3247 3.01878 15.214 3.01878 15.0756C3.01878 14.928 3.04696 14.8081 3.09391 14.6974C3.14087 14.5682 3.20661 14.476 3.29113 14.4114C3.37565 14.3376 3.47896 14.2915 3.59165 14.2546C3.71374 14.2177 3.84522 14.1992 3.98609 14.1992C4.13635 14.1992 4.27722 14.2177 4.42748 14.2453C4.57774 14.273 4.69983 14.3099 4.80313 14.356V14.7896C4.66226 14.7343 4.52139 14.6974 4.3993 14.6697C4.26783 14.642 4.14574 14.6328 4.03304 14.6328C3.864 14.6328 3.74191 14.6605 3.648 14.725C3.56348 14.7896 3.51652 14.8727 3.51652 14.9926C3.51652 15.0664 3.5353 15.1217 3.56348 15.1679C3.59165 15.214 3.62922 15.2509 3.68557 15.2786C3.73252 15.3062 3.79826 15.3339 3.85461 15.3524C3.92035 15.3708 3.98609 15.3893 4.06122 15.3985C4.17391 15.4262 4.28661 15.4538 4.38991 15.4815C4.49322 15.5092 4.58713 15.5553 4.67165 15.6199C4.75617 15.6752 4.82191 15.749 4.86887 15.8413C4.91583 15.9335 4.944 16.0535 4.944 16.1918C4.944 16.3394 4.91583 16.4686 4.85948 16.5793C4.80313 16.69 4.728 16.773 4.6247 16.8468C4.52139 16.9206 4.3993 16.9667 4.25843 17.0036C4.11757 17.0405 3.95791 17.059 3.78887 17.059C3.63861 17.059 3.49774 17.0405 3.34748 17.0129C3.216 16.976 3.09391 16.9298 3 16.8837V16.4594C3.13148 16.5147 3.26296 16.5608 3.39443 16.5885C3.52591 16.6162 3.65739 16.6254 3.78887 16.6254C3.864 16.6254 3.94852 16.6162 4.02365 16.607C4.09878 16.5977 4.16452 16.5701 4.23026 16.5424C4.28661 16.5147 4.34296 16.4686 4.38052 16.4132C4.4087 16.3579 4.42748 16.2841 4.42748 16.2103Z" fill="#E05B26"/>
<path d="M7.73322 15.7859C7.73322 15.7398 7.73322 15.7029 7.73322 15.666C7.73322 15.6291 7.72382 15.6014 7.71443 15.5738C7.69565 15.5092 7.66748 15.4631 7.62991 15.4262C7.58295 15.3893 7.52661 15.3708 7.44208 15.3708C7.40452 15.3708 7.35756 15.38 7.31061 15.3893C7.26365 15.3985 7.21669 15.4169 7.17913 15.4446C7.13217 15.4631 7.09461 15.4907 7.05704 15.5276C7.01948 15.5553 6.98191 15.5922 6.94435 15.6383V17.0037H6.456V15.7859C6.456 15.7398 6.456 15.7029 6.456 15.666C6.456 15.6291 6.44661 15.6014 6.43721 15.5738C6.41843 15.5092 6.39026 15.4631 6.35269 15.4262C6.30574 15.3893 6.24939 15.3708 6.16487 15.3708C6.1273 15.3708 6.08035 15.38 6.03339 15.3893C5.98643 15.3985 5.93948 15.4169 5.90191 15.4446C5.85495 15.4631 5.81739 15.4907 5.77982 15.5276C5.74226 15.5553 5.70469 15.5922 5.66713 15.6383V17.0037H5.18817V15.011H5.592L5.63895 15.2878H5.64835C5.67652 15.2509 5.71408 15.2048 5.76104 15.1679C5.808 15.131 5.85495 15.0941 5.9113 15.0664C5.96765 15.0387 6.024 15.011 6.08974 14.9926C6.15548 14.9741 6.22121 14.9649 6.29635 14.9649C6.42782 14.9649 6.54052 14.9926 6.64382 15.0479C6.74713 15.1033 6.83165 15.1955 6.87861 15.3155H6.888C6.92556 15.2601 6.97252 15.214 7.01948 15.1679C7.06643 15.1217 7.12278 15.0848 7.17913 15.0572C7.23548 15.0295 7.30121 15.0018 7.36695 14.9834C7.43269 14.9649 7.50782 14.9557 7.57356 14.9557C7.71443 14.9557 7.83652 14.9834 7.93043 15.0479C8.02435 15.1033 8.09948 15.1863 8.15582 15.2878C8.16522 15.3155 8.184 15.3431 8.19339 15.3708C8.20278 15.3985 8.21217 15.4354 8.22156 15.4723C8.23095 15.5092 8.23095 15.5553 8.23095 15.6014C8.23095 15.6476 8.23095 15.7029 8.23095 15.7583V16.9944H7.752V15.7859H7.73322Z" fill="#E05B26"/>
<path d="M9.66783 16.7822C9.63026 16.8099 9.60209 16.8375 9.56452 16.8744C9.52696 16.9021 9.48 16.9298 9.43305 16.9575C9.38609 16.9851 9.32974 17.0036 9.27339 17.022C9.21705 17.0405 9.15131 17.0497 9.07618 17.0497C8.98226 17.0497 8.89774 17.0313 8.81322 17.0036C8.7287 16.9759 8.66296 16.9298 8.60661 16.8744C8.55026 16.8191 8.50331 16.7545 8.46574 16.6715C8.42818 16.5977 8.40939 16.5054 8.40939 16.4132C8.40939 16.3025 8.42818 16.2102 8.46574 16.1272C8.50331 16.0442 8.55965 15.9704 8.62539 15.915C8.69113 15.8597 8.77565 15.8136 8.87896 15.7767C8.97287 15.749 9.08557 15.7305 9.19826 15.7305C9.28278 15.7305 9.36731 15.7398 9.43305 15.749C9.50818 15.7582 9.56452 15.7767 9.62087 15.7859V15.7029C9.62087 15.6567 9.61148 15.6106 9.60209 15.5645C9.58331 15.5183 9.56452 15.4814 9.52696 15.4538C9.48939 15.4169 9.44244 15.3892 9.39548 15.3707C9.33913 15.3523 9.27339 15.3431 9.18887 15.3431C9.09496 15.3431 8.99165 15.3523 8.89774 15.38C8.80383 15.3984 8.69113 15.4353 8.57844 15.4814V15.1032C8.68174 15.0571 8.78505 15.0294 8.89774 15.0017C9.01044 14.9741 9.12313 14.9648 9.24522 14.9648C9.38609 14.9648 9.51757 14.9833 9.62087 15.0202C9.73357 15.0571 9.81809 15.1032 9.89322 15.1678C9.96835 15.2324 10.0247 15.3062 10.0529 15.3892C10.0904 15.4722 10.1092 15.5645 10.1092 15.666V16.4132C10.1092 16.5423 10.1092 16.653 10.1092 16.7545C10.1092 16.8468 10.1186 16.9298 10.1186 17.0036H9.67722L9.66783 16.7822ZM9.63026 16.1457C9.58331 16.1364 9.52696 16.1272 9.47061 16.118C9.41426 16.1088 9.34852 16.1088 9.29218 16.1088C9.17009 16.1088 9.07618 16.1364 9.01044 16.1826C8.9447 16.2287 8.90713 16.3025 8.90713 16.3947C8.90713 16.4409 8.91652 16.4778 8.93531 16.5147C8.95409 16.5516 8.97287 16.5792 9.00105 16.5977C9.02922 16.6161 9.05739 16.6346 9.09496 16.6438C9.13252 16.653 9.17009 16.6623 9.20765 16.6623C9.25461 16.6623 9.30157 16.653 9.34852 16.6438C9.39548 16.6346 9.43305 16.6161 9.47061 16.5977C9.50818 16.5792 9.53635 16.5516 9.57392 16.5331C9.60209 16.5054 9.63026 16.487 9.64905 16.4593V16.1457H9.63026Z" fill="#E05B26"/>
<path d="M11.5461 15.3892H11.5085C11.3583 15.3892 11.2268 15.4076 11.1141 15.4538C11.0014 15.4999 10.9169 15.5645 10.8511 15.6567V16.9851H10.3628V15.011H10.7666L10.8136 15.2877H10.823C10.8793 15.1862 10.9544 15.1032 11.0577 15.0479C11.161 14.9925 11.2737 14.9648 11.4146 14.9648C11.4616 14.9648 11.5085 14.9648 11.5367 14.9741V15.3892H11.5461Z" fill="#E05B26"/>
<path d="M13.152 16.9944C13.0957 17.0129 13.0299 17.0221 12.9548 17.0313C12.8797 17.0405 12.8045 17.0498 12.7482 17.0498C12.5791 17.0498 12.4477 17.0221 12.3444 16.9667C12.241 16.9114 12.1659 16.8376 12.119 16.7361C12.0908 16.6623 12.072 16.5608 12.072 16.4409V15.4077H11.7057V15.011H12.072V14.4575H12.551V15.011H13.1238V15.4077H12.551V16.3763C12.551 16.4501 12.5604 16.5055 12.5885 16.5424C12.6261 16.607 12.7106 16.6346 12.8327 16.6346C12.889 16.6346 12.9454 16.6346 13.0017 16.6254C13.0581 16.6162 13.105 16.607 13.1614 16.5885V16.9944H13.152Z" fill="#E05B26"/>
<path d="M13.4056 16.9945V14.2546H13.9033V15.5093H13.9127L14.9457 14.2546H15.5656L14.4292 15.62L15.6595 17.0037H15.0209L13.9127 15.7676H13.9033V17.0037H13.4056V16.9945Z" fill="#231F20"/>
<path d="M16.8334 16.7823C16.7958 16.81 16.7677 16.8377 16.7301 16.8746C16.6925 16.9022 16.6456 16.9299 16.5986 16.9576C16.5517 16.9853 16.4953 17.0037 16.439 17.0222C16.3826 17.0406 16.3169 17.0498 16.2417 17.0498C16.1478 17.0498 16.0633 17.0314 15.9788 17.0037C15.8943 16.976 15.8285 16.9299 15.7722 16.8746C15.7158 16.8192 15.6689 16.7546 15.6313 16.6716C15.5937 16.5978 15.5844 16.5056 15.5844 16.4133C15.5844 16.3026 15.6031 16.2104 15.6407 16.1273C15.6783 16.0443 15.7346 15.9705 15.8004 15.9152C15.8661 15.8598 15.9506 15.8137 16.0539 15.7768C16.1478 15.7491 16.2605 15.7306 16.3732 15.7306C16.4577 15.7306 16.5423 15.7399 16.608 15.7491C16.6831 15.7583 16.7395 15.7768 16.7958 15.786V15.703C16.7958 15.6568 16.7864 15.6107 16.7677 15.5646C16.7489 15.5185 16.7301 15.4816 16.6925 15.4539C16.655 15.417 16.608 15.3893 16.561 15.3709C16.5047 15.3524 16.439 15.3432 16.3544 15.3432C16.2605 15.3432 16.1572 15.3524 16.0633 15.3801C15.9694 15.3985 15.8567 15.4354 15.744 15.4816V15.1033C15.8473 15.0572 15.9506 15.0295 16.0633 15.0019C16.176 14.9742 16.2887 14.965 16.4108 14.965C16.5517 14.965 16.6831 14.9834 16.7864 15.0203C16.8991 15.0572 16.9837 15.1033 17.0588 15.1679C17.1339 15.2325 17.1903 15.3063 17.2184 15.3893C17.256 15.4723 17.2748 15.5646 17.2748 15.6661V16.4133C17.2748 16.5425 17.2748 16.6532 17.2748 16.7546C17.2748 16.8469 17.2842 16.9299 17.2842 17.0037H16.8428L16.8334 16.7823ZM16.7958 16.1458C16.7489 16.1366 16.6925 16.1273 16.6362 16.1181C16.5798 16.1089 16.5141 16.1089 16.4577 16.1089C16.3357 16.1089 16.2417 16.1366 16.176 16.1827C16.1103 16.2288 16.0727 16.3026 16.0727 16.3949C16.0727 16.441 16.0821 16.4779 16.0915 16.5148C16.1103 16.5517 16.129 16.5794 16.1572 16.5978C16.1854 16.6163 16.2136 16.6347 16.2511 16.6439C16.2887 16.6532 16.3263 16.6624 16.3638 16.6624C16.4108 16.6624 16.4577 16.6532 16.5047 16.6439C16.5517 16.6347 16.5892 16.6163 16.6268 16.5978C16.6644 16.5794 16.6925 16.5517 16.7301 16.5332C16.7583 16.5056 16.7864 16.4871 16.8052 16.4594V16.1458H16.7958Z" fill="#231F20"/>
<path d="M18.7868 15.3893H18.7492C18.599 15.3893 18.4675 15.4078 18.3548 15.4539C18.2421 15.5 18.1576 15.5646 18.0918 15.6568V16.9853H17.6129V15.0111H18.0167L18.0637 15.2878H18.073C18.1294 15.1864 18.2045 15.1033 18.3078 15.048C18.4111 14.9926 18.5238 14.965 18.6647 14.965C18.7117 14.965 18.7586 14.965 18.7868 14.9742V15.3893Z" fill="#231F20"/>
<path d="M20.2518 17.0498C20.2518 17.0222 20.2518 16.9853 20.2518 16.9484C20.2518 16.9115 20.2518 16.8746 20.2612 16.8469C20.233 16.8746 20.1955 16.893 20.1579 16.9207C20.1203 16.9484 20.0734 16.9668 20.0264 16.9853C19.9795 17.0037 19.9325 17.0222 19.8762 17.0314C19.8198 17.0406 19.7635 17.0498 19.7071 17.0498C19.6038 17.0498 19.5005 17.0314 19.3972 16.9945C19.2939 16.9576 19.2094 16.893 19.1343 16.8192C19.0591 16.7362 18.9934 16.6347 18.9464 16.5056C18.8995 16.3764 18.8713 16.2288 18.8713 16.0443C18.8713 15.869 18.8995 15.7122 18.9464 15.5738C18.9934 15.4354 19.0591 15.3247 19.1437 15.2325C19.2282 15.1402 19.3127 15.0757 19.416 15.0295C19.5193 14.9834 19.6226 14.965 19.7353 14.965C19.8574 14.965 19.9607 14.9926 20.0546 15.0388C20.1485 15.0941 20.2237 15.1587 20.2894 15.2325H20.2988L20.3176 15.0111H20.7402V17.0406C20.7402 17.1605 20.7308 17.2528 20.712 17.3358C20.6932 17.4188 20.665 17.4926 20.6275 17.5572C20.5805 17.631 20.5242 17.6956 20.4584 17.7509C20.3927 17.8063 20.3176 17.8524 20.2237 17.8893C20.1391 17.9262 20.0452 17.9539 19.9419 17.9723C19.8386 17.9908 19.7259 18 19.6132 18C19.5475 18 19.4817 18 19.4254 17.9908C19.3597 17.9816 19.3033 17.9816 19.247 17.9723C19.1906 17.9631 19.1437 17.9539 19.0967 17.9447C19.0497 17.9354 19.0122 17.917 18.984 17.9078V17.5111C19.0779 17.5388 19.1718 17.5664 19.2657 17.5757C19.369 17.5941 19.4723 17.6033 19.5757 17.6033C19.7917 17.6033 19.9607 17.5572 20.0734 17.4742C20.1955 17.3912 20.2518 17.262 20.2518 17.096V17.0498ZM19.8198 16.6624C19.8668 16.6624 19.9137 16.6532 19.9607 16.6439C20.0077 16.6347 20.0452 16.6163 20.0828 16.5978C20.1203 16.5794 20.1485 16.5609 20.1861 16.5332C20.2143 16.5056 20.2424 16.4871 20.2612 16.4594V15.5738C20.2049 15.5092 20.1485 15.4631 20.0734 15.417C19.9983 15.3801 19.9137 15.3524 19.8292 15.3524C19.801 15.3524 19.7635 15.3524 19.7353 15.3616C19.6977 15.3709 19.6696 15.3801 19.632 15.3985C19.5944 15.417 19.5663 15.4447 19.5381 15.4723C19.5099 15.5 19.4817 15.5461 19.4536 15.5923C19.4348 15.6384 19.416 15.703 19.3972 15.7675C19.3784 15.8321 19.3784 15.9152 19.3784 16.0074C19.3784 16.1089 19.3878 16.2011 19.4066 16.2749C19.4254 16.358 19.4536 16.4225 19.4911 16.4779C19.5287 16.5332 19.5757 16.5794 19.632 16.607C19.679 16.6439 19.7447 16.6624 19.8198 16.6624Z" fill="#231F20"/>
<path d="M22.9377 16.0074C22.9377 16.1642 22.919 16.3026 22.872 16.4318C22.825 16.5609 22.7593 16.6716 22.6748 16.7639C22.5903 16.8561 22.487 16.9299 22.3649 16.976C22.2428 17.0222 22.1019 17.0498 21.9517 17.0498C21.792 17.0498 21.6605 17.0222 21.5384 16.976C21.4163 16.9299 21.313 16.8561 21.2285 16.7639C21.144 16.6716 21.0783 16.5609 21.0313 16.4318C20.9843 16.3026 20.9656 16.1642 20.9656 16.0074C20.9656 15.8506 20.9843 15.7122 21.0313 15.583C21.0783 15.4539 21.144 15.3432 21.2285 15.2509C21.313 15.1587 21.4163 15.0849 21.5384 15.0388C21.6605 14.9926 21.8014 14.965 21.9517 14.965C22.1113 14.965 22.2428 14.9926 22.3649 15.0388C22.487 15.0849 22.5903 15.1587 22.6748 15.2509C22.7593 15.3432 22.825 15.4539 22.872 15.583C22.919 15.703 22.9377 15.8506 22.9377 16.0074ZM22.44 16.0074C22.44 15.9059 22.4306 15.8044 22.4024 15.7306C22.3743 15.6476 22.3461 15.583 22.2991 15.5277C22.2522 15.4723 22.2052 15.4354 22.1395 15.4078C22.0737 15.3801 22.008 15.3709 21.9423 15.3709C21.8671 15.3709 21.8014 15.3801 21.745 15.4078C21.6887 15.4354 21.6323 15.4723 21.5854 15.5277C21.5384 15.583 21.5103 15.6476 21.4821 15.7306C21.4539 15.8137 21.4445 15.9059 21.4445 16.0074C21.4445 16.1089 21.4539 16.2104 21.4821 16.2842C21.5103 16.3672 21.5384 16.4318 21.5854 16.4871C21.6323 16.5425 21.6793 16.5794 21.745 16.607C21.8014 16.6347 21.8765 16.6532 21.9423 16.6532C22.0174 16.6532 22.0831 16.6347 22.1395 16.607C22.1958 16.5794 22.2522 16.5425 22.2991 16.4871C22.3461 16.4318 22.3743 16.3672 22.4024 16.2842C22.4306 16.2011 22.44 16.1089 22.44 16.0074Z" fill="#231F20"/>
<path d="M26.3937 16.9945H26.2623C26.2623 16.9945 24.5343 16.9945 24.5155 16.9945C23.9332 16.9945 23.4543 16.5332 23.4543 15.9613C23.4543 15.703 23.5482 15.4631 23.7172 15.2786C23.6609 15.1033 23.6327 14.928 23.6327 14.7435C23.6327 13.7841 24.431 13 25.4077 13C25.9805 13 26.5158 13.2675 26.8445 13.7288C26.9572 13.6919 27.0793 13.6734 27.2014 13.6734C27.7085 13.6734 28.1405 14.024 28.2626 14.4945C28.3283 14.476 28.3941 14.476 28.4598 14.476C28.9482 14.476 29.352 14.8635 29.3614 15.3432C29.7089 15.4631 29.9437 15.786 29.9437 16.155C29.9437 16.6255 29.5492 17.0129 29.0703 17.0129C29.0327 17.0129 27.1169 17.0129 27.1169 17.0129H26.9854V15.6015L27.3141 15.9889C27.4268 16.0996 27.6146 16.0996 27.7273 15.9889C27.7837 15.9336 27.8212 15.8598 27.8212 15.786C27.8212 15.7122 27.793 15.6384 27.7367 15.583L26.9009 14.762C26.8445 14.7066 26.7694 14.679 26.6849 14.679C26.6003 14.679 26.5252 14.7066 26.4689 14.762L25.633 15.583C25.5203 15.6937 25.5203 15.8782 25.633 15.9889C25.7551 16.1089 25.9336 16.1089 26.0463 15.9889L26.3937 15.6476V16.9945ZM27.2483 16.2565V16.7362C27.6803 16.7362 29.0421 16.7362 29.0703 16.7362C29.4177 16.7362 29.6901 16.4779 29.6901 16.1365C29.6901 15.8506 29.4835 15.6015 29.2017 15.5461L29.089 15.5184L29.0984 15.4077C29.0984 15.3893 29.0984 15.3708 29.0984 15.3524C29.0984 15.0018 28.8073 14.7159 28.4504 14.7159C28.3659 14.7159 28.2814 14.7343 28.1969 14.762L28.0278 14.8266L28.009 14.6513C27.9715 14.2362 27.6146 13.9133 27.1826 13.9133C27.0605 13.9133 26.9384 13.941 26.8351 13.9871L26.7318 14.0332L26.6661 13.941C26.3843 13.5074 25.9054 13.2491 25.3889 13.2491C24.553 13.2491 23.8769 13.9133 23.8769 14.7343C23.8769 14.9096 23.905 15.0849 23.9708 15.2509L23.999 15.3247L23.9426 15.3801C23.783 15.5277 23.6984 15.7306 23.6984 15.9428C23.6984 16.3764 24.0553 16.7177 24.4967 16.7177C24.5155 16.7177 25.7082 16.7177 26.112 16.7177V16.2288C25.896 16.3579 25.6143 16.3303 25.4264 16.155C25.2104 15.9428 25.2104 15.5923 25.4264 15.3801L26.2623 14.559C26.3656 14.4576 26.5158 14.393 26.6661 14.4022C26.8163 14.4022 26.9572 14.4576 27.0605 14.559L27.8963 15.3801C27.9997 15.4815 28.056 15.6199 28.056 15.7675C28.056 15.9151 27.9997 16.0535 27.8963 16.155C27.7273 16.3487 27.455 16.3764 27.2483 16.2565Z" fill="#E05B26"/>
</g>
</g>
<defs>
<clipPath id="clip0_1297_3475">
<rect width="32" height="32" fill="white"/>
</clipPath>
<clipPath id="clip1_1297_3475">
<rect width="27" height="5" fill="white" transform="translate(3 13)"/>
</clipPath>
</defs>
</svg>
