
<!-- Generator: visioncortex VTracer 0.6.4 -->
<svg version="1.1" xmlns="http://www.w3.org/2000/svg" viewBox="0 0 400 100" preserveAspectRatio="xMidYMid meet">
<path d="M0 0 C0.794 0.459 1.588 0.918 2.406 1.391 C3.35 1.819 4.293 2.247 5.266 2.688 C6.22 3.167 7.173 3.647 8.156 4.141 C9.12 4.61 10.085 5.079 11.078 5.562 C13.406 7.391 13.406 7.391 14.234 10.594 C14.291 11.517 14.348 12.44 14.406 13.391 C15.244 13.005 16.082 12.62 16.945 12.223 C22.089 10.986 25.267 12.708 29.672 15.109 C32.41 16.929 34.053 18.415 35.188 21.546 C36.218 27.162 36.131 32.921 34.406 38.391 C31.85 41.718 29.303 43.003 25.406 44.391 C24.701 44.755 23.996 45.12 23.27 45.496 C20.828 46.668 19.084 46.665 16.406 46.391 C15.416 45.731 14.426 45.071 13.406 44.391 C13.592 45.257 13.778 46.123 13.969 47.016 C13.406 50.391 13.406 50.391 11.543 52.055 C2.008 58.391 2.008 58.391 -2.219 58.391 C-7.224 56.908 -12.849 54.135 -16.594 50.391 C-16.635 48.391 -16.636 46.39 -16.594 44.391 C-17.584 45.051 -18.574 45.711 -19.594 46.391 C-25.436 46.512 -30.517 44.285 -35.355 41.086 C-39.384 36.235 -39.12 30.617 -38.559 24.539 C-38.043 21.546 -37.644 20.455 -35.723 17.992 C-33.405 16.452 -31.178 15.408 -28.594 14.391 C-27.707 13.731 -26.82 13.071 -25.906 12.391 C-23.594 11.391 -23.594 11.391 -20.281 12.203 C-19.394 12.595 -18.508 12.987 -17.594 13.391 C-17.568 12.493 -17.542 11.596 -17.516 10.672 C-16.451 6.884 -15.127 5.863 -11.773 3.922 C-11.137 3.582 -10.5 3.241 -9.844 2.891 C-9.222 2.519 -8.601 2.148 -7.961 1.766 C-5.062 0.151 -3.296 -0.774 0 0 Z " fill="#373A3D" transform="translate(52.59375,19.609375)"/>
<path d="M0 0 C4.668 -1.136 8.468 -1.841 13 0 C15.014 6.345 14.491 12.782 14.25 19.375 C14.224 21.237 14.205 23.099 14.191 24.961 C14.172 27.585 14.143 30.205 14.068 32.827 C13.809 37.044 13.809 37.044 15 41 C15.989 40.919 16.977 40.838 17.996 40.754 C18.987 40.835 19.979 40.916 21 41 C21.91 43.59 21.91 43.59 22.062 46.938 C22.136 48.04 22.209 49.142 22.285 50.277 C22.144 51.625 22.144 51.625 22 53 C16.554 54.815 10.387 54.895 5 52.875 C1.917 49.984 0.227 46.985 -0.26 42.724 C-0.346 40.001 -0.337 37.294 -0.293 34.57 C-0.289 33.58 -0.284 32.59 -0.28 31.569 C-0.263 28.421 -0.226 25.273 -0.188 22.125 C-0.172 19.984 -0.159 17.844 -0.146 15.703 C-0.113 10.469 -0.063 5.234 0 0 Z M52.562 15.625 C56.908 18.256 59.249 21.395 60.668 26.316 C61.536 30.938 61.536 30.938 61 33 C58.578 34.102 58.578 34.102 55 35 C53.491 35.427 51.984 35.857 50.477 36.289 C48.86 36.736 47.243 37.181 45.625 37.625 C44.378 37.969 44.378 37.969 43.105 38.32 C41.071 38.882 39.035 39.441 37 40 C40.927 42.758 40.927 42.758 45.688 42.312 C49.018 41.246 49.018 41.246 51 39 C54.148 39.109 55.388 40.312 57.875 42.312 C58.576 43.199 59.278 44.086 60 45 C59.5 48.302 57.763 49.18 55.125 51.188 C48.823 54.843 42.145 54.615 35 54 C28.742 52.192 25.331 48.741 21.922 43.27 C19.704 37.81 19.993 30.25 21.723 24.668 C27.633 13.684 41.543 10.654 52.562 15.625 Z M35 28 C35 28.99 35 29.98 35 31 C38.96 30.01 42.92 29.02 47 28 C46.34 26.68 45.68 25.36 45 24 C40.164 23.159 37.913 24.078 35 28 Z " fill="#1C1E1E" transform="translate(182,18)"/>
<path d="M0 0 C4.62 0 9.24 0 14 0 C14.33 0.66 14.66 1.32 15 2 C15.539 1.678 16.078 1.355 16.633 1.023 C21.186 -0.945 26.144 -0.527 31 0 C36.17 2.493 39.622 6.1 42.09 11.293 C44.028 17.056 44.022 24.226 41.812 29.938 C39.401 34.012 36.887 36.868 32.812 39.312 C25.491 41.102 20.787 40.393 14 37 C14 42.61 14 48.22 14 54 C9.38 54 4.76 54 0 54 C0 36.18 0 18.36 0 0 Z M15.562 13 C13.566 16.834 13.029 19.766 14 24 C15.876 27.21 15.876 27.21 19 29 C22.787 29.065 24.961 28.838 27.938 26.438 C29.465 22.933 29.648 19.716 29 16 C27.631 12.892 27.631 12.892 25 11 C20.771 10.245 18.919 10.246 15.562 13 Z " fill="#1C1E1E" transform="translate(342,32)"/>
<path d="M0 0 C4.62 0 9.24 0 14 0 C15.553 3.642 15.696 4.765 15.375 8.5 C15.36 9.311 15.344 10.122 15.328 10.957 C15.281 12.974 15.148 14.988 15 17 C15.704 16.517 16.408 16.033 17.133 15.535 C21.933 12.965 26.701 13.118 32 14 C36.086 16.206 38.529 18.587 40 23 C40.084 25.357 40.107 27.716 40.098 30.074 C40.096 30.758 40.095 31.442 40.093 32.146 C40.088 34.327 40.075 36.507 40.062 38.688 C40.057 40.167 40.053 41.647 40.049 43.127 C40.038 46.751 40.021 50.376 40 54 C35.524 54.631 31.43 55.046 27 54 C25.078 50.405 25.599 46.729 25.875 42.75 C25.947 40.641 26.007 38.532 26.055 36.422 C26.14 35.008 26.14 35.008 26.226 33.565 C25.954 30.475 25.158 29.195 23 27 C19.859 26.607 18.021 26.993 15 28 C14.72 30.629 14.72 30.629 14.98 33.785 C15.008 34.955 15.036 36.125 15.064 37.33 C15.147 39.824 15.272 42.317 15.439 44.807 C15.48 48.348 15.48 48.348 14 54 C9.38 54 4.76 54 0 54 C0 36.18 0 18.36 0 0 Z " fill="#1C1E1E" transform="translate(280,18)"/>
<path d="M0 0 C4.333 2.624 6.721 5.753 8.07 10.691 C8.879 15.272 8.879 15.272 8.438 17.375 C4.366 19.735 -0.681 20.418 -5.25 21.438 C-10.545 22.492 -10.545 22.492 -15.562 24.375 C-13.472 26.149 -13.472 26.149 -10.562 27.375 C-6.968 26.669 -4.162 25.726 -1 23.875 C1.438 23.375 1.438 23.375 3.148 24.445 C4.865 25.991 6.2 27.425 7.438 29.375 C7.188 31.5 7.188 31.5 5.438 33.375 C-1.778 38.748 -7.779 38.969 -16.562 38.375 C-21.267 37.257 -25.114 34.728 -28.562 31.375 C-32.435 24.861 -32.458 18.773 -31.562 11.375 C-29.496 5.618 -25.922 2.288 -20.562 -0.625 C-14.19 -2.749 -6.174 -2.808 0 0 Z M-17.562 12.375 C-17.562 13.365 -17.562 14.355 -17.562 15.375 C-13.602 14.385 -9.642 13.395 -5.562 12.375 C-6.222 11.055 -6.882 9.735 -7.562 8.375 C-12.398 7.534 -14.649 8.453 -17.562 12.375 Z " fill="#1C1E1E" transform="translate(171.5625,33.625)"/>
<path d="M0 0 C3.125 1.688 3.125 1.688 4.125 4.688 C3.261 7.357 1.975 9.577 0.125 11.688 C-2.062 11.75 -2.062 11.75 -4.875 10.688 C-6.433 10.314 -7.996 9.961 -9.562 9.625 C-10.329 9.448 -11.096 9.272 -11.887 9.09 C-13.864 8.621 -13.864 8.621 -15.875 8.688 C-13.258 11.919 -10.316 12.719 -6.438 14 C0.863 16.724 0.863 16.724 2.938 19.562 C4.364 23.316 4.694 25.703 4.125 29.688 C1.635 34.668 -0.789 36.595 -5.875 38.688 C-14.132 39.788 -21.996 39.437 -29.301 35.188 C-29.82 34.692 -30.34 34.197 -30.875 33.688 C-30.562 29.772 -29.036 27.93 -26.875 24.688 C-24.522 24.931 -22.76 25.742 -20.625 26.75 C-16.904 28.019 -13.798 27.82 -9.875 27.688 C-10.727 25.411 -10.727 25.411 -13.422 24.758 C-14.479 24.446 -15.536 24.134 -16.625 23.812 C-21.088 22.385 -24.6 21.189 -27.875 17.688 C-29.119 13.954 -29.534 10.559 -28.875 6.688 C-23.29 -3.522 -9.928 -3.43 0 0 Z " fill="#1C1E1E" transform="translate(273.875,33.3125)"/>
<path d="M0 0 C4.62 0 9.24 0 14 0 C14 3.63 14 7.26 14 11 C17.63 11 21.26 11 25 11 C25 14.3 25 17.6 25 21 C21.37 21 17.74 21 14 21 C14.33 26.94 14.66 32.88 15 39 C17.64 38.67 20.28 38.34 23 38 C24.963 41.435 25.653 45.079 25 49 C20.091 52.363 13.654 51.695 8 51 C3.962 49.126 1.684 46.062 0 42 C-0.241 39.924 -0.241 39.924 -0.227 37.69 C-0.227 36.85 -0.227 36.009 -0.227 35.143 C-0.216 34.245 -0.206 33.347 -0.195 32.422 C-0.192 31.495 -0.19 30.569 -0.187 29.614 C-0.176 26.659 -0.15 23.705 -0.125 20.75 C-0.115 18.745 -0.106 16.74 -0.098 14.734 C-0.076 9.823 -0.041 4.911 0 0 Z " fill="#1C1E1E" transform="translate(115,21)"/>
<path d="M0 0 C4.29 0 8.58 0 13 0 C13 13.2 13 26.4 13 40 C8.71 40 4.42 40 0 40 C0 26.8 0 13.6 0 0 Z " fill="#1C1E1E" transform="translate(324,32)"/>
<path d="M0 0 C0 1.32 0 2.64 0 4 C0.887 3.464 1.774 2.928 2.688 2.375 C6 1 6 1 8.344 1.793 C9.659 2.39 9.659 2.39 11 3 C11.955 3.277 12.91 3.554 13.895 3.84 C17.426 5.168 19.443 6.186 22 9 C23.503 14.623 23.864 22.438 22 28 C19.951 29.259 19.951 29.259 18 30 C18.66 29.01 19.32 28.02 20 27 C20.405 24.443 20.69 22.009 20.875 19.438 C20.947 18.752 21.019 18.067 21.094 17.361 C21.308 15.141 21.308 15.141 21 12 C19.285 10.572 19.285 10.572 17 10 C15.015 8.698 13.053 7.369 11.098 6.023 C8.463 4.738 6.905 4.617 4 5 C1.494 6.27 1.494 6.27 -0.812 8 C-1.998 8.835 -1.998 8.835 -3.207 9.688 C-3.799 10.121 -4.39 10.554 -5 11 C-4.206 11.236 -3.412 11.472 -2.594 11.715 C0.977 13.126 3.278 14.261 6 17 C7.466 22.495 6.615 28.423 6 34 C3.52 33.305 3.52 33.305 1 32 C0.574 29.758 0.574 29.758 0.688 27.125 C0.567 23.392 0.567 23.392 -1.512 20.488 C-7.305 17.427 -13.555 17 -20 17 C-20.103 15.928 -20.206 14.855 -20.312 13.75 C-20.59 9.751 -20.59 9.751 -24.062 7.875 C-25.032 7.256 -26.001 6.638 -27 6 C-27.375 3.25 -27.375 3.25 -27 1 C-20.576 1.63 -20.576 1.63 -17.375 3.688 C-15.063 5.317 -15.063 5.317 -12.5 4.375 C-9.963 3.02 -9.963 3.02 -7.5 1.375 C-4.729 -0.149 -3.11 -0.267 0 0 Z " fill="#323032" transform="translate(65,30)"/>
<path d="M0 0 C2.438 1.562 2.438 1.562 4 4 C4.461 7.69 4.485 10.03 2.812 13.375 C0.491 15.457 -0.892 15.852 -4 16 C-7.097 15.064 -8.704 14.296 -11 12 C-11.67 5.073 -11.67 5.073 -9.438 1.5 C-6.051 -0.584 -3.906 -0.558 0 0 Z " fill="#1C1E1E" transform="translate(334,14)"/>
<path d="M0 0 C2.676 1.312 2.676 1.312 5.312 3 C6.196 3.557 7.079 4.114 7.988 4.688 C8.652 5.121 9.316 5.554 10 6 C6.602 9.669 2.623 12.12 -2 14 C-4.562 13.625 -4.562 13.625 -7 12 C-8.437 11.125 -9.875 10.25 -11.312 9.375 C-12.544 8.587 -13.774 7.797 -15 7 C-13.022 4.908 -11.105 3.277 -8.625 1.812 C-8.06 1.468 -7.496 1.124 -6.914 0.77 C-4.392 -0.245 -2.706 -0.312 0 0 Z " fill="#F562CA" transform="translate(33,34)"/>
<path d="M0 0 C2.766 1.529 5.397 3.209 8 5 C4.694 8.703 1.489 10.952 -3 13 C-5.438 12.562 -5.438 12.562 -8 11 C-8.688 10.584 -9.377 10.167 -10.086 9.738 C-12.076 8.52 -14.043 7.272 -16 6 C-11.387 0.855 -6.92 -2.214 0 0 Z " fill="#F763CB" transform="translate(55,47)"/>
<path d="M0 0 C2.676 1.312 2.676 1.312 5.312 3 C6.196 3.557 7.079 4.114 7.988 4.688 C8.652 5.121 9.316 5.554 10 6 C6.993 10.51 3.332 12.884 -2 14 C-6.468 12.717 -10.217 10.686 -14 8 C-14.33 7.34 -14.66 6.68 -15 6 C-13.086 4.492 -13.086 4.492 -10.375 2.875 C-9.496 2.336 -8.617 1.797 -7.711 1.242 C-4.745 -0.117 -3.213 -0.473 0 0 Z " fill="#F763CC" transform="translate(74,34)"/>
<path d="M0 0 C2.808 1.478 5.535 2.992 8 5 C8 5.66 8 6.32 8 7 C3.66 10.12 -0.811 13.253 -6.25 12.625 C-7.611 11.821 -7.611 11.821 -9 11 C-9.643 10.689 -10.286 10.379 -10.949 10.059 C-12.938 9.062 -12.938 9.062 -16 7 C-14.591 2.772 -12.168 1.956 -8.336 -0.039 C-5.011 -1.407 -3.358 -1.286 0 0 Z " fill="#F763CB" transform="translate(55,23)"/>
<path d="M0 0 C4.615 1.319 8.389 2.783 12 6 C12.462 8.896 12.585 10.905 12.375 13.75 C12.348 14.447 12.321 15.145 12.293 15.863 C12.223 17.577 12.115 19.289 12 21 C10.186 20.023 8.374 19.043 6.562 18.062 C5.048 17.245 5.048 17.245 3.504 16.41 C1 15 1 15 0 14 C-0.073 11.647 -0.084 9.292 -0.062 6.938 C-0.053 5.647 -0.044 4.357 -0.035 3.027 C-0.024 2.028 -0.012 1.029 0 0 Z " fill="#A7EEAA" transform="translate(38,55)"/>
<path d="M0 0 C1.814 0.977 3.626 1.957 5.438 2.938 C6.447 3.483 7.456 4.028 8.496 4.59 C11 6 11 6 12 7 C12.073 9.353 12.084 11.708 12.062 14.062 C12.053 15.353 12.044 16.643 12.035 17.973 C12.024 18.972 12.012 19.971 12 21 C7.385 19.681 3.611 18.217 0 15 C-0.462 12.104 -0.585 10.095 -0.375 7.25 C-0.334 6.204 -0.334 6.204 -0.293 5.137 C-0.223 3.423 -0.115 1.711 0 0 Z " fill="#A7EEAA" transform="translate(17,42)"/>
<path d="M0 0 C1.062 12.458 1.062 12.458 -1.383 16.008 C-4.755 18.446 -7.919 19.288 -12 20 C-12.591 15.203 -12.89 10.769 -12 6 C-8.859 2.699 -4.692 0 0 0 Z " fill="#A1C6ED" transform="translate(64,55)"/>
<path d="M0 0 C0.53 4.774 0.792 9.247 0 14 C-2.54 17.031 -5.299 18.658 -9 20 C-9.99 20 -10.98 20 -12 20 C-12.591 15.203 -12.89 10.769 -12 6 C-8.859 2.699 -4.692 0 0 0 Z " fill="#A1C6ED" transform="translate(85,43)"/>
<path d="M0 0 C1.156 0.632 1.156 0.632 2.336 1.277 C3.339 1.825 4.342 2.373 5.375 2.938 C6.373 3.483 7.37 4.028 8.398 4.59 C9.921 5.415 11.451 6.226 13 7 C13.148 9.559 13.186 12.008 13.125 14.562 C13.116 15.273 13.107 15.984 13.098 16.717 C13.074 18.478 13.038 20.239 13 22 C10.523 21.305 10.523 21.305 8 20 C7.539 17.758 7.539 17.758 7.625 15.125 C7.59 12.435 7.59 12.435 7 10 C5.433 8.581 5.433 8.581 3.438 7.75 C2.303 7.172 1.169 6.595 0 6 C-0.215 2.891 -0.215 2.891 0 0 Z " fill="#A4E9A7" transform="translate(58,42)"/>
<path d="M0 0 C0.438 2.75 0.438 2.75 0 6 C-1.787 6.91 -3.577 7.815 -5.395 8.664 C-7.242 9.921 -7.242 9.921 -7.512 12.398 C-7.658 15.109 -7.658 15.109 -7.539 17.758 C-7.691 18.498 -7.843 19.238 -8 20 C-10.523 21.305 -10.523 21.305 -13 22 C-13.724 16.788 -14.08 12.182 -13 7 C-9.829 3.927 -4.691 0 0 0 Z " fill="#9FC4EB" transform="translate(44,42)"/>
<path d="M0 0 C0.226 2.604 0.28 4.967 0.188 7.562 C0.167 8.629 0.167 8.629 0.146 9.717 C0.111 11.478 0.057 13.239 0 15 C-0.33 15 -0.66 15 -1 15 C-1 10.38 -1 5.76 -1 1 C-6.987 3.297 -6.987 3.297 -12 7 C-13.278 11.715 -13.286 16.143 -13 21 C-12.374 20.627 -11.747 20.255 -11.102 19.871 C-10.284 19.398 -9.467 18.925 -8.625 18.438 C-7.813 17.962 -7.001 17.486 -6.164 16.996 C-5.45 16.667 -4.736 16.339 -4 16 C-3.34 16.33 -2.68 16.66 -2 17 C-6.802 21.078 -10.514 24.132 -17 24 C-17.33 23.01 -17.66 22.02 -18 21 C-17.34 21 -16.68 21 -16 21 C-16.004 19.34 -16.018 17.679 -16.079 16.02 C-16.159 12.41 -15.873 9.547 -15 6 C-10.963 2.017 -5.722 -1.907 0 0 Z " fill="#383D43" transform="translate(86,42)"/>
<path d="M0 0 C1.189 0.681 1.189 0.681 2.402 1.375 C3.358 1.791 4.313 2.208 5.297 2.637 C8.198 4.054 10.83 5.417 13.402 7.375 C14.09 11.25 14.09 11.25 13.402 14.375 C13.279 13.715 13.155 13.055 13.027 12.375 C12.821 11.715 12.615 11.055 12.402 10.375 C11.742 10.375 11.082 10.375 10.402 10.375 C10.402 9.715 10.402 9.055 10.402 8.375 C8.752 7.668 7.082 7.009 5.402 6.375 C4.598 5.818 3.794 5.261 2.965 4.688 C-0.452 2.938 -1.945 3.279 -5.598 4.375 C-10.372 6.497 -10.372 6.497 -13.598 10.375 C-11.123 11.365 -11.123 11.365 -8.598 12.375 C-9.588 12.87 -9.588 12.87 -10.598 13.375 C-12.723 12.438 -12.723 12.438 -14.598 11.375 C-14.598 13.025 -14.598 14.675 -14.598 16.375 C-14.928 16.375 -15.258 16.375 -15.598 16.375 C-17.111 13.216 -17.56 10.761 -16.598 7.375 C-14.364 5.475 -12.482 4.112 -9.973 2.688 C-9.344 2.325 -8.716 1.962 -8.068 1.588 C-5.13 0.068 -3.273 -0.788 0 0 Z " fill="#2A2229" transform="translate(52.59765625,19.625)"/>
<path d="M0 0 C1.687 0.613 3.348 1.297 5 2 C5.624 2.257 6.248 2.513 6.891 2.777 C8.812 3.688 8.812 3.688 12 6 C12.75 9.562 12.75 9.562 12 13 C9.5 14.938 9.5 14.938 7 16 C6.938 14.391 6.938 14.391 6.875 12.75 C5.757 7.958 4.005 7.556 0 5 C-0.375 2.25 -0.375 2.25 0 0 Z " fill="#A2E7A5" transform="translate(38,31)"/>
<path d="M0 0 C0.375 2.25 0.375 2.25 0 5 C-0.969 5.619 -1.939 6.237 -2.938 6.875 C-6.386 8.761 -6.386 8.761 -6.875 12.75 C-6.916 13.822 -6.957 14.895 -7 16 C-9.5 15.5 -9.5 15.5 -12 14 C-13.224 9.103 -13.224 9.103 -12 6 C-8.71 3.189 -4.469 0 0 0 Z " fill="#9CC0E6" transform="translate(64,31)"/>
<path d="M0 0 C-1.476 4.427 -3.901 4.914 -8 7 C-8.66 7 -9.32 7 -10 7 C-10.279 11.022 -10.279 11.022 -10 15 C-9.01 15.33 -8.02 15.66 -7 16 C-9.501 17.25 -11.234 17.213 -14 17 C-14.33 16.34 -14.66 15.68 -15 15 C-14.34 14.67 -13.68 14.34 -13 14 C-12.333 10.585 -12.333 10.585 -13 7 C-15.885 4.973 -15.885 4.973 -19 4 C-18.34 3.34 -17.68 2.68 -17 2 C-16.237 2.495 -15.474 2.99 -14.688 3.5 C-12.123 5.334 -12.123 5.334 -9.5 4.375 C-7.75 3.412 -6.022 2.409 -4.312 1.375 C-2 0 -2 0 0 0 Z " fill="#3E3A40" transform="translate(62,30)"/>
<path d="M0 0 C11.161 3.681 11.161 3.681 15 8 C16.932 13.514 17.068 21.488 15 27 C12.943 28.254 12.943 28.254 11 29 C11.66 28.01 12.32 27.02 13 26 C13.405 23.443 13.69 21.009 13.875 18.438 C13.947 17.752 14.019 17.067 14.094 16.361 C14.308 14.141 14.308 14.141 14 11 C12.367 9.606 12.367 9.606 10 9 C8.048 7.858 6.111 6.69 4.188 5.5 C3.191 4.892 2.195 4.283 1.168 3.656 C0.453 3.11 -0.263 2.563 -1 2 C-0.67 1.34 -0.34 0.68 0 0 Z " fill="#1C1E1E" transform="translate(72,31)"/>
<path d="M0 0 C0.66 0 1.32 0 2 0 C2 2.97 2 5.94 2 9 C2.66 9 3.32 9 4 9 C4 9.66 4 10.32 4 11 C3.34 11 2.68 11 2 11 C2.186 11.866 2.371 12.733 2.562 13.625 C2 17 2 17 0.137 18.664 C-2.199 20.216 -4.543 21.649 -7 23 C-8.013 23.58 -8.013 23.58 -9.047 24.172 C-11 25 -11 25 -15 25 C-15 24.34 -15 23.68 -15 23 C-13.065 22.266 -11.127 21.539 -9.172 20.863 C-7.091 20.036 -5.453 19.093 -3.625 17.812 C-1 16 -1 16 1 16 C0.67 10.72 0.34 5.44 0 0 Z " fill="#1F2122" transform="translate(64,53)"/>
<path d="M0 0 C0.33 0 0.66 0 1 0 C0.977 1.013 0.954 2.026 0.93 3.07 C0.834 7.274 0.99 10.888 2 15 C5.504 18.253 8.436 19.269 13 21 C13 16.38 13 11.76 13 7 C13.33 7 13.66 7 14 7 C14.107 9.48 14.187 11.956 14.25 14.438 C14.3 15.498 14.3 15.498 14.352 16.58 C14.391 18.621 14.391 18.621 14 22 C12.348 23.125 12.348 23.125 10 23 C5.454 21.602 2.079 19.642 -1 16 C-2.164 10.736 -1.122 5.193 0 0 Z " fill="#3F5145" transform="translate(16,42)"/>
<path d="M0 0 C2.004 0.654 4.004 1.321 6 2 C6.66 1.34 7.32 0.68 8 0 C8.33 1.98 8.66 3.96 9 6 C8.319 5.649 7.639 5.299 6.938 4.938 C1.651 3.25 -3.076 4.762 -8 7 C-5.422 4.352 -3.084 2.056 0 0 Z " fill="#262226" transform="translate(29,31)"/>
<path d="M0 0 C0.66 0 1.32 0 2 0 C2 1.32 2 2.64 2 4 C2.949 3.629 3.897 3.258 4.875 2.875 C5.906 2.586 6.938 2.297 8 2 C8.66 2.66 9.32 3.32 10 4 C8.969 4.433 7.938 4.866 6.875 5.312 C3.516 6.749 0.252 8.334 -3 10 C-3.33 9.34 -3.66 8.68 -4 8 C-3.01 7.691 -3.01 7.691 -2 7.375 C-1.34 6.921 -0.68 6.468 0 6 C0.334 2.916 0.334 2.916 0 0 Z " fill="#3D3945" transform="translate(63,30)"/>
<path d="M0 0 C0 2 0 2 -1.375 3.625 C-3 5 -3 5 -5 5 C-5 9.95 -5 14.9 -5 20 C-5.33 20 -5.66 20 -6 20 C-6.108 17.228 -6.187 14.46 -6.25 11.688 C-6.284 10.902 -6.317 10.116 -6.352 9.307 C-6.451 3.487 -6.451 3.487 -4.109 0.957 C-2 0 -2 0 0 0 Z " fill="#1D1E1F" transform="translate(21,37)"/>
<path d="M0 0 C1.819 0.926 3.63 1.866 5.438 2.812 C6.952 3.596 6.952 3.596 8.496 4.395 C11 6 11 6 12 9 C7.386 7.414 2.778 5.118 -1 2 C-0.67 1.34 -0.34 0.68 0 0 Z " fill="#2B232A" transform="translate(72,31)"/>
<path d="M0 0 C-0.268 0.619 -0.536 1.238 -0.812 1.875 C-0.874 2.576 -0.936 3.277 -1 4 C1.395 5.325 1.395 5.325 4 6 C3.01 6.495 3.01 6.495 2 7 C-0.125 6.062 -0.125 6.062 -2 5 C-2 6.65 -2 8.3 -2 10 C-2.33 10 -2.66 10 -3 10 C-3.387 8.066 -3.387 8.066 -3.688 5.562 C-3.794 4.739 -3.901 3.915 -4.012 3.066 C-4.006 2.044 -4.006 2.044 -4 1 C-2 0 -2 0 0 0 Z " fill="#323A34" transform="translate(40,26)"/>
<path d="M0 0 C3.249 0.663 5.85 1.841 8.75 3.438 C9.549 3.869 10.348 4.301 11.172 4.746 C11.775 5.16 12.378 5.574 13 6 C13 6.66 13 7.32 13 8 C8.276 6.376 4.058 3.89 0 1 C0 0.67 0 0.34 0 0 Z " fill="#202223" transform="translate(36,69)"/>
<path d="M0 0 C0.66 0 1.32 0 2 0 C1.938 1.299 1.876 2.599 1.812 3.938 C1.634 6.099 1.634 6.099 2 8 C2.99 8.33 3.98 8.66 5 9 C2.499 10.25 0.766 10.213 -2 10 C-2.33 9.34 -2.66 8.68 -3 8 C-2.34 7.67 -1.68 7.34 -1 7 C-0.835 5.824 -0.67 4.649 -0.5 3.438 C-0.335 2.303 -0.17 1.169 0 0 Z " fill="#44464A" transform="translate(50,37)"/>
<path d="M0 0 C0.66 0.33 1.32 0.66 2 1 C0.057 2.732 -1.947 4.399 -4 6 C-4.66 5.67 -5.32 5.34 -6 5 C-2.25 1.125 -2.25 1.125 0 0 Z " fill="#292D30" transform="translate(82,58)"/>
<path d="M0 0 C-1 3 -1 3 -2.812 4.25 C-5.339 5.116 -6.522 4.885 -9 4 C-2.25 0 -2.25 0 0 0 Z " fill="#4B3C4E" transform="translate(62,30)"/>
<path d="M0 0 C0.33 0 0.66 0 1 0 C1.374 1.993 1.707 3.994 2 6 C-0.5 5.188 -0.5 5.188 -3 4 C-3 3.01 -3 2.02 -3 1 C-2.34 1.33 -1.68 1.66 -1 2 C-0.67 1.34 -0.34 0.68 0 0 Z " fill="#212022" transform="translate(36,31)"/>
<path d="M0 0 C0 0.66 0 1.32 0 2 C-2.375 3.688 -2.375 3.688 -5 5 C-5.66 4.67 -6.32 4.34 -7 4 C-2.25 0 -2.25 0 0 0 Z " fill="#262226" transform="translate(47,22)"/>
<path d="M0 0 C0.99 0.33 1.98 0.66 3 1 C3.188 4.562 3.188 4.562 3 8 C2.876 7.34 2.752 6.68 2.625 6 C2.316 5.01 2.316 5.01 2 4 C1.34 4 0.68 4 0 4 C0 2.68 0 1.36 0 0 Z " fill="#201F21" transform="translate(63,26)"/>
<path d="M0 0 C2.625 1.312 2.625 1.312 5 3 C5 3.66 5 4.32 5 5 C2.085 3.926 0.222 3.222 -2 1 C-1.34 0.67 -0.68 0.34 0 0 Z " fill="#362733" transform="translate(58,23)"/>
<path d="M0 0 C0.66 0.33 1.32 0.66 2 1 C0.125 3.062 0.125 3.062 -2 5 C-2.66 4.67 -3.32 4.34 -4 4 C-2.125 1.938 -2.125 1.938 0 0 Z " fill="#2A2F32" transform="translate(61,70)"/>
<path d="M0 0 C2.962 0.613 4.381 1.254 7 3 C6.01 3.33 5.02 3.66 4 4 C1.812 2.062 1.812 2.062 0 0 Z " fill="#252A28" transform="translate(36,69)"/>
<path d="M0 0 C2.5 0.875 2.5 0.875 5 2 C5 2.66 5 3.32 5 4 C2.5 3.125 2.5 3.125 0 2 C0 1.34 0 0.68 0 0 Z " fill="#232626" transform="translate(23,61)"/>
<path d="M0 0 C0.66 0.33 1.32 0.66 2 1 C2 1.66 2 2.32 2 3 C0.68 2.67 -0.64 2.34 -2 2 C-1.34 1.34 -0.68 0.68 0 0 Z " fill="#352632" transform="translate(30,31)"/>
</svg>