<?xml version="1.0" encoding="UTF-8" standalone="no"?>
<svg
    xmlns="http://www.w3.org/2000/svg"
    viewBox="-10 -8 34 34"
    preserveAspectRatio="xMidYMid meet"
    version="1.1">
    <defs>
        <style>
            .shape1 {
            fill: #ff4800; /* First path fill */
            stroke: none;
            }
            .shape2 {
            fill: #79e5dd; /* Second path fill */
            stroke: none;
            }
            .circle-shape {
            fill: #5722cc; /* Circle fill */
            stroke: none;
            }
        </style>
    </defs>

    <!-- Grouped shapes, perfectly centered -->
    <g transform="translate(0, -1.2)"> <!-- Adjusted translation to center vertically -->
        <!-- First path: #ff4800 -->
        <path
            class="shape1"
            d="M6.43,23.23A2.32,2.32,0,0,1,4.1,20.91v-17a2.33,2.33,0,0,1,4.65,0v17A2.32,2.32,0,0,1,6.43,23.23Z"
            transform="translate(-4.1 -2)"
        />

        <!-- Second path: #79e5dd -->
        <path
            class="shape2"
            d="M6.42,23.38A2.37,2.37,0,0,1,5.18,23a2.33,2.33,0,0,1-.72-3.2l10.73-17a2.32,2.32,0,0,1,3.93,2.48L8.39,22.3A2.32,2.32,0,0,1,6.42,23.38Z"
            transform="translate(-4.1 -2)"
        />

        <!-- Circle: #ffffff -->
        <circle
            class="circle-shape"
            cx="12.38"
            cy="17.5"
            r="4.0"
        />
    </g>
</svg>