<?xml version="1.0" encoding="UTF-8"?>
<svg id="Layer_1" xmlns="http://www.w3.org/2000/svg" version="1.1" viewBox="0 0 160 28">
  <!-- Generator: Adobe Illustrator 29.3.1, SVG Export Plug-In . SVG Version: 2.1.0 Build 151)  -->
  <defs>
    <style>
      .st0 {
        isolation: isolate;
      }

      .st1 {
        fill: #5722cc;
      }
    </style>
  </defs>
  <g class="st0">
    <g class="st0">
      <g class="st0">
        <path d="M17.4,24.2h-5l-5.4-8.7-1.9,1.3v7.4H.7V3.5h4.4v9.5l1.7-2.4,5.6-7h4.9l-7.2,9.2,7.3,11.5Z"/>
        <path d="M29.7,24.2l-.8-2.2h-.1c-.7.9-1.5,1.6-2.2,1.9-.8.4-1.8.5-3,.5s-2.7-.4-3.6-1.3c-.9-.9-1.3-2.1-1.3-3.7s.6-2.9,1.8-3.7c1.2-.8,2.9-1.2,5.3-1.3h2.7v-.8c0-1.6-.8-2.4-2.5-2.4s-2.8.4-4.5,1.1l-1.4-2.9c1.8-1,3.8-1.4,6.1-1.4s3.8.5,4.9,1.4c1.1.9,1.7,2.3,1.7,4.2v10.5h-3ZM28.4,16.9h-1.7c-1.3,0-2.2.3-2.8.7s-.9,1-.9,1.9c0,1.2.7,1.8,2.1,1.8s1.8-.3,2.4-.9c.6-.6.9-1.3.9-2.3v-1.3Z"/>
        <path d="M46,8.1c.6,0,1.1,0,1.5.1l-.3,4c-.3,0-.8-.1-1.3-.1-1.4,0-2.5.4-3.2,1.1-.8.7-1.2,1.7-1.2,3v8.1h-4.3v-15.8h3.3l.6,2.7h.2c.5-.9,1.2-1.6,2-2.1.8-.5,1.7-.8,2.7-.8Z"/>
        <path d="M59.2,8.1c.6,0,1.1,0,1.5.1l-.3,4c-.3,0-.8-.1-1.3-.1-1.4,0-2.5.4-3.2,1.1-.8.7-1.2,1.7-1.2,3v8.1h-4.3v-15.8h3.3l.6,2.7h.2c.5-.9,1.2-1.6,2-2.1.8-.5,1.7-.8,2.7-.8Z"/>
        <path d="M63.3,4.3c0-1.4.8-2.1,2.4-2.1s2.4.7,2.4,2.1-.2,1.2-.6,1.6c-.4.4-1,.6-1.8.6-1.6,0-2.4-.7-2.4-2.1ZM67.8,24.2h-4.3v-15.8h4.3v15.8Z"/>
        <path d="M86.7,16.3c0,2.6-.7,4.6-2,6s-3.3,2.2-5.7,2.2-2.9-.3-4-1c-1.2-.7-2.1-1.6-2.7-2.9s-.9-2.7-.9-4.4c0-2.6.7-4.6,2-6,1.4-1.4,3.2-2.2,5.7-2.2s2.9.3,4,1c1.2.7,2.1,1.6,2.7,2.8s.9,2.7.9,4.3ZM75.8,16.3c0,1.6.3,2.8.8,3.6.5.8,1.4,1.2,2.5,1.2s2-.4,2.5-1.2c.5-.8.8-2,.8-3.6s-.3-2.7-.8-3.5-1.3-1.2-2.5-1.2-2,.4-2.5,1.2c-.5.8-.8,2-.8,3.5Z"/>
      </g>
    </g>
    <g class="st0">
      <g class="st0">
        <path class="st1" d="M111.4,13.7c0,3.4-1,6-2.9,7.8-1.9,1.8-4.7,2.7-8.4,2.7h-5.9V3.5h6.5c3.4,0,6,.9,7.9,2.7,1.9,1.8,2.8,4.3,2.8,7.5ZM106.8,13.8c0-4.4-2-6.7-5.9-6.7h-2.3v13.5h1.9c4.2,0,6.3-2.3,6.3-6.8Z"/>
        <path class="st1" d="M129.7,16.3c0,2.6-.7,4.6-2,6s-3.3,2.2-5.7,2.2-2.9-.3-4-1c-1.2-.7-2.1-1.6-2.7-2.9s-.9-2.7-.9-4.4c0-2.6.7-4.6,2-6,1.3-1.4,3.2-2.2,5.7-2.2s2.9.3,4,1c1.2.7,2.1,1.6,2.7,2.8s.9,2.7.9,4.3ZM118.8,16.3c0,1.6.3,2.8.8,3.6s1.4,1.2,2.5,1.2,2-.4,2.5-1.2c.5-.8.8-2,.8-3.6s-.3-2.7-.8-3.5-1.3-1.2-2.5-1.2-2,.4-2.5,1.2c-.5.8-.8,2-.8,3.5Z"/>
        <path class="st1" d="M139.7,24.5c-4.9,0-7.4-2.7-7.4-8.1s.7-4.7,2-6.2c1.3-1.4,3.3-2.1,5.8-2.1s3.5.4,4.9,1.1l-1.3,3.3c-.7-.3-1.3-.5-1.9-.7-.6-.2-1.2-.3-1.8-.3-2.2,0-3.4,1.6-3.4,4.8s1.1,4.6,3.4,4.6,1.6-.1,2.3-.3,1.4-.6,2.1-1v3.7c-.7.4-1.4.8-2.1.9-.7.2-1.6.3-2.7.3Z"/>
        <path class="st1" d="M159.3,19.5c0,1.6-.6,2.9-1.7,3.7s-2.8,1.3-5.1,1.3-2.1,0-2.9-.2c-.8-.2-1.6-.4-2.3-.7v-3.6c.8.4,1.7.7,2.7.9,1,.3,1.9.4,2.7.4,1.6,0,2.4-.5,2.4-1.4s-.1-.6-.3-.8c-.2-.2-.6-.5-1.1-.7-.5-.3-1.2-.6-2-.9-1.2-.5-2.1-1-2.7-1.4-.6-.4-1-.9-1.2-1.5-.3-.6-.4-1.3-.4-2.1,0-1.4.5-2.5,1.6-3.3,1.1-.8,2.6-1.2,4.6-1.2s3.8.4,5.6,1.2l-1.3,3.1c-.8-.3-1.5-.6-2.2-.8-.7-.2-1.4-.3-2.1-.3-1.3,0-1.9.3-1.9,1s.2.7.6,1c.4.3,1.3.7,2.7,1.3,1.2.5,2.1,1,2.7,1.4.6.4,1,.9,1.3,1.5.3.6.4,1.2.4,2Z"/>
      </g>
    </g>
  </g>
</svg>