<?xml version="1.0" encoding="UTF-8" standalone="no"?>
<svg
    xmlns="http://www.w3.org/2000/svg"
    viewBox="-2.485 0 21.76 21.76"
    preserveAspectRatio="xMidYMid meet"
    version="1.1">

    <defs>
        <style>
            .cls-1 { fill: #ff4800; stroke: none; }
            .cls-2 { fill: #79e5dd; stroke: none; }
            .cls-3 { fill: #ffffff; stroke: none; }
        </style>
    </defs>

    <!-- First path: #ff4800 -->
    <path
        class="cls-1"
        d="M6.43,23.23A2.32,2.32,0,0,1,4.1,20.91v-17a2.33,2.33,0,0,1,4.65,0v17A2.32,2.32,0,0,1,6.43,23.23Z"
        transform="translate(-4.1 -1.62)" />

    <!-- Second path: #79e5dd -->
    <path
        class="cls-2"
        d="M6.42,23.38A2.37,2.37,0,0,1,5.18,23a2.33,2.33,0,0,1-.72-3.2l10.73-17a2.32,2.32,0,0,1,3.93,2.48L8.39,22.3A2.32,2.32,0,0,1,6.42,23.38Z"
        transform="translate(-4.1 -1.62)" />

    <!-- Circle: #ffffff, reduced size, aligned bottom edge at y=21.76 -->
    <circle
        class="cls-3"
        cx="12.38"
        cy="17.76"
        r="4.0" />
</svg>