<svg xmlns="http://www.w3.org/2000/svg" width="512" height="512" viewBox="0 0 512 512"><path fill="#FDCA2E" d="M512 472c0 22.1-17.9 40-40 40H40c-22.1 0-40-17.9-40-40V40C0 17.9 17.9 0 40 0h432c22.1 0 40 17.9 40 40v432z"/><path fill="#D0131D" d="M198.9 268.2c4.5-9.1 8.3-17 10-20.4 8.1-16.3-.3-39.1-28.3-39.1h-92L72.7 241h85.8c6.7 0 9.1 1.4 7.1 5.6-2 4.1-6.2 12.7-7.4 15.1-1.4 2.9-2.1 6.5 2.4 6.5h38.3z"/><path fill="#D0131D" d="M141.6 271.3c-4.5 0-4.9-3-3.8-5.3.9-1.9 6.9-14.1 8.1-16.4 1.4-2.9 1-5.9-5.9-5.9h-38.9l-29.3 59.6H149c21.1 0 36.4-7.6 46.9-28.9.5-1 1-2.1 1.5-3.1h-55.8zM206.3 271.3l-15.7 32h47.9l15.8-32h-48zM273.7 271.3l-15.7 32h47.9l15.8-32h-48zM323.2 268.2l29.2-59.5h-47.9L288.7 241h-19.6l15.9-32.3h-48l-29.1 59.5h115.3zM364.6 208.7h48l-29.3 59.5h-47.9l29.2-59.5zM333.9 271.3h107.3l-15.7 32h-79.1c-16.5 0-21.8-12.6-15.9-24.8.5-1.4 3.4-7.2 3.4-7.2zM80 271.3l-4.6 9.4H0v-9.4h80zM74.5 282.5l-4.7 9.5H0v-9.5h74.5zM68.9 293.9l-4.7 9.4H0v-9.4h68.9zM512 280.7h-68.8l4.6-9.4H512zM512 292h-74.4l4.6-9.5H512zM512 303.3h-80l4.7-9.4H512z"/></svg>