<?xml version="1.0" encoding="utf-8"?>
<!-- Generator: Adobe Illustrator 27.3.1, SVG Export Plug-In . SVG Version: 6.00 Build 0)  -->
<svg version="1.1" id="Layer_1" xmlns="http://www.w3.org/2000/svg" xmlns:xlink="http://www.w3.org/1999/xlink" x="0px" y="0px"
	 viewBox="0 0 125 25" style="enable-background:new 0 0 125 25;" xml:space="preserve">
<style type="text/css">
	.st0{fill:#FFCC00;}
	.st1{fill:none;}
	.st2{enable-background:new    ;}
</style>
<rect class="st0" width="125" height="25"/>
<g>
	<g id="brand-dp-logo-superzeichen">
		<g id="DP_Logo_SZ_rgb_schwarz-Copy">
			<g id="Boundingbox">
				<rect id="Rectangle" x="88.7" y="0.6" class="st1" width="23.7" height="23.7"/>
			</g>
			<g id="DP_Logo_SZ" transform="translate(10.650000, 12.500000)">
				<path id="Shape" d="M87.7,3.5h2.1l-2.1,2.1h-2.1L87.7,3.5z M82.8,5.6h2.1L87,3.5h-2.1L82.8,5.6z M92.3,3.5h-2.1l2.1,2.1h2.1
					L92.3,3.5z M95,3.5h-2.1L95,5.6h2.1L95,3.5z M98.1-4.9c-0.3,4.3-3.5,8-8.3,8c-5.4,0-7.5-4.7-7.2-8.2l1.6-0.5
					c-0.3,2,0.4,3.5,0.8,4.1c-0.5-2.9,1.6-5.2,4.4-5.2c2.4,0,4.5,1.8,4.4,4.3c0.4-1,0.6-2.5,0.7-3.5L98.1-4.9z M92.3-2.2
					c0-1.6-1.3-2.9-2.9-2.9s-2.9,1.3-2.9,2.9s1.3,2.9,2.9,2.9C91,0.7,92.3-0.6,92.3-2.2L92.3-2.2z"/>
			</g>
		</g>
	</g>
	<g class="st2">
		<path d="M17.5,10c0.7,0.5,1.1,1.4,1.1,2.7c0,1.3-0.4,2.2-1.1,2.7c-0.7,0.5-1.7,0.8-2.8,0.8h-2.2V9.3h2C15.8,9.3,16.8,9.5,17.5,10z
			 M14.1,10.3v4.9h0.7c0.7,0,1.2-0.2,1.6-0.5c0.4-0.4,0.6-1,0.6-2c0-0.7-0.1-1.2-0.3-1.5c-0.2-0.4-0.5-0.6-0.8-0.7
			c-0.3-0.1-0.7-0.2-1.1-0.2H14.1z"/>
		<path d="M24.9,13.9h-3.8c0,0.5,0.2,0.9,0.5,1.1s0.6,0.3,1,0.3c0.3,0,0.5,0,0.8-0.1c0.2-0.1,0.5-0.2,0.8-0.4l0.6,0.7
			c-0.7,0.5-1.4,0.7-2.3,0.7c-0.9,0-1.6-0.2-2.1-0.7c-0.5-0.5-0.8-1.2-0.8-2c0-0.5,0.1-1,0.3-1.5s0.5-0.8,0.9-1
			c0.4-0.2,0.9-0.4,1.4-0.4c0.9,0,1.5,0.2,2,0.7c0.5,0.5,0.7,1.1,0.7,2C25,13.5,25,13.7,24.9,13.9z M23.5,13c0-0.9-0.4-1.4-1.2-1.4
			c-0.4,0-0.6,0.1-0.8,0.3s-0.3,0.6-0.4,1.1L23.5,13L23.5,13z"/>
		<path d="M31.2,16.2h-1.3l-0.1-0.7c-0.2,0.3-0.5,0.5-0.8,0.7c-0.3,0.1-0.7,0.2-1.1,0.2c-0.5,0-1-0.1-1.3-0.4
			c-0.3-0.3-0.4-0.7-0.4-1.2v-3.8h1.5v3.6c0,0.3,0.1,0.5,0.2,0.6c0.1,0.1,0.3,0.2,0.6,0.2c0.5,0,0.9-0.2,1.2-0.8v-3.7h1.5V16.2z"/>
		<path d="M36.4,15.9c-0.2,0.1-0.5,0.2-0.7,0.3c-0.3,0.1-0.5,0.1-0.8,0.1c-0.6,0-1.1-0.2-1.4-0.4c-0.3-0.3-0.5-0.7-0.5-1.3v-2.8h-1
			v-0.9h1V9.7l1.5-0.1v1.3h1.4l-0.1,0.9h-1.3v2.8c0,0.3,0.1,0.4,0.2,0.6s0.3,0.2,0.5,0.2s0.5-0.1,0.7-0.2L36.4,15.9z"/>
		<path d="M41.3,11.4l-0.6,0.8c-0.5-0.3-1-0.4-1.5-0.4c-0.3,0-0.5,0-0.7,0.1c-0.2,0.1-0.2,0.2-0.2,0.4c0,0.1,0,0.2,0.1,0.3
			c0.1,0.1,0.2,0.2,0.4,0.2c0.2,0.1,0.4,0.1,0.8,0.2c0.7,0.2,1.1,0.4,1.5,0.6c0.3,0.3,0.5,0.6,0.5,1.1c0,0.5-0.2,0.9-0.7,1.2
			c-0.5,0.3-1.1,0.4-1.8,0.4c-0.5,0-1-0.1-1.4-0.2c-0.4-0.1-0.8-0.3-1.1-0.6l0.7-0.7c0.5,0.3,1.1,0.5,1.7,0.5c0.3,0,0.6-0.1,0.8-0.2
			c0.2-0.1,0.3-0.3,0.3-0.5c0-0.2,0-0.3-0.1-0.4c-0.1-0.1-0.2-0.2-0.4-0.2c-0.2-0.1-0.5-0.2-0.9-0.3c-0.6-0.1-1.1-0.4-1.4-0.6
			s-0.4-0.6-0.4-1c0-0.3,0.1-0.6,0.3-0.8c0.2-0.2,0.5-0.4,0.8-0.6c0.4-0.1,0.8-0.2,1.2-0.2C40,10.8,40.7,11,41.3,11.4z"/>
		<path d="M46.2,10.9c0.3,0.1,0.6,0.3,0.9,0.5l-0.7,0.8c-0.2-0.1-0.4-0.2-0.6-0.3c-0.2-0.1-0.4-0.1-0.6-0.1c-0.9,0-1.4,0.6-1.4,1.8
			c0,0.6,0.1,1.1,0.4,1.3c0.2,0.3,0.6,0.4,1,0.4c0.2,0,0.4,0,0.6-0.1c0.2-0.1,0.4-0.2,0.6-0.3l0.7,0.8c-0.6,0.4-1.2,0.6-2,0.6
			c-0.6,0-1.1-0.1-1.5-0.3c-0.4-0.2-0.8-0.5-1-1c-0.2-0.4-0.3-0.9-0.3-1.5c0-0.6,0.1-1.1,0.3-1.5s0.6-0.8,1-1
			c0.4-0.2,0.9-0.4,1.5-0.4C45.6,10.8,45.9,10.8,46.2,10.9z"/>
		<path d="M52.7,11.2c0.3,0.3,0.5,0.7,0.5,1.2v3.8h-1.5v-3.6c0-0.3-0.1-0.5-0.2-0.7c-0.1-0.1-0.3-0.2-0.6-0.2
			c-0.2,0-0.5,0.1-0.7,0.2s-0.4,0.3-0.6,0.6v3.7h-1.5V8.8l1.5-0.1v2.9c0.5-0.5,1.1-0.8,1.8-0.8C52,10.8,52.4,10.9,52.7,11.2z"/>
		<path d="M59.9,13.9H56c0,0.5,0.2,0.9,0.5,1.1s0.6,0.3,1,0.3c0.3,0,0.5,0,0.8-0.1c0.2-0.1,0.5-0.2,0.8-0.4l0.6,0.7
			c-0.7,0.5-1.4,0.7-2.3,0.7c-0.9,0-1.6-0.2-2.1-0.7c-0.5-0.5-0.8-1.2-0.8-2c0-0.5,0.1-1,0.3-1.5s0.5-0.8,0.9-1
			c0.4-0.2,0.9-0.4,1.4-0.4c0.9,0,1.5,0.2,2,0.7c0.5,0.5,0.7,1.1,0.7,2C59.9,13.5,59.9,13.7,59.9,13.9z M58.4,13
			c0-0.9-0.4-1.4-1.2-1.4c-0.4,0-0.6,0.1-0.8,0.3s-0.3,0.6-0.4,1.1L58.4,13L58.4,13z"/>
		<path d="M68.8,9.8c0.6,0.4,0.8,0.9,0.8,1.6c0,0.8-0.3,1.3-0.9,1.7c-0.6,0.4-1.3,0.6-2.3,0.6h-0.9v2.4h-1.5V9.3h2.3
			C67.5,9.3,68.3,9.5,68.8,9.8z M67.7,12.5c0.3-0.2,0.4-0.5,0.4-1c0-0.8-0.5-1.2-1.6-1.2h-0.8v2.5h0.8C67,12.8,67.4,12.7,67.7,12.5z
			"/>
		<path d="M75.1,11.5c0.5,0.5,0.8,1.2,0.8,2c0,0.6-0.1,1-0.3,1.5c-0.2,0.4-0.6,0.8-1,1c-0.4,0.2-0.9,0.3-1.5,0.3
			c-0.9,0-1.6-0.2-2.1-0.7c-0.5-0.5-0.8-1.2-0.8-2.1c0-0.6,0.1-1,0.3-1.5s0.6-0.7,1-1c0.4-0.2,0.9-0.4,1.5-0.4
			C73.9,10.8,74.6,11,75.1,11.5z M71.7,13.5c0,0.6,0.1,1.1,0.3,1.4c0.2,0.3,0.5,0.4,1,0.4s0.8-0.2,1-0.5s0.3-0.8,0.3-1.4
			s-0.1-1.1-0.3-1.4c-0.2-0.3-0.5-0.4-1-0.4C72.1,11.7,71.7,12.3,71.7,13.5z"/>
		<path d="M81.3,11.4l-0.6,0.8c-0.5-0.3-1-0.4-1.5-0.4c-0.3,0-0.5,0-0.7,0.1c-0.2,0.1-0.2,0.2-0.2,0.4c0,0.1,0,0.2,0.1,0.3
			c0.1,0.1,0.2,0.2,0.4,0.2c0.2,0.1,0.4,0.1,0.8,0.2c0.7,0.2,1.1,0.4,1.5,0.6c0.3,0.3,0.5,0.6,0.5,1.1c0,0.5-0.2,0.9-0.7,1.2
			c-0.5,0.3-1.1,0.4-1.8,0.4c-0.5,0-1-0.1-1.4-0.2c-0.4-0.1-0.8-0.3-1.1-0.6l0.7-0.7c0.5,0.3,1.1,0.5,1.7,0.5c0.3,0,0.6-0.1,0.8-0.2
			c0.2-0.1,0.3-0.3,0.3-0.5c0-0.2,0-0.3-0.1-0.4c-0.1-0.1-0.2-0.2-0.4-0.2c-0.2-0.1-0.5-0.2-0.9-0.3c-0.6-0.1-1.1-0.4-1.4-0.6
			c-0.3-0.3-0.4-0.6-0.4-1c0-0.3,0.1-0.6,0.3-0.8c0.2-0.2,0.5-0.4,0.8-0.6c0.4-0.1,0.8-0.2,1.2-0.2C80,10.8,80.7,11,81.3,11.4z"/>
		<path d="M86.2,15.9c-0.2,0.1-0.5,0.2-0.7,0.3c-0.3,0.1-0.5,0.1-0.8,0.1c-0.6,0-1.1-0.2-1.4-0.4s-0.5-0.7-0.5-1.3v-2.8h-1v-0.9h1
			V9.7l1.5-0.1v1.3h1.4l-0.1,0.9h-1.3v2.8c0,0.3,0.1,0.4,0.2,0.6s0.3,0.2,0.5,0.2s0.5-0.1,0.7-0.2L86.2,15.9z"/>
	</g>
</g>
</svg>
