<?xml version="1.0" encoding="utf-8"?>
<!-- Generator: Adobe Illustrator 25.0.1, SVG Export Plug-In . SVG Version: 6.00 Build 0)  -->
<svg version="1.1" id="Layer_1"
  xmlns="http://www.w3.org/2000/svg"
  xmlns:xlink="http://www.w3.org/1999/xlink" x="0px" y="0px" viewBox="0 0 76.8 76.8" style="enable-background:new 0 0 76.8 76.8;" xml:space="preserve">
  <style type="text/css">
	.st0{fill-rule:evenodd;clip-rule:evenodd;fill:#5722cc;fill-opacity:0.324;}
	.st1{fill-rule:evenodd;clip-rule:evenodd;fill:#5722cc;}
	.st2{fill:#FFFFFF;stroke:#FFFFFF;stroke-width:0.15;stroke-miterlimit:10;}
	.st3{fill-rule:evenodd;clip-rule:evenodd;fill:#FFFFFF;stroke:#FFFFFF;stroke-width:0.15;stroke-miterlimit:10;}
  </style>
  <g>
    <path class="st0" d="M14.4,16.4L14.4,16.4c0-0.6,0.5-1.1,1.1-1.1h40.7c0.3,0,0.5,0.1,0.7,0.3c0.2,0.2,0.3,0.5,0.3,0.7v38.7
		c0,0.6-0.5,1.1-1.1,1.1H15.5c-0.6,0-1.1-0.5-1.1-1.1V16.4z"/>
    <path class="st1" d="M17,19.1L17,19.1c0-0.6,0.5-1.1,1.1-1.1h40.5c0.3,0,0.6,0.1,0.8,0.3s0.3,0.5,0.3,0.8v38.6
		c0,0.6-0.5,1.1-1.1,1.1H18.1c-0.6,0-1.1-0.5-1.1-1.1L17,19.1z"/>
    <g>
      <path class="st2" d="M44.8,29.8c0.1-0.1,0.1-0.2,0-0.3c-0.1-0.1-0.2-0.1-0.3,0l-2.4,2.2l-0.8-0.8c-0.1-0.1-0.2-0.1-0.3,0l-1.5,1.4
			c-0.1,0.1-0.1,0.2,0,0.3c0.1,0.1,0.2,0.1,0.3,0l1.3-1.2l0.8,0.8c0.1,0.1,0.2,0.1,0.3,0L44.8,29.8z"/>
      <path class="st3" d="M36.1,31.4c0.2-0.2,0.2-0.4,0.2-0.6c0-0.5-0.4-0.9-1-0.9c-0.5,0-1,0.4-1,0.9c0,0.2,0.1,0.5,0.2,0.6
			c0,0-0.1,0-0.1,0l0,0c-0.3,0.2-0.5,0.5-0.5,0.8v1.2c0,0.3,0.2,0.5,0.5,0.5h1.8c0.3,0,0.5-0.2,0.5-0.5v-1.2c0-0.4-0.2-0.7-0.5-0.8
			L36.1,31.4C36.1,31.4,36.1,31.4,36.1,31.4z M35.8,30.8c0,0.2-0.2,0.5-0.5,0.5c-0.3,0-0.5-0.2-0.5-0.5s0.2-0.5,0.5-0.5
			C35.6,30.3,35.8,30.5,35.8,30.8z M36.2,32.3v1.2h-1.8v-1.2c0-0.2,0.1-0.3,0.3-0.4l0,0c0.1,0,0.1,0,0.2,0h0.9c0.1,0,0.1,0,0.2,0
			l0,0C36.1,31.9,36.2,32.1,36.2,32.3z"/>
      <path class="st3" d="M29.8,33.5c0-0.5,0.4-0.9,0.9-0.9H33c0.1,0,0.2-0.1,0.2-0.2s-0.1-0.2-0.2-0.2h-2.3c-0.8,0-1.4,0.6-1.4,1.4
			v7.8c0,0.8,0.6,1.4,1.4,1.4h4.6L35,43.4h-0.2c-0.3,0-0.5,0.2-0.5,0.5v0.5c0,0.3,0.2,0.5,0.5,0.5h4.6c0.3,0,0.5-0.2,0.5-0.5v-0.5
			c0-0.3-0.2-0.5-0.5-0.5h-0.2L39,42.7h4.1c0.8,0,1.4-0.6,1.4-1.4v-5.2c0-0.1-0.1-0.2-0.2-0.2c-0.1,0-0.2,0.1-0.2,0.2v5.2
			c0,0.5-0.4,0.9-0.9,0.9H30.7c-0.5,0-0.9-0.4-0.9-0.9V33.5z M38.6,42.7h-2.7l-0.3,0.7h3.3L38.6,42.7z M34.8,43.9h4.6v0.5h-4.6V43.9
			z"/>
      <path class="st2" d="M37.6,32.1c-0.1,0-0.2,0.1-0.2,0.2s0.1,0.2,0.2,0.2h1c0.1,0,0.2-0.1,0.2-0.2s-0.1-0.2-0.2-0.2H37.6z"/>
      <path class="st3" d="M39.5,38.3c0.2-0.2,0.2-0.4,0.2-0.6c0-0.5-0.4-0.9-1-0.9c-0.5,0-1,0.4-1,0.9c0,0.2,0.1,0.5,0.2,0.6
			c0,0-0.1,0-0.1,0l0,0c-0.3,0.2-0.5,0.5-0.5,0.8v1.2c0,0.3,0.2,0.5,0.5,0.5h1.8c0.3,0,0.5-0.2,0.5-0.5v-1.2c0-0.4-0.2-0.7-0.5-0.8
			L39.5,38.3C39.6,38.3,39.5,38.3,39.5,38.3z M39.3,37.7c0,0.2-0.2,0.5-0.5,0.5c-0.3,0-0.5-0.2-0.5-0.5s0.2-0.5,0.5-0.5
			C39.1,37.2,39.3,37.4,39.3,37.7z M39.7,39.2v1.2h-1.8v-1.2c0-0.2,0.1-0.3,0.3-0.4l0,0c0.1,0,0.1,0,0.2,0h0.9c0.1,0,0.1,0,0.2,0
			l0,0C39.6,38.9,39.7,39,39.7,39.2z"/>
      <path class="st3" d="M32.8,37.7c0,0.2-0.1,0.5-0.2,0.6c0,0,0.1,0,0.1,0l0,0c0.3,0.2,0.5,0.5,0.5,0.8v1.2c0,0.3-0.2,0.5-0.5,0.5
			h-1.8c-0.3,0-0.5-0.2-0.5-0.5v-1.2c0-0.4,0.2-0.7,0.5-0.8l0,0c0,0,0.1,0,0.1,0c-0.2-0.2-0.2-0.4-0.2-0.6c0-0.5,0.4-0.9,1-0.9
			C32.4,36.7,32.8,37.2,32.8,37.7z M31.8,38.2c0.3,0,0.5-0.2,0.5-0.5s-0.2-0.5-0.5-0.5c-0.3,0-0.5,0.2-0.5,0.5S31.5,38.2,31.8,38.2z
			 M32.8,40.4v-1.2c0-0.2-0.1-0.3-0.3-0.4l0,0c-0.1,0-0.1,0-0.2,0h-0.9c-0.1,0-0.1,0-0.2,0l0,0c-0.2,0.1-0.3,0.2-0.3,0.4v1.2H32.8z" />
      <path class="st2" d="M36.3,34.9c-0.1-0.1-0.1-0.2,0-0.3c0.1-0.1,0.2-0.1,0.3,0l1.6,1.6c0.1,0.1,0.1,0.2,0,0.3
			c-0.1,0.1-0.2,0.1-0.3,0L36.3,34.9z"/>
      <path class="st2" d="M34.4,34.6c0.1,0.1,0.1,0.2,0,0.3l-1.6,1.6c-0.1,0.1-0.2,0.1-0.3,0c-0.1-0.1-0.1-0.2,0-0.3l1.6-1.6
			C34.1,34.5,34.3,34.5,34.4,34.6z"/>
      <path class="st2" d="M39.5,35.1c0,0.1,0.1,0.2,0.2,0.2h1.4h0h0h1.2h0h0h1.2h0h0h1.2c0.1,0,0.2-0.1,0.2-0.2V31
			c0-0.1-0.1-0.2-0.2-0.2s-0.2,0.1-0.2,0.2v3.9h-0.7v-3c0-0.1-0.1-0.2-0.2-0.2s-0.2,0.1-0.2,0.2v3h-0.7v-1.6c0-0.1-0.1-0.2-0.2-0.2
			S42,33.2,42,33.3v1.6h-0.7v-1.8c0-0.1-0.1-0.2-0.2-0.2c-0.1,0-0.2,0.1-0.2,0.2v1.8h-0.7v-0.7c0-0.1-0.1-0.2-0.2-0.2
			c-0.1,0-0.2,0.1-0.2,0.2v0.7C39.6,34.9,39.5,35,39.5,35.1z"/>
    </g>
  </g>
</svg>
