<?xml version="1.0" encoding="utf-8"?>
<!-- Generator: Adobe Illustrator 25.0.1, SVG Export Plug-In . SVG Version: 6.00 Build 0)  -->
<svg version="1.1" id="Layer_1"
  xmlns="http://www.w3.org/2000/svg"
  xmlns:xlink="http://www.w3.org/1999/xlink" x="0px" y="0px" viewBox="0 0 76.8 76.8" style="enable-background:new 0 0 76.8 76.8;" xml:space="preserve">
  <style type="text/css">
	.st0{fill-rule:evenodd;clip-rule:evenodd;fill:#5722cc;fill-opacity:0.324;}
	.st1{fill-rule:evenodd;clip-rule:evenodd;fill:#5722cc;}
	.st2{fill:#FFFFFF;}
  </style>
  <g>
    <path class="st0" d="M14.4,16.4L14.4,16.4c0-0.6,0.5-1.1,1.1-1.1h40.7c0.3,0,0.5,0.1,0.7,0.3c0.2,0.2,0.3,0.5,0.3,0.7v38.7
		c0,0.6-0.5,1.1-1.1,1.1H15.5c-0.6,0-1.1-0.5-1.1-1.1V16.4z"/>
    <path class="st1" d="M17,19.1L17,19.1c0-0.6,0.5-1.1,1.1-1.1h40.5c0.3,0,0.6,0.1,0.8,0.3s0.3,0.5,0.3,0.8v38.6
		c0,0.6-0.5,1.1-1.1,1.1H18.1c-0.6,0-1.1-0.5-1.1-1.1L17,19.1z"/>
    <g>
      <g>
        <path class="st2" d="M46.7,41.8c-0.3-0.6,0.1-2.1,0.1-2.1c0.4-0.8-0.1-1.4-0.1-1.4c-0.8-1.3-1-2.5-1-2.5c0-0.2-0.1-0.3-0.3-0.3
				v5.1c0,0.7-0.6,1.2-1.2,1.2h-1.4c0.3,0.6,0.9,1.1,0.9,1.1c0.4,0.5,0.5,0.9,0.5,0.9l2.9-1.2L46.7,41.8z"/>
        <path class="st2" d="M45,40.6v-9.3c0-0.5-0.4-0.8-0.8-0.8H30.7c-0.5,0-0.8,0.4-0.8,0.8v2.2c0.6,0,1.4,1,0.5,2.5c0,0,0,0.1,0,0.2
				l0,4.9c0,0.1,0,0.2,0,0.2c0.1,0.1,0.3,0.1,0.4,0.1h13.5C44.7,41.4,45,41,45,40.6z M43.4,40.7H31.1v-9.6h12.3V40.7z"/>
        <path class="st2" d="M29.3,34.6c0,0-0.1,0.2-0.2,0.4c-1.3,1.3-1.4,1.3-1.4,1.5c-0.1,0.6,0.1,2,0.1,2c0.4,2-0.7,3.1-0.7,3.1
				l2.4,0.9c0.2-0.3,0.4-1.1,0.4-1.5c0-5-0.1-5,0.1-5.3C31.1,33.9,29.4,33.2,29.3,34.6z M28.8,36.3c-0.1,0.3-0.4,1-0.7,1.2
				c0.4-0.2,0.7-2,1-2.5C29.1,35.2,28.9,36,28.8,36.3z"/>
        <path class="st2" d="M32.9,40.1h1.3v-1.3l0.4,0.5l0.2-0.2l0.2,0.2l0.4-0.5v1.3h1.3c0.2,0,0.3-0.1,0.3-0.3v-3.4
				c0-0.2-0.1-0.3-0.3-0.3h-1.3v1.4L35,36.9l-0.2,0.2l-0.2-0.2l-0.4,0.5v-1.4h-1.3c-0.2,0-0.3,0.1-0.3,0.3v3.4
				C32.6,39.9,32.7,40.1,32.9,40.1z"/>
        <polygon class="st2" points="34.8,36.8 35,36.6 35.2,36.8 35.2,36.1 34.5,36.1 34.5,36.8 34.6,36.6 			"/>
        <polygon class="st2" points="34.8,39.3 34.6,39.6 34.5,39.3 34.5,40.1 35.2,40.1 35.2,39.3 35,39.6 			"/>
        <path class="st2" d="M39.6,37.2l-0.2-0.2l-0.4,0.5v-1.4h-1.3c-0.2,0-0.3,0.1-0.3,0.3v3.4c0,0.2,0.1,0.3,0.3,0.3h1.3v-1.3l0.4,0.5
				l0.2-0.2l0.2,0.2l0.4-0.5v1.3h1.3c0.2,0,0.3-0.1,0.3-0.3v-3.4c0-0.2-0.1-0.3-0.3-0.3h-1.3v1.4l-0.4-0.5L39.6,37.2z"/>
        <polygon class="st2" points="39.3,36.8 39.5,36.6 39.6,36.8 39.8,36.6 40,36.8 40,36.1 39.3,36.1 			"/>
        <polygon class="st2" points="39.6,39.3 39.5,39.6 39.3,39.3 39.3,40.1 40,40.1 40,39.3 39.8,39.6 			"/>
        <path class="st2" d="M35.5,35.7h1.3v-1.4l0.4,0.5l0.2-0.2l0.2,0.2l0.4-0.5v1.4h1.3c0.2,0,0.3-0.1,0.3-0.3V32
				c0-0.2-0.1-0.3-0.3-0.3H38v1.4l-0.4-0.5l-0.2,0.2l-0.2-0.2l-0.4,0.5v-1.4h-1.3c-0.2,0-0.3,0.1-0.3,0.3v3.4
				C35.2,35.6,35.3,35.7,35.5,35.7z"/>
        <polygon class="st2" points="37.4,32.5 37.6,32.2 37.8,32.5 37.8,31.7 37.1,31.7 37.1,32.5 37.2,32.2 			"/>
        <polygon class="st2" points="37.8,35 37.6,35.2 37.4,35 37.2,35.2 37.1,35 37.1,35.7 37.8,35.7 			"/>
      </g>
    </g>
  </g>
</svg>
