<?xml version="1.0" encoding="UTF-8"?>
<svg id="Layer_1" xmlns="http://www.w3.org/2000/svg" version="1.1" viewBox="0 0 1200 1200">
  <!-- Generator: Adobe Illustrator 29.3.1, SVG Export Plug-In . SVG Version: 2.1.0 Build 151)  -->
  <defs>
    <style>
      .st0, .st1, .st2 {
        fill: none;
      }

      .st3, .st1, .st2 {
        stroke: #8c95a6;
      }

      .st3, .st2 {
        stroke-width: 1.5px;
      }

      .st3, .st4, .st5, .st6 {
        fill: #fff;
      }

      .st7, .st8, .st9, .st10, .st11, .st5, .st12 {
        isolation: isolate;
      }

      .st7, .st8, .st9, .st10, .st5 {
        font-size: 22.1px;
      }

      .st7, .st8, .st5 {
        font-family: ArialRoundedMTBold, 'Arial Rounded MT Bold';
      }

      .st7, .st9 {
        fill: #ef4444;
      }

      .st8 {
        fill: #66758f;
      }

      .st13 {
        fill: #ffb406;
      }

      .st1 {
        stroke-linecap: round;
        stroke-linejoin: round;
      }

      .st1, .st6 {
        stroke-width: 2px;
      }

      .st9, .st10 {
        font-family: ArialMT, Arial;
      }

      .st10 {
        fill: #374151;
      }

      .st14 {
        fill: #341b14;
      }

      .st15 {
        fill: #5722cc;
      }

      .st16 {
        fill: #336;
      }

      .st12 {
        fill: #19212e;
        font-family: Arial-BoldMT, Arial;
        font-size: 38.7px;
        font-weight: 700;
      }

      .st17 {
        fill: #fdca2e;
      }

      .st6 {
        stroke: #d9dee7;
      }

      .st18 {
        fill: #d0131d;
      }
    </style>
  </defs>
  <rect class="st0" width="1200" height="1200" rx="3" ry="3"/>
  <g>
    <g>
      <rect class="st6" x="154.9" y="212.9" width="780.8" height="774.2" rx="26.7" ry="26.7"/>
      <g class="st11">
        <text class="st12" transform="translate(231.9 286.6)"><tspan x="0" y="0">Edit Carrier Connection</tspan></text>
      </g>
      <g>
        <rect class="st2" x="231.9" y="368.7" width="626.7" height="64.5" rx="13.3" ry="13.3"/>
        <g class="st11">
          <text class="st10" transform="translate(254 409.2)"><tspan x="0" y="0">DHL Express</tspan></text>
        </g>
        <g>
          <polyline class="st1" points="821.4 402.9 824.9 407.1 828.3 402.9"/>
          <polyline class="st1" points="828.3 399 824.8 394.7 821.4 399"/>
        </g>
        <g class="st11">
          <g class="st11">
            <text class="st8" transform="translate(231.3 350.2)"><tspan x="0" y="0">Carrier</tspan></text>
          </g>
        </g>
      </g>
      <g>
        <g class="st11">
          <g class="st11">
            <text class="st8" transform="translate(231.9 479.3)"><tspan x="0" y="0">Carrier ID</tspan></text>
          </g>
          <g class="st11">
            <text class="st7" transform="translate(339.8 479.3)"><tspan x="0" y="0">*</tspan></text>
          </g>
        </g>
        <rect class="st3" x="231.9" y="497.7" width="626.7" height="64.5" rx="13.3" ry="13.3"/>
      </g>
      <g>
        <g class="st11">
          <g class="st11">
            <text class="st8" transform="translate(231.9 608.3)"><tspan x="0" y="0">Site ID</tspan></text>
          </g>
          <g class="st11">
            <text class="st9" transform="translate(304.7 608.3)"><tspan x="0" y="0">*</tspan></text>
          </g>
        </g>
        <rect class="st3" x="231.9" y="626.7" width="626.7" height="64.5" rx="13.3" ry="13.3"/>
      </g>
      <g>
        <g class="st11">
          <g class="st11">
            <text class="st8" transform="translate(231.9 737.3)"><tspan x="0" y="0">Account Number</tspan></text>
          </g>
          <g class="st11">
            <text class="st7" transform="translate(416 737.3)"><tspan x="0" y="0">*</tspan></text>
          </g>
        </g>
        <rect class="st3" x="231.9" y="755.8" width="626.7" height="64.5" rx="13.3" ry="13.3"/>
      </g>
      <g>
        <rect class="st15" x="231.9" y="858.1" width="626.7" height="64.5" rx="13.3" ry="13.3"/>
        <g class="st11">
          <text class="st5" transform="translate(499.8 897.5)"><tspan x="0" y="0">Connect</tspan></text>
        </g>
      </g>
    </g>
    <g>
      <g>
        <path class="st17" d="M1046.1,465c0,7.3-5.9,13.2-13.2,13.2h-142.6c-7.3,0-13.2-5.9-13.2-13.2v-142.6c0-7.3,5.9-13.2,13.2-13.2h142.6c7.3,0,13.2,5.9,13.2,13.2v142.6Z"/>
        <path class="st18" d="M942.8,397.7c1.5-3,2.7-5.6,3.3-6.8,2.6-5.4,0-12.9-9.3-12.9h-30.4l-5.3,10.6h28.3c2.2,0,3,.5,2.3,1.8s-2.1,4.2-2.5,5c-.5,1-.7,2.1.8,2.1h12.7ZM923.8,398.7c-1.5,0-1.7-1-1.2-1.7.3-.7,2.3-4.6,2.6-5.4.5-1,.3-2-2-2h-12.9l-9.7,19.6h25.5c6.9,0,12.1-2.5,15.5-9.6.2-.3.3-.7.5-1h-18.4ZM945.2,398.7l-5.2,10.6h15.8l5.2-10.6h-15.8ZM967.5,398.7l-5.2,10.6h15.8l5.2-10.6h-15.8ZM983.8,397.7l9.7-19.6h-15.8l-5.2,10.6h-6.4l5.3-10.6h-15.8l-9.6,19.6h38,0ZM997.4,378.1h15.8l-9.7,19.6h-15.8l9.7-19.6h0ZM987.3,398.7h35.4l-5.2,10.6h-26.1c-5.4,0-7.2-4.1-5.3-8.2.2-.5,1.2-2.4,1.2-2.4ZM903.5,398.7l-1.5,3.1h-24.9v-3.1h26.4ZM901.7,402.4l-1.6,3.1h-23v-3.1h24.6ZM899.9,406.2l-1.6,3.1h-21.2v-3.1h22.8ZM1046.1,401.8h-22.7l1.5-3.1h21.2v3.1ZM1046.1,405.5h-24.6l1.5-3.1h23v3.1h0ZM1046.1,409.3h-26.4l1.6-3.1h24.8v3.1Z"/>
      </g>
      <g>
        <path class="st14" d="M1029.4,684.5h-135.5c-9.2,0-16.8-7.5-16.8-16.8v-135.5c0-9.2,7.5-16.8,16.8-16.8h135.5c9.2,0,16.8,7.5,16.8,16.8v135.5c0,9.2-7.5,16.8-16.8,16.8Z"/>
        <path class="st14" d="M961.6,662.8c1.1-.6,29.5-12.9,38.5-20.2,9.2-7.6,14.2-18.6,14.2-31.7v-61.4l-.8-.2c-22.6-12.3-50.8-11.5-52.2-11.5s-29.2-.8-51.8,11.5l-.6.2v61.7c0,13.1,5,24,14.2,31.7,9,7.3,37.4,19.6,38.5,20"/>
        <path class="st13" d="M961.6,664.1s-30-13.1-39.3-20.5c-9.8-8.2-14.4-19.4-14.4-32.2v-63.9c23.8-12.8,53.7-11.7,53.7-11.7,0,0,30-1.1,53.7,11.7v63.6c0,12.9-4.6,24-14.4,32.2-9.2,7.7-39.3,20.8-39.3,20.8M912.2,611.5c0,12.1,4.4,21.8,12.9,28.6,7.6,6.3,30.3,16.3,36.6,19.1,6.3-2.7,29.2-13.1,36.6-19.1,8.4-6.9,12.9-16.9,12.9-28.6v-62.8c-31.7-3-69.3-1.3-98.8,25.9v36.9h0Z"/>
        <path class="st13" d="M991.9,602.5c4.1,2.5,5.8,4.1,6,7.1,0,3.3-2.1,5.2-5.8,5.2s-6.5-1.7-9-3.8v8.7c3,1.7,6.5,3,10.4,3,9.2,0,13.6-6.5,13.6-12.5.2-5.4-1.3-9.8-9.2-14.4-3.5-2.1-6.3-3.5-6.3-6.9s3-4.6,5.4-4.6,6.5,1.9,8.4,3.8v-8.2c-1.7-1.3-5.2-3.3-10.4-3-6.3.2-12.9,4.6-12.9,12.3.3,5.2,2,9,9.6,13.4M959.7,622.1c.8.2,2.1.6,4.4.6,10.6,0,16.7-9.6,16.7-23.2s-6.3-22.4-17.5-22.4-9.2,1.1-12.9,3.3v61.7h9.2v-19.9h0ZM959.7,585c.8-.2,2.1-.8,3.3-.8,5.4,0,7.6,4.4,7.6,15s-2.7,15.3-8.2,15.3-2.5-.2-3-.6v-28.9h.3,0ZM931.1,622.6c5.8,0,10.6-1.3,14.2-3.8v-41.2h-9.6v35.7c-1.1.8-2.5,1.1-4.4,1.1-4.4,0-5-4.1-5-6.5v-30.3h-9.6v29.7c0,10.1,4.9,15.3,14.2,15.3"/>
      </g>
      <g>
        <path class="st16" d="M1046.1,877.6c0,7.3-5.9,13.2-13.2,13.2h-142.6c-7.3,0-13.2-5.9-13.2-13.2v-142.6c0-7.3,5.9-13.2,13.2-13.2h142.6c7.3,0,13.2,5.9,13.2,13.2v142.6Z"/>
        <path class="st4" d="M1010.5,848.5l18-84.4h-117.4l-17.9,84.4h117.4,0Z"/>
        <path class="st16" d="M913.4,767.5s65.3,13.4,66.6,13.6c15,2.6,14.5,5.5,14.5,5.5,10.5,0,11.8.3,13.6,1.9,5.5,4.6-3.5,18.2-3.5,18.2-1.3,1-98.5,38.5-98.5,38.5h101.7l16.6-78.2h-111.1v.3"/>
        <path class="st16" d="M989.4,792.8c-1.5.7-5.3,1.2-7.1,1.3-1.7.2-2.2.3-2.2,1s.2.9,2.7.9c5.7,0,16-2.1,19.1-1.2,1.7.5.3,3.5-1,7.3-.5,1.5.5,1.4,1.1.7s3.3-5.5,3.5-8c.4-3.5-2.6-4-6.8-4h-6.6c-.3,0-.7.2-1.1.8-.3.5-.7.7-1.6,1.2"/>
        <path class="st16" d="M909.6,785.2l-12.7,60.1s39.1-19.1,43.8-21.6c9.8-5,23.4-11.7,35.8-15.9,2.4-.8,12.6-4,18.6-5,2.3-.4,3.3-.8,3.3-1.2,0-1.2-2.4-1.3-6.4-1.2-12,.6-34.9,9.7-41.5,13.2l-7.4-23.1h47.7c2.1-6-28.2-5.1-29.1-5.2h-52"/>
      </g>
    </g>
  </g>
</svg>