<?xml version="1.0" encoding="UTF-8"?>
<svg id="Layer_1" xmlns="http://www.w3.org/2000/svg" version="1.1" viewBox="0 0 1200 1200">
  <!-- Generator: Adobe Illustrator 29.3.1, SVG Export Plug-In . SVG Version: 2.1.0 Build 151)  -->
  <defs>
    <style>
      .st0, .st1 {
        fill: none;
      }

      .st2 {
        fill: #141414;
        font-family: ArialMT, Arial;
        font-size: 26px;
      }

      .st2, .st3, .st4, .st5, .st6 {
        isolation: isolate;
      }

      .st3 {
        font-size: 72px;
      }

      .st3, .st5, .st6 {
        font-family: Arial-BoldMT, Arial;
        font-weight: 700;
      }

      .st7 {
        fill: #4e4e4e;
      }

      .st5 {
        font-size: 28px;
      }

      .st1 {
        stroke: #ededed;
        stroke-linecap: round;
        stroke-linejoin: round;
        stroke-width: 20px;
      }

      .st6 {
        font-size: 54.3px;
      }

      .st8 {
        fill: #fff;
        stroke: #d1d1d1;
        stroke-miterlimit: 10;
      }
    </style>
  </defs>
  <rect class="st0" width="1200" height="1200" rx="3" ry="3"/>
  <rect class="st8" x="153.5" y="121.7" width="893.1" height="956.6" rx="20" ry="20"/>
  <g>
    <g class="st4">
      <text class="st3" transform="translate(210.3 259.9) scale(1.2 1)"><tspan x="0" y="0">Invoice</tspan></text>
    </g>
    <g class="st4">
      <text class="st6" transform="translate(219.1 827.1) scale(1.3 1)"><tspan x="0" y="0">$17.28</tspan></text>
    </g>
    <g class="st4">
      <text class="st5" transform="translate(215.1 348.5) scale(1.2 1)"><tspan x="0" y="0">Invoice number</tspan></text>
    </g>
    <g class="st4">
      <text class="st2" transform="translate(494.5 347.9) scale(1.2 1)"><tspan x="0" y="0">KIWRUALS-001</tspan></text>
    </g>
    <g class="st4">
      <text class="st2" transform="translate(496.5 396.3) scale(1.2 1)"><tspan x="0" y="0">Jun. 29, 2019</tspan></text>
    </g>
    <g class="st4">
      <text class="st5" transform="translate(215.1 396.8) scale(1.2 1)"><tspan x="0" y="0">Issue date</tspan></text>
    </g>
    <g class="st4">
      <text class="st5" transform="translate(217 504.5) scale(1.2 1)"><tspan x="0" y="0">From</tspan></text>
    </g>
    <g class="st4">
      <text class="st5" transform="translate(670.6 504.9) scale(1.2 1)"><tspan x="0" y="0">Bill to</tspan></text>
    </g>
    <g>
      <line class="st1" x1="225.6" y1="573.1" x2="486.8" y2="573.1"/>
      <line class="st1" x1="225.6" y1="655.8" x2="524.6" y2="655.8"/>
      <line class="st1" x1="225.6" y1="614.5" x2="423.3" y2="614.5"/>
      <line class="st1" x1="225.6" y1="697.1" x2="385.9" y2="697.1"/>
    </g>
    <line class="st1" x1="229.1" y1="919.9" x2="534.7" y2="919.9"/>
    <line class="st1" x1="229.1" y1="991.9" x2="534.7" y2="991.9"/>
    <line class="st1" x1="666.3" y1="991.9" x2="971.9" y2="991.9"/>
    <g>
      <line class="st1" x1="680.6" y1="573.1" x2="941.8" y2="573.1"/>
      <line class="st1" x1="680.6" y1="655.8" x2="979.7" y2="655.8"/>
      <line class="st1" x1="680.6" y1="614.5" x2="878.3" y2="614.5"/>
      <line class="st1" x1="680.6" y1="697.1" x2="841" y2="697.1"/>
    </g>
    <g>
      <rect class="st8" x="889.7" y="198.6" width="91.7" height="91.7" rx="10" ry="10"/>
      <path class="st7" d="M968.6,231.9v-17.1c0-2.1-1.6-3.7-3.7-3.7h-17.1c-3.2,0-6.3,1.1-8.9,2.6-1.3.8-2.4,1.8-3.4,3.2-2.9-3.4-7.4-5.8-12.3-5.8h-17.1c-2.1,0-3.7,1.6-3.7,3.7v17.1c0,5,2.4,9.2,5.8,12.3-3.4,2.9-5.8,7.3-5.8,12.3v17.1c0,2.1,1.6,3.7,3.7,3.7h17.1c2.1,0,3.7-1.6,3.7-3.7s-1.6-3.7-3.7-3.7h-13.4v-13.4c0-4.7,3.7-8.4,8.4-8.4h13.4v13.4c0,8.9,7.1,16,16,16h17.1c2.1,0,3.7-1.6,3.7-3.7v-17.1c0-5-2.4-9.2-5.8-12.3,3.9-3.2,6-7.6,6-12.6h0ZM918.4,240.6c-4.7,0-8.4-3.7-8.4-8.4v-13.7h13.4c4.7,0,8.4,3.7,8.4,8.4v13.4h-13.4v.3ZM961.2,256.6v13.4h-13.4c-4.7,0-8.4-3.7-8.4-8.4v-13.4h13.4c4.5-.3,8.4,3.7,8.4,8.4ZM939.2,240.6v-13.4c0-2.9,1.3-5.5,3.7-7.1,1.3-1.1,3.2-1.6,4.7-1.6h13.4v13.4c0,4.7-3.7,8.4-8.4,8.4h-13.4v.3h0Z"/>
    </g>
  </g>
</svg>