<?xml version="1.0" encoding="utf-8"?>
<!-- Generator: Adobe Illustrator 26.0.3, SVG Export Plug-In . SVG Version: 6.00 Build 0)  -->
<svg version="1.1" id="Layer_1"
  xmlns="http://www.w3.org/2000/svg"
  xmlns:xlink="http://www.w3.org/1999/xlink" x="0px" y="0px" viewBox="0 0 87.8 25" style="enable-background:new 0 0 87.8 25;" xml:space="preserve">
  <style type="text/css">
	.st0{fill:#FF4800;}
	.st1{fill:#79E5DD;}
	.st2{fill:#FFFFFF;}
  </style>
  <g>
    <path class="st0" d="M7.3,21.6c-1.1,0-2-0.9-2-2V5.2c0.1-1.1,1-1.9,2.1-1.9c1,0.1,1.8,0.9,1.9,1.9v14.4C9.2,20.7,8.3,21.6,7.3,21.6
		L7.3,21.6z"/>
    <path class="st1" d="M7.3,21.7c-1.1,0-2-0.9-2-2c0-0.4,0.1-0.7,0.3-1.1l9.2-14.3c0.6-0.9,1.8-1.2,2.8-0.6c1,0.5,1.2,1.8,0.6,2.8
		L9,20.8C8.6,21.4,8,21.7,7.3,21.7z"/>
    <circle class="st2" cx="15.8" cy="17.6" r="3.7"/>
    <path class="st2" d="M28.2,14.5l-1.9,1.6v2.1h-3.2V5.9h3.3V13l4.3-4.1h3.6l-3.8,3.7l4.1,5.5H31L28.2,14.5z"/>
    <path class="st2" d="M45.9,13v3.5c0,0.6,0.1,1.2,0.4,1.8h-3.3c-0.2-0.3-0.3-0.6-0.3-1l0,0c-1,0.9-2.3,1.3-3.6,1.3
		c-2,0-4.4-0.8-4.4-3.1s2.5-3.1,4.4-3.1c1.3-0.1,2.7,0.4,3.6,1.3V13c0-1.4-1.1-2-3-2c-1.2,0-2.3,0.2-3.3,0.7l-0.7-2
		c1.5-0.6,3.1-1,4.7-1C43.8,8.7,45.9,10.2,45.9,13z M42.7,15.3c-0.7-0.8-1.7-1.2-2.8-1.2c-0.9,0-2.2,0.3-2.2,1.2s1.2,1.2,2.2,1.2
		c1.1,0.1,2-0.4,2.8-1.2V15.3z"/>
    <path class="st2" d="M48.2,18.3V9h3.3v1.7c0.9-1.3,2.3-2,3.8-2v2.8c-2,0-3.4,0.7-3.8,2.3v4.4H48.2z"/>
    <path class="st2" d="M56.8,18.3V9h3.3v1.7c0.8-1.3,2.3-2,3.8-2v2.8c-2,0-3.4,0.7-3.8,2.3v4.4H56.8z"/>
    <path class="st2" d="M65.1,6.5c0-0.9,0.8-1.5,1.9-1.5c1.1,0,1.9,0.6,1.9,1.5S68,8.1,66.9,8.1C65.9,8.1,65.1,7.4,65.1,6.5z
		 M68.6,18.2h-3.3V9h3.3V18.2z"/>
    <path class="st2" d="M70.4,13.6c0-3.1,2.3-5,6-5s6,1.9,6,5s-2.3,5-6,5S70.4,16.7,70.4,13.6z M79.3,13.6c0-1.6-1.2-2.5-2.8-2.5
		s-2.9,0.8-2.9,2.5s1.2,2.5,2.9,2.5S79.4,15.3,79.3,13.6L79.3,13.6z"/>
  </g>
</svg>
