<?xml version="1.0" encoding="utf-8"?>
<!-- Generator: Adobe Illustrator 27.4.1, SVG Export Plug-In . SVG Version: 6.00 Build 0)  -->
<svg version="1.1" id="Layer_1" xmlns="http://www.w3.org/2000/svg" xmlns:xlink="http://www.w3.org/1999/xlink" x="0px" y="0px"
	 viewBox="0 0 512 512" style="enable-background:new 0 0 512 512;" xml:space="preserve">
<style type="text/css">
	.st0{fill:#FDCA2E;}
	.st1{fill:#003DA5;}
</style>
<path class="st0" d="M511.8,472.3c0,22.1-17.9,40-40,40h-432c-22.1,0-40-17.9-40-40v-432c0-22.1,17.9-40,40-40h432
	c22.1,0,40,17.9,40,40V472.3z"/>
<g id="logo">
	<g id="embleme" transform="translate(0 .411)">
		<path id="Tracé_4896" class="st1" d="M146.8,111.8l87,39.4H367l11-19.1c4.8-7.8,2.4-17.9-5.4-22.7c-2.4-1.5-5.2-2.4-8.1-2.5
			H147.7c-1.4-0.1-2.6,0.9-2.7,2.3C145,110.4,145.7,111.4,146.8,111.8L146.8,111.8z"/>
		<path id="Tracé_4897" class="st1" d="M233.8,168.1h217c2.7,0,4.9,2.2,4.9,4.9c0,2.2-1.4,4.1-3.5,4.7L59.5,283.9
			c-1.3,0.4-2.7-0.3-3.1-1.6c-0.3-1,0-2.1,0.9-2.7L233.8,168.1z"/>
		<path id="Tracé_4898" class="st1" d="M124.1,284l142.5-2.6c15.2-0.4,29.1-8.3,37.4-21l17.1-29.6L124.1,284z"/>
	</g>
	<g id="texte" transform="translate(108.324)">
		<g id="la_poste" transform="translate(.358)">
			<path id="path6" class="st1" d="M20.7,349.9h-11l-27.9,53.7h11.6l5-9.9h33.5l3.3,6.5c1.6,3.2,3.1,3.4,7.3,3.4h6.2L20.7,349.9z
				 M3.2,384.1l11.8-23.4l11.8,23.4H3.2z"/>
			<path id="path8" class="st1" d="M80.9,387.7v15.9H70.1v-53.3c5.7-0.1,13.3-0.4,19.7-0.4c12.4,0,20.6,1.7,25.5,6.6
				c3,3.1,4.6,7.3,4.3,11.6c0,15.4-12,19.6-29.2,19.6C88.1,387.8,83.7,387.8,80.9,387.7L80.9,387.7z M80.9,377.9
				c2.7,0.1,6.1,0.1,8.5,0.1c6.9,0,13.3-0.2,16.7-3.6c1.6-1.6,2.4-3.7,2.3-5.9c0-1.8-0.6-3.6-1.8-5c-3.4-3.4-8.3-3.6-17.1-3.6
				c-2.4,0-5.8,0-8.5,0.1V377.9z"/>
			<path id="path10" class="st1" d="M189.9,377c0,15.3-12,27.7-32.2,27.7s-32.3-12.4-32.3-27.7s12-27.7,32.3-27.7
				S189.9,361.7,189.9,377z M157.6,359c-12.3,0-21,7.1-21,18s8.7,18,21,18c12.3,0,21-7.1,21-18S169.9,359,157.6,359L157.6,359z"/>
			<path id="path12" class="st1" d="M244.5,355.3c-6.9-3.8-14.7-5.9-22.6-6c-13.6,0-24.2,7.1-24.2,17c0,18.6,36.8,11.7,36.8,22.8
				c0,4.5-6.7,6.4-12.5,6.4c-7.7-0.1-15.2-2.4-21.5-6.7l-5.5,8.2c7.9,4.8,16.9,7.5,26.1,7.6c13.4,0,24.7-6.2,24.7-16.7
				c0-18.9-36.6-13-36.6-23.3c0-4.3,6.1-6.2,12.6-6.2c6.3,0.1,12.4,2,17.7,5.4L244.5,355.3z"/>
			<path id="polygon14" class="st1" d="M301.2,350.3h-51.6v9.9h20.2v43.4h10.8v-43.4h20.6L301.2,350.3z"/>
			<path id="Tracé_4899" class="st1" d="M308,350.3v49.4c-0.1,2,1.3,3.7,3.3,3.8c0.2,0,0.4,0,0.5,0h43.5v-9.9h-36.5v-12.4h32.6
				v-9.9h-32.6v-11.3h35.6v-9.9H308"/>
			<path id="Tracé_4900" class="st1" d="M-49.9,350.3h-10.8v49.4c-0.1,2,1.3,3.7,3.3,3.8c0.2,0,0.4,0,0.5,0h32.3l5.1-9.9h-30.5
				L-49.9,350.3z"/>
		</g>
	</g>
</g>
</svg>
