<?xml version="1.0" encoding="utf-8"?>
<!-- Generator: Adobe Illustrator 27.4.1, SVG Export Plug-In . SVG Version: 6.00 Build 0)  -->
<svg version="1.1" id="Layer_1" xmlns="http://www.w3.org/2000/svg" xmlns:xlink="http://www.w3.org/1999/xlink" x="0px" y="0px"
	 viewBox="0 0 125 25" style="enable-background:new 0 0 125 25;" xml:space="preserve">
<style type="text/css">
	.st0{fill:#FDCA2E;}
	.st1{fill:none;}
	.st2{fill:#003DA5;}
</style>
<rect class="st0" width="125" height="25"/>
<rect x="-30.7" y="-29.9" class="st1" width="202.9" height="92.8"/>
<g id="logo">
	<g id="embleme" transform="translate(0 .411)">
		<path id="Tracé_4896" class="st2" d="M15.3,3.8l8.6,3.9h13.2l1.1-1.9c0.5-0.8,0.2-1.8-0.5-2.2c-0.2-0.1-0.5-0.2-0.8-0.2H15.4
			c-0.1,0-0.3,0.1-0.3,0.2C15.1,3.7,15.2,3.8,15.3,3.8L15.3,3.8z"/>
		<path id="Tracé_4897" class="st2" d="M23.9,9.4h21.5c0.3,0,0.5,0.2,0.5,0.5c0,0.2-0.1,0.4-0.4,0.5L6.7,20.8c-0.1,0-0.3,0-0.3-0.2
			c0-0.1,0-0.2,0.1-0.3L23.9,9.4z"/>
		<path id="Tracé_4898" class="st2" d="M13.1,20.8l14.1-0.3c1.5,0,2.9-0.8,3.7-2.1l1.7-2.9L13.1,20.8z"/>
	</g>
	<g id="texte" transform="translate(108.324)">
		<g id="la_poste" transform="translate(.358)">
			<path id="path6" class="st2" d="M-45,8h-1.8l-4.6,8.8h1.9l0.8-1.6h5.5l0.5,1.1c0.3,0.5,0.5,0.6,1.2,0.6h1L-45,8z M-47.9,13.7
				l1.9-3.9l1.9,3.9H-47.9z"/>
			<path id="path8" class="st2" d="M-35.1,14.3v2.6h-1.8V8.1c0.9,0,2.2-0.1,3.2-0.1c2,0,3.4,0.3,4.2,1.1c0.5,0.5,0.7,1.2,0.7,1.9
				c0,2.5-2,3.2-4.8,3.2C-34,14.3-34.7,14.3-35.1,14.3L-35.1,14.3z M-35.1,12.6c0.4,0,1,0,1.4,0c1.1,0,2.2,0,2.7-0.6
				c0.3-0.3,0.4-0.6,0.4-1c0-0.3-0.1-0.6-0.3-0.8c-0.6-0.6-1.4-0.6-2.8-0.6c-0.4,0-1,0-1.4,0V12.6z"/>
			<path id="path10" class="st2" d="M-17.2,12.5c0,2.5-2,4.5-5.3,4.5s-5.3-2-5.3-4.5s2-4.5,5.3-4.5S-17.2,10-17.2,12.5z M-22.5,9.5
				c-2,0-3.5,1.2-3.5,3s1.4,3,3.5,3s3.5-1.2,3.5-3S-20.5,9.5-22.5,9.5L-22.5,9.5z"/>
			<path id="path12" class="st2" d="M-8.2,8.9c-1.1-0.6-2.4-1-3.7-1c-2.2,0-4,1.2-4,2.8c0,3.1,6,1.9,6,3.7c0,0.7-1.1,1.1-2.1,1.1
				c-1.3,0-2.5-0.4-3.5-1.1l-0.9,1.3c1.3,0.8,2.8,1.2,4.3,1.2c2.2,0,4.1-1,4.1-2.7c0-3.1-6-2.1-6-3.8c0-0.7,1-1,2.1-1
				c1,0,2,0.3,2.9,0.9L-8.2,8.9z"/>
			<path id="polygon14" class="st2" d="M1.1,8.1h-8.5v1.6h3.3v7.1h1.8V9.7h3.4L1.1,8.1z"/>
			<path id="Tracé_4899" class="st2" d="M2.2,8.1v8.1c0,0.3,0.2,0.6,0.5,0.6c0,0,0.1,0,0.1,0H10v-1.6H4v-2h5.4v-1.6H4V9.7h5.8V8.1
				H2.2"/>
			<path id="Tracé_4900" class="st2" d="M-56.6,8.1h-1.8v8.1c0,0.3,0.2,0.6,0.5,0.6c0,0,0.1,0,0.1,0h5.3l0.8-1.6h-5L-56.6,8.1z"/>
		</g>
	</g>
</g>
</svg>
