<?xml version="1.0" encoding="utf-8"?>
<!-- Generator: Adobe Illustrator 27.4.1, SVG Export Plug-In . SVG Version: 6.00 Build 0)  -->
<svg version="1.1" id="Layer_1" xmlns="http://www.w3.org/2000/svg" xmlns:xlink="http://www.w3.org/1999/xlink" x="0px" y="0px"
	 viewBox="0 0 125 25" style="enable-background:new 0 0 125 25;" xml:space="preserve">
<style type="text/css">
	.st0{fill:#76CCCD;}
	.st1{fill:none;}
	.st2{fill:#FFFFFF;}
</style>
<rect class="st0" width="125" height="25"/>
<rect x="-30.7" y="-29.9" class="st1" width="202.9" height="92.8"/>
<g>
	<path class="st2" d="M49.7,11.2c0,0.7-0.5,1.1-1.4,1.1h-1.6c-0.1,0-0.1-0.1-0.1-0.1c0,0,0,0,0,0v-2c0-0.1,0.1-0.1,0.1-0.1
		c0,0,0,0,0,0h1.6C49.2,10.1,49.7,10.4,49.7,11.2L49.7,11.2z M52.6,17.2L52.6,17.2l-2.2-3.3c1.2-0.5,1.9-1.4,1.9-2.9v0
		c0-0.8-0.3-1.6-0.8-2.2c-0.6-0.6-1.6-1-3-1h-4.3C44.1,7.8,44,7.9,44,8c0,0,0,0,0,0V17c0,0.1,0.1,0.1,0.1,0.1c0,0,0,0,0,0h2.3
		c0.1,0,0.1-0.1,0.1-0.1c0,0,0,0,0,0v-2.6c0-0.1,0.1-0.1,0.1-0.1c0,0,0,0,0,0h1c0,0,0,0,0.1,0.1l1.7,2.6c0.1,0.1,0.1,0.1,0.2,0.1
		L52.6,17.2z M62.7,12.5c0,1.3-1,2.5-2.4,2.5c-1.4,0-2.4-1.2-2.4-2.5v0c0-1.3,1-2.5,2.4-2.5S62.7,11.1,62.7,12.5L62.7,12.5z
		 M65.4,12.5L65.4,12.5c0-2.7-2.1-4.9-5-4.9s-5,2.2-5,4.9v0c0,2.7,2.1,4.8,5,4.8S65.4,15.2,65.4,12.5 M73.6,13.4
		c0,0,0.1,0.1-0.1,0.1h-1.8c0,0-0.1,0-0.1-0.1l1-2.4c0,0,0.1-0.1,0.1,0L73.6,13.4z M75,17c0,0.1,0.1,0.1,0.2,0.1h2.5
		c0,0,0.1,0,0.1-0.1l-3.9-9.1c0-0.1-0.1-0.1-0.2-0.1h-2.2c-0.1,0-0.2,0.1-0.2,0.1L67.4,17c0,0-0.1,0.1,0.1,0.1h2.4
		c0.1,0,0.2-0.1,0.2-0.1l0.6-1.4c0-0.1,0.1-0.1,0.2-0.1h3.3c0.1,0,0.2,0.1,0.2,0.1L75,17z M86.9,12.5c0,1.5-1,2.4-2.6,2.4h-0.9
		c-0.1,0-0.1-0.1-0.1-0.1c0,0,0,0,0,0v-4.5c0-0.1,0.1-0.1,0.1-0.1c0,0,0,0,0,0h0.9C85.9,10.1,86.9,11,86.9,12.5L86.9,12.5z
		 M89.6,12.5L89.6,12.5c0-2.7-1.9-4.6-5.3-4.6h-3.5c-0.1,0-0.1,0.1-0.1,0.1c0,0,0,0,0,0V17c0,0.1,0.1,0.1,0.1,0.1c0,0,0,0,0,0h3.4
		C87.6,17.2,89.6,15.2,89.6,12.5 M93,17c0,0.1,0.1,0.1,0.1,0.1c0,0,0,0,0,0h2.3c0.1,0,0.1-0.1,0.1-0.1c0,0,0,0,0,0V8
		c0-0.1-0.1-0.1-0.1-0.1c0,0,0,0,0,0h-2.3C93,7.8,93,7.9,93,8c0,0,0,0,0,0L93,17z M102,15c-0.1,0-0.1-0.1-0.1-0.1c0,0,0,0,0,0v-1.2
		c0-0.1,0.1-0.1,0.1-0.1c0,0,0,0,0,0h4.2c0.1,0,0.1-0.1,0.1-0.1c0,0,0,0,0,0v-1.8c0-0.1-0.1-0.1-0.1-0.1c0,0,0,0,0,0H102
		c-0.1,0-0.1-0.1-0.1-0.1c0,0,0,0,0,0v-1.1c0-0.1,0.1-0.1,0.1-0.1c0,0,0,0,0,0h4.7c0.1,0,0.1-0.1,0.1-0.1c0,0,0,0,0,0V8
		c0-0.1-0.1-0.1-0.1-0.1c0,0,0,0,0,0h-7.2c-0.1,0-0.1,0.1-0.1,0.1c0,0,0,0,0,0V17c0,0.1,0.1,0.1,0.1,0.1c0,0,0,0,0,0h7.3
		c0.1,0,0.1-0.1,0.1-0.1c0,0,0,0,0,0v-1.9c0-0.1-0.1-0.1-0.1-0.1c0,0,0,0,0,0L102,15z"/>
	<path class="st2" d="M23.7,24.5c-6.6,0-12-5.4-12-12s5.4-12,12-12s12,5.4,12,12c0,0,0,0,0,0C35.7,19.1,30.3,24.5,23.7,24.5
		C23.7,24.5,23.7,24.5,23.7,24.5z"/>
	<path class="st0" d="M28.9,10.4c0,0,0.4-3.5-4.6-3.5H19C19,7,18.9,7,18.9,7.1c0,0,0,0,0,0v5.1h-7.1c0,0.1,0,0.2,0,0.2
		c0,0.3,0,0.6,0,0.8h14.1C27.7,13.3,28.9,12.4,28.9,10.4z M25.9,10.9c0,0.8-0.6,1.4-1.7,1.4h-2c-0.1,0-0.2-0.1-0.2-0.2c0,0,0,0,0,0
		V9.7c0-0.1,0.1-0.2,0.2-0.2c0,0,0,0,0,0h1.9C25.3,9.5,25.9,10,25.9,10.9L25.9,10.9z"/>
	<path class="st0" d="M19,18.3h2.9c0.1,0,0.2-0.1,0.2-0.2c0,0,0,0,0,0V15c0-0.1,0-0.1,0.1-0.2h1.3c0,0,0.1,0.1,0.1,0.1l2.1,3.2
		c0.1,0.1,0.2,0.1,0.3,0.1h3.5l-2.8-3.8l0,0l-0.1-0.2c-0.3-0.3-0.7-0.6-1.2-0.6H11.8c0,0.4,0.1,0.7,0.2,1.1h6.9v3.3
		C18.9,18.2,18.9,18.3,19,18.3C19,18.3,19,18.3,19,18.3z"/>
</g>
</svg>
