<svg width="64" height="64" viewBox="0 0 64 64" fill="none" xmlns="http://www.w3.org/2000/svg">
    <!-- Shopify-inspired logo design -->
    <rect width="64" height="64" rx="12" fill="#95BF47" />
    <path
        d="M45.5 18.5c-.3-.1-.5-.1-.8-.1-.1 0-.3 0-.4.1-.1-.1-.2-.2-.4-.3-.8-.6-1.9-.8-3.2-.6-1.3.2-2.8.8-4.1 1.7-.4.3-.8.6-1.1.9-.4-.1-.8-.1-1.2 0-1.8.4-3.4 1.6-4.5 3.2-.7 1-.1 1.9.6 2.7.3.3.6.5.9.7-.1.4-.2.8-.2 1.2 0 .8.2 1.5.5 2.2.6 1.3 1.6 2.3 2.8 2.9.6.3 1.2.5 1.9.5.3 0 .6 0 .9-.1 1.1-.2 2.1-.7 2.9-1.5.8-.8 1.3-1.8 1.5-2.9.1-.5.1-1 0-1.5-.1-.5-.3-1-.6-1.4.3-.2.6-.5.8-.8.5-.6.8-1.3.9-2.1.1-.8 0-1.6-.3-2.3-.2-.4-.4-.7-.7-1-.1-.1-.2-.2-.3-.3.1-.2.2-.4.2-.6.1-.6 0-1.2-.3-1.7-.3-.5-.7-.9-1.2-1.1z"
        fill="white" />
    <path
        d="M36.5 26.5c-.2.1-.4.2-.6.4-.3.2-.5.5-.7.8-.4.6-.6 1.3-.5 2 .1.7.4 1.3.9 1.8.2.2.4.4.7.5.2.1.5.2.7.2.5 0 1-.2 1.4-.5.4-.3.7-.7.9-1.2.2-.5.3-1 .2-1.5-.1-.5-.3-.9-.6-1.3-.3-.4-.7-.7-1.1-.9-.2-.1-.4-.2-.6-.2-.3 0-.5.1-.7.2z"
        fill="#95BF47" />
</svg>