<?xml version="1.0" encoding="utf-8"?>
<!-- Generator: Adobe Illustrator 25.2.3, SVG Export Plug-In . SVG Version: 6.00 Build 0)  -->
<svg version="1.1" id="Layer_1" xmlns="http://www.w3.org/2000/svg" xmlns:xlink="http://www.w3.org/1999/xlink" x="0px" y="0px"
	 viewBox="0 0 125 25" style="enable-background:new 0 0 125 25;" xml:space="preserve">
<style type="text/css">
	.st0{fill:#EE3124;}
	.st1{fill:#FFFFFF;}
</style>
<path class="st0" d="M125,0v25c-2.4,0-122.3,0-125,0V0"/>
<path class="st1" d="M24.7,6.5C24,5.8,23.3,5.3,22.5,5c-0.8-0.4-1.7-0.5-2.6-0.5c-2,0-3.7,0.8-5.1,2.3c-1.4,1.5-2.1,3.5-2.1,5.8
	c0,2.3,0.7,4.2,2.2,5.7c1.4,1.6,3.1,2.3,5.1,2.3c0.9,0,1.7-0.2,2.4-0.5c0.8-0.3,1.5-0.8,2.2-1.6v1.6h3.8V4.8h-3.8V6.5z M23.7,15.8
	c-0.8,0.9-1.8,1.3-3,1.3c-1.2,0-2.1-0.4-2.9-1.3c-0.8-0.9-1.2-2-1.2-3.3c0-1.3,0.4-2.4,1.2-3.3C18.6,8.4,19.5,8,20.7,8
	c1.2,0,2.2,0.4,3,1.3s1.1,1.8,1.1,3.1S24.5,15,23.7,15.8z M50.5,6.5c-0.7-0.7-1.4-1.2-2.2-1.6s-1.7-0.5-2.6-0.5
	c-2,0-3.7,0.8-5.1,2.3c-1.4,1.5-2.1,3.5-2.1,5.8c0,2.3,0.7,4.2,2.2,5.7c1.4,1.6,3.1,2.3,5.1,2.3c0.9,0,1.7-0.2,2.4-0.5
	c0.8-0.3,1.5-0.8,2.2-1.6v1.6h3.8V4.8h-3.8V6.5L50.5,6.5z M49.5,15.8c-0.8,0.9-1.8,1.3-3,1.3c-1.2,0-2.1-0.4-2.9-1.3
	c-0.8-0.9-1.2-2-1.2-3.3c0-1.3,0.4-2.4,1.2-3.3C44.4,8.4,45.3,8,46.5,8c1.2,0,2.2,0.4,3,1.3s1.1,1.8,1.1,3.1
	C50.5,13.7,50.3,15,49.5,15.8z M77.3,5.2c-0.8-0.5-1.8-0.8-2.9-0.8c-1.1,0-2,0.2-2.9,0.7c-0.9,0.5-1.6,1.2-2.2,2.1
	c-0.5-0.9-1.1-1.6-1.9-2.1c-0.8-0.5-1.6-0.7-2.6-0.7c-1,0-1.8,0.2-2.6,0.6c-0.8,0.4-1.5,0.9-2.2,1.6V4.8h-3.8v15.4h3.8v-6.8
	c0-1.5,0.1-2.6,0.4-3.2c0.3-0.7,0.7-1.2,1.2-1.6C62.3,8.2,62.8,8,63.5,8c0.6,0,1.1,0.2,1.5,0.5c0.4,0.3,0.7,0.8,0.9,1.4
	c0.2,0.6,0.3,1.6,0.3,3v7.4H70v-6.9c0-1.5,0.1-2.5,0.4-3.2c0.3-0.7,0.7-1.2,1.2-1.6C72,8.2,72.6,8,73.3,8c0.9,0,1.5,0.3,2,0.9
	c0.4,0.6,0.7,1.8,0.7,3.5v7.8h3.8v-9c0-1.9-0.2-3.2-0.5-4C78.8,6.4,78.2,5.7,77.3,5.2L77.3,5.2z M93,15.7c-1,1-2.3,1.5-3.7,1.5
	c-1.2,0-2.2-0.3-3-1c-0.8-0.7-1.3-1.5-1.4-2.7h12.3l0-0.7c0-2.5-0.8-4.6-2.3-6.1c-1.5-1.6-3.5-2.3-5.9-2.3c-2.3,0-4.1,0.8-5.6,2.3
	s-2.3,3.5-2.3,5.8c0,2.3,0.8,4.2,2.3,5.7c1.5,1.5,3.5,2.3,5.8,2.3c1.6,0,2.9-0.3,4-0.8c1.1-0.6,2.1-1.4,2.9-2.6L93,15.7z M86.6,8.6
	c0.8-0.6,1.8-0.9,2.8-0.9c1,0,1.9,0.3,2.6,0.8c0.8,0.5,1.3,1.2,1.5,2.1h-8.3C85.6,9.6,86.1,9,86.6,8.6L86.6,8.6z M106.4,12.1
	l5.2-7.2h-4.4l-3,4.2l-3-4.2h-4.4l5.2,7.3l-5.8,8.1h4.4l3.6-5l3.6,5h4.4L106.4,12.1L106.4,12.1z M37.8,4.4c-0.7,0-1.3,0.1-1.9,0.4
	c-0.5,0.3-1.1,0.7-1.8,1.4V4.9h-3.7v15.4h3.8v-8c0-2.9,0.8-4.4,2.8-4.4c0.4,0,0.7,0.1,1,0.2c0.6-1.1,1.4-2.1,2.2-3
	C39.4,4.6,38.6,4.4,37.8,4.4L37.8,4.4z"/>
</svg>
