<?xml version="1.0" encoding="utf-8"?>
<!-- Generator: Adobe Illustrator 25.2.3, SVG Export Plug-In . SVG Version: 6.00 Build 0)  -->
<svg version="1.1" id="Layer_1" xmlns="http://www.w3.org/2000/svg" xmlns:xlink="http://www.w3.org/1999/xlink" x="0px" y="0px"
	 viewBox="0 0 180 53" style="enable-background:new 0 0 180 53;" xml:space="preserve">
<style type="text/css">
	.st0{fill:#31B5C1;}
	.st1{fill:none;}
	.st2{fill:#472F92;}
</style>
<g>
	<path class="st0" d="M26.8,46.6c0.3-0.3,0.1-1.3-0.5-2.3c-0.9-1.3-0.9-2.1,0.1-3.3c1.1-1.2,1.1-1.5-0.1-1.5c-1.6,0-3.6,1.9-3.6,3.4
		C22.7,44.3,26.1,47.4,26.8,46.6z"/>
	<path class="st1" d="M42,19.4c-2.5,0-5.8,4-5.8,7.1c0,3.6-4.7,8.2-8.5,8.2c-1.5,0-3.2-0.5-3.4-1.1c-0.4-0.5,2-3.7,5.3-7.1
		c5.1-5.3,5.7-6.4,4.8-8c-1.3-2.6-6.8-3.5-10.6-1.9c-5.4,2.1-8.1,9.6-5.6,14.4c1,1.9-0.2,4.7-2,4.7c-1.3,0-2.9-5-2.9-9.4
		c0-7.3,4.6-13,11.6-14.5c1.5-0.3,2.9-1.1,2.9-1.5c-0.1-1.7-4.3-1.5-7.8,0.3c-1.8,1.1-4.6,3.4-6.1,5.4c-2.4,2.9-3,4.6-3.3,9.5
		c-0.5,9.5,4,15.7,8.4,11.7c1.6-1.4,2.3-1.5,4.8-0.5c6.1,2.6,13.7-1.8,14.9-8.6c1.2-6.5,4.2-7.9,4.2-1.9c0,7.4-4.5,13.2-11.6,15
		c-4.7,1.2-5,3.6-0.4,2.9c5.3-0.9,10.4-4.7,12.8-9.5C46.9,27.7,46,19.4,42,19.4z M20.6,30.3c-1.7-1.1-0.8-7.2,1.6-9.5
		c2.3-2.4,5.5-3,8.6-1.8c1.2,0.6,0.6,1.7-3.9,6.2C23.9,28.3,21.1,30.6,20.6,30.3z"/>
	<path class="st0" d="M28.5,6.7c0,0.4,0.5,1.2,1.1,1.9c0.8,0.8,0.8,1.4-0.2,2.6c-2,2.4-0.2,3,2.1,0.7c2-2,2-2.1,0.3-4
		C30,6,28.5,5.4,28.5,6.7z"/>
	<path class="st2" d="M50,16C44.4,4.5,29.5-1.1,18.4,4C5.4,9.9-0.1,24.4,5.9,37.1c8.5,18.4,35.1,18.4,44.2,0
		C52.6,31.8,52.6,21.3,50,16z M28,5.6h5.5v8.5H28V5.6z M27.4,48.8h-5.7V38.3h5.7V48.8z M43.7,34.5c-2.4,4.8-7.6,8.6-12.8,9.5
		c-4.6,0.8-4.3-1.6,0.4-2.9c7.1-1.8,11.6-7.7,11.6-15c0-5.9-3-4.6-4.2,1.9c-1.2,6.8-8.8,11.2-14.9,8.6c-2.5-1.1-3.2-1-4.8,0.5
		c-4.4,4-8.9-2.2-8.4-11.7c0.3-4.9,0.9-6.6,3.3-9.5c1.5-1.9,4.3-4.3,6.1-5.4c3.4-1.8,7.7-2,7.8-0.3c0,0.5-1.3,1.2-2.9,1.5
		c-7,1.4-11.6,7.2-11.6,14.5c0,4.4,1.5,9.4,2.9,9.4c1.8,0,3-2.8,2-4.7c-2.6-4.8,0.2-12.3,5.6-14.4c3.8-1.6,9.3-0.7,10.6,1.9
		c1,1.6,0.3,2.8-4.8,8c-3.3,3.4-5.7,6.6-5.3,7.1c0.3,0.6,1.9,1.1,3.4,1.1c3.8,0,8.5-4.6,8.5-8.2c0-3.1,3.4-7.1,5.8-7.1
		C46,19.4,46.9,27.7,43.7,34.5z"/>
	<path class="st2" d="M21.7,48.8h5.7V38.3h-5.7V48.8z M26.4,39.5c1.1,0,1.1,0.3,0.1,1.5c-1,1.1-1,1.9-0.1,3.3c0.6,1,0.8,2,0.5,2.3
		c-0.8,0.8-4.1-2.3-4.1-3.7C22.7,41.4,24.7,39.5,26.4,39.5z"/>
	<path class="st2" d="M33.5,5.6H28v8.5h5.5V5.6z M31.5,11.9c-2.3,2.3-4.1,1.7-2.1-0.7c1-1.1,1-1.8,0.2-2.6c-0.7-0.7-1.1-1.5-1.1-1.9
		c0-1.3,1.5-0.8,3.4,1.1C33.5,9.8,33.5,9.9,31.5,11.9z"/>
	<path class="st2" d="M30.9,19c-3.2-1.1-6.3-0.6-8.6,1.8c-2.4,2.3-3.4,8.3-1.6,9.5c0.5,0.3,3.3-2,6.3-5.1
		C31.4,20.7,32.1,19.6,30.9,19z"/>
</g>
<g>
	<g>
		<path class="st0" d="M72.1,27.1c0,0.6,0,1-0.1,1.5H61.4v-1.4h5.1c1.3,0,1.6-0.5,1.6-1.7c0-1.8-0.8-2.7-1.8-2.7
			c-1.1,0-2.1,1.2-2.1,5.1c0,3.3,1.6,4.8,3.6,4.8c1.5,0,2.5-0.6,3.3-1.4l0.9,0.9c-1.1,2.1-3,3.2-5.7,3.2c-3.9,0-6.7-2.6-6.7-6.9
			c0-4.5,3.5-6.9,7-6.9C70.1,21.4,72.1,23.9,72.1,27.1z"/>
		<path class="st0" d="M82.6,31.2c0-1.4-0.7-2.1-2.3-2.8l-1.1-0.5c-3.2-1.5-5-3.1-5-6c0-3.2,2.6-5.2,6.7-5.2c1.9,0,3.8,0.5,5.1,1.4
			l-0.2,3.8h-2.5l-0.7-4.1l2.2,0.8v1.3c-1.4-1-2.5-1.6-3.8-1.6c-1.5,0-2.8,1-2.8,2.5c0,1.4,0.9,2.2,2.5,2.9l1.3,0.6
			c3.4,1.6,4.9,3,4.9,5.8c0,3.2-2.4,5.4-7.1,5.4c-2,0-4.3-0.5-5.9-1.4l0.2-4h2.5l0.7,4.4l-2.1-0.7v-1.3c1.7,0.9,2.8,1.4,4.6,1.4
			C81.6,33.8,82.6,32.7,82.6,31.2z"/>
		<path class="st0" d="M89.7,17.9l-1.7-0.3v-1.1l5.6-1.2l0.4,0.3L94,19.3v5.3L94,25v4.2c0,1.7,0,4.5,0.1,5.7h-4.5
			c0.1-1.2,0.1-4,0.1-5.7V17.9z M95.3,33.6v1.3h-7.1v-1.3l2.5-0.5h2.1L95.3,33.6z M102.2,26.1v3.1c0,1.7,0,4.5,0.1,5.7h-4.5
			c0.1-1.2,0.1-3.9,0.1-5.7v-2.8c0-1.8-0.4-2.3-1.4-2.3c-1,0-2.2,0.8-3.3,2.2h-1v-1.9H94l-1,0.8c1.9-2.7,3.4-3.6,5.3-3.6
			C100.6,21.4,102.2,22.9,102.2,26.1z M101,33.1l2.6,0.5v1.3h-7.1v-1.3l2.4-0.5H101z"/>
		<path class="st0" d="M106.4,34.9c0.1-1.2,0.1-4,0.1-5.7v-1.3c0-1.5,0-2.3-0.1-3.4l-1.7-0.2v-1.1l5.7-1.8l0.5,0.3l-0.1,3.9v3.6
			c0,1.7,0,4.5,0.1,5.7H106.4z M112.1,33.6v1.3H105v-1.3l2.5-0.5h2L112.1,33.6z M106.3,17.3c0-1.3,1-2.1,2.3-2.1
			c1.3,0,2.3,0.9,2.3,2.1c0,1.3-1,2.1-2.3,2.1C107.3,19.4,106.3,18.5,106.3,17.3z"/>
		<path class="st0" d="M115,27.6c0-1.5,0-2-0.1-3.1l-1.7-0.2v-1.1l5.3-1.8l0.4,0.3l0.2,2.1l0.1,0.4v8.5l-0.1,0.3v1.9
			c0,1.7,0,3.7,0.1,6.1h-4.4c0.1-2.4,0.1-4.3,0.1-6.1V27.6z M121,39.7V41h-7.6v-1.3l2.6-0.5h2.6L121,39.7z M121.2,23.8
			c-1.4,0-2.6,1.5-3.5,2.4l-0.2-0.4c1.5-2.9,3.3-4.3,5.7-4.3c2.9,0,5.3,2.4,5.3,6.9c0,4.4-2.7,7-5.8,7c-2.4,0-3.8-1.4-5-4.2l0.2-0.5
			c1.1,1.5,1.9,2.4,3.2,2.4c1.6,0,2.8-1.5,2.8-4.6C123.8,25.2,122.8,23.8,121.2,23.8z"/>
		<path class="st0" d="M131.5,27.6c0-1.5,0-2-0.1-3.1l-1.7-0.2v-1.1l5.3-1.8l0.4,0.3l0.2,2.1l0.1,0.4v8.5l-0.1,0.3v1.9
			c0,1.7,0,3.7,0.1,6.1h-4.4c0.1-2.4,0.1-4.3,0.1-6.1V27.6z M137.5,39.7V41H130v-1.3l2.6-0.5h2.6L137.5,39.7z M137.7,23.8
			c-1.4,0-2.6,1.5-3.5,2.4l-0.2-0.4c1.5-2.9,3.3-4.3,5.7-4.3c2.9,0,5.3,2.4,5.3,6.9c0,4.4-2.7,7-5.8,7c-2.4,0-3.8-1.4-5-4.2l0.2-0.5
			c1.1,1.5,1.9,2.4,3.2,2.4c1.6,0,2.8-1.5,2.8-4.6C140.3,25.2,139.3,23.8,137.7,23.8z"/>
		<path class="st0" d="M159,27.1c0,0.6,0,1-0.1,1.5h-10.6v-1.4h5.1c1.3,0,1.6-0.5,1.6-1.7c0-1.8-0.8-2.7-1.8-2.7
			c-1.1,0-2.1,1.2-2.1,5.1c0,3.3,1.6,4.8,3.6,4.8c1.5,0,2.5-0.6,3.3-1.4l0.9,0.9c-1.1,2.1-3,3.2-5.7,3.2c-3.9,0-6.7-2.6-6.7-6.9
			c0-4.5,3.5-6.9,7-6.9C157,21.4,159,23.9,159,27.1z"/>
		<path class="st0" d="M162,29.2v-1.6c0-1.5,0-2-0.1-3.1l-1.7-0.2v-1.1l5.3-1.8l0.5,0.3l0.2,3.3v4.2c0,1.7,0,4.5,0.1,5.7h-4.5
			C162,33.7,162,30.9,162,29.2z M160.5,33.6l2.6-0.5h2.8l2.6,0.5v1.3h-8V33.6z M164.3,25.6h2l-0.4,0.7c0.5-3.3,2.4-5,4-5
			c1.2,0,2.1,0.7,2.3,2c-0.1,1.4-0.8,2.2-1.9,2.2c-0.8,0-1.4-0.4-2.1-1.3l-0.8-1l1.1,0.4c-1,0.7-1.9,2.1-2.3,3.7l-2-0.2V25.6z"/>
	</g>
</g>
</svg>
