<?xml version="1.0" encoding="utf-8"?>
<!-- Generator: Adobe Illustrator 25.2.3, SVG Export Plug-In . SVG Version: 6.00 Build 0)  -->
<svg version="1.1" id="Layer_1" xmlns="http://www.w3.org/2000/svg" xmlns:xlink="http://www.w3.org/1999/xlink" x="0px" y="0px"
	 viewBox="0 0 125 25" style="enable-background:new 0 0 125 25;" xml:space="preserve">
<style type="text/css">
	.st0{fill:none;}
	.st1{fill:#0070BE;}
</style>
<g>
	<g>
		<polygon class="st0" points="98.2,8.1 98.2,12.5 98.2,16.9 99.3,16.9 100.4,16.9 100.4,12.5 100.4,8.1 99.3,8.1 		"/>
		<path class="st0" d="M55.3,7.8c-1.1-0.2-1.3,0.2-1.3,2.5c0,2,0,2,1.1,2h1.2l-0.1-2.2C56,8.3,55.9,8,55.3,7.8z"/>
		<path d="M37.5,7c-0.1,0-0.7,0.6-1.3,1.3c-1,1.2-1.1,1.4-0.6,2.6c0.4,1,0.4,1.5,0,2.5c-0.5,1.3-2.4,3.1-3.3,3.1
			c-0.8,0-0.6-0.5,0.6-1.8c1.6-1.5,1.6-3.3,0-5c-1.3-1.3-1.2-2.2,0.2-1.9c0.6,0.1,1.1-0.2,1.9-1.2l1.1-1.3L35,4.3
			C32.8,2,31.9,2.4,27,7.5c-4.1,4.1-4.4,5-2.4,6.9c0.6,0.6,1.1,1.3,1.1,1.6c0,0.2,0,0.4-0.1,0.5l2.7,2.6c0.4-0.1,1.3,0.3,2.2,1.3
			c0.8,0.8,1.8,1.5,2.3,1.5c0.5,0,2.5-1.8,5.5-4.8l4.8-4.8l-2.7-2.7C38.9,8.2,37.6,7,37.5,7z"/>
		<path class="st1" d="M23.4,15.4c-1.2-1.3-1.5-1.9-1.5-3.2c0-1.4,0.2-1.8,4.5-6c4.4-4.4,4.5-4.5,3.4-4.7c-1.6-0.3-2.6-0.3-3.9,0.3
			c-0.7,0.3-3.5,2.7-6.2,5.5l-5,5l5.3,5.3c5.8,5.8,7,6.5,9.9,6.1l1.6-0.3l-1.8-1.6c-1-0.9-1.8-1.8-1.8-2.1c0-0.3,0.1-0.5,0.3-0.5
			l-2.7-2.6C25.3,17,24.5,16.6,23.4,15.4z"/>
		<path class="st1" d="M48.8,7h-2.1v5.5c0,4.6,0.1,5.5,0.6,5.5c0.5,0,0.6-0.6,0.6-2.6v-2.6H49c0.6,0,1.1-0.2,1.1-0.4
			c0-0.2-0.5-0.4-1.2-0.4h-1.1l0.1-2L48,8l1.4-0.1C51.6,7.7,51.1,7,48.8,7z"/>
		<path class="st1" d="M56.7,13c0.5-0.3,0.6-0.9,0.6-2.7c0-1.4-0.2-2.6-0.5-2.9S55.6,7,54.6,7h-1.8v5.5c0,4.6,0.1,5.5,0.6,5.5
			c0.5,0,0.6-0.5,0.6-2.4c0-1.8,0.1-2.4,0.5-2.4c0.3,0,0.9,1,1.4,2.4c0.5,1.3,1.1,2.4,1.4,2.4c0.6,0,0.6,0.2-0.3-2.4
			C56.1,13.6,56.1,13.4,56.7,13z M55.1,12.3c-1.1,0-1.1,0-1.1-2c0-2.3,0.2-2.6,1.3-2.5c0.6,0.1,0.8,0.4,0.9,2.3l0.1,2.2H55.1z"/>
		<path class="st1" d="M62.5,7.8c0.9,0.1,1.3,0,1.3-0.3c0-0.3-0.6-0.5-1.9-0.5H60v5.5v5.5h1.9c1.4,0,1.9-0.2,1.9-0.6
			c0-0.4-0.4-0.6-1.3-0.6h-1.3v-2.1c0-2.1,0-2.1,1.1-2.1c0.6,0,1.1-0.2,1.1-0.4c0-0.2-0.5-0.4-1.1-0.4c-1.1,0-1.1,0-1.1-2.1V7.7
			L62.5,7.8z"/>
		<ellipse class="st1" cx="66.9" cy="12.5" rx="0.4" ry="5.5"/>
		<path class="st1" d="M71.7,8h1c0.8,0,1,0.2,1.1,1c0.2,1.5,0.8,1.3,0.8-0.2c0-0.8-0.2-1.4-0.6-1.5c-1-0.4-2.6-0.3-3.1,0.2
			c-0.3,0.3-0.5,2-0.5,5.1c0,4.3,0,4.7,0.8,5.1c0.5,0.2,1.4,0.3,2.1,0.2l1.3-0.2v-2.4c0-2.4,0-2.5-1-2.5c-1,0-1,0.1-0.4,0.5
			c0.4,0.3,0.6,1,0.6,2.1c0,1.5,0,1.6-1.1,1.6h-1.2l0.1-4.5L71.7,8z"/>
		<path class="st1" d="M81.4,7C81.1,7,81,8.1,81,9.5V12h-1.3h-1.3V9.5c0-1.9-0.1-2.5-0.6-2.5c-0.5,0-0.6,0.8-0.6,5.3
			c0,4.4,0.1,5.3,0.6,5.3c0.4,0,0.6-0.6,0.6-2.4c0.1-2.4,0.1-2.4,1.3-2.4h1.1l0.1,2.6c0.1,1.4,0.3,2.6,0.5,2.6
			c0.2,0,0.4-2.3,0.4-5.5C81.8,9.1,81.6,7,81.4,7z"/>
		<path class="st1" d="M86.1,7C85,7,84,7.2,84,7.3s0.3,0.4,0.8,0.5c0.7,0.2,0.8,0.5,0.8,5c0,4,0.1,4.8,0.6,4.8s0.6-0.9,0.6-4.9
			C86.9,8.5,87,8,87.6,8c0.3,0,0.6-0.2,0.6-0.5C88.2,7.2,87.7,7,86.1,7z"/>
		<path d="M91.3,8.1h1.1c1,0,1.1,0.2,1.1,1c0,0.6,0.2,1,0.6,1c0.6,0,0.8-1.2,0.2-2.3c-0.5-0.8-3-1-3.7-0.3C90,8.1,90,17,90.6,17.6
			c0.8,0.8,3.3,0.6,3.7-0.3c0.6-1.1,0.5-2.3-0.2-2.3c-0.3,0-0.6,0.3-0.6,1c0,0.8-0.2,1-1.1,1h-1.1v-4.4V8.1z"/>
		<path d="M97.2,7.6c-0.5,1.1-0.3,9.5,0.2,10c0.3,0.3,1.1,0.5,1.8,0.5c2.1,0,2.3-0.4,2.3-5.5c0-3.1-0.2-4.8-0.5-5.1
			C100.4,6.8,97.5,6.9,97.2,7.6z M100.4,12.5v4.4h-1.1h-1.1v-4.4V8.1h1.1h1.1V12.5z"/>
		<path d="M109.8,7c-0.3,0-0.7,0.6-0.9,1.4c-0.2,0.8-0.6,2.4-1,3.5c-0.5,2.1-0.5,2.1-1,1c-0.2-0.6-0.4-1.3-0.4-1.5
			c0-1.2-1.3-4.5-1.8-4.5c-0.4,0-0.5,1-0.5,5.5c0,3.4,0.2,5.5,0.4,5.5s0.4-1.6,0.4-3.9c0-4.1,0.3-4.3,1.1-0.8c0.3,1.5,0.6,2,1.1,2
			c0.5,0,0.8-0.6,1.4-2.8l0.7-2.7l0.1,4.1c0.2,6.2,0.8,5.1,0.8-1.4C110.4,7.9,110.3,7,109.8,7z"/>
	</g>
	<path class="st1" d="M33.2,9.9l-1.1-1.2l-8,7.5l3.8,4.1l5.1-4.7C34.6,14,34.7,11.5,33.2,9.9z"/>
</g>
</svg>
