<?xml version="1.0" encoding="utf-8"?>
<!-- Generator: Adobe Illustrator 25.2.3, SVG Export Plug-In . SVG Version: 6.00 Build 0)  -->
<svg version="1.1" id="Layer_1" xmlns="http://www.w3.org/2000/svg" xmlns:xlink="http://www.w3.org/1999/xlink" x="0px" y="0px"
	 viewBox="0 0 125 25" style="enable-background:new 0 0 125 25;" xml:space="preserve">
<style type="text/css">
	.st0{fill:#341B14;}
	.st1{fill:#FFB406;}
</style>
<rect class="st0" width="125" height="25"/>
<g>
	<path class="st0" d="M62.5,22.3c0.2-0.1,4.6-2,6-3.2c1.5-1.2,2.2-2.9,2.2-4.9V4.6l-0.1,0c-3.5-1.9-7.9-1.8-8.1-1.8
		c-0.2,0-4.6-0.1-8.1,1.8l-0.1,0v9.6c0,2,0.8,3.8,2.2,4.9C57.9,20.4,62.3,22.3,62.5,22.3"/>
	<path class="st1" d="M62.5,22.5c0,0-4.7-2-6.1-3.2c-1.5-1.3-2.3-3-2.3-5v-10c3.7-2,8.4-1.8,8.4-1.8s4.7-0.2,8.4,1.8v9.9
		c0,2-0.7,3.8-2.3,5C67.2,20.5,62.5,22.5,62.5,22.5 M54.8,14.3c0,1.9,0.7,3.4,2,4.5c1.2,1,4.7,2.6,5.7,3c1-0.4,4.6-2,5.7-3
		c1.3-1.1,2-2.6,2-4.5V4.5C65.3,4,59.4,4.3,54.8,8.5L54.8,14.3L54.8,14.3z"/>
	<path class="st1" d="M67.2,12.9c0.6,0.4,0.9,0.6,0.9,1.1c0,0.5-0.3,0.8-0.9,0.8c-0.5,0-1-0.3-1.4-0.6v1.4c0.5,0.3,1,0.5,1.6,0.5
		c1.5,0,2.1-1,2.1-2c0-0.9-0.2-1.5-1.5-2.3c-0.6-0.3-1-0.6-1-1.1c0-0.5,0.5-0.7,0.9-0.7c0.5,0,1,0.3,1.3,0.6V9.3
		c-0.3-0.2-0.8-0.5-1.6-0.5c-1,0-2,0.7-2,1.9C65.8,11.6,66,12.2,67.2,12.9 M62.2,16c0.1,0,0.3,0.1,0.7,0.1c1.7,0,2.6-1.5,2.6-3.6
		c0-2.2-1-3.5-2.7-3.5c-0.8,0-1.5,0.2-2,0.5v9.6h1.5V16L62.2,16z M62.2,10.2c0.1,0,0.3-0.1,0.5-0.1c0.9,0,1.2,0.7,1.2,2.3
		c0,1.6-0.4,2.4-1.3,2.4c-0.2,0-0.4,0-0.5-0.1L62.2,10.2L62.2,10.2z M57.7,16c0.9,0,1.7-0.2,2.2-0.6V9h-1.5v5.6
		c-0.2,0.1-0.4,0.2-0.7,0.2c-0.7,0-0.8-0.6-0.8-1V9h-1.5v4.6C55.5,15.2,56.3,16,57.7,16"/>
</g>
</svg>
