<?xml version="1.0" standalone="no"?>
<!DOCTYPE svg PUBLIC "-//W3C//DTD SVG 20010904//EN"
 "http://www.w3.org/TR/2001/REC-SVG-20010904/DTD/svg10.dtd">
<svg version="1.0" xmlns="http://www.w3.org/2000/svg"
 width="1000.000000pt" height="1000.000000pt" viewBox="0 0 1000.000000 1000.000000"
 preserveAspectRatio="xMidYMid meet">
<metadata>
Created by potrace 1.11, written by Peter Selinger 2001-2013
</metadata>
<g transform="translate(0.000000,1000.000000) scale(0.100000,-0.100000)"
fill="#000000" stroke="none">
<path d="M4689 9926 c-2 -2 -49 -7 -104 -10 -55 -4 -107 -9 -115 -11 -8 -2
-42 -6 -75 -10 -76 -8 -252 -35 -325 -50 -14 -3 -38 -8 -55 -11 -79 -14 -263
-59 -385 -94 -670 -193 -1275 -518 -1819 -976 -121 -101 -105 -87 -251 -229
-484 -473 -845 -1001 -1109 -1624 -131 -307 -266 -766 -306 -1041 -3 -19 -8
-46 -11 -60 -3 -13 -8 -40 -10 -60 -2 -19 -7 -46 -9 -60 -3 -14 -7 -50 -10
-80 -3 -30 -8 -68 -10 -85 -2 -16 -7 -68 -10 -115 -3 -47 -8 -107 -10 -135 -5
-65 -6 -440 -1 -530 6 -105 17 -245 21 -264 1 -9 6 -45 10 -81 14 -133 64
-413 95 -530 5 -19 21 -82 35 -140 30 -118 145 -469 169 -515 9 -16 16 -34 16
-39 0 -16 92 -221 164 -366 250 -502 579 -950 989 -1348 136 -133 274 -251
427 -369 113 -87 354 -252 441 -303 30 -17 61 -35 69 -40 150 -94 498 -261
720 -347 128 -49 412 -140 493 -158 10 -2 27 -7 37 -10 10 -3 27 -8 37 -10
207 -48 369 -81 453 -91 25 -2 52 -7 60 -9 8 -2 44 -7 80 -10 36 -4 76 -8 90
-10 207 -30 684 -35 935 -10 28 3 70 7 95 10 124 12 159 17 205 25 28 5 68 12
90 15 92 13 112 17 185 34 25 5 56 12 70 15 14 3 36 7 49 10 41 9 225 57 256
66 274 86 381 125 570 205 121 51 422 201 485 240 22 14 42 25 46 25 3 0 26
14 51 30 24 17 48 30 54 30 5 0 9 5 9 10 0 6 5 10 10 10 20 0 298 192 440 303
208 163 430 369 607 563 81 90 102 113 138 159 22 27 45 55 50 61 6 6 21 25
35 43 14 18 35 45 47 60 12 15 58 78 102 141 45 63 85 120 89 125 16 21 140
223 186 304 60 105 187 358 233 465 38 89 143 362 148 386 2 8 17 57 34 109
26 78 82 283 96 348 2 10 13 61 24 113 19 89 23 109 36 193 3 17 7 43 10 57 9
52 27 202 41 345 20 209 19 661 -1 830 -2 17 -7 64 -10 105 -3 41 -8 82 -10
90 -3 8 -7 35 -10 60 -6 47 -32 210 -39 245 -2 11 -12 56 -21 100 -10 44 -21
96 -25 115 -12 58 -77 289 -108 385 -114 351 -280 713 -471 1030 -55 90 -205
316 -245 367 -12 15 -37 48 -56 75 -19 26 -37 50 -40 53 -3 3 -37 43 -75 90
-38 47 -85 103 -105 124 -19 22 -45 51 -58 65 -160 180 -444 439 -647 591 -55
41 -102 77 -105 80 -3 3 -59 42 -125 86 -306 205 -626 374 -935 494 -74 29
-144 56 -155 61 -71 32 -512 160 -604 175 -14 3 -33 7 -41 9 -8 3 -33 7 -55
11 -22 3 -58 9 -80 14 -22 5 -69 14 -105 19 -134 21 -156 24 -270 36 -36 3
-83 9 -105 11 -47 7 -710 16 -716 10z"/>
</g>
</svg>
