<?xml version="1.0" encoding="utf-8"?><!--Generator: Adobe Illustrator 18.1.1, SVG Export Plug-In . SVG Version: 6.00 Build 0)--><svg xmlns="http://www.w3.org/2000/svg" xmlns:xlink="http://www.w3.org/1999/xlink" id="Layer_1" width="512px" height="512px" x="0px" y="0px" enable-background="new 0 0 512 512" version="1.1" viewBox="0 0 512 512" xml:space="preserve"><path fill="#FFF200" d="M512,472c0,22.1-17.9,40-40,40H40c-22.1,0-40-17.9-40-40V40C0,17.9,17.9,0,40,0h432c22.1,0,40,17.9,40,40
	V472z"/><path fill-rule="evenodd" d="M153.9,240.5c-2.8-0.4-6.4-3.2-10.6-3.6c-4.2-0.4-7.7,0.6-8.1,3.9
	c-0.5,4.9,5.6,6.1,9.2,7.8c5.8,2.7,12.7,6.1,15.6,11.9c3.1,6.4,1.8,16.2-2.5,21.1c-8,9.2-30.7,9.7-39.2,0c0.6-2.7,2-4.1,3.1-5.8
	c0.8-1.3,1.8-4.7,3.6-5c1.6-0.3,3.6,2.1,5.8,3.1c4.3,1.8,15.3,2.9,15.3-3.9c0-3.3-4.4-5.1-8.3-6.9c-8.6-4.1-18-8.3-18.1-21.1
	c0-14.9,15.5-21.8,31.4-17.2c2.7,0.8,8.5,2.6,8.9,5c0.3,1.7-1.9,4.3-2.8,5.8C156.1,237.6,155.5,238.9,153.9,240.5z" clip-rule="evenodd"/><path fill-rule="evenodd" d="M457.5,286.6c-3.9,0.9-11.3,0.9-15.3,0c-0.6-5.1-0.1-11.4-0.3-16.9
	c-7.1,0-14.3,0-21.4,0c-0.3,5.5,0.7,12.3-0.6,16.9c-3.9,0.9-11.3,0.9-15.3,0c1.2-18.3-4-40.5,3.3-52.5c4-6.5,12.1-10.5,22.8-10.6
	c8.2,0,15.5,2.3,20,6.4C462,240.2,457.5,266.1,457.5,286.6z M438.1,239.1c-3.8-2.7-11.4-2.4-14.7,0.8c-3.2,3.1-2.8,9-2.8,15.8
	c7.1,0,14.3,0,21.4,0C442,249,442.4,242.1,438.1,239.1z" clip-rule="evenodd"/><path fill-rule="evenodd" d="M107,286.6c-3.9,0.9-11.4,0.9-15.3,0c-0.6-5.1-0.1-11.4-0.3-16.9
	c-7.2,0-14.4,0-21.7,0c-0.2,5.6,0.4,11.8-0.3,16.9c-3.9,0.9-11.4,0.9-15.3,0c0.2-13.9-1.2-27.9-0.3-40.6
	c0.9-12.6,8.9-21.1,21.7-22.2c18.5-1.6,30.4,6,31.7,21.9C108.2,258.5,106.8,272.6,107,286.6z M88.1,239.7c-3.4-3-11.4-3.2-15,0
	c-3.5,3.1-3.3,9.1-3.3,16.1c7.2,0,14.4,0,21.7,0C91.3,249.4,91.9,243,88.1,239.7z" clip-rule="evenodd"/><path fill-rule="evenodd" d="M176.4,223.8c12,0.4,25.4-0.7,36.4,0.6c0.5,3.5,0.5,9,0,12.5
	c-6.1,1.3-14.6,0.2-21.7,0.6c0,3.3,0,6.7,0,10c5.7,0.8,13.2-0.3,18.9,0.6c0.9,3.1,0.9,9.5,0,12.5c-5.2,1.2-12.7,0.2-18.9,0.6
	c0,4,0,8,0,11.9c6.7,1,16-0.6,22.2,0.8c0.5,3.6,0.5,9.1,0,12.8c-11.3,0.9-26.5,0.9-37.8,0c-0.5-20.1-0.5-42.1,0-62.2
	C175.8,224.1,176.1,224,176.4,223.8z" clip-rule="evenodd"/><path fill-rule="evenodd" d="M231.4,223.8c4.5,1.1,9.2-1.4,13.6,0c2.1,0.7,5.2,6.7,6.7,8.9
	c6.2,9,13.6,19.2,19.2,27.5c0.2-11.9-0.4-24.6,0.3-36.1c4-0.4,9.9-0.5,13.9,0c0.9,19.5,0.9,43,0,62.8c-3.8,0.6-8.8,0.1-13.1,0.3
	c-9.5-12.1-17.8-25.3-26.9-37.8c-0.2,12.3,0.4,25.4-0.3,37.2c-3.5,0.9-10.6,0.9-14.2,0c-0.5-20.1-0.5-42.1,0-62.2
	C230.8,224.1,231.1,224,231.4,223.8z" clip-rule="evenodd"/><path fill-rule="evenodd" d="M303.9,223.8c22-0.8,40.3-0.4,49.4,12.2c9.6,13.3,5.4,35.8-6.7,44.4
	c-9.4,6.7-26.8,7.8-43.3,6.1c-1-9.5-0.6-20-0.6-30.8c0-10.4-0.2-21.6,0.3-31.1C303.2,224.3,303.5,224,303.9,223.8z M318.9,238
	c0,11.9,0,23.7,0,35.6c8.5,0.1,14.7-0.4,18.9-5c6.2-6.9,6-24.3-3.1-29.2c-4.3-2.3-9.2-2.1-15.6-2.2
	C318.9,237.2,318.9,237.6,318.9,238z" clip-rule="evenodd"/><path fill-rule="evenodd" d="M372.3,223.8c4.7,0.2,10.2-0.4,14.4,0.3c0.5,20.2,0.5,42.3,0,62.5
	c-3.9,0.9-11.4,0.9-15.3,0c-0.5-20.1-0.5-42.1,0-62.2C371.6,224.1,371.9,224,372.3,223.8z" clip-rule="evenodd"/></svg>