<?xml version="1.0" encoding="UTF-8"?><svg xmlns="http://www.w3.org/2000/svg" xmlns:xlink="http://www.w3.org/1999/xlink" width="32px" height="32px" version="1.1" viewBox="0 0 32 32"><!--Generator: Sketch 60 (88103) - https://sketch.com--><title>bring</title><desc>Created with Sketch.</desc><defs><polygon id="path-1" points="0 0.0240334325 9.82660058 0.0240334325 9.82660058 4.77498135 0 4.77498135"/><polygon id="path-3" points="0.191364185 0.164346902 4.24816584 0.164346902 4.24816584 6.46506076 0.191364185 6.46506076"/></defs><g id="bring" fill="none" fill-rule="evenodd" stroke="none" stroke-width="1"><path id="Fill-1" fill="#F1F1F2" d="M32,29.5 C32,30.880875 30.880875,32 29.5,32 L2.5,32 C1.119125,32 0,30.880875 0,29.5 L0,2.5 C0,1.119125 1.119125,0 2.5,0 L29.5,0 C30.880875,0 32,1.119125 32,2.5 L32,29.5 Z"/><g id="编组" transform="translate(1.000000, 10.000000)"><path id="Fill-1" fill="#47A51D" d="M0.0286965278,4.84178828 C-0.0680708333,2.35586814 1.97759952,0.171511806 4.485626,0.0119707899 C7.368626,-0.171344965 9.57613142,1.77005022 9.84995803,4.80216372 C8.49917743,4.80216372 7.15423624,4.79757561 5.80929505,4.80570907 C5.50564575,4.80737747 5.31878464,4.7619135 5.21555221,4.4052924 C4.85601141,3.16462639 3.99407283,2.46577418 2.70252053,2.50998685 C1.35007153,2.55649358 0.583231901,3.38193585 0.293764019,4.67745061 C0.283962153,4.72166328 0.187403342,4.74627222 0.0286965278,4.84178828"/><g transform="translate(0.000000, 5.158430)"><mask id="mask-2" fill="white"><use xlink:href="#path-1"/></mask><g id="Clip-4"/><path id="Fill-3" fill="#C0C0C0" d="M8.34201389e-05,0.0821271267 C0.457642882,0.287549219 0.488091233,0.671698958 0.631782422,0.959289887 C1.08809058,1.87253186 1.89372057,2.29797457 2.82260382,2.29234371 C3.75357257,2.28671285 4.62051636,1.8660668 4.97505195,0.919665321 C5.26160013,0.154702648 5.73334102,-0.0194368924 6.48099401,0.0324921441 C7.37880326,0.0946401476 8.28453741,0.0598122396 9.18630911,0.0429196615 C9.71706975,0.0329092448 9.92916545,0.144900781 9.78005195,0.763878212 C9.0893332,3.62998563 7.09809449,4.80746089 4.79757561,4.77430139 C1.63344974,4.72842031 -0.0151407552,2.21142617 8.34201389e-05,0.0821271267" mask="url(#mask-2)"/></g><g transform="translate(25.651693, 4.949880)"><mask id="mask-4" fill="white"><use xlink:href="#path-3"/></mask><g id="Clip-6"/><path id="Fill-5" fill="#49A51F" d="M3.15797363,4.31453129 C2.2063584,4.72120447 1.29249078,4.83131905 0.551511393,4.02840022 C0.0730968967,3.5101526 0.0910322266,1.47845512 0.488737739,0.812553863 C0.817204536,0.262606597 1.33336664,0.153117665 1.91876747,0.165213585 C2.54838097,0.178352257 3.15025727,0.499102691 3.81282172,0.25238763 C4.17215397,0.118706858 4.2514031,0.429238325 4.2480663,0.746443403 C4.23305067,2.13246901 4.2493176,3.51891172 4.21490679,4.90410312 C4.19384321,5.75957665 3.66057997,6.19419557 2.85828678,6.36624961 C2.00489876,6.54935681 1.19050966,6.52745903 0.536704319,5.87052543 C0.366944336,5.7001398 0.142335612,5.32746033 0.435974501,5.16395686 C0.741083659,4.99419687 1.15317914,4.980224 1.47935189,5.31640716 C1.8787258,5.727877 2.39259386,5.62777283 2.83430349,5.43402956 C3.31355219,5.22381081 3.21052832,4.76374874 3.15797363,4.31453129" mask="url(#mask-4)"/></g><path id="Fill-7" fill="#47A51E" d="M13.8637597,5.17486404 C14.0668878,5.20176704 14.1757116,5.1680255 14.4581282,5.32648014 C15.565042,6.16780007 15.2841412,7.53707682 15.1520389,8.38858606 C14.9509499,9.11679983 14.3261158,9.5638061 13.5165234,9.61260688 C12.8477024,9.6528571 12.2072443,9.31667394 11.5081836,9.5625548 C11.0958795,9.70749729 11.1501026,9.26954156 11.1492684,9.01365028 C11.143429,7.45327658 11.1513539,5.89290289 11.1423862,4.33252919 C11.14089,4.08010998 11.1757543,3.75776443 11.6314368,3.74775401 C12.0158342,3.73940111 12.2253882,3.94545974 12.1926458,4.36568869 C12.1688711,4.6722577 12.1880577,4.98216352 12.1880577,5.37548947 C12.825179,5.13440527 13.3415497,5.10604243 13.8637597,5.17486404 Z"/><path id="Fill-9" fill="#49A620" d="M21.4468589,7.40101387 C21.4466503,5.06191317 21.4462332,5.08798197 23.7651046,5.13365449 C24.7179711,5.15242402 25.1934659,5.61060914 25.2612447,6.4911087 C25.3275638,7.35283874 25.2833511,8.22249368 25.3202645,9.08714342 C25.3388255,9.5244735 25.1348632,9.58933266 24.758847,9.59934308 C24.3037901,9.611439 24.2585347,9.37515145 24.2660425,9.02019876 C24.2798068,8.36222242 24.2562406,7.70320332 24.2737589,7.04522697 C24.2881488,6.50925258 24.2178674,6.06274629 23.5436241,6.03313214 C22.8756373,6.00393509 22.476472,6.30174499 22.4479006,6.98391317 C22.4205805,7.64126387 22.4395586,8.30028296 22.4297567,8.95846786 C22.4251686,9.25544355 22.5115084,9.58620441 22.0013943,9.59871743 C21.5019162,9.61081335 21.4297578,9.36242988 21.4428964,8.96013626 C21.459789,8.4408459 21.4470674,7.92072133 21.4468589,7.40101387"/><path id="Fill-11" fill="#48A51E" d="M16.1498678,5.29092231 C16.6503906,5.10070727 17.2257694,5.02043679 18.0755356,5.11501835 C18.1750141,5.14317264 18.4453814,5.1951977 18.540689,5.23169401 C18.9338064,5.38226736 19.2000972,5.60969916 19.296656,5.99322325 C19.32773,6.11668505 19.3189483,6.36953125 19.0483221,6.39063092 C18.7836589,6.46796579 18.4528527,6.285683 18.1248396,6.21167209 C17.5311642,5.96744496 16.9044029,6.09467535 16.8155605,6.8752793 C16.7340173,7.59352669 16.7640485,8.32637261 16.7780214,9.05212782 C16.7855292,9.44315972 16.6685325,9.60019813 16.2518489,9.59982151 C15.8382936,9.59936393 15.7081581,9.44962478 15.7237994,9.05483898 C15.74674,8.4675612 15.7296388,7.87861502 15.7296388,7.16537283 C15.7357706,7.15391082 15.5596295,5.5829723 16.1498678,5.29092231 Z"/><path id="Fill-13" fill="#4CA724" d="M20.7653998,7.44968952 C20.7653998,8.00213939 20.7535124,8.55500636 20.7697793,9.10703913 C20.7797898,9.45490111 20.6571622,9.60213765 20.2924076,9.59650679 C19.9305727,9.59108448 19.7055469,9.53081343 19.7130547,9.0907722 C19.7324499,7.9516702 19.7297388,6.81173401 19.7149317,5.67263201 C19.7090923,5.22883687 19.9566415,5.18524985 20.3088831,5.17753349 C20.6917815,5.16919147 20.7749931,5.36105779 20.7687366,5.68869039 C20.7572663,6.27555106 20.7653998,6.86262029 20.7653998,7.44968952"/><path id="Fill-15" fill="#4EA826" d="M20.2700927,4.8004536 C19.8896969,4.84716888 19.7055469,4.71765911 19.707841,4.30055842 C19.7099265,3.91724288 19.8240035,3.7508197 20.2296339,3.74956059 C20.6098212,3.74852565 20.7856292,3.85154952 20.7766615,4.26406211 C20.768528,4.63152782 20.6967867,4.86802391 20.2700927,4.8004536"/><path id="Fill-17" fill="#FDFEFD" d="M28.8791136,7.45263008 C28.9245776,8.1569046 28.6524194,8.63594475 27.7737968,8.62822839 C26.820096,8.61967782 26.8935058,7.95294236 26.8868321,7.32645712 C26.8797414,6.64220343 26.8653515,5.97859622 27.8739009,6.01947209 C28.81634,6.05784536 28.8834932,6.67452873 28.8791136,7.45263008"/><path id="Fill-19" fill="#F9FBF8" d="M14.1858866,7.37575842 C14.1729565,8.05855226 14.1798386,8.70610109 13.2647197,8.71506875 C12.3074736,8.72466207 12.1456385,8.1146523 12.1529378,7.34093051 C12.1600285,6.60579054 12.3220721,6.04791836 13.2315602,6.04937535 C14.2376071,6.05062951 14.1535613,6.7622033 14.1858866,7.37575842"/><path id="路径" fill="#47A51E" d="M12.1880577,5.37548947 C13.7736997,4.82200138 14.7497252,5.09683823 15.1161342,6.2"/><path id="路径-2" fill="#47A51E" d="M15.2697589,7.39801352 C15.2628221,8.28029113 15.0689397,8.86218057 14.6881118,9.14368184"/></g></g></svg>