<?xml version="1.0" encoding="utf-8"?><!--Generator: Adobe Illustrator 19.2.0, SVG Export Plug-In . SVG Version: 6.00 Build 0)--><svg xmlns="http://www.w3.org/2000/svg" xmlns:xlink="http://www.w3.org/1999/xlink" id="Layer_1" x="0px" y="0px" style="enable-background:new 0 0 512 512" version="1.1" viewBox="0 0 512 512" xml:space="preserve"><style type="text/css">.st0{fill:#F1F1F2;}
	.st1{fill:#FE701A;}
	.st2{fill:#009CB1;}
	.st3{fill:#323232;}</style><path d="M512,472.6c0,22.1-17.9,40-40,40H40c-22.1,0-40-17.9-40-40v-432c0-22.1,17.9-40,40-40h432c22.1,0,40,17.9,40,40
	V472.6z" class="st0"/><g><path d="M443,218.2c19.2-1.8,33.7,4.8,41.8,22.5c4.6,9.9,4.1,20.1-0.2,30.6c-3.8-1.8-7.2-3.2-10.5-5.1
		c-0.6-0.3-0.8-2.2-0.5-3.1c3.4-11.5-1.1-23.2-11.6-29c-3.9-2.2-8.2-3.5-13-2.2c0.9,0.4,1.7,0.9,2.6,1.3c3.7,1.7,5.2,4.9,4.1,8.2
		c-1.2,3.6-4.6,5.5-8.4,4.2c-6.8-2.4-13.4-5.2-20-8.1c-3.3-1.4-4.5-4.9-3.1-8.4c2.4-6.4,5-12.7,7.6-18.9c1.6-3.7,4.9-5.1,8.3-3.9
		c3.6,1.3,5.2,4.6,4.1,8.5C443.9,215.7,443.5,216.7,443,218.2z" class="st1"/><path d="M461.6,295c-19.2,1.8-33.7-4.8-41.8-22.5c-4.6-9.9-4.1-20.1,0.2-30.6c3.8,1.8,7.2,3.2,10.5,5.1
		c0.6,0.3,0.8,2.2,0.5,3.1c-3.4,11.5,1.1,23.2,11.6,29c3.9,2.2,8.2,3.5,13,2.2c-0.9-0.4-1.7-0.9-2.6-1.3c-3.7-1.7-5.2-4.9-4.1-8.2
		c1.2-3.6,4.6-5.5,8.4-4.2c6.8,2.4,13.4,5.2,20,8.1c3.3,1.4,4.5,4.9,3.1,8.4c-2.4,6.4-5,12.7-7.6,18.9c-1.6,3.7-4.9,5.1-8.3,3.9
		c-3.6-1.3-5.2-4.6-4.1-8.5C460.7,297.4,461.1,296.5,461.6,295z" class="st2"/><path d="M334.2,248.3c1.3-4,1.3-4,6.6-4c3.9,0,7.8,0,12,0c-2.4,13.1-4.8,25.9-7.2,38.9c-5.7,0-11.3,0-17.1,0
		c0.2-1.2,0.4-2.4,0.5-3.2c-2.6,1.4-5.2,3.6-8.2,4.3c-8.5,2.1-15.8-3.6-17.1-13.1c-1.2-9,1.4-17,8.1-23.4c3.9-3.8,8.8-5.7,14.2-4.2
		C328.9,244.6,331.4,246.7,334.2,248.3z M331.3,263.9c0-2.9-1.6-4.8-4.2-4.9c-2.9-0.1-5.2,2.7-5.2,6.2c0,2.8,1.6,4.6,4.2,4.5
		C329,269.7,331.2,267.2,331.3,263.9z" class="st3"/><path d="M176.8,266.2c0.1,2.8,0.7,5,3.2,5.9c2.4,0.8,4.3-0.2,6.1-1.9c0.6-0.6,1.9-1,2.7-0.8c3.9,0.7,7.8,1.6,11.7,2.4
		c-3.1,8.6-13.7,14.3-23.7,13c-7.6-1-13.5-4.4-15.8-11.9c-2.6-8.4-0.7-16.1,5.3-22.4c6.8-7,15.2-8.8,24.5-6.1
		c8.7,2.6,13.6,11.1,12.1,20.2c-0.3,1.9-1.5,1.7-2.7,1.7c-6.6,0-13.3,0-19.9,0C179.1,266.2,178.1,266.2,176.8,266.2z M177.9,258.7
		c3.2,0,6.1,0,9.2,0c-0.2-2.4-1-4-3.4-4.2C180.8,254.3,179,255.7,177.9,258.7z" class="st3"/><path d="M128.3,266.2c-8.3,0-16.8,0-25.3,0c-0.3,2.6,0.4,4.6,2.5,5.7c2.1,1,4.3,0.6,5.8-1.3c1.2-1.4,2.4-1.6,4.1-1.2
		c3.7,0.9,7.4,1.6,11.1,2.4c-3.6,8.7-13.5,14.2-23.5,13c-7.7-0.9-13.7-4.4-16.1-12c-2.7-8.6-0.6-16.5,5.8-22.8
		c6.3-6.2,14.1-8.1,22.7-6C125.6,246.4,130.8,255.4,128.3,266.2z M112.8,258.8c0.4-2.5-0.5-3.9-2.8-4.3c-3-0.5-5.1,1.2-5.7,4.3
		C107.1,258.8,109.9,258.8,112.8,258.8z" class="st3"/><path d="M131.6,283.4c3.6-19.7,7.2-38.9,10.8-58.3c6,0,11.9,0,18.1,0c-1.2,6.4-2.3,12.7-3.4,19
		c-2.2,12.1-4.6,24.3-6.7,36.4c-0.4,2.4-1.3,3-3.6,2.9C141.8,283.3,136.9,283.4,131.6,283.4z" class="st3"/><path d="M280.9,233.7c5.7,0,11.1,0,16.6,0c0.5,0,0.9,0.1,1.6,0.2c-0.6,3.5-1.1,6.8-1.7,10.4c1.9,0,3.5,0,5.5,0
		c-0.8,4.5-1.5,8.7-2.4,12.8c-0.1,0.5-1.5,1.3-2.2,1.2c-3-0.4-3.9,1-4.4,3.8c-1.1,7-2.5,14-3.9,21.1c-6,0-11.9,0-18.2,0
		c1.5-8.3,2.9-16.3,4.4-24.6c-1.7-0.2-3.1-0.3-4.7-0.5c0.8-4.2,1.6-8.1,2.3-12.2c0.3-2,1.6-1.7,2.8-1.6c1.9,0.2,2.6-0.6,2.8-2.4
		C279.8,239.3,280.4,236.7,280.9,233.7z" class="st3"/><path d="M390.9,247.7c-2.3,3.8-4.3,7.2-6.2,10.4c-2.2-1.2-4-2.4-6.1-3.2c-0.8-0.3-2.1,0.5-3.1,0.7
		c0.6,0.8,1.1,1.8,1.8,2.5c0.7,0.6,1.7,0.9,2.6,1.3c4.5,1.8,7.6,4.8,7.8,9.9c0.2,5.6-1.9,10.1-6.8,13c-4.3,2.5-9,3-13.8,2.4
		c-5.5-0.7-10.4-3.1-15.2-6.3c2.3-3.9,4.6-7.6,6.6-10.9c3.2,1.8,6.1,3.6,9.1,4.9c0.9,0.4,2.4-0.5,3.6-0.7c-0.7-0.9-1.2-2.1-2.1-2.7
		c-1.4-1-3.1-1.6-4.6-2.5c-7.1-4.3-7.9-13.3-1.6-18.8c5.8-5.1,12.6-5.2,19.6-3.3C385.2,245,387.8,246.4,390.9,247.7z" class="st3"/><path d="M81.2,259.9c-4-2.3-7.7-3.5-11.2-0.2c-2,1.9-2.5,5.6-1.1,7.9c2.6,4.2,6.4,3,10.4,1.8
		c-0.8,4.5-1.4,8.7-2.3,12.9c-0.2,0.7-1.4,1.5-2.2,1.7c-8.1,2-15.7,1.1-21.2-5.8c-5.7-7.2-4.9-15.2-1.1-22.9
		c5.2-10.3,18.8-15.1,29.4-10.6c0.7,0.3,1.6,1.5,1.5,2.2C82.9,251.2,82,255.4,81.2,259.9z" class="st3"/><path d="M223.1,283.2c-6.1,0-12.1,0-18.3,0c2.3-12.5,4.6-24.8,7-37.1c0.1-0.7,1.1-1.7,1.7-1.7
		c4.9-0.1,9.9-0.1,15.1-0.1c-0.2,1.4-0.3,2.5-0.6,4.4c4.1-5.2,8.8-6.6,14.6-4.8c-1,5.2-1.9,10.3-2.9,15.5c-1.8-0.4-3.3-0.7-4.8-0.9
		c-4.5-0.7-7,0.8-8,5.1C225.5,270.1,224.4,276.5,223.1,283.2z" class="st3"/><path d="M267.4,244.4c-2.4,13.2-4.8,26-7.2,38.9c-6.1,0-12,0-18.3,0c0.9-5.2,1.8-10.2,2.7-15.3
		c1.3-7.1,2.7-14.1,3.9-21.2c0.3-1.9,1-2.4,2.8-2.4C256.6,244.4,261.8,244.4,267.4,244.4z" class="st3"/><path d="M270.2,232.5c0,5.5-4.7,9.9-10.7,10c-5.8,0.1-9.9-3.6-9.9-8.8c0-5.4,4.9-9.8,11-9.8
		C266.2,223.7,270.2,227.3,270.2,232.5z" class="st3"/><path d="M43.2,273.9c0,5.3-4.6,9.9-10.1,9.9c-5,0-9.1-3.7-9-8.4c0.1-5.4,4.6-9.8,10.2-9.9
		C39.3,265.5,43.1,269,43.2,273.9z" class="st3"/></g></svg>