<?xml version="1.0" encoding="utf-8"?><!--Generator: Adobe Illustrator 18.1.1, SVG Export Plug-In . SVG Version: 6.00 Build 0)--><svg xmlns="http://www.w3.org/2000/svg" xmlns:xlink="http://www.w3.org/1999/xlink" id="Layer_1" width="512px" height="512px" x="0px" y="0px" enable-background="new 0 0 512 512" version="1.1" viewBox="0 0 512 512" xml:space="preserve"><path fill="#273673" d="M512,472c0,22.1-17.9,40-40,40H40c-22.1,0-40-17.9-40-40V40C0,17.9,17.9,0,40,0h432c22.1,0,40,17.9,40,40
	V472z"/><path fill="#FFFFFF" fill-rule="evenodd" d="M435.8,191c-1.4,4.3-0.7,6.6,1.8,9.4c-2.4,1.6-1,2.7-0.4,5.8
	c-1.2,1.5-3.6,1.8-5.8,2.2c6.5,4.1,7.6,13.6,10.3,21.4c4.3-2.3,10.1-2.1,14.3-4.5c1.9-1.1,3.8-4.6,7.6-2.2c0.9,1.4,1.9,3.7,0.9,5.8
	c-1.3,1.8-3.4,0.4-5.4,0.9c-6,1.5-13.2,8.4-18.3,10.3c-7.1,2.6-7.9-6.5-12.1-11.2c-0.9,4.6-5.1,8.2-4.5,12.5
	c0.8,5.7,11.8,6.4,15.2,11.6c5.3,8,0.3,17.6,3.1,28.6c0.7,1.7-2,0.1-1.3,1.8c2.6,2.5,6.2,4,10.3,4.9c-0.1,7.2-11.3,0.1-17,3.1
	c-0.4-0.6-1.2-0.9-1.8-1.3c-0.2-2.3,0.6-3.6,0.9-5.4c-6-3.3-1.6-14.5-4.9-21c-2.5-4.9-10.1-2.8-13.8-6.7c-8.9,11-20.1,19.8-34,25.9
	c-1.7,0.2-1.8-1.1-3.1-1.3c-2.4,1.9-5.5,2.5-9.4,4.9c-3.6,2.2-6.9,8.6-10.3,4.9c-1-4.3,2.5-4.9,4.5-7.6c3.9-5.2,2.4-9.7,10.3-9.8
	c0.8-2.9,3.8-3.6,6.7-4.5c1.4-0.9-1.5-2.2-0.4-2.7c1-0.4,2.2-0.8,3.6-0.9c1.4-0.8-2.4-1.2-0.9-2.2c1.6-0.2,2.9-0.7,4.9-0.4
	c1.5-1.2-2.4-0.8-2.2-2.2c1.3-0.6,3.4-0.5,5.4-0.4c-0.1-1.6-1.5-1.8-3.1-1.8c1-1.4,3.3-1.5,5.4-1.8c-0.4-1.1-2.4-0.6-3.1-1.3
	c0.9-1.4,2.7-1.8,4.9-1.8c-0.3-1.1-1.7-1-2.7-1.3c0.7-1.4,2.8-1.4,4.9-1.3c0.4-1.6-1.8-0.6-2.7-0.9c-0.3-1.2,0.9-0.9,0.9-1.8
	c-6.6-3.3-15.1-4.5-16.5-13c6.3,3.3,15.9,9.7,25.5,10.7c10.8,1.1,17.9-4.5,16.1-14.3c-0.9-4.9-5.7-6-11.2-7.1
	c-0.2-1.1,2,0.2,1.3-1.3c-0.9-1.4-5.1,0.7-5.4-1.3c0.2-1.9,3.7-0.4,5.4-0.9c-0.7-3.2-5.7,0.8-6.3-2.2c1.1-1.3,5.2,0.4,6.3-0.9
	c-0.6-2.5-7.3,1.1-6.7-2.7c2.1-0.3,5.3,0.6,6.7-0.4c-5.3-2.3-12.2-0.3-19.2-0.9c0.8-3,5.5-1.8,8.9-1.8c3.7,0,7.8,0.4,10.3-0.4
	c-4.2-2.1-12.2-0.3-17.9-0.9c4.5-7.4,20.4-3.4,29.5-6.3c-1.5-4-4.5-6.3-3.6-10.7C418.9,187.3,431.7,185.8,435.8,191z" clip-rule="evenodd"/><path fill="#FFFFFF" fill-rule="evenodd" d="M398.7,215.6c-0.4,3.3-6.3,1.2-9.4,1.8c0-0.4,0-0.9,0-1.3
	C391.7,215.1,395.7,215.8,398.7,215.6z" clip-rule="evenodd"/><path fill="#FFFFFF" fill-rule="evenodd" d="M389.3,219.2c8.4-1.8,8.9,2.4,13.8,5.4c3.9,2.3,12.9,3.2,14.3,6.7
	c2.7,6.6-3.2,13.2-8.9,13.8c-5.5,0.6-11.7-1.3-17.4-3.6c-4.3-1.7-11.9-4.7-12.5-8C377.3,226.3,385.7,222.8,389.3,219.2z M383.5,233
	c2,0.3,3,1.4,5.4,1.3c2.2-2.4,3.9-5.3,5.4-8.5C389.3,219.2,385.7,228.9,383.5,233z M395.6,226.3c-0.9,1.7,0.4,1,0.9,2.2
	c-1.6,2.4-3.5,4.6-4.5,7.6c1.1-0.1,1.4,0.7,2.2,0.9c2.1-3.4,3.4-8,7.1-8.5C400.8,226.6,397.5,225.5,395.6,226.3z M396.9,237.9
	c1.6,0.8,3.2,1.6,5.4,1.8c2.1-2.7,4.4-5.2,5.4-8.9c-1-1.5-3.2-1.8-4.9-2.7C401.2,231.8,398.8,234.6,396.9,237.9z M405,240.6
	c2,3,6.4,1.3,7.1-1.8c-1-0.1-1.8-0.5-2.7-0.9c-0.3,1.1-0.4,2.3-1.8,2.2c1.2-2.6,2.2-5.2,4.5-6.7c0.1,1.6-1.3,1.6-1.3,3.1
	c1.4-0.3,1.3,0.8,2.7,0.4c0.4-1.3,1.4-1.8,1.3-3.6C410.3,228.3,405.6,236.1,405,240.6z" clip-rule="evenodd"/><path fill="#FFFFFF" fill-rule="evenodd" d="M390.7,225.4c1.6,1.6-2.3,4.7-3.1,6.7
	C386.9,230,390.2,227.9,390.7,225.4z" clip-rule="evenodd"/><path fill="#FFFFFF" fill-rule="evenodd" d="M404.1,230.8c1.7,1.5-2.2,4.8-3.1,6.7
	C400.3,235.3,403.6,233.2,404.1,230.8z" clip-rule="evenodd"/><path fill="#FFFFFF" fill-rule="evenodd" d="M47.1,288.4c5.5-0.5,10.5-1.5,15.2-2.7c-3.2-2.3-8.2-2.8-13.8-2.7
	c5.1-1.3,11.8-1,16.1-3.1c-3.6-1.4-8-2.1-13-2.2c-1.1-0.9,3.5-0.3,4.9-0.4c3.3-0.4,8-1.7,9.8-2.7c-3.1-2.2-9.9-0.8-13.4-2.7
	c6.2,0.3,11.2-0.7,15.2-2.7c-3.4-1.6-7.8-2-12.5-2.2c-1.1-0.9,3.6-0.3,4.9-0.4c3-0.4,6.6-2.2,9.4-1.8c-2.5-2.7-7.6-2.9-13-2.7
	c4.2-1.6,10.6-1,14.7-2.7c-2-3.3-9-1.7-12.5-3.6c6.4,0.7,9.9-1.4,14.7-2.2c-2.8-2.5-7.6-2.8-13-2.7c4.4-1.4,10.5-1.1,14.7-2.7
	c-2.4-2.7-7.4-2.7-12.5-2.7c2.7-1.7,11.6-0.5,14.7-3.1c-3.1-2-7.6-2.5-13-2.2c4.2-1.8,11.5-0.4,14.7-3.1c-3.1-1.9-7.4-2.5-12.5-2.2
	c4.7-0.9,10.7-2.1,15.2-2.2c25.9-0.9,55.6-4.1,52.7,21.9c-1.8,16.3-12.4,34.1-34.8,35.7C83.9,291.4,61.5,290.1,47.1,288.4z
	 M97.6,246.9C94,256,90.4,265.2,87.4,275c5-0.2,11,0.5,14.7-0.9c-2.2-1.5-7.2-0.3-9.8-1.3c5.8-1,13.4-0.3,17-3.6
	c-3.2-1.7-9.3-0.5-12.5-2.2c6.6,0.8,9.9-1.7,15.6-1.8c-2.6-2.7-8.4-2.3-13-3.1c6.2,0,10.2-0.9,15.2-2.7c-3.7-1.7-8.7-2-13.4-2.7
	c5.1-0.7,11.1-0.5,14.3-3.1c-4.8-1.3-10.2-2-15.6-2.7c4.4-0.8,10.8,0.4,13.4-2.2C108.9,247.2,103.4,246.8,97.6,246.9z" clip-rule="evenodd"/><path fill="#FFFFFF" fill-rule="evenodd" d="M364.3,254.4c-6.4,0-12.8,0-19.2,0c-1-0.8,0.1-3.7-0.9-4.5
	c-6.3-8.4-18.1-4-23.2,1.8c-6.2,7-12.2,24.8,0,26.4c9.2,1.1,15.7-4.7,18.8-9.8c6.6,0,13.1,0,19.7,0c-6.7,13.6-20.3,23.2-39.8,23.2
	c-10.3,0-20.6-3-30.8-4c3.3-0.1,7.1,0.3,9.8-0.4c-1.7-4-13.5-3.7-18.3-4.5c4.7-0.7,10.2-0.6,13.4-2.7c-4.1-2-10.2-2-15.6-2.7
	c4.8-0.8,10.9-0.5,14.3-2.7c-4.1-1.5-8.8-2.5-14.7-2.2c4.2-1.6,10.6-1,14.7-2.7c-1.8-3.3-10.1-1.5-14.3-3.6
	c6.5,0.7,10.1-1.6,15.6-1.8c-3.1-2.1-7.8-2.6-13-2.7c-1.1-0.9,3.6-0.3,4.9-0.4c3.2-0.4,7.3-2.1,9.8-2.2c-2.6-2.7-7.8-2.6-13-2.7
	c5.1-1.6,12.3-1.1,16.5-3.6c-3-2.1-10.9-1.6-13.4-2.7c6.4-0.3,12.5-0.9,17.4-2.7c-2.5-2.9-10.2-0.6-13.4-2.7c7.9-0.1,16,0,20.1-4
	c-4.4,0.4-10.6-2.4-13.8-1.3c2.5-0.8,4.5,0.3,8.5,0c5.3-0.4,11.8-2.1,16.1-3.6c-3.8-1.4-9.7-0.7-14.7-0.9
	C328.2,233.9,369.6,223.2,364.3,254.4z" clip-rule="evenodd"/><path fill="#FFFFFF" fill-rule="evenodd" d="M191,288.4c5.6-0.6,11.4-1.1,15.6-3.1c-4-1.4-8.1-2.6-13.8-2.2
	c3.3-1.4,11.8-0.8,15.6-3.1c-2.7-1.4-6.5-1.6-9.8-2.2c-1,0-2.1,0-3.1,0c-2.3-0.3,0.9-0.6,1.8-0.4c5.3,0.3,8.6-1.5,13-2.2
	c-2.4-3.1-9.9-1.1-13.4-3.1c6.5,0.4,11.4-0.8,15.6-2.7c-3.2-1.6-7.7-1.8-12.1-2.2c-2.1,0.2-1.1-0.8,0.4-0.4
	c5.5,0.3,8.8-1.6,13.4-2.2c-3.3-1.9-7.9-2.6-13.4-2.2c4.4-1.7,11.5-0.7,15.2-3.1c-2.9-2.4-9.3-1.4-13-3.1c6.3,0.7,9.9-1.4,14.7-2.2
	c-2.6-2.6-7.7-2.8-13-2.7c4.5-1.6,11.4-0.8,15.2-3.1c-3.4-1.7-7.5-2.6-13-2.2c3-1.3,10.7-1,14.7-2.7c-2.3-2.7-7.4-2.7-12.5-2.7
	c4-1.7,10.6-0.7,14.3-2.7c-2-2.9-7.3-2.6-12.1-2.7c13.3-1.9,35-4,50.5-2.2c9.9,1.2,18.2,8.2,17.4,19.2
	c-1.3,19.1-12.5,36.8-35.3,38.4C228.2,291.4,205.8,290.1,191,288.4z M241.5,246.9c-3.4,9.4-7,18.6-10.3,28.1
	c4.9-0.5,11.9,1.1,14.7-1.3c-2.9-0.5-6.8-0.1-9.4-0.9c5.7-1.1,13.4-0.3,17-3.6c-3.5-1.6-9.5-0.6-13-2.2c6.5,0.3,11.7-0.9,16.1-2.7
	c-4.1-1.1-8.6-1.8-13.4-2.2c6.1,0.2,11-1,15.2-2.7c-3.5-1.7-8.4-2-13-2.7c5.1-0.7,11-0.7,14.3-3.1c-4.8-1.5-10.7-1.8-16.1-2.7
	c4.6-0.8,11,0.3,13.8-2.2C253,247.2,247.5,246.8,241.5,246.9z" clip-rule="evenodd"/><path fill="#FFFFFF" fill-rule="evenodd" d="M204.4,232.1c-2,5.1-3.5,10.8-5.8,15.6c-2.5-0.7-8.5-0.4-13-0.4
	c-5.5,14-10.3,28.7-15.6,42.9c-13.1,1-25.1-1.3-35.3-1.8c4.9-1.7,11.8-1.3,16.1-3.6c-4.5-1-8.3-2.7-14.3-2.2
	c4.8-1.6,12-0.8,16.1-3.1c-3.6-1.6-10.8-2-13.8-2.7c6.5,0.5,10.6-1.3,15.6-2.2c-3.1-2.1-8.1-2.4-13.4-2.2c4.5-1.7,11.5-1,15.6-3.1
	c-2.6-2.7-10.7-1.8-13.4-3.1c6.4,0.7,9.5-1.8,15.2-1.8c-2.8-2.5-7.9-2.8-13.4-2.7c4.4-1.6,10.9-1,15.2-2.7
	c-2.7-2.4-7.2-2.9-12.5-2.7c4.6-1.3,10.3-1.6,14.7-3.1c-2.8-2.5-7.6-2.8-13-2.7c3.6-1.8,10.4-0.4,13.4-2.7
	c-7.3-0.1-16.7-1.7-24.6-2.7c4.7-1,11.2-0.1,13.8-3.1c-1.9-2.9-9-0.6-11.6-2.7c5.4,0.1,10.7,0,13.4-2.7c-2-2.5-7.6-1.4-11.2-2.2
	C160.4,230.7,183.5,232.5,204.4,232.1z" clip-rule="evenodd"/></svg>