<?xml version="1.0" encoding="UTF-8"?>
<svg
  xmlns="http://www.w3.org/2000/svg"
  xmlns:xlink="http://www.w3.org/1999/xlink"
  width="512"
  height="512"
  version="1.1"
  viewBox="0 0 512 512">
  <g id="fastway-icon" fill="none" fill-rule="evenodd" stroke="none" stroke-width="1"
    transform="scale(16)">
    <path id="background" fill="#000080"
      d="M32,29.5 C32,30.880875 30.880875,32 29.5,32 L2.5,32 C1.119125,32 0,30.880875 0,29.5 L0,2.5 C0,1.119125 1.119125,0 2.5,0 L29.5,0 C30.880875,0 32,1.119125 32,2.5 L32,29.5 Z" />
    <g id="letter" fill="#FFFFFF" transform="translate(11, 5)">
      <path d="M3,11 L1,11 L1,14 L3,14 L3,23 L6,23 L6,14 L9,14 L9,11 L6,11 L6,7 L6,5 C6,3.89543 6.89543,3 8,3 L9,3 L9,0 L8,0 C5.23858,0 3,2.23858 3,5 L3,7 L3,11 Z" />
    </g>
  </g>
</svg>
