<?xml version="1.0" encoding="utf-8"?><!--Generator: Adobe Illustrator 18.1.1, SVG Export Plug-In . SVG Version: 6.00 Build 0)--><svg xmlns="http://www.w3.org/2000/svg" xmlns:xlink="http://www.w3.org/1999/xlink" id="Layer_1" width="512px" height="512px" x="0px" y="0px" enable-background="new 0 0 512 512" version="1.1" viewBox="0 0 512 512" xml:space="preserve"><path fill="#4594CD" d="M512,472c0,22.1-17.9,40-40,40H40c-22.1,0-40-17.9-40-40V40C0,17.9,17.9,0,40,0h432c22.1,0,40,17.9,40,40
	V472z"/><path fill="#FFFFFF" d="M478,443.3c0,19.2-15.5,34.7-34.7,34.7H68.7C49.5,478,34,462.5,34,443.3V68.7
	C34,49.5,49.5,34,68.7,34h374.6c19.2,0,34.7,15.5,34.7,34.7V443.3z" display="none"/><g><polygon fill="#FFFFFF" points="387.3,373.9 405.7,304.6 368.7,304.6 350.8,373.9 	"/><polygon fill="#FFFFFF" points="409.3,288.6 427,220.3 390.5,220.3 372.8,288.6 	"/><polygon fill="#FFFFFF" points="430.7,205.9 447.9,138.1 411.7,138.1 394.2,205.9 	"/><polygon fill="#FFFFFF" points="242.8,304.6 301.5,373.9 337.7,373.9 355.1,304.6 	"/><polygon fill="#FFFFFF" points="147,220.3 206.7,288.6 359.2,288.6 376.4,220.3 	"/><polygon fill="#FFFFFF" points="64.1,138.1 121.7,205.9 380,205.9 397,138.1 	"/><polygon fill="#FFFFFF" points="64.1,138.1 64.1,160.2 111.9,205.9 121.6,205.9 	"/><polygon fill="#FFFFFF" points="147,220.5 147,242.6 194.8,288.6 206.7,288.6 	"/><polygon fill="#FFFFFF" points="243,304.6 243,326.6 291.7,373.9 301.5,373.9 	"/></g></svg>