<?xml version="1.0" encoding="UTF-8"?><svg xmlns="http://www.w3.org/2000/svg" xmlns:xlink="http://www.w3.org/1999/xlink" width="32px" height="32px" version="1.1" viewBox="0 0 32 32"><title>spring-gds</title><g id="spring-gds" fill="none" fill-rule="evenodd" stroke="none" stroke-width="1"><path id="goglobalpost" fill="#F4F4F5" d="M32,29.5 C32,30.880875 30.880875,32 29.5,32 L2.5,32 C1.119125,32 0,30.880875 0,29.5 L0,2.5 C0,1.119125 1.119125,0 2.5,0 L29.5,0 C30.880875,0 32,1.119125 32,2.5 L32,29.5 Z"/><g id="编组-69" transform="translate(7.000000, 1.000000)"><path id="globaldeliverysolutions" fill="#001376" fill-rule="nonzero" d="M0.48929317,29.9916413 C0.568179543,29.9916413 0.633412504,29.9833665 0.684992055,29.9668169 C0.736571606,29.9502673 0.777807665,29.9273737 0.80870023,29.8981361 C0.839592795,29.8688985 0.863589699,29.8286278 0.88069094,29.7773241 C0.897792182,29.7260204 0.906342803,29.6485131 0.906342803,29.5448024 L0.906342803,29.5448024 L0.906342803,28.7562145 L0.688715713,28.7562145 L0.688715713,28.8795089 C0.618104135,28.784073 0.52846053,28.736355 0.419784898,28.736355 C0.314419184,28.736355 0.226292625,28.7752465 0.155405221,28.8530296 C0.0845178161,28.9308126 0.0490741139,29.0433498 0.0490741139,29.1906412 C0.0490741139,29.3081433 0.0761051086,29.4063375 0.130167098,29.4852239 C0.199123717,29.585073 0.292628893,29.6349976 0.410682624,29.6349976 C0.516599991,29.6349976 0.604312811,29.5875555 0.673821083,29.4926712 L0.673821083,29.4926712 L0.673821083,29.6209305 C0.673821083,29.6727859 0.670235339,29.7083675 0.66306385,29.7276753 C0.652582444,29.7547063 0.637136162,29.77429 0.616725002,29.7864264 C0.58638409,29.8046309 0.540872721,29.8137332 0.480190897,29.8137332 C0.432748743,29.8137332 0.397994607,29.8054584 0.375928488,29.7889088 C0.359930553,29.7773241 0.349724973,29.7560855 0.34531175,29.7251929 L0.34531175,29.7251929 L0.0796908528,29.6929212 C0.0791391998,29.7039543 0.0788633734,29.7133324 0.0788633734,29.7210555 C0.0788633734,29.7993902 0.110031765,29.8640715 0.172368549,29.9150994 C0.234705333,29.9661273 0.340346873,29.9916413 0.48929317,29.9916413 Z M0.47522602,29.4471598 C0.422267337,29.4471598 0.377721361,29.4255074 0.341588092,29.3822027 C0.305454824,29.3388979 0.28738819,29.2706309 0.28738819,29.1774015 C0.28738819,29.0885854 0.305454824,29.0225249 0.341588092,28.9792202 C0.377721361,28.9359154 0.423646469,28.9142631 0.479363417,28.9142631 C0.536735324,28.9142631 0.584177478,28.9363292 0.621689879,28.9804614 C0.65920228,29.0245936 0.67795848,29.0921711 0.67795848,29.1831939 C0.67795848,29.270355 0.6583748,29.3361396 0.619207441,29.3805477 C0.580040081,29.4249558 0.532046274,29.4471598 0.47522602,29.4471598 Z M1.326887,29.6349976 L1.326887,28.4219128 L1.09436528,28.4219128 L1.09436528,29.6349976 L1.326887,29.6349976 Z M1.92368431,29.6548571 C2.05387441,29.6548571 2.16186047,29.6111386 2.24764251,29.5237017 C2.33342454,29.4362647 2.37631556,29.326072 2.37631556,29.1931236 C2.37631556,29.0612786 2.33383828,28.9521892 2.24888373,28.8658555 C2.16392917,28.7795218 2.05497771,28.736355 1.92202935,28.736355 C1.83597149,28.736355 1.75805051,28.755387 1.68826641,28.7934511 C1.61848231,28.8315151 1.56455824,28.8866804 1.52649418,28.9589469 C1.48843013,29.0312135 1.4693981,29.1059625 1.4693981,29.1831939 C1.4693981,29.2841464 1.48843013,29.3697905 1.52649418,29.4401262 C1.56455824,29.510462 1.62013727,29.5638344 1.69323129,29.6002435 C1.7663253,29.6366526 1.84314298,29.6548571 1.92368431,29.6548571 Z M1.92285683,29.4653644 C1.86217501,29.4653644 1.81114711,29.4421949 1.76977314,29.3958561 C1.72839916,29.3495172 1.70771218,29.2827672 1.70771218,29.1956061 C1.70771218,29.1084449 1.72839916,29.0416949 1.76977314,28.995356 C1.81114711,28.9490172 1.86217501,28.9258478 1.92285683,28.9258478 C1.98353865,28.9258478 2.03442864,28.9490172 2.07552678,28.995356 C2.11662493,29.0416949 2.137174,29.1078932 2.137174,29.1939511 C2.137174,29.2822156 2.11662493,29.3495172 2.07552678,29.3958561 C2.03442864,29.4421949 1.98353865,29.4653644 1.92285683,29.4653644 Z M2.99710977,29.6548571 C3.09916557,29.6548571 3.185913,29.6143106 3.25735205,29.5332177 C3.32879111,29.4521247 3.36451064,29.3365534 3.36451064,29.1865038 C3.36451064,29.0414191 3.32948068,28.9301231 3.25942075,28.8526158 C3.18936083,28.7751086 3.10082053,28.736355 2.99379986,28.736355 C2.89560563,28.736355 2.81065108,28.7771773 2.73893619,28.8588219 L2.73893619,28.8588219 L2.73893619,28.4219128 L2.50641447,28.4219128 L2.50641447,29.6349976 L2.7223866,29.6349976 L2.7223866,29.5059108 C2.75769239,29.555008 2.79975593,29.5921066 2.84857722,29.6172068 C2.8973985,29.642307 2.94690935,29.6548571 2.99710977,29.6548571 Z M2.94084117,29.4711567 C2.87409116,29.4711567 2.82058083,29.4402641 2.78031016,29.378479 C2.75162421,29.3348984 2.73728123,29.2675968 2.73728123,29.176574 C2.73728123,29.0883096 2.75576161,29.0225249 2.79272235,28.9792202 C2.8296831,28.9359154 2.87602195,28.9142631 2.9317389,28.9142631 C2.98855915,28.9142631 3.03517383,28.9364671 3.07158292,28.9808751 C3.10799202,29.0252832 3.12619656,29.0976877 3.12619656,29.1980885 C3.12619656,29.2924211 3.10812993,29.3615157 3.07199666,29.4053721 C3.03586339,29.4492285 2.9921449,29.4711567 2.94084117,29.4711567 Z M3.74037095,29.6548571 C3.79167467,29.6548571 3.8399443,29.6452032 3.88517985,29.6258954 C3.93041539,29.6065875 3.97289266,29.5776257 4.01261168,29.53901 C4.01426664,29.5434232 4.0170249,29.5525255 4.02088647,29.5663168 C4.02971292,29.5966578 4.03716023,29.6195514 4.04322842,29.6349976 L4.04322842,29.6349976 L4.2732677,29.6349976 C4.25285654,29.593072 4.2389273,29.5537667 4.23147999,29.5170818 C4.22403267,29.4803969 4.22030901,29.4234387 4.22030901,29.3462073 L4.22030901,29.3462073 L4.22279145,29.0747941 C4.22279145,28.9738416 4.21244796,28.9044712 4.19176097,28.866683 C4.17107399,28.8288948 4.13535446,28.7977264 4.08460239,28.7731778 C4.03385032,28.7486293 3.9566189,28.736355 3.85290815,28.736355 C3.73871599,28.736355 3.65265813,28.7567661 3.59473457,28.7975885 C3.53681101,28.8384108 3.49598869,28.9012992 3.47226761,28.9862538 L3.47226761,28.9862538 L3.68327486,29.0243178 C3.69761784,28.9834955 3.71637404,28.9549475 3.73954347,28.9386737 C3.76271289,28.9223999 3.79498459,28.9142631 3.83635856,28.9142631 C3.89759204,28.9142631 3.93924183,28.9237791 3.96130795,28.9428111 C3.98337407,28.9618431 3.99440713,28.9937011 3.99440713,29.038385 L3.99440713,29.038385 L3.99440713,29.0615544 C3.95248151,29.0792073 3.87718088,29.0982393 3.76850525,29.1186505 C3.68796391,29.1340968 3.6263167,29.1521634 3.58356359,29.1728504 C3.54081049,29.1935374 3.5075734,29.2233266 3.48385232,29.2622182 C3.46013125,29.3011097 3.44827071,29.3453798 3.44827071,29.3950286 C3.44827071,29.4700534 3.47433631,29.5321144 3.52646751,29.5812115 C3.57859872,29.6303086 3.64989986,29.6548571 3.74037095,29.6548571 Z M3.80987922,29.4910162 C3.77236682,29.4910162 3.74147425,29.4791557 3.71720152,29.4554346 C3.69292879,29.4317135 3.68079243,29.4035792 3.68079243,29.3710317 C3.68079243,29.3379325 3.69596288,29.3106257 3.72630379,29.2891112 C3.7461633,29.2758716 3.78836475,29.2623561 3.85290815,29.2485647 C3.91745154,29.2347734 3.96461787,29.2229129 3.99440713,29.2129831 L3.99440713,29.2129831 L3.99440713,29.259322 C3.99440713,29.3150389 3.99137304,29.3528271 3.98530486,29.3726867 C3.97647841,29.4030276 3.95799804,29.4286794 3.92986373,29.4496422 C3.89179968,29.4772249 3.85180484,29.4910162 3.80987922,29.4910162 Z M4.64250817,29.6349976 L4.64250817,28.4219128 L4.40998645,28.4219128 L4.40998645,29.6349976 L4.64250817,29.6349976 Z M5.58289409,29.6548571 C5.63254285,29.6548571 5.68177788,29.6425829 5.73059917,29.6180343 C5.77942045,29.5934857 5.82175982,29.5561113 5.85761726,29.5059108 L5.85761726,29.5059108 L5.85761726,29.6349976 L6.07358939,29.6349976 L6.07358939,28.4219128 L5.84106767,28.4219128 L5.84106767,28.8588219 C5.76935279,28.7771773 5.68439823,28.736355 5.586204,28.736355 C5.47918333,28.736355 5.39064303,28.7751086 5.32058311,28.8526158 C5.25052318,28.9301231 5.21549322,29.0433498 5.21549322,29.1922961 C5.21549322,29.3379325 5.25148858,29.4514351 5.32347929,29.5328039 C5.39547,29.6141727 5.4819416,29.6548571 5.58289409,29.6548571 Z M5.64909244,29.4711567 C5.58179078,29.4711567 5.52938375,29.4408158 5.49187135,29.380134 C5.46594366,29.3382083 5.45297982,29.270355 5.45297982,29.176574 C5.45297982,29.0894129 5.4715981,29.0239041 5.50883468,28.9800477 C5.54607125,28.9361913 5.59227219,28.9142631 5.64743748,28.9142631 C5.70425774,28.9142631 5.75087241,28.9364671 5.78728151,28.9808751 C5.8236906,29.0252832 5.84189515,29.0979635 5.84189515,29.198916 C5.84189515,29.2893871 5.82313895,29.3573783 5.78562655,29.4028897 C5.74811415,29.448401 5.70260278,29.4711567 5.64909244,29.4711567 Z M6.61908298,29.6548571 C6.71562224,29.6548571 6.79602566,29.6326531 6.86029323,29.588245 C6.9245608,29.543837 6.97158921,29.4791557 7.00137847,29.3942011 L7.00137847,29.3942011 L6.76968423,29.3553096 C6.75699622,29.3994418 6.73824001,29.4314377 6.71341563,29.4512972 C6.68859125,29.4711567 6.65797451,29.4810865 6.62156542,29.4810865 C6.56805508,29.4810865 6.52337119,29.4619165 6.48751375,29.4235766 C6.45165631,29.3852368 6.43290011,29.3315885 6.43124515,29.2626319 L6.43124515,29.2626319 L7.01379066,29.2626319 C7.01710058,29.084448 6.98096731,28.9521892 6.90539086,28.8658555 C6.8298144,28.7795218 6.7266553,28.736355 6.59591355,28.736355 C6.47951478,28.736355 6.38325134,28.777591 6.30712323,28.8600631 C6.23099512,28.9425353 6.19293107,29.0565895 6.19293107,29.2022259 C6.19293107,29.3241412 6.22189285,29.4250937 6.27981641,29.5050834 C6.35318625,29.6049325 6.46627511,29.6548571 6.61908298,29.6548571 Z M6.7829239,29.1203054 L6.43538254,29.1203054 C6.43483089,29.0568653 6.45110465,29.0066649 6.48420383,28.9697042 C6.51730301,28.9327434 6.55922863,28.9142631 6.6099807,28.9142631 C6.65742286,28.9142631 6.69769352,28.931778 6.7307927,28.966808 C6.76389188,29.001838 6.78126894,29.0530038 6.7829239,29.1203054 L6.7829239,29.1203054 Z M7.39378837,29.6349976 L7.39378837,28.4219128 L7.16126665,28.4219128 L7.16126665,29.6349976 L7.39378837,29.6349976 Z M7.82260736,28.6370574 L7.82260736,28.4219128 L7.59008564,28.4219128 L7.59008564,28.6370574 L7.82260736,28.6370574 Z M7.82260736,29.6349976 L7.82260736,28.7562145 L7.59008564,28.7562145 L7.59008564,29.6349976 L7.82260736,29.6349976 Z M8.46988091,29.6349976 L8.81907723,28.7562145 L8.57993568,28.7562145 L8.41278483,29.2047083 C8.40395839,29.2295327 8.39568359,29.2543571 8.38796045,29.2791815 C8.38465053,29.2913178 8.37665156,29.3164181 8.36396355,29.3544821 L8.36396355,29.3544821 L8.31596974,29.2047083 L8.15047385,28.7562145 L7.90636742,28.7562145 L8.26052862,29.6349976 L8.46988091,29.6349976 Z M9.27768548,29.6548571 C9.37422475,29.6548571 9.45462816,29.6326531 9.51889573,29.588245 C9.5831633,29.543837 9.63019172,29.4791557 9.65998098,29.3942011 L9.65998098,29.3942011 L9.42828674,29.3553096 C9.41559872,29.3994418 9.39684252,29.4314377 9.37201814,29.4512972 C9.34719375,29.4711567 9.31657701,29.4810865 9.28016792,29.4810865 C9.22665758,29.4810865 9.18197369,29.4619165 9.14611625,29.4235766 C9.11025881,29.3852368 9.09150261,29.3315885 9.08984765,29.2626319 L9.08984765,29.2626319 L9.67239317,29.2626319 C9.67570309,29.084448 9.63956982,28.9521892 9.56399336,28.8658555 C9.48841691,28.7795218 9.38525781,28.736355 9.25451606,28.736355 C9.13811728,28.736355 9.04185384,28.777591 8.96572574,28.8600631 C8.88959763,28.9425353 8.85153357,29.0565895 8.85153357,29.2022259 C8.85153357,29.3241412 8.88049535,29.4250937 8.93841891,29.5050834 C9.01178876,29.6049325 9.12487761,29.6548571 9.27768548,29.6548571 Z M9.44152641,29.1203054 L9.09398505,29.1203054 C9.09343339,29.0568653 9.10970716,29.0066649 9.14280633,28.9697042 C9.17590551,28.9327434 9.21783113,28.9142631 9.26858321,28.9142631 C9.31602536,28.9142631 9.35629603,28.931778 9.3893952,28.966808 C9.42249438,29.001838 9.43987145,29.0530038 9.44152641,29.1203054 L9.44152641,29.1203054 Z M10.0424611,29.6349976 L10.0424611,29.3635844 C10.0424611,29.2140864 10.048943,29.1158922 10.0619069,29.0690017 C10.0748707,29.0221112 10.0926615,28.9897016 10.1152793,28.9717729 C10.1378971,28.9538441 10.1654797,28.9448798 10.1980272,28.9448798 C10.2316781,28.9448798 10.2680872,28.9575678 10.3072545,28.9829438 L10.3072545,28.9829438 L10.3792452,28.7802114 C10.3301481,28.7509738 10.2791202,28.736355 10.2261616,28.736355 C10.1886491,28.736355 10.1551362,28.7457331 10.1256228,28.7644893 C10.0961094,28.7832455 10.0628723,28.822137 10.0259115,28.8811639 L10.0259115,28.8811639 L10.0259115,28.7562145 L9.8099394,28.7562145 L9.8099394,29.6349976 L10.0424611,29.6349976 Z M10.5358235,29.9916413 C10.5799557,29.9916413 10.6195368,29.9869522 10.6545668,29.9775741 C10.6895968,29.968196 10.7191102,29.9550943 10.7431071,29.9382688 C10.767104,29.9214434 10.7883426,29.8995152 10.806823,29.8724842 C10.8253034,29.8454532 10.8447492,29.8062859 10.8651603,29.7549822 L10.8651603,29.7549822 L10.9206014,29.6018985 L11.2309062,28.7562145 L10.9901097,28.7562145 L10.7848948,29.380134 L10.574715,28.7562145 L10.3272987,28.7562145 L10.6616004,29.6374801 C10.6478091,29.6865772 10.6279495,29.7269858 10.6020219,29.7587058 C10.5760942,29.7904259 10.5360993,29.8062859 10.4820373,29.8062859 C10.4527997,29.8062859 10.4199764,29.8027001 10.3835673,29.7955286 L10.3835673,29.7955286 L10.4042543,29.9775741 C10.4472832,29.9869522 10.4911396,29.9916413 10.5358235,29.9916413 Z M12.1059213,29.6548571 C12.2377663,29.6548571 12.3373397,29.6258954 12.4046413,29.5679718 C12.471943,29.5100482 12.5055938,29.4408158 12.5055938,29.3602745 C12.5055938,29.286353 12.4813211,29.2287052 12.4327756,29.1873313 C12.3836785,29.1465089 12.2972069,29.1120306 12.1733608,29.0838963 C12.0495148,29.055762 11.9771103,29.0339717 11.9561475,29.0185255 C11.9407012,29.0069407 11.9329781,28.9928736 11.9329781,28.976324 C11.9329781,28.9570162 11.9418045,28.941294 11.9594574,28.9291577 C11.9859367,28.9120564 12.0297932,28.9035058 12.0910266,28.9035058 C12.1395721,28.9035058 12.1769466,28.9126081 12.2031501,28.9308126 C12.2293536,28.9490172 12.2471444,28.9752207 12.2565225,29.0094232 L12.2565225,29.0094232 L12.4758046,28.9688767 C12.4537385,28.8921969 12.4134678,28.8342734 12.3549926,28.795106 C12.2965174,28.7559387 12.2071496,28.736355 12.0868892,28.736355 C11.9605607,28.736355 11.8673314,28.7622827 11.8072012,28.814138 C11.747071,28.8659934 11.7170059,28.9299852 11.7170059,29.0061133 C11.7170059,29.0905162 11.7517601,29.1564387 11.8212683,29.2038809 C11.8714688,29.2380833 11.99035,29.2758716 12.177912,29.3172455 C12.2181826,29.3266236 12.2441103,29.3368292 12.255695,29.3478623 C12.2667281,29.359447 12.2722446,29.3740658 12.2722446,29.3917187 C12.2722446,29.4176464 12.2620391,29.4383334 12.2416279,29.4537796 C12.211287,29.4758458 12.1660514,29.4868788 12.1059213,29.4868788 C12.0513076,29.4868788 12.0088303,29.4751562 11.9784894,29.4517109 C11.9481485,29.4282657 11.9280132,29.3939253 11.9180834,29.3486898 L11.9180834,29.3486898 L11.6847342,29.3842714 C11.7062487,29.467571 11.751898,29.5334935 11.8216821,29.5820389 C11.8914662,29.6305844 11.9862126,29.6548571 12.1059213,29.6548571 Z M13.067637,29.6548571 C13.1978271,29.6548571 13.3058132,29.6111386 13.3915952,29.5237017 C13.4773772,29.4362647 13.5202683,29.326072 13.5202683,29.1931236 C13.5202683,29.0612786 13.477791,28.9521892 13.3928364,28.8658555 C13.3078819,28.7795218 13.1989304,28.736355 13.065982,28.736355 C12.9799242,28.736355 12.9020032,28.755387 12.8322191,28.7934511 C12.762435,28.8315151 12.7085109,28.8866804 12.6704469,28.9589469 C12.6323828,29.0312135 12.6133508,29.1059625 12.6133508,29.1831939 C12.6133508,29.2841464 12.6323828,29.3697905 12.6704469,29.4401262 C12.7085109,29.510462 12.76409,29.5638344 12.837184,29.6002435 C12.910278,29.6366526 12.9870957,29.6548571 13.067637,29.6548571 Z M13.0668095,29.4653644 C13.0061277,29.4653644 12.9550998,29.4421949 12.9137258,29.3958561 C12.8723519,29.3495172 12.8516649,29.2827672 12.8516649,29.1956061 C12.8516649,29.1084449 12.8723519,29.0416949 12.9137258,28.995356 C12.9550998,28.9490172 13.0061277,28.9258478 13.0668095,28.9258478 C13.1274914,28.9258478 13.1783813,28.9490172 13.2194795,28.995356 C13.2605776,29.0416949 13.2811267,29.1078932 13.2811267,29.1939511 C13.2811267,29.2822156 13.2605776,29.3495172 13.2194795,29.3958561 C13.1783813,29.4421949 13.1274914,29.4653644 13.0668095,29.4653644 Z M13.8928186,29.6349976 L13.8928186,28.4219128 L13.6602969,28.4219128 L13.6602969,29.6349976 L13.8928186,29.6349976 Z M14.3762513,29.6548571 C14.4341748,29.6548571 14.4892022,29.6413416 14.5413334,29.6143106 C14.5934646,29.5872797 14.6355282,29.5503189 14.667524,29.5034284 L14.667524,29.5034284 L14.667524,29.6349976 L14.8834962,29.6349976 L14.8834962,28.7562145 L14.6509744,28.7562145 L14.6509672,29.1345675 C14.6507356,29.2559081 14.6449457,29.332385 14.6335974,29.3639981 C14.6220127,29.3962698 14.6004982,29.4233008 14.569054,29.4450911 C14.5376098,29.4668814 14.5020281,29.4777765 14.4623091,29.4777765 C14.427555,29.4777765 14.398869,29.4696397 14.3762513,29.4533659 C14.3536335,29.4370921 14.3380493,29.415026 14.3294987,29.3871675 C14.3209481,29.3593091 14.3166728,29.2835947 14.3166728,29.1600244 L14.3166728,28.7562145 L14.084151,28.7562145 L14.084151,29.3122807 C14.084151,29.3950286 14.0946324,29.4598478 14.1155953,29.5067383 C14.1365581,29.5536288 14.1704847,29.5900379 14.2173752,29.6159656 C14.2642657,29.6418933 14.3172244,29.6548571 14.3762513,29.6548571 Z M15.3205899,29.6548571 C15.3889949,29.6548571 15.4502284,29.6432724 15.5042904,29.620103 L15.5042904,29.620103 L15.4844309,29.4397125 C15.4436086,29.4546071 15.4124402,29.4620544 15.3909257,29.4620544 C15.3754794,29.4620544 15.3623777,29.4581929 15.3516204,29.4504697 C15.3408632,29.4427466 15.3339675,29.4329547 15.3309334,29.4210942 C15.3278993,29.4092337 15.3263823,29.367446 15.3263823,29.2957311 L15.3263823,28.9415699 L15.4852584,28.9415699 L15.4852584,28.7562145 L15.3263823,28.7562145 L15.3263823,28.4459097 L15.0930331,28.5816163 L15.0930331,28.7562145 L14.9862883,28.7562145 L14.9862883,28.9415699 L15.0930331,28.9415699 L15.0930331,29.3246928 C15.0930331,29.4068891 15.0955155,29.4615028 15.1004804,29.4885338 C15.1065486,29.5265978 15.1174437,29.5568008 15.1331659,29.5791428 C15.148888,29.6014847 15.1735744,29.6196893 15.2072253,29.6337564 C15.2408761,29.6478236 15.2786643,29.6548571 15.3205899,29.6548571 Z M15.8371218,28.6370574 L15.8371218,28.4219128 L15.6046,28.4219128 L15.6046,28.6370574 L15.8371218,28.6370574 Z M15.8371218,29.6349976 L15.8371218,28.7562145 L15.6046,28.7562145 L15.6046,29.6349976 L15.8371218,29.6349976 Z M16.4339191,29.6548571 C16.5641092,29.6548571 16.6720952,29.6111386 16.7578773,29.5237017 C16.8436593,29.4362647 16.8865503,29.326072 16.8865503,29.1931236 C16.8865503,29.0612786 16.844073,28.9521892 16.7591185,28.8658555 C16.6741639,28.7795218 16.5652125,28.736355 16.4322641,28.736355 C16.3462062,28.736355 16.2682853,28.755387 16.1985012,28.7934511 C16.1287171,28.8315151 16.074793,28.8866804 16.0367289,28.9589469 C15.9986649,29.0312135 15.9796329,29.1059625 15.9796329,29.1831939 C15.9796329,29.2841464 15.9986649,29.3697905 16.0367289,29.4401262 C16.074793,29.510462 16.130372,29.5638344 16.203466,29.6002435 C16.2765601,29.6366526 16.3533777,29.6548571 16.4339191,29.6548571 Z M16.4330916,29.4653644 C16.3724098,29.4653644 16.3213819,29.4421949 16.2800079,29.3958561 C16.2386339,29.3495172 16.2179469,29.2827672 16.2179469,29.1956061 C16.2179469,29.1084449 16.2386339,29.0416949 16.2800079,28.995356 C16.3213819,28.9490172 16.3724098,28.9258478 16.4330916,28.9258478 C16.4937734,28.9258478 16.5446634,28.9490172 16.5857615,28.995356 C16.6268597,29.0416949 16.6474088,29.1078932 16.6474088,29.1939511 C16.6474088,29.2822156 16.6268597,29.3495172 16.5857615,29.3958561 C16.5446634,29.4421949 16.4937734,29.4653644 16.4330916,29.4653644 Z M17.2574457,29.6349976 L17.2574457,29.23698 C17.2574457,29.1387858 17.263376,29.0714841 17.2752366,29.035075 C17.2870971,28.998666 17.3090253,28.9694283 17.3410212,28.9473622 C17.373017,28.9252961 17.4091503,28.9142631 17.449421,28.9142631 C17.4808652,28.9142631 17.5077583,28.9219862 17.5301002,28.9374325 C17.5524422,28.9528788 17.568578,28.9745311 17.5785078,29.0023896 C17.5884375,29.0302481 17.5934024,29.0916195 17.5934024,29.1865038 L17.5934024,29.6349976 L17.8259241,29.6349976 L17.8259241,29.0888612 C17.8259241,29.0210079 17.8216488,28.9688767 17.8130982,28.9324676 C17.8045476,28.8960585 17.7893771,28.863511 17.7675868,28.834825 C17.7457965,28.8061391 17.7136627,28.7825559 17.6711855,28.7640755 C17.6287082,28.7455952 17.5818177,28.736355 17.530514,28.736355 C17.4141152,28.736355 17.3175759,28.7860037 17.2408962,28.8853013 L17.2408962,28.8853013 L17.2408962,28.7562145 L17.024924,28.7562145 L17.024924,29.6349976 L17.2574457,29.6349976 Z M18.3590055,29.6548571 C18.4908506,29.6548571 18.5904239,29.6258954 18.6577256,29.5679718 C18.7250272,29.5100482 18.7586781,29.4408158 18.7586781,29.3602745 C18.7586781,29.286353 18.7344053,29.2287052 18.6858599,29.1873313 C18.6367628,29.1465089 18.5502912,29.1120306 18.4264451,29.0838963 C18.302599,29.055762 18.2301945,29.0339717 18.2092317,29.0185255 C18.1937854,29.0069407 18.1860623,28.9928736 18.1860623,28.976324 C18.1860623,28.9570162 18.1948888,28.941294 18.2125416,28.9291577 C18.239021,28.9120564 18.2828774,28.9035058 18.3441109,28.9035058 C18.3926563,28.9035058 18.4300308,28.9126081 18.4562343,28.9308126 C18.4824379,28.9490172 18.5002287,28.9752207 18.5096068,29.0094232 L18.5096068,29.0094232 L18.7288888,28.9688767 C18.7068227,28.8921969 18.666552,28.8342734 18.6080768,28.795106 C18.5496016,28.7559387 18.4602338,28.736355 18.3399735,28.736355 C18.213645,28.736355 18.1204156,28.7622827 18.0602854,28.814138 C18.0001553,28.8659934 17.9700902,28.9299852 17.9700902,29.0061133 C17.9700902,29.0905162 18.0048443,29.1564387 18.0743526,29.2038809 C18.124553,29.2380833 18.2434342,29.2758716 18.4309962,29.3172455 C18.4712669,29.3266236 18.4971946,29.3368292 18.5087793,29.3478623 C18.5198123,29.359447 18.5253289,29.3740658 18.5253289,29.3917187 C18.5253289,29.4176464 18.5151233,29.4383334 18.4947121,29.4537796 C18.4643712,29.4758458 18.4191357,29.4868788 18.3590055,29.4868788 C18.3043919,29.4868788 18.2619146,29.4751562 18.2315737,29.4517109 C18.2012328,29.4282657 18.1810974,29.3939253 18.1711677,29.3486898 L18.1711677,29.3486898 L17.9378185,29.3842714 C17.9593329,29.467571 18.0049822,29.5334935 18.0747663,29.5820389 C18.1445504,29.6305844 18.2392968,29.6548571 18.3590055,29.6548571 Z"/><ellipse id="椭圆形" cx="9.52162699" cy="1.30952381" fill="#FFBC00" rx="1" ry="1.09943978" transform="translate(9.521627, 1.309524) rotate(-61.000000) translate(-9.521627, -1.309524) "/><ellipse id="椭圆形备份-8" cx="9.52162699" cy="6.77170868" fill="#ED7400" rx="1" ry="1.09943978" transform="translate(9.521627, 6.771709) rotate(-61.000000) translate(-9.521627, -6.771709) "/><ellipse id="椭圆形备份-10" cx="9.52162699" cy="11.4355742" fill="#FF5119" rx="1" ry="1.09943978"/><ellipse id="椭圆形备份-9" cx="12.4067811" cy="12.3039216" fill="#FF4C39" rx="1" ry="1.09943978" transform="translate(12.406781, 12.303922) scale(-1, 1) rotate(-61.000000) translate(-12.406781, -12.303922) "/><ellipse id="椭圆形备份-11" cx="15.2359127" cy="8.64845938" fill="#FF4C39" rx="1" ry="1.09943978" transform="translate(15.235913, 8.648459) scale(-1, 1) rotate(-61.000000) translate(-15.235913, -8.648459) "/><ellipse id="椭圆形备份-12" cx="12.3927755" cy="4.79691877" fill="#ED7400" rx="1" ry="1.09943978" transform="translate(12.392775, 4.796919) scale(-1, 1) rotate(-61.000000) translate(-12.392775, -4.796919) "/><ellipse id="椭圆形备份-13" cx="6.67848974" cy="7.24789916" fill="#FF8D00" rx="1" ry="1.09943978" transform="translate(6.678490, 7.247899) scale(-1, 1) rotate(-61.000000) translate(-6.678490, -7.247899) "/><ellipse id="椭圆形备份-14" cx="3.84935809" cy="3.80252101" fill="#F9BC00" rx="1" ry="1.09943978" transform="translate(3.849358, 3.802521) scale(-1, 1) rotate(-61.000000) translate(-3.849358, -3.802521) "/><ellipse id="椭圆形备份-15" cx="6.67848974" cy="9.69887955" fill="#FF8D00" rx="1" ry="1.09943978" transform="translate(6.678490, 9.698880) scale(-1, 1) rotate(-61.000000) translate(-6.678490, -9.698880) "/><ellipse id="椭圆形备份-19" cx="3.84389856" cy="8.79354943" fill="#FFBC00" rx="1" ry="1" transform="translate(3.843899, 8.793549) scale(-1, 1) rotate(-61.000000) translate(-3.843899, -8.793549) "/><ellipse id="椭圆形备份-23" cx="15.2304532" cy="11.0764626" fill="#FF4C39" rx="1" ry="1" transform="translate(15.230453, 11.076463) scale(-1, 1) rotate(-61.000000) translate(-15.230453, -11.076463) "/><path id="形状结合" fill="#001376" d="M5.72882864,20.6015631 C6.80746213,20.8216707 7.34813345,21.446824 7.35084259,22.477023 C7.30714243,23.1551895 7.05733058,23.6423607 6.60140703,23.9385366 C6.19614165,24.201804 5.74338494,24.297766 5.2431369,24.2264225 L5.05331772,24.1918262 L5.05331772,25.7587846 C5.05331772,25.8716989 5.02553228,25.9381215 4.96996141,25.9580523 L4.92307348,25.9642832 L4.27397704,25.9642832 C4.1666294,25.9642832 4.11098381,25.9167141 4.10704028,25.8215759 L4.1108784,25.7587846 L4.1108784,20.8644617 C4.09124594,20.7978408 4.09124594,20.7537178 4.1108784,20.7320927 C4.13051086,20.7104676 4.18487707,20.6947064 4.27397704,20.684809 C4.43169509,20.626077 4.91664562,20.5983284 5.72882864,20.6015631 Z M16.9417092,20.5960307 C17.314061,20.6154118 17.5947513,20.7107582 17.7837802,20.8820699 L17.7837802,20.7775414 C17.782582,20.7025061 17.8303915,20.6649884 17.9272087,20.6649884 L18.6260671,20.6649884 C18.7053677,20.684981 18.745018,20.7324499 18.745018,20.8073952 L18.745018,24.3281934 C18.6925626,25.1300961 18.37215,25.6238817 17.7837802,25.80955 C17.1954104,25.9952183 16.6720446,25.9665259 16.2136827,25.7234726 C15.9310308,25.5632118 15.7555947,25.4175366 15.6873743,25.2864472 C15.6689069,25.2374934 15.6596732,25.1796114 15.6596732,25.1128014 L15.6596732,24.4747719 C15.7066918,24.3564302 15.7734783,24.3442192 15.8600329,24.4381388 C15.9898648,24.5790181 16.4583501,25.0590329 17.0357828,25.0083436 C17.4207379,24.9745507 17.6559169,24.8487186 17.7413197,24.6308475 C17.7696267,24.5451989 17.7837802,24.4580284 17.7837802,24.369336 L17.7837802,24.0668639 C17.5296412,24.2135303 17.2264283,24.2763131 16.8741416,24.2552124 C16.5218549,24.2341117 16.197885,24.1016359 15.902232,23.8577851 C15.570889,23.5145264 15.391759,23.0481549 15.364842,22.4586706 C15.337925,21.8691863 15.5358847,21.362351 15.9587211,20.9381647 C16.2243894,20.7100754 16.5520521,20.5960307 16.9417092,20.5960307 Z M3.47408595,19.2719933 C3.57840654,19.3330396 3.59976799,19.4019547 3.53817028,19.4787386 L3.11316934,20.1135099 C3.05769334,20.1797651 2.96893456,20.1797651 2.84689299,20.1135099 C2.66383064,20.0141272 2.01822371,19.5544185 1.28584734,19.8966287 C0.921218179,20.2260421 0.985215929,20.5221446 1.47784059,20.7849361 L2.60563163,21.1634624 C3.473975,21.4526092 3.87892726,21.9958847 3.8204884,22.7932888 C3.76204953,23.5906928 3.20871449,24.0786898 2.16048326,24.2572796 C1.361499,24.312417 0.67318457,24.1240779 0.0955399729,23.6922624 C0.010966428,23.6028793 0.00597270706,23.5175839 0.0805588101,23.4363762 C0.155144913,23.3551686 0.294056845,23.1821416 0.497294606,22.9172954 C0.579798455,22.8021835 0.664496472,22.7865745 0.751388657,22.8704682 C0.881726935,22.9963089 1.29144339,23.3503586 1.92707262,23.3136278 C2.35082545,23.2891405 2.61631453,23.1570297 2.72353986,22.9172954 C2.85200412,22.5320119 2.72001826,22.2797763 2.32758229,22.1605884 C1.93514632,22.0414006 1.55690608,21.9190582 1.19286155,21.7935611 C0.349691894,21.4558778 -0.0464843114,20.9209771 0.00433293721,20.1888589 C0.0551501858,19.4567407 0.546319403,19.013425 1.47784059,18.8589118 C2.12761975,18.7650858 2.79303487,18.9027796 3.47408595,19.2719933 Z M11.2156126,20.6634962 C11.2947938,20.6634962 11.338065,20.7098797 11.345426,20.8026466 L11.345426,20.8026466 L11.345426,24.0426259 C11.345426,24.1204294 11.3021549,24.1657518 11.2156126,24.1785931 L11.2156126,24.1785931 L10.5191366,24.1785931 C10.4399856,24.1785931 10.3961262,24.1332707 10.3875584,24.0426259 L10.3875584,24.0426259 L10.3875584,20.8026466 C10.3942924,20.7480932 10.4054094,20.7126205 10.4209093,20.6962286 C10.4364091,20.6798367 10.4691516,20.6689259 10.5191366,20.6634962 L10.5191366,20.6634962 Z M13.7849441,20.5960307 C14.5922987,20.6717843 15.01506,21.1567491 15.0532279,22.0509252 L15.0532279,22.0509252 L15.0532279,24.0369638 C15.0532279,24.120526 15.0108615,24.1677357 14.9261286,24.1785931 L14.9261286,24.1785931 L14.2409003,24.1785931 C14.1613319,24.1785931 14.1152581,24.1371089 14.1026789,24.0541403 L14.1026789,24.0541403 L14.1026789,22.2141679 C14.1064568,21.7091746 13.9076977,21.456678 13.5064016,21.456678 C13.1051054,21.456678 12.8970344,21.7369775 12.8821885,22.2975765 L12.8821885,22.2975765 L12.8821885,24.0369638 C12.8821885,24.1150874 12.8441729,24.1622972 12.7681416,24.1785931 L12.7681416,24.1785931 L12.0465209,24.1785931 C11.9769079,24.1785931 11.9384802,24.1371089 11.9312378,24.0541403 L11.9312378,24.0541403 L11.9312378,20.7863423 C11.9379964,20.7434779 11.9503887,20.7142009 11.9684147,20.6985113 C11.9864407,20.6828216 12.0210946,20.6711499 12.0723765,20.6634962 L12.0723765,20.6634962 L12.7681416,20.6634962 C12.8303237,20.6634962 12.8683393,20.7044449 12.8821885,20.7863423 L12.8821885,20.7863423 L12.8821885,20.8657206 C13.0446371,20.687509 13.3455557,20.5976124 13.7849441,20.5960307 Z M9.44076384,20.6013154 C9.74423962,20.6346276 10.007497,20.7702901 10.230536,21.0083032 C10.2625996,21.0545017 10.2625996,21.1015867 10.230536,21.149558 C10.1984724,21.1975294 10.0369546,21.363284 9.74598285,21.646822 C9.66920979,21.661016 9.61009358,21.6420414 9.56863424,21.5898981 C9.50644522,21.5116832 9.3744368,21.4544521 9.23193878,21.4703008 C9.08944076,21.4861495 8.64774751,21.5554338 8.64774751,22.5815837 L8.64774751,24.0238996 L8.64774751,24.0238996 C8.64971751,24.1268393 8.61313803,24.1783091 8.53800909,24.1783091 L7.84017668,24.1783091 L7.84017668,24.1783091 C7.74790955,24.1831216 7.70177598,24.1267764 7.70177598,24.0092738 L7.70177598,20.783586 L7.70177598,20.783586 C7.70969438,20.6953844 7.75582795,20.6512836 7.84017668,20.6512836 L8.50138704,20.6512836 L8.50138704,20.6512836 C8.59896069,20.659462 8.64774751,20.7035628 8.64774751,20.783586 L8.64774751,20.9738404 L8.64774751,20.9738404 C8.87294928,20.6921783 9.13728805,20.5680033 9.44076384,20.6013154 Z M5.04288423,21.4951331 L5.04288423,23.3305398 C5.5586603,23.4569891 5.92727866,23.391904 6.14873932,23.1352845 C6.37019998,22.8786649 6.43151129,22.5289051 6.33267324,22.0860049 C6.2215601,21.7985233 6.03815681,21.6116005 5.78246336,21.5252365 C5.5267699,21.4388726 5.28024353,21.4288381 5.04288423,21.4951331 Z M16.5109103,21.7328969 C16.3501562,21.9487467 16.3067239,22.3221686 16.3806134,22.8531626 C16.523314,23.2046086 16.7488205,23.3803316 17.0571329,23.3803316 C17.3140599,23.3803316 17.5250865,23.3196301 17.6902126,23.1982271 L17.7837802,23.1181011 L17.7837802,21.7678285 C17.6716661,21.6713892 17.584743,21.6073187 17.5230109,21.575617 C17.4612788,21.5439154 17.366368,21.5146077 17.2382785,21.4876939 C16.9141205,21.4353127 16.6716645,21.517047 16.5109103,21.7328969 Z M11.3356403,19.4506916 C11.4631417,19.6807102 11.3334183,19.9963776 11.045895,20.1557543 C10.7583717,20.3151311 10.4219277,20.2578646 10.2944263,20.0278459 C10.1669249,19.7978273 10.2966483,19.48216 10.5841716,19.3227832 C10.8716949,19.1634064 11.2081389,19.220673 11.3356403,19.4506916 Z"/><ellipse id="椭圆形备份-20" cx="6.67303021" cy="2.364978" fill="#F9BC00" rx="1" ry="1" transform="translate(6.673030, 2.364978) scale(-1, 1) rotate(-61.000000) translate(-6.673030, -2.364978) "/><ellipse id="椭圆形备份-21" cx="3.82989296" cy="11.0764626" fill="#FF8D00" rx="1" ry="1" transform="translate(3.829893, 11.076463) rotate(-61.000000) translate(-3.829893, -11.076463) "/><ellipse id="椭圆形备份-25" cx="9.53017307" cy="9.00363346" fill="#ED7400" rx="1" ry="1" transform="translate(9.530173, 9.003633) rotate(-90.000000) translate(-9.530173, -9.003633) "/><ellipse id="椭圆形备份-26" cx="6.67303021" cy="4.8439696" fill="#FFBC00" rx="1" ry="1"/><ellipse id="椭圆形备份-27" cx="15.2304532" cy="6.23052422" fill="#FF5119" rx="1" ry="1"/><ellipse id="椭圆形备份-22" cx="12.3873159" cy="9.99803122" fill="#FF5119" rx="1" ry="1" transform="translate(12.387316, 9.998031) rotate(-61.000000) translate(-12.387316, -9.998031) "/><ellipse id="椭圆形备份-24" cx="12.3733103" cy="2.364978" fill="#FF8D00" rx="1" ry="1" transform="translate(12.373310, 2.364978) rotate(-61.000000) translate(-12.373310, -2.364978) "/><ellipse id="椭圆形备份-5" cx="15.2359127" cy="3.80252101" fill="#ED7400" rx="1" ry="1.09943978" transform="translate(15.235913, 3.802521) rotate(-61.000000) translate(-15.235913, -3.802521) "/><ellipse id="椭圆形备份-6" cx="6.65047854" cy="12.3039216" fill="#ED7400" rx="1" ry="1.09943978" transform="translate(6.650479, 12.303922) rotate(-61.000000) translate(-6.650479, -12.303922) "/><ellipse id="椭圆形备份-7" cx="3.85098628" cy="6.39566696" fill="#FFBC00" rx="1.13182216" ry="1.42156863" transform="translate(3.850986, 6.395667) rotate(-61.000000) translate(-3.850986, -6.395667) "/><ellipse id="椭圆形备份-16" cx="12.3944037" cy="7.57213755" fill="#FF5119" rx="1.13182216" ry="1.42156863" transform="translate(12.394404, 7.572138) scale(-1, 1) rotate(-61.000000) translate(-12.394404, -7.572138) "/><ellipse id="椭圆形备份-17" cx="9.52325519" cy="3.98670338" fill="#FF8D00" rx="1.13182216" ry="1.42156863" transform="translate(9.523255, 3.986703) scale(-1, 1) rotate(-61.000000) translate(-9.523255, -3.986703) "/><ellipse id="椭圆形备份-18" cx="9.52325519" cy="14.1127538" fill="#FF5119" rx="1.13182216" ry="1.42156863" transform="translate(9.523255, 14.112754) scale(-1, 1) rotate(-90.000000) translate(-9.523255, -14.112754) "/></g></g></svg>