<svg xmlns="http://www.w3.org/2000/svg" width="512" height="512" viewBox="0 0 512 512"><path fill="#F48120" d="M512 472c0 22.1-17.9 40-40 40H40c-22.1 0-40-17.9-40-40V40C0 17.9 17.9 0 40 0h432c22.1 0 40 17.9 40 40v432z"/><path fill-rule="evenodd" clip-rule="evenodd" fill="#FFF" d="M385.3 181.6h-.2c-27.9 0-52.3 15.9-65 38.8-12.5-22.9-36.9-38.8-65-38.8h-1.8c-27.4.7-51.2 16.3-63.4 38.8-12.5-22.9-37.2-38.8-65.3-38.8-40.8.2-74.1 33.3-74.1 74.1 0 41 33.3 74.1 74.1 74.3 28.1 0 52.8-15.9 65.3-39 12.2 22.7 36 38.3 63.4 39h1.8c28.1 0 52.6-15.9 65-39 12.7 23.1 37.2 39 65 39h.2c40.8 0 74.1-33.3 74.1-74.3 0-40.7-33.3-74.1-74.1-74.1zM180.9 258c-1.4 29.9-26.1 54.2-56.4 54.2-31-.2-56.2-25.4-56.2-56.4 0-30.8 25.2-56 56.2-56.2 30.4 0 55.1 24.3 56.4 54.2-.2.7-.2 1.4-.2 2 0 .9 0 1.5.2 2.2zm130.3 0c-1.1 29.9-26.1 54.2-56.2 54.2h-1.8c-29.5-1.1-53.3-24.7-54.4-54.2v-4.3c1.1-29.5 24.9-53 54.4-54.2h1.8c30.1 0 55.1 24.3 56.2 54.2v4.3zm74.1 54.2h-.2c-30.1-.2-54.8-24.2-56-54.2v-4.3c1.1-29.9 25.8-53.9 56-54.2h.2c31.1 0 56.2 25.4 56.2 56.2 0 31.1-25.1 56.5-56.2 56.5z"/><path fill-rule="evenodd" clip-rule="evenodd" fill="#FFF" d="M351.3 240.1h21.6V290h23.5v-49.9h22.5v-18.3h-67.6v18.3zM264.3 253.7l-11.1-15.2-12.5-16.7h-19.9V290h19.9v-31.5l12.5 16.5 11.1 15h21.1v-68.2h-21.1v31.9zM90.7 240.1H112V290h23.6v-49.9h22.7v-18.3H90.7v18.3z"/></svg>