<svg version="1.1" xmlns="http://www.w3.org/2000/svg" xmlns:xlink="http://www.w3.org/1999/xlink" x="0px" y="0px" viewBox="0 0 76.1 56.67" style="enable-background:new 0 0 76.1 56.67;" xml:space="preserve">
	<path class="logo" fill="#212d36" d="M68.32,0H7.78C3.48,0,0,3.48,0,7.78V48.9c0,4.3,3.48,7.78,7.78,7.78h60.55c4.3,0,7.78-3.48,7.78-7.78V7.78C76.1,3.48,72.62,0,68.32,0z M29.49,41.11c0,3.81-0.8,6.21-2.38,7.16c-1.08,0.65-3.69,0.97-7.77,0.97c-3.34,0-5.53-0.52-6.5-1.54c-0.97-1.03-1.47-3.24-1.47-6.59v-8.81h7.8v8.25c0,1.77,0.7,2.14,1.29,2.14c0.48,0,1.07-0.25,1.19-1.47V9.29h7.84V41.11z M47.29,15.61h-3.92v33.47h-7.85V15.61H31.6V9.29h15.7V15.61z M62.5,49.08H49.95V9.29h7.79v33.24h4.77V49.08z"/>
	<path fill="#ffffff" d="M29.49,41.11c0,3.81-0.8,6.21-2.38,7.16c-1.08,0.65-3.69,0.97-7.77,0.97c-3.34,0-5.53-0.52-6.5-1.54c-0.97-1.03-1.47-3.24-1.47-6.59v-8.81h7.8v8.25c0,1.77,0.7,2.14,1.29,2.14c0.48,0,1.07-0.25,1.19-1.47V9.29h7.84V41.11z M47.29,15.61h-3.92v33.47h-7.85V15.61H31.6V9.29h15.7V15.61z M62.5,49.08H49.95V9.29h7.79v33.24h4.77V49.08z"/>
</svg>
