<svg version="1.1" xmlns="http://www.w3.org/2000/svg" xmlns:xlink="http://www.w3.org/1999/xlink" x="0px" y="0px" viewBox="0 0 252.73 56.67" style="enable-background:new 0 0 252.73 56.67;" xml:space="preserve">
	<style type="text/css">
		.logo-box { fill: #212d36; }
		.logo-text { fill: #ffffff; }
		.product { fill: #fdc41f; }

		@media (prefers-color-scheme: dark) {
			.logo-box { fill: #ffffff; }
			.logo-text { fill: #212d36; }
		}
	</style>
	<path class="logo-box" d="M68.32,0H7.78C3.48,0,0,3.48,0,7.78V48.9c0,4.3,3.48,7.78,7.78,7.78h60.55c4.3,0,7.78-3.48,7.78-7.78V7.78C76.1,3.48,72.62,0,68.32,0z M29.49,41.11c0,3.81-0.8,6.21-2.38,7.16c-1.08,0.65-3.69,0.97-7.77,0.97c-3.34,0-5.53-0.52-6.5-1.54c-0.97-1.03-1.47-3.24-1.47-6.59v-8.81h7.8v8.25c0,1.77,0.7,2.14,1.29,2.14c0.48,0,1.07-0.25,1.19-1.47V9.29h7.84V41.11z M47.29,15.61h-3.92v33.47h-7.85V15.61H31.6V9.29h15.7V15.61z M62.5,49.08H49.95V9.29h7.79v33.24h4.77V49.08z"/>
	<path class="logo-text" d="M29.49,41.11c0,3.81-0.8,6.21-2.38,7.16c-1.08,0.65-3.69,0.97-7.77,0.97c-3.34,0-5.53-0.52-6.5-1.54c-0.97-1.03-1.47-3.24-1.47-6.59v-8.81h7.8v8.25c0,1.77,0.7,2.14,1.29,2.14c0.48,0,1.07-0.25,1.19-1.47V9.29h7.84V41.11z M47.29,15.61h-3.92v33.47h-7.85V15.61H31.6V9.29h15.7V15.61z M62.5,49.08H49.95V9.29h7.79v33.24h4.77V49.08z"/>

	<path class="product" d="M95.36,34.51c0,0,2.66,3.02,5.9,3.02c1.3,0,2.59-0.47,2.59-1.91c0-2.84-11.66-3.17-11.66-11.23c0-4.64,4.07-7.74,9.18-7.74c3.42,0,8.21,1.66,8.21,5.58v2.81h-5.76v-1.12c0-0.94-1.33-1.51-2.52-1.51c-1.3,0-2.63,0.54-2.63,1.73c0,3.13,11.66,2.7,11.66,11.16c0,4.28-3.35,7.96-9.14,7.96c-6.05,0-9.4-4.25-9.4-4.25L95.36,34.51z"/>
	<path class="product" d="M114.11,23.1c0-0.5-0.29-0.79-0.79-0.79h-1.37v-5.22h5.76c1.84,0,2.63,0.79,2.63,2.63v5.51c0,0.94-0.07,1.58-0.07,1.58h0.07c1.04-1.84,3.2-2.95,5.65-2.95c3.74,0,6.66,1.73,6.66,6.95v6.01c0,0.5,0.29,0.79,0.79,0.79h1.37v5.22h-5.76c-1.84,0-2.63-0.79-2.63-2.63v-8.24c0-1.73-0.68-2.45-2.05-2.45c-1.91,0-3.17,1.12-3.71,2.74c-0.25,0.72-0.32,1.51-0.32,2.38v8.21h-6.23V23.1z"/>
	<path class="product" d="M138.37,30.29c0-0.5-0.29-0.79-0.79-0.79h-1.37v-5.22h5.76c1.84,0,2.63,0.79,2.63,2.63v9.9c0,0.5,0.29,0.79,0.79,0.79h1.37v5.22H141c-1.84,0-2.63-0.79-2.63-2.63V30.29z M138.84,17.08h5.22v5.04h-5.22V17.08z"/>
	<path class="product" d="M150.39,30.29c0-0.5-0.29-0.79-0.79-0.79h-1.37v-5.22h5.36c1.8,0,2.41,0.83,2.41,1.62c0,0.22,0,0.32,0,0.32h0.07c0,0,1.62-2.38,5.54-2.38c5.04,0,8.35,3.96,8.35,9.72c0,5.87-3.71,9.68-8.64,9.68c-3.02,0-4.71-1.58-4.71-1.58h-0.07c0,0,0.07,0.65,0.07,1.58v6.77h-6.23V30.29z M160.08,38.11c1.94,0,3.64-1.58,3.64-4.43c0-2.77-1.48-4.57-3.64-4.57c-1.87,0-3.64,1.37-3.64,4.57C156.44,35.91,157.63,38.11,160.08,38.11z"/>
	<path class="product" d="M173.72,30.29c0-0.5-0.29-0.79-0.79-0.79h-1.37v-5.22h5.36c1.8,0,2.41,0.83,2.41,1.62c0,0.22,0,0.32,0,0.32h0.07c0,0,1.62-2.38,5.54-2.38c5.04,0,8.35,3.96,8.35,9.72c0,5.87-3.71,9.68-8.64,9.68c-3.02,0-4.71-1.58-4.71-1.58h-0.07c0,0,0.07,0.65,0.07,1.58v6.77h-6.23V30.29z M183.4,38.11c1.94,0,3.64-1.58,3.64-4.43c0-2.77-1.48-4.57-3.64-4.57c-1.87,0-3.64,1.37-3.64,4.57C179.77,35.91,180.96,38.11,183.4,38.11z"/>
	<path class="product" d="M197.15,30.29c0-0.5-0.29-0.79-0.79-0.79H195v-5.22h5.76c1.84,0,2.63,0.79,2.63,2.63v9.9c0,0.5,0.29,0.79,0.79,0.79h1.37v5.22h-5.76c-1.84,0-2.63-0.79-2.63-2.63V30.29z M197.62,17.08h5.22v5.04h-5.22V17.08z"/>
	<path class="product" d="M209.18,30.29c0-0.5-0.29-0.79-0.79-0.79h-1.37v-5.22h5.54c1.69,0,2.59,0.83,2.59,2.09v0.25c0,0.18-0.04,0.43-0.04,0.43h0.07c0.86-1.44,2.59-3.2,5.87-3.2c3.74,0,6.66,1.73,6.66,6.95v6.01c0,0.5,0.29,0.79,0.79,0.79h1.37v5.22h-5.76c-1.84,0-2.63-0.79-2.63-2.63v-8.24c0-1.73-0.68-2.45-2.05-2.45c-1.94,0-3.13,1.08-3.67,2.66c-0.25,0.72-0.36,1.55-0.36,2.45v8.21h-6.23V30.29z"/>
	<path class="product" d="M239.7,23.85c3.78,0,5.36,2.16,5.36,2.16h0.07c0,0,0-0.11,0-0.25c0-0.5,0.58-1.48,1.98-1.48h5.62v5.22h-1.3c-0.47,0-0.79,0.25-0.79,0.68v10.94c0,6.77-5.4,9.25-10.47,9.25c-2.48,0-5.22-0.72-7.02-1.66l1.8-4.86c0,0,2.27,1.19,5.18,1.19c2.23,0,4.28-0.83,4.28-3.56V41.2c0-0.22,0.04-0.68,0.04-0.68h-0.07c-1.08,1.19-2.48,1.76-4.64,1.76c-5.58,0-8.35-4.57-8.35-9.32C231.39,28.24,234.09,23.85,239.7,23.85z M244.56,33.03c0-3.28-1.73-4-3.6-4c-2.2,0-3.31,1.58-3.31,3.71c0,2.3,1.08,4.36,3.56,4.36C242.83,37.1,244.56,36.27,244.56,33.03z"/>
</svg>
