<?xml version="1.0" encoding="utf-8"?>
<!-- Generator: Adobe Illustrator 25.2.3, SVG Export Plug-In . SVG Version: 6.00 Build 0)  -->
<svg version="1.1" id="Layer_1" xmlns="http://www.w3.org/2000/svg" xmlns:xlink="http://www.w3.org/1999/xlink" x="0px" y="0px"
	 viewBox="0 0 125 25" style="enable-background:new 0 0 125 25;" xml:space="preserve">
<style type="text/css">
	.st0{fill:#EE2722;stroke:#EE2722;stroke-width:1.625000e-02;}
	.st1{fill:#FDDD1C;}
</style>
<path class="st0" d="M0,0h125v25H0V0z"/>
<g>
	<path class="st1" d="M99.1,4.7c-0.2,0-0.4-0.2-0.3-0.4c0-0.2,0.1-0.4,0.3-0.4c0.2,0,0.3,0.2,0.3,0.4C99.5,4.5,99.3,4.7,99.1,4.7z
		 M99.1,3C98.5,3,98,3.6,98,4.3c0,0.7,0.4,1.3,1,1.3h0.1c0.6,0,1.1-0.5,1.1-1.3c0,0,0,0,0,0C100.2,3.5,99.8,3,99.1,3 M38.1,15.9
		c-0.8,0.9-1.8,1.4-3,1.4c-1.1,0-2.2-0.5-3-1.4c-0.8-0.9-1.3-2.2-1.2-3.5c0-2.7,1.9-4.9,4.2-4.9c1.1,0,2.2,0.5,3,1.4
		c0.8,0.9,1.2,2.2,1.2,3.5C39.3,13.7,38.8,15,38.1,15.9z M38.7,8.3c-0.9-1.1-2.2-1.7-3.6-1.8c-2.8,0-5.1,2.7-5.1,6
		c0,1.6,0.5,3.1,1.4,4.2c1,1.1,2.3,1.8,3.6,1.8c1.3,0,2.6-0.7,3.6-1.8c0.9-1.1,1.5-2.6,1.4-4.2C40.1,10.9,39.6,9.4,38.7,8.3"/>
	<path class="st1" d="M35.1,15.9c-0.8,0-1.6-0.3-2.1-1c-0.6-0.7-0.9-1.5-0.9-2.5c0-0.9,0.3-1.8,0.9-2.5c0.6-0.7,1.3-1,2.1-1
		c0.8,0,1.5,0.3,2.1,1c0.6,0.7,0.9,1.5,0.9,2.5C38.1,14.4,36.7,15.9,35.1,15.9z M37.8,9.2c-0.7-0.8-1.7-1.3-2.7-1.3
		c-1,0-2,0.5-2.7,1.3c-0.7,0.8-1.1,2-1.1,3.2c0,1.2,0.4,2.4,1.1,3.2c0.7,0.8,1.7,1.3,2.7,1.3c2.1,0,3.8-2,3.8-4.5
		C38.9,11.2,38.5,10.1,37.8,9.2 M48.7,6.9v10.3c0,1-0.3,2-1,2.7c-0.6,0.7-1.5,1.1-2.3,1.1c-0.9,0-1.7-0.4-2.3-1.1
		c-0.4-0.5-0.7-1.2-0.8-1.9h-0.9c0.1,1,0.5,1.9,1.1,2.6c0.8,0.9,1.8,1.4,3,1.4c1.1,0,2.2-0.5,3-1.4c0.8-0.9,1.2-2.2,1.2-3.5V6.9
		H48.7z"/>
	<path class="st1" d="M45.4,17.4c0.7,0,1.4-0.2,2.1-0.6v0.5c0,1.3-0.9,2.4-2,2.4c0,0,0,0-0.1,0c-0.5,0-1.1-0.2-1.4-0.7
		c-0.2-0.2-0.4-0.5-0.5-0.9h-0.9c0.1,0.6,0.4,1.1,0.8,1.6c0.5,0.7,1.3,1,2.1,1c1.6,0,3-1.6,3-3.5v-3.1c-0.2,0.4-0.4,0.8-0.7,1.1
		c-0.6,0.7-1.4,1.1-2.3,1.2c-0.9,0-1.7-0.4-2.3-1.2c-0.6-0.7-0.9-1.7-1-2.7V6.9h-0.8v5.7c0,1.3,0.4,2.5,1.2,3.4
		C43.2,16.9,44.3,17.4,45.4,17.4"/>
	<path class="st1" d="M43.3,15c0.5,0.6,1.3,1,2.1,1c1.6,0,3-1.7,3-3.7V6.9h-0.9v5.5c0,1.4-0.9,2.6-2.1,2.6c-0.5,0-1.1-0.3-1.4-0.7
		c-0.4-0.4-0.6-1.1-0.6-1.7V6.9h-0.9v5.7C42.4,13.5,42.7,14.3,43.3,15 M63.6,18.1h0.9V3.2h-0.9V18.1z M62.4,18.1h0.8V3.2h-0.8V18.1z
		 M99.3,18.1h0.8V6.8h-0.8V18.1z M98.1,18.1H99V6.8h-0.9V18.1z M103.3,18.1h0.8V3.2h-0.8V18.1z M102,18.1h0.9V3.2H102V18.1z
		 M58.6,12.6c0,1.8-1.2,3.3-2.8,3.3c0,0-0.1,0-0.1,0c-0.8,0-1.5-0.3-2-1c-1.1-1.3-1.1-3.4,0-4.7c0,0,0,0,0,0c0.5-0.6,1.3-1,2-1h2.8
		V12.6z M53.2,9.5c-0.7,0.8-1.1,1.9-1.1,3.1c0,1.2,0.4,2.3,1.1,3.1c0.7,0.9,1.6,1.3,2.6,1.3c2.1,0,3.7-1.9,3.7-4.4c0,0,0,0,0,0V8.2
		h-3.7C54.8,8.2,53.9,8.7,53.2,9.5"/>
	<path class="st1" d="M55.8,6.8c-2.7,0-4.9,2.5-4.9,5.7v0.1c0,1.5,0.5,3,1.4,4.1c0.9,1.1,2.2,1.7,3.5,1.7c1.1,0,2-0.4,2.8-1.1v0.8
		h0.9v-3.6C59.3,15,59,15.5,58.7,16c-0.8,0.9-1.8,1.4-2.9,1.4c-1.1,0-2.1-0.5-2.8-1.4c-0.8-0.9-1.2-2.1-1.2-3.4
		c0-2.6,1.8-4.7,4.1-4.8h4.1v10.3h0.9V6.8L55.8,6.8z M94.3,12.6c0,1.9-1.3,3.3-2.9,3.3c-0.8,0-1.5-0.3-2-1c-0.5-0.6-0.8-1.5-0.8-2.4
		c0-0.9,0.3-1.7,0.8-2.3c0.5-0.6,1.2-1,2-1h2.9V12.6z M88.8,9.5c-0.7,0.8-1.1,1.9-1.1,3.1c0,1.2,0.4,2.3,1.1,3.1
		c0.7,0.8,1.6,1.3,2.6,1.3c2.1,0,3.7-1.9,3.7-4.3c0,0,0,0,0,0V8.2h-3.7C90.4,8.2,89.5,8.7,88.8,9.5"/>
	<path class="st1" d="M91.4,6.8c-2.7,0-4.9,2.6-4.9,5.8c0,1.5,0.5,3,1.4,4.1c0.9,1.1,2.2,1.7,3.5,1.7c1,0,2.1-0.4,2.9-1.1v0.8h0.8
		v-3.6c-0.2,0.6-0.5,1.1-0.8,1.5c-0.8,0.9-1.8,1.4-2.9,1.4c-1.1,0-2.1-0.5-2.8-1.4c-0.8-0.9-1.2-2.1-1.2-3.4c0-2.6,1.8-4.8,4-4.8
		h4.1v10.3h0.9V6.8L91.4,6.8z M26.9,12.8c0.5-0.2,0.9-0.6,1.3-1c0.8-0.9,1.3-2.3,1.3-3.7c0-1.3-0.4-2.6-1.2-3.5
		c-0.7-0.9-1.8-1.4-2.8-1.4h-4.5v14.8h0.9V4.2h3.6c0.9,0,1.6,0.4,2.2,1.1c0.6,0.7,1,1.7,1,2.7c0,1.1-0.4,2.1-1.1,2.9
		c-0.6,0.7-1.4,1.1-2.2,1.1l3.6,5.9H30L26.9,12.8z"/>
	<path class="st1" d="M24.7,11.7h0.7c1.9,0,2.9-2.1,2.9-3.7c0-0.9-0.3-1.8-0.9-2.5c-0.5-0.6-1.3-1-2-1h-3.2V18H23V5.6h2.4
		c0.5,0,1,0.2,1.4,0.7c0.4,0.5,0.6,1.1,0.6,1.8c0,1.1-0.7,2.6-2,2.6H23l4.5,7.4h1.1L24.7,11.7z M83.7,3.2h-0.9L85,18.1h0.9L83.7,3.2
		z M77.9,12.1l-3.5-8.9h-1l4.5,11.3l4.5-11.3h-0.9L77.9,12.1z M69.9,18.1h0.9l2.3-14.8h-0.9L69.9,18.1z"/>
	<path class="st1" d="M77.9,15.4L73.3,3.7l-2.2,14.3H72l1.7-10.9l4.2,10.7l4.2-10.7l1.7,10.9h0.9L82.5,3.7L77.9,15.4z"/>
</g>
</svg>
