<svg version="1.1" viewBox="0.0 0.0 76.8005249343832 76.8005249343832" fill="none" stroke="none" stroke-linecap="square" stroke-miterlimit="10"
    xmlns:xlink="http://www.w3.org/1999/xlink"
    xmlns="http://www.w3.org/2000/svg">
    <g xmlns="http://www.w3.org/2000/svg">
        <path fill="#ffffff" d="m0.51968503 38.362206l0 0c0 -20.899847 16.942673 -37.84252 37.84252 -37.84252l0 0c10.036461 0 19.661854 3.9869683 26.758705 11.0838175c7.0968475 7.0968494 11.083817 16.722242 11.083817 26.758703l0 0c0 20.899845 -16.942677 37.84252 -37.84252 37.84252l0 0c-20.899847 0 -37.84252 -16.942677 -37.84252 -37.84252z" fill-rule="evenodd"/>
        <path stroke="#9504af" stroke-width="1.0" stroke-linejoin="round" stroke-linecap="butt" d="m0.51968503 38.362206l0 0c0 -20.899847 16.942673 -37.84252 37.84252 -37.84252l0 0c10.036461 0 19.661854 3.9869683 26.758705 11.0838175c7.0968475 7.0968494 11.083817 16.722242 11.083817 26.758703l0 0c0 20.899845 -16.942677 37.84252 -37.84252 37.84252l0 0c-20.899847 0 -37.84252 -16.942677 -37.84252 -37.84252z" fill-rule="evenodd"/>
        <path fill="#9504af" d="m31.607224 61.35121q-1.34375 0 -1.921875 -0.484375q-0.578125 -0.484375 -0.578125 -1.75l0 -40.453125q1.921875 -1.21875 4.359375 -1.890625q2.4375 -0.671875 4.984375 -0.671875q3.203125 0 5.53125 1.125q2.34375 1.109375 3.625 4.03125q1.28125 2.90625 1.28125 8.15625q0 5.125002 -0.578125 8.671877q-0.578125 3.546875 -1.546875 5.796875q-0.953125 2.234375 -2.203125 3.421875q-1.234375 1.1875 -2.546875 1.625q-1.3125 0.453125 -2.65625 0.453125q-1.734375 0 -3.046875 -0.515625q-1.3125 -0.515625 -2.015625 -1.28125l0 13.3125q-0.640625 0.203125 -1.34375 0.328125q-0.703125 0.125 -1.34375 0.125zm6.140625 -16.640625q0.78125 0 1.671875 -0.4375q0.890625 -0.453125 1.75 -1.921875q0.875 -1.484375 1.40625 -4.421875q0.546875 -2.953125 0.546875 -7.937502q0 -3.84375 -0.546875 -5.859375q-0.53125 -2.015625 -1.625 -2.75q-1.078125 -0.734375 -2.75 -0.734375q-2.171875 0 -3.90625 1.21875l0 20.734377q0.703125 1.15625 1.59375 1.640625q0.90625 0.46875 1.859375 0.46875z" fill-rule="nonzero"/>
    </g>
</svg>