<svg data-v-423bf9ae="" xmlns="http://www.w3.org/2000/svg" viewBox="0 0 270.9775561975535 60" class="font"><!----><!----><!----><g data-v-423bf9ae="" id="ba5ffdba-b428-4d20-9b5d-9e8cafa4b363" fill="black" transform="matrix(4.344677637719095,0,0,4.344677637719095,-0.130343865245095,-0.1737865999941519)"><path d="M3.30 10.50L3.60 10.50C5.77 10.50 7.48 9.11 7.48 7.04C7.48 4.89 6.27 3.81 4.28 3.81C3.67 3.81 2.94 4.05 2.51 4.24L1.90 3.81L0.03 3.96L0.20 4.82L0.97 4.82L0.97 12.68L0.08 12.99L0.25 13.85L3.44 13.85L3.61 12.99L2.72 12.68L2.72 5.10C3.19 4.91 3.71 4.82 4.17 4.82C4.96 4.82 5.56 5.32 5.56 6.94C5.56 8.62 4.48 9.65 3.57 9.65L3.30 9.65ZM13.41 9.10C13.13 9.44 12.60 9.63 12.22 9.63C11.65 9.63 10.95 9.27 10.95 8.22L10.95 4.00L10.14 3.81L8.46 3.99L8.61 4.82L9.18 4.82L9.18 8.09C9.18 9.62 10.12 10.65 11.73 10.65C12.42 10.65 13.05 10.56 13.58 10.18L14 10.50L15.90 10.50L16.07 9.65L15.18 9.34L15.18 4.02L14.48 3.81L12.67 3.99L12.82 4.82L13.41 4.82ZM22.50 5.74L22.50 4.12C21.97 3.91 21.49 3.81 21.06 3.81C20.41 3.81 19.68 4.02 19.25 4.17L18.68 3.81L16.86 3.96L17.02 4.82L17.65 4.82L17.65 9.34L16.77 9.65L16.94 10.50L20.41 10.50L20.58 9.65L19.42 9.34L19.42 5.10C19.82 4.94 20.40 4.82 20.68 4.82C20.87 4.82 21.14 4.84 21.24 4.87L21.56 5.91ZM25.94 10.50L26.24 10.50C28.41 10.50 30.11 9.11 30.11 7.04C30.11 4.89 28.91 3.81 26.92 3.81C26.31 3.81 25.58 4.05 25.14 4.24L24.54 3.81L22.67 3.96L22.83 4.82L23.60 4.82L23.60 12.68L22.72 12.99L22.89 13.85L26.08 13.85L26.25 12.99L25.35 12.68L25.35 5.10C25.83 4.91 26.35 4.82 26.81 4.82C27.59 4.82 28.20 5.32 28.20 6.94C28.20 8.62 27.12 9.65 26.21 9.65L25.94 9.65ZM33.96 9.34L33.96 0.25L33.14 0.04L31.32 0.25L31.47 1.05L32.20 1.05L32.20 9.34L31.23 9.65L31.40 10.50L34.76 10.50L34.93 9.65ZM38.47 10.64C40.17 10.64 41.26 9.84 41.26 8.61C41.26 7.53 40.47 7.08 39.51 6.62C38.81 6.29 37.69 5.96 37.69 5.42C37.69 5.00 38.15 4.69 38.71 4.69C39.05 4.69 39.42 4.75 39.76 4.83L40.05 5.91L41.01 5.74L41.01 4.40C40.40 4.03 39.62 3.81 38.85 3.81C37.17 3.81 36.08 4.44 36.08 5.63C36.08 6.85 37.34 7.43 38.26 7.87C38.89 8.16 39.65 8.55 39.65 9.00C39.65 9.52 39.05 9.76 38.36 9.76C38.18 9.76 37.69 9.70 37.46 9.62L36.99 8.23L36.05 8.41L36.05 10.07C36.85 10.46 37.86 10.64 38.47 10.64ZM44.73 9.34L44.73 5.11C45.11 4.96 45.74 4.83 46.21 4.83C46.73 4.83 47.18 5.11 47.18 5.84L47.18 9.34L46.28 9.65L46.45 10.50L49.66 10.50L49.83 9.65L48.94 9.34L48.94 6.03C48.94 4.51 47.89 3.81 46.31 3.81C45.86 3.81 45.12 3.99 44.73 4.17L44.73 0.25L43.90 0.04L42.03 0.25L42.20 1.05L42.97 1.05L42.97 9.34L42.10 9.65L42.27 10.50L45.44 10.50L45.61 9.65ZM53.47 9.34L53.47 3.96L52.61 3.81L50.90 3.96L51.06 4.82L51.70 4.82L51.70 9.34L50.81 9.65L50.97 10.50L54.19 10.50L54.36 9.65ZM52.47 0.74C51.98 0.74 51.56 1.15 51.56 1.65C51.56 2.14 51.98 2.56 52.47 2.56C52.98 2.56 53.38 2.14 53.38 1.65C53.38 1.15 52.98 0.74 52.47 0.74ZM58.23 10.50L58.52 10.50C60.69 10.50 62.40 9.11 62.40 7.04C62.40 4.89 61.19 3.81 59.21 3.81C58.59 3.81 57.86 4.05 57.43 4.24L56.83 3.81L54.95 3.96L55.12 4.82L55.89 4.82L55.89 12.68L55.01 12.99L55.17 13.85L58.37 13.85L58.53 12.99L57.64 12.68L57.64 5.10C58.11 4.91 58.63 4.82 59.09 4.82C59.88 4.82 60.48 5.32 60.48 6.94C60.48 8.62 59.40 9.65 58.49 9.65L58.23 9.65Z"></path></g><!----><!----></svg>