<svg data-v-423bf9ae="" xmlns="http://www.w3.org/2000/svg" viewBox="0 0 249.42857469831193 60" class="font"><!----><!----><!----><g data-v-423bf9ae="" id="7f41e21d-c12f-44af-9741-7b8ac7a3cba6" fill="black" transform="matrix(4.285714285714286,0,0,4.285714285714286,-2.8285738144601993,0)"><path d="M7.38 7C7.38 4.96 6.13 3.54 4.02 3.54C3.00 3.54 1.90 3.71 0.90 3.99L0.66 4.06L1.02 5.36L1.02 14L2.90 14L2.90 10.26C3.23 10.36 3.65 10.44 4.02 10.44C6.13 10.44 7.38 9.03 7.38 7ZM5.42 7C5.42 8.22 4.90 8.86 4.02 8.86C3.61 8.86 3.21 8.81 2.90 8.74L2.90 5.26C3.21 5.18 3.61 5.12 4.02 5.12C4.90 5.12 5.42 5.77 5.42 7ZM15.78 10.26L15.78 8.72C15.58 8.79 15.36 8.86 15.12 8.86C14.80 8.86 14.66 8.74 14.66 8.39L14.66 3.72L12.78 3.72L12.78 8.64C12.42 8.79 12.11 8.86 11.66 8.86C10.98 8.86 10.54 8.50 10.54 7.92L10.54 3.72L8.68 3.72L8.68 7.92C8.68 9.46 9.88 10.44 11.66 10.44C12.28 10.44 12.81 10.29 13.31 10.04C13.64 10.32 14.08 10.44 14.66 10.44C15.04 10.44 15.48 10.36 15.78 10.26ZM21.56 6.13L21.56 3.84C21.08 3.68 20.36 3.54 19.80 3.54C18.77 3.54 17.68 3.71 16.67 3.99L16.44 4.06L16.80 5.36L16.80 10.26L18.68 10.26L18.68 5.26C18.98 5.18 19.39 5.12 19.80 5.12C19.94 5.12 20.09 5.14 20.26 5.15L20.96 6.13ZM29.18 7C29.18 4.96 27.93 3.54 25.82 3.54C24.79 3.54 23.70 3.71 22.69 3.99L22.46 4.06L22.82 5.36L22.82 14L24.70 14L24.70 10.26C25.03 10.36 25.45 10.44 25.82 10.44C27.93 10.44 29.18 9.03 29.18 7ZM27.22 7C27.22 8.22 26.70 8.86 25.82 8.86C25.41 8.86 25.00 8.81 24.70 8.74L24.70 5.26C25.00 5.18 25.41 5.12 25.82 5.12C26.70 5.12 27.22 5.77 27.22 7ZM33.42 10.26L33.42 9.66L32.44 8.96L32.44 0L30.58 0L30.58 10.26ZM39.24 8.20C39.24 6.78 38.28 6.10 36.58 6.10C36.04 6.10 35.81 5.91 35.81 5.64C35.81 5.38 36.05 5.12 36.86 5.12C37.18 5.12 37.52 5.15 37.88 5.21L38.54 6.13L39.16 6.13L39.16 3.89C38.40 3.68 37.70 3.54 36.86 3.54C34.93 3.54 33.92 4.66 33.92 5.78C33.92 7.21 34.90 7.88 36.58 7.88C37.14 7.88 37.35 8.09 37.35 8.34C37.35 8.61 37.11 8.86 36.30 8.86C35.64 8.86 34.83 8.74 34.02 8.51L34.02 10.09C34.78 10.30 35.48 10.44 36.30 10.44C38.25 10.44 39.24 9.32 39.24 8.20ZM47.60 10.26L47.60 9.66L46.62 8.96L46.62 6.06C46.62 4.52 45.42 3.54 43.64 3.54C43.27 3.54 42.85 3.63 42.52 3.72L42.52 0L40.66 0L40.66 10.26L42.52 10.26L42.52 5.26C42.84 5.18 43.23 5.12 43.64 5.12C44.32 5.12 44.76 5.49 44.76 6.06L44.76 10.26ZM50.55 1.40C50.55 0.83 50.09 0.36 49.52 0.36C48.96 0.36 48.50 0.83 48.50 1.40C48.50 1.96 48.96 2.42 49.52 2.42C50.09 2.42 50.55 1.96 50.55 1.40ZM51.44 10.26L51.44 9.66L50.46 8.96L50.46 3.72L48.59 3.72L48.59 10.26ZM58.86 7C58.86 4.96 57.61 3.54 55.50 3.54C54.47 3.54 53.38 3.71 52.37 3.99L52.14 4.06L52.50 5.36L52.50 14L54.38 14L54.38 10.26C54.71 10.36 55.13 10.44 55.50 10.44C57.61 10.44 58.86 9.03 58.86 7ZM56.90 7C56.90 8.22 56.38 8.86 55.50 8.86C55.09 8.86 54.68 8.81 54.38 8.74L54.38 5.26C54.68 5.18 55.09 5.12 55.50 5.12C56.38 5.12 56.90 5.77 56.90 7Z"></path></g><!----><!----></svg>