<?xml version="1.0" encoding="utf-8"?>
<!-- Generator: Adobe Illustrator 25.2.3, SVG Export Plug-In . SVG Version: 6.00 Build 0)  -->
<svg version="1.1" id="Layer_1" xmlns="http://www.w3.org/2000/svg" xmlns:xlink="http://www.w3.org/1999/xlink" x="0px" y="0px"
	 viewBox="0 0 125 25" style="enable-background:new 0 0 125 25;" xml:space="preserve">
<style type="text/css">
	.st0{fill:#FDCA2E;}
	.st1{fill:#D0131D;}
</style>
<g>
	<path class="st0" d="M125,0v25H0V0H125z"/>
	<path class="st1" d="M51.7,14.8c0.8-1.7,1.6-3.2,1.9-3.8c1.5-3.1-0.1-7.4-5.3-7.4H31l-3,6.1h16.2c1.3,0,1.7,0.3,1.3,1.1
		c-0.4,0.8-1.2,2.4-1.4,2.8c-0.3,0.5-0.4,1.2,0.5,1.2H51.7L51.7,14.8z"/>
	<path class="st1" d="M41,15.4c-0.8,0-0.9-0.6-0.7-1c0.2-0.4,1.3-2.7,1.5-3.1c0.3-0.5,0.2-1.1-1.1-1.1h-7.3l-5.5,11.2h14.5
		c4,0,6.9-1.4,8.8-5.4c0.1-0.2,0.2-0.4,0.3-0.6L41,15.4L41,15.4z M53.1,15.4l-3,6h9l3-6H53.1z M65.8,15.4l-3,6h9l3-6H65.8L65.8,15.4
		z M75.2,14.8l5.5-11.2h-9l-3,6.1H65l3-6.1h-9l-5.5,11.2H75.2z M83,3.6h9l-5.5,11.2h-9L83,3.6L83,3.6z M77.2,15.4h20.2l-3,6H79.5
		c-3.1,0-4.1-2.4-3-4.7C76.6,16.5,77.2,15.4,77.2,15.4z M29.3,15.4l-0.9,1.8H14.3v-1.8H29.3z M28.3,17.5l-0.9,1.8H14.3v-1.8H28.3z
		 M27.3,19.6l-0.9,1.8H14.3v-1.8H27.3z M110.7,17.2h-13l0.9-1.8h12.1V17.2z M110.7,19.3h-14l0.9-1.8h13.1V19.3z M110.7,21.4H95.7
		l0.9-1.8h14.2V21.4z"/>
</g>
</svg>
