<?xml version="1.0" encoding="utf-8"?>
<!-- Generator: Adobe Illustrator 27.4.1, SVG Export Plug-In . SVG Version: 6.00 Build 0)  -->
<svg version="1.1" id="Layer_1" xmlns="http://www.w3.org/2000/svg" xmlns:xlink="http://www.w3.org/1999/xlink" x="0px" y="0px"
	 viewBox="0 0 512 512" style="enable-background:new 0 0 512 512;" xml:space="preserve">
<style type="text/css">
	.st0{fill:#198FFF;}
	.st1{fill-rule:evenodd;clip-rule:evenodd;fill:#FFFFFF;}
</style>
<path class="st0" d="M511.8,472.3c0,22.1-17.9,40-40,40h-432c-22.1,0-40-17.9-40-40v-432c0-22.1,17.9-40,40-40h432
	c22.1,0,40,17.9,40,40V472.3z"/>
<g>
	<g>
		<path id="Path_1" class="st1" d="M74.9,362c11.8,0,17.8,7.5,17.8,15.8c0,7.7-4.8,13-10.7,14.2c6.7,1,11.9,7.4,11.9,15.1
			c0,9.4-6.1,16.8-18,16.8H42.3V362H74.9z M72.6,412.2c4.9,0,7.9-2.6,7.9-7.1c0-3.9-2.8-7.1-7.9-7.1H55.5v14.1L72.6,412.2z
			 M72,386.5c4.5,0,7.2-2.5,7.2-6.5c0-3.8-2.8-6.5-7.2-6.5H55.5v13L72,386.5z"/>
		<path id="Path_2" class="st1" d="M124.3,425c14.8,0,23.8-10.9,23.8-23.6c0-12.7-8.9-23.5-23.8-23.5c-14.8,0-23.7,10.8-23.7,23.5
			C100.7,414.1,109.6,425,124.3,425z M124.3,414.5c-7.3,0-11.4-6-11.4-13.1c0-7,4.1-13,11.4-13c7.4,0,11.5,6,11.5,13
			C135.8,408.4,131.8,414.5,124.3,414.5z"/>
		<path id="Path_3" class="st1" d="M194.7,423.8l-16-23l14.9-21.8h-13.2l-9.2,13.7L162,379h-13.2l15,21.8l-16,23H161l10.3-15.1
			l10.2,15.1L194.7,423.8z"/>
		<path id="Path_4" class="st1" d="M253.8,423.8L227.5,391l24.6-29h-16.2L214,389.5V362h-13.2v61.9H214v-19l4.8-5.8l18.7,24.9H253.8
			z"/>
		<path id="Path_5" class="st1" d="M301.7,423.8v-31.6c0-8.7-4.7-14.3-14.7-14.3c-6,0-11.7,2.5-15.7,6.9V379h-11.8v44.8h11.8v-30.2
			c2.4-3.2,6.2-5.1,10.2-5.2c5,0,8.3,2.1,8.3,8.4v27.1L301.7,423.8z"/>
		<path id="Path_6" class="st1" d="M325,379v44.8h-11.8V379H325z M319.1,374.2c3.9,0,7-3.1,7.1-7s-3.1-7-7-7.1c-3.9,0-7,3.1-7.1,7
			c0,0,0,0,0,0C312.2,371,315.2,374.2,319.1,374.2z"/>
		<path id="Path_7" class="st1" d="M379.3,379v41.8c0,17-13.2,21.2-24.2,21.2c-7.6,0-13.6-1.8-19.3-6.7l5.3-8.4
			c3.6,3.9,8.4,5.5,14,5.5c5.7,0,12.4-2.4,12.4-11.5v-4.4c-3.3,4.4-8.4,7-13.9,7c-11.1,0-19.8-7.8-19.8-22.7
			c0-14.7,8.4-22.8,19.8-22.8c5.5-0.1,10.6,2.5,13.9,6.9V379L379.3,379z M357.4,413.1c-6.8,0-11.4-4.6-11.4-12.3s4.6-12.3,11.4-12.3
			c3.9,0.1,7.7,1.9,10.1,5V408C365.1,411.1,361.4,413,357.4,413.1L357.4,413.1z"/>
		<path id="Path_8" class="st1" d="M433.1,423.8V392c0-8.7-4.7-14.1-14.6-14.1c-6-0.1-11.7,2.4-15.7,6.9V362H391v61.9h11.9v-30.3
			c2.4-3.2,6.2-5.1,10.2-5.2c5,0,8.3,1.9,8.3,8.2v27.3H433.1z"/>
		<path id="Path_9" class="st1" d="M459.9,425c4.9,0,8.1-1.3,9.8-2.9l-2.5-9c-1.1,1-2.6,1.5-4.1,1.4c-2.6,0-4.1-2.1-4.1-5v-20.1h9.1
			V379H459v-12.3h-11.8V379h-7.4v10.3h7.4v23.3C447.2,420.7,451.6,425,459.9,425z"/>
	</g>
	<g>
		<path id="Path_16" class="st1" d="M302.7,312.1c12.4-3.8,19.3-9,19.3-14.5c0-11.3-29.6-20.5-66-20.5s-66,9.2-66,20.5
			c0,5.4,7,10.6,19.3,14.5H302.7z"/>
		<path id="Path_10" class="st1" d="M239.4,91.3c-57.3,9.1-101.3,58.5-101.3,116.4c0,65.1,52.8,117.9,117.9,117.9
			s117.9-52.8,117.9-117.9c0-58-43.7-107.4-100.9-116.4l1.5,14.2c50.3,8,85,51.3,85,102.2c0,57.2-46.3,103.5-103.5,103.5
			c-57.2,0-103.5-46.3-103.5-103.5c0,0,0,0,0,0c0-50.9,34.7-94.2,85-102.2L239.4,91.3z"/>
		<path id="Path_11" class="st1" d="M301.4,165.1c15.1,15.1,15.1,75.7,0,90.9s-75.7,15.1-90.9,0s-15.1-75.7,0-90.9
			C225.7,149.9,286.3,149.9,301.4,165.1z M295.3,171.2c-13.1-13.1-65.5-13.1-78.6,0s-13.1,65.5,0,78.6c8.3,8.3,32.2,11.3,52,9.1
			c11.6-1.3,21.7-4.3,26.6-9.1C308.4,236.7,308.4,184.3,295.3,171.2z"/>
		<path id="Path_12" class="st1" d="M256,161c0,0-17-45-40.5-32.4c-18.4,9.8-5.1,28.5,6.7,21.9C237.4,142,256,161,256,161z"/>
		<path id="Path_13" class="st1" d="M256,161c0,0,17-45,40.5-32.4c18.4,9.8,5.1,28.5-6.7,21.9C274.5,142,256,161,256,161z"/>
		<path id="Path_14" class="st1" d="M205.7,194c-5-2.9-11.4-1.2-14.3,3.8c-2.9,5-1.2,11.4,3.8,14.3c3.2,1.9,7.3,1.9,10.5,0V194z"/>
		<path id="Path_15" class="st1" d="M306.2,194c5-2.9,11.4-1.2,14.3,3.8c2.9,5,1.2,11.4-3.8,14.3c-3.2,1.9-7.3,1.9-10.5,0V194z"/>
		<path id="Path_17" class="st1" d="M241.7,219.9c2,0,3.7,2.6,3.7,5.8c0,3.2-1.7,5.8-3.7,5.8s-3.7-2.6-3.7-5.8
			C238,222.5,239.6,219.9,241.7,219.9z"/>
		<path id="Path_18" class="st1" d="M269.3,219.9c2,0,3.7,2.6,3.7,5.8c0,3.2-1.7,5.8-3.7,5.8s-3.7-2.6-3.7-5.8
			C265.6,222.5,267.2,219.9,269.3,219.9z"/>
		<path id="Path_19" class="st1" d="M256,70c0,0-18.2,8.4-16.5,39.8C241.2,141.2,256,161,256,161s14.8-19.8,16.5-51.2S256,70,256,70
			z"/>
		<path id="Path_20" class="st1" d="M256,174.8l57.1,24.3v11.5l-57.1-5.2l-57.1,5.2V199L256,174.8z M215.3,196.3h-4.1
			c-1.1,0-2.1,0.9-2.1,2.1v6.1c0,1.1,0.9,2.1,2.1,2.1h4.1c1.1,0,2.1-0.9,2.1-2.1v-6.1C217.4,197.3,216.5,196.3,215.3,196.3z
			 M300.8,196.3h-4.1c-1.1,0-2.1,0.9-2.1,2.1v6.1c0,1.1,0.9,2.1,2.1,2.1h4.1c1.1,0,2.1-0.9,2.1-2.1v-6.1
			C302.8,197.3,301.9,196.3,300.8,196.3z M284.5,189.8h-4.1c-1.1,0-2.1,0.9-2.1,2.1V203c0,1.1,0.9,2.1,2.1,2.1h4.1
			c1.1,0,2.1-0.9,2.1-2.1v-11.1C286.6,190.8,285.7,189.8,284.5,189.8z M231.6,189.8h-4.1c-1.1,0-2.1,0.9-2.1,2.1V203
			c0,1.1,0.9,2.1,2.1,2.1h4.1c1.1,0,2.1-0.9,2.1-2.1v-11.1C233.7,190.8,232.7,189.8,231.6,189.8z M268.3,181.3h-4.1
			c-1.1,0-2.1,0.9-2.1,2.1v18.4c0,1.1,0.9,2.1,2.1,2.1h4.1c1.1,0,2.1-0.9,2.1-2.1v-18.4C270.3,182.3,269.4,181.3,268.3,181.3z
			 M247.8,181.3h-4.1c-1.1,0-2.1,0.9-2.1,2.1v18.4c0,1.1,0.9,2.1,2.1,2.1h4.1c1.1,0,2.1-0.9,2.1-2.1v-18.4
			C249.9,182.3,249,181.3,247.8,181.3z"/>
	</g>
</g>
</svg>
