<svg xmlns="http://www.w3.org/2000/svg" width="512" height="512" viewBox="0 0 512 512"><path fill="#004990" d="M512 472c0 22.1-17.9 40-40 40H40c-22.1 0-40-17.9-40-40V40C0 17.9 17.9 0 40 0h432c22.1 0 40 17.9 40 40v432z"/><path fill="#ED1C2E" d="M425 256c0 93.3-75.6 169-169.1 169-93.3 0-169-75.7-169-169 .1-93.4 75.7-169 169-169C349.4 87 425 162.6 425 256z"/><path fill="#FFF" d="M202.4 278.1l12-12 133.9-6.1 6-5.9H222.4l-72-84.1 239.9 80-79.9 80.1h-160l16-16.1 133.9-5.9 6-6.1H178.4l12-12 133.9-6 6-5.9z"/></svg>