<?xml version="1.0" encoding="utf-8"?>
<!-- Generator: Adobe Illustrator 25.2.3, SVG Export Plug-In . SVG Version: 6.00 Build 0)  -->
<svg version="1.1" id="Layer_1" xmlns="http://www.w3.org/2000/svg" xmlns:xlink="http://www.w3.org/1999/xlink" x="0px" y="0px"
	 viewBox="0 0 512 512" style="enable-background:new 0 0 512 512;" xml:space="preserve">
<style type="text/css">
	.st0{fill-rule:evenodd;clip-rule:evenodd;fill:#F1F1F2;}
	.st1{fill-rule:evenodd;clip-rule:evenodd;fill:#0234A0;}
	.st2{filter:url(#Adobe_OpacityMaskFilter);}
	.st3{fill-rule:evenodd;clip-rule:evenodd;fill:#FFFFFF;}
	.st4{mask:url(#b_1_);fill-rule:evenodd;clip-rule:evenodd;fill:#FB6A1F;}
	.st5{fill-rule:evenodd;clip-rule:evenodd;fill:#FB6A1F;}
	.st6{filter:url(#Adobe_OpacityMaskFilter_1_);}
	.st7{mask:url(#d_1_);fill-rule:evenodd;clip-rule:evenodd;fill:#FB6A1F;}
	.st8{fill-rule:evenodd;clip-rule:evenodd;fill:#53585A;}
	.st9{fill-rule:evenodd;clip-rule:evenodd;fill:#FDFDFD;}
	.st10{fill:#53585A;}
	.st11{fill-rule:evenodd;clip-rule:evenodd;fill:#FC671A;}
</style>
<g>
	<path class="st0" d="M512,472c0,22.1-17.9,40-40,40H40c-22.1,0-40-17.9-40-40V40C0,17.9,17.9,0,40,0h432c22.1,0,40,17.9,40,40V472z
		"/>
	<path class="st1" d="M346.2,252.4c2.6,0,5.1,0.1,7.7,0c7-0.4,12.2-5.9,12.1-12.5c-0.2-6.8-5.4-12-12.4-12.1
		c-4.8-0.1-9.6-0.1-14.3,0c-7.1,0.1-12.4,5.1-12.5,11.9c-0.1,7,5,12.3,12.2,12.7C341.3,252.5,343.8,252.4,346.2,252.4 M304.1,252.4
		c-2.4-7.6-2.8-14.9-0.6-22.2c0.7-2.4-0.1-2.4-2-2.4c-8.9,0.1-17.7,0-26.6,0c-7.1,0.1-12.2,5.2-12.3,12c-0.3,6.6,4.9,12.2,11.6,12.5
		c0.1,0,0.3,0,0.4,0C284.2,252.5,293.9,252.4,304.1,252.4 M165.5,227.8c-4.8,0-9.6,0.1-14.3,0c-1.7,0-2.4,0.4-2.3,2.2
		c0.1,6.8,0.1,13.5,0,20.2c0,1.4,0.2,2.2,2,2.2c9.3-0.1,18.6,0.1,27.9-0.1c6.7-0.2,11.9-5.8,11.7-12.4c0-6.7-5.5-12.1-12.2-12.1
		c-0.1,0-0.1,0-0.2,0C174,227.7,169.7,227.8,165.5,227.8 M214.2,250.8c-1.1,0.5-1.1,1.4-1.3,2c-6.1,15.1-17.4,23.4-33.6,24
		c-17.4,0.6-34.9,0.1-52.3,0.2c-1.9,0-2.4-0.6-2.4-2.5c0.1-22.9,0.1-45.9,0-68.8c0-1.8,0.4-2.5,2.4-2.5c17.9,0.1,35.8-0.4,53.6,0.3
		c15.4,0.6,26,9.1,32.1,23.2c0.4,0.9,0.7,1.8,1.6,2.8v-5.6c0-6.1,0-12.2,0-18.3c0-1.7,0.5-2.3,2.2-2.3c6.8,0.1,13.6,0.1,20.3,0
		c2.2,0,2.2,1,2.2,2.6c0,7.7,0,15.5,0,23.4c1.4-0.6,1.3-2,1.7-3c5.5-13.8,18.9-22.8,33.7-22.9c9.3-0.1,18.7,0.1,28-0.1
		c2.4,0,3,0.8,2.9,3c-0.2,5.8,0,11.6,0.3,17.5c2.4-3.7,4.8-7.2,7.9-10.1c7-6.6,15.2-10.3,24.9-10.3c7.2,0,14.5-0.8,21.6,0.5
		c14.2,2.7,23.6,11,28.7,24.4c0.3,0.8,0.5,1.6,1.4,2.5v-8.9c0-5.3,0.1-10.6,0-16c0-1.9,0.3-2.7,2.5-2.7c22.8,0.1,45.6-0.1,68.3,0.2
		c18.6,0.2,34.6,16.3,35.2,35c0.4,12.1,0,24.1,0.1,36.2c0,2-0.7,2.4-2.5,2.4c-6.4-0.1-12.9-0.1-19.3,0c-2.2,0-2.8-0.6-2.8-2.8
		c0.1-12,0.1-23.9,0-35.9c-0.1-6.2-5.2-11.3-11.4-11.2c-1.3,0-2.6,0.3-3.8,0.7c-1.6,0.6-0.9,1.9-0.9,2.8c0,14.2-0.1,28.4,0,42.6
		c0,3-0.7,3.9-3.8,3.8c-6-0.2-12-0.2-18,0c-2.4,0-2.9-0.7-2.9-3c0.1-14.4,0-28.8,0.1-43.2c0-2.5-0.6-3.2-3.1-3.1
		c-3.3,0.2-6.7,0.2-10,0c-2.8-0.2-3.2,0.9-3.2,3.4c0.1,14.1,0,28.2,0.1,42.2c0,2.9-0.6,3.8-3.6,3.7c-5.9-0.2-11.8-0.2-17.7,0
		c-2.5,0.1-3.4-0.5-3.4-3.2c0.2-8.2,0.1-16.4,0.1-24.6c-1,0.2-0.8,1.1-1,1.6c-5.4,15.5-16.2,24.3-32.5,25.9
		c-7.8,0.8-15.8,0.9-23.6-0.3c-11-1.8-19.5-7.7-25.4-17.1c-0.6-0.9-1.1-1.8-2.3-2.6c0,5.6-0.2,11.1,0.1,16.7
		c0.1,2.9-0.6,3.8-3.6,3.7c-10.1-0.3-20.3,0.4-30.3-0.5c-15.2-1.2-25.5-9.7-31.2-23.8c-0.2-0.6-0.6-1.1-1.2-1.5v17.9
		c0,7.8,0,7.8-7.7,7.8c-4.6,0-9.1-0.2-13.7,0.1c-2.9,0.2-3.5-0.9-3.4-3.6C214.3,265.9,214.1,258.4,214.2,250.8"/>
	<g transform="translate(1.042 15.85)">
		<defs>
			<filter id="Adobe_OpacityMaskFilter" filterUnits="userSpaceOnUse" x="15.6" y="238.1" width="25.9" height="23">
				<feColorMatrix  type="matrix" values="1 0 0 0 0  0 1 0 0 0  0 0 1 0 0  0 0 0 1 0"/>
			</filter>
		</defs>
		<mask maskUnits="userSpaceOnUse" x="15.6" y="238.1" width="25.9" height="23" id="b_1_">
			<g class="st2">
				<path id="a_1_" class="st3" d="M15.6,238.2h25.9v23H15.6V238.2z"/>
			</g>
		</mask>
		<path class="st4" d="M28.8,261.1c-3.6,0-7.1-0.1-10.6,0c-1.8,0.1-2.6-0.4-2.5-2.4c0.1-6.1,0.1-12.2,0-18.2c0-1.7,0.4-2.4,2.2-2.4
			c7.1,0.1,14.2,0.1,21.3,0c2,0,2.4,0.7,2.4,2.5c-0.1,6-0.1,11.9,0,17.9c0,1.8-0.5,2.6-2.4,2.5C35.7,261,32.2,261,28.8,261.1"/>
	</g>
	<path class="st5" d="M29.4,225.8c-3.6,0-7.1-0.1-10.6,0c-1.6,0-2.1-0.5-2.1-2.1c0.1-6.3,0.1-12.6,0-18.9c0-1.4,0.5-2,1.9-1.9
		c7.3,0,14.6,0,22,0c1.4,0,2,0.5,2,2c0,6.3,0,12.6,0,18.9c0,1.6-0.6,2.1-2.2,2.1C36.8,225.7,33.1,225.8,29.4,225.8 M58.1,202.9
		c3.6,0,7.1,0.1,10.7,0c1.7,0,2.4,0.5,2.3,2.3c-0.1,6.1-0.1,12.2,0,18.3c0,1.9-0.7,2.4-2.5,2.4c-7-0.1-14-0.1-21,0
		c-1.8,0-2.3-0.5-2.3-2.3c0.1-6.2,0.1-12.4,0-18.6c0-1.6,0.6-2.1,2.2-2.1C51,202.9,54.5,202.9,58.1,202.9 M58.3,254
		c3.6,0,7.1,0,10.6,0c1.6,0,2.2,0.5,2.2,2.1c0,6.2,0,12.4,0,18.6c0,1.5-0.4,2.2-2,2.2c-7.2-0.1-14.4-0.1-21.6,0
		c-1.6,0-2.1-0.6-2.1-2.1c0.1-6.2,0.1-12.4,0-18.6c0-1.8,0.7-2.3,2.3-2.2C51.2,254.1,54.7,254,58.3,254 M86.6,225.8
		c-3.4,0-6.9-0.1-10.3,0c-1.9,0.1-2.5-0.6-2.4-2.5c0.1-6,0.1-11.9,0-17.9c0-2.1,0.7-2.6,2.7-2.6c6.9,0.1,13.7,0.1,20.6,0
		c1.9,0,2.5,0.6,2.4,2.5c-0.1,6-0.1,11.9,0,17.9c0,2.1-0.7,2.7-2.7,2.6C93.5,225.7,90,225.8,86.6,225.8"/>
	<path class="st1" d="M86.8,276.9c-3.6,0-7.1-0.1-10.6,0c-1.7,0.1-2.3-0.5-2.3-2.2c0.1-6.2,0.1-12.4,0-18.6c0-1.6,0.6-2.1,2.1-2.1
		c7.2,0.1,14.4,0,21.6,0c1.4,0,2,0.5,1.9,1.9c0,6.3,0,12.6,0,18.9c0,1.6-0.6,2.1-2.1,2.1C93.9,276.8,90.3,276.9,86.8,276.9"/>
	<path class="st5" d="M29.4,251.2c-3.4,0-6.9,0-10.3,0c-1.6,0-2.4-0.2-2.4-2.1c0.1-6.2,0.1-12.4,0-18.6c0-1.6,0.6-2.1,2.1-2
		c7.2,0.1,14.4,0.1,21.7,0c1.6,0,2.1,0.5,2.1,2.1c-0.1,6.2-0.1,12.4,0,18.6c0,1.6-0.6,2.1-2.2,2C36.7,251.2,33.1,251.2,29.4,251.2
		 M57.9,251.2c-3.5,0-6.9-0.1-10.3,0c-1.7,0-2.3-0.4-2.3-2.2c0.1-6.1,0.1-12.2,0-18.3c0-1.7,0.4-2.3,2.2-2.3
		c7.1,0.1,14.2,0.1,21.3,0c1.5,0,2.2,0.4,2.2,2c-0.1,6.2-0.1,12.4,0,18.6c0,1.9-0.8,2.2-2.4,2.1C65,251.2,61.5,251.2,57.9,251.2
		 M86.8,228.5c3.6,0,7.1,0.1,10.7,0c1.6,0,2.1,0.5,2.1,2.1c-0.1,6.2-0.1,12.4,0,18.6c0,1.6-0.5,2.1-2.1,2.1
		c-7.2-0.1-14.4-0.1-21.6,0c-1.4,0-1.9-0.5-1.9-2c0.1-6.3,0.1-12.6,0-18.9c0-1.8,0.9-1.9,2.3-1.9C79.7,228.6,83.3,228.5,86.8,228.5"
		/>
	<g transform="translate(13.351 11.01)">
		<defs>
			<filter id="Adobe_OpacityMaskFilter_1_" filterUnits="userSpaceOnUse" x="200.8" y="165.7" width="24.8" height="21.9">
				<feColorMatrix  type="matrix" values="1 0 0 0 0  0 1 0 0 0  0 0 1 0 0  0 0 0 1 0"/>
			</filter>
		</defs>
		<mask maskUnits="userSpaceOnUse" x="200.8" y="165.7" width="24.8" height="21.9" id="d_1_">
			<g class="st6">
				<path id="c_1_" class="st3" d="M200.8,165.7h24.8v21.9h-24.8L200.8,165.7z"/>
			</g>
		</mask>
		<path class="st7" d="M213.2,187.6c-3.4,0-6.9-0.1-10.3,0c-1.6,0-2.1-0.5-2.1-2.1c0.1-6,0.1-11.9,0-17.9c0-1.4,0.5-1.9,1.9-1.9
			c7,0,13.9,0,20.9,0c1.4,0,2,0.4,1.9,1.9c0,6-0.1,11.9,0,17.9c0,1.9-0.8,2.2-2.4,2.1C219.8,187.5,216.5,187.6,213.2,187.6"/>
	</g>
	<path class="st8" d="M376.2,305.5h1.6v12.1h-1.6V305.5z M376.2,303.1h1.6v1.6h-1.6V303.1z"/>
	<path class="st9" d="M165.5,227.8c4.2,0,8.4,0,12.6,0c6.7-0.1,12.3,5.2,12.4,11.9c0,0.1,0,0.1,0,0.2c0.1,6.7-5.1,12.2-11.7,12.4
		c-9.3,0.3-18.6,0-27.9,0.1c-1.8,0-2-0.8-2-2.2c0.1-6.7,0.1-13.5,0-20.2c0-1.8,0.7-2.2,2.3-2.2C156,227.8,160.8,227.8,165.5,227.8
		 M304.1,252.4c-10.2,0-19.9,0.2-29.7,0c-6.6,0-12-5.5-11.9-12.1c0-0.1,0-0.3,0-0.4c0.1-6.9,5.3-12,12.3-12c8.9-0.1,17.7,0,26.6,0
		c1.9,0,2.8,0.1,2,2.4C301.2,237.5,301.6,244.8,304.1,252.4 M346.2,252.4c-2.4,0-4.9,0.1-7.3,0c-7.2-0.4-12.4-5.7-12.2-12.7
		c0.1-6.8,5.4-11.8,12.5-11.9c4.8-0.1,9.6-0.1,14.3,0c7.1,0.1,12.3,5.2,12.4,12.1c0.1,6.7-5.1,12.1-12.1,12.5
		C351.3,252.5,348.8,252.4,346.2,252.4 M447.5,312.4c0.1,0.3,0.3,0.6,0.4,1c0,0.1-0.3,0.3-0.4,0.5c-0.2-0.3-0.4-0.7-0.4-1
		C447,312.7,447.3,312.5,447.5,312.4 M362.9,311.3c-0.1,2.4-0.6,4.7-3.5,4.6c-2.8,0-3.2-2.4-3.2-4.5c0.1-2.2,0.4-4.7,3.5-4.6
		C362.6,307,362.8,309.2,362.9,311.3 M24.4,303.3c0.8,2.1,1.2,3.6,1.8,4.9c1.1,2.2,0,2.5-2,2.5c-1.9,0-2.7-0.4-1.7-2.4
		C23.2,306.9,23.6,305.5,24.4,303.3 M173.3,311.3c0.2-2,0.4-4.4,3.5-4.4c2.8,0,3.3,2.3,3.3,4.4c0,2.3-0.6,4.6-3.5,4.6
		C173.8,315.9,173.3,313.8,173.3,311.3 M346.5,310.6c-0.9-0.8-3,1-3-1.3c0-1.5,1.4-2.4,3.1-2.4c1.7,0,3,0.7,3,2.4
		C349.5,311.5,347.5,309.9,346.5,310.6 M393.3,309.2c0.6-1.6,1.7-2.4,3.5-2.3c1.7,0.1,3.1,1.3,2.6,2.7c-0.7,1.9-2.8,0.6-4.3,0.9
		C394.3,310.5,393.1,310.8,393.3,309.2 M287.7,310.6c-1-0.6-2.9,0.8-3-1c-0.1-1.7,1.3-2.7,3.1-2.7c1.6,0,3,0.8,2.9,2.4
		C290.6,311.5,288.7,309.9,287.7,310.6 M307,310.6c-1-0.7-3,0.9-3.1-1.2c-0.1-1.6,1.3-2.5,2.9-2.5c1.8,0,3.2,0.9,3.1,2.6
		C309.9,311.4,308,309.9,307,310.6 M190.2,311.7c1.2-0.2,1.8,0,1.7,1.1c-0.2,2.2-1.6,3.1-3.5,3.3c-1.3,0.1-2.6-0.4-2.4-2
		C186.4,311.4,188.9,312.3,190.2,311.7 M140.8,311.9c0-3.3,1.4-5.2,3.8-5.1c2.8,0.1,3.4,2.2,3.4,4.4c-0.1,2.2-0.3,4.7-3.4,4.8
		C141.6,316.2,141,314,140.8,311.9"/>
	<g>
		<path class="st10" d="M19,316.7l1.7-4.5h7.3l1.7,4.5h2l-6.3-16h-2.1l-6.3,16H19z"/>
		<path class="st0" d="M24.5,302.7l-3.2,8.1h6.2L24.5,302.7z"/>
	</g>
	<g transform="translate(7.108 18.168)">
		<g>
			<path id="e" class="st10" d="M125.7,299.1c0.7,0,1.3-0.1,2-0.3c0.6-0.2,1.1-0.4,1.5-0.8c0.4-0.4,0.8-0.8,1.1-1.3
				c0.3-0.5,0.5-1.1,0.5-1.7h-2c-0.1,0.4-0.2,0.7-0.4,1c-0.3,0.6-0.9,1.2-1.5,1.4c-1.4,0.5-3,0-3.8-1.2c-0.3-0.4-0.5-0.9-0.7-1.5
				c-0.2-0.5-0.2-1.1-0.2-1.7c0-0.5,0.1-1,0.2-1.5c0.1-0.5,0.4-0.9,0.7-1.3c0.6-0.8,1.6-1.2,2.6-1.2c0.8,0,1.4,0.2,2,0.5
				c0.5,0.3,0.9,0.8,1.1,1.6h1.9c-0.1-0.5-0.3-1-0.6-1.4c-0.3-0.4-0.6-0.8-1-1.1c-0.4-0.3-0.9-0.6-1.5-0.7c-1.4-0.4-2.8-0.4-4.2,0.2
				c-1.3,0.6-2.3,1.6-2.8,2.9c-0.3,0.7-0.4,1.4-0.4,2.1c0,1,0.2,1.9,0.5,2.8c0.2,0.4,0.4,0.9,0.7,1.2
				C122.7,298.4,124.2,299.1,125.7,299.1z M138.4,299.1c0.8,0,1.6-0.1,2.4-0.4c1.3-0.6,2.4-1.7,2.8-3.1c0.5-1.4,0.5-3,0-4.4
				c-0.5-1.4-1.5-2.5-2.8-3.1c-0.8-0.3-1.6-0.5-2.4-0.5c-0.8,0-1.6,0.2-2.4,0.5c-1.3,0.6-2.3,1.7-2.8,3.1c-0.5,1.4-0.5,3,0,4.4
				c0.5,1.4,1.5,2.5,2.8,3C136.8,298.9,137.6,299.1,138.4,299.1L138.4,299.1z M138.4,297.7c-1.1,0-2.1-0.5-2.7-1.3
				c-0.3-0.4-0.6-0.9-0.7-1.4c-0.4-1.1-0.4-2.2,0-3.3c0.2-0.5,0.4-1,0.7-1.4c0.7-0.8,1.7-1.3,2.7-1.3c1.1,0,2.1,0.4,2.8,1.3
				c0.3,0.4,0.6,0.9,0.8,1.4c0.4,1.1,0.4,2.2,0,3.3c-0.2,0.5-0.4,1-0.8,1.4C140.5,297.2,139.5,297.7,138.4,297.7z M148.7,298.9v-6.8
				c0-0.3,0.1-0.7,0.3-1c0.4-0.8,1-1.4,1.8-1.8c0.7-0.3,1.4-0.4,2.1-0.2c0.6,0.1,1,0.5,1.3,1.1c0.2,0.4,0.2,0.7,0.2,1.1v7.5h1.8V292
				c0-0.4,0.1-0.8,0.3-1.2c0.6-1,1.7-1.7,2.9-1.8c0.3,0,0.6,0,0.9,0.1c0.6,0.1,1.1,0.5,1.3,1.1c0.2,0.4,0.2,0.7,0.2,1.1v7.5h1.8v-8
				c0-0.9-0.4-1.8-1.1-2.4c-0.4-0.3-0.8-0.5-1.2-0.7c-1.2-0.4-2.5-0.3-3.7,0.2c-0.4,0.2-0.7,0.4-1,0.6c-0.3,0.3-0.6,0.6-0.8,0.9
				c-0.4-0.6-0.9-1.2-1.5-1.6c-0.5-0.3-1.1-0.5-1.8-0.4c-1.1,0-2.1,0.4-3,1c-0.3,0.3-0.6,0.5-0.9,0.9v-1.7h-1.8v11H148.7z
				 M169.1,303.3v-6.1c0.2,0.3,0.5,0.6,0.8,0.8c0.6,0.4,1.2,0.8,2,0.9c1.1,0.2,2.2,0.1,3.2-0.3c0.6-0.3,1.2-0.7,1.6-1.2
				c0.5-0.5,0.8-1.2,1-1.8c0.5-1.4,0.5-3,0-4.4c-0.8-2.6-3.5-4.1-6.1-3.3c-0.6,0.2-1.2,0.5-1.7,0.9c-0.3,0.2-0.5,0.5-0.7,0.8v-1.7
				h-1.8v15.5C167.3,303.3,169.1,303.3,169.1,303.3z M172.7,297.7c-0.5,0-1-0.1-1.4-0.3c-0.4-0.2-0.8-0.5-1.1-0.9
				c-0.7-0.8-1-1.8-1-2.9v-0.3c0-0.6,0.1-1.1,0.3-1.6c0.2-0.5,0.4-1,0.7-1.4c0.3-0.4,0.7-0.7,1.1-0.9c0.5-0.2,1-0.3,1.5-0.3
				c0.5,0,1,0.1,1.5,0.3c0.4,0.2,0.8,0.5,1.1,0.9c0.3,0.4,0.6,0.9,0.7,1.4c0.5,1.6,0.2,3.3-0.7,4.7c-0.3,0.4-0.7,0.7-1.1,1
				C173.7,297.6,173.2,297.7,172.7,297.7z M190.1,299.1c0.3,0,0.6,0,0.9-0.1v-1.3c-0.1,0-0.2,0-0.3,0c-0.2,0-0.4-0.1-0.6-0.3
				c-0.2-0.2-0.2-0.4-0.2-0.7V291c0-1.1-0.5-2-1.4-2.6c-0.5-0.3-1-0.5-1.5-0.6c-1.2-0.3-2.4-0.3-3.5,0c-0.5,0.1-1,0.3-1.5,0.6
				c-0.4,0.3-0.8,0.6-1.1,1c-0.3,0.4-0.5,0.9-0.5,1.4h1.9c0-0.3,0.2-0.6,0.3-0.8c0.2-0.2,0.4-0.4,0.7-0.6c0.3-0.2,0.6-0.3,0.9-0.4
				c0.7-0.2,1.5-0.2,2.2,0c0.3,0.1,0.6,0.2,0.9,0.4c0.5,0.3,0.8,0.9,0.8,1.5c0,0.3-0.1,0.5-0.4,0.7c-0.3,0.2-0.6,0.4-0.9,0.5
				c-0.4,0.2-0.9,0.3-1.3,0.4L184,293c-0.5,0.1-1,0.3-1.5,0.4c-0.4,0.2-0.9,0.4-1.3,0.6c-0.4,0.2-0.7,0.5-0.9,0.8
				c-0.2,0.3-0.4,0.8-0.4,1.2c0,0.9,0.4,1.7,1.1,2.2c0.3,0.3,0.7,0.5,1.2,0.6c0.5,0.1,1,0.2,1.4,0.2c0.4,0,0.8,0,1.2-0.1
				c0.8-0.1,1.6-0.4,2.3-0.9c0.4-0.3,0.8-0.7,1.2-1.1c0,0.7,0.2,1.2,0.6,1.6C189.2,298.9,189.6,299.1,190.1,299.1L190.1,299.1z
				 M195.4,298.9v-6.7c0-0.4,0.1-0.8,0.3-1.2c0.2-0.4,0.5-0.7,0.8-1c0.8-0.6,1.8-1,2.8-1c0.4,0,0.7,0,0.9,0.1
				c0.3,0.1,0.5,0.2,0.7,0.4c0.2,0.2,0.3,0.4,0.4,0.6c0.1,0.3,0.2,0.6,0.2,1v7.8h1.8v-8c0-0.5-0.1-0.9-0.3-1.4
				c-0.2-0.4-0.4-0.7-0.7-1c-0.3-0.3-0.7-0.5-1.2-0.6c-1.3-0.3-2.6-0.3-3.8,0.2c-0.8,0.3-1.5,0.8-2,1.4v-1.6h-1.8v11
				C193.5,298.9,195.4,298.9,195.4,298.9z M208.3,303.6c0.6,0,1.1-0.2,1.5-0.5c0.3-0.2,0.5-0.4,0.7-0.7c0.2-0.3,0.4-0.7,0.6-1.1
				l5.3-13.4h-1.9l-3.5,9l-3.5-9h-2l4.6,11.2c-0.2,0.5-0.4,1-0.5,1.4c-0.1,0.3-0.3,0.7-0.5,1c-0.1,0.2-0.3,0.4-0.5,0.6
				c-0.2,0.1-0.4,0.2-0.6,0.2c-0.4,0-0.7-0.1-1.1-0.2v1.4c0.2,0.1,0.4,0.1,0.7,0.2C207.9,303.6,208.1,303.6,208.3,303.6L208.3,303.6
				z"/>
		</g>
	</g>
	<path class="st0" d="M195.5,310.4c-1.3,0.9-2.7,1.4-4.3,1.7c-1.7,0.4-2.7,1.6-2,3.2c2,2.8,6.2-1.2,6.2-2.1
		C195.5,313.2,195.5,310.4,195.5,310.4z"/>
	<g>
		<path class="st10" d="M260.4,318c1.5,0,3-0.5,4.2-1.5c1.3-1.1,2-2.7,2-4.4v-11h-1.7v11.1c0,1.2-0.5,2.4-1.5,3.2
			c-0.9,0.7-1.9,1.1-3.1,1.1c-1.1,0-2.1-0.4-2.9-1.1c-0.9-0.8-1.3-2-1.3-3.2v-11.1h-1.7v11c0,1.2,0.3,2.3,0.9,3.3
			C256.5,317,258.4,318,260.4,318L260.4,318z M272.5,317.6v-7.3c0-0.4,0.1-0.8,0.3-1.3c0.2-0.4,0.5-0.8,0.8-1.1c0.8-0.7,1.7-1,2.7-1
			c0.3,0,0.6,0,0.9,0.1c0.3,0.1,0.5,0.2,0.7,0.4c0.2,0.2,0.3,0.4,0.4,0.7c0.1,0.3,0.2,0.6,0.2,1v8.5h1.7v-8.7c0-0.5-0.1-1-0.2-1.5
			c-0.3-0.8-1-1.5-1.8-1.8c-0.5-0.2-1-0.3-1.5-0.3c-1.6,0-3.2,0.7-4.2,2v-1.8h-1.8v12L272.5,317.6L272.5,317.6z M288.4,317.8
			c1.1,0,2.2-0.4,3.2-1c0.9-0.7,1.6-1.7,1.8-2.9h-1.6c-0.6,1.6-1.7,2.4-3.4,2.4c-0.5,0-1-0.1-1.4-0.4c-0.4-0.3-0.8-0.6-1.1-1
			c-0.7-0.9-1.1-1.9-1.1-3h8.8v-0.7c0-0.8-0.1-1.6-0.4-2.3c-0.2-0.7-0.6-1.3-1.1-1.8c-1-1.1-2.3-1.7-3.8-1.7c-1.5,0-3,0.7-3.9,1.8
			c-0.5,0.6-0.8,1.2-1.1,1.9c-0.5,1.5-0.5,3.2,0,4.7c0.2,0.7,0.6,1.4,1.1,2.1c0.5,0.6,1.1,1.1,1.7,1.4
			C286.9,317.6,287.6,317.8,288.4,317.8z M306.4,317.8c1.1,0,2.2-0.4,3.2-1c0.9-0.7,1.6-1.7,1.8-2.9h-1.6c-0.5,1.6-1.7,2.4-3.4,2.4
			c-0.5,0-1-0.1-1.4-0.4c-0.4-0.3-0.8-0.6-1.1-1c-0.7-0.9-1-1.9-1-3h8.8v-0.7c0-0.8-0.1-1.6-0.4-2.3c-0.2-0.7-0.6-1.3-1-1.8
			c-1-1.1-2.4-1.7-3.8-1.7c-1.5,0-3,0.7-3.9,1.8c-0.5,0.6-0.8,1.2-1.1,1.9c-0.5,1.5-0.5,3.2,0,4.7c0.2,0.7,0.6,1.4,1.1,2.1
			c0.5,0.6,1,1.1,1.7,1.4C304.9,317.6,305.7,317.8,306.4,317.8z M316.1,317.6v-7.3c0-0.4,0.1-0.8,0.3-1.3c0.2-0.4,0.5-0.8,0.8-1.1
			c0.8-0.7,1.7-1,2.7-1c0.3,0,0.6,0,0.9,0.1c0.3,0.1,0.5,0.2,0.7,0.4c0.2,0.2,0.3,0.4,0.4,0.7c0.1,0.3,0.1,0.6,0.1,1v8.5h1.7v-8.7
			c0-0.5-0.1-1-0.2-1.5c-0.3-0.8-1-1.5-1.8-1.8c-0.5-0.2-1-0.3-1.5-0.3c-1.6,0-3.2,0.7-4.2,2v-1.8h-1.8v12L316.1,317.6L316.1,317.6z
			 M330.4,317.8c0.6,0,1.2-0.1,1.8-0.3v-1.4c-0.2,0-0.4,0.1-0.6,0.1c-0.2,0-0.5,0.1-0.7,0.1c-0.2,0-0.3,0-0.5-0.1
			c-0.1,0-0.3-0.1-0.4-0.2c-0.1-0.1-0.2-0.3-0.3-0.4c-0.1-0.2-0.1-0.4-0.1-0.7V307h2.1v-1.5h-2.1v-3.3h-1.8v3.3h-1.8v1.5h1.8v8.5
			c0,0.4,0.1,0.8,0.2,1.1c0.1,0.3,0.3,0.5,0.6,0.7s0.5,0.3,0.8,0.4C329.8,317.8,330.1,317.8,330.4,317.8z M336.4,317.6v-7.1
			c0-0.4,0.1-0.8,0.2-1.2c0.1-0.4,0.3-0.7,0.6-1c0.7-0.8,1.7-1.1,2.7-0.9c0.2,0,0.4,0.1,0.6,0.2v-1.8c-0.3-0.1-0.6-0.1-0.8-0.1
			c-0.7-0.1-1.4,0.1-2,0.5c-0.5,0.4-1,0.9-1.3,1.5l0.1-2h-1.8v12L336.4,317.6L336.4,317.6z M347.1,317.8c1.1,0,2.2-0.4,3.2-1
			c0.9-0.7,1.6-1.7,1.8-2.9h-1.6c-0.6,1.6-1.7,2.4-3.4,2.4c-0.5,0-1-0.1-1.4-0.4c-0.4-0.3-0.8-0.6-1.1-1c-0.7-0.9-1.1-1.9-1.1-3h8.8
			v-0.7c0-0.8-0.1-1.6-0.4-2.3c-0.2-0.7-0.6-1.3-1.1-1.8c-1-1.1-2.3-1.7-3.8-1.7c-1.5,0-3,0.7-3.9,1.8c-0.5,0.6-0.8,1.2-1.1,1.9
			c-0.5,1.5-0.5,3.2,0,4.7c0.2,0.7,0.6,1.4,1.1,2.1c0.5,0.6,1.1,1.1,1.7,1.4C345.6,317.6,346.3,317.8,347.1,317.8z M356.8,322.4
			v-6.6c0.4,0.6,1,1.1,1.6,1.5c0.3,0.2,0.6,0.3,1,0.4c1.8,0.4,3.6-0.3,4.6-1.7c0.4-0.6,0.8-1.3,1-2c0.5-1.6,0.5-3.3,0-4.8
			c-0.2-0.7-0.5-1.4-1-2c-1.1-1.5-2.9-2.1-4.7-1.7c-0.7,0.2-1.3,0.6-1.8,1.1c-0.3,0.3-0.5,0.6-0.7,0.9v-1.9H355v16.9H356.8
			L356.8,322.4z M360.2,316.3c-0.5,0-1-0.1-1.4-0.3c-0.4-0.2-0.8-0.6-1.1-1c-0.3-0.4-0.5-0.9-0.7-1.4c-0.2-0.6-0.3-1.1-0.3-1.7v-0.3
			c0-0.6,0.1-1.2,0.3-1.8c0.2-0.5,0.4-1,0.7-1.5c0.3-0.4,0.7-0.8,1.1-1c0.4-0.2,0.9-0.4,1.4-0.4c0.5,0,1,0.1,1.4,0.4
			c0.4,0.3,0.8,0.6,1.1,1c0.3,0.5,0.5,1,0.7,1.5c0.5,1.7,0.2,3.6-0.7,5.1c-0.3,0.4-0.6,0.8-1.1,1
			C361.2,316.1,360.7,316.3,360.2,316.3z M369.8,317.6v-7.1c0-0.4,0.1-0.8,0.2-1.2c0.1-0.4,0.3-0.7,0.6-1c0.7-0.8,1.7-1.1,2.7-0.9
			c0.2,0,0.4,0.1,0.6,0.2v-1.8c-0.2-0.1-0.4-0.1-0.5-0.1l-0.3,0c-0.7-0.1-1.4,0.1-2,0.5c-0.5,0.4-1,0.9-1.3,1.5l0.1-2H368v12
			L369.8,317.6L369.8,317.6z M384.6,317.8c0.6,0,1.2-0.1,1.8-0.2c0.5-0.1,1-0.3,1.5-0.6c0.4-0.3,0.8-0.7,1-1.1
			c0.3-0.5,0.4-1.1,0.4-1.6c0-0.4-0.1-0.8-0.3-1.2c-0.2-0.3-0.5-0.6-0.8-0.9c-0.3-0.3-0.7-0.5-1.1-0.6c-0.8-0.4-1.7-0.7-2.6-1
			c-0.4-0.1-0.8-0.3-1.1-0.5c-0.3-0.2-0.6-0.4-0.8-0.6c-0.2-0.2-0.3-0.5-0.3-0.8c0-0.5,0.2-0.9,0.6-1.2c0.2-0.2,0.5-0.3,0.8-0.4
			c0.6-0.2,1.3-0.2,2,0c0.3,0.1,0.6,0.2,0.8,0.4c0.5,0.3,0.8,0.8,0.8,1.4h1.8c0-1-0.5-2-1.3-2.6c-0.4-0.3-0.9-0.5-1.4-0.6
			c-1.1-0.3-2.2-0.3-3.2,0c-0.5,0.1-0.9,0.4-1.3,0.6c-0.4,0.3-0.7,0.6-0.9,1c-0.2,0.4-0.4,0.9-0.4,1.4c0,0.5,0.1,0.9,0.3,1.3
			c0.2,0.4,0.5,0.7,0.8,0.9c0.3,0.3,0.7,0.5,1.1,0.7c0.8,0.4,1.7,0.7,2.6,1c0.4,0.2,0.8,0.3,1.1,0.5c0.3,0.2,0.6,0.4,0.8,0.6
			c0.2,0.2,0.3,0.5,0.3,0.8c0,0.3-0.1,0.6-0.3,0.9c-0.2,0.2-0.4,0.4-0.7,0.6c-0.3,0.1-0.6,0.2-1,0.3c-0.3,0.1-0.7,0.1-1,0.1
			c-0.4,0-0.7,0-1.1-0.1c-0.3-0.1-0.6-0.2-0.8-0.4c-0.2-0.2-0.4-0.4-0.6-0.7c-0.2-0.3-0.2-0.7-0.2-1.1H380c0,0.6,0.2,1.2,0.4,1.7
			c0.3,0.5,0.6,0.9,1,1.2c0.4,0.3,0.9,0.6,1.4,0.7S384,317.8,384.6,317.8z M396.6,317.8c1.1,0,2.2-0.4,3.2-1
			c0.9-0.7,1.6-1.7,1.8-2.9H400c-0.6,1.6-1.7,2.4-3.4,2.4c-0.5,0-1-0.1-1.4-0.4c-0.4-0.3-0.8-0.6-1.1-1c-0.7-0.9-1.1-1.9-1.1-3h8.8
			v-0.7c0-0.8-0.1-1.6-0.4-2.3c-0.2-0.7-0.6-1.3-1-1.8c-1-1.1-2.3-1.7-3.8-1.7c-1.5,0-3,0.7-3.9,1.8c-0.5,0.6-0.8,1.2-1.1,1.9
			c-0.5,1.5-0.5,3.2,0,4.7c0.2,0.7,0.6,1.4,1.1,2.1c0.5,0.6,1.1,1.1,1.7,1.4C395,317.6,395.8,317.8,396.6,317.8z"/>
		<path class="st0" d="M393,310.6h7c-0.3-2.4-1.5-3.6-3.5-3.7C394.3,307,393.2,308.2,393,310.6z M343.5,310.6h6.9
			c-0.3-2.4-1.5-3.6-3.5-3.7C344.8,307,343.7,308.2,343.5,310.6z M303,310.6h6.9c-0.3-2.4-1.5-3.6-3.5-3.7
			C304.3,307,303.1,308.2,303,310.6z M284.8,310.6h6.9c-0.3-2.4-1.5-3.6-3.5-3.7C286.1,307,284.9,308.2,284.8,310.6L284.8,310.6z"/>
	</g>
	<path class="st11" d="M233.3,308.7h6.4v6.4h-6.4V308.7z"/>
	<path class="st8" d="M447.5,311.5l-1.4,7.6h5.4l3.5-16.6h-20.2l-1,5.2h7.3c-3.5,6.4-9.5,8.6-18,6.8c-5.9-1.9-9.9-9.3,3.3-15.1
		c1.2-0.7-1.4-0.6-3.2,0.5c-2,1.3-7.7,3.8-7.4,11.2c0.4,3.8,7.6,9.9,19.4,8C440,317.8,444,315.3,447.5,311.5z M72.1,311.8l-1.4,7.3
		h5.4l3.5-16.6H59.4l-1,5.2h7.3c-3.5,6.4-9.5,8.6-17.9,6.8c-5.9-1.9-10-9.3,3.3-15.1c1.2-0.7-1.4-0.2-3.2,0.8
		c-2,1.3-7.9,3.8-7.4,10.8c0.2,5.1,7.6,9.9,19.4,8C64.6,317.8,68.7,315.5,72.1,311.8z"/>
	<g>
		<path class="st8" d="M473.8,307.8c-4.8-1.8-7.8-0.7-9,3.4c-0.8,5.4,3,4.2,3.8,4.2c0.1,0.1,0.3-1.5,0.8-4.6h4l-1.3,6.8
			c-0.2,1.4-1.3,2.1-3.4,2.1c-3.1,0-9,0.7-8.4-8.1c0-2,3.5-8.9,9.2-8.5c0.9,0,2.6,0.3,5,1C474.4,304,473.8,307.8,473.8,307.8z
			 M476.5,303l-3,16.6h6.8l1-4h-3.2l2.2-12.6H476.5z M492.6,303v3.7c-2.6-0.5-4.1-0.3-4.5,0.7c-0.5,1.4,3.1,3.1,3.5,3.5
			c1.5,0.7,2,7.5-3.5,8.4h-5.7l0.9-3.6c3.1,0.6,4.4,0,4.1-1.6c-0.1-0.7-4.1-2.3-4-5.3c0-1.4,0.7-5.3,4.6-5.7
			C488.2,303,492.6,303,492.6,303z"/>
	</g>
	<g>
		<path class="st8" d="M95.2,307.8c-4.8-1.8-7.8-0.7-9,3.4c-0.8,5.4,3,4.2,3.8,4.2c0.1,0.1,0.3-1.5,0.8-4.6h4l-1.3,6.8
			c-0.2,1.4-1.3,2.1-3.4,2.1c-3.1,0-9,0.7-8.4-8.1c0-2,3.5-8.9,9.2-8.5c0.9,0,2.6,0.3,5,1C95.8,304,95.2,307.8,95.2,307.8z M98,303
			l-3,16.6h6.8l1-4h-3.2l2.2-12.6H98z M114,303v3.7c-2.6-0.5-4.1-0.3-4.5,0.7c-0.5,1.4,3.1,3.1,3.5,3.5c1.6,0.7,2,7.5-3.5,8.4h-5.6
			l0.9-3.6c3.1,0.6,4.4,0,4.1-1.6c-0.1-0.7-4.1-2.3-4-5.3c0-1.4,0.7-5.3,4.6-5.7C109.6,303,114,303,114,303z"/>
	</g>
</g>
</svg>
