<svg fill="none" height="125" viewBox="0 0 542 125" width="542" xmlns="http://www.w3.org/2000/svg"><path d="m526.99 51.84h14.16v-11.09h-14.16c-.94 0-1.42-.48-1.42-1.3v-10.98h-12.62v47.2c0 12.39 5.43 19.24 19.59 19.24h8.61v-11.1h-6.73c-7.43 0-8.85-3.3-8.85-9.91v-20.65c.01-.94.48-1.41 1.42-1.41zm-32.79 11.09-4.72-2.36c-5.19-2.6-6.49-3.66-6.49-6.02 0-2.59 2-4.25 5.66-4.25 3.19 0 6.96 1.18 11.33 3.66l4.84-9.67c-5.9-3.9-11.8-4.96-16.76-4.96-10.74 0-17.58 6.73-17.58 15.58 0 7.55 3.78 12.27 13.57 16.87l4.48 2.12c4.72 2.24 6.14 3.9 6.14 6.02 0 3.19-3.07 4.72-7.91 4.72-4.36 0-8.61-1.3-13.09-4.01l-4.96 10.15c6.14 3.89 12.98 5.19 18.64 5.19 11.8 0 20.06-5.78 20.06-16.64 0-7.2-3.77-11.68-13.21-16.4zm-56.17-23.6c-16.75 0-28.32 11.56-28.32 28.32 0 16.75 11.57 28.32 28.32 28.32 16.76 0 28.32-11.57 28.32-28.32-.01-16.76-11.57-28.32-28.32-28.32zm0 45.31c-9.32 0-15.46-6.73-15.46-16.99 0-10.27 6.14-16.99 15.46-16.99s15.46 6.72 15.46 16.99c-.01 10.26-6.15 16.99-15.46 16.99zm-61.83-45.31c-16.52 0-27.37 10.62-27.37 28.91v51.33h12.62v-28.44c0-.71.36-1.06.83-1.06.35 0 .59.12 1.06.59 3.07 2.95 8.49 5.31 14.16 5.31 15.93 0 27.49-11.57 27.49-28.32-.01-16.76-11.57-28.32-28.79-28.32zm.46 45.31c-9.32 0-15.46-6.73-15.46-16.99 0-10.27 6.14-16.99 15.46-16.99s15.46 6.72 15.46 16.99c0 10.26-6.14 16.99-15.46 16.99zm-96.15-21.71-4.72-2.36c-5.2-2.6-6.49-3.66-6.49-6.02 0-2.59 2-4.25 5.66-4.25 3.19 0 6.96 1.18 11.33 3.66l4.84-9.67c-5.9-3.9-11.8-4.96-16.76-4.96-10.74 0-17.58 6.73-17.58 15.58 0 7.55 3.77 12.27 13.57 16.87l4.48 2.12c4.72 2.24 6.14 3.9 6.14 6.02 0 3.19-3.07 4.72-7.91 4.72-4.36 0-8.61-1.3-13.1-4.01l-4.95 10.15c6.13 3.89 12.98 5.19 18.64 5.19 11.8 0 20.06-5.78 20.06-16.64-.01-7.2-3.77-11.68-13.21-16.4zm-43.43-22.18v3.42c0 .71-.35 1.06-.82 1.06-.36 0-.59-.12-1.06-.59-3.07-2.95-8.5-5.31-14.16-5.31-15.93 0-27.5 11.56-27.5 28.32 0 16.75 11.57 28.32 27.5 28.32 5.66 0 11.09-2.36 14.16-5.31.47-.47.7-.59 1.06-.59.47 0 .82.35.82 1.06v3.42h12.63v-53.8zm-15.22 43.89c-9.32 0-15.46-6.73-15.46-16.99 0-10.27 6.14-16.99 15.46-16.99s15.46 6.72 15.46 16.99c0 10.26-6.15 16.99-15.46 16.99zm-74.57-12.51h41.06c.24-1.3.47-2.59.47-4.83 0-16.05-10.62-27.97-27.14-27.97-15.93 0-28.55 11.56-28.55 28.44 0 16.63 11.44 28.2 28.32 28.2 10.15 0 18.64-4.13 24.89-12.98l-8.96-7.2c-5.08 6.73-10.15 8.85-15.58 8.85-10.38 0-15.1-7.31-15.69-10.97-.25-1.18.12-1.54 1.18-1.54zm-.59-11.8c1.77-5.9 7.79-10.03 14.51-10.03 6.61 0 12.51 4.13 14.28 10.03.35 1.18.23 2.01-.83 2.01h-27.14c-1.07 0-1.19-.83-.82-2.01z" fill="#061340"/><path d="m349.3 40.75-18.76 49.67c-5.43 14.52-10.51 21.01-28.21 29.38l-5.3-10.62c10-5.2 15.06-8.91 18.07-14.25l-21.26-54.18h13.57l13.45 36.46c.35.82.71 1.06 1.18 1.06s.94-.24 1.18-1.06l12.74-36.46z" fill="#061340"/><path d="m53.24 73.9c.82.47 1.53.59 2.47.59.83 0 1.77-.23 2.48-.59l52.51-30.32v-8.03c0-2.95-1.53-5.66-4.01-7.08l-46.97-27.01999c-1.17-.699998-2.59-1.059995-4.01-1.059995-1.41 0-2.71.359997-4.01 1.059995l-46.95999 27.01999c-2.48 1.42-4.010014 4.13-4.010014 7.08v54.16c0 2.84 1.530014 5.55 4.010014 6.97l46.95999 27.14c1.3.7 2.6 1.06 4.01 1.06 1.42 0 2.84-.36 4.01-1.06l46.97-27.14c2.48-1.42 4.01-4.13 4.01-6.97v-8.02l-52.51 30.33c-.59.35-1.53.59-2.48.59-.82 0-1.65-.12-2.47-.59l-25.02-14.52v-12.62l25.02 14.39c.82.47 1.65.71 2.47.71.95 0 1.77-.24 2.48-.71l52.51-30.32v-12.75l-52.51 30.45c-.71.35-1.65.59-2.48.59-.94 0-1.65-.12-2.47-.59l-25.02-14.52v-12.74z" fill="#164dff"/></svg>