<?xml version="1.0" encoding="utf-8"?>
<!-- Generator: Adobe Illustrator 25.2.3, SVG Export Plug-In . SVG Version: 6.00 Build 0)  -->
<svg version="1.1" id="Layer_1" xmlns="http://www.w3.org/2000/svg" xmlns:xlink="http://www.w3.org/1999/xlink" x="0px" y="0px"
	 viewBox="0 0 125 25" style="enable-background:new 0 0 125 25;" xml:space="preserve">
<style type="text/css">
	.st0{fill-rule:evenodd;clip-rule:evenodd;fill:#FF6800;}
	.st1{fill-rule:evenodd;clip-rule:evenodd;fill:#FF8E40;}
	.st2{fill-rule:evenodd;clip-rule:evenodd;}
</style>
<g id="Canvas">
	<g id="Group_3">
		<g id="logo-chevron">
			<path class="st0" d="M98.5,6.9l4.6,8l-4.6,8h5.6l4.6-8l-4.6-8H98.5z"/>
			<path class="st1" d="M98.5,6.9l4.6,8h5.6l-4.6-8H98.5z"/>
		</g>
		<g id="logo-text">
			<path class="st2" d="M87.8,13c0.4-1.5,1.9-2.7,3.6-2.7c1.7,0,3.2,1.2,3.6,2.7H87.8z M99.8,15.1c0-4.8-3.6-8.8-8.4-8.8
				c-3.9,0-7,2.7-8.1,6.3V3.1c0-0.9-0.7-1.5-1.5-1.5h-3v21.3h3c0.9,0,1.5-0.9,1.5-1.8V17c1.1,3.6,4.3,6.4,8.2,6.4
				c3.6,0,6.4-2.4,7.8-5.4h-4.9c-0.8,0.8-1.6,1.5-2.9,1.5c-1.9,0-3.4-1.1-3.7-3h11.9C99.8,16.1,99.8,15.5,99.8,15.1z"/>
			<path class="st2" d="M68.3,18.8c-2.4,0-4-1.8-4-4.1c0-2.3,1.7-4,4-4c2.3,0,4,1.7,4,4C72.4,17.1,70.7,18.8,68.3,18.8z M33.2,13
				c0.4-1.5,1.9-2.7,3.6-2.7c1.7,0,3.2,1.2,3.6,2.7H33.2z M72.2,3.1v5.1c-1.5-1.3-2.9-1.9-4.7-1.9c-4,0-6.9,2.7-7.7,6.3
				c0-1.8-0.4-3.7-1.8-5c-1-0.9-2.7-1.4-4.1-1.4c-1.9,0-3.3,0.7-4.3,2.2h-0.1v0c0-0.9-0.6-1.5-1.5-1.5h-2.7v6
				c-1.1-3.8-4.1-6.6-8.3-6.6c-4.7,0-8.4,3.9-8.4,8.6c0,0.2,0,0.3,0,0.5c-2-2.7-7.3-2.2-7.3-4.2c0-0.7,0.7-1,1.3-1
				c0.8,0,1.5,0.2,1.5,1.3h4.7c-0.3-3.4-2.9-5.2-6.1-5.2c-3.1,0-6.2,2-6.2,5.3c0,2.2,1.9,3.4,3.8,4.1c0.7,0.3,1.4,0.5,2.1,0.7
				c0.9,0.3,2.2,0.7,2.2,1.8c0,0.8-0.9,1.2-1.7,1.2c-0.9,0-1.7-0.3-1.8-1.5h-4.7c0.4,3.8,3.2,5.4,6.5,5.4c3.1,0,6.2-1.8,6.5-5.1
				c1.3,2.9,4.3,5.1,7.7,5.1c3.6,0,6.4-2.4,7.8-5.4h-4.9c-0.8,0.8-1.6,1.5-2.9,1.5c-1.9,0-3.4-1.1-3.7-3h12v6.5h4.6v-8.8
				c0-1.9,0.6-3.3,2.8-3.3c2.2,0,2.5,1.5,2.5,3.3v7.1c0,0.9,0.6,1.8,1.5,1.8h3v-6c0.8,3.7,3.7,6.5,7.8,6.5c1.8,0,3.7-0.4,4.8-2.3
				v0.1c0,0.8,0.8,1.7,1.7,1.7h2.8V1.6h-3.1C72.8,1.6,72.2,2.3,72.2,3.1z"/>
		</g>
	</g>
</g>
</svg>
