<svg xmlns="http://www.w3.org/2000/svg" width="512" height="512" viewBox="0 0 512 512"><path fill="#E7262D" d="M512 472c0 22.1-17.9 40-40 40H40c-22.1 0-40-17.9-40-40V40C0 17.9 17.9 0 40 0h432c22.1 0 40 17.9 40 40v432z"/><path fill-rule="evenodd" clip-rule="evenodd" fill="#FFF" d="M204.2 87.6c-73 21.8-125.4 88.3-125.4 167.8 0 80.7 52.3 147.2 125.4 169V87.6zM255.5 80h-12v18.5h7.6c60 0 110.1 49.1 110.1 109s-49.1 109-109 110.1V432h3.3c98.1 0 177.7-78.5 177.7-176.6-.1-97-79.6-175.4-177.7-175.4z"/></svg>