<?xml version="1.0" encoding="utf-8"?>
<!-- Generator: Adobe Illustrator 25.2.3, SVG Export Plug-In . SVG Version: 6.00 Build 0)  -->
<svg version="1.1" id="Layer_1" xmlns="http://www.w3.org/2000/svg" xmlns:xlink="http://www.w3.org/1999/xlink" x="0px" y="0px"
	 viewBox="0 0 125 25" style="enable-background:new 0 0 125 25;" xml:space="preserve">
<style type="text/css">
	.st0{fill:#F48120;}
	.st1{fill-rule:evenodd;clip-rule:evenodd;fill:#FFFFFF;}
</style>
<g>
	<path class="st0" d="M125,0v25H0V0H125z"/>
	<path class="st1" d="M80.6,2.2L80.6,2.2c-3.9,0-7.3,2.2-9.1,5.4c-1.7-3.2-5.1-5.4-9-5.4h-0.3c-3.8,0.1-7.1,2.3-8.8,5.4
		c-1.7-3.2-5.2-5.4-9.1-5.4c-5.7,0-10.3,4.6-10.3,10.3c0,5.7,4.6,10.3,10.3,10.3c3.9,0,7.3-2.2,9.1-5.4c1.7,3.2,5,5.3,8.8,5.4h0.3
		c3.9,0,7.3-2.2,9-5.4c1.8,3.2,5.2,5.4,9,5.4h0c5.7,0,10.3-4.6,10.3-10.3C90.9,6.8,86.3,2.2,80.6,2.2z M52.2,12.8
		c-0.2,4.2-3.6,7.5-7.8,7.5c-4.3,0-7.8-3.5-7.8-7.8c0-4.3,3.5-7.8,7.8-7.8c4.2,0,7.7,3.4,7.8,7.5c0,0.1,0,0.2,0,0.3
		C52.2,12.6,52.2,12.7,52.2,12.8L52.2,12.8z M70.3,12.8c-0.2,4.2-3.6,7.5-7.8,7.5h-0.3c-4.1-0.2-7.4-3.4-7.6-7.5v-0.6
		c0.2-4.1,3.5-7.4,7.6-7.5h0.3c4.2,0,7.7,3.4,7.8,7.5V12.8z M80.6,20.3L80.6,20.3c-4.2,0-7.6-3.4-7.8-7.5v-0.6
		c0.2-4.2,3.6-7.5,7.8-7.5h0c4.3,0,7.8,3.5,7.8,7.8C88.4,16.8,84.9,20.3,80.6,20.3z"/>
	<path class="st1" d="M75.9,10.3h3v6.9h3.3v-6.9h3.1V7.8h-9.4V10.3z M63.8,12.2l-1.5-2.1l-1.7-2.3h-2.8v9.5h2.8v-4.4l1.7,2.3
		l1.5,2.1h2.9V7.8h-2.9V12.2z M39.7,10.3h3v6.9h3.3v-6.9h3.2V7.8h-9.4V10.3z"/>
</g>
</svg>
