<?xml version="1.0" encoding="utf-8"?>
<!-- Generator: Adobe Illustrator 25.2.3, SVG Export Plug-In . SVG Version: 6.00 Build 0)  -->
<svg version="1.1" id="Layer_1" xmlns="http://www.w3.org/2000/svg" xmlns:xlink="http://www.w3.org/1999/xlink" x="0px" y="0px"
	 viewBox="0 0 512 512" style="enable-background:new 0 0 512 512;" xml:space="preserve">
<style type="text/css">
	.st0{fill:#341B14;}
	.st1{fill:#FFB406;}
</style>
<path class="st0" d="M461.3,512H50.7C22.7,512,0,489.3,0,461.3V50.7C0,22.7,22.7,0,50.7,0h410.6c28,0,50.7,22.7,50.7,50.7v410.6
	C512,489.3,489.3,512,461.3,512z"/>
<g>
	<path class="st0" d="M256,446.2c3.3-1.7,89.3-38.9,116.6-61.2c28.1-23.1,43-56.2,43-95.9v-186l-2.5-0.8
		c-68.6-37.2-153.8-34.7-157.9-34.7c-3.3,0-88.4-2.5-157.1,34.7l-1.7,0.8v186.8c0,39.7,14.9,72.7,43,95.9
		C166.7,408.1,252.7,445.3,256,446.2"/>
	<path class="st1" d="M256,450.3c0,0-90.9-39.7-119-62c-29.8-24.8-43.8-58.7-43.8-97.5V97.3C165.1,58.5,256,61.8,256,61.8
		s90.9-3.3,162.8,35.5v192.6c0,38.9-14.1,72.7-43.8,97.5C346.9,410.6,256,450.3,256,450.3 M106.4,290.8c0,36.4,13.2,66.1,38.9,86.8
		c23.1,19,91.8,49.6,110.8,57.9c19-8.3,88.4-39.7,110.8-57.9c25.6-20.7,38.9-51.3,38.9-86.8V100.6c-95.9-9.1-210-4.1-299.2,78.5
		L106.4,290.8L106.4,290.8z"/>
	<path class="st1" d="M347.8,263.5c12.4,7.4,17.4,12.4,18.2,21.5c0,9.9-6.6,15.7-17.4,15.7c-9.1,0-19.8-5-27.3-11.6v26.5
		c9.1,5,19.8,9.1,31.4,9.1c28.1,0,41.3-19.8,41.3-38c0.8-16.5-4.1-29.8-28.1-43.8c-10.7-6.6-19-10.7-19-20.7s9.1-14.1,16.5-14.1
		c9.9,0,19.8,5.8,25.6,11.6v-24.8c-5-4.1-15.7-9.9-31.4-9.1c-19,0.8-38.9,14.1-38.9,37.2C319.7,238.7,324.6,250.2,347.8,263.5
		 M250.2,323c2.5,0.8,6.6,1.7,13.2,1.7c32.2,0,50.4-28.9,50.4-70.3c0-42.2-19-67.8-52.9-67.8c-15.7,0-28.1,3.3-38.9,9.9v186.8h28.1
		V323L250.2,323z M250.2,210.6c2.5-0.8,6.6-2.5,9.9-2.5c16.5,0,23.1,13.2,23.1,45.5c0,31.4-8.3,46.3-24.8,46.3
		c-4.1,0-7.4-0.8-9.1-1.7v-87.6H250.2z M163.4,324.6c17.4,0,32.2-4.1,43-11.6V188.3h-28.9v108.3c-3.3,2.5-7.4,3.3-13.2,3.3
		c-13.2,0-14.9-12.4-14.9-19.8v-91.8h-28.9v90.1C120.4,308.9,135.3,324.6,163.4,324.6"/>
</g>
</svg>
