<?xml version="1.0" encoding="utf-8"?>
<!-- Generator: Adobe Illustrator 25.2.3, SVG Export Plug-In . SVG Version: 6.00 Build 0)  -->
<svg version="1.1" id="Layer_1" xmlns="http://www.w3.org/2000/svg" xmlns:xlink="http://www.w3.org/1999/xlink" x="0px" y="0px"
	 viewBox="0 0 125 25" style="enable-background:new 0 0 125 25;" xml:space="preserve">
<style type="text/css">
	.st0{fill:#0D8484;}
	.st1{fill:#FAAD39;}
</style>
<g>
	<g transform="translate(0.000000,256.000000) scale(0.100000,-0.100000)">
		<path class="st0" d="M336.9,2545.4c-22.6-8.1-39.7-21.2-51.9-39.4c-3.2-4.6-4.2-4.8-12.7-2.5c-12.5,3.5-35.1,1.4-46.4-4.4
			c-12.9-6.7-25.4-20.1-31.1-33.9c-4.4-10.8-5.8-12-15.7-14.8c-15-3.9-35.5-25.1-40.4-42c-7.8-26.5-2.5-47.5,16.8-66.6
			c15.7-15.2,29.7-20.8,53.3-20.8h15.5l6.7,12c3.7,6.7,7.1,12.9,7.4,13.8c0.5,1.2-11.3,1.8-26.3,1.8h-27l-10.8,11.1
			c-12.2,12.2-15.7,24.2-11.5,39.4c3.7,13.6,19.8,27.2,34.6,29.3c12.7,1.6,18.4,6.9,18.4,16.6c0,12,14.3,28.8,27.9,32.7
			c12.2,3.5,18.7,2.8,31.6-3.7c14.5-7.1,16.4-6.5,30.2,14.3c17.8,26.8,37.8,36.9,69.4,35.1c39.9-2.3,66.2-30.2,69.2-73.3
			c1.2-18.9,1.4-19.6,8.1-22.8c11.1-5.1,24.2-18.9,26.5-28.4c4.2-15,0.7-27-11.5-39.2l-10.8-11.1h-47.5h-47.5l-6.9-12.5
			c-3.9-6.7-7.1-12.9-7.1-13.8c0-0.7,22.6-1.4,50.3-1.4c62.7,0,69.2,1.4,88.3,20.5c19.6,19.6,24.7,40.4,16.8,67.3
			c-3,9.9-6.5,15.2-18,26.3c-14.1,13.8-14.5,14.3-15.9,28.6c-2.8,30.4-24.4,61.1-54,75.6c-16.6,8.3-19.1,8.8-42,9.5
			C354,2549.4,345.9,2548.4,336.9,2545.4z"/>
		<path class="st0" d="M986.5,2464c-8.3-5.1-12-12.5-12-24.2c0-11.3,6-16.8,25.1-22.6c18.4-5.5,22.4-9.2,20.3-18.2
			c-2.5-9.9-20.1-14.1-38-9c-6.9,2.1-7.4,1.8-7.4-3.5c0-7.1,7.4-10.1,24.4-10.1c24,0,35.5,9,35.5,27.7c0,13.6-5.3,18.9-24.2,24.2
			c-21.7,6.2-27.2,14.3-17.1,24.4c4.4,4.4,6.9,4.8,18,3.7c7.1-0.7,14.8-1.8,17.1-2.8c3.7-1.6,4.2-0.7,3.5,4.8
			c-0.9,7.6-5.8,9.7-24.9,9.9C997.8,2468.7,991.8,2467.3,986.5,2464z"/>
		<path class="st0" d="M1065.4,2464.3c-7.1-4.4-12.5-14.8-12.5-24.7c0-9.5,10.4-18.7,24.9-21.9c22.1-5.1,29.3-18.7,14.1-27
			c-5.8-3-27.2-2.8-34.8,0.7c-3.5,1.4-4.2,0.5-4.2-4.4c0-8.3,8.3-11.3,29.3-10.1c14.5,0.7,17.5,1.6,23.5,7.4
			c8.3,8.1,11.1,19.4,7.1,29.3c-3.5,7.8-9.9,11.8-27.2,15.9c-14.5,3.5-20.3,9.9-16.8,19.1c3.5,8.8,21.9,11.1,38.7,4.6
			c2.5-0.9,3.2,0.2,2.5,5.3c-0.9,7.6-5.8,9.7-24.9,9.9C1076.5,2468.7,1070.2,2467.3,1065.4,2464.3z"/>
		<path class="st0" d="M561.8,2421.4v-45h28.8h28.8v6.9v6.9h-21.9h-21.9v13.8v13.8H594c18.2,0,18.4,0,18.4,5.8s-0.2,5.8-18.4,5.8
			h-18.4v12.7v12.7h20.8c20.5,0,20.8,0,20.8,5.8v5.8h-27.7h-27.7V2421.4z"/>
		<path class="st0" d="M635.6,2465c0-0.7,6.5-10.6,14.3-21.9c12.9-18.7,13.8-20.8,10.6-24.4c-1.8-2.3-9.2-12.7-16.6-23.1l-13.1-19.1
			h7.8c7.4,0,9,1.4,20.8,18.7l12.7,18.4l12.5-18c10.6-15.5,13.4-18,19.8-18.7c3.9-0.5,7.4-0.2,7.4,0.5s-7.1,11.3-15.9,23.8
			l-15.7,22.4l13.1,18.4c18.2,26.1,17.5,24.4,8.5,24.4c-7.1,0-8.8-1.4-18.7-16.4l-10.8-16.1l-11.5,16.1
			c-9.7,14.1-12.5,16.4-18.2,16.4C638.5,2466.4,635.6,2465.7,635.6,2465z"/>
		<path class="st0" d="M727.8,2421.6v-45.2h6.9h6.9v18.4v18.4h9.9c23.5,0,38.5,10.8,38.5,27.9c0,6.7-1.6,10.8-6.7,16.4
			c-6.7,7.6-6.9,7.6-31.1,8.3l-24.4,0.9V2421.6z M771.6,2450.2c5.8-5.8,5.8-11.8,0.5-18.4c-3.2-4.2-7.4-5.5-17.3-6.5l-13.1-0.9v15.2
			v15.2h12.7C764,2454.8,768.1,2453.7,771.6,2450.2z"/>
		<path class="st0" d="M810.8,2421.4v-45h6.9h6.9v18.4v18.4h6.7c6,0,8.5-2.3,19.1-17.8c11.3-16.6,12.9-18,21.2-18.7l8.8-0.7
			l-12.9,18.4c-12.5,17.5-14.3,23.3-7.4,23.3c9.5,0,17.8,20.8,13.1,32.7c-4.4,11.8-14.8,15.7-39.9,15.7h-22.6V2421.4z M853.5,2453.4
			c5.3-2.1,8.3-11.3,5.8-18c-2.3-6.2-12.7-10.6-25.6-10.6h-9v15v15h12.5C844,2454.8,851.4,2454.1,853.5,2453.4z"/>
		<path class="st0" d="M898.4,2421.4v-45h28.8h28.8v6.9v6.9h-21.9h-21.9v13.8v13.8h18.4c18.2,0,18.4,0,18.4,5.8s-0.2,5.8-18.4,5.8
			h-18.4v12.7v12.7H933c20.5,0,20.8,0,20.8,5.8v5.8h-27.7h-27.7V2421.4z"/>
		<path class="st0" d="M296.8,2413.8c-10.8-18.7-27-46.6-36.4-62.3c-9.2-15.5-16.8-28.8-16.8-29.3c0-0.7,6-1.2,13.4-1.2H270
			l31.1,54.2l31.1,54.2h14.5c8.5,0,14.3-0.9,14.3-2.5c0-2.3-16.6-32.1-41.5-73.6c-21.4-35.7-20.8-32.3-5.1-32.3h13.4l31.1,53.7
			l30.9,53.5l15.7,1.2c14.5,1.2,15.9,1.6,20.1,8.8c2.5,4.2,4.6,8.1,4.6,8.5c0,0.7-25.6,1.2-57,1.2h-57.2L296.8,2413.8z"/>
	</g>
	<polygon class="st1" points="26.2,16.8 22.8,11.2 29.5,11.2 	"/>
</g>
</svg>
