<?xml version="1.0" encoding="utf-8"?>
<!-- Generator: Adobe Illustrator 25.4.1, SVG Export Plug-In . SVG Version: 6.00 Build 0)  -->
<svg version="1.1"
	 id="svg58" inkscape:version="1.0 (4035a4f, 2020-05-01)" sodipodi:docname="logo.svg" xmlns:cc="http://creativecommons.org/ns#" xmlns:dc="http://purl.org/dc/elements/1.1/" xmlns:inkscape="http://www.inkscape.org/namespaces/inkscape" xmlns:rdf="http://www.w3.org/1999/02/22-rdf-syntax-ns#" xmlns:sodipodi="http://sodipodi.sourceforge.net/DTD/sodipodi-0.dtd" xmlns:svg="http://www.w3.org/2000/svg"
	 xmlns="http://www.w3.org/2000/svg" xmlns:xlink="http://www.w3.org/1999/xlink" x="0px" y="0px" viewBox="0 0 125 25"
	 style="enable-background:new 0 0 125 25;" xml:space="preserve">
<style type="text/css">
	.st0{fill:#5722CC;}
	.st1{fill:#79E5DD;}
	.st2{fill:#FF4800;}
</style>
<g id="g66" transform="matrix(1.3333333,0,0,-1.3333333,0,341.072)" inkscape:groupmode="layer" inkscape:label="Purplship Logos">
	<g id="g190" transform="matrix(0.95373055,0,0,0.82935773,-24.204626,32.972226)">
		<path id="path106" class="st0" d="M106.2,254.8h-2.7v5.6h2.7V254.8z M103.4,262c0,0.7,0.6,1.2,1.5,1.2c0.9,0,1.5-0.5,1.5-1.2
			c0-0.7-0.6-1.2-1.5-1.2C104,260.8,103.4,261.3,103.4,262"/>
		<g id="g171">
			<g id="g80" transform="matrix(1.3760598,0,0,1.3974361,196.98304,189.97855)">
				<path id="path82" class="st0" d="M-101.9,48.8V48c0.3-0.3,0.6-0.4,0.9-0.4c0.5,0,0.8,0.3,0.8,0.8c0,0.5-0.3,0.8-0.8,0.8
					C-101.3,49.2-101.7,49.1-101.9,48.8 M-101.9,46.9v-1.9h-1.9v5.5h1.9v-0.5c0.4,0.5,0.9,0.6,1.5,0.6c1.2,0,2.1-0.8,2.1-2.2
					c0-1.4-0.8-2.2-2.1-2.2C-101,46.2-101.5,46.4-101.9,46.9"/>
			</g>
			<g id="g84" transform="matrix(1.3760598,0,0,1.3974361,288.51385,206.56639)">
				<path id="path86" class="st0" d="M-159.2,38.5v-4h-1.9V35c-0.4-0.5-0.9-0.7-1.5-0.7c-1.1,0-1.8,0.7-1.8,1.7v2.4h1.9v-2.3
					c0-0.3,0.2-0.5,0.5-0.5c0.3,0,0.5,0.1,0.8,0.5v2.3H-159.2z"/>
			</g>
			<g id="g88" transform="matrix(1.3760598,0,0,1.3974361,296.03925,166.18119)">
				<path id="path90" class="st0" d="M-163.9,63.4v4h1.9v-0.6c0.3,0.5,0.9,0.7,1.5,0.7V66c-0.8,0-1.4-0.3-1.5-0.9v-1.7H-163.9z"/>
			</g>
			<g id="g92" transform="matrix(1.3760598,0,0,1.3974361,353.98292,189.97855)">
				<path id="path94" class="st0" d="M-200.1,48.8V48c0.3-0.3,0.6-0.4,0.9-0.4c0.5,0,0.8,0.3,0.8,0.8c0,0.5-0.3,0.8-0.8,0.8
					C-199.5,49.2-199.9,49.1-200.1,48.8 M-200.1,46.9v-1.9h-1.9v5.5h1.9v-0.5c0.4,0.5,0.9,0.6,1.5,0.6c1.2,0,2.1-0.8,2.1-2.2
					c0-1.4-0.8-2.2-2.1-2.2C-199.2,46.2-199.7,46.4-200.1,46.9"/>
			</g>
			<path id="path96" class="st0" d="M84.3,262.2H87v-7.4h-2.7V262.2z"/>
			<g id="g98" transform="matrix(1.3760598,0,0,1.3974361,469.22999,179.73939)">
				<path id="path100" class="st0" d="M-272.2,55.1c0-0.8-0.8-1.5-2.5-1.5c-1.1,0-2,0.3-2.6,0.7l0.8,0.9c0.5-0.3,1.1-0.5,1.9-0.5
					c0.4,0,0.6,0,0.6,0.2c0,0.1-0.2,0.2-0.7,0.2c-1.2,0.1-2.4,0.5-2.4,1.4c0,0.9,1,1.5,2.5,1.5c0.9,0,1.7-0.2,2.3-0.5l-0.8-1
					c-0.4,0.2-1,0.3-1.6,0.3c-0.4,0-0.7,0-0.7-0.2c0-0.1,0.2-0.1,0.8-0.2C-273.3,56.4-272.2,56-272.2,55.1"/>
			</g>
			<g id="g102" transform="matrix(1.3760598,0,0,1.3974361,525.5396,190.48358)">
				<path id="path104" class="st0" d="M-307.4,48.4V46h-1.9v2.3c0,0.3-0.2,0.5-0.5,0.5c-0.3,0-0.5-0.1-0.8-0.5V46h-1.9v4v1.3h1.9
					v-1.4v-0.4c0.4,0.5,0.9,0.7,1.5,0.7C-308.1,50.2-307.4,49.5-307.4,48.4"/>
			</g>
			<g id="g108" transform="matrix(1.3760598,0,0,1.3974361,578.43988,189.97855)">
				<path id="path110" class="st0" d="M-340.5,48.8V48c0.3-0.3,0.6-0.4,0.9-0.4c0.5,0,0.8,0.3,0.8,0.8c0,0.5-0.3,0.8-0.8,0.8
					C-339.9,49.2-340.2,49.1-340.5,48.8 M-340.5,46.9v-1.9h-1.9v5.5h1.9v-0.5c0.4,0.5,0.9,0.6,1.5,0.6c1.2,0,2.1-0.8,2.1-2.2
					c0-1.4-0.8-2.2-2.1-2.2C-339.6,46.2-340.1,46.4-340.5,46.9"/>
			</g>
		</g>
	</g>
	<g id="g154" transform="matrix(0.78790787,0,0,0.7116135,1.5877066,64.80969)">
		<g id="g112" transform="matrix(0.58687978,0,0,0.63104462,85.796268,245.1792)">
			<path id="path114" class="st1" d="M-113.5,32.4h-5.2v0h-7.2c-3,0-5.5-2.5-5.5-5.5v-11c0-3,2.5-5.5,5.5-5.5h9.4
				c1.1,0,2.1,0.3,2.9,0.9v20.2V32.4z"/>
		</g>
		<g id="g116" transform="matrix(0.58687978,0,0,0.63104462,75.045858,130.59279)">
			<path id="path118" class="st2" d="M-97.7,188.7c0-4.2-3.4-7.7-7.7-7.7c-4.2,0-7.7,3.4-7.7,7.7c0,4.2,3.4,7.7,7.7,7.7
				C-101.1,196.3-97.7,192.9-97.7,188.7"/>
		</g>
		<g id="g120" transform="matrix(0.58687978,0,0,0.63104462,139.54759,187.33967)">
			<path id="path122" class="st0" d="M-192.3,111.3c0-7.1-5.7-12.8-12.8-12.8c-7.1,0-12.8,5.7-12.8,12.8c0,7.1,5.7,12.8,12.8,12.8
				C-198,124.1-192.3,118.3-192.3,111.3"/>
		</g>
	</g>
</g>
</svg>
