<?xml version="1.0" encoding="utf-8"?>
<!-- Generator: Adobe Illustrator 26.0.0, SVG Export Plug-In . SVG Version: 6.00 Build 0)  -->
<svg version="1.1"
	 id="svg58" inkscape:version="1.0 (4035a4f, 2020-05-01)" sodipodi:docname="logo.svg" xmlns:cc="http://creativecommons.org/ns#" xmlns:dc="http://purl.org/dc/elements/1.1/" xmlns:inkscape="http://www.inkscape.org/namespaces/inkscape" xmlns:rdf="http://www.w3.org/1999/02/22-rdf-syntax-ns#" xmlns:sodipodi="http://sodipodi.sourceforge.net/DTD/sodipodi-0.dtd" xmlns:svg="http://www.w3.org/2000/svg"
	 xmlns="http://www.w3.org/2000/svg" xmlns:xlink="http://www.w3.org/1999/xlink" x="0px" y="0px" viewBox="0 0 125 25"
	 style="enable-background:new 0 0 125 25;" xml:space="preserve">
<style type="text/css">
	.st0{fill:#5722CC;}
	.st1{fill:#79E5DD;}
	.st2{fill:#FF4800;}
</style>
<g>
	<g id="g190" transform="matrix(0.95373055,0,0,0.82935773,-24.204626,32.972226)">
		<path id="path106" class="st0" d="M139.7-18.9h-4.8v-10h4.8V-18.9z M134.7-31.8c0-1.2,1.1-2.1,2.7-2.1s2.7,0.9,2.7,2.1
			s-1.1,2.1-2.7,2.1S134.7-30.5,134.7-31.8"/>
		<g id="g171">
			<g id="g80" transform="matrix(1.3760598,0,0,1.3974361,196.98304,189.97855)">
				<path id="path82" class="st0" d="M-105.7-153.8v1.4c0.5,0.5,1.1,0.7,1.6,0.7c0.9,0,1.4-0.5,1.4-1.4c0-0.9-0.5-1.4-1.4-1.4
					C-104.6-154.5-105.3-154.3-105.7-153.8 M-105.7-150.4v3.4h-3.4v-9.8h3.4v0.9c0.7-0.9,1.6-1.1,2.7-1.1c2.1,0,3.7,1.4,3.7,3.9
					c0,2.5-1.4,3.9-3.7,3.9C-104.1-149.2-105-149.5-105.7-150.4"/>
			</g>
			<g id="g84" transform="matrix(1.3760598,0,0,1.3974361,288.51385,206.56639)">
				<path id="path86" class="st0" d="M-155.8-168.5v7.1h-3.4v-0.9c-0.7,0.9-1.6,1.2-2.7,1.2c-2,0-3.2-1.2-3.2-3v-4.3h3.4v4.1
					c0,0.5,0.4,0.9,0.9,0.9s0.9-0.2,1.4-0.9v-4.1h3.6V-168.5z"/>
			</g>
			<g id="g88" transform="matrix(1.3760598,0,0,1.3974361,296.03925,166.18119)">
				<path id="path90" class="st0" d="M-159.9-132.4v-7.1h3.4v1.1c0.5-0.9,1.6-1.2,2.7-1.2v2.7c-1.4,0-2.5,0.5-2.7,1.6v3
					C-156.5-132.4-159.9-132.4-159.9-132.4z"/>
			</g>
			<g id="g92" transform="matrix(1.3760598,0,0,1.3974361,353.98292,189.97855)">
				<path id="path94" class="st0" d="M-191.5-153.8v1.4c0.5,0.5,1.1,0.7,1.6,0.7c0.9,0,1.4-0.5,1.4-1.4c0-0.9-0.5-1.4-1.4-1.4
					C-190.4-154.5-191.1-154.3-191.5-153.8 M-191.5-150.4v3.4h-3.4v-9.8h3.4v0.9c0.7-0.9,1.6-1.1,2.7-1.1c2.1,0,3.7,1.4,3.7,3.9
					c0,2.5-1.4,3.9-3.7,3.9C-189.8-149.2-190.7-149.5-191.5-150.4"/>
			</g>
			<path id="path96" class="st0" d="M100.6-32.1h4.8v13.2h-4.8V-32.1z"/>
			<g id="g98" transform="matrix(1.3760598,0,0,1.3974361,469.22999,179.73939)">
				<path id="path100" class="st0" d="M-254.4-144.6c0,1.4-1.4,2.7-4.5,2.7c-2,0-3.6-0.5-4.6-1.2l1.4-1.6c0.9,0.5,2,0.9,3.4,0.9
					c0.7,0,1.1,0,1.1-0.4c0-0.2-0.4-0.4-1.2-0.4c-2.1-0.2-4.3-0.9-4.3-2.5s1.8-2.7,4.5-2.7c1.6,0,3,0.4,4.1,0.9l-1.4,1.8
					c-0.7-0.4-1.8-0.5-2.9-0.5c-0.7,0-1.2,0-1.2,0.4c0,0.2,0.4,0.2,1.4,0.4C-256.4-147-254.4-146.2-254.4-144.6"/>
			</g>
			<g id="g102" transform="matrix(1.3760598,0,0,1.3974361,525.5396,190.48358)">
				<path id="path104" class="st0" d="M-285.2-154.1v4.3h-3.4v-4.1c0-0.5-0.4-0.9-0.9-0.9s-0.9,0.2-1.4,0.9v4.1h-3.4v-7.1v-2.3h3.4
					v2.5v0.7c0.7-0.9,1.6-1.2,2.7-1.2C-286.4-157.3-285.2-156-285.2-154.1"/>
			</g>
			<g id="g108" transform="matrix(1.3760598,0,0,1.3974361,578.43988,189.97855)">
				<path id="path110" class="st0" d="M-314.1-153.8v1.4c0.5,0.5,1.1,0.7,1.6,0.7c0.9,0,1.4-0.5,1.4-1.4c0-0.9-0.5-1.4-1.4-1.4
					C-313-154.5-313.6-154.3-314.1-153.8 M-314.1-150.4v3.4h-3.4v-9.8h3.4v0.9c0.7-0.9,1.6-1.1,2.7-1.1c2.1,0,3.7,1.4,3.7,3.9
					c0,2.5-1.4,3.9-3.7,3.9C-312.5-149.2-313.4-149.5-314.1-150.4"/>
			</g>
		</g>
	</g>
	<g id="g154" transform="matrix(0.78790787,0,0,0.7116135,1.5877066,64.80969)">
		<g id="g112" transform="matrix(0.58687978,0,0,0.63104462,85.796268,245.1792)">
			<path id="path114" class="st1" d="M-126-524.1h-6l0,0h-8.4c-3.5,0-6.4,2.9-6.4,6.4v12.8c0,3.5,2.9,6.4,6.4,6.4h10.9
				c1.3,0,2.4-0.3,3.4-1v-23.4v-1H-126z"/>
		</g>
		<g id="g116" transform="matrix(0.58687978,0,0,0.63104462,75.045858,130.59279)">
			<path id="path118" class="st2" d="M-110.6-313.2c0,4.9-3.9,8.9-8.9,8.9c-4.9,0-8.9-3.9-8.9-8.9c0-4.9,3.9-8.9,8.9-8.9
				C-114.5-322-110.6-318.1-110.6-313.2"/>
		</g>
		<g id="g120" transform="matrix(0.58687978,0,0,0.63104462,139.54759,187.33967)">
			<path id="path122" class="st0" d="M-202.7-417.7c0,8.2-6.6,14.9-14.9,14.9s-14.9-6.6-14.9-14.9s6.6-14.9,14.9-14.9
				C-209.4-432.5-202.7-425.8-202.7-417.7"/>
		</g>
	</g>
</g>
</svg>
