<?xml version="1.0" encoding="utf-8"?>
<!-- Generator: Adobe Illustrator 26.0.0, SVG Export Plug-In . SVG Version: 6.00 Build 0)  -->
<svg version="1.1"
	 id="svg58" inkscape:version="1.0 (4035a4f, 2020-05-01)" sodipodi:docname="logo.svg" xmlns:cc="http://creativecommons.org/ns#" xmlns:dc="http://purl.org/dc/elements/1.1/" xmlns:inkscape="http://www.inkscape.org/namespaces/inkscape" xmlns:rdf="http://www.w3.org/1999/02/22-rdf-syntax-ns#" xmlns:sodipodi="http://sodipodi.sourceforge.net/DTD/sodipodi-0.dtd" xmlns:svg="http://www.w3.org/2000/svg"
	 xmlns="http://www.w3.org/2000/svg" xmlns:xlink="http://www.w3.org/1999/xlink" x="0px" y="0px" viewBox="0 0 125 25"
	 style="enable-background:new 0 0 125 25;" xml:space="preserve">
<style type="text/css">
	.st0{fill:#FFFFFF;}
	.st1{fill:#79E5DD;}
	.st2{fill:#FF4800;}
</style>
<g>
	<g id="g190" transform="matrix(0.95373055,0,0,0.82935773,-24.204626,32.972226)">
		<path id="path106" class="st0" d="M139.7-19.2h-4.6v-9.5h4.6V-19.2z M135-31.5c0-1.1,1-2,2.6-2c1.5,0,2.6,0.9,2.6,2s-1,2-2.6,2
			C136-29.5,135-30.2,135-31.5"/>
		<g id="g171">
			<g id="g80" transform="matrix(1.3760598,0,0,1.3974361,196.98304,189.97855)">
				<path id="path82" class="st0" d="M-102.4-153.8v1.3c0.5,0.5,1,0.7,1.5,0.7c0.9,0,1.3-0.5,1.3-1.3s-0.5-1.3-1.3-1.3
					C-101.4-154.5-102.1-154.3-102.4-153.8 M-102.4-150.6v3.2h-3.2v-9.3h3.2v0.9c0.7-0.9,1.5-1,2.6-1c2,0,3.5,1.3,3.5,3.7
					c0,2.4-1.3,3.7-3.5,3.7C-100.9-149.4-101.8-149.7-102.4-150.6"/>
			</g>
			<g id="g84" transform="matrix(1.3760598,0,0,1.3974361,288.51385,206.56639)">
				<path id="path86" class="st0" d="M-153.4-168.4v6.7h-3.2v-0.9c-0.7,0.9-1.5,1.1-2.6,1.1c-1.9,0-3-1.1-3-2.8v-4.1h3.2v3.9
					c0,0.5,0.4,0.9,0.9,0.9c0.5,0,0.9-0.2,1.3-0.9v-3.9L-153.4-168.4L-153.4-168.4z"/>
			</g>
			<g id="g88" transform="matrix(1.3760598,0,0,1.3974361,296.03925,166.18119)">
				<path id="path90" class="st0" d="M-157.5-132.6v-6.7h3.2v1c0.5-0.9,1.5-1.1,2.6-1.1v2.6c-1.3,0-2.4,0.5-2.6,1.5v2.8
					C-154.3-132.6-157.5-132.6-157.5-132.6z"/>
			</g>
			<g id="g92" transform="matrix(1.3760598,0,0,1.3974361,353.98292,189.97855)">
				<path id="path94" class="st0" d="M-189.7-153.8v1.3c0.5,0.5,1,0.7,1.5,0.7c0.9,0,1.3-0.5,1.3-1.3s-0.5-1.3-1.3-1.3
					C-188.6-154.5-189.3-154.3-189.7-153.8 M-189.7-150.6v3.2h-3.2v-9.3h3.2v0.9c0.7-0.9,1.5-1,2.6-1c2,0,3.5,1.3,3.5,3.7
					c0,2.4-1.3,3.7-3.5,3.7C-188.1-149.4-188.9-149.7-189.7-150.6"/>
			</g>
			<path id="path96" class="st0" d="M102.6-31.7h4.6v12.5h-4.6V-31.7z"/>
			<g id="g98" transform="matrix(1.3760598,0,0,1.3974361,469.22999,179.73939)">
				<path id="path100" class="st0" d="M-253.6-144.7c0,1.3-1.3,2.6-4.3,2.6c-1.9,0-3.4-0.5-4.4-1.1l1.3-1.5c0.9,0.5,1.9,0.9,3.2,0.9
					c0.7,0,1,0,1-0.4c0-0.2-0.4-0.4-1.1-0.4c-2-0.2-4.1-0.9-4.1-2.4c0-1.5,1.7-2.6,4.3-2.6c1.5,0,2.8,0.4,3.9,0.9l-1.3,1.7
					c-0.7-0.4-1.7-0.5-2.8-0.5c-0.7,0-1.1,0-1.1,0.4c0,0.2,0.4,0.2,1.3,0.4C-255.5-147-253.6-146.2-253.6-144.7"/>
			</g>
			<g id="g102" transform="matrix(1.3760598,0,0,1.3974361,525.5396,190.48358)">
				<path id="path104" class="st0" d="M-284.9-154.1v4.1h-3.2v-3.9c0-0.5-0.4-0.9-0.9-0.9s-0.9,0.2-1.3,0.9v3.9h-3.2v-6.7v-2.2h3.2
					v2.4v0.7c0.7-0.9,1.5-1.1,2.6-1.1C-286.1-157.1-284.9-155.9-284.9-154.1"/>
			</g>
			<g id="g108" transform="matrix(1.3760598,0,0,1.3974361,578.43988,189.97855)">
				<path id="path110" class="st0" d="M-314.3-153.8v1.3c0.5,0.5,1,0.7,1.5,0.7c0.9,0,1.3-0.5,1.3-1.3s-0.5-1.3-1.3-1.3
					C-313.3-154.5-313.8-154.3-314.3-153.8 M-314.3-150.6v3.2h-3.2v-9.3h3.2v0.9c0.7-0.9,1.5-1,2.6-1c2,0,3.5,1.3,3.5,3.7
					c0,2.4-1.3,3.7-3.5,3.7C-312.8-149.4-313.6-149.7-314.3-150.6"/>
			</g>
		</g>
	</g>
	<g id="g112" transform="matrix(0.58687978,0,0,0.63104462,85.796268,245.1792)">
		<path id="path114" class="st1" d="M-123.5-384.6h-5.5l0,0h-7.7c-3.2,0-5.9,2.4-5.9,5.3v10.7c0,2.9,2.7,5.3,5.9,5.3h10
			c1.2,0,2.2-0.2,3.1-0.8v-19.5v-0.8h0.1V-384.6z"/>
	</g>
	<g id="g116" transform="matrix(0.58687978,0,0,0.63104462,75.045858,130.59279)">
		<path id="path118" class="st2" d="M-107.9-178.6c0,4.1-3.6,7.4-8.2,7.4c-4.5,0-8.2-3.2-8.2-7.4c0-4.1,3.6-7.4,8.2-7.4
			C-111.5-185.9-107.9-182.7-107.9-178.6"/>
	</g>
	<g id="g120" transform="matrix(0.58687978,0,0,0.63104462,139.54759,187.33967)">
		<path id="path122" class="st0" d="M-201.4-280.6c0,6.8-6.1,12.4-13.7,12.4c-7.6,0-13.7-5.5-13.7-12.4s6.1-12.4,13.7-12.4
			C-207.6-292.9-201.4-287.4-201.4-280.6"/>
	</g>
</g>
</svg>
