<?xml version="1.0" encoding="utf-8"?>
<!-- Generator: Adobe Illustrator 25.2.3, SVG Export Plug-In . SVG Version: 6.00 Build 0)  -->
<svg version="1.1" id="Layer_1" xmlns="http://www.w3.org/2000/svg" xmlns:xlink="http://www.w3.org/1999/xlink" x="0px" y="0px"
	 viewBox="0 0 125 25" style="enable-background:new 0 0 125 25;" xml:space="preserve">
<style type="text/css">
	.st0{fill-rule:evenodd;clip-rule:evenodd;fill:#0234A0;}
	.st1{fill-rule:evenodd;clip-rule:evenodd;fill:#FB6A1F;}
</style>
<g>
	<path class="st0" d="M81.6,17.9c0.6,0,1.1,0,1.6,0c1.5-0.1,2.6-1.3,2.6-2.7s-1.2-2.6-2.6-2.6c-1,0-2,0-3,0c-1.5,0-2.6,1.1-2.7,2.5
		c0,1.5,1.1,2.6,2.6,2.7C80.6,17.9,81.1,17.9,81.6,17.9 M72.6,17.9c-0.5-1.6-0.6-3.2-0.1-4.7c0.1-0.5,0-0.5-0.4-0.5
		c-1.9,0-3.8,0-5.7,0c-1.5,0-2.6,1.1-2.6,2.6c-0.1,1.4,1,2.6,2.5,2.7h0.1C68.4,17.9,70.5,17.9,72.6,17.9 M43.1,12.7c-1,0-2,0-3,0
		c-0.4,0-0.5,0.1-0.5,0.5c0,1.4,0,2.9,0,4.3c0,0.3,0,0.5,0.4,0.5c2,0,4,0,5.9,0c1.4,0,2.5-1.2,2.5-2.6s-1.2-2.6-2.6-2.6l0,0
		C44.9,12.6,44,12.7,43.1,12.7 M53.5,17.6c-0.2,0.1-0.2,0.3-0.3,0.4c-1.3,3.2-3.7,5-7.2,5.1c-3.7,0.1-7.4,0-11.1,0
		c-0.4,0-0.5-0.1-0.5-0.5c0-4.9,0-9.8,0-14.7c0-0.4,0.1-0.5,0.5-0.5c3.8,0,7.6-0.1,11.4,0.1c3.3,0.1,5.5,1.9,6.8,4.9
		c0.1,0.2,0.1,0.4,0.3,0.6v-1.2c0-1.3,0-2.6,0-3.9c0-0.4,0.1-0.5,0.5-0.5c1.4,0,2.9,0,4.3,0c0.5,0,0.5,0.2,0.5,0.6c0,1.6,0,3.3,0,5
		c0.3-0.1,0.3-0.4,0.4-0.6c1.2-2.9,4-4.9,7.2-4.9c2,0,4,0,6,0c0.5,0,0.6,0.2,0.6,0.6c0,1.2,0,2.5,0.1,3.7c0.5-0.8,1-1.5,1.7-2.2
		c1.5-1.4,3.2-2.2,5.3-2.2c1.5,0,3.1-0.2,4.6,0.1c3,0.6,5,2.3,6.1,5.2c0.1,0.2,0.1,0.3,0.3,0.5v-1.9c0-1.1,0-2.3,0-3.4
		c0-0.4,0.1-0.6,0.5-0.6c4.9,0,9.7,0,14.6,0c4,0,7.4,3.5,7.5,7.5c0.1,2.6,0,5.1,0,7.7c0,0.4-0.1,0.5-0.5,0.5c-1.4,0-2.7,0-4.1,0
		c-0.5,0-0.6-0.1-0.6-0.6c0-2.6,0-5.1,0-7.6c0-1.3-1.1-2.4-2.4-2.4c-0.3,0-0.6,0.1-0.8,0.1c-0.3,0.1-0.2,0.4-0.2,0.6
		c0,3,0,6.1,0,9.1c0,0.6-0.1,0.8-0.8,0.8c-1.3,0-2.6,0-3.8,0c-0.5,0-0.6-0.1-0.6-0.6c0-3.1,0-6.1,0-9.2c0-0.5-0.1-0.7-0.7-0.7
		c-0.7,0-1.4,0-2.1,0c-0.6,0-0.7,0.2-0.7,0.7c0,3,0,6,0,9c0,0.6-0.1,0.8-0.8,0.8c-1.3,0-2.5,0-3.8,0c-0.5,0-0.7-0.1-0.7-0.7
		c0-1.7,0-3.5,0-5.2c-0.2,0-0.2,0.2-0.2,0.3c-1.2,3.3-3.5,5.2-6.9,5.5c-1.7,0.2-3.4,0.2-5-0.1c-2.3-0.4-4.2-1.6-5.4-3.6
		c-0.1-0.2-0.2-0.4-0.5-0.6c0,1.2,0,2.4,0,3.6c0,0.6-0.1,0.8-0.8,0.8c-2.2-0.1-4.3,0.1-6.5-0.1c-3.2-0.3-5.4-2.1-6.6-5.1
		c0-0.1-0.1-0.2-0.3-0.3v3.8c0,1.7,0,1.7-1.6,1.7c-1,0-1.9,0-2.9,0c-0.6,0-0.7-0.2-0.7-0.8C53.5,20.8,53.5,19.2,53.5,17.6"/>
	<g transform="translate(1.042 15.85)">
		<path class="st1" d="M13.2,7.3c-0.8,0-1.5,0-2.3,0c-0.4,0-0.6-0.1-0.5-0.5c0-1.3,0-2.6,0-3.9c0-0.4,0.1-0.5,0.5-0.5
			c1.5,0,3,0,4.5,0c0.4,0,0.5,0.1,0.5,0.5c0,1.3,0,2.5,0,3.8c0,0.4-0.1,0.6-0.5,0.5C14.6,7.3,13.9,7.3,13.2,7.3"/>
	</g>
	<path class="st1" d="M14.1,12.2c-0.8,0-1.5,0-2.3,0c-0.3,0-0.4-0.1-0.4-0.4c0-1.3,0-2.7,0-4c0-0.3,0.1-0.4,0.4-0.4
		c1.6,0,3.1,0,4.7,0c0.3,0,0.4,0.1,0.4,0.4c0,1.3,0,2.7,0,4c0,0.3-0.1,0.4-0.5,0.4C15.7,12.2,14.9,12.2,14.1,12.2 M20.2,7.4
		c0.8,0,1.5,0,2.3,0c0.4,0,0.5,0.1,0.5,0.5c0,1.3,0,2.6,0,3.9c0,0.4-0.1,0.5-0.5,0.5c-1.5,0-3,0-4.5,0c-0.4,0-0.5-0.1-0.5-0.5
		c0-1.3,0-2.6,0-4c0-0.3,0.1-0.4,0.5-0.4C18.7,7.4,19.5,7.4,20.2,7.4 M20.3,18.3c0.8,0,1.5,0,2.3,0c0.3,0,0.5,0.1,0.5,0.4
		c0,1.3,0,2.6,0,4c0,0.3-0.1,0.5-0.4,0.5c-1.5,0-3.1,0-4.6,0c-0.3,0-0.4-0.1-0.4-0.4c0-1.3,0-2.6,0-4c0-0.4,0.1-0.5,0.5-0.5
		C18.8,18.3,19.5,18.3,20.3,18.3 M26.3,12.2c-0.7,0-1.5,0-2.2,0c-0.4,0-0.5-0.1-0.5-0.5c0-1.3,0-2.5,0-3.8c0-0.4,0.1-0.6,0.6-0.6
		c1.5,0,2.9,0,4.4,0c0.4,0,0.5,0.1,0.5,0.5c0,1.3,0,2.5,0,3.8c0,0.4-0.1,0.6-0.6,0.6C27.8,12.2,27,12.2,26.3,12.2"/>
	<path class="st0" d="M26.3,23.1c-0.8,0-1.5,0-2.3,0c-0.4,0-0.5-0.1-0.5-0.5c0-1.3,0-2.6,0-4c0-0.3,0.1-0.4,0.4-0.4
		c1.5,0,3.1,0,4.6,0c0.3,0,0.4,0.1,0.4,0.4c0,1.3,0,2.7,0,4c0,0.3-0.1,0.4-0.4,0.4C27.9,23.1,27.1,23.1,26.3,23.1"/>
	<path class="st1" d="M14.1,17.7c-0.7,0-1.5,0-2.2,0c-0.3,0-0.5,0-0.5-0.4c0-1.3,0-2.6,0-4c0-0.3,0.1-0.4,0.4-0.4c1.5,0,3.1,0,4.6,0
		c0.3,0,0.4,0.1,0.4,0.4c0,1.3,0,2.6,0,4c0,0.3-0.1,0.4-0.5,0.4C15.7,17.7,14.9,17.7,14.1,17.7 M20.2,17.7c-0.7,0-1.5,0-2.2,0
		c-0.4,0-0.5-0.1-0.5-0.5c0-1.3,0-2.6,0-3.9c0-0.4,0.1-0.5,0.5-0.5c1.5,0,3,0,4.5,0c0.3,0,0.5,0.1,0.5,0.4c0,1.3,0,2.6,0,4
		c0,0.4-0.2,0.5-0.5,0.4C21.7,17.7,21,17.7,20.2,17.7 M26.3,12.8c0.8,0,1.5,0,2.3,0c0.3,0,0.4,0.1,0.4,0.4c0,1.3,0,2.6,0,4
		c0,0.3-0.1,0.4-0.4,0.4c-1.5,0-3.1,0-4.6,0c-0.3,0-0.4-0.1-0.4-0.4c0-1.3,0-2.7,0-4c0-0.4,0.2-0.4,0.5-0.4
		C24.8,12.8,25.6,12.8,26.3,12.8"/>
	<g transform="translate(13.351 11.01)">
		<path class="st1" d="M42.8-4.6c-0.7,0-1.5,0-2.2,0c-0.3,0-0.4-0.1-0.4-0.4c0-1.3,0-2.5,0-3.8c0-0.3,0.1-0.4,0.4-0.4
			c1.5,0,3,0,4.5,0c0.3,0,0.4,0.1,0.4,0.4c0,1.3,0,2.5,0,3.8c0,0.4-0.2,0.5-0.5,0.4C44.2-4.6,43.5-4.6,42.8-4.6"/>
	</g>
</g>
</svg>
