<svg width="370" height="66" viewBox="0 0 370 66" fill="none" xmlns="http://www.w3.org/2000/svg">
<path fill-rule="evenodd" clip-rule="evenodd" d="M28.7721 39.132L23.0823 55.1563C22.6178 56.4336 22.1533 57.2464 21.5727 57.7109C21.1083 58.0593 20.1793 58.2915 18.7859 58.2915H14.025C12.6316 58.2915 11.8188 58.0593 11.4704 57.7109C11.1221 57.2464 11.2382 56.4336 11.7027 55.1563L14.1412 48.0731C14.3734 47.4925 14.0251 46.9119 13.3283 46.9119H5.43228C4.73557 46.9119 4.03887 47.3764 3.80663 48.0731L0.78754 56.5497C-1.41871 62.704 1.01977 65.7231 7.98689 65.7231H18.902C25.9853 65.7231 30.63 62.704 32.7201 56.5497L39.3389 37.6224C41.5451 31.4681 39.1067 28.449 32.2557 28.449H24.0112C22.6178 28.449 21.805 28.2168 21.4566 27.8684C21.1083 27.404 21.2244 26.5911 21.6889 25.3138L26.7981 10.6829C27.2626 9.40561 27.727 8.59278 28.3076 8.24442C28.8882 7.77995 29.9333 7.66383 31.2106 7.66383H35.9715C37.3649 7.66383 38.1777 7.89607 38.4099 8.24442C38.7583 8.59278 38.6422 9.40561 38.2938 10.6829L35.8553 17.7661C35.6231 18.3467 35.9714 18.9273 36.6682 18.9273H44.5642C45.2609 18.9273 45.9577 18.4628 46.1899 17.7661L49.209 9.28948C51.4152 3.1352 48.9767 0.116126 42.0096 0.116126H30.9784C24.0112 0.116126 19.3665 3.1352 17.1603 9.28948L11.006 26.5911C8.79972 32.8615 11.1221 35.8806 17.9731 35.8806H26.3336C27.6109 35.8806 28.4237 36.1129 28.656 36.4612L28.7721 36.5773C29.2366 37.1579 29.1205 37.9708 28.7721 39.132ZM89.386 0.232251C88.6893 0.232251 87.9925 0.696725 87.7603 1.39344L78.2386 28.3329C78.0064 28.9135 77.3097 29.4941 76.6129 29.4941H63.956C63.2593 29.4941 62.9109 29.0296 63.1432 28.3329L72.6649 1.39344C72.8971 0.812844 72.5488 0.232251 71.8521 0.232251H64.0721C63.3754 0.232251 62.6787 0.696725 62.4465 1.39344L40.1517 64.7941C39.9195 65.3747 40.2678 65.9553 40.9646 65.9553H48.7445C49.4412 65.9553 50.1379 65.4908 50.3701 64.7941L59.7758 38.203C60.008 37.6224 60.7047 37.0418 61.4014 37.0418H73.9422C74.6389 37.0418 74.9873 37.5063 74.755 38.203L65.3494 64.7941C65.1172 65.3747 65.4656 65.9553 66.1623 65.9553H73.9422C74.6389 65.9553 75.3356 65.4908 75.5679 64.7941L97.8626 1.39344C98.0949 0.812844 97.7465 0.232251 97.0498 0.232251H89.386ZM110.52 1.39344C110.752 0.812844 111.448 0.232251 112.145 0.232251H119.925C120.622 0.232251 120.97 0.696725 120.738 1.39344L98.3271 64.7941C98.0949 65.3747 97.3982 65.9553 96.7015 65.9553H89.0376C88.3409 65.9553 87.9926 65.4908 88.2248 64.7941L110.52 1.39344ZM135.021 0.232251C134.324 0.232251 133.627 0.696725 133.395 1.39344L111.1 64.7941C110.868 65.3747 111.216 65.9553 111.913 65.9553H119.693C120.39 65.9553 121.086 65.4908 121.319 64.7941L129.447 41.6865C129.679 41.1059 130.376 40.5254 131.073 40.5254H142.8C149.768 40.5254 154.412 37.5063 156.619 31.352L164.282 9.52173C166.489 3.36745 164.05 0.348341 157.083 0.348341H135.021V0.232251ZM153.483 10.9151L146.865 29.8425C146.4 31.1198 145.936 31.9326 145.355 32.3971C144.775 32.8615 143.729 32.9777 142.452 32.9777H133.743C133.047 32.9777 132.698 32.5132 132.93 31.8165L140.943 9.05723C141.175 8.47664 141.872 7.89605 142.568 7.89605H151.277C152.671 7.89605 153.483 8.12828 153.716 8.47664C153.948 8.82499 153.948 9.63783 153.483 10.9151ZM203.879 0.232251C204.576 0.232251 204.924 0.696725 204.692 1.39344L202.834 6.73486C202.602 7.31545 201.905 7.89605 201.208 7.89605H191.803C191.106 7.89605 190.409 8.36052 190.177 9.05723L170.553 64.7941C170.321 65.3747 169.624 65.9553 168.927 65.9553H161.031C160.334 65.9553 159.986 65.4908 160.218 64.7941L179.842 9.05723C180.075 8.47664 179.726 7.89605 179.029 7.89605H169.624C168.927 7.89605 168.579 7.43157 168.811 6.73486L170.669 1.39344C170.901 0.812844 171.598 0.232251 172.295 0.232251H203.879ZM234.07 0.232251H221.529C214.446 0.232251 209.801 3.25133 207.711 9.40561L191.106 56.5497C188.9 62.704 191.338 65.7231 198.421 65.7231H210.962C217.929 65.7231 222.574 62.704 224.78 56.5497L230.122 41.4543H219.903L215.142 55.0402C214.678 56.3175 214.213 57.1303 213.633 57.5948C213.052 57.9432 212.123 58.1754 210.73 58.1754H203.995C202.718 58.1754 201.905 58.0593 201.556 57.7109L201.44 57.5948C201.208 57.1303 201.44 56.3175 201.789 55.1563L217.349 10.9151C217.813 9.63783 218.278 8.82499 218.742 8.47664C219.323 8.01216 220.368 7.89605 221.645 7.89605H228.148C229.541 7.89605 230.354 8.12828 230.586 8.47664C230.934 8.82499 230.818 9.63783 230.47 10.9151L224.78 26.9395H234.999L241.153 9.40561C243.475 3.25133 241.037 0.232251 234.07 0.232251ZM268.325 64.7941C268.092 65.3747 267.396 65.9553 266.699 65.9553H260.196C259.5 65.9553 259.151 65.4908 259.384 64.7941L281.678 1.39344C281.91 0.812844 282.607 0.232251 283.304 0.232251H292.361C292.942 0.232251 293.29 0.580586 293.29 1.04506L291.316 36.9257C291.2 38.0869 292.942 38.0869 293.638 36.9257L316.978 1.04506C317.327 0.580586 317.907 0.232251 318.488 0.232251H327.545C328.242 0.232251 328.59 0.696725 328.358 1.39344L306.063 64.7941C305.831 65.3747 305.134 65.9553 304.438 65.9553H297.935C297.238 65.9553 296.89 65.4908 297.122 64.7941L310.592 26.475C311.056 25.1977 309.082 24.8494 308.269 26.1267L292.477 50.7438C292.129 51.2083 291.548 51.5566 290.968 51.5566H283.536C282.956 51.5566 282.607 51.2083 282.607 50.7438L284.233 26.1267C284.349 24.8494 282.259 25.0816 281.794 26.475L268.325 64.7941ZM331.493 58.1754C330.796 58.1754 330.448 57.7109 330.68 57.0142L337.764 36.8096C337.996 36.229 338.692 35.6484 339.389 35.6484H353.207C353.904 35.6484 354.601 35.1839 354.833 34.4872L356.691 29.1458C356.923 28.5652 356.575 27.9846 355.878 27.9846H342.06C341.363 27.9846 341.015 27.5201 341.247 26.8234L347.634 8.82502C347.866 8.24442 348.563 7.66383 349.259 7.66383H366.445C367.141 7.66383 367.838 7.19936 368.07 6.50264L369.928 1.16119C370.161 0.580593 369.812 0 369.116 0H341.595C340.899 0 340.202 0.464474 339.97 1.16119L317.675 64.5619C317.443 65.1425 317.791 65.7231 318.488 65.7231H346.821C347.517 65.7231 348.214 65.2586 348.446 64.5619L350.304 59.2204C350.537 58.6399 350.188 58.0593 349.491 58.0593H331.493V58.1754Z" fill="#010101"/>
<path d="M257.642 32.2809L249.281 20.553C248.468 19.5079 246.61 19.5079 245.101 20.553C243.591 21.5981 242.895 23.456 243.708 24.501L248.585 31.4681H221.297C219.671 31.4681 217.929 32.7454 217.349 34.255C216.768 35.7645 217.697 37.0418 219.323 37.0418H246.611L236.74 44.0089C235.231 45.054 234.534 46.9119 235.347 47.9569C235.695 48.5375 236.392 48.7698 237.205 48.7698C238.018 48.7698 238.831 48.5375 239.643 47.9569L256.248 36.229C256.945 35.7645 257.526 34.9517 257.874 34.255C258.106 33.5583 257.99 32.7454 257.642 32.2809Z" fill="#54C4C8"/>
</svg>
