<?xml version="1.0" encoding="utf-8"?>
<!-- Generator: Adobe Illustrator 25.2.3, SVG Export Plug-In . SVG Version: 6.00 Build 0)  -->
<svg version="1.1" id="Layer_1" xmlns="http://www.w3.org/2000/svg" xmlns:xlink="http://www.w3.org/1999/xlink" x="0px" y="0px"
	 viewBox="0 0 125 25" style="enable-background:new 0 0 125 25;" xml:space="preserve">
<style type="text/css">
	.st0{fill-rule:evenodd;clip-rule:evenodd;fill:#004A8E;}
	.st1{fill-rule:evenodd;clip-rule:evenodd;fill:#FFFFFF;}
	.st2{fill-rule:evenodd;clip-rule:evenodd;fill:#D3200C;}
</style>
<desc>Created with Sketch.</desc>
<g id="Level-1-_x2B_-2">
	<g id="Home-_x3E_-Business" transform="translate(-39.000000, -63.000000)">
		<g id="CP_4C_E" transform="translate(39.000000, 63.000000)">
			<polygon id="Fill-1" class="st0" points="0,25 125,25 125,0 0,0 			"/>
			<path id="Fill-2" class="st1" d="M52.4,12.6c0-0.1,0-0.3,0-0.4H0v0.8h52.4C52.4,12.8,52.4,12.7,52.4,12.6"/>
			<path id="Fill-3" class="st1" d="M72.6,12.1c0,0.1,0,0.3,0,0.4c0,0.1,0,0.2,0,0.3H125v-0.8H72.6"/>
			<path id="Fill-4" class="st2" d="M72.6,12.5c0,5.7-4.5,10.2-10.1,10.2c-5.6,0-10.1-4.6-10.1-10.2c0-5.7,4.5-10.2,10.1-10.2
				C68.1,2.3,72.6,6.9,72.6,12.5"/>
			<polyline id="Fill-5" class="st1" points="59.3,13.9 60,13.1 68,12.8 68.4,12.4 60.5,12.4 56.2,7.3 70.5,12.2 65.7,17 56.2,17 
				57.1,16 65.1,15.7 65.5,15.3 57.9,15.3 58.6,14.6 66.6,14.2 66.9,13.9 59.3,13.9 			"/>
			<path id="Fill-6" class="st1" d="M76.4,4.5h1.1c0.9,0,1.8,0.3,1.8,1.3c0,1-0.7,1.4-1.6,1.4h-0.4v1.7h-0.9V4.5z M77.3,6.6h0.3
				c0.4,0,0.8-0.1,0.8-0.6c0-0.5-0.4-0.7-0.8-0.7h-0.3V6.6L77.3,6.6z"/>
			<path id="Fill-7" class="st1" d="M83.3,4.5c1.3,0,2.1,0.9,2.1,2.2C85.4,8,84.7,9,83.3,9C82,9,81.2,8,81.2,6.7
				C81.2,5.4,82,4.5,83.3,4.5z M83.3,8.3c0.9,0,1.2-0.8,1.2-1.6c0-0.8-0.3-1.5-1.2-1.5c-0.9,0-1.2,0.8-1.2,1.5
				C82.1,7.5,82.4,8.3,83.3,8.3L83.3,8.3z"/>
			<path id="Fill-8" class="st1" d="M90,5.3c-0.3-0.1-0.6-0.2-0.9-0.2c-0.3,0-0.7,0.1-0.7,0.6c0,0.8,1.9,0.4,1.9,1.9
				c0,1-0.7,1.3-1.6,1.3c-0.5,0-0.7-0.1-1.1-0.2L87.8,8c0.3,0.2,0.6,0.3,1,0.3c0.3,0,0.8-0.2,0.8-0.6c0-0.8-1.9-0.5-1.9-1.9
				c0-1,0.7-1.3,1.5-1.3c0.4,0,0.7,0,1,0.2L90,5.3"/>
			<polyline id="Fill-9" class="st1" points="93.5,5.2 92.2,5.2 92.2,4.5 95.6,4.5 95.6,5.2 94.3,5.2 94.3,8.9 93.5,8.9 93.5,5.2 
							"/>
			<polyline id="Fill-10" class="st1" points="97.6,4.5 100.2,4.5 100.2,5.2 98.5,5.2 98.5,6.3 100,6.3 100,7 98.5,7 98.5,8.2 
				100.2,8.2 100.2,8.9 97.6,8.9 97.6,4.5 			"/>
			<path id="Fill-11" class="st1" d="M104.9,5.3c-0.3-0.1-0.6-0.2-0.9-0.2c-0.3,0-0.7,0.1-0.7,0.6c0,0.8,1.9,0.4,1.9,1.9
				c0,1-0.7,1.3-1.6,1.3c-0.5,0-0.7-0.1-1.1-0.2l0.1-0.8c0.3,0.2,0.6,0.3,1,0.3c0.3,0,0.8-0.2,0.8-0.6c0-0.8-1.9-0.5-1.9-1.9
				c0-1,0.7-1.3,1.5-1.3c0.4,0,0.7,0,1,0.2L104.9,5.3"/>
			<path id="Fill-12" class="st1" d="M79.6,20.4c-0.3,0.1-0.6,0.1-1,0.1c-1.4,0-2.3-0.7-2.3-2.2c0-1.5,0.9-2.3,2.3-2.3
				c0.3,0,0.7,0.1,1,0.2l-0.1,0.7c-0.3-0.2-0.6-0.2-0.9-0.2c-0.9,0-1.4,0.7-1.4,1.6c0,0.9,0.5,1.5,1.5,1.5c0.3,0,0.7-0.1,0.9-0.2
				L79.6,20.4"/>
			<path id="Fill-13" class="st1" d="M83,16.1h1l1.7,4.3h-1l-0.4-1h-1.7l-0.4,1h-0.9L83,16.1z M83.5,17L83.5,17l-0.6,1.8h1.2
				L83.5,17L83.5,17z"/>
			<polyline id="Fill-14" class="st1" points="87.7,16.1 88.7,16.1 90.4,19.4 90.4,19.4 90.4,16.1 91.2,16.1 91.2,20.5 90.2,20.5 
				88.5,17.2 88.5,17.2 88.5,20.5 87.7,20.5 87.7,16.1 			"/>
			<path id="Fill-15" class="st1" d="M94.9,16.1h1l1.7,4.3h-1l-0.4-1h-1.7l-0.4,1h-0.9L94.9,16.1z M95.4,17L95.4,17l-0.6,1.8H96
				L95.4,17L95.4,17z"/>
			<path id="Fill-16" class="st1" d="M99.7,16.1h1.2c1.3,0,2.5,0.4,2.5,2.2c0,1.7-1.2,2.2-2.5,2.2h-1.2V16.1z M100.5,19.8h0.5
				c0.7,0,1.4-0.5,1.4-1.5c0-0.9-0.7-1.5-1.4-1.5h-0.5V19.8L100.5,19.8z"/>
			<path id="Fill-17" class="st1" d="M106.8,16.1h1l1.7,4.3h-1l-0.4-1h-1.7l-0.4,1h-0.9L106.8,16.1z M107.3,17L107.3,17l-0.6,1.8
				h1.3L107.3,17L107.3,17z"/>
			<path id="Fill-18" class="st1" d="M19.1,8.8c-0.3,0.1-0.7,0.1-1,0.1c-1.4,0-2.3-0.7-2.3-2.2c0-1.5,0.9-2.3,2.3-2.3
				c0.3,0,0.7,0.1,1,0.2L19,5.4c-0.3-0.2-0.6-0.2-0.9-0.2c-0.9,0-1.4,0.7-1.4,1.6c0,0.9,0.5,1.6,1.5,1.6c0.3,0,0.7-0.1,0.9-0.2
				L19.1,8.8"/>
			<path id="Fill-19" class="st1" d="M22.5,4.5h1l1.7,4.3h-0.9l-0.4-1H22l-0.4,1h-0.9L22.5,4.5z M22.9,5.4L22.9,5.4l-0.6,1.8h1.3
				L22.9,5.4L22.9,5.4z"/>
			<polyline id="Fill-20" class="st1" points="27.1,4.5 28.2,4.5 29.8,7.8 29.8,7.8 29.8,4.5 30.7,4.5 30.7,8.9 29.6,8.9 28,5.6 
				28,5.6 28,8.9 27.1,8.9 27.1,4.5 			"/>
			<path id="Fill-21" class="st1" d="M34.4,4.5h1L37,8.9h-1l-0.4-1H34l-0.4,1h-0.9L34.4,4.5z M34.9,5.4L34.9,5.4l-0.6,1.8h1.3
				L34.9,5.4L34.9,5.4z"/>
			<path id="Fill-22" class="st1" d="M39.1,4.5h1.2c1.3,0,2.5,0.5,2.5,2.2c0,1.7-1.2,2.2-2.5,2.2h-1.2V4.5z M40,8.2h0.5
				c0.7,0,1.4-0.5,1.4-1.5c0-0.9-0.7-1.5-1.4-1.5H40V8.2L40,8.2z"/>
			<path id="Fill-23" class="st1" d="M46.3,4.5h1L49,8.9H48l-0.4-1h-1.7l-0.4,1h-0.9L46.3,4.5z M46.8,5.4L46.8,5.4l-0.6,1.8h1.3
				L46.8,5.4L46.8,5.4z"/>
			<path id="Fill-24" class="st1" d="M15.9,16.1H17c0.9,0,1.8,0.3,1.8,1.3c0,1-0.7,1.4-1.7,1.4h-0.4v1.6h-0.9V16.1z M16.7,18.1H17
				c0.4,0,0.8-0.1,0.8-0.6c0-0.5-0.4-0.7-0.8-0.7h-0.3V18.1L16.7,18.1z"/>
			<path id="Fill-25" class="st1" d="M22.8,16c1.3,0,2.1,0.9,2.1,2.2c0,1.3-0.7,2.3-2.1,2.3c-1.4,0-2.1-0.9-2.1-2.3
				C20.7,16.9,21.4,16,22.8,16z M22.8,19.8c0.9,0,1.2-0.8,1.2-1.6c0-0.8-0.3-1.5-1.2-1.5c-0.8,0-1.2,0.8-1.2,1.5
				C21.6,19.1,21.9,19.8,22.8,19.8L22.8,19.8z"/>
			<path id="Fill-26" class="st1" d="M29.5,16.9c-0.3-0.1-0.6-0.2-0.9-0.2c-0.3,0-0.7,0.1-0.7,0.6c0,0.8,1.9,0.4,1.9,1.9
				c0,1-0.7,1.3-1.6,1.3c-0.5,0-0.7-0.1-1.1-0.2l0.1-0.8c0.3,0.2,0.6,0.3,1,0.3c0.3,0,0.8-0.2,0.8-0.6c0-0.8-1.9-0.5-1.9-1.9
				c0-1,0.7-1.3,1.5-1.3c0.4,0,0.7,0,1,0.2L29.5,16.9"/>
			<polyline id="Fill-27" class="st1" points="32.9,16.8 31.7,16.8 31.7,16.1 35,16.1 35,16.8 33.8,16.8 33.8,20.5 32.9,20.5 
				32.9,16.8 			"/>
		</g>
	</g>
</g>
</svg>
