<svg xmlns="http://www.w3.org/2000/svg" width="512" height="512" viewBox="0 0 512 512"><path fill="#0C59A5" d="M512 472c0 22.1-17.9 40-40 40H40c-22.1 0-40-17.9-40-40V40C0 17.9 17.9 0 40 0h432c22.1 0 40 17.9 40 40v432z"/><path fill="#FD4243" d="M151.9 239.3s32.9-10.7 41.1-12.4c8.2-1.7 25.2-5.9 33.8-7.1 8.6-1.2 21.4-3.4 32-4.5 10.5-1.1 26.3-2.5 32.8-2.7 6.5-.2 30.9-.8 36.3-.8s30.5.6 33.1.8c2.6.2 20.7 1.6 25.4 1.9 4.7.3 27.3 3.1 28.8 3.4 1.5.3 28.5 5 28.5 5l-3.2 11.9s-18.7-4-28.1-5.4c-9.4-1.4-28.5-4.4-43.2-5.7-14.7-1.3-22.1-2.3-37.7-2.7-15.6-.4-40.7-1-53.5-.2-12.8.8-33.7 1.8-47.1 3.7-13.4 1.9-26.7 3.7-37.6 5.7-10.9 2-17.3 3.4-25 5.2-7.8 1.7-16.4 3.9-16.4 3.9z"/><path fill="#FFF" d="M116.6 265.4l16 1.9c-3.1 6.7-7.8 11.9-14.1 15.4-6.3 3.6-13.6 5.3-22 5.3-9.5 0-16.9-2.2-22.2-6.6-5.3-4.4-8-10.8-8-19.2 0-6.8 1.8-13 5.4-18.7 3.6-5.6 8.5-10 14.9-13 6.3-3 13.2-4.5 20.7-4.5 8.4 0 15.1 1.7 20.3 5.2 5.2 3.5 8.2 8.2 9.1 14.2l-15.3 1.1c-.8-3.5-2.5-6-4.9-7.6-2.4-1.6-5.6-2.3-9.6-2.3-4.4 0-8.5 1-12.3 3.1-3.8 2.1-6.9 5.3-9.2 9.7-2.3 4.4-3.4 8.8-3.4 13.2 0 4.8 1.5 8.5 4.5 11.1 3 2.6 6.7 3.9 11.1 3.9 4.1 0 7.9-1 11.3-3.1 3.4-1.9 6-5 7.7-9.1zM159.9 255.9l-14.8-1c1.7-3.9 4.6-6.9 8.8-9.1 4.2-2.2 9.8-3.3 16.7-3.3 7.2 0 12.5 1.1 16 3.4 3.4 2.2 5.2 5 5.2 8.2 0 1.3-.2 2.7-.4 4.2-.3 1.5-1.3 5.3-3.1 11.6-1.5 5.2-2.2 8.8-2.2 10.9 0 1.9.4 3.9 1.3 6.2h-14.7c-.6-1.6-1-3.2-1.1-4.9-2.2 1.9-4.8 3.4-7.7 4.4-2.9 1-5.8 1.5-8.7 1.5-4.6 0-8.5-1.2-11.5-3.5-3-2.4-4.5-5.4-4.5-9.1 0-4.1 1.7-7.4 5-9.9s9.3-4 17.8-4.5c7.2-.5 12-1 14.5-1.7.6-1.6.9-2.9.9-3.9 0-1.3-.7-2.3-2-3.1-1.3-.8-3.2-1.3-5.8-1.3-2.7 0-4.8.4-6.4 1.3-1.7.8-2.8 2-3.3 3.6zm14.4 10.9c-.9.2-2.1.4-3.6.5-7.6.7-12.6 1.7-14.9 3.1-1.7 1-2.5 2.3-2.5 4 0 1.4.6 2.5 1.9 3.5s2.9 1.4 5 1.4c2.3 0 4.4-.4 6.5-1.3 2-.9 3.5-2 4.5-3.3 1-1.3 1.9-3.5 2.7-6.3l.4-1.6zM210.5 243.6h14.4l-1.5 5.6c3.6-2.4 6.9-4.1 10.1-5.1 3.1-1 6.4-1.5 9.8-1.5 4.6 0 8.2 1 10.9 3.1 2.7 2 4 4.8 4 8.1 0 1.5-.6 4.4-1.7 8.7l-6.6 24.5h-15.1l6.6-24.6c1-3.7 1.5-5.9 1.5-6.6 0-1.5-.6-2.7-1.7-3.5-1.1-.9-2.7-1.3-4.8-1.3-2.2 0-4.7.7-7.4 2.2-2.7 1.4-4.8 3.3-6.4 5.7-1.1 1.7-2.4 5.1-3.8 10.3L214 287h-15.1l11.6-43.4zM275.9 243.6h14.4l-1.2 4.5c3.1-2 5.9-3.4 8.6-4.2 2.7-.8 5.5-1.3 8.6-1.3 5.9 0 10.6 1.6 14.2 4.7 3.6 3.1 5.4 7.8 5.4 14 0 7.8-3.1 14.4-9.2 19.8-5.3 4.6-11.5 6.9-18.7 6.9-7.4 0-13-2.3-16.8-7l-6.1 22.5H260l15.9-59.9zm9.1 24.9c0 3.4 1.1 6 3.2 7.9s4.6 2.8 7.5 2.8c2.5 0 4.9-.7 7.2-2.1 2.3-1.4 4.2-3.7 5.8-7 1.5-3.3 2.3-6.3 2.3-9 0-3.2-1-5.7-3-7.5-2-1.7-4.6-2.6-7.7-2.6-2.9 0-5.5.8-7.9 2.4s-4.2 3.9-5.5 7c-1.3 3.1-1.9 5.8-1.9 8.1zM352 255.9l-14.8-1c1.7-3.9 4.6-6.9 8.8-9.1 4.2-2.2 9.8-3.3 16.7-3.3 7.2 0 12.5 1.1 16 3.4 3.4 2.2 5.2 5 5.2 8.2 0 1.3-.2 2.7-.4 4.2-.3 1.5-1.3 5.3-3.1 11.6-1.5 5.2-2.2 8.8-2.2 10.9 0 1.9.4 3.9 1.3 6.2h-14.7c-.6-1.6-1-3.2-1.1-4.9-2.2 1.9-4.8 3.4-7.7 4.4-2.9 1-5.8 1.5-8.7 1.5-4.6 0-8.5-1.2-11.5-3.5-3-2.4-4.5-5.4-4.5-9.1 0-4.1 1.7-7.4 5-9.9s9.3-4 17.8-4.5c7.2-.5 12-1 14.5-1.7.6-1.6 1-2.9 1-3.9 0-1.3-.7-2.3-2-3.1s-3.2-1.3-5.8-1.3c-2.7 0-4.8.4-6.4 1.3-1.8.8-2.8 2-3.4 3.6zm14.4 10.9c-.9.2-2.1.4-3.6.5-7.6.7-12.6 1.7-14.9 3.1-1.7 1-2.5 2.3-2.5 4 0 1.4.6 2.5 1.9 3.5s2.9 1.4 5 1.4c2.3 0 4.4-.4 6.5-1.3 2-.9 3.5-2 4.5-3.3s1.9-3.5 2.7-6.3l.4-1.6zM401.6 243.6h14.1l-2.3 8.4c5.3-6.3 11-9.4 17.2-9.4 2.2 0 4.5.4 7 1.3l-5.8 9.6c-1.4-.4-2.8-.6-4.4-.6-2.6 0-5.3.8-7.9 2.3-2.7 1.5-4.8 3.6-6.3 6.1-1.5 2.5-3 6.6-4.5 12.1L405 287h-15.1l11.7-43.4z"/></svg>