<?xml version="1.0" encoding="utf-8"?>
<!-- Generator: Adobe Illustrator 25.2.3, SVG Export Plug-In . SVG Version: 6.00 Build 0)  -->
<svg version="1.1" id="Layer_1" xmlns="http://www.w3.org/2000/svg" xmlns:xlink="http://www.w3.org/1999/xlink" x="0px" y="0px"
	 viewBox="0 0 512 512" style="enable-background:new 0 0 512 512;" xml:space="preserve">
<style type="text/css">
	.st0{fill-rule:evenodd;clip-rule:evenodd;fill:#EE2722;}
	.st1{fill-rule:evenodd;clip-rule:evenodd;fill:#FFFFFF;stroke:#EE2722;stroke-width:16.718;stroke-miterlimit:33.89;}
	.st2{fill-rule:evenodd;clip-rule:evenodd;fill:#EE2722;stroke:#FFFFFF;stroke-width:2;stroke-miterlimit:10;}
	.st3{fill-rule:evenodd;clip-rule:evenodd;fill:#FDDD1C;}
</style>
<g>
	<path class="st0" d="M46.8,0h419.1c25.8,0,46.8,20.9,46.8,46.8v419.1c0,25.8-20.9,46.8-46.8,46.8H46.8C20.9,512.7,0,491.8,0,465.9
		V46.8C0,20.9,20.9,0,46.8,0z"/>
	<path class="st1" d="M171.9,90.2h169.2v332.3H171.9V90.2z"/>
	<path class="st0" d="M252.2,124.4h8.4c-0.4-0.3-0.6-0.6-1-0.9c-1.5-1.5-1.2-3.1-0.6-3.7s2.3,0.1,3.7,1.6c0.4,0.4,0.7,0.7,0.9,1.1
		V112c-0.3,0.4-0.6,0.7-0.9,1c-1.5,1.5-3.1,2.2-3.7,1.6s0.1-2.3,1.6-3.7c0.4-0.4,0.7-0.7,1.1-0.9h-10.2c0.3,0.2,0.7,0.6,1,0.9
		c1.5,1.5,2.1,3.1,1.6,3.7c-0.6,0.6-2.3-0.1-3.7-1.6c-0.3-0.3-0.7-0.7-0.9-1.1v10.4c0.3-0.3,0.6-0.7,0.9-1c1.5-1.5,3.1-2.2,3.7-1.6
		c0.6,0.6,0.8,2.3-0.6,3.7C253,123.8,252.6,124.1,252.2,124.4L252.2,124.4z M248,135.7c0.8,4,4.3,6.9,8.4,6.9c4.2,0,7.6-3,8.4-6.9
		H248z M264.8,132.3c-0.7-3.4-3.4-6.1-6.8-6.8v6.8H264.8z M254.6,125.5c-3.4,0.7-6,3.4-6.7,6.8h6.7V125.5z M253.8,146.4
		c0-1.4,1.2-2.6,2.6-2.6s2.6,1.2,2.6,2.6c0,1.4-1.2,2.6-2.6,2.6C254.9,149,253.8,147.9,253.8,146.4L253.8,146.4z M253.8,153
		c0-1.4,1.2-2.6,2.6-2.6s2.6,1.2,2.6,2.6c0,1.4-1.2,2.6-2.6,2.6l0,0C254.9,155.6,253.8,154.4,253.8,153L253.8,153z M253.8,159.6
		c0-1.4,1.2-2.6,2.6-2.6l0,0c1.4,0,2.6,1.2,2.6,2.6c0,1.4-1.2,2.6-2.6,2.6C254.9,162.2,253.8,161,253.8,159.6z M253.8,166.1
		c0-1.4,1.2-2.6,2.6-2.6l0,0c1.4,0,2.6,1.2,2.6,2.6c0,1.4-1.2,2.6-2.6,2.6l0,0C254.9,168.7,253.8,167.6,253.8,166.1L253.8,166.1z
		 M253.5,180.8c0-1.6,1.3-2.9,2.9-2.9c1.6,0,2.9,1.3,2.9,2.9c0,1.6-1.3,2.9-2.9,2.9C254.8,183.6,253.5,182.4,253.5,180.8z
		 M299.5,189.1c1,0.3,2.3-0.8,2.9-2.5s0.2-3.4-0.8-3.7s-2.3,0.8-2.9,2.5S298.5,188.8,299.5,189.1z M213.3,189.1
		c-1,0.3-2.3-0.8-2.9-2.5c-0.6-1.7-0.2-3.4,0.8-3.7s2.3,0.8,2.9,2.5C214.6,187.1,214.3,188.8,213.3,189.1z M266,139.7
		c0-2.1,1.7-3.8,3.8-3.8c2.1,0,3.8,1.7,3.8,3.8s-1.7,3.8-3.8,3.8C267.7,143.6,266,141.9,266,139.7L266,139.7z M274.9,135.9
		c0-2.1,1.7-3.8,3.8-3.8s3.8,1.7,3.8,3.8s-1.7,3.8-3.8,3.8S274.9,138,274.9,135.9z M284,132.6c0-2.1,1.7-3.8,3.8-3.8
		c2.1,0,3.8,1.7,3.8,3.8s-1.7,3.8-3.8,3.8C285.7,136.4,284,134.7,284,132.6L284,132.6z M293.6,132.3c0-2.1,1.7-3.8,3.8-3.8
		s3.8,1.7,3.8,3.8s-1.7,3.8-3.8,3.8S293.6,134.4,293.6,132.3z M302.4,136c0-2.1,1.7-3.8,3.8-3.8c2.1,0,3.8,1.7,3.8,3.8
		s-1.7,3.8-3.8,3.8C304.1,139.9,302.4,138.2,302.4,136z M308.6,143.6c0-2.1,1.7-3.8,3.8-3.8s3.8,1.7,3.8,3.8s-1.7,3.8-3.8,3.8
		S308.6,145.7,308.6,143.6z M310.8,153c0-2.1,1.7-3.8,3.8-3.8c2.1,0,3.8,1.7,3.8,3.8s-1.7,3.8-3.8,3.8S310.8,155.1,310.8,153
		L310.8,153z M310.3,162.6c0-2.1,1.7-3.8,3.8-3.8s3.8,1.7,3.8,3.8s-1.7,3.8-3.8,3.8S310.3,164.7,310.3,162.6z M307.8,171.8
		c0-2.1,1.7-3.8,3.8-3.8c2.1,0,3.8,1.7,3.8,3.8s-1.7,3.8-3.8,3.8S307.8,173.9,307.8,171.8z M239.2,139.7c0-2.1,1.7-3.8,3.8-3.8
		s3.8,1.7,3.8,3.8s-1.7,3.8-3.8,3.8S239.2,141.9,239.2,139.7z M230.3,135.9c0-2.1,1.7-3.8,3.8-3.8s3.8,1.7,3.8,3.8s-1.7,3.8-3.8,3.8
		S230.3,138,230.3,135.9L230.3,135.9z M221.2,132.6c0-2.1,1.7-3.8,3.8-3.8s3.8,1.7,3.8,3.8s-1.7,3.8-3.8,3.8
		C222.8,136.4,221.1,134.7,221.2,132.6L221.2,132.6z M211.5,132.3c0-2.1,1.7-3.8,3.8-3.8s3.8,1.7,3.8,3.8s-1.7,3.8-3.8,3.8
		S211.5,134.4,211.5,132.3L211.5,132.3z M202.7,136c0-2.1,1.7-3.8,3.8-3.8s3.8,1.7,3.8,3.8s-1.7,3.8-3.8,3.8
		C204.4,139.9,202.7,138.1,202.7,136L202.7,136z M196.6,143.6c0-2.1,1.7-3.8,3.8-3.8s3.8,1.7,3.8,3.8s-1.7,3.8-3.8,3.8
		C198.3,147.5,196.6,145.7,196.6,143.6z M194.3,153c0-2.1,1.7-3.8,3.8-3.8s3.8,1.7,3.8,3.8s-1.7,3.8-3.8,3.8S194.3,155.1,194.3,153
		L194.3,153z M194.8,162.6c0-2.1,1.7-3.8,3.8-3.8s3.8,1.7,3.8,3.8s-1.7,3.8-3.8,3.8C196.5,166.4,194.8,164.7,194.8,162.6
		L194.8,162.6z M197.3,171.8c0-2.1,1.7-3.8,3.8-3.8s3.8,1.7,3.8,3.8s-1.7,3.8-3.8,3.8S197.3,173.9,197.3,171.8z"/>
	<path class="st0" d="M223.2,175c-1.1,0.8-2.3,5.2,1.8,8.5c0.8-1.9,1.7-2,2.6-1.9c0.9,0.2,1.5,0.6,2,2.4l5.7-0.4
		c0.1-1.5,0.8-2.5,2.1-2.9c1.2-0.2,2.3,0.4,3.2,1.8c0.8-2.5,1-5.7,0.1-7.5h5.9v12.4c2.8-4.8,6.8-5.3,7.1-1.3c0.3,3.5-4,7.4-8.1,7.4
		s-6.9-1.7-9.8-6.2l-5.7,0.4c-1,3.5-6.4,6.8-11.4,5.1c-2.4-0.9-4.1-2.2-3.5-3.7c0.7-1.8,2.9-0.3,4.6,0.3c0,0-2.4-8-3.5-11.4
		c-0.3,0.9-1.7,4.3-3.5,3.3c-1-0.6-0.4-2.9,0.8-6.3L223.2,175L223.2,175z M227.5,175c0.3,0.9,0.8,1.8,1.2,2.6
		c-1.2-1.4-2.1-2.2-3-2.6H227.5L227.5,175z M235.9,175c-0.6,0.7-1.2,1.5-1.6,2.3c0.2-0.8,0.3-1.6,0.4-2.3H235.9z M252.5,175
		c0.7,1.1,0.8,2.1,0.3,2.6c-0.8,0.8-3-0.1-5-2c-0.2-0.2-0.4-0.4-0.6-0.6H252.5L252.5,175L252.5,175z M265.5,175
		c-0.2,0.2-0.4,0.4-0.6,0.6c-1.9,1.9-4.2,2.7-5,2c-0.5-0.5-0.3-1.5,0.3-2.6H265.5L265.5,175z M271.9,175c-0.9,1.8-0.7,5,0.1,7.5
		c0.9-1.4,2-2,3.2-1.8c1.3,0.4,2,1.4,2.1,2.9l5.7,0.4c0.5-1.7,1.1-2.2,2-2.4s1.8,0,2.6,1.9c4.1-3.4,3-7.7,1.8-8.5h9.7
		c1.1,3.4,1.8,5.7,0.8,6.3c-1.8,1.1-3.2-2.3-3.5-3.3c-1.2,3.4-3.5,11.4-3.5,11.4c1.7-0.6,3.9-2.1,4.6-0.3c0.6,1.5-1.1,2.8-3.5,3.7
		c-5,1.8-10.4-1.6-11.4-5.1l-5.7-0.4c-2.9,4.5-5.7,6.2-9.8,6.2c-4.1,0-8.4-3.9-8.1-7.4c0.4-4,4.3-3.5,7.1,1.3V175H271.9L271.9,175z
		 M277.9,175c0.1,0.7,0.3,1.5,0.4,2.3c-0.4-0.9-0.9-1.6-1.6-2.3H277.9L277.9,175z M287,175c-0.8,0.4-1.8,1.2-3,2.6
		c0.5-0.9,0.9-1.8,1.2-2.6H287L287,175z"/>
	<path class="st2" d="M213.6,175c0.2-0.7,0.5-1.5,0.8-2.4l-6.1,1.9c0,0-4.8-6.6-5.2-18c-0.7-16.9,10.9-19.8,15.9-19.8
		c5.4-0.1,7.9,1.4,13,3.3c5,2,8.5,4.9,18.4,6l-0.7,4.9c-10,0-19.4-7.2-28.8-7.3c-10.3-0.1-11.7,10.3-11.6,13.6
		c0.1,3.2,0.3,6.6,2.4,11.1c0.4-2.6,2.3-10.4,5.1-11.8c7.8-3.2,15.5-0.5,15.5-0.5c8.9-2.8,16.4-2.8,16.4-2.8V143l3.5-1.4v27.9h8.3
		v-27.9l3.5,1.4v10.2c0,0,7.5,0,16.4,2.8c0,0,7.8-2.7,15.5,0.5c3,1.4,4.6,9.2,5.1,11.8c2.1-4.5,2.3-7.9,2.4-11.1
		c0.1-3.2-1.3-13.6-11.6-13.6c-9.4,0.1-18.8,7.3-28.8,7.3l-0.7-4.9c9.9-1.1,13.4-4.1,18.4-6c5-2,7.5-3.4,12.9-3.3
		c5.1,0.1,16.6,2.9,15.9,19.8c-0.5,11.4-5.2,18-5.2,18l-6.1-1.9c0.3,0.8,0.6,1.6,0.8,2.4h-9.7c0,0-0.1,0-0.1-0.1
		c-0.6-0.3-1.4-0.4-2.5,0.1H285c2.2-5.6,1.2-10.3-2.6-13.4c-4.8,4.4-5.8,6.8-4.6,13.4h-1.1c-0.8-0.8-1.8-1.5-3-1.4
		c-0.8,0-1.4,0.6-1.8,1.4H266v-0.7c-0.2,0.2-0.4,0.5-0.6,0.7h-5.2c0.4-0.7,1-1.4,1.7-2.1c0.5-0.5,0.9-0.9,1.4-1.2h-14
		c0.5,0.3,0.9,0.7,1.4,1.2c0.7,0.7,1.3,1.4,1.7,2.1h-5.2c-0.2-0.2-0.4-0.5-0.6-0.7v0.7h-5.9c-0.4-0.8-1-1.4-1.8-1.4
		c-1.2-0.1-2.2,0.6-3,1.4h-1.1c1.1-6.6,0.1-9-4.6-13.4c-3.9,3.1-4.8,7.8-2.7,13.4h-1.7c-1-0.5-1.8-0.4-2.5-0.1c0,0-0.1,0-0.1,0.1
		H213.6L213.6,175L213.6,175z M297.2,200.6l0.7-7.2c0,0-2.7,2.9-7.3,2.8c-4.6-0.1-8.8-3.5-10.7-6.2c-0.4-0.6-0.9-0.6-1.3,0
		c-2.8,3.8-5.3,6.6-12.2,6.6s-9.4-4.3-10.3-5.6c-0.9,1.2-3.4,5.6-10.3,5.6c-6.8,0-9.3-2.8-12.2-6.6c-0.4-0.7-0.9-0.6-1.3,0
		c-1.8,2.7-6,6.1-10.7,6.2c-4.6,0.1-7.3-2.8-7.3-2.8l0.7,7.2H297.2L297.2,200.6z M216.8,220.6c-2.9,0-5.3-2.3-5.3-5.1
		s2.4-5.1,5.3-5.1h78.9c2.9,0,5.3,2.3,5.3,5.1s-2.4,5.1-5.3,5.1H216.8z M222.3,208.5v-5.7h-7l-2.4,2.8l2.4,2.9H222.3z M228.7,205.6
		c0-1.7,2.8-3.1,6.2-3.1s6.2,1.4,6.2,3.1c0,1.7-2.8,3.1-6.2,3.1C231.5,208.8,228.7,207.4,228.7,205.6z M290.2,208.5v-5.7h7l2.4,2.8
		l-2.4,2.9H290.2z M271.4,205.6c0-1.7,2.8-3.1,6.2-3.1c3.4,0,6.2,1.4,6.2,3.1c0,1.7-2.8,3.1-6.2,3.1
		C274.2,208.8,271.4,207.4,271.4,205.6z M248.5,202.8H264v5.7h-15.5V202.8z M7.5,243.5h497.6v123.3H7.5V243.5z"/>
	<path class="st3" d="M447.6,264c-3.2,0-5.8,2.6-5.8,5.9s2.6,5.9,5.8,5.9c3.2,0,5.8-2.7,5.8-5.9C453.5,266.6,450.8,264,447.6,264
		L447.6,264z M447.6,271.7c-1,0-1.8-0.8-1.8-1.8s0.8-1.8,1.8-1.8s1.8,0.8,1.8,1.8C449.4,270.9,448.6,271.7,447.6,271.7z
		 M132.4,287.7c-4.9-5-11.6-7.8-18.6-7.8c-14.5,0-26.3,11.9-26.3,26.6c0,7,2.7,13.8,7.7,18.8c4.9,5,11.6,7.8,18.6,7.8
		s13.7-2.8,18.6-7.8c5-5,7.7-11.7,7.7-18.8C140.1,299.4,137.4,292.7,132.4,287.7z M129.2,322c-4.1,4.1-9.6,6.5-15.4,6.4
		c-5.8,0-11.3-2.3-15.4-6.4s-6.4-9.7-6.4-15.6c0-12.1,9.8-22,21.8-22c5.8,0,11.3,2.3,15.4,6.4c4.1,4.1,6.4,9.7,6.4,15.6
		C135.6,312.3,133.3,317.9,129.2,322L129.2,322z"/>
	<path class="st3" d="M128,292.2c-3.7-3.8-8.8-5.9-14.2-5.9c-5.3,0-10.4,2.1-14.2,5.9c-3.8,3.8-5.9,9-5.9,14.3
		c0,5.4,2.1,10.5,5.9,14.3c3.7,3.8,8.8,5.9,14.2,5.9c11.1,0,20-9.1,20-20.2C133.9,301.1,131.8,296,128,292.2L128,292.2z
		 M113.8,322.1c-4.1,0-8.1-1.6-10.9-4.6c-2.9-3-4.5-6.9-4.5-11.1s1.6-8.1,4.5-11.1c2.9-2.9,6.8-4.6,10.9-4.6s8,1.6,11,4.6
		c2.9,2.9,4.6,6.9,4.5,11.1C129.3,315.1,122.4,322.1,113.8,322.1z M184.5,281.4v46.5c0,4.6-1.8,9-5,12.2c-3.2,3.3-7.5,5.1-12.1,5.1
		s-8.9-1.8-12.1-5.1c-2.3-2.3-3.9-5.2-4.6-8.4h-4.6c0.8,4.4,2.9,8.5,6,11.6c4,4.1,9.6,6.4,15.3,6.4c5.8,0,11.2-2.3,15.3-6.4
		s6.3-9.6,6.3-15.5v-46.5L184.5,281.4L184.5,281.4z"/>
	<path class="st3" d="M167.4,328.8c3.8,0,7.6-1.1,10.8-3.1v2.2c0,6-4.9,10.9-10.8,10.9c-2.9,0-5.6-1.1-7.7-3.2
		c-1.1-1.1-1.9-2.4-2.5-3.9h-4.8c0.7,2.7,2.1,5.2,4,7.1c2.9,2.9,6.8,4.6,10.9,4.6c8.5,0,15.4-7,15.4-15.5V314
		c-0.9,1.9-2.1,3.7-3.6,5.2c-3.2,3.3-7.4,5.1-11.8,5.1c-4.5,0-8.9-1.8-12.1-5.1c-3.2-3.3-5-7.7-5-12.2v-25.5h-4.5V307
		c0,5.8,2.3,11.4,6.3,15.5C156.1,326.5,161.7,328.8,167.4,328.8L167.4,328.8z"/>
	<path class="st3" d="M156.6,317.9c2.9,2.9,6.8,4.6,10.9,4.6c8.3,0,15.4-7.4,15.4-16.2v-24.9h-4.6v24.9c0,6.2-5,11.6-10.8,11.6
		c-2.9,0-5.6-1.2-7.7-3.2c-2-2.1-3.2-4.8-3.2-7.7v-25.5h-4.5V307C152,311.1,153.7,315,156.6,317.9L156.6,317.9z M262.5,265.2h4.5
		v66.5h-4.5V265.2z M256.2,265.2h4.5v66.5h-4.5V265.2z M448.4,281.4h4.5v50.4h-4.5V281.4z M442.1,281.4h4.5v50.4h-4.5V281.4z
		 M469,265.2h4.5v66.5H469V265.2z M462.8,265.2h4.5v66.5h-4.5V265.2z M208.1,293.2c-3.7,3.7-5.7,8.6-5.7,13.9s2,10.2,5.7,13.9
		c3.6,3.7,8.6,5.8,13.7,5.7c10.7,0,19.4-8.8,19.4-19.6v-19.6h-19.4C216.6,287.5,211.7,289.6,208.1,293.2z M236.6,307.1
		c0,8.3-6.7,15-14.9,15c-4,0-7.7-1.6-10.5-4.4s-4.4-6.6-4.4-10.6s1.6-7.8,4.4-10.6c2.8-2.8,6.6-4.4,10.5-4.4h14.9V307.1z"/>
	<path class="st3" d="M221.8,281.1c-14.2,0-25.7,11.7-25.7,26c0,6.9,2.7,13.5,7.5,18.4s11.3,7.6,18.2,7.6c5.3,0,10.5-1.7,14.9-4.8
		v3.4h4.5v-16.1c-1.1,2.5-2.6,4.7-4.4,6.6c-3.9,4-9.3,6.3-15,6.3c-5.6,0-11-2.2-15-6.3c-4-4-6.2-9.5-6.2-15.1
		c0-11.8,9.5-21.4,21.2-21.4H243v46h4.6v-50.6H221.8L221.8,281.1z M393.6,293.2c-3.7,3.7-5.7,8.6-5.7,13.9s2,10.2,5.7,13.9
		c3.6,3.7,8.6,5.8,13.7,5.7c10.7,0,19.4-8.8,19.4-19.6v-19.6h-19.4C402.2,287.5,397.3,289.6,393.6,293.2z M422.2,307.1
		c0,8.3-6.7,15-14.9,15c-4,0-7.7-1.6-10.5-4.4s-4.4-6.6-4.4-10.6s1.5-7.8,4.4-10.6c2.8-2.8,6.6-4.4,10.5-4.4h14.9V307.1z"/>
	<path class="st3" d="M407.4,281.1c-14.2,0-25.7,11.7-25.7,26c0,6.9,2.7,13.5,7.5,18.4s11.3,7.6,18.2,7.6c5.3,0,10.5-1.7,14.9-4.8
		v3.4h4.5v-16.1c-1.1,2.5-2.6,4.7-4.5,6.6c-3.9,4-9.3,6.3-15,6.3c-5.6,0-11-2.2-15-6.3c-4-4-6.2-9.5-6.2-15.1
		c0-11.8,9.5-21.4,21.2-21.4h21.1v46h4.5v-50.6H407.4L407.4,281.1z M70.9,308c2.5-1.1,4.8-2.6,6.7-4.6c4.3-4.4,6.9-10.6,6.9-16.7
		c0-5.8-2.3-11.4-6.4-15.5c-4-4-9.2-6.2-15.1-6.2H39.9v66.6h4.5v-62H63c4.6,0,8.7,1.7,11.9,4.8c3.2,3.2,5.1,7.8,5.1,12.3
		c0,4.8-2.1,9.9-5.6,13.4c-3.1,3.1-6.9,4.7-11.2,4.8l18.7,26.7h5.6L70.9,308L70.9,308z"/>
	<path class="st3" d="M59.8,303.2H63c9.9,0,15.2-9.5,15.2-16.4c0-4-1.7-8.2-4.6-11c-2.8-2.8-6.5-4.3-10.6-4.3H46.2v60.2h4.6V276H63
		c3,0,5.5,1,7.4,3c2,2.1,3.2,4.9,3.2,7.8c0,5-3.7,11.8-10.6,11.8H51l23.1,33h5.6L59.8,303.2L59.8,303.2z M367.1,265.2h-4.6
		l11.7,66.6h4.6L367.1,265.2z M337.1,304.9l-18.2-39.7h-5l23.2,50.6l23.2-50.6h-5L337.1,304.9z M295.3,331.8h4.6l11.7-66.6H307
		L295.3,331.8z"/>
	<path class="st3" d="M337.1,320L313,267.5l-11.3,64.3h4.6l8.7-49.2l22.1,48.3l22.1-48.3l8.7,49.2h4.6l-11.3-64.3L337.1,320
		L337.1,320z"/>
</g>
</svg>
