<svg xmlns="http://www.w3.org/2000/svg" width="512" height="512" viewBox="0 0 512 512"><path d="M512 472c0 22.1-17.9 40-40 40H40c-22.1 0-40-17.9-40-40V40C0 17.9 17.9 0 40 0h432c22.1 0 40 17.9 40 40v432z"/><path fill="#FFF" d="M103.4 115.2s-90.1 124.4 0 283.1l28.4-39.2s-63.7-81.3 0-206.7l-28.4-37.2zM408.6 398.3s90.1-124.4 0-283.1l-28.4 39.2s63.7 81.3 0 206.7l28.4 37.2zM398.8 101.9s-124.4-90.1-283.1 0l39.2 28.4s81.3-63.7 206.7 0l37.2-28.4zM115.7 410.1s124.4 90.1 283.1 0l-39.2-28.4s-81.3 63.7-206.7 0l-37.2 28.4zM240.5 181.8s-63-34-96 14.7c0 0-15.2 23.3 4.4 49 0 0 4.2 8.5 37.7 24.5 0 0 31.1 16.1 27.2 29.7 0 0-2.2 40.5-61 5.6 0 0-13.3-9.3-13.5-12.2v41.6s66.9 38.7 101.2-7.8c0 0 17.6-37.5-9.8-66.7 0 0-4.7-6.4-22.5-15-5.4-2.6-40.2-11.8-35.8-34.3 0 0 8.8-18.1 47-7.8 0 0 9 2.8 20.1 12.2l1-33.5zM265.5 349.7V180.4s54.4-23 106.8 0v36.2s-19.6-23.5-74.9-10.8v143.9h-31.9z"/><circle fill="#D9251C" cx="335.5" cy="259.7" r="21.1"/></svg>