<?xml version="1.0" encoding="utf-8"?>
<!-- Generator: Adobe Illustrator 25.2.3, SVG Export Plug-In . SVG Version: 6.00 Build 0)  -->
<svg version="1.1" id="Layer_1" xmlns="http://www.w3.org/2000/svg" xmlns:xlink="http://www.w3.org/1999/xlink" x="0px" y="0px"
	 viewBox="0 0 125 25" style="enable-background:new 0 0 125 25;" xml:space="preserve">
<style type="text/css">
	.st0{fill:#D9251C;}
	.st1{font-family:'Montserrat-Bold';}
	.st2{font-size:17px;}
</style>
<path d="M11.2,4.3c0,0-4.9,6.8,0,15.5l1.6-2.1c0,0-3.5-4.5,0-11.3L11.2,4.3z M27.9,19.8c0,0,4.9-6.8,0-15.5l-1.6,2.1
	c0,0,3.5,4.5,0,11.3L27.9,19.8z M27.4,3.5c0,0-6.8-4.9-15.5,0L14,5.1c0,0,4.5-3.5,11.3,0L27.4,3.5z M11.9,20.5c0,0,6.8,4.9,15.5,0
	l-2.1-1.6c0,0-4.5,3.5-11.3,0L11.9,20.5z M18.7,7.9c0,0-3.5-1.9-5.3,0.8c-0.5,0.9-0.4,1.9,0.2,2.7c0,0,0.2,0.5,2.1,1.3
	c0,0,1.7,0.9,1.5,1.6c0,0-0.1,2.2-3.3,0.3c0,0-0.7-0.5-0.7-0.7v2.3c0,0,3.7,2.1,5.5-0.4c0.6-1.2,0.4-2.7-0.5-3.7
	c-0.3-0.4-0.7-0.6-1.2-0.8c-0.3-0.1-2.2-0.6-2-1.9c0,0,0.5-1,2.6-0.4c0.4,0.2,0.8,0.4,1.1,0.7V7.9z M20.1,17.1V7.9
	c1.9-0.8,4-0.8,5.9,0v2c0,0-1.1-1.3-4.1-0.6v7.9L20.1,17.1z"/>
<circle class="st0" cx="23.4" cy="12" r="1.2"/>
<text transform="matrix(1 0 0 1 35.045 19.14)" class="st1 st2">E</text>
<text transform="matrix(1 0 0 1 46.335 19.14)" class="st1 st2">X</text>
<text transform="matrix(1 0 0 1 58.095 19.14)" class="st1 st2">P</text>
<text transform="matrix(1 0 0 1 69.375 19.14)" class="st1 st2">RESS</text>
</svg>
