<svg xmlns="http://www.w3.org/2000/svg" width="512" height="512" viewBox="0 0 512 512"><path fill="#EE3124" d="M512 472c0 22.1-17.9 40-40 40H40c-22.1 0-40-17.9-40-40V40C0 17.9 17.9 0 40 0h432c22.1 0 40 17.9 40 40v432z"/><path fill="#FFF" d="M105 232.2c-2.7-2.8-5.7-4.8-8.9-6.2-3.2-1.4-6.6-2.1-10.3-2.1-7.9 0-14.6 3-20.2 9.1-5.5 6.1-8.3 13.8-8.3 23.3 0 9.1 2.8 16.8 8.6 22.9 5.7 6.2 12.5 9.2 20.3 9.2 3.5 0 6.7-.6 9.7-1.9 3-1.3 6-3.3 8.9-6.2v6.5h15.3v-61.4H105v6.8zm-4.1 37c-3.2 3.4-7.1 5-11.9 5.1-4.6 0-8.5-1.7-11.7-5.1-3.2-3.4-4.8-7.8-4.7-13.1 0-5.3 1.6-9.6 4.7-13 3.1-3.4 7-5.1 11.7-5.1 4.8 0 8.8 1.7 11.9 5 3.1 3.3 4.2 7.1 4.2 12.5s-1 10.4-4.2 13.7zm107.1-37c-2.7-2.8-5.7-4.8-8.9-6.2-3.2-1.4-6.6-2.1-10.3-2.1-7.9 0-14.6 3-20.2 9.1-5.5 6.1-8.3 13.8-8.3 23.3 0 9.1 2.8 16.8 8.6 22.9 5.7 6.2 12.5 9.2 20.3 9.2 3.5 0 6.7-.6 9.7-1.9 3-1.3 6-3.3 8.9-6.2v6.5h15.3v-61.4H208v6.8zm-4 37c-3.1 3.4-7.1 5-11.9 5.1-4.6 0-8.5-1.7-11.7-5.1-3.2-3.4-4.8-7.8-4.7-13.1 0-5.3 1.6-9.6 4.7-13 3.1-3.4 7-5.1 11.7-5.1 4.8 0 8.8 1.7 11.9 5 3.1 3.3 4.2 7.1 4.2 12.5-.1 5.4-1.1 10.4-4.2 13.7zM315.3 227c-3.3-2-7.1-3.1-11.4-3.1-4.2 0-8 .9-11.6 2.8-3.5 1.9-6.5 4.7-8.9 8.3-1.9-3.6-4.3-6.4-7.4-8.3-3.1-1.9-6.5-2.9-10.3-2.9-3.8 0-7.2.7-10.4 2.2-3.2 1.4-6.1 3.6-8.7 6.5v-7.1h-15.3v61.4h15.3v-27.2c0-5.9.5-10.2 1.6-12.9 1-2.7 2.6-4.9 4.7-6.4s4.4-2.3 6.9-2.3c2.3 0 4.2.6 5.9 1.8 1.6 1.2 2.8 3 3.6 5.5.8 2.5 1.2 6.4 1.2 11.9v29.6h15.3v-27.6c0-5.8.5-10.1 1.5-12.7 1-2.6 2.6-4.7 4.6-6.2 2.1-1.5 4.4-2.2 7.1-2.2 3.5 0 6 1.2 7.8 3.7 1.7 2.5 2.6 7.2 2.6 14.1v31h15.3V251c0-7.4-.7-12.7-2.1-16-1.6-3.3-4-6-7.3-8zm62.7 41.8c-4.1 4.1-9 6.1-14.7 6.1-4.8 0-8.7-1.3-11.8-3.9-3.1-2.6-5-6.1-5.7-10.6h49.1l.1-2.9c0-10.1-3-18.3-9-24.4-6-6.2-13.8-9.2-23.4-9.3-9 0-16.5 3.1-22.5 9.3-6 6.2-9 14-9 23.3 0 9.1 3 16.8 9 22.8 6 6.1 13.8 9.1 23.3 9.1 6.2 0 11.5-1.1 15.9-3.3 4.5-2.2 8.3-5.6 11.5-10.2l-12.8-6zm-25.8-28.3c3.2-2.4 7-3.6 11.2-3.6 3.9 0 7.4 1.1 10.3 3.2 3 2.1 5 4.9 6 8.2h-33.1c1.7-3.7 3.6-6.3 5.6-7.8zm79.1 13.9l20.7-28.9h-17.5l-12 16.7-12-16.7h-17.7l20.9 29.1-23.1 32.3h17.5l14.4-20.1 14.4 20.1h17.7l-23.3-32.5zm-274.2-30.8c-2.8 0-5.3.5-7.4 1.6-2 1-4.4 2.9-7 5.6v-5.3h-14.6v61.4h15.3V255c0-11.7 3.2-17.6 11-17.6 1.4 0 2.7.3 4.1.8 2.5-4.2 5.4-8.2 8.7-11.8-3.5-1.9-6.9-2.8-10.1-2.8z"/></svg>