<?xml version="1.0" encoding="utf-8"?>
<!-- Generator: Adobe Illustrator 25.2.3, SVG Export Plug-In . SVG Version: 6.00 Build 0)  -->
<svg version="1.1" id="Layer_1" xmlns="http://www.w3.org/2000/svg" xmlns:xlink="http://www.w3.org/1999/xlink" x="0px" y="0px"
	 viewBox="0 0 125 25" style="enable-background:new 0 0 125 25;" xml:space="preserve">
<style type="text/css">
	.st0{fill:#0C59A5;}
	.st1{fill:#FD4243;}
	.st2{fill:#FFFFFF;}
</style>
<g>
	<path class="st0" d="M125,0v25H0V0H125z"/>
	<path class="st1" d="M31.5,9c0,0,7-2.3,8.7-2.6C42,6,45.6,5.1,47.4,4.8c1.8-0.3,4.5-0.7,6.8-1c2.2-0.2,5.6-0.5,7-0.6
		s6.6-0.2,7.7-0.2c1.1,0,6.5,0.1,7,0.2c0.6,0,4.4,0.3,5.4,0.4c1,0.1,5.8,0.7,6.1,0.7c0.3,0.1,6.1,1.1,6.1,1.1L92.8,8
		c0,0-4-0.8-6-1.1s-6.1-0.9-9.2-1.2c-3.1-0.3-4.7-0.5-8-0.6S61,4.9,58.3,5s-7.2,0.4-10,0.8s-5.7,0.8-8,1.2C38,7.4,36.6,7.7,35,8.1
		C33.3,8.5,31.5,9,31.5,9L31.5,9z"/>
	<path class="st2" d="M33.7,14.5l3.4,0.4c-0.7,1.4-1.7,2.5-3,3.3c-1.3,0.8-2.9,1.1-4.7,1.1c-2,0-3.6-0.5-4.7-1.4
		c-1.1-0.9-1.7-2.3-1.7-4.1c0-1.4,0.4-2.8,1.1-4C25,8.7,26,7.7,27.4,7.1c1.3-0.6,2.8-1,4.4-1c1.8,0,3.2,0.4,4.3,1.1s1.7,1.7,1.9,3
		l-3.3,0.2c-0.2-0.7-0.5-1.3-1-1.6c-0.5-0.3-1.2-0.5-2-0.5c-0.9,0-1.8,0.2-2.6,0.7c-0.8,0.4-1.5,1.1-2,2.1c-0.5,0.9-0.7,1.9-0.7,2.8
		c0,1,0.3,1.8,1,2.4c0.6,0.6,1.4,0.8,2.4,0.8c0.9,0,1.7-0.2,2.4-0.7C32.8,16,33.4,15.4,33.7,14.5L33.7,14.5z M42.9,12.5l-3.1-0.2
		c0.4-0.8,1-1.5,1.9-1.9c0.9-0.5,2.1-0.7,3.5-0.7c1.5,0,2.7,0.2,3.4,0.7c0.7,0.5,1.1,1.1,1.1,1.7c0,0.3,0,0.6-0.1,0.9
		c-0.1,0.3-0.3,1.1-0.7,2.5c-0.3,1.1-0.5,1.9-0.5,2.3c0,0.4,0.1,0.8,0.3,1.3h-3.1c-0.1-0.3-0.2-0.7-0.2-1c-0.5,0.4-1,0.7-1.6,0.9
		c-0.6,0.2-1.2,0.3-1.8,0.3c-1,0-1.8-0.3-2.4-0.7c-0.6-0.5-1-1.1-1-1.9c0-0.9,0.4-1.6,1.1-2.1s2-0.8,3.8-1c1.5-0.1,2.5-0.2,3.1-0.4
		c0.1-0.3,0.2-0.6,0.2-0.8c0-0.3-0.1-0.5-0.4-0.7c-0.3-0.2-0.7-0.3-1.2-0.3c-0.6,0-1,0.1-1.4,0.3C43.3,11.9,43,12.1,42.9,12.5z
		 M46,14.8c-0.2,0-0.4,0.1-0.8,0.1c-1.6,0.1-2.7,0.4-3.2,0.7c-0.4,0.2-0.5,0.5-0.5,0.8c0,0.3,0.1,0.5,0.4,0.7
		c0.3,0.2,0.6,0.3,1.1,0.3c0.5,0,0.9-0.1,1.4-0.3c0.4-0.2,0.7-0.4,1-0.7s0.4-0.7,0.6-1.3L46,14.8L46,14.8z M53.7,9.9h3.1l-0.3,1.2
		c0.8-0.5,1.5-0.9,2.1-1.1c0.7-0.2,1.4-0.3,2.1-0.3c1,0,1.7,0.2,2.3,0.7c0.6,0.4,0.8,1,0.8,1.7c0,0.3-0.1,0.9-0.4,1.8l-1.4,5.2h-3.2
		l1.4-5.2c0.2-0.8,0.3-1.3,0.3-1.4c0-0.3-0.1-0.6-0.4-0.7c-0.2-0.2-0.6-0.3-1-0.3c-0.5,0-1,0.1-1.6,0.5c-0.6,0.3-1,0.7-1.4,1.2
		c-0.2,0.4-0.5,1.1-0.8,2.2l-1,3.8h-3.2L53.7,9.9z M67.6,9.9h3.1l-0.3,1c0.7-0.4,1.3-0.7,1.8-0.9c0.6-0.2,1.2-0.3,1.8-0.3
		c1.3,0,2.3,0.3,3,1c0.8,0.7,1.1,1.7,1.1,3c0,1.7-0.7,3.1-2,4.2c-1.1,1-2.4,1.5-4,1.5c-1.6,0-2.8-0.5-3.6-1.5l-1.3,4.8h-3.2
		L67.6,9.9L67.6,9.9z M69.5,15.2c0,0.7,0.2,1.3,0.7,1.7c0.4,0.4,1,0.6,1.6,0.6c0.5,0,1-0.1,1.5-0.4c0.5-0.3,0.9-0.8,1.2-1.5
		c0.3-0.7,0.5-1.3,0.5-1.9c0-0.7-0.2-1.2-0.6-1.6c-0.4-0.4-1-0.6-1.6-0.6c-0.6,0-1.2,0.2-1.7,0.5c-0.5,0.3-0.9,0.8-1.2,1.5
		C69.6,14.1,69.5,14.7,69.5,15.2L69.5,15.2z M83.8,12.5l-3.1-0.2c0.4-0.8,1-1.5,1.9-1.9c0.9-0.5,2.1-0.7,3.5-0.7
		c1.5,0,2.7,0.2,3.4,0.7c0.7,0.5,1.1,1.1,1.1,1.7c0,0.3,0,0.6-0.1,0.9c-0.1,0.3-0.3,1.1-0.7,2.5c-0.3,1.1-0.5,1.9-0.5,2.3
		c0,0.4,0.1,0.8,0.3,1.3h-3.1c-0.1-0.3-0.2-0.7-0.2-1c-0.5,0.4-1,0.7-1.6,0.9c-0.6,0.2-1.2,0.3-1.8,0.3c-1,0-1.8-0.3-2.4-0.7
		c-0.6-0.5-1-1.1-1-1.9c0-0.9,0.4-1.6,1.1-2.1c0.7-0.5,2-0.8,3.8-1c1.5-0.1,2.5-0.2,3.1-0.4c0.1-0.3,0.2-0.6,0.2-0.8
		c0-0.3-0.1-0.5-0.4-0.7c-0.3-0.2-0.7-0.3-1.2-0.3c-0.6,0-1,0.1-1.4,0.3C84.1,11.9,83.9,12.1,83.8,12.5L83.8,12.5z M86.8,14.8
		c-0.2,0-0.4,0.1-0.8,0.1c-1.6,0.1-2.7,0.4-3.2,0.7c-0.4,0.2-0.5,0.5-0.5,0.8c0,0.3,0.1,0.5,0.4,0.7c0.3,0.2,0.6,0.3,1.1,0.3
		c0.5,0,0.9-0.1,1.4-0.3c0.4-0.2,0.7-0.4,1-0.7s0.4-0.7,0.6-1.3L86.8,14.8L86.8,14.8z M94.3,9.9h3l-0.5,1.8c1.1-1.3,2.3-2,3.7-2
		c0.5,0,1,0.1,1.5,0.3l-1.2,2c-0.3-0.1-0.6-0.1-0.9-0.1c-0.6,0-1.1,0.2-1.7,0.5c-0.6,0.3-1,0.8-1.3,1.3c-0.3,0.5-0.6,1.4-1,2.6
		L95,19.1h-3.2L94.3,9.9z"/>
</g>
</svg>
