<?xml version="1.0" encoding="utf-8"?>
<!-- Generator: Adobe Illustrator 27.3.1, SVG Export Plug-In . SVG Version: 6.00 Build 0)  -->
<svg version="1.1" id="Layer_1" xmlns="http://www.w3.org/2000/svg" xmlns:xlink="http://www.w3.org/1999/xlink" x="0px" y="0px"
	 viewBox="0 0 512 512" style="enable-background:new 0 0 512 512;" xml:space="preserve">
<style type="text/css">
	.st0{fill:#FFCC00;}
	.st1{fill:none;}
</style>
<path class="st0" d="M511.8,472.3c0,22.1-17.9,40-40,40h-432c-22.1,0-40-17.9-40-40v-432c0-22.1,17.9-40,40-40h432
	c22.1,0,40,17.9,40,40V472.3z"/>
<g id="brand-dp-logo-superzeichen">
	<g id="DP_Logo_SZ_rgb_schwarz-Copy">
		<g id="Boundingbox">
			<rect id="Rectangle" x="4.2" y="4.2" class="st1" width="503.6" height="503.6"/>
		</g>
		<g id="DP_Logo_SZ" transform="translate(10.650000, 12.500000)">
			<path id="Shape" d="M197.7,320.2h43.9l-44.3,44.7h-43.9L197.7,320.2z M94.2,364.9h43.9l44.3-44.7h-43.9L94.2,364.9z M295.7,320.2
				h-43.9l44.3,44.7H340L295.7,320.2z M354.9,320.2H311l44.3,44.7h43.9L354.9,320.2z M419.8,141.1c-6.2,91.2-74.8,171-176.4,171
				c-115,0-159.5-99.8-153.5-175.4l33.8-10.7c-5.5,43,7.9,74.1,17.1,88.3c-11-60.9,35.1-110.1,92.7-110.2
				c51.9,0,94.7,37.7,94.5,91.9c7.6-20.7,12.9-52.2,14-74.2L419.8,141.1z M295.9,197.9c0-34.3-27.9-62.2-62.3-62.2
				c-34.4,0-62.3,27.8-62.3,62.2s27.9,62.2,62.3,62.2C268,260.1,295.9,232.3,295.9,197.9L295.9,197.9z"/>
		</g>
	</g>
</g>
</svg>
