<?xml version="1.0" encoding="utf-8"?>
<!-- Generator: Adobe Illustrator 25.2.3, SVG Export Plug-In . SVG Version: 6.00 Build 0)  -->
<svg version="1.1" id="Layer_1" xmlns="http://www.w3.org/2000/svg" xmlns:xlink="http://www.w3.org/1999/xlink" x="0px" y="0px"
	 viewBox="0 0 512 512" style="enable-background:new 0 0 512 512;" xml:space="preserve">
<style type="text/css">
	.st0{fill-rule:evenodd;clip-rule:evenodd;fill:#472F91;}
	.st1{fill-rule:evenodd;clip-rule:evenodd;fill:#ED6F2E;}
	.st2{fill-rule:evenodd;clip-rule:evenodd;fill:#F46B00;}
	.st3{fill-rule:evenodd;clip-rule:evenodd;fill:#FDFDFE;}
</style>
<g>
	<path class="st0" d="M512,472c0,22.1-17.9,40-40,40H40c-22.1,0-40-17.9-40-40V40C0,17.9,17.9,0,40,0h432c22.1,0,40,17.9,40,40V472z
		"/>
	<path class="st1" d="M365.1,235.2l16.5,18.2l15.9-18.2h34l-33.2,37.4l33.7,37.7h-35.4l-16.4-18.4L364,310.3h-34.1l33.4-37.5
		l-33.4-37.5H365.1L365.1,235.2z M329.9,192.1v26.4h-37.8v16.8h37.8v25.4h-37.8v23.3h37.8v26.4h-65.6V192.1L329.9,192.1L329.9,192.1
		z"/>
	<path class="st2" d="M464.7,280.2c2.5,0,4.9,0.6,7.3,1.9c2.3,1.3,4.3,3.2,5.5,5.6c2.6,4.7,2.6,10.4,0,15c-4,7.1-13,9.6-20.1,5.6
		c0,0-0.1,0-0.1,0c-2.3-1.3-4.2-3.2-5.5-5.6c-2.6-4.7-2.6-10.4,0-15c1.3-2.4,3.2-4.3,5.5-5.6C459.6,280.9,462.1,280.2,464.7,280.2z
		 M464.7,282.7c-6.9,0-12.4,5.6-12.4,12.5c0,0,0,0.1,0,0.1c0,2.2,0.6,4.3,1.6,6.2c3.3,5.9,10.8,8,16.7,4.7c0,0,0.1-0.1,0.1-0.1
		c1.9-1.1,3.5-2.7,4.6-4.6c2.2-3.9,2.2-8.6,0-12.5C473.2,285.1,469.1,282.7,464.7,282.7z M458.2,303.6v-16.2h5.5
		c1.9,0,3.2,0.1,4.1,0.4c1.6,0.6,2.7,2.2,2.8,3.9c0,1.2-0.4,2.3-1.3,3.1c-0.9,0.9-2,1.4-3.3,1.5c0.5,0.2,1,0.5,1.3,0.8
		c0.6,0.6,1.4,1.7,2.4,3.2l2,3.2h-3.1L467,301c-0.7-1.4-1.6-2.7-2.7-3.8c-0.6-0.4-1.3-0.6-2.1-0.6h-1.5v6.9L458.2,303.6L458.2,303.6
		z M460.8,294.5h3.1c1.5,0,2.5-0.2,3-0.7c0.5-0.4,0.8-1.1,0.8-1.8c0-0.5-0.1-0.9-0.4-1.3c-0.3-0.4-0.6-0.7-1.1-0.9
		c-0.8-0.2-1.7-0.3-2.6-0.3h-2.9L460.8,294.5L460.8,294.5z"/>
	<path class="st3" d="M219.8,292.3c-10.2,0-16.5-9.5-16.5-19.4c0-10.6,5.5-20.8,16.5-20.8c11.4,0,16,10.2,16,20.8
		C235.8,282.9,231,292.3,219.8,292.3z M121.5,260.9c1.8-7.5,7.6-12.4,14.8-12.4c8,0,13.5,4.8,15,12.4H121.5z M236.6,192.1v48.4h-0.3
		c-6.1-7-13.8-9.5-22.6-9.5c-18.4,0-32,12.6-36.7,29.2c-5.4-18.3-19.5-29.5-40.7-29.5c-17.2,0-30.5,7.9-37.5,20.5v-15.9H63.6v-16.8
		H102v-26.4H32.2v118.2h31.4v-49.7H95c-1,3.7-1.6,7.5-1.6,11.7c0,24.7,18.8,42,42.8,42c20.2,0,33.6-9.5,40.6-26.8H150
		c-3.6,5.2-6.4,6.7-13.7,6.7c-8.4,0-15.7-7.4-15.7-16.1h54.9c2.4,19.6,17.5,36.5,38.4,36.5c9,0,17.3-4.4,22.4-11.9h0.3v7.6h27.7
		V192.1C264.3,192.1,236.6,192.1,236.6,192.1z"/>
</g>
</svg>
