<?xml version="1.0" encoding="utf-8"?>
<!-- Generator: Adobe Illustrator 25.2.3, SVG Export Plug-In . SVG Version: 6.00 Build 0)  -->
<svg version="1.1" id="Layer_1" xmlns="http://www.w3.org/2000/svg" xmlns:xlink="http://www.w3.org/1999/xlink" x="0px" y="0px"
	 viewBox="0 0 125 25" style="enable-background:new 0 0 125 25;" xml:space="preserve">
<style type="text/css">
	.st0{fill-rule:evenodd;clip-rule:evenodd;fill:#472F91;}
	.st1{fill-rule:evenodd;clip-rule:evenodd;fill:#ED6F2E;}
	.st2{fill-rule:evenodd;clip-rule:evenodd;fill:#FDFDFE;}
</style>
<g>
	<path class="st0" d="M125,0v25H0V0H125z"/>
	<g>
		<path class="st1" d="M83,9.7l2.5,2.8L88,9.7h5.2l-5.1,5.8l5.2,5.8h-5.5l-2.5-2.8l-2.5,2.8h-5.3l5.1-5.8l-5.1-5.8L83,9.7L83,9.7z
			 M77.6,3.1v4.1h-5.8v2.6h5.8v3.9h-5.8v3.6h5.8v4.1H67.5V3.1H77.6L77.6,3.1z"/>
		<path class="st2" d="M60.6,18.5c-1.6,0-2.5-1.5-2.5-3c0-1.6,0.8-3.2,2.5-3.2c1.8,0,2.5,1.6,2.5,3.2C63.1,17.1,62.3,18.5,60.6,18.5
			z M45.4,13.7c0.3-1.2,1.2-1.9,2.3-1.9c1.2,0,2.1,0.7,2.3,1.9H45.4z M63.2,3.1v7.5h0c-0.9-1.1-2.1-1.5-3.5-1.5
			c-2.8,0-4.9,1.9-5.7,4.5C53.2,10.7,51,9,47.7,9c-2.7,0-4.7,1.2-5.8,3.2V9.7h-5.4V7.1h5.9V3.1H31.7v18.2h4.8v-7.7h4.8
			c-0.2,0.6-0.2,1.2-0.2,1.8c0,3.8,2.9,6.5,6.6,6.5c3.1,0,5.2-1.5,6.3-4.1h-4.1c-0.6,0.8-1,1-2.1,1c-1.3,0-2.4-1.1-2.4-2.5h8.5
			c0.4,3,2.7,5.6,5.9,5.6c1.4,0,2.7-0.7,3.5-1.8h0v1.2h4.3V3.1H63.2z"/>
	</g>
</g>
</svg>
