<?xml version="1.0" encoding="utf-8"?>
<!-- Generator: Adobe Illustrator 27.4.1, SVG Export Plug-In . SVG Version: 6.00 Build 0)  -->
<svg version="1.1" id="Layer_1" xmlns="http://www.w3.org/2000/svg" xmlns:xlink="http://www.w3.org/1999/xlink" x="0px" y="0px"
	 viewBox="0 0 125 25" style="enable-background:new 0 0 125 25;" xml:space="preserve">
<style type="text/css">
	.st0{fill:#3200E6;}
	.st1{fill:#FFFFFF;}
	.st2{fill:none;}
</style>
<rect class="st0" width="125" height="25"/>
<g>
	<path class="st1" d="M29.1,2.2c0,0.1,0,0.1-0.1,0.2c-0.2,0.3-0.3,0.6-0.5,0.8c-0.1,0.1-0.2,0.3-0.3,0.4c0,0.1-0.4,0.7-0.5,1
		c-0.1,0.3-0.3,0.6-0.5,0.9c-0.2,0.2-0.4,0.4-0.6,0.5c-0.1,0.1-0.3,0.3-0.5,0.4c0,0.1,0,0.1,0.1,0.1c0.2,0.1,0.4,0.3,0.5,0.5
		c0.1,0.1,0.3,0.2,0.4,0.4c0.2,0.2,0.3,0.4,0.5,0.6c0.1,0.2,0.3,0.4,0.4,0.6c0.1,0.2,0.2,0.3,0.3,0.5c0.2,0,0.3-0.2,0.4-0.3
		c0.2-0.2,0.4-0.4,0.6-0.6C30.2,7.5,31,6.7,31.9,6c0.1-0.1,0.2-0.2,0.4-0.3c0.1,0,0.1,0.1,0.1,0.2c0,0.2-0.1,0.4-0.1,0.6
		c-0.2,0.6-0.4,1-0.6,1.6c0,0.1-0.1,0.3-0.2,0.4c-0.1,0.1-0.1,0.2-0.2,0.3c-0.1,0.1-0.1,0.3-0.2,0.4C31,9,31,9.2,30.9,9.3
		c-0.1,0.1-0.2,0.3-0.3,0.4c-0.2,0.2-0.6,0.5-0.6,0.5c-0.3,0.2-0.7,0.4-1,0.5c-0.1,0.1-0.2,0.1-0.4,0.1c-0.3,0-0.5,0-0.8,0.1
		c-0.1,0-0.3,0-0.3,0.1c-0.1,0.3-0.1,0.6-0.2,0.9c0,0.1,0,0.2,0,0.4c0,0.3-0.1,0.5-0.1,0.8c0,0.1-0.1,1.2-0.2,1.7c0,0.1,0,0.2,0,0.3
		c0,0.3,0,0.7,0,1c0,0.3-0.1,0.5-0.1,0.8c-0.1,0.2-0.2,0.5-0.2,0.7c0,0.1-0.1,0.2-0.2,0.2c0,0-0.1,0-0.1,0c-0.1,0-0.1-0.1-0.1-0.1
		c-0.1-0.4-0.2-0.7-0.3-1.1c0-0.1-0.1-0.3-0.1-0.4c-0.1-0.3-0.2-0.7-0.2-1c-0.1-0.6-0.1-1.1-0.1-1.7c0-0.3,0-0.7,0-1
		c0-0.3,0.1-0.7,0.1-1.1c0-0.4,0.2-0.8,0.1-1.2c0-0.2-0.1-0.1-0.1-0.2c0-0.1-0.2-0.2-0.2-0.3c-0.5-0.4-1-0.8-1.4-1.3
		c-0.1,0-0.1-0.1-0.2-0.1c-0.2,0.1-0.4,0.3-0.7,0.4c-0.5,0.3-1,0.6-1.4,1c-0.3,0.2-0.5,0.4-0.8,0.5c-0.1,0.1-0.2,0.1-0.3,0.2
		c-0.5,0-1.1,0-1.6,0c-0.1,0-0.2,0-0.3,0c-0.1,0-0.1-0.1-0.2-0.1c0-0.1,0.1-0.2,0.1-0.2c0.4-0.1,0.7-0.2,1-0.4
		c0.3-0.1,0.5-0.2,0.7-0.4C20.4,9,20.4,9,20.5,8.9c0.1-0.2,0.3-0.3,0.4-0.5c0.2-0.3,0.4-0.5,0.6-0.7c0.3-0.3,0.6-0.6,0.9-0.9
		c0.3-0.1,0.5-0.2,0.8-0.2c0.4-0.2,0.9-0.3,1.3-0.5c0.2-0.2,0.4-0.4,0.6-0.6c0.5-0.5,1.1-0.8,1.7-1.4c0.3-0.3,0.5-0.6,0.8-0.9
		c0.2-0.3,0.6-0.7,0.8-1.1H28c-5.7,0-10.4,4.6-10.4,10.4c0,3,1.3,5.9,3.6,7.9c0.1-0.1,0.1-0.1,0.1-0.2c-0.3-0.9-1-1.7-1-2.6
		c-0.1-0.7-0.1-1.4-0.1-2.1c0-0.7,0.2-1.3,0.4-1.9c0.5-0.9,1.1-1.8,1.8-2.6l0,0c0.1,0,0.2,0.1,0.3,0.1c0,0,0,0.1,0,0.2
		c0,0,0,0.2-0.1,0.3c0,0.1-0.1,0.3-0.1,0.4c-0.1,0.2-0.2,0.4-0.3,0.6l0,0.1c-0.2,0.6-0.5,1.1-0.6,1.6c0,0.3-0.1,0.7,0,1
		c0,0.2,0,0.5,0,0.7c0,0.3,0.1,0.6,0.2,1c0.1,0.2,0.1,0.3,0.2,0.5c0.1,0.3,0.2,0.7,0.3,1c0,0.1,0.1,0.3,0.2,0.4c0.2,0,0.4,0,0.5,0
		c0.2,0.1,0.3,0.1,0.5,0C24.5,19,25.3,19,26,19c0.4-0.1,0.7-0.1,1.1-0.2c0.3,0,0.6,0,0.9,0c0.2,0,0.4,0,0.5,0c0.2,0,0.5-0.1,0.7,0
		c0.4,0,0.7,0.1,1.1,0.1c0,0,0,0.1,0,0.1c-0.1,0.1,0,0.2-0.1,0.3c-0.5,0.3-1.1,0.5-1.6,0.7l0,0c-0.4,0.2-0.8,0.3-1.2,0.5
		c-0.1,0-0.2,0-0.3,0c-0.2,0-0.4,0.1-0.5,0.2c-0.8,0.2-1.7,0.3-2.5,0.5c0,0-0.2,0.1-0.2,0.2c0,0,0,0.1-0.1,0.1
		c-0.1,0.2-0.1,0.4-0.1,0.6c3.7,1.6,8.1,0.9,11.1-1.8c-0.1-0.4-0.1-0.8-0.2-1.2c-0.4-0.6-0.6-1.2-1-1.8c-0.1-0.3-0.3-0.6-0.4-0.9
		c-0.1-0.1-0.1-0.3-0.2-0.4c-0.3,0-0.6,0.1-0.9,0.1c-0.1,0.1-0.3,0.1-0.4,0.2c-0.1,0-0.3,0-0.4,0c-0.3,0-1,0.1-1,0.1
		c-0.3,0-0.6,0.1-0.9,0.1c-0.1,0-0.2,0-0.3,0c-0.2,0-0.3,0-0.5-0.1c-0.2,0-0.4,0.1-0.6,0.1c-0.1,0-0.1-0.1-0.1-0.2
		c0-0.1-0.1-0.1,0-0.2c0.2,0,0.4-0.2,0.6-0.2c0.1-0.1,0.3,0,0.3-0.1c0.4-0.2,0.9-0.2,1.3-0.5c0.1,0,0.2-0.1,0.4-0.1
		c0.6-0.2,1.1-0.5,1.7-0.7c0.8-0.2,1.4-0.6,2.2-0.8c0.1,0,0.3-0.1,0.4-0.2c0.2-0.2,0.3-0.4,0.4-0.6c0.3-0.3,0.3-0.7,0.7-1
		c0.1-0.1,0.1-0.3,0.3-0.4c0-0.2-0.1-0.4-0.2-0.6c-0.2-0.3-0.4-0.6-0.5-0.9c-0.3-0.5-0.5-1-0.6-1.6c-0.1-0.2-0.4-0.3-0.5-0.5h0
		C34.1,8,34,7.9,33.9,7.8c-0.2-0.2-0.3-0.3-0.5-0.5c-0.1-0.1-0.2-0.3-0.2-0.5c0.3-0.1,0.5,0,0.8,0c0.1,0,0.2,0,0.3,0
		c0.1,0.2,0.2,0.3,0.3,0.5c0.7,1.1,1.6,1.9,2.4,2.9c0.1,0.1,0.1,0.3,0.1,0.4c0.1,0.3,0.1,0.6,0.1,0.8c0.1,0.5-0.1,1-0.1,1.6
		c0,0-0.1,1.2-0.2,1.8c-0.1,0.5-0.1,0.9-0.2,1.4c-0.1,0.3-0.2,0.6-0.2,0.9c0,0.1-0.1,0.2-0.1,0.4c0.1,0.1,0.3,0.2,0.5,0.2
		c2.9-4.9,1.3-11.3-3.6-14.2C32.1,2.8,30.6,2.3,29.1,2.2z M24.1,4c0.1-0.1,0.2,0.1,0.4,0.1c0.1,0.2,0.2,0.4,0.2,0.6
		c0.1,0.2,0,0.4,0,0.6c-0.1,0.1-0.2,0.3-0.2,0.4c-0.1,0.1-0.3,0.2-0.4,0.1c0,0-0.2,0-0.2,0c-0.1-0.1-0.4-0.1-0.4-0.3
		c0-0.4-0.2-0.6-0.3-1C23.3,4.1,23.8,4.2,24.1,4z M24.6,16.8c-0.1,0.2-0.2,0.5-0.3,0.7c0,0.1-0.1,0.1-0.1,0.1c0,0.1-0.1,0.1-0.2,0.1
		c-0.1-0.1-0.2,0-0.4-0.1c-0.1-0.2-0.2-0.3-0.3-0.6c-0.1-0.3,0-0.6,0.1-0.9c0.1-0.2,0.1-0.4,0.2-0.6c0-0.1,0.1-0.2,0.2-0.2
		c0,0,0.1,0,0.1-0.1c0.1,0,0.3-0.1,0.4,0.1c0,0.1,0.1,0.1,0.1,0.2c0.1,0.3,0.1,0.6,0.2,0.8C24.7,16.5,24.6,16.6,24.6,16.8z
		 M33.4,10.3L33.4,10.3c0.2,0.1,0.4,0.1,0.6,0.2c0.2,0.1,0.4,0.2,0.5,0.5c0,0.2,0,0.4,0.1,0.6c0,0.3,0.2,0.8-0.2,1
		c-0.2,0-0.5-0.1-0.7-0.2c-0.1,0-0.2-0.1-0.3-0.2C33,12,33.1,11.6,33,11.3c0-0.2-0.1-0.4-0.1-0.6c0-0.1,0-0.2,0.1-0.3
		C33.1,10.3,33.2,10.2,33.4,10.3z"/>
	<path class="st1" d="M53.6,13.4h2.1v2.2c-0.7,0.3-1.5,0.5-2.2,0.5c-2,0-3.3-1.5-3.3-3.6C50,10.6,51.4,9.1,53.2,9c0.1,0,0.2,0,0.2,0
		c0.9,0,1.8,0.3,2.5,1l0.1,0.1l1.5-1.5l-0.1-0.1C56.3,7.4,54.9,7,53.4,7c-2.9-0.1-5.3,2.1-5.5,5c0,0.2,0,0.3,0,0.5
		c0,3.2,2.2,5.4,5.5,5.4c1.5,0,2.9-0.3,4.2-1l0.1,0v-5.4h-4.1V13.4z M62.8,13.3h4.6v-1.9h-4.6V9.2h4.9V7.3h-7v10.4H68v-1.9h-5.1
		L62.8,13.3L62.8,13.3z M75.6,7h-0.1c-2.9-0.1-5.3,2.1-5.5,5c0,0.2,0,0.3,0,0.5c0,3.2,2.2,5.4,5.5,5.4l0,0c3.3-0.1,5.5-2.2,5.5-5.4
		S78.9,7,75.6,7L75.6,7z M75.5,16c-2,0-3.3-1.5-3.3-3.6c-0.1-1.8,1.3-3.4,3.2-3.5s3.4,1.3,3.5,3.2c0,0.1,0,0.2,0,0.3
		C78.9,14.5,77.5,16,75.5,16L75.5,16z M87.7,7.3h-4.1v10.4h3.9c2.7,0,5.5-1.8,5.5-5.2C93,8.9,90.3,7.3,87.7,7.3L87.7,7.3z
		 M86.9,15.8h-1.2V9.2h1.5c1.7,0,3.7,0.6,3.7,3.3C90.8,15.5,88.1,15.8,86.9,15.8L86.9,15.8z M95.5,17.7h2.1V7.3h-2.1V17.7z
		 M104.4,11.5c-1-0.3-1.8-0.6-1.8-1.4c0-0.9,0.8-1.2,1.5-1.2c0.6,0,1.3,0.2,1.7,0.7l0.1,0.1l1.5-1.6l-0.1-0.1
		c-0.8-0.7-1.9-1.1-3-1.1c-1.9,0-3.9,1-3.9,3.2s1.6,2.7,2.9,3.1c1,0.3,1.9,0.6,1.9,1.5s-0.8,1.2-1.6,1.2c-0.7,0-1.4-0.4-1.8-1
		l-0.1-0.1l-1.6,1.5l0.1,0.1c0.9,1,2.1,1.5,3.4,1.4c2.3,0,3.8-1.3,3.8-3.4C107.4,12.4,105.8,11.9,104.4,11.5L104.4,11.5z"/>
</g>
<rect x="-30.7" y="-29.9" class="st2" width="202.9" height="92.8"/>
</svg>
