<svg xmlns="http://www.w3.org/2000/svg" width="512" height="512" viewBox="0 0 512 512"><path fill="#0A5096" d="M512 472c0 22.1-17.9 40-40 40H40c-22.1 0-40-17.9-40-40V40C0 17.9 17.9 0 40 0h432c22.1 0 40 17.9 40 40v432z"/><path fill-rule="evenodd" clip-rule="evenodd" fill="#DF2125" d="M327.8 116.7c-40.9 94.8-86.4 184.9-128.2 278.7h-45.9c26.1-61.9 61.1-135.9 92.9-204.6 16-34.5 27.9-82.3 81.2-74.1z"/><path fill-rule="evenodd" clip-rule="evenodd" fill="#FFF" d="M366.6 116.7h103.5c-28.8 63.7-62.9 136.4-95.3 205.8-9.2 19.6-19.6 52.9-35.3 64.7-23.2 17.3-67.1 3.8-103.5 8.2 42.9-93.6 85.4-187.5 130.6-278.7zM174.9 268.4c-15.5 34.3-32.1 67.4-47 102.3-23.1-19.3-42.5-41.4-65.9-64.7-7.4-7.4-36.1-31.2-8.2-37.6 31.5-7.3 86.9 5.5 121.1 0z"/></svg>