<svg xmlns="http://www.w3.org/2000/svg" xmlns:xlink="http://www.w3.org/1999/xlink" id="Vector"
  width="512" height="512" x="0" y="0" enable-background="new 0 0 512 512" version="1.1"
  viewBox="0 0 512 512" xml:space="preserve">
  <path d="M512,472c0,22.1-17.9,40-40,40H40c-22.1,0-40-17.9-40-40V40C0,17.9,17.9,0,40,0h432c22.1,0,40,17.9,40,40V472z"/>
  <path fill="#FFFFFF" fill-rule="evenodd" d="M136.1,196c9.1-0.4,32-1.1,33.8,17.5c0.1,1.4,0.2,2.9,0,4.3
	c-0.5,4.8-1.3,6.9-1.7,10.6c-8.4,0-16.7,0-25.1,0c7.4-16.3-24.1-14.7-24.1-4c0,5.8,11.3,7.6,16.2,9.2c9.3,3.1,20.5,7.7,20.8,18.8
	c0.3,8.2-5.1,16.5-9.3,21.5c-8.4,9.9-21.2,15.9-38.3,17.2c-2.5,0-5.1,0-7.6,0c-12.2-0.8-24.9-2.8-28.7-11.9
	c-2.8-6.6,0.2-15,1.7-21.8c8.9,0,17.8,0,26.8,0c-1.6,3.7-2.1,7.2-1,9.9c3.8,9.4,27.2,3.4,27.1-5.9c-0.1-6.4-10-7.5-15.9-9.3
	c-7.7-2.4-17-6.4-19.7-13.4c-3.9-9.9,3.8-20.9,8.1-26.6C100.2,210.8,113.9,196.9,136.1,196z" clip-rule="evenodd"/>
  <path fill="#FFFFFF" fill-rule="evenodd" d="M332.8,281.2c-10.9-13.9-1.3-37.8,6.9-50.2
	c6.4-9.6,13.6-18.9,22.1-24.8c12.9-8.8,37.7-14.4,53.8-6.6c12.4,6,16.5,22.9,9.9,40c-2,4.7-3.9,9.1-6.3,13.5
	c-1.9,3.6-4.1,9.2-7.6,11.9c-3.9,3-12,4.5-17.8,5.9C374.8,275.6,351.7,278.9,332.8,281.2z M380.3,220.1
	c-8.8,5.3-17.6,19.4-21.8,31.4c-3.8,10.8-1.5,22.2,12.2,19.2c8.6-1.9,14.6-10.2,19.8-18.8c4.5-7.5,8.5-14.9,8.9-23.1
	c0.5-8.9-3.5-12.1-11.6-11.2C385.6,217.7,382.4,218.9,380.3,220.1z" clip-rule="evenodd"/>
  <path fill="#FFFFFF" fill-rule="evenodd" d="M257.1,220.3c-22.6,0-30.8,0-50.5,0c-2.2,3.9-4,7.9-5.9,12.1
	c13.3,0,29.5,0,43.9,0c-3,7-6.2,14-9.6,20.6c-20.3,0-21.8,0-43.9,0c-2.6,4-4.2,9.1-6.6,13.4c17.3,0,34.7,0,52,0
	c-4,9.4-7.3,16-11,23.8c-25.2,0-54.1,0-80.4,0c6.1-13.3,7.7-15.6,11.3-23.5c10.8-22.9,22.3-46.1,33-69.2c32.4,0,49.2,0,78.6,0
	C264.2,204.9,260.9,212.8,257.1,220.3z" clip-rule="evenodd"/>
  <path fill="#FFFFFF" fill-rule="evenodd" d="M232,290.7c14.6-30.7,29.7-62.7,44.3-93.4c9.2,0,18.5,0,27.7,0
	c-4.7,10.5-9.8,20.5-14.5,31.1c9.8-7,20.3-15.1,30.7-23.1c3.1-2.4,6.8-5.6,10.2-7.9c5.4,0,11.3,0,16.6,0c5.5,0,11.5,0,17.2,0
	c-1.3,1-1.8,1.5-2.3,2c-14.7,11.6-31,22.3-45.3,33.7c1.1,16.1,2.1,32.2,3,48.6c0,0.4,0,1.2,0,1.6c-9.5,0.7-18.4,1.9-28.1,2.5
	c0-7.7-0.1-9.2-0.3-15.4c0-1-0.2-2.7-0.2-3.6c-0.2-6.9-0.4-9.7-0.5-14.5c-5.2,2.2-11.3,6.3-16.8,9.3c-3.8,9.1-8.4,17.9-12.4,26.8
	C252.5,289.2,242.7,290.7,232,290.7z" clip-rule="evenodd"/>
  <path fill="#E9404A" fill-rule="evenodd" d="M425.3,240.4c2.4,0,4.6-0.1,6.6,0.2c13.9,1.7,29.7,11.1,20.8,26.8
	c-9.4,16.6-33.6,24.5-53.5,30.4c-66,19.3-144.3,24.7-224.6,27.7c-0.4,0-0.8-0.2-0.3-0.3c54.2-4,108.8-8.6,156.9-18.5
	c16.1-3.3,31.8-6.9,45.6-13.2c-87.3,22.4-197.2,20.9-305.3,22.5c-2.3-0.2-5.6-0.2-11-1c70.4-2.9,152-7,218.2-14.2
	c22-2.4,43.7-4.7,63.1-10.9c-73.8,10.5-165.4,7.9-250.1,7.9c-5.7,0-19.5-0.8-21.9-0.4c6.3-1.1,18-0.3,24.9-0.6
	c33.7-1.3,67.4-2.2,99.8-4.3c13.2-0.8,25.9-1.7,38.3-2.2c8.5-0.3,18.4-1.2,28.7-1.9c9.4-0.7,20.4-2,30.1-2.9
	c9.6-0.6,25.2-2.3,28.1-2.6c1.7-0.2,2.9-0.3,3.6-0.4c2.8-0.3,2.2-0.2,4.4-0.6c2.6-0.4,3.1-0.4,5.3-0.7c19-2.3,42.1-5.6,61.1-10.2
	c5.9-1.4,13.9-2.9,17.8-5.9c3.5-2.7,5.7-8.3,7.6-11.9C421.7,248.7,423.3,245.1,425.3,240.4z" clip-rule="evenodd"/>
</svg>