<?xml version="1.0" encoding="utf-8"?>
<!-- Generator: Adobe Illustrator 25.2.3, SVG Export Plug-In . SVG Version: 6.00 Build 0)  -->
<svg version="1.1" id="Layer_1" xmlns="http://www.w3.org/2000/svg" xmlns:xlink="http://www.w3.org/1999/xlink" x="0px" y="0px"
	 viewBox="0 0 125 25" style="enable-background:new 0 0 125 25;" xml:space="preserve">
<style type="text/css">
	.st0{fill:#304C9C;}
	.st1{fill-rule:evenodd;clip-rule:evenodd;fill:#FFFFFF;}
	.st2{fill-rule:evenodd;clip-rule:evenodd;fill:#304C9C;}
	.st3{fill-rule:evenodd;clip-rule:evenodd;fill:#CC262D;}
</style>
<g>
	<path class="st0" d="M125,0H0v25h125V0z"/>
	<path class="st1" d="M117.9,18.6c0,1.2-0.9,2.1-2.1,2.1s-2.1-0.9-2.1-2.1c0-1.2,0.9-2.1,2.1-2.1S117.9,17.4,117.9,18.6z M114,18.6
		c0,1,0.8,1.8,1.8,1.8c1,0,1.8-0.8,1.8-1.8c0-1-0.8-1.8-1.8-1.8C114.7,16.8,114,17.6,114,18.6z M115.3,19.8H115v-2.4h0.9
		c0.6,0,0.8,0.2,0.8,0.7c0,0.4-0.3,0.6-0.6,0.7l0.7,1.1h-0.4l-0.7-1.1h-0.5L115.3,19.8L115.3,19.8L115.3,19.8z M115.7,18.5
		c0.4,0,0.7,0,0.7-0.4c0-0.3-0.3-0.4-0.6-0.4h-0.6v0.8L115.7,18.5L115.7,18.5z"/>
	<path class="st1" d="M35.9,21.2l3.8-18H14.7l-3.8,18H35.9z"/>
	<path class="st2" d="M15.2,3.9c0,0,13.9,2.9,14.2,2.9C32.6,7.4,32.5,8,32.5,8c2.2,0,2.5,0.1,2.9,0.4c1.2,1-0.7,3.9-0.7,3.9
		c-0.3,0.2-21,8.2-21,8.2h21.7l3.5-16.7L15.2,3.9L15.2,3.9L15.2,3.9z"/>
	<path class="st2" d="M31.4,9.3c-0.3,0.2-1.1,0.2-1.5,0.3c-0.4,0-0.5,0.1-0.5,0.2c0,0.1,0.1,0.2,0.6,0.2c1.2,0,3.4-0.5,4.1-0.2
		c0.3,0.1,0.1,0.7-0.2,1.5c-0.1,0.3,0.1,0.3,0.2,0.2c0.1-0.1,0.7-1.2,0.8-1.7C35,9,34.3,8.9,33.4,8.9H32c-0.1,0-0.1,0.1-0.2,0.2
		C31.7,9.2,31.6,9.2,31.4,9.3z"/>
	<path class="st1" d="M14.4,7.7l-2.7,12.8c0,0,8.3-4.1,9.4-4.6c2.1-1.1,5-2.5,7.7-3.4c0.5-0.2,2.7-0.8,4-1.1
		c0.5-0.1,0.7-0.2,0.7-0.3c0-0.3-0.5-0.3-1.4-0.2c-2.6,0.1-7.5,2.1-8.9,2.8l-1.6-4.9h10.2c0.5-1.3-6-1.1-6.2-1.1H14.4z M44.9,10.2
		c-1.6,0-2.6-0.7-2.3-2.1c0.5-2.5,0.9-4.2,0.9-4.2h1.4c0,0-0.8,3.9-0.8,3.8c-0.2,1,0,1.6,1.1,1.6c1,0,1.5-0.6,1.7-1.6l0.8-3.8H49
		c-0.9,4.2,0,0-0.9,4.2C47.8,9.5,46.5,10.2,44.9,10.2z M54.5,10.1h-1.7l-1.5-4.6h0l-1,4.6H49l1.3-6.3h1.8l1.5,4.7h0l1-4.7h1.2
		L54.5,10.1z M57.2,10.1h-1.4l1.3-6.3h1.4L57.2,10.1z M64.5,4.8h-1.9l-1.1,5.3h-1.4l1.1-5.3h-1.9l0.2-1h5.3L64.5,4.8z M70,4.8h-3.2
		l-0.3,1.6h2.7L69,7.4h-2.7l-0.4,1.7h3.1l-0.2,1h-4.5l1.3-6.3h4.5L70,4.8z M72.7,10.1h-2.8l1.3-6.3h3c1.9,0,2.5,1.3,2.3,2.9
		C76.1,8.9,74.4,10.1,72.7,10.1z M73.8,4.8h-1.4l-0.9,4.3h1c1.6,0,2.5-1,2.7-2.4C75.3,5.7,74.9,4.8,73.8,4.8z M83.2,4.8h-1.5
		c-0.8,0-1.1,0.2-1.2,0.5c-0.2,1,2.5,1.8,2.2,3.3c-0.1,0.9-0.9,1.5-2.6,1.5h-2.1l0.2-1H80c0.5,0,1.2,0,1.3-0.5
		c0.2-0.9-2.5-1.8-2.3-3.3c0.1-0.9,0.9-1.5,2.5-1.5h1.8L83.2,4.8z M89.2,4.8h-1.9l-1.1,5.3h-1.4l1.1-5.3h-1.9l0.2-1h5.3L89.2,4.8z
		 M89.4,10.1l0.5-1h2l-0.5-4l-2.7,5h-1.4l3.6-6.3h1.6l1,6.3H89.4z M99.1,4.8h-1.9L96,10.1h-1.4l1.1-5.3h-1.9l0.2-1h5.3L99.1,4.8z
		 M104.5,4.8h-3.1L101,6.5h2.7l-0.2,0.9h-2.8l-0.4,1.7h3.1l-0.2,1h-4.5l1.3-6.3h4.5L104.5,4.8z M109.4,4.8h-1.5
		c-0.8,0-1.1,0.2-1.2,0.5c-0.2,1,2.5,1.8,2.2,3.3c-0.1,0.9-0.9,1.5-2.6,1.5h-2.1l0.2-1h1.7c0.5,0,1.2,0,1.3-0.5
		c0.2-0.9-2.5-1.8-2.3-3.3c0.1-0.9,0.9-1.5,2.5-1.5h1.8L109.4,4.8z M43,18.1c-0.2,0-0.5,0-0.7-0.1l-0.1-0.9c0.2,0,0.4,0,0.6,0
		c0.9,0,1.3-0.6,1.4-1c0.1-0.7-0.2-0.9-0.7-0.9h-1.1l-1.1,5.3h-1.4l1.3-6.3h3c1.4,0,1.5,1.2,1.3,2C45.4,17.4,44.3,18.1,43,18.1z
		 M48.7,20.6c-1.9,0-3-1.5-2.6-3.2c0.5-2.2,2.1-3.2,4-3.2c1.9,0,3,1.4,2.6,3.2C52.2,19.7,50.6,20.6,48.7,20.6z M49.8,15.1
		c-1.2,0-2.1,0.8-2.4,2.2c-0.3,1.2,0.2,2.2,1.4,2.2c1.2,0,2.1-0.8,2.4-2.2C51.5,16.1,51.1,15.1,49.8,15.1z M57.7,15.3h-1.5
		c-0.8,0-1.1,0.2-1.2,0.5c-0.2,1,2.5,1.8,2.2,3.3c-0.1,0.9-0.9,1.5-2.6,1.5h-2.1l0.2-1h1.7c0.5,0,1.2,0,1.3-0.5
		c0.2-0.9-2.5-1.8-2.3-3.3c0.1-0.9,0.9-1.5,2.5-1.5h1.8L57.7,15.3z M63.6,15.3h-1.9l-1.1,5.3h-1.4l1.1-5.3h-1.9l0.2-1h5.3L63.6,15.3
		z M63.9,20.5l0.5-1h2l-0.5-4l-2.7,5h-1.4l3.6-6.3H67l1,6.3H63.9z M72.9,20.5h-4.2l1.3-6.3h1.4l-1.1,5.3h2.8L72.9,20.5z M80.4,15.3
		h-1.5c-0.7,0-1.1,0.2-1.2,0.5c-0.2,1,2.5,1.8,2.2,3.3c-0.1,0.9-0.9,1.5-2.6,1.5h-2.1l0.2-1h1.7c0.5,0,1.2,0,1.3-0.5
		c0.2-0.9-2.5-1.8-2.2-3.3c0.1-0.9,0.9-1.5,2.5-1.5h1.8L80.4,15.3z M86.1,15.3h-3.1l-0.3,1.6h2.7l-0.2,0.9h-2.7L82,19.5h3.2l-0.2,1
		h-4.5l1.3-6.3h4.5L86.1,15.3z M90,17.8l1,2.7h-1.5l-1.1-3.4c0.2,0,0.4,0,0.5,0c0.7,0,1.3-0.3,1.5-1c0.1-0.4,0-0.8-0.8-0.8h-1.2
		l-1.1,5.3H86l1.3-6.3h2.9c1.2,0,1.7,0.5,1.6,1.6C91.7,17,91,17.7,90,17.8z M95.1,20.5h-1.6l-0.9-6.3h1.4l0.6,5l2.7-5h1.4L95.1,20.5
		z M99.6,20.5h-1.4l1.3-6.3h1.4L99.6,20.5z M106.5,15.3c-0.4-0.1-0.8-0.2-1.5-0.2c-1.2,0-2.3,0.8-2.6,2.2c-0.3,1.4,0.4,2.2,1.7,2.2
		c0.7,0,1.2-0.1,1.7-0.2l-0.3,1.1c-0.5,0.1-1,0.1-1.5,0.1c-1.9,0-3.3-1-2.9-3.2c0.5-2.2,2.3-3.2,4.2-3.2c0.5,0,0.9,0.1,1.4,0.1
		L106.5,15.3z M112,15.3h-3.1l-0.4,1.6h2.8l-0.2,0.9h-2.7l-0.4,1.7h3.1l-0.2,1h-4.5l1.3-6.3h4.5L112,15.3z"/>
	<path class="st3" d="M112.7,12.4l0.1-0.5h-71l-0.1,0.5H112.7z"/>
	<path class="st2" d="M14.4,7.7l-2.7,12.8c0,0,8.3-4.1,9.4-4.6c2.1-1.1,5-2.5,7.7-3.4c0.5-0.2,2.7-0.8,4-1.1
		c0.5-0.1,0.7-0.2,0.7-0.3c0-0.3-0.5-0.3-1.4-0.2c-2.6,0.1-7.5,2.1-8.9,2.8l-1.6-4.9h10.2c0.5-1.3-6-1.1-6.2-1.1H14.4z"/>
</g>
</svg>
