<svg xmlns="http://www.w3.org/2000/svg" width="512" height="512" viewBox="0 0 512 512"><path fill="#ADCE2C" d="M512 472c0 22.1-17.9 40-40 40H40c-22.1 0-40-17.9-40-40V40C0 17.9 17.9 0 40 0h432c22.1 0 40 17.9 40 40v432z"/><path fill="#FFF" d="M33.9 217l18.7 32.3L71.3 217zM93.7 216.9L33.4 320.3h24.4L119.7 217zM128.4 238.2l-15.8 26.6 5.8 19.9h31.1l24-41.5 9.4 41.4 22.1.1 29.7-51.5-11.8 51.5h21.8l30.8-35.3-8.5 35.3h21.5l45.1-51.9h51.8l9.1-15.8h-68.8l-32.5 38.1 9.1-38.1-17.3-.1-33.9 39.3 9.5-39.2-37.7-.1-27.3 46.6-9.7-46.5h-21.5l-28.8 52.4z"/><path fill="#FFF" d="M329.6 243.7l-22.3 40.7 48.1.2 8.6-15h-27.3l5.6-10.7h28.6l7.6-15.2zM363.4 284.6l37.1-67.6h19.4l10.6 45.4 26.3-45.4h21.8l-39.4 67.7h-20.8L408.2 240l-25.1 44.6z"/><path fill="#015DAE" d="M134.8 191.7L90.3 266h22.6l43.5-74.3z"/></svg>