<svg xmlns="http://www.w3.org/2000/svg" width="512" height="512" viewBox="0 0 512 512"><path fill="#2B9A9A" d="M512 472c0 22.1-17.9 40-40 40H40c-22.1 0-40-17.9-40-40V40C0 17.9 17.9 0 40 0h432c22.1 0 40 17.9 40 40v432z"/><path fill-rule="evenodd" clip-rule="evenodd" fill="#FAAF3B" d="M184.8 334.8l44.5-72.5h-82.6l38.1 72.5"/><path fill-rule="evenodd" clip-rule="evenodd" fill="#FFF" d="M191.5 331.7l-32 54h37L274 262.8h-40.4l-25.2 40.3M295.9 262.8l-77.5 122.6h37.1l77.4-122.6"/><path fill-rule="evenodd" clip-rule="evenodd" fill="#FFF" d="M248.7 262.8h107.9l-13.5 26.9h-89.3"/><path fill="#FFF" d="M144.3 239.2c2.8-25.4 24.1-45.2 50.1-45.2 11.8 0 22.7 4.1 31.3 11 9.7-32.5 39.7-56.2 75.1-56.2 43.3 0 78.4 35.4 78.4 79 0 4.2-.3 8.4-1 12.5 19.8 4.7 34.6 22.6 34.6 44 0 24.9-20.1 45.2-44.8 45.2h-67.4c-2.2 3.8-10.9 15.1-13.3 22.6H368c37.1 0 67.2-30.3 67.2-67.8 0-25-13.5-47-33.6-58.7-1.2-55.1-45.8-99.4-100.8-99.4-36.2 0-68 19.3-85.7 48.2-6.6-2-13.5-3-20.7-3-31.2 0-57.8 19.8-68.1 47.6-28.5 7.9-49.4 34.1-49.4 65.4 0 37.3 30.1 67.8 67.2 67.8h18.5c.1.6 8.6-15.1 12.7-22.6H144c-24.7 0-44.8-20.3-44.8-45.2 0-24.9 20.1-45.2 44.8-45.2h.3z"/></svg>