<?xml version="1.0" standalone="no"?>
<!DOCTYPE svg PUBLIC "-//W3C//DTD SVG 20010904//EN"
 "http://www.w3.org/TR/2001/REC-SVG-20010904/DTD/svg10.dtd">
<svg version="1.0" xmlns="http://www.w3.org/2000/svg"
 width="700.000000pt" height="700.000000pt" viewBox="0 0 700.000000 700.000000"
 preserveAspectRatio="xMidYMid meet">
<metadata>
Created by potrace 1.11, written by Peter Selinger 2001-2013
</metadata>
<g transform="translate(0.000000,700.000000) scale(0.100000,-0.100000)"
fill="#000000" stroke="none">
<path d="M3380 5829 c-130 -8 -232 -22 -381 -53 -203 -43 -488 -166 -698 -303
-277 -180 -540 -461 -701 -748 -40 -71 -40 -71 -99 -79 -563 -76 -1069 -445
-1323 -965 -43 -89 -100 -237 -113 -291 -2 -8 -11 -46 -20 -85 -9 -38 -18 -83
-20 -100 -3 -16 -9 -56 -13 -88 -12 -79 -7 -364 8 -457 61 -385 225 -706 499
-981 292 -291 649 -459 1076 -505 81 -9 3912 -11 4045 -2 58 4 139 14 180 23
41 9 82 18 91 20 47 10 207 69 261 96 120 60 267 157 324 213 12 12 36 35 55
52 47 42 109 111 144 159 17 22 32 42 35 45 14 13 101 161 123 210 102 223
139 384 142 617 2 140 -8 229 -39 372 -11 51 -50 159 -84 236 -33 75 -116 224
-131 235 -3 3 -19 24 -35 47 -35 52 -174 196 -241 250 -76 62 -211 147 -296
187 -79 37 -236 92 -293 102 -17 3 -49 9 -71 14 -22 5 -67 11 -100 15 -33 3
-60 7 -62 8 -1 1 -4 14 -6 27 -24 129 -121 411 -175 510 -5 8 -28 51 -52 95
-227 420 -623 775 -1070 960 -148 61 -390 128 -510 141 -25 3 -52 8 -60 10 -8
3 -71 7 -140 10 -69 3 -129 6 -135 8 -5 1 -57 -1 -115 -5z m370 -599 c528 -92
953 -406 1189 -878 57 -114 121 -306 137 -412 3 -25 8 -56 11 -70 8 -47 18
-219 17 -295 l-1 -75 241 -1 c133 -1 257 -2 276 -4 329 -23 634 -260 746 -579
160 -452 -84 -960 -535 -1115 -152 -52 -60 -50 -2196 -50 -1110 0 -2008 4
-2030 8 -22 5 -58 12 -80 14 -92 13 -274 83 -381 147 -141 85 -311 254 -385
383 -113 196 -165 369 -172 567 -19 517 294 975 783 1148 120 42 255 62 432
65 l152 3 38 98 c89 236 202 418 361 578 262 267 565 420 934 472 103 15 369
13 463 -4z"/>
</g>
</svg>
