<svg width="99" height="28" viewBox="0 0 99 28" fill="none" xmlns="http://www.w3.org/2000/svg">
<path d="M7.20413 8.99785L3.29104 5.12164L1.08622 6.38261C0.488842 6.72425 0 7.5629 0 8.24646V11.5017L7.04255 9.60025C7.37537 9.51052 7.44816 9.23932 7.20413 8.99785Z" fill="#18191F"/>
<path d="M4.41158 4.51161L6.75826 6.83615C7.00217 7.07782 7.32799 7.02524 7.48207 6.71964L10.2917 1.14874L4.41158 4.51161Z" fill="#18191F"/>
<path d="M13.3079 0.656367C12.97 0.463029 12.5104 0.383109 12.0667 0.408512L8.42344 7.63253C8.26929 7.93812 8.34276 8.38604 8.58659 8.62751L11.7782 11.7891C12.0221 12.0306 12.4212 12.0306 12.6651 11.7891L20.0256 4.4983L13.3079 0.656367Z" fill="#18191F"/>
<path d="M23.3573 6.38254L21.1524 5.12164L17.2392 8.99778C16.9953 9.23925 17.0681 9.51045 17.4009 9.60025L24.4434 11.5017V8.24639C24.4434 7.5629 23.9547 6.72425 23.3573 6.38254Z" fill="#18191F"/>
<path d="M10.7105 12.356L9.23014 10.8896C8.98631 10.6481 8.51451 10.5237 8.18162 10.6135L3.3993 11.9047C3.06627 11.9947 3.03293 12.2171 3.32493 12.3991L10.623 16.9486C10.915 17.1306 11.1539 16.9998 11.1539 16.6583V13.4167C11.1539 13.075 10.9544 12.5975 10.7105 12.356Z" fill="#18191F"/>
<path d="M21.2789 11.9046L16.4964 10.6135C16.1636 10.5237 15.6917 10.6481 15.4479 10.8896L13.9677 12.356C13.7237 12.5975 13.5241 13.0749 13.5241 13.4166V16.6583C13.5241 16.9998 13.763 17.1305 14.0551 16.9486L21.3533 12.3991C21.6451 12.2171 21.6118 11.9947 21.2789 11.9046Z" fill="#18191F"/>
<path d="M10.5056 18.4494L1.56432 12.8754C1.27239 12.6935 0.761367 12.6179 0.428401 12.7079L0 12.8236V19.7724C0 20.4559 0.488771 21.2947 1.08622 21.6363L11.0365 27.327V19.4017C11.0365 19.0601 10.7976 18.6314 10.5056 18.4494Z" fill="#18191F"/>
<path d="M24.0142 12.7077C23.6814 12.618 23.1703 12.6935 22.8783 12.8756L13.937 18.4492C13.6449 18.6312 13.4061 19.0599 13.4061 19.4014V27.3267L23.3564 21.6361C23.9539 21.2945 24.4426 20.4557 24.4426 19.7721V12.8234L24.0142 12.7077Z" fill="#18191F"/>
<path d="M39.6069 7.139C40.8252 7.139 41.8505 7.54911 42.6828 8.36935C43.5151 9.18959 43.9313 10.1968 43.9313 11.391C43.9313 12.5851 43.5151 13.5923 42.6828 14.4126C41.8505 15.2328 40.8252 15.6429 39.6069 15.6429H37.3814V19.8044H34.8845V7.139H39.6069ZM39.6069 13.3089C40.1377 13.3089 40.5779 13.1279 40.9277 12.7661C41.2776 12.3921 41.4525 11.9338 41.4525 11.391C41.4525 10.8361 41.2776 10.3777 40.9277 10.0159C40.5779 9.65399 40.1377 9.47305 39.6069 9.47305H37.3814V13.3089H39.6069Z" fill="#18191F"/>
<path d="M45.4483 19.8044V6.59619H47.7823V19.8044H45.4483Z" fill="#18191F"/>
<path d="M56.7942 10.7577H59.1282V19.8044H56.7942V18.7369C56.0946 19.6175 55.1115 20.0577 53.8449 20.0577C52.6387 20.0577 51.6013 19.5994 50.7328 18.6826C49.8764 17.7538 49.4482 16.62 49.4482 15.2811C49.4482 13.9421 49.8764 12.8143 50.7328 11.8976C51.6013 10.9688 52.6387 10.5044 53.8449 10.5044C55.1115 10.5044 56.0946 10.9447 56.7942 11.8252V10.7577ZM52.4879 17.1266C52.9584 17.597 53.5554 17.8322 54.2792 17.8322C55.0029 17.8322 55.6 17.597 56.0704 17.1266C56.5529 16.6441 56.7942 16.0289 56.7942 15.2811C56.7942 14.5332 56.5529 13.924 56.0704 13.4536C55.6 12.9711 55.0029 12.7299 54.2792 12.7299C53.5554 12.7299 52.9584 12.9711 52.4879 13.4536C52.0175 13.924 51.7823 14.5332 51.7823 15.2811C51.7823 16.0289 52.0175 16.6441 52.4879 17.1266Z" fill="#18191F"/>
<path d="M66.4195 13.0013H64.3749V16.7647C64.3749 17.0783 64.4533 17.3075 64.6101 17.4523C64.7669 17.597 64.9961 17.6815 65.2977 17.7056C65.5992 17.7176 65.9732 17.7116 66.4195 17.6875V19.8044C64.8152 19.9854 63.6813 19.8346 63.0179 19.3521C62.3665 18.8696 62.0408 18.0071 62.0408 16.7647V13.0013H60.4667V10.7577H62.0408V8.93025L64.3749 8.2246V10.7577H66.4195V13.0013Z" fill="#18191F"/>
<path d="M74.6579 10.7577H76.992V19.8044H74.6579V18.7369C73.9583 19.6175 72.9752 20.0577 71.7087 20.0577C70.5025 20.0577 69.4651 19.5994 68.5966 18.6826C67.7402 17.7538 67.312 16.62 67.312 15.2811C67.312 13.9421 67.7402 12.8143 68.5966 11.8976C69.4651 10.9688 70.5025 10.5044 71.7087 10.5044C72.9752 10.5044 73.9583 10.9447 74.6579 11.8252V10.7577ZM70.3517 17.1266C70.8221 17.597 71.4192 17.8322 72.1429 17.8322C72.8667 17.8322 73.4638 17.597 73.9342 17.1266C74.4167 16.6441 74.6579 16.0289 74.6579 15.2811C74.6579 14.5332 74.4167 13.924 73.9342 13.4536C73.4638 12.9711 72.8667 12.7299 72.1429 12.7299C71.4192 12.7299 70.8221 12.9711 70.3517 13.4536C69.8813 13.924 69.646 14.5332 69.646 15.2811C69.646 16.0289 69.8813 16.6441 70.3517 17.1266Z" fill="#18191F"/>
<path d="M84.1385 10.5044C85.1276 10.5044 85.9418 10.8361 86.5811 11.4995C87.2324 12.1629 87.5581 13.0797 87.5581 14.2497V19.8044H85.2241V14.5392C85.2241 13.9361 85.0612 13.4777 84.7356 13.1641C84.4099 12.8384 83.9756 12.6756 83.4328 12.6756C82.8297 12.6756 82.3472 12.8626 81.9854 13.2365C81.6235 13.6104 81.4425 14.1713 81.4425 14.9192V19.8044H79.1085V10.7577H81.4425V11.7709C82.0095 10.9266 82.9081 10.5044 84.1385 10.5044Z" fill="#18191F"/>
<path d="M96.4266 10.7577H98.7607V19.8044H96.4266V18.7369C95.727 19.6175 94.7439 20.0577 93.4774 20.0577C92.2712 20.0577 91.2338 19.5994 90.3653 18.6826C89.5089 17.7538 89.0807 16.62 89.0807 15.2811C89.0807 13.9421 89.5089 12.8143 90.3653 11.8976C91.2338 10.9688 92.2712 10.5044 93.4774 10.5044C94.7439 10.5044 95.727 10.9447 96.4266 11.8252V10.7577ZM92.1204 17.1266C92.5908 17.597 93.1879 17.8322 93.9116 17.8322C94.6354 17.8322 95.2325 17.597 95.7029 17.1266C96.1854 16.6441 96.4266 16.0289 96.4266 15.2811C96.4266 14.5332 96.1854 13.924 95.7029 13.4536C95.2325 12.9711 94.6354 12.7299 93.9116 12.7299C93.1879 12.7299 92.5908 12.9711 92.1204 13.4536C91.65 13.924 91.4147 14.5332 91.4147 15.2811C91.4147 16.0289 91.65 16.6441 92.1204 17.1266Z" fill="#18191F"/>
</svg>
