<?xml version="1.0" encoding="UTF-8"?>
<svg id="Layer_1" xmlns="http://www.w3.org/2000/svg" xmlns:xlink="http://www.w3.org/1999/xlink" version="1.1" viewBox="0 0 1200 1200">
  <!-- Generator: Adobe Illustrator 29.3.1, SVG Export Plug-In . SVG Version: 2.1.0 Build 151)  -->
  <defs>
    <style>
      .st0 {
        fill: none;
      }

      .st1 {
        fill: url(#linear-gradient);
      }

      .st2, .st3, .st4, .st5, .st6, .st7, .st8, .st9, .st10, .st11, .st12, .st13 {
        isolation: isolate;
      }

      .st2, .st3, .st5, .st6, .st7, .st8, .st9, .st10, .st11, .st12, .st13 {
        font-size: 24px;
      }

      .st2, .st3, .st6, .st7, .st8, .st9, .st10, .st11, .st12, .st13 {
        font-family: ArialMT, Arial;
      }

      .st2, .st3, .st14 {
        fill: #fff;
      }

      .st2, .st6, .st9, .st13 {
        letter-spacing: 0em;
      }

      .st3, .st8, .st10, .st11 {
        letter-spacing: 0em;
      }

      .st15 {
        fill: #4e4e4e;
      }

      .st5 {
        fill: #272727;
        font-family: Arial-BoldMT, Arial;
        font-weight: 700;
      }

      .st6, .st7 {
        fill: #ab4a9c;
      }

      .st7, .st12 {
        letter-spacing: 0em;
      }

      .st8, .st9 {
        fill: #ed1c24;
      }

      .st10 {
        fill: #959595;
      }

      .st11, .st12, .st13 {
        fill: #00aeef;
      }

      .st16 {
        fill: #e8e8e8;
      }

      .st14 {
        stroke: #d1d1d1;
        stroke-miterlimit: 10;
      }
    </style>
    <linearGradient id="linear-gradient" x1="869.8" y1="1006.4" x2="869.8" y2="985.7" gradientTransform="translate(-29116 34468) scale(34 -34)" gradientUnits="userSpaceOnUse">
      <stop offset="0" stop-color="#292043"/>
      <stop offset="1" stop-color="#1f1834"/>
    </linearGradient>
  </defs>
  <rect class="st0" width="1200" height="1200" rx="3" ry="3"/>
  <g>
    <path class="st1" d="M152.1,246h614.6c41.4,0,75.3,31.2,75.3,69.3v569.3c0,38.1-33.9,69.3-75.3,69.3H147.9c-41.4,0-75.3-31.2-75.3-69.3V319.2c0-40.4,35.6-73.1,79.5-73.1h0Z"/>
    <g class="st4">
      <text class="st2" transform="translate(133.3 316.5) scale(1.2 1)"><tspan x="0" y="0">{</tspan></text>
      <text class="st2" transform="translate(133.3 345.3) scale(1.2 1)"><tspan x="0" y="0" xml:space="preserve">    </tspan></text>
      <text class="st7" transform="translate(159.6 345.3) scale(1.2 1)"><tspan x="0" y="0">&quot;object_type&quot; </tspan></text>
      <text class="st2" transform="translate(303.7 345.3) scale(1.2 1)"><tspan x="0" y="0" xml:space="preserve">:   </tspan></text>
      <text class="st13" transform="translate(330 345.3) scale(1.2 1)"><tspan x="0" y="0">&quot;order&quot;</tspan></text>
      <text class="st3" transform="translate(401.9 345.3) scale(1.2 1)"><tspan x="0" y="0">,</tspan></text>
      <text class="st2" transform="translate(133.3 374.1) scale(1.2 1)"><tspan x="0" y="0" xml:space="preserve">    </tspan></text>
      <text class="st7" transform="translate(159.6 374.1) scale(1.2 1)"><tspan x="0" y="0">&quot;order_id&quot; </tspan></text>
      <text class="st2" transform="translate(269.5 374.1) scale(1.2 1)"><tspan x="0" y="0" xml:space="preserve">:   </tspan></text>
      <text class="st13" transform="translate(295.8 374.1) scale(1.2 1)"><tspan x="0" y="0">&quot;345098457777&quot;</tspan></text>
      <text class="st3" transform="translate(470.1 374.1) scale(1.2 1)"><tspan x="0" y="0">,</tspan></text>
      <text class="st2" transform="translate(133.3 402.9) scale(1.2 1)"><tspan x="0" y="0" xml:space="preserve">    </tspan></text>
      <text class="st7" transform="translate(159.6 402.9) scale(1.2 1)"><tspan x="0" y="0">&quot;source&quot; </tspan></text>
      <text class="st2" transform="translate(253.8 402.9) scale(1.2 1)"><tspan x="0" y="0" xml:space="preserve">:   </tspan></text>
      <text class="st12" transform="translate(280.1 402.9) scale(1.2 1)"><tspan x="0" y="0">&quot;woocommerce&quot;</tspan></text>
      <text class="st3" transform="translate(450.3 402.9) scale(1.2 1)"><tspan x="0" y="0">,</tspan></text>
      <text class="st2" transform="translate(133.3 431.7) scale(1.2 1)"><tspan x="0" y="0" xml:space="preserve">    </tspan></text>
      <text class="st7" transform="translate(159.6 431.7) scale(1.2 1)"><tspan x="0" y="0" xml:space="preserve">&quot;line_items&quot;  </tspan></text>
      <text class="st2" transform="translate(295.8 431.7) scale(1.2 1)"><tspan x="0" y="0">: [</tspan></text>
      <text class="st2" transform="translate(133.3 460.5) scale(1.2 1)"><tspan x="0" y="0" xml:space="preserve">          {</tspan></text>
      <text class="st2" transform="translate(133.3 489.3) scale(1.2 1)"><tspan x="0" y="0" xml:space="preserve">      </tspan></text>
      <text class="st2" transform="translate(172.7 489.3) scale(1.2 1)"><tspan x="0" y="0"> </tspan></text>
      <text class="st7" transform="translate(176.5 489.3) scale(1.2 1)"><tspan x="0" y="0" xml:space="preserve">&quot;weight&quot;  </tspan></text>
      <text class="st2" transform="translate(274.7 489.3) scale(1.2 1)"><tspan x="0" y="0">: </tspan></text>
      <text class="st9" transform="translate(287.7 489.3) scale(1.2 1)"><tspan x="0" y="0">1.7</tspan></text>
      <text class="st3" transform="translate(320.6 489.3) scale(1.2 1)"><tspan x="0" y="0">,</tspan></text>
      <text class="st2" transform="translate(133.3 518.1) scale(1.2 1)"><tspan x="0" y="0" xml:space="preserve">     </tspan></text>
      <text class="st2" transform="translate(166.2 518.1) scale(1.2 1)"><tspan x="0" y="0"> </tspan></text>
      <text class="st7" transform="translate(183.1 518.1) scale(1.2 1)"><tspan x="0" y="0" xml:space="preserve">&quot;weight_unit&quot;  </tspan></text>
      <text class="st3" transform="translate(332.4 518.1) scale(1.2 1)"><tspan x="0" y="0" xml:space="preserve">:  </tspan></text>
      <text class="st13" transform="translate(352.2 518.1) scale(1.2 1)"><tspan x="0" y="0">&quot;KG&quot;</tspan></text>
      <text class="st3" transform="translate(403.1 518.1) scale(1.2 1)"><tspan x="0" y="0">,</tspan></text>
      <text class="st2" transform="translate(133.3 546.9) scale(1.2 1)"><tspan x="0" y="0" xml:space="preserve">      </tspan></text>
      <text class="st2" transform="translate(172.7 546.9) scale(1.2 1)"><tspan x="0" y="0"> </tspan></text>
      <text class="st7" transform="translate(176.5 546.9) scale(1.2 1)"><tspan x="0" y="0" xml:space="preserve">&quot;description&quot;  </tspan></text>
      <text class="st3" transform="translate(320.6 546.9) scale(1.2 1)"><tspan x="0" y="0" xml:space="preserve">:   </tspan></text>
      <text class="st13" transform="translate(346.9 546.9) scale(1.2 1)"><tspan x="0" y="0">&quot;Blue Jean Coat&quot;</tspan></text>
      <text class="st3" transform="translate(525.1 546.9) scale(1.2 1)"><tspan x="0" y="0">,</tspan></text>
      <text class="st2" transform="translate(133.3 575.7) scale(1.2 1)"><tspan x="0" y="0" xml:space="preserve">      </tspan></text>
      <text class="st2" transform="translate(172.7 575.7) scale(1.2 1)"><tspan x="0" y="0"> </tspan></text>
      <text class="st7" transform="translate(176.5 575.7) scale(1.2 1)"><tspan x="0" y="0" xml:space="preserve">&quot;quantity&quot;  </tspan></text>
      <text class="st2" transform="translate(289.2 575.7) scale(1.2 1)"><tspan x="0" y="0" xml:space="preserve">:   </tspan></text>
      <text class="st8" transform="translate(315.3 575.7) scale(1.2 1)"><tspan x="0" y="0">1</tspan></text>
      <text class="st3" transform="translate(328.5 575.7) scale(1.2 1)"><tspan x="0" y="0">,</tspan></text>
      <text class="st2" transform="translate(133.3 604.5) scale(1.2 1)"><tspan x="0" y="0" xml:space="preserve">      </tspan></text>
      <text class="st2" transform="translate(172.7 604.5) scale(1.2 1)"><tspan x="0" y="0"> </tspan></text>
      <text class="st7" transform="translate(176.5 604.5) scale(1.2 1)"><tspan x="0" y="0" xml:space="preserve">&quot;value_amount&quot;  </tspan></text>
      <text class="st3" transform="translate(354.8 604.5) scale(1.2 1)"><tspan x="0" y="0" xml:space="preserve">:   </tspan></text>
      <text class="st8" transform="translate(381 604.5) scale(1.2 1)"><tspan x="0" y="0">99.99</tspan></text>
      <text class="st3" transform="translate(440.1 604.5) scale(1.2 1)"><tspan x="0" y="0">,</tspan></text>
      <text class="st2" transform="translate(133.3 633.3) scale(1.2 1)"><tspan x="0" y="0" xml:space="preserve">      </tspan></text>
      <text class="st2" transform="translate(172.7 633.3) scale(1.2 1)"><tspan x="0" y="0"> </tspan></text>
      <text class="st7" transform="translate(176.5 633.3) scale(1.2 1)"><tspan x="0" y="0" xml:space="preserve">&quot;value_currency&quot;  </tspan></text>
      <text class="st3" transform="translate(366.6 633.3) scale(1.2 1)"><tspan x="0" y="0" xml:space="preserve">:   </tspan></text>
      <text class="st13" transform="translate(392.9 633.3) scale(1.2 1)"><tspan x="0" y="0">&quot;USD&quot;</tspan></text>
      <text class="st3" transform="translate(459.5 633.3) scale(1.2 1)"><tspan x="0" y="0">,</tspan></text>
      <text class="st2" transform="translate(133.3 662.1) scale(1.2 1)"><tspan x="0" y="0" xml:space="preserve">      </tspan></text>
      <text class="st2" transform="translate(172.7 662.1) scale(1.2 1)"><tspan x="0" y="0"> </tspan></text>
      <text class="st7" transform="translate(176.5 662.1) scale(1.2 1)"><tspan x="0" y="0" xml:space="preserve">&quot;unfulfilled_quantity&quot;  </tspan></text>
      <text class="st3" transform="translate(402.1 662.1) scale(1.2 1)"><tspan x="0" y="0" xml:space="preserve">:   </tspan></text>
      <text class="st8" transform="translate(428.3 662.1) scale(1.2 1)"><tspan x="0" y="0">1</tspan></text>
      <text class="st2" transform="translate(133.3 690.9) scale(1.2 1)"><tspan x="0" y="0" xml:space="preserve">           },</tspan></text>
      <text class="st2" transform="translate(133.3 719.7) scale(1.2 1)"><tspan x="0" y="0" xml:space="preserve">  ],</tspan></text>
      <text class="st2" transform="translate(133.3 748.5) scale(1.2 1)"><tspan x="0" y="0" xml:space="preserve">    </tspan></text>
      <text class="st7" transform="translate(159.6 748.5) scale(1.2 1)"><tspan x="0" y="0">&quot;options&quot;</tspan></text>
      <text class="st2" transform="translate(252.5 748.5) scale(1.2 1)"><tspan x="0" y="0" xml:space="preserve">:  {</tspan></text>
      <text class="st2" transform="translate(133.3 777.3) scale(1.2 1)"><tspan x="0" y="0" xml:space="preserve">    </tspan></text>
      <text class="st7" transform="translate(159.6 777.3) scale(1.2 1)"><tspan x="0" y="0" xml:space="preserve">&quot;preferred_service&quot;  </tspan></text>
      <text class="st3" transform="translate(373.2 777.3) scale(1.2 1)"><tspan x="0" y="0" xml:space="preserve">:  </tspan></text>
      <text class="st11" transform="translate(393 777.3) scale(1.2 1)"><tspan x="0" y="0" xml:space="preserve"> &quot;ups_express_saver_ca&quot;</tspan></text>
      <text class="st3" transform="translate(659.1 777.3) scale(1.2 1)"><tspan x="0" y="0">,</tspan></text>
      <text class="st2" transform="translate(133.3 806.1) scale(1.2 1)"><tspan x="0" y="0" xml:space="preserve">  }, </tspan></text>
      <text class="st6" transform="translate(133.3 834.9) scale(1.2 1)"><tspan x="0" y="0" xml:space="preserve">     &quot;test _mode&quot;  </tspan></text>
      <text class="st3" transform="translate(312.9 834.9) scale(1.2 1)"><tspan x="0" y="0" xml:space="preserve">:   </tspan></text>
      <text class="st11" transform="translate(339.2 834.9) scale(1.2 1)"><tspan x="0" y="0">true,</tspan></text>
      <text class="st6" transform="translate(133.3 863.7) scale(1.2 1)"><tspan x="0" y="0" xml:space="preserve">    &quot;created_at&quot;  </tspan></text>
      <text class="st3" transform="translate(301.1 863.7) scale(1.2 1)"><tspan x="0" y="0" xml:space="preserve">:   </tspan></text>
      <text class="st13" transform="translate(327.3 863.7) scale(1.2 1)"><tspan x="0" y="0">&quot;2024-02-10 09:52:27.067064+00:00&quot;</tspan></text>
      <text class="st2" transform="translate(133.3 892.5) scale(1.2 1)"><tspan x="0" y="0">}</tspan></text>
    </g>
  </g>
  <g>
    <rect class="st14" x="544.6" y="209.6" width="582.3" height="131" rx="20" ry="20"/>
    <path class="st16" d="M648.9,307.4c0,3.3-2.7,6-6,6h-64.4c-3.3,0-6-2.7-6-6v-64.4c0-3.3,2.7-6,6-6h64.4c3.3,0,6,2.7,6,6v64.4h0Z"/>
    <g>
      <path class="st15" d="M610.7,257.9c1,0,1.8.8,1.8,1.8h1.8c0-2-1.6-3.5-3.5-3.5s-3.5,1.6-3.5,3.5h1.8c0-1,.8-1.8,1.8-1.8h-.2Z"/>
      <path class="st15" d="M610.7,292.4c-1.1,0-2.1-.4-2.8-1.1s-.7-.9-.7-1.6h-1.8c0,1,.4,2,1.2,2.8s2.5,1.6,4.1,1.6c2.9,0,5.3-2,5.3-4.4h-1.8c0,1.5-1.6,2.7-3.5,2.7Z"/>
      <path class="st15" d="M626.6,285.1c0-1.2.2-3.1-.6-4.6h0c-.2-.4-.5-.7-.8-1-1.2-1.1-2.8-2.6-3.2-7.1-.5-5.9-4.5-11.9-11.2-11.9s-10.7,6-11.2,11.9c-.4,4.4-2,6-3.2,7.1-.3.3-.6.5-.8.8h0c-.8,1.7-.7,3.5-.6,4.8v1.3l.5.3c3.7,2.1,8.7,3.1,15.4,3.1s11.7-1,15.4-3.1l.6-.3v-1.3h-.1ZM624.8,284.9v.5c-3.4,1.8-7.9,2.6-14,2.6s-10.6-.8-14-2.6v-.5c0-1.1-.2-2.5.3-3.5.2-.2.4-.4.6-.6,1.3-1.2,3.3-3.1,3.7-8.2.4-4.9,3.5-10.3,9.4-10.3s9,5.3,9.4,10.3c.4,5.1,2.4,7,3.7,8.2.2.2.5.4.6.6.5,1,.4,2.5.3,3.5Z"/>
    </g>
    <g>
      <g class="st4">
        <text class="st5" transform="translate(671.5 267.7) scale(1.2 1)"><tspan x="0" y="0">order_created</tspan></text>
      </g>
      <g class="st4">
        <text class="st10" transform="translate(671.5 295.8) scale(1.2 1)"><tspan x="0" y="0">evt_n764a1vhf83r82vhr</tspan></text>
      </g>
    </g>
    <g class="st4">
      <text class="st10" transform="translate(989.9 281.5) scale(1.2 1)"><tspan x="0" y="0">10:24:03</tspan></text>
    </g>
  </g>
  <g>
    <rect class="st14" x="544.6" y="372.1" width="582.3" height="131" rx="20" ry="20"/>
    <path class="st16" d="M648.9,469.8c0,3.3-2.7,6-6,6h-64.4c-3.3,0-6-2.7-6-6v-64.4c0-3.3,2.7-6,6-6h64.4c3.3,0,6,2.7,6,6v64.4h0Z"/>
    <g>
      <path class="st15" d="M610.7,420.3c1,0,1.8.8,1.8,1.8h1.8c0-2-1.6-3.5-3.5-3.5s-3.5,1.6-3.5,3.5h1.8c0-1,.8-1.8,1.8-1.8h-.2Z"/>
      <path class="st15" d="M610.7,454.8c-1.1,0-2.1-.4-2.8-1.1s-.7-.9-.7-1.6h-1.8c0,1,.4,2,1.2,2.8s2.5,1.6,4.1,1.6c2.9,0,5.3-2,5.3-4.4h-1.8c0,1.5-1.6,2.7-3.5,2.7Z"/>
      <path class="st15" d="M626.6,447.5c0-1.2.2-3.1-.6-4.6h0c-.2-.4-.5-.7-.8-1-1.2-1.1-2.8-2.6-3.2-7.1-.5-5.9-4.5-11.9-11.2-11.9s-10.7,6-11.2,11.9c-.4,4.4-2,6-3.2,7.1-.3.3-.6.5-.8.8h0c-.8,1.7-.7,3.5-.6,4.8v1.3l.5.3c3.7,2.1,8.7,3.1,15.4,3.1s11.7-1,15.4-3.1l.6-.3v-1.3h-.1ZM624.8,447.4v.5c-3.4,1.8-7.9,2.6-14,2.6s-10.6-.8-14-2.6v-.5c0-1.1-.2-2.5.3-3.5.2-.2.4-.4.6-.6,1.3-1.2,3.3-3.1,3.7-8.2.4-4.9,3.5-10.3,9.4-10.3s9,5.3,9.4,10.3c.4,5.1,2.4,7,3.7,8.2.2.2.5.4.6.6.5,1,.4,2.5.3,3.5Z"/>
    </g>
    <g>
      <g class="st4">
        <text class="st5" transform="translate(671.5 430.2) scale(1.2 1)"><tspan x="0" y="0">shipment_purchased</tspan></text>
      </g>
      <g class="st4">
        <text class="st10" transform="translate(671.5 458.2) scale(1.2 1)"><tspan x="0" y="0">evt_hb810vanqvs672np</tspan></text>
      </g>
    </g>
    <g class="st4">
      <text class="st10" transform="translate(989.9 444) scale(1.2 1)"><tspan x="0" y="0">10:24:04</tspan></text>
    </g>
  </g>
  <g>
    <rect class="st14" x="544.6" y="534.5" width="582.3" height="131" rx="20" ry="20"/>
    <path class="st16" d="M648.9,632.2c0,3.3-2.7,6-6,6h-64.4c-3.3,0-6-2.7-6-6v-64.4c0-3.3,2.7-6,6-6h64.4c3.3,0,6,2.7,6,6v64.4h0Z"/>
    <g>
      <path class="st15" d="M610.7,582.7c1,0,1.8.8,1.8,1.8h1.8c0-2-1.6-3.5-3.5-3.5s-3.5,1.6-3.5,3.5h1.8c0-1,.8-1.8,1.8-1.8h-.2Z"/>
      <path class="st15" d="M610.7,617.3c-1.1,0-2.1-.4-2.8-1.1-.3-.3-.7-.9-.7-1.6h-1.8c0,1,.4,2,1.2,2.8s2.5,1.6,4.1,1.6c2.9,0,5.3-2,5.3-4.4h-1.8c0,1.5-1.6,2.7-3.5,2.7Z"/>
      <path class="st15" d="M626.6,610c0-1.2.2-3.1-.6-4.6h0c-.2-.4-.5-.7-.8-1-1.2-1.1-2.8-2.6-3.2-7.1-.5-5.9-4.5-11.9-11.2-11.9s-10.7,6-11.2,11.9c-.4,4.4-2,6-3.2,7.1-.3.3-.6.5-.8.8h0c-.8,1.7-.7,3.5-.6,4.8v1.3l.5.3c3.7,2.1,8.7,3.1,15.4,3.1s11.7-1,15.4-3.1l.6-.3v-1.3h-.1ZM624.8,609.8v.5c-3.4,1.8-7.9,2.6-14,2.6s-10.6-.8-14-2.6v-.5c0-1.1-.2-2.5.3-3.5l.6-.6c1.3-1.2,3.3-3.1,3.7-8.2.4-4.9,3.5-10.3,9.4-10.3s9,5.3,9.4,10.3c.4,5.1,2.4,7,3.7,8.2.2.2.5.4.6.6.5,1,.4,2.5.3,3.5Z"/>
    </g>
    <g>
      <g class="st4">
        <text class="st5" transform="translate(671.5 592.6) scale(1.2 1)"><tspan x="0" y="0">tracker_created</tspan></text>
      </g>
      <g class="st4">
        <text class="st10" transform="translate(671.5 620.6) scale(1.2 1)"><tspan x="0" y="0">evt_qpa420n764a1vhf8</tspan></text>
      </g>
    </g>
    <g class="st4">
      <text class="st10" transform="translate(989.9 606.4) scale(1.2 1)"><tspan x="0" y="0">10:24:05</tspan></text>
    </g>
  </g>
  <g>
    <rect class="st14" x="544.6" y="696.9" width="582.3" height="131" rx="20" ry="20"/>
    <path class="st16" d="M648.9,794.6c0,3.3-2.7,6-6,6h-64.4c-3.3,0-6-2.7-6-6v-64.4c0-3.3,2.7-6,6-6h64.4c3.3,0,6,2.7,6,6v64.4h0Z"/>
    <g>
      <path class="st15" d="M610.7,745.2c1,0,1.8.8,1.8,1.8h1.8c0-2-1.6-3.5-3.5-3.5s-3.5,1.6-3.5,3.5h1.8c0-1,.8-1.8,1.8-1.8h-.2Z"/>
      <path class="st15" d="M610.7,779.7c-1.1,0-2.1-.4-2.8-1.1-.3-.3-.7-.9-.7-1.6h-1.8c0,1,.4,2,1.2,2.8s2.5,1.6,4.1,1.6c2.9,0,5.3-2,5.3-4.4h-1.8c0,1.5-1.6,2.7-3.5,2.7Z"/>
      <path class="st15" d="M626.6,772.4c0-1.2.2-3.1-.6-4.6h0c-.2-.4-.5-.7-.8-1-1.2-1.1-2.8-2.6-3.2-7.1-.5-5.9-4.5-11.9-11.2-11.9s-10.7,6-11.2,11.9c-.4,4.4-2,6-3.2,7.1-.3.3-.6.5-.8.8h0c-.8,1.7-.7,3.5-.6,4.8v1.3l.5.3c3.7,2.1,8.7,3.1,15.4,3.1s11.7-1,15.4-3.1l.6-.3v-1.3h-.1ZM624.8,772.2v.5c-3.4,1.8-7.9,2.6-14,2.6s-10.6-.8-14-2.6v-.5c0-1.1-.2-2.5.3-3.5l.6-.6c1.3-1.2,3.3-3.1,3.7-8.2.4-4.9,3.5-10.3,9.4-10.3s9,5.3,9.4,10.3c.4,5.1,2.4,7,3.7,8.2.2.2.5.4.6.6.5,1,.4,2.5.3,3.5Z"/>
    </g>
    <g>
      <g class="st4">
        <text class="st5" transform="translate(671.5 755) scale(1.2 1)"><tspan x="0" y="0">order_fulfilled</tspan></text>
      </g>
      <g class="st4">
        <text class="st10" transform="translate(671.5 783.1) scale(1.2 1)"><tspan x="0" y="0">evt_iw2wu8sa9m1lm3g</tspan></text>
      </g>
    </g>
    <g class="st4">
      <text class="st10" transform="translate(989.9 768.8) scale(1.2 1)"><tspan x="0" y="0">10:24:06</tspan></text>
    </g>
  </g>
  <g>
    <rect class="st14" x="544.6" y="859.3" width="582.3" height="131" rx="20" ry="20"/>
    <path class="st16" d="M648.9,957.1c0,3.3-2.7,6-6,6h-64.4c-3.3,0-6-2.7-6-6v-64.4c0-3.3,2.7-6,6-6h64.4c3.3,0,6,2.7,6,6v64.4h0Z"/>
    <g>
      <path class="st15" d="M610.7,907.6c1,0,1.8.8,1.8,1.8h1.8c0-2-1.6-3.5-3.5-3.5s-3.5,1.6-3.5,3.5h1.8c0-1,.8-1.8,1.8-1.8h-.2Z"/>
      <path class="st15" d="M610.7,942.1c-1.1,0-2.1-.4-2.8-1.1-.3-.3-.7-.9-.7-1.6h-1.8c0,1,.4,2,1.2,2.8s2.5,1.6,4.1,1.6c2.9,0,5.3-2,5.3-4.4h-1.8c0,1.5-1.6,2.7-3.5,2.7Z"/>
      <path class="st15" d="M626.6,934.8c0-1.2.2-3.1-.6-4.6h0c-.2-.4-.5-.7-.8-1-1.2-1.1-2.8-2.6-3.2-7.1-.5-5.9-4.5-11.9-11.2-11.9s-10.7,6-11.2,11.9c-.4,4.4-2,6-3.2,7.1-.3.3-.6.5-.8.8h0c-.8,1.7-.7,3.5-.6,4.8v1.3l.5.3c3.7,2.1,8.7,3.1,15.4,3.1s11.7-1,15.4-3.1l.6-.3v-1.3h-.1ZM624.8,934.6v.5c-3.4,1.8-7.9,2.6-14,2.6s-10.6-.8-14-2.6v-.5c0-1.1-.2-2.5.3-3.5l.6-.6c1.3-1.2,3.3-3.1,3.7-8.2.4-4.9,3.5-10.3,9.4-10.3s9,5.3,9.4,10.3c.4,5.1,2.4,7,3.7,8.2.2.2.5.4.6.6.5,1,.4,2.5.3,3.5Z"/>
    </g>
    <g>
      <g class="st4">
        <text class="st5" transform="translate(671.5 917.4) scale(1.2 1)"><tspan x="0" y="0">tracker_updated</tspan></text>
      </g>
      <g class="st4">
        <text class="st10" transform="translate(671.5 945.5) scale(1.2 1)"><tspan x="0" y="0">evt_bm3at9ty2tli9ty5rk1</tspan></text>
      </g>
    </g>
    <g class="st4">
      <text class="st10" transform="translate(989.9 931.2) scale(1.2 1)"><tspan x="0" y="0">10:24:07</tspan></text>
    </g>
  </g>
</svg>