<?xml version="1.0" encoding="UTF-8"?>
<svg id="Layer_1" xmlns="http://www.w3.org/2000/svg" version="1.1" viewBox="0 0 1200 1200">
  <!-- Generator: Adobe Illustrator 29.2.1, SVG Export Plug-In . SVG Version: 2.1.0 Build 116)  -->
  <defs>
    <style>
      .st0, .st1, .st2 {
        fill: none;
      }

      .st3, .st1, .st2 {
        stroke: #8c95a6;
      }

      .st3, .st2 {
        stroke-width: 1.5px;
      }

      .st3, .st4, .st5, .st6 {
        fill: #fff;
      }

      .st7 {
        fill: #66758f;
      }

      .st7, .st8, .st9, .st10, .st11, .st5, .st12 {
        isolation: isolate;
      }

      .st7, .st8, .st9, .st11, .st5 {
        font-size: 24px;
      }

      .st7, .st8, .st5 {
        font-family: ArialRoundedMTBold, 'Arial Rounded MT Bold';
      }

      .st8, .st11 {
        fill: #ef4444;
      }

      .st13 {
        fill: #ffb406;
      }

      .st1 {
        stroke-linecap: round;
        stroke-linejoin: round;
      }

      .st1, .st6 {
        stroke-width: 2px;
      }

      .st9 {
        fill: #374151;
      }

      .st9, .st11 {
        font-family: ArialMT, Arial;
      }

      .st14 {
        fill: #341b14;
      }

      .st15 {
        fill: #5722cc;
      }

      .st12 {
        fill: #19212e;
        font-family: Arial-BoldMT, Arial;
        font-size: 42px;
        font-weight: 700;
      }

      .st16 {
        fill: #336;
      }

      .st17 {
        fill: #fdca2e;
      }

      .st6 {
        stroke: #d9dee7;
      }

      .st18 {
        fill: #d0131d;
      }
    </style>
  </defs>
  <rect class="st0" width="1200" height="1200" rx="3" ry="3"/>
  <g>
    <rect class="st6" x="80" y="160" width="900" height="840" rx="24" ry="24"/>
    <text class="st12" transform="translate(190 240)"><tspan x="0" y="0">Edit Carrier Connection</tspan></text>
    <g>
      <rect class="st2" x="190" y="329" width="680" height="70" rx="12" ry="12"/>
      <text class="st9" transform="translate(214 373)"><tspan x="0" y="0">DHL Express</tspan></text>
      <g>
        <polyline class="st1" points="829.6 366.1 833.4 370.7 837.1 366.1"/>
        <polyline class="st1" points="837.1 361.9 833.3 357.3 829.6 361.9"/>
      </g>
      <g class="st10">
        <text class="st7" transform="translate(189.3 309)"><tspan x="0" y="0">Carrier</tspan></text>
      </g>
    </g>
    <g>
      <g class="st10">
        <text class="st7" transform="translate(190 449)"><tspan x="0" y="0">Carrier ID</tspan></text>
        <text class="st8" transform="translate(307 449)"><tspan x="0" y="0">*</tspan></text>
      </g>
      <rect class="st3" x="190" y="469" width="680" height="70" rx="12" ry="12"/>
    </g>
    <g>
      <g class="st10">
        <text class="st7" transform="translate(190 589)"><tspan x="0" y="0">Site ID</tspan></text>
        <text class="st11" transform="translate(269 589)"><tspan x="0" y="0">*</tspan></text>
      </g>
      <rect class="st3" x="190" y="609" width="680" height="70" rx="12" ry="12"/>
    </g>
    <g>
      <g class="st10">
        <text class="st7" transform="translate(190 729)"><tspan x="0" y="0">Account Number</tspan></text>
        <text class="st8" transform="translate(389.7 729)"><tspan x="0" y="0">*</tspan></text>
      </g>
      <rect class="st3" x="190" y="749" width="680" height="70" rx="12" ry="12"/>
    </g>
    <g>
      <rect class="st15" x="190" y="860" width="680" height="70" rx="12" ry="12"/>
      <text class="st5" transform="translate(480.6 902.8)"><tspan x="0" y="0">Connect</tspan></text>
    </g>
  </g>
  <g>
    <g>
      <path class="st17" d="M1124.8,418.8c0,8.8-7.2,16-16,16h-172.8c-8.8,0-16-7.2-16-16v-172.8c0-8.8,7.2-16,16-16h172.8c8.8,0,16,7.2,16,16v172.8Z"/>
      <path class="st18" d="M999.6,337.3c1.8-3.6,3.3-6.8,4-8.2,3.2-6.5-.1-15.6-11.3-15.6h-36.8l-6.4,12.9h34.3c2.7,0,3.6.6,2.8,2.2-.8,1.6-2.5,5.1-3,6-.6,1.2-.8,2.6,1,2.6,0,0,15.3,0,15.3,0ZM976.6,338.5c-1.8,0-2-1.2-1.5-2.1.4-.8,2.8-5.6,3.2-6.6.6-1.2.4-2.4-2.4-2.4h-15.6l-11.7,23.8h30.9c8.4,0,14.6-3,18.8-11.6.2-.4.4-.8.6-1.2h-22.3,0ZM1002.5,338.5l-6.3,12.8h19.2l6.3-12.8h-19.2ZM1029.5,338.5l-6.3,12.8h19.2l6.3-12.8h-19.2,0ZM1049.3,337.3l11.7-23.8h-19.2l-6.3,12.9h-7.8l6.4-12.9h-19.2l-11.6,23.8h46.1ZM1065.8,313.5h19.2l-11.7,23.8h-19.2l11.7-23.8h0ZM1053.6,338.5h42.9l-6.3,12.8h-31.6c-6.6,0-8.7-5-6.4-9.9.2-.6,1.4-2.9,1.4-2.9ZM952,338.5l-1.8,3.8h-30.2v-3.8h32ZM949.8,343l-1.9,3.8h-27.9v-3.8h29.8ZM947.6,347.6l-1.9,3.8h-25.7v-3.8h27.6ZM1124.8,342.3h-27.5l1.8-3.8h25.7v3.8ZM1124.8,346.8h-29.8l1.8-3.8h27.9v3.8ZM1124.8,351.3h-32l1.9-3.8h30.1v3.8Z"/>
    </g>
    <g>
      <path class="st14" d="M1104.5,684.8h-164.2c-11.2,0-20.3-9.1-20.3-20.3v-164.2c0-11.2,9.1-20.3,20.3-20.3h164.2c11.2,0,20.3,9.1,20.3,20.3v164.2c0,11.2-9.1,20.3-20.3,20.3Z"/>
      <path class="st14" d="M1022.4,658.5c1.3-.7,35.7-15.6,46.6-24.5,11.2-9.2,17.2-22.5,17.2-38.4v-74.4l-1-.3c-27.4-14.9-61.5-13.9-63.2-13.9s-35.4-1-62.8,13.9l-.7.3v74.7c0,15.9,6,29.1,17.2,38.4,10.9,8.9,45.3,23.8,46.6,24.2"/>
      <path class="st13" d="M1022.4,660.1s-36.4-15.9-47.6-24.8c-11.9-9.9-17.5-23.5-17.5-39v-77.4c28.8-15.5,65.1-14.2,65.1-14.2,0,0,36.4-1.3,65.1,14.2v77c0,15.6-5.6,29.1-17.5,39-11.2,9.3-47.6,25.2-47.6,25.2M962.6,596.3c0,14.6,5.3,26.4,15.6,34.7,9.2,7.6,36.7,19.8,44.3,23.2,7.6-3.3,35.4-15.9,44.3-23.2,10.2-8.3,15.6-20.5,15.6-34.7v-76.1c-38.4-3.6-84-1.6-119.7,31.4v44.7h0Z"/>
      <path class="st13" d="M1059.1,585.4c5,3,7,5,7.3,8.6,0,4-2.6,6.3-7,6.3s-7.9-2-10.9-4.6v10.6c3.6,2,7.9,3.6,12.6,3.6,11.2,0,16.5-7.9,16.5-15.2.3-6.6-1.6-11.9-11.2-17.5-4.3-2.6-7.6-4.3-7.6-8.3s3.6-5.6,6.6-5.6,7.9,2.3,10.2,4.6v-9.9c-2-1.6-6.3-4-12.6-3.6-7.6.3-15.6,5.6-15.6,14.9.4,6.3,2.4,10.9,11.6,16.2M1020.1,609.2c1,.3,2.6.7,5.3.7,12.9,0,20.2-11.6,20.2-28.1s-7.6-27.1-21.2-27.1-11.2,1.3-15.6,4v74.7h11.2v-24.1h0ZM1020.1,564.2c1-.3,2.6-1,4-1,6.6,0,9.2,5.3,9.2,18.2s-3.3,18.5-9.9,18.5-3-.3-3.6-.7v-35h.4ZM985.4,609.8c7,0,12.9-1.6,17.2-4.6v-49.9h-11.6v43.3c-1.3,1-3,1.3-5.3,1.3-5.3,0-6-5-6-7.9v-36.7h-11.6v36c0,12.2,5.9,18.5,17.2,18.5"/>
    </g>
    <g>
      <path class="st16" d="M1124.8,918.8c0,8.8-7.2,16-16,16h-172.8c-8.8,0-16-7.2-16-16v-172.8c0-8.8,7.2-16,16-16h172.8c8.8,0,16,7.2,16,16v172.8Z"/>
      <path class="st4" d="M1081.6,883.5l21.8-102.2h-142.3l-21.7,102.2h142.3Z"/>
      <path class="st16" d="M964,785.3s79.1,16.2,80.7,16.5c18.2,3.2,17.6,6.7,17.6,6.7,12.7,0,14.3.4,16.5,2.3,6.7,5.6-4.2,22.1-4.2,22.1-1.6,1.2-119.3,46.6-119.3,46.6h123.2l20.1-94.7h-134.6v.4"/>
      <path class="st16" d="M1056.1,816c-1.8.9-6.4,1.4-8.6,1.6-2.1.2-2.7.4-2.7,1.2,0,.7.3,1.1,3.3,1.1,6.9,0,19.4-2.6,23.1-1.4,2,.6.4,4.2-1.2,8.8-.6,1.8.6,1.7,1.3.9s4-6.7,4.3-9.7c.5-4.3-3.2-4.9-8.2-4.9h-8c-.4,0-.8.3-1.3,1-.4.6-.8.9-1.9,1.5"/>
      <path class="st16" d="M959.4,806.8l-15.4,72.8s47.4-23.2,53.1-26.2c11.9-6.1,28.3-14.2,43.4-19.3,2.9-1,15.3-4.8,22.5-6.1,2.8-.5,4-1,4-1.5-.1-1.5-2.9-1.6-7.7-1.4-14.5.7-42.3,11.8-50.3,16l-9-28h57.8c2.6-7.3-34.2-6.2-35.3-6.3h-63"/>
    </g>
  </g>
</svg>