<?xml version="1.0" encoding="UTF-8"?>
<svg id="Layer_1" xmlns="http://www.w3.org/2000/svg" xmlns:xlink="http://www.w3.org/1999/xlink" version="1.1" viewBox="0 0 1200 1200">
  <!-- Generator: Adobe Illustrator 29.3.1, SVG Export Plug-In . SVG Version: 2.1.0 Build 151)  -->
  <defs>
    <style>
      .st0, .st1, .st2, .st3, .st4, .st5 {
        fill: none;
      }

      .st6, .st7 {
        fill-rule: evenodd;
      }

      .st6, .st8 {
        fill: #fff;
      }

      .st9 {
        fill: url(#linear-gradient2);
      }

      .st10 {
        fill: url(#linear-gradient8);
      }

      .st11 {
        fill: url(#linear-gradient4);
      }

      .st12 {
        fill: gray;
      }

      .st13 {
        fill: #79e5dd;
      }

      .st1 {
        stroke: url(#linear-gradient5);
      }

      .st1, .st2, .st3 {
        stroke-width: 5px;
      }

      .st1, .st2, .st3, .st4, .st5 {
        stroke-linecap: round;
        stroke-linejoin: round;
      }

      .st2 {
        stroke: url(#linear-gradient7);
      }

      .st3 {
        stroke: url(#linear-gradient6);
        stroke-dasharray: 1 14.8;
      }

      .st14 {
        fill: #061340;
      }

      .st15 {
        fill: #0275d8;
      }

      .st16 {
        fill: url(#linear-gradient);
        opacity: .4;
      }

      .st7 {
        fill: #e9404a;
      }

      .st17 {
        fill: #004990;
      }

      .st18 {
        fill: #ff4800;
      }

      .st19 {
        fill: #336;
      }

      .st20 {
        opacity: .5;
      }

      .st21 {
        fill: #fdca2e;
      }

      .st22 {
        fill: #ed1c2e;
      }

      .st23 {
        fill: #d0131d;
      }

      .st4 {
        stroke: url(#linear-gradient1);
      }

      .st4, .st5 {
        stroke-width: 2px;
      }

      .st5 {
        stroke: url(#linear-gradient3);
      }
    </style>
    <linearGradient id="linear-gradient" x1="167.1" y1="600" x2="813.4" y2="600" gradientUnits="userSpaceOnUse">
      <stop offset="0" stop-color="#fff" stop-opacity=".5"/>
      <stop offset=".5" stop-color="#9c9c9c" stop-opacity=".4"/>
      <stop offset=".7" stop-color="#c5c5c5" stop-opacity=".7"/>
      <stop offset=".8" stop-color="#e4e4e4" stop-opacity=".8"/>
      <stop offset=".9" stop-color="#f7f7f7" stop-opacity="1"/>
      <stop offset="1" stop-color="#fff"/>
    </linearGradient>
    <linearGradient id="linear-gradient1" x1="463.3" y1="664.4" x2="516.1" y2="664.4" gradientUnits="userSpaceOnUse">
      <stop offset="0" stop-color="#9c9c9c" stop-opacity=".9"/>
      <stop offset="1" stop-color="#fff"/>
    </linearGradient>
    <linearGradient id="linear-gradient2" y1="664.4" y2="664.4" xlink:href="#linear-gradient1"/>
    <linearGradient id="linear-gradient3" x1="517.1" y1="535.6" x2="464.3" y2="535.6" gradientUnits="userSpaceOnUse">
      <stop offset="0" stop-color="#9c9c9c" stop-opacity=".9"/>
      <stop offset="1" stop-color="#fff"/>
    </linearGradient>
    <linearGradient id="linear-gradient4" y1="535.6" y2="535.6" xlink:href="#linear-gradient3"/>
    <linearGradient id="linear-gradient5" x1="313.9" y1="600" x2="666.5" y2="600" gradientUnits="userSpaceOnUse">
      <stop offset="0" stop-color="#fff" stop-opacity=".1"/>
      <stop offset=".5" stop-color="#9c9c9c" stop-opacity=".1"/>
      <stop offset="1" stop-color="#fff" stop-opacity=".1"/>
    </linearGradient>
    <linearGradient id="linear-gradient6" x1="313.9" x2="666.5" xlink:href="#linear-gradient5"/>
    <linearGradient id="linear-gradient7" x1="313.9" x2="666.5" xlink:href="#linear-gradient5"/>
    <linearGradient id="linear-gradient8" x1="292.8" y1="986.8" x2="292.8" y2="981.4" gradientTransform="translate(-9712 34060) scale(34 -34)" gradientUnits="userSpaceOnUse">
      <stop offset="0" stop-color="#292043"/>
      <stop offset="1" stop-color="#1f1834"/>
    </linearGradient>
  </defs>
  <rect class="st16" x="167.1" y="556.8" width="646.3" height="86.4"/>
  <rect class="st0" width="1200" height="1200" rx="3" ry="3"/>
  <g>
    <g>
      <path d="M829.9,562c0,8-6.5,14.5-14.5,14.5h-156.6c-8,0-14.5-6.5-14.5-14.5v-156.6c0-8,6.5-14.5,14.5-14.5h156.6c8,0,14.5,6.5,14.5,14.5v156.6Z"/>
      <path class="st6" d="M693.6,461.9c3.3-.1,11.6-.4,12.2,6.3,0,.5,0,1.1,0,1.6-.2,1.7-.5,2.5-.6,3.8h-9.1c2.7-5.9-8.7-5.3-8.7-1.4s4.1,2.8,5.9,3.3c3.4,1.1,7.4,2.8,7.5,6.8.1,3-1.8,6-3.4,7.8-3,3.6-7.7,5.8-13.9,6.2h-2.8c-4.4-.3-9-1-10.4-4.3-1-2.4,0-5.4.6-7.9h9.7c-.6,1.3-.8,2.6-.4,3.6,1.4,3.4,9.9,1.2,9.8-2.1,0-2.3-3.6-2.7-5.8-3.4-2.8-.9-6.2-2.3-7.1-4.9-1.4-3.6,1.4-7.6,2.9-9.6.4-.5,5.3-5.5,13.4-5.8Z"/>
      <path class="st6" d="M764.9,492.8c-4-5-.5-13.7,2.5-18.2,2.3-3.5,4.9-6.8,8-9,4.7-3.2,13.7-5.2,19.5-2.4,4.5,2.2,6,8.3,3.6,14.5-.7,1.7-1.4,3.3-2.3,4.9-.7,1.3-1.5,3.3-2.8,4.3-1.4,1.1-4.3,1.6-6.5,2.1-6.9,1.7-15.3,2.9-22.1,3.7ZM782.2,470.7c-3.2,1.9-6.4,7-7.9,11.4-1.4,3.9-.5,8,4.4,7,3.1-.7,5.3-3.7,7.2-6.8,1.6-2.7,3.1-5.4,3.2-8.4.2-3.2-1.3-4.4-4.2-4.1-.8,0-2,.5-2.7.9Z"/>
      <path class="st6" d="M737.5,470.7h-18.3c-.8,1.4-1.4,2.9-2.1,4.4h15.9c-1.1,2.5-2.2,5.1-3.5,7.5h-15.9c-.9,1.4-1.5,3.3-2.4,4.9h18.8c-1.4,3.4-2.6,5.8-4,8.6h-29.1c2.2-4.8,2.8-5.7,4.1-8.5,3.9-8.3,8.1-16.7,12-25.1h28.5c-1.4,2.7-2.6,5.5-4,8.3Z"/>
      <path class="st6" d="M728.4,496.2c5.3-11.1,10.8-22.7,16.1-33.9h10c-1.7,3.8-3.6,7.4-5.3,11.3,3.6-2.5,7.4-5.5,11.1-8.4,1.1-.9,2.5-2,3.7-2.9h12.2c-.5.4-.7.5-.8.7-5.3,4.2-11.2,8.1-16.4,12.2.4,5.8.8,11.7,1.1,17.6v.6c-3.4.3-6.7.7-10.2.9,0-2.8,0-3.3-.1-5.6,0-.4,0-1,0-1.3,0-2.5-.1-3.5-.2-5.3-1.9.8-4.1,2.3-6.1,3.4-1.4,3.3-3,6.5-4.5,9.7-3.2.3-6.7.8-10.6.8Z"/>
      <path class="st7" d="M798.5,478c.9,0,1.7,0,2.4,0,5,.6,10.8,4,7.5,9.7-3.4,6-12.2,8.9-19.4,11-23.9,7-52.3,9-81.4,10-.1,0-.3,0-.1-.1,19.6-1.4,39.4-3.1,56.9-6.7,5.8-1.2,11.5-2.5,16.5-4.8-31.6,8.1-71.5,7.6-110.6,8.2-.8,0-2,0-4-.4,25.5-1.1,55.1-2.5,79.1-5.1,8-.9,15.8-1.7,22.9-4-26.7,3.8-59.9,2.9-90.6,2.9s-7.1-.3-7.9-.1c2.3-.4,6.5-.1,9-.2,12.2-.5,24.4-.8,36.2-1.6,4.8-.3,9.4-.6,13.9-.8,3.1-.1,6.7-.4,10.4-.7,3.4-.3,7.4-.7,10.9-1.1,3.5-.2,9.1-.8,10.2-.9.6,0,1.1-.1,1.3-.1,1-.1.8,0,1.6-.2.9-.1,1.1-.1,1.9-.3,6.9-.8,15.3-2,22.1-3.7,2.1-.5,5-1.1,6.5-2.1,1.3-1,2.1-3,2.8-4.3.8-1.6,1.4-2.9,2.1-4.6Z"/>
    </g>
    <g>
      <path class="st19" d="M1066.7,678.6c0,8-6.5,14.6-14.6,14.6h-157.1c-8,0-14.6-6.5-14.6-14.6v-157.1c0-8,6.5-14.6,14.6-14.6h157.1c8,0,14.6,6.5,14.6,14.6v157.1Z"/>
      <path class="st8" d="M1027.5,646.5l19.8-93h-129.4l-19.8,93h129.4Z"/>
      <path class="st19" d="M920.5,557.2s72,14.8,73.4,15c16.5,2.9,16,6.1,16,6.1,11.6,0,13,.4,15,2.1,6.1,5.1-3.8,20.1-3.8,20.1-1.4,1.1-108.5,42.4-108.5,42.4h112l18.3-86.1h-122.4v.4"/>
      <path class="st19" d="M1004.3,585.1c-1.6.8-5.9,1.2-7.9,1.4-1.9.1-2.4.4-2.5,1.1,0,.7.3,1,3,1,6.3,0,17.6-2.4,21-1.3,1.8.6.4,3.8-1.1,8-.6,1.6.5,1.5,1.2.8s3.6-6.1,3.9-8.8c.4-3.9-2.9-4.5-7.5-4.5h-7.3c-.4,0-.7.3-1.2.9-.4.5-.7.8-1.7,1.4"/>
      <path class="st19" d="M916.4,576.7l-14,66.2s43.1-21.1,48.3-23.8c10.8-5.5,25.7-12.9,39.5-17.6,2.6-.9,13.9-4.4,20.4-5.5,2.5-.5,3.6-.9,3.6-1.4-.1-1.3-2.7-1.5-7-1.2-13.2.6-38.5,10.7-45.8,14.5l-8.2-25.5h52.5c2.4-6.6-31.1-5.7-32.1-5.7h-57.3"/>
      <path class="st8" d="M1049.2,636.2c0,3.9-3.1,7-7.1,7s-7.2-3.1-7.2-7,3.2-6.9,7.2-6.9,7.1,3.1,7.1,6.9ZM1036.7,636.2c0,3.1,2.3,5.5,5.4,5.5s5.3-2.4,5.3-5.5-2.3-5.6-5.3-5.6c-3.1,0-5.3,2.5-5.3,5.6h0ZM1041,639.8h-1.6v-6.9c.6-.1,1.5-.2,2.7-.2s1.9.2,2.4.5c.4.3.7.8.7,1.5s-.6,1.3-1.5,1.6h0c.7.3,1.1.8,1.3,1.8.2,1.1.3,1.5.5,1.7h-1.7c-.2-.3-.3-.9-.5-1.7-.1-.8-.5-1.1-1.5-1.1h-.8v2.8h0ZM1041,635.9h.8c.9,0,1.6-.3,1.6-1s-.5-1.1-1.5-1.1-.7,0-.9,0v2h0Z"/>
    </g>
    <g>
      <path class="st21" d="M1066.7,911.2c0,8-6.5,14.6-14.6,14.6h-157.1c-8,0-14.6-6.5-14.6-14.6v-157.1c0-8,6.5-14.6,14.6-14.6h157.1c8,0,14.6,6.5,14.6,14.6v157.1Z"/>
      <path class="st23" d="M952.9,837.1c1.6-3.3,3-6.2,3.6-7.5,2.9-5.9,0-14.2-10.3-14.2h-33.5l-5.8,11.7h31.2c2.5,0,3.3.5,2.5,2s-2.3,4.6-2.7,5.5c-.5,1.1-.7,2.4.9,2.4h14ZM932,838.2c-1.6,0-1.8-1.1-1.4-1.9.4-.7,2.5-5.1,2.9-6,.5-1.1.4-2.2-2.2-2.2h-14.2l-10.6,21.6h28.1c7.6,0,13.3-2.7,17.1-10.5.2-.4.4-.7.5-1.1h-20.3ZM955.5,838.2l-5.7,11.6h17.5l5.7-11.6h-17.5ZM980.1,838.2l-5.7,11.6h17.5l5.7-11.6h-17.5ZM998.1,837.1l10.6-21.6h-17.5l-5.7,11.7h-7.1l5.8-11.7h-17.5l-10.5,21.6h41.9,0ZM1013.1,815.5h17.5l-10.6,21.6h-17.5l10.6-21.6h0ZM1002,838.2h39l-5.7,11.6h-28.7c-6,0-7.9-4.5-5.8-9,.2-.5,1.3-2.6,1.3-2.6ZM909.6,838.2l-1.6,3.5h-27.5v-3.5h29.1ZM907.6,842.3l-1.7,3.5h-25.4v-3.5h27.1ZM905.6,846.5l-1.7,3.5h-23.4v-3.5h25.1ZM1066.7,841.7h-25l1.6-3.5h23.4v3.5ZM1066.7,845.8h-27.1l1.6-3.5h25.4v3.5h0ZM1066.7,849.9h-29.1l1.7-3.5h27.4v3.5Z"/>
    </g>
    <g>
      <path class="st17" d="M1066.7,445.9c0,8-6.5,14.6-14.6,14.6h-157.1c-8,0-14.6-6.5-14.6-14.6v-157.1c0-8,6.5-14.6,14.6-14.6h157.1c8,0,14.6,6.5,14.6,14.6v157.1Z"/>
      <path class="st22" d="M1035.1,367.3c0,33.9-27.5,61.5-61.5,61.5s-61.5-27.5-61.5-61.5c0-34,27.5-61.5,61.5-61.5s61.5,27.5,61.5,61.5Z"/>
      <path class="st8" d="M954.1,375.4l4.4-4.4,48.7-2.2,2.2-2.1h-48l-26.2-30.6,87.3,29.1-29.1,29.1h-58.2l5.8-5.9,48.7-2.1,2.2-2.2h-46.5l4.4-4.4,48.7-2.2,2.2-2.1h-46.5Z"/>
    </g>
    <g>
      <path class="st14" d="M830.2,794.9c0,8-6.5,14.6-14.6,14.6h-157.1c-8,0-14.6-6.5-14.6-14.6v-157.1c0-8,6.5-14.6,14.6-14.6h157.1c8,0,14.6,6.5,14.6,14.6v157.1Z"/>
      <path class="st15" d="M737.1,731.8c-1.2,0-2.1-.2-3.2-.8l-32.5-18.9v16.6l32.5,18.9c1.1.6,2,.8,3.2.8s2.3-.3,3.2-.8l68.3-39.6v16.6l-68.3,39.4c-.9.6-2,.9-3.2.9s-2.1-.3-3.2-.9l-32.5-18.7v16.4l32.5,18.9c1.1.6,2.1.8,3.2.8s2.5-.3,3.2-.8l68.3-39.5v10.4c0,3.7-2,7.2-5.2,9.1l-61.1,35.3c-1.5.9-3.4,1.4-5.2,1.4s-3.5-.5-5.2-1.4l-61.1-35.3c-3.2-1.8-5.2-5.4-5.2-9.1v-70.5c0-3.8,2-7.4,5.2-9.2l61.1-35.1c1.7-.9,3.4-1.4,5.2-1.4s3.7.5,5.2,1.4l61.1,35.1c3.2,1.8,5.2,5.4,5.2,9.2v10.4l-68.3,39.4c-.9.5-2.1.8-3.2.8Z"/>
    </g>
  </g>
  <g class="st20">
    <g>
      <line class="st4" x1="466.7" y1="664.4" x2="515.1" y2="664.4"/>
      <path class="st9" d="M480.4,674c.3-.5.2-1.1-.3-1.4l-12.9-8.2,12.9-8.2c.5-.3.6-.9.3-1.4s-.9-.6-1.4-.3l-14.2,9.1c-.3.2-.5.5-.5.8s.2.7.5.8l14.2,9.1c.2.1.4.2.5.2.3,0,.7-.2.8-.5Z"/>
    </g>
  </g>
  <g class="st20">
    <g>
      <line class="st5" x1="513.7" y1="535.6" x2="465.3" y2="535.6"/>
      <path class="st11" d="M500.1,526c-.3.5-.2,1.1.3,1.4l12.9,8.2-12.9,8.2c-.5.3-.6.9-.3,1.4.3.5.9.6,1.4.3l14.2-9.1c.3-.2.5-.5.5-.8s-.2-.7-.5-.8l-14.2-9.1c-.2-.1-.4-.2-.5-.2-.3,0-.7.2-.8.5Z"/>
    </g>
  </g>
  <g>
    <line class="st12" x1="316.4" y1="600" x2="664" y2="600"/>
    <g>
      <line class="st1" x1="316.4" y1="600" x2="316.9" y2="600"/>
      <line class="st3" x1="331.8" y1="600" x2="656.1" y2="600"/>
      <line class="st2" x1="663.5" y1="600" x2="664" y2="600"/>
    </g>
  </g>
  <g>
    <path class="st10" d="M171.5,508h146.9c9.9,0,18,8.1,18,18v147.9c0,9.9-8.1,18-18,18h-147.9c-9.9,0-18-8.1-18-18v-146.9c0-10.5,8.5-19,19-19Z"/>
    <g>
      <path class="st18" d="M219.2,659.7c-6.9,0-12.6-5.6-12.6-12.5,0,0,0,0,0,0v-92c.5-6.9,6.5-12.2,13.4-11.8,6.3.4,11.3,5.4,11.8,11.8v92c0,6.9-5.6,12.5-12.5,12.5h0Z"/>
      <path class="st13" d="M219.2,660.5c-2.4,0-4.7-.8-6.7-2.1-5.8-3.7-7.6-11.4-3.9-17.3l58-92c3.7-5.9,11.5-7.6,17.3-3.9s7.6,11.5,3.9,17.3l-58,92.1c-2.3,3.7-6.3,5.9-10.7,5.8Z"/>
      <circle class="st8" cx="273.6" cy="639.5" r="21.6"/>
    </g>
  </g>
</svg>