<?xml version="1.0" encoding="UTF-8"?>
<svg id="Layer_1" xmlns="http://www.w3.org/2000/svg" xmlns:xlink="http://www.w3.org/1999/xlink" version="1.1" viewBox="0 0 1200 1200">
  <!-- Generator: Adobe Illustrator 29.3.1, SVG Export Plug-In . SVG Version: 2.1.0 Build 151)  -->
  <defs>
    <style>
      .st0, .st1, .st2, .st3, .st4, .st5 {
        fill: none;
      }

      .st6, .st7 {
        fill-rule: evenodd;
      }

      .st6, .st8, .st9 {
        fill: #fff;
      }

      .st10 {
        fill: url(#linear-gradient2);
      }

      .st11 {
        fill: url(#linear-gradient8);
      }

      .st12 {
        fill: url(#linear-gradient4);
      }

      .st13 {
        fill: #79e5dd;
      }

      .st1 {
        stroke: url(#linear-gradient5);
      }

      .st1, .st2, .st3 {
        stroke-width: 5px;
      }

      .st1, .st2, .st3, .st4, .st5 {
        stroke-linecap: round;
        stroke-linejoin: round;
      }

      .st2 {
        stroke: url(#linear-gradient7);
      }

      .st14 {
        fill: #061340;
      }

      .st15 {
        fill: #0275d8;
      }

      .st7 {
        fill: #e9404a;
      }

      .st16 {
        fill: #004990;
      }

      .st17 {
        fill: #ff4800;
      }

      .st18 {
        fill: #336;
      }

      .st19 {
        opacity: .5;
      }

      .st20 {
        fill: url(#linear-gradient);
        isolation: isolate;
        opacity: .4;
      }

      .st21 {
        fill: #fdca2e;
      }

      .st3 {
        stroke: url(#linear-gradient6);
        stroke-dasharray: 1 14.8;
      }

      .st22 {
        fill: #ed1c2e;
      }

      .st23 {
        fill: #d0131d;
      }

      .st4 {
        stroke: url(#linear-gradient1);
      }

      .st4, .st5 {
        stroke-width: 2px;
      }

      .st5 {
        stroke: url(#linear-gradient3);
      }

      .st9 {
        stroke: #d1d1d1;
        stroke-miterlimit: 10;
      }
    </style>
    <linearGradient id="linear-gradient" x1="206.4" y1="600" x2="781.3" y2="600" gradientTransform="translate(0 1200) scale(1 -1)" gradientUnits="userSpaceOnUse">
      <stop offset="0" stop-color="#fff" stop-opacity=".5"/>
      <stop offset=".5" stop-color="#9c9c9c" stop-opacity=".4"/>
      <stop offset=".7" stop-color="#c5c5c5" stop-opacity=".7"/>
      <stop offset=".8" stop-color="#e4e4e4" stop-opacity=".8"/>
      <stop offset=".9" stop-color="#f7f7f7"/>
      <stop offset="1" stop-color="#fff"/>
    </linearGradient>
    <linearGradient id="linear-gradient1" x1="469.8" y1="542.7" x2="516.9" y2="542.7" gradientTransform="translate(0 1200) scale(1 -1)" gradientUnits="userSpaceOnUse">
      <stop offset="0" stop-color="#9c9c9c" stop-opacity=".9"/>
      <stop offset="1" stop-color="#fff"/>
    </linearGradient>
    <linearGradient id="linear-gradient2" x1="469.9" y1="542.7" x2="516.8" y2="542.7" gradientTransform="translate(0 1200) scale(1 -1)" gradientUnits="userSpaceOnUse">
      <stop offset="0" stop-color="#9c9c9c" stop-opacity=".9"/>
      <stop offset="1" stop-color="#fff"/>
    </linearGradient>
    <linearGradient id="linear-gradient3" x1="517.8" y1="657.3" x2="470.7" y2="657.3" gradientTransform="translate(0 1200) scale(1 -1)" gradientUnits="userSpaceOnUse">
      <stop offset="0" stop-color="#9c9c9c" stop-opacity=".9"/>
      <stop offset="1" stop-color="#fff"/>
    </linearGradient>
    <linearGradient id="linear-gradient4" x1="517.7" y1="657.3" x2="470.8" y2="657.3" gradientTransform="translate(0 1200) scale(1 -1)" gradientUnits="userSpaceOnUse">
      <stop offset="0" stop-color="#9c9c9c" stop-opacity=".9"/>
      <stop offset="1" stop-color="#fff"/>
    </linearGradient>
    <linearGradient id="linear-gradient5" x1="336.7" y1="600" x2="685.8" y2="600" gradientTransform="translate(0 1200) scale(1 -1)" gradientUnits="userSpaceOnUse">
      <stop offset="0" stop-color="#fff" stop-opacity=".1"/>
      <stop offset=".5" stop-color="#9c9c9c" stop-opacity=".1"/>
      <stop offset="1" stop-color="#fff" stop-opacity=".1"/>
    </linearGradient>
    <linearGradient id="linear-gradient6" x1="336.7" y1="600" x2="650.9" y2="600" gradientTransform="translate(0 1200) scale(1 -1)" gradientUnits="userSpaceOnUse">
      <stop offset="0" stop-color="#fff" stop-opacity=".1"/>
      <stop offset=".5" stop-color="#9c9c9c" stop-opacity=".1"/>
      <stop offset="1" stop-color="#fff" stop-opacity=".1"/>
    </linearGradient>
    <linearGradient id="linear-gradient7" x1="301.8" y1="600" x2="650.9" y2="600" gradientTransform="translate(0 1200) scale(1 -1)" gradientUnits="userSpaceOnUse">
      <stop offset="0" stop-color="#fff" stop-opacity=".1"/>
      <stop offset=".5" stop-color="#9c9c9c" stop-opacity=".1"/>
      <stop offset="1" stop-color="#fff" stop-opacity=".1"/>
    </linearGradient>
    <linearGradient id="linear-gradient8" x1="579.1" y1="3.5" x2="579.1" y2="8.3" gradientTransform="translate(-19414 400) scale(34)" gradientUnits="userSpaceOnUse">
      <stop offset="0" stop-color="#292043"/>
      <stop offset="1" stop-color="#1f1834"/>
    </linearGradient>
  </defs>
  <rect class="st0" width="1200" height="1200" rx="3" ry="3"/>
  <rect class="st9" x="153.5" y="240.3" width="893.1" height="719.3" rx="20" ry="20"/>
  <g>
    <rect class="st20" x="206.4" y="561.6" width="574.9" height="76.8"/>
    <g>
      <g>
        <path d="M795.9,566.2c0,7.1-5.8,12.9-12.9,12.9h-139.3c-7.1,0-12.9-5.8-12.9-12.9v-139.3c0-7.1,5.8-12.9,12.9-12.9h139.3c7.1,0,12.9,5.8,12.9,12.9v139.3Z"/>
        <path class="st6" d="M674.7,477.2c2.9,0,10.3-.4,10.9,5.6v1.4c-.2,1.5-.4,2.2-.5,3.4h-8.1c2.4-5.2-7.7-4.7-7.7-1.2s3.6,2.5,5.2,2.9c3,1,6.6,2.5,6.7,6,0,2.7-1.6,5.3-3,6.9-2.7,3.2-6.8,5.2-12.4,5.5h-2.5c-3.9-.3-8-.9-9.3-3.8-.9-2.1,0-4.8.5-7h8.6c-.5,1.2-.7,2.3-.4,3.2,1.2,3,8.8,1.1,8.7-1.9,0-2-3.2-2.4-5.2-3-2.5-.8-5.5-2-6.3-4.4-1.2-3.2,1.2-6.8,2.6-8.5.4-.4,4.7-4.9,11.9-5.2h.2Z"/>
        <path class="st6" d="M738.1,504.6c-3.6-4.4-.4-12.2,2.2-16.2,2-3.1,4.4-6,7.1-8,4.2-2.8,12.2-4.6,17.3-2.1,4,2,5.3,7.4,3.2,12.9-.6,1.5-1.2,2.9-2,4.4-.6,1.2-1.3,2.9-2.5,3.8-1.2,1-3.8,1.4-5.8,1.9-6.1,1.5-13.6,2.6-19.7,3.3h0ZM753.5,485c-2.8,1.7-5.7,6.2-7,10.1-1.2,3.5-.4,7.1,3.9,6.2,2.8-.6,4.7-3.3,6.4-6,1.4-2.4,2.8-4.8,2.8-7.5.2-2.8-1.2-3.9-3.7-3.6-.7,0-1.8.4-2.4.8Z"/>
        <path class="st6" d="M713.8,485h-16.3c-.7,1.2-1.2,2.6-1.9,3.9h14.1c-1,2.2-2,4.5-3.1,6.7h-14.1c-.8,1.2-1.3,2.9-2.1,4.4h16.7c-1.2,3-2.3,5.2-3.6,7.6h-25.9c2-4.3,2.5-5.1,3.6-7.6,3.5-7.4,7.2-14.9,10.7-22.3h25.3c-1.2,2.4-2.3,4.9-3.6,7.4h0Z"/>
        <path class="st6" d="M705.7,507.7c4.7-9.9,9.6-20.2,14.3-30.2h8.9c-1.5,3.4-3.2,6.6-4.7,10.1,3.2-2.2,6.6-4.9,9.9-7.5,1-.8,2.2-1.8,3.3-2.6h10.9c-.4.4-.6.4-.7.6-4.7,3.7-10,7.2-14.6,10.9.4,5.2.7,10.4,1,15.7v.5c-3,.3-6,.6-9.1.8,0-2.5,0-2.9,0-5v-1.2c0-2.2,0-3.1-.2-4.7-1.7.7-3.6,2-5.4,3-1.2,2.9-2.7,5.8-4,8.6-2.8.3-6,.7-9.4.7v.2Z"/>
        <path class="st7" d="M768,491.5h2.1c4.4.5,9.6,3.6,6.7,8.6-3,5.3-10.9,7.9-17.3,9.8-21.3,6.2-46.5,8-72.4,8.9,0,0-.3,0,0,0,17.4-1.2,35-2.8,50.6-6,5.2-1.1,10.2-2.2,14.7-4.3-28.1,7.2-63.6,6.8-98.4,7.3-.7,0-1.8,0-3.6-.4,22.7-1,49-2.2,70.4-4.5,7.1-.8,14.1-1.5,20.4-3.6-23.7,3.4-53.3,2.6-80.6,2.6s-6.3-.3-7,0c2-.4,5.8,0,8-.2,10.9-.4,21.7-.7,32.2-1.4,4.3-.3,8.4-.5,12.4-.7,2.8,0,6-.4,9.3-.6,3-.3,6.6-.6,9.7-1,3.1-.2,8.1-.7,9.1-.8.5,0,1,0,1.2,0,.9,0,.7,0,1.4-.2.8,0,1,0,1.7-.3,6.1-.7,13.6-1.8,19.7-3.3,1.9-.4,4.4-1,5.8-1.9,1.2-.9,1.9-2.7,2.5-3.8.7-1.4,1.2-2.6,1.9-4.1h-.2Z"/>
      </g>
      <g>
        <path class="st18" d="M1006.6,669.9c0,7.1-5.8,13-13,13h-139.7c-7.1,0-13-5.8-13-13v-139.7c0-7.1,5.8-13,13-13h139.7c7.1,0,13,5.8,13,13v139.7Z"/>
        <path class="st8" d="M971.7,641.4l17.6-82.7h-115.1l-17.6,82.7h115.1Z"/>
        <path class="st18" d="M876.5,561.9s64,13.2,65.3,13.3c14.7,2.6,14.2,5.4,14.2,5.4,10.3,0,11.6.4,13.3,1.9,5.4,4.5-3.4,17.9-3.4,17.9-1.2,1-96.5,37.7-96.5,37.7h99.6l16.3-76.6h-108.9v.4"/>
        <path class="st18" d="M951.1,586.7c-1.4.7-5.2,1.1-7,1.2-1.7,0-2.1.4-2.2,1,0,.6.3.9,2.7.9,5.6,0,15.7-2.1,18.7-1.2,1.6.5.4,3.4-1,7.1-.5,1.4.4,1.3,1.1.7s3.2-5.4,3.5-7.8c.4-3.5-2.6-4-6.7-4h-6.5c-.4,0-.6.3-1.1.8-.4.4-.6.7-1.5,1.2"/>
        <path class="st18" d="M872.9,579.3l-12.5,58.9s38.3-18.8,43-21.2c9.6-4.9,22.9-11.5,35.1-15.7,2.3-.8,12.4-3.9,18.1-4.9,2.2-.4,3.2-.8,3.2-1.2,0-1.2-2.4-1.3-6.2-1.1-11.7.5-34.2,9.5-40.7,12.9l-7.3-22.7h46.7c2.1-5.9-27.7-5.1-28.6-5.1h-51"/>
        <path class="st8" d="M991,632.2c0,3.5-2.8,6.2-6.3,6.2s-6.4-2.8-6.4-6.2,2.8-6.1,6.4-6.1,6.3,2.8,6.3,6.1ZM979.9,632.2c0,2.8,2,4.9,4.8,4.9s4.7-2.1,4.7-4.9-2-5-4.7-5-4.7,2.2-4.7,5h0ZM983.7,635.4h-1.4v-6.1c.5,0,1.3-.2,2.4-.2s1.7.2,2.1.4c.4.3.6.7.6,1.3s-.5,1.2-1.3,1.4h0c.6.3,1,.7,1.2,1.6.2,1,.3,1.3.4,1.5h-1.5c-.2-.3-.3-.8-.4-1.5,0-.7-.4-1-1.3-1h-.7v2.5h0ZM983.7,631.9h.7c.8,0,1.4-.3,1.4-.9s-.4-1-1.3-1-.6,0-.8,0v1.8h0Z"/>
      </g>
      <g>
        <path class="st21" d="M1006.6,876.8c0,7.1-5.8,13-13,13h-139.7c-7.1,0-13-5.8-13-13v-139.7c0-7.1,5.8-13,13-13h139.7c7.1,0,13,5.8,13,13v139.7h0Z"/>
        <path class="st23" d="M905.4,810.9c1.4-2.9,2.7-5.5,3.2-6.7,2.6-5.2,0-12.6-9.2-12.6h-29.8l-5.2,10.4h27.8c2.2,0,2.9.4,2.2,1.8s-2,4.1-2.4,4.9c-.4,1-.6,2.1.8,2.1h12.5ZM886.8,811.9c-1.4,0-1.6-1-1.2-1.7.4-.6,2.2-4.5,2.6-5.3.4-1,.4-2-2-2h-12.6l-9.4,19.2h25c6.8,0,11.8-2.4,15.2-9.3.2-.4.4-.6.4-1h-18.1,0ZM907.7,811.9l-5.1,10.3h15.6l5.1-10.3h-15.6ZM929.5,811.9l-5.1,10.3h15.6l5.1-10.3h-15.6ZM945.6,810.9l9.4-19.2h-15.6l-5.1,10.4h-6.3l5.2-10.4h-15.6l-9.3,19.2h37.3ZM958.9,791.7h15.6l-9.4,19.2h-15.6l9.4-19.2h0ZM949,811.9h34.7l-5.1,10.3h-25.5c-5.3,0-7-4-5.2-8,.2-.4,1.2-2.3,1.2-2.3h0ZM866.8,811.9l-1.4,3.1h-24.5v-3.1h25.9ZM865.1,815.5l-1.5,3.1h-22.6v-3.1h24.1ZM863.3,819.3l-1.5,3.1h-20.8v-3.1h22.3ZM1006.6,815h-22.2l1.4-3.1h20.8v3.1ZM1006.6,818.6h-24.1l1.4-3.1h22.6v3.1h0ZM1006.6,822.3h-25.9l1.5-3.1h24.4v3.1Z"/>
      </g>
      <g>
        <path class="st16" d="M1006.6,462.9c0,7.1-5.8,13-13,13h-139.7c-7.1,0-13-5.8-13-13v-139.7c0-7.1,5.8-13,13-13h139.7c7.1,0,13,5.8,13,13v139.7Z"/>
        <path class="st22" d="M978.5,393c0,30.2-24.5,54.7-54.7,54.7s-54.7-24.5-54.7-54.7,24.5-54.7,54.7-54.7,54.7,24.5,54.7,54.7Z"/>
        <path class="st8" d="M906.4,400.2l3.9-3.9,43.3-2,2-1.9h-42.7l-23.3-27.2,77.7,25.9-25.9,25.9h-51.8l5.2-5.2,43.3-1.9,2-2h-41.4l3.9-3.9,43.3-2,2-1.9h-41.4Z"/>
      </g>
      <g>
        <path class="st14" d="M796.2,773.4c0,7.1-5.8,13-13,13h-139.7c-7.1,0-13-5.8-13-13v-139.7c0-7.1,5.8-13,13-13h139.7c7.1,0,13,5.8,13,13v139.7h0Z"/>
        <path class="st15" d="M713.4,717.2c-1.1,0-1.9-.2-2.8-.7l-28.9-16.8v14.8l28.9,16.8c1,.5,1.8.7,2.8.7s2-.3,2.8-.7l60.8-35.2v14.8l-60.8,35c-.8.5-1.8.8-2.8.8s-1.9-.3-2.8-.8l-28.9-16.6v14.6l28.9,16.8c1,.5,1.9.7,2.8.7s2.2-.3,2.8-.7l60.8-35.1v9.3c0,3.3-1.8,6.4-4.6,8.1l-54.3,31.4c-1.3.8-3,1.2-4.6,1.2s-3.1-.4-4.6-1.2l-54.3-31.4c-2.8-1.6-4.6-4.8-4.6-8.1v-62.7c0-3.4,1.8-6.6,4.6-8.2l54.3-31.2c1.5-.8,3-1.2,4.6-1.2s3.3.4,4.6,1.2l54.3,31.2c2.8,1.6,4.6,4.8,4.6,8.2v9.3l-60.8,35c-.8.4-1.9.7-2.8.7v.2Z"/>
      </g>
    </g>
    <g class="st19">
      <g>
        <line class="st4" x1="472.9" y1="657.3" x2="515.9" y2="657.3"/>
        <path class="st10" d="M485.1,665.8c.3-.4.2-1-.3-1.2l-11.5-7.3,11.5-7.3c.4-.3.5-.8.3-1.2s-.8-.5-1.2-.3l-12.6,8.1c-.3.2-.4.4-.4.7s.2.6.4.7l12.6,8.1c.2,0,.4.2.4.2.3,0,.6-.2.7-.4h0Z"/>
      </g>
    </g>
    <g class="st19">
      <g>
        <line class="st5" x1="514.7" y1="542.7" x2="471.7" y2="542.7"/>
        <path class="st12" d="M502.6,534.2c-.3.4-.2,1,.3,1.2l11.5,7.3-11.5,7.3c-.4.3-.5.8-.3,1.2.3.4.8.5,1.2.3l12.6-8.1c.3-.2.4-.4.4-.7s-.2-.6-.4-.7l-12.6-8.1c-.2,0-.4-.2-.4-.2-.3,0-.6.2-.7.4h0Z"/>
      </g>
    </g>
    <g>
      <line class="st0" x1="339.2" y1="600" x2="648.4" y2="600"/>
      <g>
        <line class="st1" x1="339.2" y1="600" x2="339.7" y2="600"/>
        <line class="st3" x1="352.9" y1="600" x2="641.4" y2="600"/>
        <line class="st2" x1="647.9" y1="600" x2="648.4" y2="600"/>
      </g>
    </g>
    <g>
      <path class="st11" d="M210.3,518.2h130.7c8.8,0,16,7.2,16,16v131.6c0,8.8-7.2,16-16,16h-131.6c-8.8,0-16-7.2-16-16v-130.7c0-9.3,7.6-16.9,16.9-16.9Z"/>
      <g>
        <path class="st17" d="M252.8,653.1c-6.1,0-11.2-5-11.2-11.1h0v-81.8c.4-6.1,5.8-10.9,11.9-10.5,5.6.4,10.1,4.8,10.5,10.5v81.8c0,6.1-5,11.1-11.1,11.1h0Z"/>
        <path class="st13" d="M252.8,653.8c-2.1,0-4.2-.7-6-1.9-5.2-3.3-6.8-10.1-3.5-15.4l51.6-81.8c3.3-5.2,10.2-6.8,15.4-3.5s6.8,10.2,3.5,15.4l-51.6,81.9c-2,3.3-5.6,5.2-9.5,5.2h0Z"/>
        <circle class="st8" cx="301.1" cy="635.1" r="19.2"/>
      </g>
    </g>
  </g>
</svg>